%TF.GenerationSoftware,KiCad,Pcbnew,8.0.4*%
%TF.CreationDate,2024-12-02T19:05:10+03:00*%
%TF.ProjectId,_____ __________,1f3b3042-3020-4433-9f40-30323b353d38,rev?*%
%TF.SameCoordinates,Original*%
%TF.FileFunction,Soldermask,Top*%
%TF.FilePolarity,Negative*%
%FSLAX46Y46*%
G04 Gerber Fmt 4.6, Leading zero omitted, Abs format (unit mm)*
G04 Created by KiCad (PCBNEW 8.0.4) date 2024-12-02 19:05:10*
%MOMM*%
%LPD*%
G01*
G04 APERTURE LIST*
G04 Aperture macros list*
%AMRoundRect*
0 Rectangle with rounded corners*
0 $1 Rounding radius*
0 $2 $3 $4 $5 $6 $7 $8 $9 X,Y pos of 4 corners*
0 Add a 4 corners polygon primitive as box body*
4,1,4,$2,$3,$4,$5,$6,$7,$8,$9,$2,$3,0*
0 Add four circle primitives for the rounded corners*
1,1,$1+$1,$2,$3*
1,1,$1+$1,$4,$5*
1,1,$1+$1,$6,$7*
1,1,$1+$1,$8,$9*
0 Add four rect primitives between the rounded corners*
20,1,$1+$1,$2,$3,$4,$5,0*
20,1,$1+$1,$4,$5,$6,$7,0*
20,1,$1+$1,$6,$7,$8,$9,0*
20,1,$1+$1,$8,$9,$2,$3,0*%
G04 Aperture macros list end*
%ADD10RoundRect,0.237500X0.250000X0.237500X-0.250000X0.237500X-0.250000X-0.237500X0.250000X-0.237500X0*%
%ADD11C,1.524000*%
%ADD12R,1.700000X1.700000*%
%ADD13O,1.700000X1.700000*%
%ADD14RoundRect,0.250000X0.350000X0.450000X-0.350000X0.450000X-0.350000X-0.450000X0.350000X-0.450000X0*%
%ADD15R,1.950000X1.650000*%
%ADD16RoundRect,0.250000X-0.250000X0.250000X-0.250000X-0.250000X0.250000X-0.250000X0.250000X0.250000X0*%
%ADD17RoundRect,0.237500X-0.250000X-0.237500X0.250000X-0.237500X0.250000X0.237500X-0.250000X0.237500X0*%
%ADD18RoundRect,0.237500X-0.237500X0.250000X-0.237500X-0.250000X0.237500X-0.250000X0.237500X0.250000X0*%
%ADD19RoundRect,0.237500X-0.237500X0.287500X-0.237500X-0.287500X0.237500X-0.287500X0.237500X0.287500X0*%
%ADD20RoundRect,0.162500X0.162500X-0.617500X0.162500X0.617500X-0.162500X0.617500X-0.162500X-0.617500X0*%
%ADD21RoundRect,0.237500X0.237500X-0.300000X0.237500X0.300000X-0.237500X0.300000X-0.237500X-0.300000X0*%
%ADD22RoundRect,0.237500X0.237500X-0.250000X0.237500X0.250000X-0.237500X0.250000X-0.237500X-0.250000X0*%
%ADD23C,9.000000*%
%ADD24RoundRect,0.250000X-0.350000X-0.450000X0.350000X-0.450000X0.350000X0.450000X-0.350000X0.450000X0*%
%ADD25RoundRect,0.237500X-0.300000X-0.237500X0.300000X-0.237500X0.300000X0.237500X-0.300000X0.237500X0*%
%ADD26RoundRect,0.250000X0.875000X1.025000X-0.875000X1.025000X-0.875000X-1.025000X0.875000X-1.025000X0*%
%ADD27RoundRect,0.237500X-0.237500X0.300000X-0.237500X-0.300000X0.237500X-0.300000X0.237500X0.300000X0*%
%ADD28RoundRect,0.237500X0.300000X0.237500X-0.300000X0.237500X-0.300000X-0.237500X0.300000X-0.237500X0*%
%ADD29RoundRect,0.250000X0.650000X-1.000000X0.650000X1.000000X-0.650000X1.000000X-0.650000X-1.000000X0*%
%ADD30RoundRect,0.150000X0.587500X0.150000X-0.587500X0.150000X-0.587500X-0.150000X0.587500X-0.150000X0*%
%ADD31RoundRect,0.150000X-0.150000X0.825000X-0.150000X-0.825000X0.150000X-0.825000X0.150000X0.825000X0*%
%ADD32RoundRect,0.250000X0.412500X1.100000X-0.412500X1.100000X-0.412500X-1.100000X0.412500X-1.100000X0*%
%ADD33RoundRect,0.150000X-0.825000X-0.150000X0.825000X-0.150000X0.825000X0.150000X-0.825000X0.150000X0*%
%ADD34RoundRect,0.250000X0.337500X0.475000X-0.337500X0.475000X-0.337500X-0.475000X0.337500X-0.475000X0*%
%ADD35R,1.000000X1.000000*%
%ADD36O,1.000000X1.000000*%
%ADD37RoundRect,0.250000X1.000000X0.650000X-1.000000X0.650000X-1.000000X-0.650000X1.000000X-0.650000X0*%
%ADD38RoundRect,0.250000X-0.412500X-1.100000X0.412500X-1.100000X0.412500X1.100000X-0.412500X1.100000X0*%
%ADD39RoundRect,0.250000X1.025000X-0.875000X1.025000X0.875000X-1.025000X0.875000X-1.025000X-0.875000X0*%
%ADD40RoundRect,0.162500X0.617500X0.162500X-0.617500X0.162500X-0.617500X-0.162500X0.617500X-0.162500X0*%
%ADD41RoundRect,0.150000X0.825000X0.150000X-0.825000X0.150000X-0.825000X-0.150000X0.825000X-0.150000X0*%
%ADD42RoundRect,0.075000X-0.075000X0.725000X-0.075000X-0.725000X0.075000X-0.725000X0.075000X0.725000X0*%
%ADD43RoundRect,0.075000X-0.725000X0.075000X-0.725000X-0.075000X0.725000X-0.075000X0.725000X0.075000X0*%
%ADD44RoundRect,0.162500X-0.162500X0.617500X-0.162500X-0.617500X0.162500X-0.617500X0.162500X0.617500X0*%
G04 APERTURE END LIST*
D10*
%TO.C,R27*%
X149012500Y-53000000D03*
X147187500Y-53000000D03*
%TD*%
D11*
%TO.C,J11*%
X142178000Y-107696000D03*
%TD*%
D12*
%TO.C,J10*%
X158750000Y-107696000D03*
D13*
X161290000Y-107696000D03*
X163830000Y-107696000D03*
X166370000Y-107696000D03*
%TD*%
D14*
%TO.C,R11*%
X123750000Y-69000000D03*
X121750000Y-69000000D03*
%TD*%
D15*
%TO.C,U6*%
X148993000Y-57234000D03*
X151743000Y-57234000D03*
X151743000Y-55034000D03*
X148993000Y-55034000D03*
%TD*%
D16*
%TO.C,D13*%
X166370000Y-102382000D03*
X166370000Y-104882000D03*
%TD*%
D17*
%TO.C,R32*%
X135358500Y-78200000D03*
X137183500Y-78200000D03*
%TD*%
D18*
%TO.C,R26*%
X148717000Y-59158500D03*
X148717000Y-60983500D03*
%TD*%
D19*
%TO.C,FB1*%
X143510000Y-56021000D03*
X143510000Y-57771000D03*
%TD*%
D20*
%TO.C,U1*%
X161050000Y-57550000D03*
X162000000Y-57550000D03*
X162950000Y-57550000D03*
X162950000Y-54850000D03*
X161050000Y-54850000D03*
%TD*%
D21*
%TO.C,C7*%
X164719000Y-94207500D03*
X164719000Y-92482500D03*
%TD*%
D22*
%TO.C,R23*%
X170688000Y-74445500D03*
X170688000Y-72620500D03*
%TD*%
D23*
%TO.C,J3*%
X127142240Y-58223250D03*
%TD*%
D24*
%TO.C,R10*%
X175250000Y-71500000D03*
X177250000Y-71500000D03*
%TD*%
D25*
%TO.C,C12*%
X143409500Y-60960000D03*
X145134500Y-60960000D03*
%TD*%
D26*
%TO.C,C36*%
X141884000Y-89027000D03*
X135484000Y-89027000D03*
%TD*%
D18*
%TO.C,R6*%
X126750000Y-67587500D03*
X126750000Y-69412500D03*
%TD*%
D10*
%TO.C,R34*%
X137183500Y-76600000D03*
X135358500Y-76600000D03*
%TD*%
D24*
%TO.C,R7*%
X175250000Y-76500000D03*
X177250000Y-76500000D03*
%TD*%
D27*
%TO.C,C48*%
X156750000Y-84887500D03*
X156750000Y-86612500D03*
%TD*%
D28*
%TO.C,C56*%
X152119500Y-60960000D03*
X150394500Y-60960000D03*
%TD*%
D29*
%TO.C,D7*%
X150750000Y-93500000D03*
X150750000Y-89500000D03*
%TD*%
D27*
%TO.C,C52*%
X168775000Y-86907500D03*
X168775000Y-88632500D03*
%TD*%
D26*
%TO.C,C39*%
X141884000Y-94107000D03*
X135484000Y-94107000D03*
%TD*%
D23*
%TO.C,J1*%
X171592240Y-58223250D03*
%TD*%
D30*
%TO.C,D11*%
X156937500Y-104700000D03*
X156937500Y-102800000D03*
X155062500Y-103750000D03*
%TD*%
D25*
%TO.C,C57*%
X150394500Y-59182000D03*
X152119500Y-59182000D03*
%TD*%
D31*
%TO.C,D4*%
X129655000Y-71525000D03*
X128385000Y-71525000D03*
X127115000Y-71525000D03*
X125845000Y-71525000D03*
X125845000Y-76475000D03*
X127115000Y-76475000D03*
X128385000Y-76475000D03*
X129655000Y-76475000D03*
%TD*%
D27*
%TO.C,C1*%
X173250000Y-74637500D03*
X173250000Y-76362500D03*
%TD*%
D17*
%TO.C,R33*%
X135231500Y-71120000D03*
X137056500Y-71120000D03*
%TD*%
D32*
%TO.C,C35*%
X147562500Y-97250000D03*
X144437500Y-97250000D03*
%TD*%
D10*
%TO.C,R18*%
X162912500Y-53000000D03*
X161087500Y-53000000D03*
%TD*%
D28*
%TO.C,C2*%
X152112500Y-49500000D03*
X150387500Y-49500000D03*
%TD*%
D14*
%TO.C,R9*%
X123750000Y-76500000D03*
X121750000Y-76500000D03*
%TD*%
D33*
%TO.C,D9*%
X160300000Y-83960000D03*
X160300000Y-85230000D03*
X160300000Y-86500000D03*
X160300000Y-87770000D03*
X165250000Y-87770000D03*
X165250000Y-86500000D03*
X165250000Y-85230000D03*
X165250000Y-83960000D03*
%TD*%
D21*
%TO.C,C54*%
X167250000Y-75362500D03*
X167250000Y-73637500D03*
%TD*%
D34*
%TO.C,C6*%
X129537500Y-78750000D03*
X127462500Y-78750000D03*
%TD*%
D35*
%TO.C,J16*%
X133590000Y-59600000D03*
D36*
X133590000Y-60870000D03*
X134860000Y-59600000D03*
X134860000Y-60870000D03*
X136130000Y-59600000D03*
X136130000Y-60870000D03*
X137400000Y-59600000D03*
X137400000Y-60870000D03*
X138670000Y-59600000D03*
X138670000Y-60870000D03*
%TD*%
D32*
%TO.C,C41*%
X134812500Y-106000000D03*
X131687500Y-106000000D03*
%TD*%
D31*
%TO.C,U11*%
X135405000Y-98025000D03*
X134135000Y-98025000D03*
X132865000Y-98025000D03*
X131595000Y-98025000D03*
X131595000Y-102975000D03*
X132865000Y-102975000D03*
X134135000Y-102975000D03*
X135405000Y-102975000D03*
%TD*%
D24*
%TO.C,R8*%
X175250000Y-69000000D03*
X177250000Y-69000000D03*
%TD*%
D37*
%TO.C,D3*%
X130500000Y-81661000D03*
X126500000Y-81661000D03*
%TD*%
D14*
%TO.C,R12*%
X123750000Y-71500000D03*
X121750000Y-71500000D03*
%TD*%
D18*
%TO.C,R17*%
X165800000Y-69087500D03*
X165800000Y-70912500D03*
%TD*%
D23*
%TO.C,J2*%
X149367240Y-43618250D03*
%TD*%
D27*
%TO.C,C29*%
X129750000Y-67637500D03*
X129750000Y-69362500D03*
%TD*%
D28*
%TO.C,C45*%
X159462500Y-53000000D03*
X157737500Y-53000000D03*
%TD*%
D25*
%TO.C,C13*%
X143409500Y-59436000D03*
X145134500Y-59436000D03*
%TD*%
D35*
%TO.C,J8*%
X174387000Y-85979000D03*
D36*
X174387000Y-87249000D03*
%TD*%
D38*
%TO.C,C53*%
X149937500Y-100750000D03*
X153062500Y-100750000D03*
%TD*%
D11*
%TO.C,J5*%
X139178000Y-107696000D03*
%TD*%
D29*
%TO.C,D8*%
X138000000Y-102500000D03*
X138000000Y-98500000D03*
%TD*%
D39*
%TO.C,C32*%
X131572000Y-95148000D03*
X131572000Y-88748000D03*
%TD*%
D22*
%TO.C,R35*%
X167275000Y-86777500D03*
X167275000Y-84952500D03*
%TD*%
D18*
%TO.C,R5*%
X131250000Y-67587500D03*
X131250000Y-69412500D03*
%TD*%
D21*
%TO.C,C15*%
X164200000Y-70862500D03*
X164200000Y-69137500D03*
%TD*%
D27*
%TO.C,C14*%
X172200000Y-69337500D03*
X172200000Y-71062500D03*
%TD*%
D11*
%TO.C,J14*%
X151178000Y-107696000D03*
%TD*%
D28*
%TO.C,C42*%
X162262500Y-59400000D03*
X160537500Y-59400000D03*
%TD*%
D10*
%TO.C,R21*%
X160820740Y-68510250D03*
X158995740Y-68510250D03*
%TD*%
D27*
%TO.C,C24*%
X169164000Y-72670500D03*
X169164000Y-74395500D03*
%TD*%
D40*
%TO.C,U8*%
X170350000Y-70950000D03*
X170350000Y-70000000D03*
X170350000Y-69050000D03*
X167650000Y-69050000D03*
X167650000Y-70950000D03*
%TD*%
D38*
%TO.C,C55*%
X149937500Y-97250000D03*
X153062500Y-97250000D03*
%TD*%
D41*
%TO.C,U12*%
X165225000Y-77655000D03*
X165225000Y-76385000D03*
X165225000Y-75115000D03*
X165225000Y-73845000D03*
X160275000Y-73845000D03*
X160275000Y-75115000D03*
X160275000Y-76385000D03*
X160275000Y-77655000D03*
%TD*%
D11*
%TO.C,J13*%
X154178000Y-107696000D03*
%TD*%
D35*
%TO.C,J6*%
X124714000Y-85979000D03*
D36*
X124714000Y-87249000D03*
%TD*%
D25*
%TO.C,C11*%
X143409500Y-54356000D03*
X145134500Y-54356000D03*
%TD*%
D21*
%TO.C,C40*%
X128250000Y-69362500D03*
X128250000Y-67637500D03*
%TD*%
D11*
%TO.C,J15*%
X145178000Y-107696000D03*
%TD*%
D42*
%TO.C,U7*%
X154986240Y-63883250D03*
X154486240Y-63883250D03*
X153986240Y-63883250D03*
X153486240Y-63883250D03*
X152986240Y-63883250D03*
X152486240Y-63883250D03*
X151986240Y-63883250D03*
X151486240Y-63883250D03*
X150986240Y-63883250D03*
X150486240Y-63883250D03*
X149986240Y-63883250D03*
X149486240Y-63883250D03*
X148986240Y-63883250D03*
X148486240Y-63883250D03*
X147986240Y-63883250D03*
X147486240Y-63883250D03*
X146986240Y-63883250D03*
X146486240Y-63883250D03*
X145986240Y-63883250D03*
X145486240Y-63883250D03*
X144986240Y-63883250D03*
X144486240Y-63883250D03*
X143986240Y-63883250D03*
X143486240Y-63883250D03*
X142986240Y-63883250D03*
D43*
X141311240Y-65558250D03*
X141311240Y-66058250D03*
X141311240Y-66558250D03*
X141311240Y-67058250D03*
X141311240Y-67558250D03*
X141311240Y-68058250D03*
X141311240Y-68558250D03*
X141311240Y-69058250D03*
X141311240Y-69558250D03*
X141311240Y-70058250D03*
X141311240Y-70558250D03*
X141311240Y-71058250D03*
X141311240Y-71558250D03*
X141311240Y-72058250D03*
X141311240Y-72558250D03*
X141311240Y-73058250D03*
X141311240Y-73558250D03*
X141311240Y-74058250D03*
X141311240Y-74558250D03*
X141311240Y-75058250D03*
X141311240Y-75558250D03*
X141311240Y-76058250D03*
X141311240Y-76558250D03*
X141311240Y-77058250D03*
X141311240Y-77558250D03*
D42*
X142986240Y-79233250D03*
X143486240Y-79233250D03*
X143986240Y-79233250D03*
X144486240Y-79233250D03*
X144986240Y-79233250D03*
X145486240Y-79233250D03*
X145986240Y-79233250D03*
X146486240Y-79233250D03*
X146986240Y-79233250D03*
X147486240Y-79233250D03*
X147986240Y-79233250D03*
X148486240Y-79233250D03*
X148986240Y-79233250D03*
X149486240Y-79233250D03*
X149986240Y-79233250D03*
X150486240Y-79233250D03*
X150986240Y-79233250D03*
X151486240Y-79233250D03*
X151986240Y-79233250D03*
X152486240Y-79233250D03*
X152986240Y-79233250D03*
X153486240Y-79233250D03*
X153986240Y-79233250D03*
X154486240Y-79233250D03*
X154986240Y-79233250D03*
D43*
X156661240Y-77558250D03*
X156661240Y-77058250D03*
X156661240Y-76558250D03*
X156661240Y-76058250D03*
X156661240Y-75558250D03*
X156661240Y-75058250D03*
X156661240Y-74558250D03*
X156661240Y-74058250D03*
X156661240Y-73558250D03*
X156661240Y-73058250D03*
X156661240Y-72558250D03*
X156661240Y-72058250D03*
X156661240Y-71558250D03*
X156661240Y-71058250D03*
X156661240Y-70558250D03*
X156661240Y-70058250D03*
X156661240Y-69558250D03*
X156661240Y-69058250D03*
X156661240Y-68558250D03*
X156661240Y-68058250D03*
X156661240Y-67558250D03*
X156661240Y-67058250D03*
X156661240Y-66558250D03*
X156661240Y-66058250D03*
X156661240Y-65558250D03*
%TD*%
D28*
%TO.C,C44*%
X161637500Y-82309000D03*
X159912500Y-82309000D03*
%TD*%
D18*
%TO.C,R20*%
X145034000Y-55983500D03*
X145034000Y-57808500D03*
%TD*%
D28*
%TO.C,C38*%
X137006500Y-69596000D03*
X135281500Y-69596000D03*
%TD*%
D32*
%TO.C,C34*%
X147562500Y-100750000D03*
X144437500Y-100750000D03*
%TD*%
D31*
%TO.C,U9*%
X148155000Y-89275000D03*
X146885000Y-89275000D03*
X145615000Y-89275000D03*
X144345000Y-89275000D03*
X144345000Y-94225000D03*
X145615000Y-94225000D03*
X146885000Y-94225000D03*
X148155000Y-94225000D03*
%TD*%
D27*
%TO.C,C49*%
X158250000Y-84887500D03*
X158250000Y-86612500D03*
%TD*%
D10*
%TO.C,R24*%
X162312500Y-61000000D03*
X160487500Y-61000000D03*
%TD*%
D27*
%TO.C,C46*%
X168775000Y-83090500D03*
X168775000Y-84815500D03*
%TD*%
D11*
%TO.C,J12*%
X148178000Y-107696000D03*
%TD*%
D44*
%TO.C,U10*%
X133750000Y-73380000D03*
X132800000Y-73380000D03*
X131850000Y-73380000D03*
X131850000Y-76080000D03*
X133750000Y-76080000D03*
%TD*%
D27*
%TO.C,C37*%
X135382000Y-73178500D03*
X135382000Y-74903500D03*
%TD*%
D35*
%TO.C,J7*%
X120142000Y-66421000D03*
D36*
X120142000Y-67691000D03*
X120142000Y-68961000D03*
X120142000Y-70231000D03*
X120142000Y-71501000D03*
X120142000Y-72771000D03*
X120142000Y-74041000D03*
X120142000Y-75311000D03*
X120142000Y-76581000D03*
X120142000Y-77851000D03*
%TD*%
D35*
%TO.C,J9*%
X158369000Y-91186000D03*
D36*
X159639000Y-91186000D03*
X160909000Y-91186000D03*
X162179000Y-91186000D03*
%TD*%
D35*
%TO.C,J4*%
X178896000Y-66421000D03*
D36*
X178896000Y-67691000D03*
X178896000Y-68961000D03*
X178896000Y-70231000D03*
X178896000Y-71501000D03*
X178896000Y-72771000D03*
X178896000Y-74041000D03*
X178896000Y-75311000D03*
X178896000Y-76581000D03*
X178896000Y-77851000D03*
%TD*%
M02*
