M48
; DRILL file {KiCad 8.0.4} date 2024-12-02T19:05:10+0300
; FORMAT={-:-/ absolute / metric / decimal}
; #@! TF.CreationDate,2024-12-02T19:05:10+03:00
; #@! TF.GenerationSoftware,Kicad,Pcbnew,8.0.4
; #@! TF.FileFunction,Plated,1,6,PTH
FMAT,2
METRIC
; #@! TA.AperFunction,Plated,PTH,ViaDrill
T1C0.400
; #@! TA.AperFunction,Plated,PTH,ComponentDrill
T2C0.650
; #@! TA.AperFunction,Plated,PTH,ComponentDrill
T3C0.700
; #@! TA.AperFunction,Plated,PTH,ViaDrill
T4C1.000
; #@! TA.AperFunction,Plated,PTH,ComponentDrill
T5C1.000
%
G90
G05
T1
X124.75Y-69.0
X125.845Y-78.0
X125.912Y-67.587
X126.25Y-79.0
X127.115Y-73.0
X128.0Y-94.25
X128.25Y-66.5
X128.7Y-73.9
X129.75Y-66.5
X130.062Y-73.938
X131.572Y-92.072
X131.606Y-86.902
X132.088Y-67.587
X132.93Y-72.13
X133.731Y-77.47
X133.8Y-69.6
X135.2Y-68.6
X135.382Y-79.248
X136.6Y-72.6
X137.933Y-73.872
X138.0Y-72.8
X138.0Y-104.25
X138.395Y-74.759
X138.506Y-75.753
X138.892Y-72.308
X138.938Y-62.484
X139.192Y-70.358
X139.4Y-76.2
X139.7Y-66.04
X139.827Y-71.374
X140.014Y-76.99
X140.081Y-89.027
X141.224Y-78.486
X141.439Y-64.897
X141.75Y-53.0
X141.986Y-57.404
X141.986Y-97.028
X142.25Y-50.0
X142.25Y-51.5
X142.367Y-63.627
X143.975Y-53.018
X144.526Y-62.23
X145.25Y-48.75
X145.542Y-62.23
X146.491Y-61.914
X147.066Y-60.02
X147.32Y-56.134
X147.701Y-62.103
X147.828Y-70.358
X147.828Y-71.628
X147.828Y-72.898
X148.635Y-50.365
X149.098Y-70.358
X149.098Y-71.628
X149.098Y-72.898
X150.368Y-70.358
X150.368Y-71.628
X150.368Y-72.898
X150.749Y-62.23
X150.865Y-51.943
X152.4Y-62.23
X153.162Y-56.263
X153.162Y-59.182
X153.162Y-60.96
X153.75Y-49.0
X154.686Y-81.026
X155.702Y-79.248
X155.862Y-84.888
X155.887Y-86.612
X156.337Y-103.759
X156.75Y-93.25
X157.988Y-65.532
X158.177Y-83.25
X158.625Y-75.288
X159.4Y-54.0
X159.639Y-79.629
X159.8Y-56.2
X160.782Y-67.564
X161.036Y-80.899
X162.0Y-54.8
X163.2Y-70.8
X163.22Y-97.228
X163.415Y-82.457
X163.865Y-76.385
X164.2Y-68.0
X164.211Y-100.203
X165.354Y-95.377
X165.862Y-92.202
X165.995Y-99.79
X166.37Y-101.092
X167.64Y-71.882
X167.909Y-83.09
X168.137Y-73.638
X168.137Y-75.362
X168.783Y-89.662
X169.5Y-66.0
X169.969Y-73.592
X170.85Y-93.98
X171.0Y-66.5
X172.135Y-72.885
X172.808Y-78.707
X173.25Y-77.75
X173.412Y-67.587
X173.587Y-69.748
X174.25Y-69.0
X174.25Y-71.5
X175.25Y-75.25
T2
X120.142Y-66.421
X120.142Y-67.691
X120.142Y-68.961
X120.142Y-70.231
X120.142Y-71.501
X120.142Y-72.771
X120.142Y-74.041
X120.142Y-75.311
X120.142Y-76.581
X120.142Y-77.851
X158.369Y-91.186
X159.639Y-91.186
X160.909Y-91.186
X162.179Y-91.186
X178.896Y-66.421
X178.896Y-67.691
X178.896Y-68.961
X178.896Y-70.231
X178.896Y-71.501
X178.896Y-72.771
X178.896Y-74.041
X178.896Y-75.311
X178.896Y-76.581
X178.896Y-77.851
T3
X124.714Y-85.979
X124.714Y-87.249
X133.59Y-59.6
X133.59Y-60.87
X134.86Y-59.6
X134.86Y-60.87
X136.13Y-59.6
X136.13Y-60.87
X137.4Y-59.6
X137.4Y-60.87
X138.67Y-59.6
X138.67Y-60.87
X174.387Y-85.979
X174.387Y-87.249
T4
X137.541Y-64.516
T5
X139.178Y-107.696
X142.178Y-107.696
X145.178Y-107.696
X148.178Y-107.696
X151.178Y-107.696
X154.178Y-107.696
X158.75Y-107.696
X161.29Y-107.696
X163.83Y-107.696
X166.37Y-107.696
M30
