%TF.GenerationSoftware,KiCad,Pcbnew,8.0.4*%
%TF.CreationDate,2024-12-02T19:05:10+03:00*%
%TF.ProjectId,_____ __________,1f3b3042-3020-4433-9f40-30323b353d38,rev?*%
%TF.SameCoordinates,Original*%
%TF.FileFunction,Profile,NP*%
%FSLAX46Y46*%
G04 Gerber Fmt 4.6, Leading zero omitted, Abs format (unit mm)*
G04 Created by KiCad (PCBNEW 8.0.4) date 2024-12-02 19:05:10*
%MOMM*%
%LPD*%
G01*
G04 APERTURE LIST*
%TA.AperFunction,Profile*%
%ADD10C,0.200000*%
%TD*%
%ADD11C,0.350000*%
G04 APERTURE END LIST*
D10*
X144224000Y-110236002D02*
X144224000Y-107696000D01*
X138224000Y-110236002D02*
X138224000Y-107696000D01*
X149208000Y-107696000D02*
G75*
G02*
X150224000Y-107696000I508000J0D01*
G01*
X155208000Y-110236002D02*
X155208000Y-107696000D01*
X169927313Y-108204000D02*
G75*
G02*
X167895311Y-110236013I-2032113J100D01*
G01*
X127847610Y-96678301D02*
G75*
G02*
X129089841Y-99356597I-2262910J-2676799D01*
G01*
X137208000Y-110236002D02*
X137208000Y-107696000D01*
X169927313Y-99254504D02*
G75*
G02*
X171159370Y-96588493I3500687J-96D01*
G01*
X141224000Y-110236002D02*
X143208000Y-110236002D01*
X140208000Y-110236002D02*
X140208000Y-107696000D01*
X129089859Y-99356597D02*
X129089859Y-108204000D01*
X150224000Y-110236002D02*
X150224000Y-107696000D01*
X169927313Y-99254504D02*
X169927313Y-108204000D01*
X115950502Y-71074296D02*
G75*
G02*
X182950502Y-71074296I33500000J0D01*
G01*
X140208000Y-107696000D02*
G75*
G02*
X141224000Y-107696000I508000J0D01*
G01*
X144224000Y-110236002D02*
X146208000Y-110236002D01*
X143208000Y-107696000D02*
G75*
G02*
X144224000Y-107696000I508000J0D01*
G01*
X137208000Y-107696000D02*
G75*
G02*
X138224000Y-107696000I508000J0D01*
G01*
X131121859Y-110236002D02*
G75*
G02*
X129089898Y-108204000I-59J2031902D01*
G01*
X182950502Y-71074296D02*
G75*
G02*
X171159375Y-96588499I-33500022J16D01*
G01*
X127847610Y-96678301D02*
G75*
G02*
X115950504Y-71074296I21602890J25604001D01*
G01*
X137208000Y-110236002D02*
X131121859Y-110236002D01*
X155208000Y-107696000D02*
G75*
G02*
X156224000Y-107696000I508000J0D01*
G01*
X167895311Y-110236000D02*
X156224000Y-110236002D01*
X149208000Y-110236002D02*
X149208000Y-107696000D01*
X146208000Y-107696000D02*
G75*
G02*
X147224000Y-107696000I508000J0D01*
G01*
X143208000Y-110236002D02*
X143208000Y-107696000D01*
X152208000Y-110236002D02*
X152208000Y-107696000D01*
X153224000Y-110236002D02*
X155208000Y-110236002D01*
X147224000Y-110236002D02*
X149208000Y-110236002D01*
X152208000Y-107696000D02*
G75*
G02*
X153224000Y-107696000I508000J0D01*
G01*
X141224000Y-110236002D02*
X141224000Y-107696000D01*
X156224000Y-110236002D02*
X156224000Y-107696000D01*
X153224000Y-110236002D02*
X153224000Y-107696000D01*
X147224000Y-110236002D02*
X147224000Y-107696000D01*
X150224000Y-110236002D02*
X152208000Y-110236002D01*
X138224000Y-110236002D02*
X140208000Y-110236002D01*
X146208000Y-110236002D02*
X146208000Y-107696000D01*
D11*
X142178000Y-107696000D03*
X158750000Y-107696000D03*
X161290000Y-107696000D03*
X163830000Y-107696000D03*
X166370000Y-107696000D03*
X127142240Y-58223250D03*
X171592240Y-58223250D03*
X133590000Y-59600000D03*
X133590000Y-60870000D03*
X134860000Y-59600000D03*
X134860000Y-60870000D03*
X136130000Y-59600000D03*
X136130000Y-60870000D03*
X137400000Y-59600000D03*
X137400000Y-60870000D03*
X138670000Y-59600000D03*
X138670000Y-60870000D03*
X149367240Y-43618250D03*
X174387000Y-85979000D03*
X174387000Y-87249000D03*
X139178000Y-107696000D03*
X151178000Y-107696000D03*
X154178000Y-107696000D03*
X124714000Y-85979000D03*
X124714000Y-87249000D03*
X145178000Y-107696000D03*
X148178000Y-107696000D03*
X120142000Y-66421000D03*
X120142000Y-67691000D03*
X120142000Y-68961000D03*
X120142000Y-70231000D03*
X120142000Y-71501000D03*
X120142000Y-72771000D03*
X120142000Y-74041000D03*
X120142000Y-75311000D03*
X120142000Y-76581000D03*
X120142000Y-77851000D03*
X158369000Y-91186000D03*
X159639000Y-91186000D03*
X160909000Y-91186000D03*
X162179000Y-91186000D03*
X178896000Y-66421000D03*
X178896000Y-67691000D03*
X178896000Y-68961000D03*
X178896000Y-70231000D03*
X178896000Y-71501000D03*
X178896000Y-72771000D03*
X178896000Y-74041000D03*
X178896000Y-75311000D03*
X178896000Y-76581000D03*
X178896000Y-77851000D03*
M02*
