%TF.GenerationSoftware,KiCad,Pcbnew,7.0.6*%
%TF.CreationDate,2024-03-18T21:13:23+03:00*%
%TF.ProjectId,_____ __________,1f3b3042-3020-4433-9f40-30323b353d38,rev?*%
%TF.SameCoordinates,Original*%
%TF.FileFunction,Copper,L3,Inr*%
%TF.FilePolarity,Positive*%
%FSLAX46Y46*%
G04 Gerber Fmt 4.6, Leading zero omitted, Abs format (unit mm)*
G04 Created by KiCad (PCBNEW 7.0.6) date 2024-03-18 21:13:23*
%MOMM*%
%LPD*%
G01*
G04 APERTURE LIST*
G04 Aperture macros list*
%AMRoundRect*
0 Rectangle with rounded corners*
0 $1 Rounding radius*
0 $2 $3 $4 $5 $6 $7 $8 $9 X,Y pos of 4 corners*
0 Add a 4 corners polygon primitive as box body*
4,1,4,$2,$3,$4,$5,$6,$7,$8,$9,$2,$3,0*
0 Add four circle primitives for the rounded corners*
1,1,$1+$1,$2,$3*
1,1,$1+$1,$4,$5*
1,1,$1+$1,$6,$7*
1,1,$1+$1,$8,$9*
0 Add four rect primitives between the rounded corners*
20,1,$1+$1,$2,$3,$4,$5,0*
20,1,$1+$1,$4,$5,$6,$7,0*
20,1,$1+$1,$6,$7,$8,$9,0*
20,1,$1+$1,$8,$9,$2,$3,0*%
G04 Aperture macros list end*
%TA.AperFunction,ComponentPad*%
%ADD10R,1.700000X1.700000*%
%TD*%
%TA.AperFunction,ComponentPad*%
%ADD11O,1.700000X1.700000*%
%TD*%
%TA.AperFunction,ComponentPad*%
%ADD12RoundRect,0.200000X-0.200000X-0.450000X0.200000X-0.450000X0.200000X0.450000X-0.200000X0.450000X0*%
%TD*%
%TA.AperFunction,ComponentPad*%
%ADD13O,0.800000X1.300000*%
%TD*%
%TA.AperFunction,ComponentPad*%
%ADD14C,6.000000*%
%TD*%
%TA.AperFunction,ViaPad*%
%ADD15C,0.800000*%
%TD*%
%TA.AperFunction,Conductor*%
%ADD16C,0.300000*%
%TD*%
%TA.AperFunction,Profile*%
%ADD17C,0.200000*%
%TD*%
G04 APERTURE END LIST*
D10*
%TO.N,GND*%
%TO.C,J10*%
X178054000Y-92202000D03*
D11*
%TO.N,SWCLK*%
X178054000Y-94742000D03*
%TO.N,SWDIO*%
X178054000Y-97282000D03*
%TO.N,Net-(D13-A)*%
X178054000Y-99822000D03*
%TD*%
D12*
%TO.N,CAN1L*%
%TO.C,J4*%
X168793000Y-125808000D03*
D13*
%TO.N,CAN1H*%
X170043000Y-125808000D03*
%TD*%
D14*
%TO.N,unconnected-(J3-Pin_1-Pad1)*%
%TO.C,J3*%
X132334000Y-82931000D03*
%TD*%
%TO.N,unconnected-(J1-Pin_1-Pad1)*%
%TO.C,J1*%
X176784000Y-82931000D03*
%TD*%
D12*
%TO.N,GND*%
%TO.C,J9*%
X149021000Y-125808000D03*
D13*
%TO.N,Digital_input2*%
X150271000Y-125808000D03*
%TO.N,Digital_input1*%
X151521000Y-125808000D03*
%TO.N,Analog_Input2*%
X152771000Y-125808000D03*
%TO.N,Analog_Input1*%
X154021000Y-125808000D03*
%TO.N,GNDA*%
X155271000Y-125808000D03*
%TD*%
D14*
%TO.N,unconnected-(J2-Pin_1-Pad1)*%
%TO.C,J2*%
X154559000Y-68326000D03*
%TD*%
D10*
%TO.N,+3.3V*%
%TO.C,J5*%
X172578000Y-104902000D03*
D11*
%TO.N,GND*%
X170038000Y-104902000D03*
%TO.N,Angle_Sensor_CS_MCU*%
X172578000Y-102362000D03*
%TO.N,Temp_Coil_C_MCU*%
X170038000Y-102362000D03*
%TO.N,Angle_Sensor_SCLK_MCU*%
X172578000Y-99822000D03*
%TO.N,Temp_Coil_B_MCU*%
X170038000Y-99822000D03*
%TO.N,Angle_Sensor_SDIO_MCU*%
X172578000Y-97282000D03*
%TO.N,Temp_Coil_A_MCU*%
X170038000Y-97282000D03*
%TO.N,OUT_MCU*%
X172578000Y-94742000D03*
%TO.N,Current_C_MCU*%
X170038000Y-94742000D03*
%TO.N,Current_B_MCU*%
X172578000Y-92202000D03*
%TO.N,Current_A_MCU*%
X170038000Y-92202000D03*
%TO.N,+3.3VA*%
X172578000Y-89662000D03*
%TO.N,GNDA*%
X170038000Y-89662000D03*
%TD*%
D12*
%TO.N,GND*%
%TO.C,J7*%
X159552000Y-125808000D03*
D13*
%TO.N,RS_485_Y*%
X160802000Y-125808000D03*
%TO.N,RS_485_Z*%
X162052000Y-125808000D03*
%TO.N,RS_485_B*%
X163302000Y-125808000D03*
%TO.N,RS_485_A*%
X164552000Y-125808000D03*
%TD*%
D12*
%TO.N,CAN2L*%
%TO.C,J6*%
X143393000Y-125808000D03*
D13*
%TO.N,CAN2H*%
X144643000Y-125808000D03*
%TD*%
D15*
%TO.N,GND*%
X138684000Y-120650000D03*
X151130000Y-82804000D03*
X136652000Y-103886000D03*
X148844000Y-118364000D03*
X138938000Y-91694000D03*
X173482000Y-113538000D03*
X125984000Y-100838000D03*
X159766000Y-102108000D03*
X161290000Y-116078000D03*
X142727561Y-106703516D03*
X148844000Y-81280000D03*
X133858000Y-90170000D03*
X137265023Y-112670977D03*
X143002000Y-87630000D03*
X141732000Y-97028000D03*
X159766000Y-101092000D03*
X148844000Y-74422000D03*
X154559000Y-114300000D03*
X165862000Y-87630000D03*
X162560000Y-84582000D03*
X138302647Y-96900646D03*
X142748000Y-81534000D03*
X127254000Y-90932000D03*
X160020000Y-90678000D03*
X147024477Y-111845477D03*
X132588000Y-98552000D03*
X169418000Y-121412000D03*
X159004000Y-74422000D03*
X147941673Y-90516500D03*
X164338000Y-106426000D03*
X159766000Y-100076000D03*
%TO.N,A*%
X139446000Y-108458000D03*
X156972000Y-109474000D03*
X141224000Y-111760000D03*
%TO.N,B*%
X144526000Y-102362000D03*
X139700000Y-99060000D03*
X157226000Y-99314000D03*
%TO.N,C*%
X137392023Y-115845977D03*
X149860000Y-108585000D03*
X147828000Y-120142000D03*
%TO.N,+24V*%
X170688000Y-82804000D03*
X159766000Y-113030000D03*
X130810000Y-106680000D03*
%TO.N,+12V*%
X141001682Y-120882379D03*
X134620000Y-102870000D03*
X148844000Y-71628000D03*
X148844000Y-70612000D03*
X136398000Y-115062000D03*
X142748000Y-108966000D03*
X158750000Y-71374000D03*
X148844000Y-69596000D03*
X143287454Y-102120500D03*
%TO.N,Enable*%
X138938000Y-92722500D03*
X140462000Y-106426000D03*
X141478000Y-93726000D03*
X139954000Y-112014000D03*
%TO.N,IN_A*%
X139446000Y-106426000D03*
%TO.N,IN_B*%
X143107023Y-98298000D03*
%TO.N,IN_C*%
X139424023Y-114829977D03*
%TO.N,+3.3V*%
X167640000Y-117602000D03*
X154686000Y-78232000D03*
X154686000Y-105537000D03*
X136764000Y-87234000D03*
X125349000Y-95123000D03*
X144018000Y-76708000D03*
X126746000Y-99060000D03*
X137414000Y-120650000D03*
X145542000Y-84836000D03*
X171958000Y-113538000D03*
X162560000Y-106426000D03*
X164084000Y-86614000D03*
X139700000Y-87122000D03*
X145034000Y-81280000D03*
X151130000Y-87122000D03*
X178054000Y-106172000D03*
X148336000Y-121539000D03*
X131826000Y-91186000D03*
%TO.N,NRST*%
X155689061Y-90708863D03*
%TO.N,Temp_Coil_C_MCU*%
X147320000Y-88392000D03*
%TO.N,Temp_Coil_B_MCU*%
X148336000Y-87122000D03*
%TO.N,Temp_Coil_A_MCU*%
X149352000Y-87122000D03*
%TO.N,Net-(R16-Pad2)*%
X134620000Y-91440000D03*
X148336000Y-122555000D03*
%TO.N,Current_C_MCU*%
X152400000Y-91440000D03*
%TO.N,Current_B_MCU*%
X153670000Y-91423503D03*
%TO.N,RS_485_RX_MCU*%
X161290000Y-111252000D03*
X163830000Y-111252000D03*
%TO.N,RS_485_Enable_MCU*%
X160032500Y-111207693D03*
X165100000Y-112268000D03*
%TO.N,Current_A_MCU*%
X153670000Y-90424000D03*
%TO.N,GNDA*%
X153924000Y-118110000D03*
X151384000Y-90424000D03*
X149606000Y-82804000D03*
%TO.N,+3.3VA*%
X159512000Y-121412000D03*
X159258500Y-115779546D03*
X151130000Y-85852000D03*
%TO.N,Temperature_Power_~{OS}_MCU*%
X143764000Y-85852000D03*
X149860000Y-92710000D03*
%TO.N,Temperature_Power_SCL_MCU*%
X140716000Y-85852000D03*
X149860000Y-95758000D03*
%TO.N,Temperature_Power_SDA_MCU*%
X149860000Y-98298000D03*
X142240000Y-85852000D03*
%TO.N,EEPROM_~{CS_MCU}*%
X142240000Y-91516500D03*
X129032000Y-92964000D03*
%TO.N,EEPROM_MOSI_MCU*%
X144581440Y-93516500D03*
X130048000Y-96012000D03*
%TO.N,Net-(U4-+)*%
X135128000Y-87122000D03*
%TO.N,Net-(D4-COM)*%
X155702000Y-117602000D03*
X148313669Y-94465669D03*
%TO.N,Net-(U10-+)*%
X127762000Y-105410000D03*
%TO.N,Net-(D7-K)*%
X170688000Y-78232000D03*
%TO.N,Net-(D8-K)*%
X137160000Y-75438000D03*
%TO.N,Net-(U7-PC4)*%
X158750000Y-99314000D03*
X163830000Y-96266000D03*
X148286582Y-93466536D03*
%TO.N,Net-(D14-COM)*%
X155956000Y-112014000D03*
X148336000Y-95504000D03*
%TD*%
D16*
%TO.N,C*%
X148971000Y-108585000D02*
X149860000Y-108585000D01*
X147828000Y-109728000D02*
X148971000Y-108585000D01*
X147828000Y-120142000D02*
X147828000Y-109728000D01*
%TO.N,+12V*%
X141001682Y-120882379D02*
X140948379Y-120882379D01*
X140948379Y-120882379D02*
X136398000Y-116332000D01*
X136398000Y-116332000D02*
X136398000Y-115062000D01*
%TO.N,Enable*%
X140462000Y-94742000D02*
X141478000Y-93726000D01*
X140462000Y-106426000D02*
X140462000Y-94742000D01*
X140474500Y-92722500D02*
X141478000Y-93726000D01*
X140462000Y-106426000D02*
X140462000Y-111461339D01*
X139954000Y-111969339D02*
X139954000Y-112014000D01*
X140462000Y-111461339D02*
X139954000Y-111969339D01*
X138938000Y-92722500D02*
X140474500Y-92722500D01*
%TO.N,Temp_Coil_C_MCU*%
X153282688Y-96409019D02*
X155171669Y-98298000D01*
X147320000Y-88392000D02*
X147320000Y-88834873D01*
X147320000Y-88834873D02*
X153282688Y-94797561D01*
X166624000Y-98298000D02*
X170038000Y-101712000D01*
X153282688Y-94797561D02*
X153282688Y-96409019D01*
X170038000Y-101712000D02*
X170038000Y-102362000D01*
X155171669Y-98298000D02*
X166624000Y-98298000D01*
%TO.N,Temp_Coil_B_MCU*%
X153782688Y-96124688D02*
X155448000Y-97790000D01*
X155448000Y-97790000D02*
X168006000Y-97790000D01*
X153782688Y-94590455D02*
X153782688Y-96124688D01*
X148336000Y-89143767D02*
X153782688Y-94590455D01*
X168006000Y-97790000D02*
X170038000Y-99822000D01*
X148336000Y-87122000D02*
X148336000Y-89143767D01*
%TO.N,Temp_Coil_A_MCU*%
X154282688Y-94383349D02*
X154282688Y-95872921D01*
X149352000Y-89452661D02*
X154282688Y-94383349D01*
X154282688Y-95872921D02*
X155569884Y-97160116D01*
X149352000Y-87122000D02*
X149352000Y-89452661D01*
X170038000Y-97282000D02*
X155691768Y-97282000D01*
X155569884Y-97160116D02*
X155691767Y-97282000D01*
X155691768Y-97282000D02*
X155569884Y-97160116D01*
%TO.N,Net-(R16-Pad2)*%
X137414000Y-111760000D02*
X137414000Y-94234000D01*
X148336000Y-122555000D02*
X148209000Y-122555000D01*
X137414000Y-94234000D02*
X134620000Y-91440000D01*
X148209000Y-122555000D02*
X137414000Y-111760000D01*
%TO.N,Current_C_MCU*%
X152625836Y-91440000D02*
X152400000Y-91440000D01*
X153641503Y-92173503D02*
X153359339Y-92173503D01*
X168148000Y-95222000D02*
X156690000Y-95222000D01*
X168628000Y-94742000D02*
X168148000Y-95222000D01*
X170038000Y-94742000D02*
X168628000Y-94742000D01*
X156690000Y-95222000D02*
X153641503Y-92173503D01*
X153359339Y-92173503D02*
X152625836Y-91440000D01*
%TO.N,Current_B_MCU*%
X171308000Y-93472000D02*
X169190894Y-93472000D01*
X167940894Y-94722000D02*
X156968497Y-94722000D01*
X169190894Y-93472000D02*
X167940894Y-94722000D01*
X172578000Y-92202000D02*
X171308000Y-93472000D01*
X156968497Y-94722000D02*
X153670000Y-91423503D01*
%TO.N,Current_A_MCU*%
X154420000Y-91112842D02*
X153731158Y-90424000D01*
X167652000Y-94222000D02*
X157214000Y-94222000D01*
X153731158Y-90424000D02*
X153670000Y-90424000D01*
X154420000Y-91428000D02*
X154420000Y-91112842D01*
X157214000Y-94222000D02*
X154420000Y-91428000D01*
X170038000Y-92202000D02*
X169672000Y-92202000D01*
X169672000Y-92202000D02*
X167652000Y-94222000D01*
%TO.N,Temperature_Power_~{OS}_MCU*%
X143764000Y-90932000D02*
X143764000Y-85852000D01*
X149352000Y-92202000D02*
X145034000Y-92202000D01*
X149860000Y-92710000D02*
X149352000Y-92202000D01*
X145034000Y-92202000D02*
X143764000Y-90932000D01*
%TO.N,Temperature_Power_SDA_MCU*%
X142240000Y-85852000D02*
X142240000Y-90115106D01*
X146042000Y-94480000D02*
X149860000Y-98298000D01*
X146042000Y-93917106D02*
X146042000Y-94480000D01*
X142240000Y-90115106D02*
X146042000Y-93917106D01*
%TO.N,Net-(D4-COM)*%
X153162000Y-107696000D02*
X156706000Y-111240000D01*
X148313669Y-94465669D02*
X149628330Y-94465669D01*
X153162000Y-97999339D02*
X153162000Y-107696000D01*
X149628330Y-94465669D02*
X153162000Y-97999339D01*
X156706000Y-111240000D02*
X156706000Y-116598000D01*
X156706000Y-116598000D02*
X155702000Y-117602000D01*
%TO.N,Net-(U7-PC4)*%
X148286582Y-93466536D02*
X149600536Y-93466536D01*
X149600536Y-93466536D02*
X154940000Y-98806000D01*
X158000000Y-100064000D02*
X158750000Y-99314000D01*
X156198000Y-100064000D02*
X158000000Y-100064000D01*
X154940000Y-98806000D02*
X156198000Y-100064000D01*
%TO.N,Net-(D14-COM)*%
X152654000Y-107895106D02*
X155956000Y-111197106D01*
X155956000Y-111197106D02*
X155956000Y-112014000D01*
X152654000Y-99822000D02*
X152654000Y-107895106D01*
X148336000Y-95504000D02*
X152654000Y-99822000D01*
%TD*%
%TA.AperFunction,Conductor*%
%TO.N,+3.3VA*%
G36*
X161822896Y-83839685D02*
G01*
X161868651Y-83892489D01*
X161878595Y-83961647D01*
X161849570Y-84025203D01*
X161848007Y-84026972D01*
X161827466Y-84049785D01*
X161732821Y-84213715D01*
X161732818Y-84213722D01*
X161674327Y-84393740D01*
X161674326Y-84393744D01*
X161654540Y-84582000D01*
X161674326Y-84770256D01*
X161674327Y-84770259D01*
X161732818Y-84950277D01*
X161732821Y-84950284D01*
X161827467Y-85114216D01*
X161954129Y-85254888D01*
X162107265Y-85366148D01*
X162107270Y-85366151D01*
X162280192Y-85443142D01*
X162280197Y-85443144D01*
X162465354Y-85482500D01*
X162465355Y-85482500D01*
X162654644Y-85482500D01*
X162654646Y-85482500D01*
X162839803Y-85443144D01*
X163012730Y-85366151D01*
X163165871Y-85254888D01*
X163292533Y-85114216D01*
X163387179Y-84950284D01*
X163445674Y-84770256D01*
X163465460Y-84582000D01*
X163445674Y-84393744D01*
X163387179Y-84213716D01*
X163292533Y-84049784D01*
X163271993Y-84026972D01*
X163241763Y-83963980D01*
X163250388Y-83894645D01*
X163295130Y-83840980D01*
X163361782Y-83820022D01*
X163364143Y-83820000D01*
X173303074Y-83820000D01*
X173370113Y-83839685D01*
X173415868Y-83892489D01*
X173422847Y-83911900D01*
X173450258Y-84014199D01*
X173450260Y-84014206D01*
X173581746Y-84356739D01*
X173748320Y-84683656D01*
X173948147Y-84991364D01*
X173948149Y-84991366D01*
X174179051Y-85276506D01*
X174438494Y-85535949D01*
X174438498Y-85535952D01*
X174723635Y-85766852D01*
X174991972Y-85941111D01*
X175031348Y-85966682D01*
X175358264Y-86133255D01*
X175588151Y-86221500D01*
X175690677Y-86260856D01*
X175700801Y-86264742D01*
X176055206Y-86359705D01*
X176417596Y-86417102D01*
X176763734Y-86435241D01*
X176783999Y-86436304D01*
X176784000Y-86436304D01*
X176784001Y-86436304D01*
X176803203Y-86435297D01*
X177150404Y-86417102D01*
X177512794Y-86359705D01*
X177867199Y-86264742D01*
X178209736Y-86133255D01*
X178536652Y-85966682D01*
X178844366Y-85766851D01*
X178975575Y-85660599D01*
X179040057Y-85633710D01*
X179108846Y-85645952D01*
X179141287Y-85669286D01*
X181060959Y-87588959D01*
X181065038Y-87593460D01*
X181179722Y-87733202D01*
X181193227Y-87753414D01*
X181274121Y-87904756D01*
X181283424Y-87927214D01*
X181333240Y-88091437D01*
X181337982Y-88115278D01*
X181355701Y-88295181D01*
X181356000Y-88301262D01*
X181356000Y-89928951D01*
X181355701Y-89935032D01*
X181337982Y-90114934D01*
X181333240Y-90138775D01*
X181283424Y-90302998D01*
X181274121Y-90325456D01*
X181193227Y-90476798D01*
X181179722Y-90497010D01*
X181070854Y-90629666D01*
X181053666Y-90646854D01*
X180921010Y-90755722D01*
X180900798Y-90769227D01*
X180749456Y-90850121D01*
X180726998Y-90859424D01*
X180562775Y-90909240D01*
X180538934Y-90913982D01*
X180359032Y-90931701D01*
X180352951Y-90932000D01*
X179219389Y-90932000D01*
X179152350Y-90912315D01*
X179146790Y-90908455D01*
X179146327Y-90908202D01*
X179011482Y-90857908D01*
X179011483Y-90857908D01*
X178951883Y-90851501D01*
X178951881Y-90851500D01*
X178951873Y-90851500D01*
X178951864Y-90851500D01*
X177156129Y-90851500D01*
X177156123Y-90851501D01*
X177096516Y-90857908D01*
X176961672Y-90908202D01*
X176953891Y-90912452D01*
X176953066Y-90910942D01*
X176897457Y-90931684D01*
X176888611Y-90932000D01*
X173511182Y-90932000D01*
X173444143Y-90912315D01*
X173398388Y-90859511D01*
X173388444Y-90790353D01*
X173417469Y-90726797D01*
X173440056Y-90706427D01*
X173449079Y-90700108D01*
X173616105Y-90533082D01*
X173751600Y-90339578D01*
X173851429Y-90125492D01*
X173851432Y-90125486D01*
X173908636Y-89912000D01*
X173011686Y-89912000D01*
X173037493Y-89871844D01*
X173078000Y-89733889D01*
X173078000Y-89590111D01*
X173037493Y-89452156D01*
X173011686Y-89412000D01*
X173908636Y-89412000D01*
X173908635Y-89411999D01*
X173851432Y-89198513D01*
X173851429Y-89198507D01*
X173751600Y-88984422D01*
X173751599Y-88984420D01*
X173616113Y-88790926D01*
X173616108Y-88790920D01*
X173449082Y-88623894D01*
X173255578Y-88488399D01*
X173041492Y-88388570D01*
X173041486Y-88388567D01*
X172828000Y-88331364D01*
X172827999Y-88331364D01*
X172827999Y-89226498D01*
X172720315Y-89177320D01*
X172613763Y-89162000D01*
X172542237Y-89162000D01*
X172435685Y-89177320D01*
X172328000Y-89226498D01*
X172328000Y-88331364D01*
X172327999Y-88331364D01*
X172114513Y-88388567D01*
X172114507Y-88388570D01*
X171900422Y-88488399D01*
X171900420Y-88488400D01*
X171706926Y-88623886D01*
X171706920Y-88623891D01*
X171539891Y-88790920D01*
X171539890Y-88790922D01*
X171409880Y-88976595D01*
X171355303Y-89020219D01*
X171285804Y-89027412D01*
X171223450Y-88995890D01*
X171206730Y-88976594D01*
X171076494Y-88790597D01*
X170909402Y-88623506D01*
X170909395Y-88623501D01*
X170715834Y-88487967D01*
X170715830Y-88487965D01*
X170715829Y-88487964D01*
X170501663Y-88388097D01*
X170501659Y-88388096D01*
X170501655Y-88388094D01*
X170273413Y-88326938D01*
X170273403Y-88326936D01*
X170038001Y-88306341D01*
X170037999Y-88306341D01*
X169802596Y-88326936D01*
X169802586Y-88326938D01*
X169574344Y-88388094D01*
X169574335Y-88388098D01*
X169360171Y-88487964D01*
X169360169Y-88487965D01*
X169166597Y-88623505D01*
X168999505Y-88790597D01*
X168863965Y-88984169D01*
X168863964Y-88984171D01*
X168764098Y-89198335D01*
X168764094Y-89198344D01*
X168702938Y-89426586D01*
X168702936Y-89426596D01*
X168682341Y-89661999D01*
X168682341Y-89662000D01*
X168702936Y-89897403D01*
X168702938Y-89897413D01*
X168764094Y-90125655D01*
X168764096Y-90125659D01*
X168764097Y-90125663D01*
X168846790Y-90302998D01*
X168863965Y-90339830D01*
X168863967Y-90339834D01*
X168922903Y-90424002D01*
X168999505Y-90533401D01*
X169166599Y-90700495D01*
X169171923Y-90704223D01*
X169175069Y-90706426D01*
X169218693Y-90761003D01*
X169225885Y-90830502D01*
X169194362Y-90892856D01*
X169134132Y-90928269D01*
X169103944Y-90932000D01*
X161036479Y-90932000D01*
X160969440Y-90912315D01*
X160923685Y-90859511D01*
X160913158Y-90795042D01*
X160925460Y-90678000D01*
X160905674Y-90489744D01*
X160847179Y-90309716D01*
X160752533Y-90145784D01*
X160625871Y-90005112D01*
X160625870Y-90005111D01*
X160472734Y-89893851D01*
X160472729Y-89893848D01*
X160299807Y-89816857D01*
X160299802Y-89816855D01*
X160154000Y-89785865D01*
X160114646Y-89777500D01*
X159925354Y-89777500D01*
X159892897Y-89784398D01*
X159740197Y-89816855D01*
X159740192Y-89816857D01*
X159567270Y-89893848D01*
X159567265Y-89893851D01*
X159414129Y-90005111D01*
X159287466Y-90145785D01*
X159192821Y-90309715D01*
X159192818Y-90309722D01*
X159141712Y-90467011D01*
X159134326Y-90489744D01*
X159114540Y-90678000D01*
X159126841Y-90795041D01*
X159114273Y-90863768D01*
X159066541Y-90914792D01*
X159003521Y-90932000D01*
X156708784Y-90932000D01*
X156641745Y-90912315D01*
X156595990Y-90859511D01*
X156585463Y-90795041D01*
X156594521Y-90708863D01*
X156574735Y-90520607D01*
X156516240Y-90340579D01*
X156421594Y-90176647D01*
X156294932Y-90035975D01*
X156252453Y-90005112D01*
X156141795Y-89924714D01*
X156141790Y-89924711D01*
X155968868Y-89847720D01*
X155968863Y-89847718D01*
X155805033Y-89812896D01*
X155783707Y-89808363D01*
X155594415Y-89808363D01*
X155573089Y-89812896D01*
X155409258Y-89847718D01*
X155409253Y-89847720D01*
X155236331Y-89924711D01*
X155236326Y-89924714D01*
X155083190Y-90035974D01*
X154956527Y-90176648D01*
X154861882Y-90340578D01*
X154861877Y-90340588D01*
X154852261Y-90370185D01*
X154812823Y-90427860D01*
X154748464Y-90455057D01*
X154679617Y-90443141D01*
X154646650Y-90419546D01*
X154597625Y-90370521D01*
X154564140Y-90309198D01*
X154561985Y-90295799D01*
X154555674Y-90235748D01*
X154555674Y-90235745D01*
X154555672Y-90235740D01*
X154516420Y-90114934D01*
X154497181Y-90055721D01*
X154497178Y-90055715D01*
X154402533Y-89891784D01*
X154275871Y-89751112D01*
X154275863Y-89751106D01*
X154122734Y-89639851D01*
X154122729Y-89639848D01*
X153949807Y-89562857D01*
X153949802Y-89562855D01*
X153804000Y-89531865D01*
X153764646Y-89523500D01*
X153575354Y-89523500D01*
X153542897Y-89530398D01*
X153390197Y-89562855D01*
X153390192Y-89562857D01*
X153217270Y-89639848D01*
X153217265Y-89639851D01*
X153064129Y-89751111D01*
X152937466Y-89891785D01*
X152842821Y-90055715D01*
X152842818Y-90055722D01*
X152784327Y-90235740D01*
X152784326Y-90235744D01*
X152770556Y-90366762D01*
X152764540Y-90424002D01*
X152764540Y-90424005D01*
X152765284Y-90431087D01*
X152752712Y-90499816D01*
X152704978Y-90550838D01*
X152637236Y-90567953D01*
X152616182Y-90565333D01*
X152591488Y-90560084D01*
X152494646Y-90539500D01*
X152413250Y-90539500D01*
X152346211Y-90519815D01*
X152300456Y-90467011D01*
X152289929Y-90428462D01*
X152283444Y-90366762D01*
X152269674Y-90235744D01*
X152211179Y-90055716D01*
X152116533Y-89891784D01*
X151989871Y-89751112D01*
X151989863Y-89751106D01*
X151836734Y-89639851D01*
X151836729Y-89639848D01*
X151663807Y-89562857D01*
X151663802Y-89562855D01*
X151518000Y-89531865D01*
X151478646Y-89523500D01*
X151289354Y-89523500D01*
X151256897Y-89530398D01*
X151104197Y-89562855D01*
X151104192Y-89562857D01*
X150931270Y-89639848D01*
X150931265Y-89639851D01*
X150778135Y-89751106D01*
X150778125Y-89751115D01*
X150767136Y-89763319D01*
X150707648Y-89799965D01*
X150637791Y-89798632D01*
X150587309Y-89768024D01*
X150404319Y-89585033D01*
X150370834Y-89523710D01*
X150368000Y-89497352D01*
X150368000Y-87924817D01*
X150387685Y-87857778D01*
X150440489Y-87812023D01*
X150509647Y-87802079D01*
X150564885Y-87824499D01*
X150677265Y-87906148D01*
X150677270Y-87906151D01*
X150850192Y-87983142D01*
X150850197Y-87983144D01*
X151035354Y-88022500D01*
X151035355Y-88022500D01*
X151224644Y-88022500D01*
X151224646Y-88022500D01*
X151409803Y-87983144D01*
X151582730Y-87906151D01*
X151735871Y-87794888D01*
X151862533Y-87654216D01*
X151876514Y-87630000D01*
X164956540Y-87630000D01*
X164976326Y-87818256D01*
X164976327Y-87818259D01*
X165034818Y-87998277D01*
X165034821Y-87998284D01*
X165129467Y-88162216D01*
X165198893Y-88239321D01*
X165256129Y-88302888D01*
X165409265Y-88414148D01*
X165409270Y-88414151D01*
X165582192Y-88491142D01*
X165582197Y-88491144D01*
X165767354Y-88530500D01*
X165767355Y-88530500D01*
X165956644Y-88530500D01*
X165956646Y-88530500D01*
X166141803Y-88491144D01*
X166314730Y-88414151D01*
X166467871Y-88302888D01*
X166594533Y-88162216D01*
X166689179Y-87998284D01*
X166747674Y-87818256D01*
X166767460Y-87630000D01*
X166747674Y-87441744D01*
X166689179Y-87261716D01*
X166594533Y-87097784D01*
X166467871Y-86957112D01*
X166435708Y-86933744D01*
X166314734Y-86845851D01*
X166314729Y-86845848D01*
X166141807Y-86768857D01*
X166141802Y-86768855D01*
X165996001Y-86737865D01*
X165956646Y-86729500D01*
X165767354Y-86729500D01*
X165734897Y-86736398D01*
X165582197Y-86768855D01*
X165582192Y-86768857D01*
X165409270Y-86845848D01*
X165409265Y-86845851D01*
X165256129Y-86957111D01*
X165129465Y-87097785D01*
X165126343Y-87102083D01*
X165071011Y-87144746D01*
X165019537Y-87149163D01*
X165040746Y-87186714D01*
X165036814Y-87255530D01*
X165036829Y-87255535D01*
X165036811Y-87255589D01*
X165036761Y-87256470D01*
X165035505Y-87259606D01*
X164990491Y-87398148D01*
X164976326Y-87441744D01*
X164956540Y-87630000D01*
X151876514Y-87630000D01*
X151957179Y-87490284D01*
X152015674Y-87310256D01*
X152035460Y-87122000D01*
X152015674Y-86933744D01*
X151957179Y-86753716D01*
X151876514Y-86614000D01*
X163178540Y-86614000D01*
X163198326Y-86802256D01*
X163198327Y-86802259D01*
X163256818Y-86982277D01*
X163256821Y-86982284D01*
X163351467Y-87146216D01*
X163470675Y-87278610D01*
X163478129Y-87286888D01*
X163631265Y-87398148D01*
X163631270Y-87398151D01*
X163804192Y-87475142D01*
X163804197Y-87475144D01*
X163989354Y-87514500D01*
X163989355Y-87514500D01*
X164178644Y-87514500D01*
X164178646Y-87514500D01*
X164363803Y-87475144D01*
X164536730Y-87398151D01*
X164689871Y-87286888D01*
X164816533Y-87146216D01*
X164816538Y-87146206D01*
X164819647Y-87141928D01*
X164874974Y-87099259D01*
X164926459Y-87094833D01*
X164905250Y-87057271D01*
X164909188Y-86988470D01*
X164909171Y-86988465D01*
X164909192Y-86988398D01*
X164909243Y-86987516D01*
X164910497Y-86984383D01*
X164911181Y-86982277D01*
X164969674Y-86802256D01*
X164989460Y-86614000D01*
X164969674Y-86425744D01*
X164911179Y-86245716D01*
X164816533Y-86081784D01*
X164689871Y-85941112D01*
X164689870Y-85941111D01*
X164536734Y-85829851D01*
X164536729Y-85829848D01*
X164363807Y-85752857D01*
X164363802Y-85752855D01*
X164218000Y-85721865D01*
X164178646Y-85713500D01*
X163989354Y-85713500D01*
X163956897Y-85720398D01*
X163804197Y-85752855D01*
X163804192Y-85752857D01*
X163631270Y-85829848D01*
X163631265Y-85829851D01*
X163478129Y-85941111D01*
X163351466Y-86081785D01*
X163256821Y-86245715D01*
X163256818Y-86245722D01*
X163198327Y-86425740D01*
X163198326Y-86425744D01*
X163178540Y-86614000D01*
X151876514Y-86614000D01*
X151862533Y-86589784D01*
X151735871Y-86449112D01*
X151727431Y-86442980D01*
X151582734Y-86337851D01*
X151582729Y-86337848D01*
X151409807Y-86260857D01*
X151409802Y-86260855D01*
X151264001Y-86229865D01*
X151224646Y-86221500D01*
X151035354Y-86221500D01*
X151002897Y-86228398D01*
X150850197Y-86260855D01*
X150850192Y-86260857D01*
X150677270Y-86337848D01*
X150677265Y-86337851D01*
X150564885Y-86419500D01*
X150499078Y-86442980D01*
X150431025Y-86427154D01*
X150382330Y-86377048D01*
X150368000Y-86319182D01*
X150368000Y-84823048D01*
X150368299Y-84816967D01*
X150372899Y-84770259D01*
X150386018Y-84637056D01*
X150390757Y-84613232D01*
X150440577Y-84448994D01*
X150449875Y-84426549D01*
X150530775Y-84275195D01*
X150544272Y-84254995D01*
X150653149Y-84122328D01*
X150670328Y-84105149D01*
X150802995Y-83996272D01*
X150823195Y-83982775D01*
X150974549Y-83901875D01*
X150996994Y-83892577D01*
X151161232Y-83842757D01*
X151185056Y-83838018D01*
X151299501Y-83826746D01*
X151364969Y-83820299D01*
X151371049Y-83820000D01*
X161755857Y-83820000D01*
X161822896Y-83839685D01*
G37*
%TD.AperFunction*%
%TD*%
D17*
X173087071Y-130809973D02*
G75*
G03*
X175119073Y-128778000I29J2031973D01*
G01*
X134281571Y-124064347D02*
G75*
G03*
X133039370Y-121386052I-3504871J1647D01*
G01*
X176351123Y-121296234D02*
G75*
G03*
X175119073Y-123962254I2268777J-2666166D01*
G01*
X134281619Y-124064347D02*
X134281619Y-128778000D01*
X173087071Y-130810000D02*
X136313619Y-130810002D01*
X175119073Y-123962254D02*
X175119073Y-128778000D01*
X188142262Y-95782046D02*
G75*
G03*
X121142262Y-95782046I-33500000J0D01*
G01*
X134281598Y-128778000D02*
G75*
G03*
X136313619Y-130810002I2032002J0D01*
G01*
X176351140Y-121296254D02*
G75*
G03*
X188142262Y-95782046I-21708920J25514224D01*
G01*
X121142261Y-95782046D02*
G75*
G03*
X133039370Y-121386051I33499989J-4D01*
G01*
M02*
