%TF.GenerationSoftware,KiCad,Pcbnew,7.0.6*%
%TF.CreationDate,2024-03-18T21:13:24+03:00*%
%TF.ProjectId,_____ __________,1f3b3042-3020-4433-9f40-30323b353d38,rev?*%
%TF.SameCoordinates,Original*%
%TF.FileFunction,Copper,L4,Inr*%
%TF.FilePolarity,Positive*%
%FSLAX46Y46*%
G04 Gerber Fmt 4.6, Leading zero omitted, Abs format (unit mm)*
G04 Created by KiCad (PCBNEW 7.0.6) date 2024-03-18 21:13:24*
%MOMM*%
%LPD*%
G01*
G04 APERTURE LIST*
G04 Aperture macros list*
%AMRoundRect*
0 Rectangle with rounded corners*
0 $1 Rounding radius*
0 $2 $3 $4 $5 $6 $7 $8 $9 X,Y pos of 4 corners*
0 Add a 4 corners polygon primitive as box body*
4,1,4,$2,$3,$4,$5,$6,$7,$8,$9,$2,$3,0*
0 Add four circle primitives for the rounded corners*
1,1,$1+$1,$2,$3*
1,1,$1+$1,$4,$5*
1,1,$1+$1,$6,$7*
1,1,$1+$1,$8,$9*
0 Add four rect primitives between the rounded corners*
20,1,$1+$1,$2,$3,$4,$5,0*
20,1,$1+$1,$4,$5,$6,$7,0*
20,1,$1+$1,$6,$7,$8,$9,0*
20,1,$1+$1,$8,$9,$2,$3,0*%
G04 Aperture macros list end*
%TA.AperFunction,ComponentPad*%
%ADD10R,1.700000X1.700000*%
%TD*%
%TA.AperFunction,ComponentPad*%
%ADD11O,1.700000X1.700000*%
%TD*%
%TA.AperFunction,ComponentPad*%
%ADD12RoundRect,0.200000X-0.200000X-0.450000X0.200000X-0.450000X0.200000X0.450000X-0.200000X0.450000X0*%
%TD*%
%TA.AperFunction,ComponentPad*%
%ADD13O,0.800000X1.300000*%
%TD*%
%TA.AperFunction,ComponentPad*%
%ADD14C,6.000000*%
%TD*%
%TA.AperFunction,ViaPad*%
%ADD15C,0.800000*%
%TD*%
%TA.AperFunction,Profile*%
%ADD16C,0.200000*%
%TD*%
G04 APERTURE END LIST*
D10*
%TO.N,GND*%
%TO.C,J10*%
X178054000Y-92202000D03*
D11*
%TO.N,SWCLK*%
X178054000Y-94742000D03*
%TO.N,SWDIO*%
X178054000Y-97282000D03*
%TO.N,Net-(D13-A)*%
X178054000Y-99822000D03*
%TD*%
D12*
%TO.N,CAN1L*%
%TO.C,J4*%
X168793000Y-125808000D03*
D13*
%TO.N,CAN1H*%
X170043000Y-125808000D03*
%TD*%
D14*
%TO.N,unconnected-(J3-Pin_1-Pad1)*%
%TO.C,J3*%
X132334000Y-82931000D03*
%TD*%
%TO.N,unconnected-(J1-Pin_1-Pad1)*%
%TO.C,J1*%
X176784000Y-82931000D03*
%TD*%
D12*
%TO.N,GND*%
%TO.C,J9*%
X149021000Y-125808000D03*
D13*
%TO.N,Digital_input2*%
X150271000Y-125808000D03*
%TO.N,Digital_input1*%
X151521000Y-125808000D03*
%TO.N,Analog_Input2*%
X152771000Y-125808000D03*
%TO.N,Analog_Input1*%
X154021000Y-125808000D03*
%TO.N,GNDA*%
X155271000Y-125808000D03*
%TD*%
D14*
%TO.N,unconnected-(J2-Pin_1-Pad1)*%
%TO.C,J2*%
X154559000Y-68326000D03*
%TD*%
D10*
%TO.N,+3.3V*%
%TO.C,J5*%
X172578000Y-104902000D03*
D11*
%TO.N,GND*%
X170038000Y-104902000D03*
%TO.N,Angle_Sensor_CS_MCU*%
X172578000Y-102362000D03*
%TO.N,Temp_Coil_C_MCU*%
X170038000Y-102362000D03*
%TO.N,Angle_Sensor_SCLK_MCU*%
X172578000Y-99822000D03*
%TO.N,Temp_Coil_B_MCU*%
X170038000Y-99822000D03*
%TO.N,Angle_Sensor_SDIO_MCU*%
X172578000Y-97282000D03*
%TO.N,Temp_Coil_A_MCU*%
X170038000Y-97282000D03*
%TO.N,OUT_MCU*%
X172578000Y-94742000D03*
%TO.N,Current_C_MCU*%
X170038000Y-94742000D03*
%TO.N,Current_B_MCU*%
X172578000Y-92202000D03*
%TO.N,Current_A_MCU*%
X170038000Y-92202000D03*
%TO.N,+3.3VA*%
X172578000Y-89662000D03*
%TO.N,GNDA*%
X170038000Y-89662000D03*
%TD*%
D12*
%TO.N,GND*%
%TO.C,J7*%
X159552000Y-125808000D03*
D13*
%TO.N,RS_485_Y*%
X160802000Y-125808000D03*
%TO.N,RS_485_Z*%
X162052000Y-125808000D03*
%TO.N,RS_485_B*%
X163302000Y-125808000D03*
%TO.N,RS_485_A*%
X164552000Y-125808000D03*
%TD*%
D12*
%TO.N,CAN2L*%
%TO.C,J6*%
X143393000Y-125808000D03*
D13*
%TO.N,CAN2H*%
X144643000Y-125808000D03*
%TD*%
D15*
%TO.N,GND*%
X138684000Y-120650000D03*
X151130000Y-82804000D03*
X136652000Y-103886000D03*
X148844000Y-118364000D03*
X138938000Y-91694000D03*
X173482000Y-113538000D03*
X125984000Y-100838000D03*
X159766000Y-102108000D03*
X161290000Y-116078000D03*
X142727561Y-106703516D03*
X148844000Y-81280000D03*
X133858000Y-90170000D03*
X137265023Y-112670977D03*
X143002000Y-87630000D03*
X141732000Y-97028000D03*
X159766000Y-101092000D03*
X148844000Y-74422000D03*
X154559000Y-114300000D03*
X165862000Y-87630000D03*
X162560000Y-84582000D03*
X138302647Y-96900646D03*
X142748000Y-81534000D03*
X127254000Y-90932000D03*
X160020000Y-90678000D03*
X147024477Y-111845477D03*
X132588000Y-98552000D03*
X169418000Y-121412000D03*
X159004000Y-74422000D03*
X147941673Y-90516500D03*
X164338000Y-106426000D03*
X159766000Y-100076000D03*
%TO.N,A*%
X139446000Y-108458000D03*
X156972000Y-109474000D03*
X141224000Y-111760000D03*
%TO.N,B*%
X144526000Y-102362000D03*
X139700000Y-99060000D03*
X157226000Y-99314000D03*
%TO.N,C*%
X137392023Y-115845977D03*
X149860000Y-108585000D03*
X147828000Y-120142000D03*
%TO.N,+24V*%
X170688000Y-82804000D03*
X159766000Y-113030000D03*
X130810000Y-106680000D03*
%TO.N,+12V*%
X141001682Y-120882379D03*
X134620000Y-102870000D03*
X148844000Y-71628000D03*
X148844000Y-70612000D03*
X136398000Y-115062000D03*
X142748000Y-108966000D03*
X158750000Y-71374000D03*
X148844000Y-69596000D03*
X143287454Y-102120500D03*
%TO.N,Enable*%
X138938000Y-92722500D03*
X140462000Y-106426000D03*
X141478000Y-93726000D03*
X139954000Y-112014000D03*
%TO.N,IN_A*%
X139446000Y-106426000D03*
%TO.N,IN_B*%
X143107023Y-98298000D03*
%TO.N,IN_C*%
X139424023Y-114829977D03*
%TO.N,+3.3V*%
X167640000Y-117602000D03*
X154686000Y-78232000D03*
X154686000Y-105537000D03*
X136764000Y-87234000D03*
X125349000Y-95123000D03*
X144018000Y-76708000D03*
X126746000Y-99060000D03*
X137414000Y-120650000D03*
X145542000Y-84836000D03*
X171958000Y-113538000D03*
X162560000Y-106426000D03*
X164084000Y-86614000D03*
X139700000Y-87122000D03*
X145034000Y-81280000D03*
X151130000Y-87122000D03*
X178054000Y-106172000D03*
X148336000Y-121539000D03*
X131826000Y-91186000D03*
%TO.N,NRST*%
X155689061Y-90708863D03*
%TO.N,Temp_Coil_C_MCU*%
X147320000Y-88392000D03*
%TO.N,Temp_Coil_B_MCU*%
X148336000Y-87122000D03*
%TO.N,Temp_Coil_A_MCU*%
X149352000Y-87122000D03*
%TO.N,Net-(R16-Pad2)*%
X134620000Y-91440000D03*
X148336000Y-122555000D03*
%TO.N,Current_C_MCU*%
X152400000Y-91440000D03*
%TO.N,Current_B_MCU*%
X153670000Y-91423503D03*
%TO.N,RS_485_RX_MCU*%
X161290000Y-111252000D03*
X163830000Y-111252000D03*
%TO.N,RS_485_Enable_MCU*%
X160032500Y-111207693D03*
X165100000Y-112268000D03*
%TO.N,Current_A_MCU*%
X153670000Y-90424000D03*
%TO.N,GNDA*%
X153924000Y-118110000D03*
X151384000Y-90424000D03*
X149606000Y-82804000D03*
%TO.N,+3.3VA*%
X159512000Y-121412000D03*
X159258500Y-115779546D03*
X151130000Y-85852000D03*
%TO.N,Temperature_Power_~{OS}_MCU*%
X143764000Y-85852000D03*
X149860000Y-92710000D03*
%TO.N,Temperature_Power_SCL_MCU*%
X140716000Y-85852000D03*
X149860000Y-95758000D03*
%TO.N,Temperature_Power_SDA_MCU*%
X149860000Y-98298000D03*
X142240000Y-85852000D03*
%TO.N,EEPROM_~{CS_MCU}*%
X142240000Y-91516500D03*
X129032000Y-92964000D03*
%TO.N,EEPROM_MOSI_MCU*%
X144581440Y-93516500D03*
X130048000Y-96012000D03*
%TO.N,Net-(U4-+)*%
X135128000Y-87122000D03*
%TO.N,Net-(D4-COM)*%
X155702000Y-117602000D03*
X148313669Y-94465669D03*
%TO.N,Net-(U10-+)*%
X127762000Y-105410000D03*
%TO.N,Net-(D7-K)*%
X170688000Y-78232000D03*
%TO.N,Net-(D8-K)*%
X137160000Y-75438000D03*
%TO.N,Net-(U7-PC4)*%
X158750000Y-99314000D03*
X163830000Y-96266000D03*
X148286582Y-93466536D03*
%TO.N,Net-(D14-COM)*%
X155956000Y-112014000D03*
X148336000Y-95504000D03*
%TD*%
%TA.AperFunction,Conductor*%
%TO.N,GNDA*%
G36*
X155035505Y-125905545D02*
G01*
X155090760Y-125988240D01*
X155173455Y-126043495D01*
X155246376Y-126058000D01*
X155145000Y-126058000D01*
X155077961Y-126038315D01*
X155032206Y-125985511D01*
X155021000Y-125934000D01*
X155021000Y-125832623D01*
X155035505Y-125905545D01*
G37*
%TD.AperFunction*%
%TA.AperFunction,Conductor*%
G36*
X155521000Y-125934000D02*
G01*
X155501315Y-126001039D01*
X155448511Y-126046794D01*
X155397000Y-126058000D01*
X155295624Y-126058000D01*
X155368545Y-126043495D01*
X155451240Y-125988240D01*
X155506495Y-125905545D01*
X155521000Y-125832623D01*
X155521000Y-125934000D01*
G37*
%TD.AperFunction*%
%TA.AperFunction,Conductor*%
G36*
X156398821Y-98945715D02*
G01*
X156398818Y-98945722D01*
X156354490Y-99082151D01*
X156340326Y-99125744D01*
X156336816Y-99159144D01*
X156325689Y-99265003D01*
X156299196Y-99329503D01*
X155921130Y-99802087D01*
X155702000Y-100076000D01*
X155702000Y-100426781D01*
X155702000Y-100426784D01*
X155702000Y-105032989D01*
X155682315Y-105100028D01*
X155629511Y-105145783D01*
X155560353Y-105155727D01*
X155496797Y-105126702D01*
X155470613Y-105094989D01*
X155434817Y-105032989D01*
X155418533Y-105004784D01*
X155291871Y-104864112D01*
X155291870Y-104864111D01*
X155138734Y-104752851D01*
X155138729Y-104752848D01*
X154965807Y-104675857D01*
X154965802Y-104675855D01*
X154820001Y-104644865D01*
X154780646Y-104636500D01*
X154591354Y-104636500D01*
X154558897Y-104643398D01*
X154406197Y-104675855D01*
X154406192Y-104675857D01*
X154233270Y-104752848D01*
X154233265Y-104752851D01*
X154080129Y-104864111D01*
X153953466Y-105004785D01*
X153858821Y-105168715D01*
X153858818Y-105168722D01*
X153800327Y-105348740D01*
X153800326Y-105348744D01*
X153780540Y-105537000D01*
X153800326Y-105725256D01*
X153800327Y-105725259D01*
X153858818Y-105905277D01*
X153858821Y-105905284D01*
X153953467Y-106069216D01*
X154080128Y-106209888D01*
X154080129Y-106209888D01*
X154233265Y-106321148D01*
X154233270Y-106321151D01*
X154406192Y-106398142D01*
X154406197Y-106398144D01*
X154591354Y-106437500D01*
X154591355Y-106437500D01*
X154780644Y-106437500D01*
X154780646Y-106437500D01*
X154965803Y-106398144D01*
X155138730Y-106321151D01*
X155291871Y-106209888D01*
X155418533Y-106069216D01*
X155470613Y-105979009D01*
X155521179Y-105930795D01*
X155589786Y-105917571D01*
X155654651Y-105943539D01*
X155695180Y-106000453D01*
X155702000Y-106041010D01*
X155702000Y-111060841D01*
X155682315Y-111127880D01*
X155629511Y-111173635D01*
X155628437Y-111174120D01*
X155503267Y-111229850D01*
X155503265Y-111229851D01*
X155350129Y-111341111D01*
X155223466Y-111481785D01*
X155128821Y-111645715D01*
X155128818Y-111645722D01*
X155070327Y-111825740D01*
X155070326Y-111825744D01*
X155050540Y-112014000D01*
X155070326Y-112202256D01*
X155070327Y-112202259D01*
X155128818Y-112382277D01*
X155128821Y-112382284D01*
X155223467Y-112546216D01*
X155298572Y-112629628D01*
X155350129Y-112686888D01*
X155503265Y-112798148D01*
X155503266Y-112798148D01*
X155503270Y-112798151D01*
X155628436Y-112853879D01*
X155681673Y-112899129D01*
X155701994Y-112965978D01*
X155702000Y-112967158D01*
X155702000Y-114193981D01*
X155682315Y-114261020D01*
X155635352Y-114301713D01*
X155668553Y-114321306D01*
X155699977Y-114383711D01*
X155702000Y-114406018D01*
X155702000Y-116580969D01*
X155682315Y-116648008D01*
X155629511Y-116693763D01*
X155603781Y-116702259D01*
X155422197Y-116740855D01*
X155422192Y-116740857D01*
X155249270Y-116817848D01*
X155249265Y-116817851D01*
X155096129Y-116929111D01*
X154969466Y-117069785D01*
X154874821Y-117233715D01*
X154874818Y-117233722D01*
X154816327Y-117413740D01*
X154816326Y-117413744D01*
X154796540Y-117602000D01*
X154816326Y-117790256D01*
X154816327Y-117790259D01*
X154874818Y-117970277D01*
X154874821Y-117970284D01*
X154969467Y-118134216D01*
X155096128Y-118274888D01*
X155096129Y-118274888D01*
X155249265Y-118386148D01*
X155249270Y-118386151D01*
X155422192Y-118463142D01*
X155422193Y-118463142D01*
X155422197Y-118463144D01*
X155603781Y-118501740D01*
X155665262Y-118534932D01*
X155699039Y-118596095D01*
X155702000Y-118623030D01*
X155702000Y-124576378D01*
X155682315Y-124643417D01*
X155629511Y-124689172D01*
X155560353Y-124699116D01*
X155552218Y-124697668D01*
X155521000Y-124691032D01*
X155521000Y-125783376D01*
X155506495Y-125710455D01*
X155451240Y-125627760D01*
X155368545Y-125572505D01*
X155295624Y-125558000D01*
X155246376Y-125558000D01*
X155173455Y-125572505D01*
X155090760Y-125627760D01*
X155035505Y-125710455D01*
X155021000Y-125783376D01*
X155021000Y-124691032D01*
X154991354Y-124697334D01*
X154818516Y-124774287D01*
X154719310Y-124846365D01*
X154653504Y-124869845D01*
X154585450Y-124854019D01*
X154573548Y-124846371D01*
X154473730Y-124773849D01*
X154473729Y-124773848D01*
X154300807Y-124696857D01*
X154300802Y-124696855D01*
X154145822Y-124663914D01*
X154115646Y-124657500D01*
X153926354Y-124657500D01*
X153896178Y-124663914D01*
X153741197Y-124696855D01*
X153741192Y-124696857D01*
X153568271Y-124773848D01*
X153468885Y-124846056D01*
X153403078Y-124869535D01*
X153335025Y-124853709D01*
X153323115Y-124846056D01*
X153263203Y-124802528D01*
X153223730Y-124773849D01*
X153223728Y-124773848D01*
X153223729Y-124773848D01*
X153050807Y-124696857D01*
X153050802Y-124696855D01*
X152895822Y-124663914D01*
X152865646Y-124657500D01*
X152676354Y-124657500D01*
X152646178Y-124663914D01*
X152491197Y-124696855D01*
X152491192Y-124696857D01*
X152318271Y-124773848D01*
X152218885Y-124846056D01*
X152153078Y-124869535D01*
X152085025Y-124853709D01*
X152073115Y-124846056D01*
X152013203Y-124802528D01*
X151973730Y-124773849D01*
X151973728Y-124773848D01*
X151973728Y-124773847D01*
X151965562Y-124770212D01*
X151912326Y-124724961D01*
X151892006Y-124658112D01*
X151892000Y-124656934D01*
X151892000Y-114300000D01*
X153653540Y-114300000D01*
X153673326Y-114488256D01*
X153673327Y-114488259D01*
X153731818Y-114668277D01*
X153731821Y-114668284D01*
X153826467Y-114832216D01*
X153953129Y-114972887D01*
X153953129Y-114972888D01*
X154106265Y-115084148D01*
X154106270Y-115084151D01*
X154279192Y-115161142D01*
X154279197Y-115161144D01*
X154464354Y-115200500D01*
X154464355Y-115200500D01*
X154653644Y-115200500D01*
X154653646Y-115200500D01*
X154838803Y-115161144D01*
X155011730Y-115084151D01*
X155164871Y-114972888D01*
X155291533Y-114832216D01*
X155386179Y-114668284D01*
X155444674Y-114488256D01*
X155454679Y-114393055D01*
X155481263Y-114328442D01*
X155522701Y-114299524D01*
X155496797Y-114287694D01*
X155459023Y-114228916D01*
X155454680Y-114206949D01*
X155444674Y-114111744D01*
X155386179Y-113931716D01*
X155291533Y-113767784D01*
X155164871Y-113627112D01*
X155164870Y-113627111D01*
X155011734Y-113515851D01*
X155011729Y-113515848D01*
X154838807Y-113438857D01*
X154838802Y-113438855D01*
X154693000Y-113407865D01*
X154653646Y-113399500D01*
X154464354Y-113399500D01*
X154431897Y-113406398D01*
X154279197Y-113438855D01*
X154279192Y-113438857D01*
X154106270Y-113515848D01*
X154106265Y-113515851D01*
X153953129Y-113627111D01*
X153826466Y-113767785D01*
X153731821Y-113931715D01*
X153731818Y-113931722D01*
X153673327Y-114111740D01*
X153673326Y-114111744D01*
X153653540Y-114300000D01*
X151892000Y-114300000D01*
X151892000Y-100544380D01*
X151892000Y-100544375D01*
X151892000Y-100544374D01*
X151892000Y-100076000D01*
X150599874Y-98999228D01*
X150570558Y-98964861D01*
X150561151Y-98895627D01*
X150589068Y-98835727D01*
X150588715Y-98835471D01*
X150590034Y-98833654D01*
X150590667Y-98832298D01*
X150591494Y-98831369D01*
X150592533Y-98830216D01*
X150606514Y-98806000D01*
X156479485Y-98806000D01*
X156398821Y-98945715D01*
G37*
%TD.AperFunction*%
%TD*%
%TA.AperFunction,Conductor*%
%TO.N,GNDA*%
G36*
X149355457Y-82296389D02*
G01*
X149507682Y-82313541D01*
X149534743Y-82319717D01*
X149669433Y-82366848D01*
X149694443Y-82378891D01*
X149815271Y-82454812D01*
X149836980Y-82472125D01*
X149937874Y-82573019D01*
X149955187Y-82594728D01*
X150031106Y-82715553D01*
X150043153Y-82740570D01*
X150090280Y-82875250D01*
X150096459Y-82902321D01*
X150114000Y-83058000D01*
X150114000Y-83820000D01*
X161755857Y-83820000D01*
X161822896Y-83839685D01*
X161868651Y-83892489D01*
X161878595Y-83961647D01*
X161849570Y-84025203D01*
X161848007Y-84026972D01*
X161827466Y-84049785D01*
X161732821Y-84213715D01*
X161732818Y-84213722D01*
X161674327Y-84393740D01*
X161674326Y-84393744D01*
X161654540Y-84582000D01*
X161674326Y-84770256D01*
X161674327Y-84770259D01*
X161732818Y-84950277D01*
X161732821Y-84950284D01*
X161827467Y-85114216D01*
X161885899Y-85179111D01*
X161954129Y-85254888D01*
X162107265Y-85366148D01*
X162107270Y-85366151D01*
X162280192Y-85443142D01*
X162280197Y-85443144D01*
X162465354Y-85482500D01*
X162465355Y-85482500D01*
X162654644Y-85482500D01*
X162654646Y-85482500D01*
X162839803Y-85443144D01*
X163012730Y-85366151D01*
X163165871Y-85254888D01*
X163292533Y-85114216D01*
X163387179Y-84950284D01*
X163445674Y-84770256D01*
X163465460Y-84582000D01*
X163445674Y-84393744D01*
X163387179Y-84213716D01*
X163292533Y-84049784D01*
X163271993Y-84026972D01*
X163241763Y-83963980D01*
X163250388Y-83894645D01*
X163295130Y-83840980D01*
X163361782Y-83820022D01*
X163364143Y-83820000D01*
X172478951Y-83820000D01*
X172485032Y-83820299D01*
X172546067Y-83826310D01*
X172664941Y-83838018D01*
X172688769Y-83842757D01*
X172853001Y-83892576D01*
X172875453Y-83901877D01*
X173026798Y-83982772D01*
X173047010Y-83996277D01*
X173179666Y-84105145D01*
X173196854Y-84122333D01*
X173305722Y-84254989D01*
X173319227Y-84275201D01*
X173400121Y-84426543D01*
X173409424Y-84449001D01*
X173459240Y-84613224D01*
X173463982Y-84637065D01*
X173481701Y-84816967D01*
X173482000Y-84823048D01*
X173482000Y-88408129D01*
X173462315Y-88475168D01*
X173409511Y-88520923D01*
X173340353Y-88530867D01*
X173286877Y-88509704D01*
X173255834Y-88487967D01*
X173255830Y-88487965D01*
X173228387Y-88475168D01*
X173041663Y-88388097D01*
X173041659Y-88388096D01*
X173041655Y-88388094D01*
X172813413Y-88326938D01*
X172813403Y-88326936D01*
X172578001Y-88306341D01*
X172577999Y-88306341D01*
X172342596Y-88326936D01*
X172342586Y-88326938D01*
X172114344Y-88388094D01*
X172114335Y-88388098D01*
X171900171Y-88487964D01*
X171900169Y-88487965D01*
X171706597Y-88623505D01*
X171539508Y-88790594D01*
X171409269Y-88976595D01*
X171354692Y-89020219D01*
X171285193Y-89027412D01*
X171222839Y-88995890D01*
X171206119Y-88976594D01*
X171076113Y-88790926D01*
X171076108Y-88790920D01*
X170909082Y-88623894D01*
X170715578Y-88488399D01*
X170501492Y-88388570D01*
X170501486Y-88388567D01*
X170288000Y-88331364D01*
X170288000Y-89226498D01*
X170180315Y-89177320D01*
X170073763Y-89162000D01*
X170002237Y-89162000D01*
X169895685Y-89177320D01*
X169788000Y-89226498D01*
X169788000Y-88331364D01*
X169787999Y-88331364D01*
X169574513Y-88388567D01*
X169574507Y-88388570D01*
X169360422Y-88488399D01*
X169360420Y-88488400D01*
X169166926Y-88623886D01*
X169166920Y-88623891D01*
X168999891Y-88790920D01*
X168999886Y-88790926D01*
X168864400Y-88984420D01*
X168864399Y-88984422D01*
X168764570Y-89198507D01*
X168764567Y-89198513D01*
X168707364Y-89411999D01*
X168707364Y-89412000D01*
X169604314Y-89412000D01*
X169578507Y-89452156D01*
X169538000Y-89590111D01*
X169538000Y-89733889D01*
X169578507Y-89871844D01*
X169604314Y-89912000D01*
X168707364Y-89912000D01*
X168764567Y-90125486D01*
X168764570Y-90125492D01*
X168864399Y-90339578D01*
X168999894Y-90533082D01*
X169166917Y-90700105D01*
X169352595Y-90830119D01*
X169396219Y-90884696D01*
X169403412Y-90954195D01*
X169371890Y-91016549D01*
X169352595Y-91033269D01*
X169166594Y-91163508D01*
X168999505Y-91330597D01*
X168863965Y-91524169D01*
X168863964Y-91524171D01*
X168764098Y-91738335D01*
X168764094Y-91738344D01*
X168702938Y-91966586D01*
X168702936Y-91966596D01*
X168682341Y-92201999D01*
X168682341Y-92202000D01*
X168702936Y-92437403D01*
X168702938Y-92437413D01*
X168764094Y-92665655D01*
X168764096Y-92665659D01*
X168764097Y-92665663D01*
X168823777Y-92793647D01*
X168863965Y-92879830D01*
X168863967Y-92879834D01*
X168972281Y-93034521D01*
X168999504Y-93073400D01*
X168999506Y-93073402D01*
X169166597Y-93240493D01*
X169166603Y-93240498D01*
X169352158Y-93370425D01*
X169395783Y-93425002D01*
X169402977Y-93494500D01*
X169371454Y-93556855D01*
X169352158Y-93573575D01*
X169166597Y-93703505D01*
X168999505Y-93870597D01*
X168863965Y-94064169D01*
X168863964Y-94064171D01*
X168764098Y-94278335D01*
X168764094Y-94278344D01*
X168702938Y-94506586D01*
X168702936Y-94506596D01*
X168682341Y-94741999D01*
X168682341Y-94742000D01*
X168702936Y-94977403D01*
X168702938Y-94977413D01*
X168764094Y-95205655D01*
X168764096Y-95205659D01*
X168764097Y-95205663D01*
X168856983Y-95404857D01*
X168863965Y-95419830D01*
X168863967Y-95419834D01*
X168968933Y-95569740D01*
X168999501Y-95613396D01*
X168999506Y-95613402D01*
X169166597Y-95780493D01*
X169166603Y-95780498D01*
X169352158Y-95910425D01*
X169395783Y-95965002D01*
X169402977Y-96034500D01*
X169371454Y-96096855D01*
X169352158Y-96113575D01*
X169166597Y-96243505D01*
X168999505Y-96410597D01*
X168863965Y-96604169D01*
X168863964Y-96604171D01*
X168764098Y-96818335D01*
X168764094Y-96818344D01*
X168702938Y-97046586D01*
X168702936Y-97046596D01*
X168682341Y-97281999D01*
X168682341Y-97282000D01*
X168702936Y-97517403D01*
X168702938Y-97517413D01*
X168764094Y-97745655D01*
X168764096Y-97745659D01*
X168764097Y-97745663D01*
X168832750Y-97892889D01*
X168863965Y-97959830D01*
X168863967Y-97959834D01*
X168968933Y-98109740D01*
X168999501Y-98153396D01*
X168999506Y-98153402D01*
X169166597Y-98320493D01*
X169166603Y-98320498D01*
X169352158Y-98450425D01*
X169395783Y-98505002D01*
X169402977Y-98574500D01*
X169371454Y-98636855D01*
X169352158Y-98653575D01*
X169166498Y-98783575D01*
X169100292Y-98805902D01*
X169095375Y-98806000D01*
X159559545Y-98806000D01*
X159492506Y-98786315D01*
X159467395Y-98764972D01*
X159355870Y-98641111D01*
X159202734Y-98529851D01*
X159202729Y-98529848D01*
X159029807Y-98452857D01*
X159029802Y-98452855D01*
X158884000Y-98421865D01*
X158844646Y-98413500D01*
X158655354Y-98413500D01*
X158622897Y-98420398D01*
X158470197Y-98452855D01*
X158470192Y-98452857D01*
X158297270Y-98529848D01*
X158297265Y-98529851D01*
X158144129Y-98641111D01*
X158144128Y-98641112D01*
X158080149Y-98712168D01*
X158020663Y-98748816D01*
X157950806Y-98747485D01*
X157895851Y-98712168D01*
X157831871Y-98641112D01*
X157831870Y-98641111D01*
X157678734Y-98529851D01*
X157678729Y-98529848D01*
X157505807Y-98452857D01*
X157505802Y-98452855D01*
X157360001Y-98421865D01*
X157320646Y-98413500D01*
X157131354Y-98413500D01*
X157098897Y-98420398D01*
X156946197Y-98452855D01*
X156946192Y-98452857D01*
X156773270Y-98529848D01*
X156773265Y-98529851D01*
X156620129Y-98641111D01*
X156493466Y-98781785D01*
X156479485Y-98806000D01*
X150606514Y-98806000D01*
X150687179Y-98666284D01*
X150745674Y-98486256D01*
X150765460Y-98298000D01*
X150745674Y-98109744D01*
X150687179Y-97929716D01*
X150592533Y-97765784D01*
X150465871Y-97625112D01*
X150465870Y-97625111D01*
X150312734Y-97513851D01*
X150312729Y-97513848D01*
X150139807Y-97436857D01*
X150139802Y-97436855D01*
X149994000Y-97405865D01*
X149954646Y-97397500D01*
X149765354Y-97397500D01*
X149732897Y-97404398D01*
X149580197Y-97436855D01*
X149580192Y-97436857D01*
X149407270Y-97513848D01*
X149407265Y-97513851D01*
X149254129Y-97625111D01*
X149127466Y-97765785D01*
X149032821Y-97929715D01*
X149032818Y-97929722D01*
X148974327Y-98109740D01*
X148974326Y-98109744D01*
X148954540Y-98298000D01*
X148974326Y-98486256D01*
X148974327Y-98486259D01*
X149025477Y-98643682D01*
X149027472Y-98713523D01*
X148991392Y-98773356D01*
X148928691Y-98804184D01*
X148907546Y-98806000D01*
X147537773Y-98806000D01*
X147530992Y-98805628D01*
X147330657Y-98783601D01*
X147304201Y-98777712D01*
X147123126Y-98715988D01*
X147098581Y-98704492D01*
X146935234Y-98604896D01*
X146913774Y-98588342D01*
X146827232Y-98505002D01*
X146768597Y-98448537D01*
X146763976Y-98443571D01*
X146661415Y-98320498D01*
X146030084Y-97562900D01*
X146025814Y-97557127D01*
X145909246Y-97378798D01*
X145896444Y-97353165D01*
X145870679Y-97282000D01*
X145827603Y-97163022D01*
X145821029Y-97135143D01*
X145796414Y-96923517D01*
X145796000Y-96916350D01*
X145796000Y-93466536D01*
X147381122Y-93466536D01*
X147400908Y-93654792D01*
X147400909Y-93654795D01*
X147459400Y-93834813D01*
X147459402Y-93834817D01*
X147459403Y-93834820D01*
X147459404Y-93834821D01*
X147512947Y-93927561D01*
X147529419Y-93995461D01*
X147512947Y-94051559D01*
X147486489Y-94097385D01*
X147456596Y-94189388D01*
X147427995Y-94277413D01*
X147408209Y-94465669D01*
X147427995Y-94653925D01*
X147427996Y-94653928D01*
X147486487Y-94833946D01*
X147486490Y-94833953D01*
X147548970Y-94942172D01*
X147565443Y-95010073D01*
X147548971Y-95066170D01*
X147508821Y-95135713D01*
X147450327Y-95315740D01*
X147450326Y-95315744D01*
X147430540Y-95504000D01*
X147450326Y-95692256D01*
X147450327Y-95692259D01*
X147508818Y-95872277D01*
X147508821Y-95872284D01*
X147603467Y-96036216D01*
X147673122Y-96113575D01*
X147730129Y-96176888D01*
X147883265Y-96288148D01*
X147883270Y-96288151D01*
X148056192Y-96365142D01*
X148056197Y-96365144D01*
X148241354Y-96404500D01*
X148241355Y-96404500D01*
X148430644Y-96404500D01*
X148430646Y-96404500D01*
X148615803Y-96365144D01*
X148788730Y-96288151D01*
X148915114Y-96196327D01*
X148980918Y-96172849D01*
X149048972Y-96188674D01*
X149095384Y-96234647D01*
X149127467Y-96290216D01*
X149230369Y-96404500D01*
X149254129Y-96430888D01*
X149407265Y-96542148D01*
X149407270Y-96542151D01*
X149580192Y-96619142D01*
X149580197Y-96619144D01*
X149765354Y-96658500D01*
X149765355Y-96658500D01*
X149954644Y-96658500D01*
X149954646Y-96658500D01*
X150139803Y-96619144D01*
X150312730Y-96542151D01*
X150465871Y-96430888D01*
X150592533Y-96290216D01*
X150606514Y-96266000D01*
X162924540Y-96266000D01*
X162944326Y-96454256D01*
X162944327Y-96454259D01*
X163002818Y-96634277D01*
X163002821Y-96634284D01*
X163097467Y-96798216D01*
X163133379Y-96838100D01*
X163224129Y-96938888D01*
X163377265Y-97050148D01*
X163377270Y-97050151D01*
X163550192Y-97127142D01*
X163550197Y-97127144D01*
X163735354Y-97166500D01*
X163735355Y-97166500D01*
X163924644Y-97166500D01*
X163924646Y-97166500D01*
X164109803Y-97127144D01*
X164282730Y-97050151D01*
X164435871Y-96938888D01*
X164562533Y-96798216D01*
X164657179Y-96634284D01*
X164715674Y-96454256D01*
X164735460Y-96266000D01*
X164715674Y-96077744D01*
X164657179Y-95897716D01*
X164562533Y-95733784D01*
X164435871Y-95593112D01*
X164403708Y-95569744D01*
X164282734Y-95481851D01*
X164282729Y-95481848D01*
X164109807Y-95404857D01*
X164109802Y-95404855D01*
X163964000Y-95373865D01*
X163924646Y-95365500D01*
X163735354Y-95365500D01*
X163702897Y-95372398D01*
X163550197Y-95404855D01*
X163550192Y-95404857D01*
X163377270Y-95481848D01*
X163377265Y-95481851D01*
X163224129Y-95593111D01*
X163097466Y-95733785D01*
X163002821Y-95897715D01*
X163002818Y-95897722D01*
X162957820Y-96036214D01*
X162944326Y-96077744D01*
X162924540Y-96266000D01*
X150606514Y-96266000D01*
X150687179Y-96126284D01*
X150745674Y-95946256D01*
X150765460Y-95758000D01*
X150745674Y-95569744D01*
X150687179Y-95389716D01*
X150592533Y-95225784D01*
X150465871Y-95085112D01*
X150465870Y-95085111D01*
X150312734Y-94973851D01*
X150312729Y-94973848D01*
X150139807Y-94896857D01*
X150139802Y-94896855D01*
X149994001Y-94865865D01*
X149954646Y-94857500D01*
X149765354Y-94857500D01*
X149732897Y-94864398D01*
X149580197Y-94896855D01*
X149580192Y-94896857D01*
X149407271Y-94973848D01*
X149281171Y-95065464D01*
X149215364Y-95088943D01*
X149147310Y-95073117D01*
X149098616Y-95023011D01*
X149084741Y-94954533D01*
X149100897Y-94903149D01*
X149140848Y-94833953D01*
X149199343Y-94653925D01*
X149219129Y-94465669D01*
X149199343Y-94277413D01*
X149140848Y-94097385D01*
X149087304Y-94004644D01*
X149070831Y-93936743D01*
X149087305Y-93880643D01*
X149113760Y-93834821D01*
X149113761Y-93834820D01*
X149172256Y-93654792D01*
X149182165Y-93560507D01*
X149208748Y-93495896D01*
X149266045Y-93455911D01*
X149335864Y-93453251D01*
X149378371Y-93473155D01*
X149407264Y-93494147D01*
X149407270Y-93494151D01*
X149580192Y-93571142D01*
X149580197Y-93571144D01*
X149765354Y-93610500D01*
X149765355Y-93610500D01*
X149954644Y-93610500D01*
X149954646Y-93610500D01*
X150139803Y-93571144D01*
X150312730Y-93494151D01*
X150465871Y-93382888D01*
X150592533Y-93242216D01*
X150687179Y-93078284D01*
X150745674Y-92898256D01*
X150765460Y-92710000D01*
X150745674Y-92521744D01*
X150687179Y-92341716D01*
X150592533Y-92177784D01*
X150465871Y-92037112D01*
X150465870Y-92037111D01*
X150312734Y-91925851D01*
X150312729Y-91925848D01*
X150139807Y-91848857D01*
X150139802Y-91848855D01*
X149994000Y-91817865D01*
X149954646Y-91809500D01*
X149765354Y-91809500D01*
X149732897Y-91816398D01*
X149580197Y-91848855D01*
X149580192Y-91848857D01*
X149407270Y-91925848D01*
X149407265Y-91925851D01*
X149254129Y-92037111D01*
X149127466Y-92177785D01*
X149032821Y-92341715D01*
X149032818Y-92341722D01*
X148974327Y-92521740D01*
X148974326Y-92521744D01*
X148965534Y-92605393D01*
X148964417Y-92616025D01*
X148937832Y-92680640D01*
X148880534Y-92720624D01*
X148810715Y-92723284D01*
X148768211Y-92703381D01*
X148739312Y-92682385D01*
X148739311Y-92682384D01*
X148566389Y-92605393D01*
X148566384Y-92605391D01*
X148420583Y-92574401D01*
X148381228Y-92566036D01*
X148191936Y-92566036D01*
X148159479Y-92572934D01*
X148006779Y-92605391D01*
X148006774Y-92605393D01*
X147833852Y-92682384D01*
X147833847Y-92682387D01*
X147680711Y-92793647D01*
X147554048Y-92934321D01*
X147459403Y-93098251D01*
X147459400Y-93098258D01*
X147412626Y-93242216D01*
X147400908Y-93278280D01*
X147390634Y-93376035D01*
X147382913Y-93449500D01*
X147381122Y-93466536D01*
X145796000Y-93466536D01*
X145796000Y-91440000D01*
X151494540Y-91440000D01*
X151514326Y-91628256D01*
X151514327Y-91628259D01*
X151572818Y-91808277D01*
X151572821Y-91808284D01*
X151667467Y-91972216D01*
X151779275Y-92096391D01*
X151794129Y-92112888D01*
X151947265Y-92224148D01*
X151947270Y-92224151D01*
X152120192Y-92301142D01*
X152120197Y-92301144D01*
X152305354Y-92340500D01*
X152305355Y-92340500D01*
X152494644Y-92340500D01*
X152494646Y-92340500D01*
X152679803Y-92301144D01*
X152852730Y-92224151D01*
X152973469Y-92136429D01*
X153039274Y-92112950D01*
X153107328Y-92128775D01*
X153119238Y-92136430D01*
X153217265Y-92207651D01*
X153217270Y-92207654D01*
X153390192Y-92284645D01*
X153390197Y-92284647D01*
X153575354Y-92324003D01*
X153575355Y-92324003D01*
X153764644Y-92324003D01*
X153764646Y-92324003D01*
X153949803Y-92284647D01*
X154122730Y-92207654D01*
X154275871Y-92096391D01*
X154402533Y-91955719D01*
X154497179Y-91791787D01*
X154555674Y-91611759D01*
X154575460Y-91423503D01*
X154555674Y-91235247D01*
X154497179Y-91055219D01*
X154457070Y-90985748D01*
X154440598Y-90917851D01*
X154457069Y-90861755D01*
X154497179Y-90792284D01*
X154543020Y-90651199D01*
X154582457Y-90593525D01*
X154646816Y-90566326D01*
X154715662Y-90578240D01*
X154767138Y-90625485D01*
X154784900Y-90693059D01*
X154784272Y-90702477D01*
X154784033Y-90704756D01*
X154783601Y-90708863D01*
X154803387Y-90897119D01*
X154803388Y-90897122D01*
X154861879Y-91077140D01*
X154861882Y-91077147D01*
X154956528Y-91241079D01*
X155055401Y-91350888D01*
X155083190Y-91381751D01*
X155236326Y-91493011D01*
X155236331Y-91493014D01*
X155409253Y-91570005D01*
X155409258Y-91570007D01*
X155594415Y-91609363D01*
X155594416Y-91609363D01*
X155783705Y-91609363D01*
X155783707Y-91609363D01*
X155968864Y-91570007D01*
X156141791Y-91493014D01*
X156294932Y-91381751D01*
X156421594Y-91241079D01*
X156516240Y-91077147D01*
X156574735Y-90897119D01*
X156594521Y-90708863D01*
X156591277Y-90678000D01*
X159114540Y-90678000D01*
X159134326Y-90866256D01*
X159134327Y-90866259D01*
X159192818Y-91046277D01*
X159192821Y-91046284D01*
X159287467Y-91210216D01*
X159395859Y-91330597D01*
X159414129Y-91350888D01*
X159567265Y-91462148D01*
X159567270Y-91462151D01*
X159740192Y-91539142D01*
X159740197Y-91539144D01*
X159925354Y-91578500D01*
X159925355Y-91578500D01*
X160114644Y-91578500D01*
X160114646Y-91578500D01*
X160299803Y-91539144D01*
X160472730Y-91462151D01*
X160625871Y-91350888D01*
X160752533Y-91210216D01*
X160847179Y-91046284D01*
X160905674Y-90866256D01*
X160925460Y-90678000D01*
X160905674Y-90489744D01*
X160847179Y-90309716D01*
X160752533Y-90145784D01*
X160625871Y-90005112D01*
X160625870Y-90005111D01*
X160472734Y-89893851D01*
X160472729Y-89893848D01*
X160299807Y-89816857D01*
X160299802Y-89816855D01*
X160154000Y-89785865D01*
X160114646Y-89777500D01*
X159925354Y-89777500D01*
X159892897Y-89784398D01*
X159740197Y-89816855D01*
X159740192Y-89816857D01*
X159567270Y-89893848D01*
X159567265Y-89893851D01*
X159414129Y-90005111D01*
X159287466Y-90145785D01*
X159192821Y-90309715D01*
X159192818Y-90309722D01*
X159134327Y-90489740D01*
X159134326Y-90489744D01*
X159114540Y-90678000D01*
X156591277Y-90678000D01*
X156574735Y-90520607D01*
X156516240Y-90340579D01*
X156421594Y-90176647D01*
X156294932Y-90035975D01*
X156252453Y-90005112D01*
X156141795Y-89924714D01*
X156141790Y-89924711D01*
X155968868Y-89847720D01*
X155968863Y-89847718D01*
X155823062Y-89816728D01*
X155783707Y-89808363D01*
X155594415Y-89808363D01*
X155561958Y-89815261D01*
X155409258Y-89847718D01*
X155409253Y-89847720D01*
X155236331Y-89924711D01*
X155236326Y-89924714D01*
X155083190Y-90035974D01*
X154956527Y-90176648D01*
X154861882Y-90340578D01*
X154861880Y-90340582D01*
X154816040Y-90481663D01*
X154776602Y-90539338D01*
X154712243Y-90566536D01*
X154643397Y-90554621D01*
X154591921Y-90507377D01*
X154574160Y-90439802D01*
X154574787Y-90430400D01*
X154575460Y-90424000D01*
X154555674Y-90235744D01*
X154497179Y-90055716D01*
X154402533Y-89891784D01*
X154275871Y-89751112D01*
X154275870Y-89751111D01*
X154122734Y-89639851D01*
X154122729Y-89639848D01*
X153949807Y-89562857D01*
X153949802Y-89562855D01*
X153804000Y-89531865D01*
X153764646Y-89523500D01*
X153575354Y-89523500D01*
X153542897Y-89530398D01*
X153390197Y-89562855D01*
X153390192Y-89562857D01*
X153217270Y-89639848D01*
X153217265Y-89639851D01*
X153064129Y-89751111D01*
X152937466Y-89891785D01*
X152842821Y-90055715D01*
X152842818Y-90055722D01*
X152784327Y-90235740D01*
X152784326Y-90235744D01*
X152770556Y-90366762D01*
X152764540Y-90424002D01*
X152764540Y-90424005D01*
X152765284Y-90431087D01*
X152752712Y-90499816D01*
X152704978Y-90550838D01*
X152637236Y-90567953D01*
X152616182Y-90565333D01*
X152565785Y-90554621D01*
X152494646Y-90539500D01*
X152305354Y-90539500D01*
X152272897Y-90546398D01*
X152120197Y-90578855D01*
X152120192Y-90578857D01*
X151947270Y-90655848D01*
X151947265Y-90655851D01*
X151794129Y-90767111D01*
X151667466Y-90907785D01*
X151572821Y-91071715D01*
X151572818Y-91071722D01*
X151519686Y-91235247D01*
X151514326Y-91251744D01*
X151494540Y-91440000D01*
X145796000Y-91440000D01*
X145796000Y-90516500D01*
X147036213Y-90516500D01*
X147055999Y-90704756D01*
X147056000Y-90704759D01*
X147114491Y-90884777D01*
X147114494Y-90884784D01*
X147209140Y-91048716D01*
X147335802Y-91189388D01*
X147488938Y-91300648D01*
X147488943Y-91300651D01*
X147661865Y-91377642D01*
X147661870Y-91377644D01*
X147847027Y-91417000D01*
X147847028Y-91417000D01*
X148036317Y-91417000D01*
X148036319Y-91417000D01*
X148221476Y-91377644D01*
X148394403Y-91300651D01*
X148547544Y-91189388D01*
X148674206Y-91048716D01*
X148768852Y-90884784D01*
X148827347Y-90704756D01*
X148847133Y-90516500D01*
X148827347Y-90328244D01*
X148768852Y-90148216D01*
X148674206Y-89984284D01*
X148547544Y-89843612D01*
X148510719Y-89816857D01*
X148394407Y-89732351D01*
X148394402Y-89732348D01*
X148221480Y-89655357D01*
X148221475Y-89655355D01*
X148075673Y-89624365D01*
X148036319Y-89616000D01*
X147847027Y-89616000D01*
X147814570Y-89622898D01*
X147661870Y-89655355D01*
X147661865Y-89655357D01*
X147488943Y-89732348D01*
X147488938Y-89732351D01*
X147335802Y-89843611D01*
X147209139Y-89984285D01*
X147114494Y-90148215D01*
X147114491Y-90148222D01*
X147056000Y-90328240D01*
X147055999Y-90328244D01*
X147036213Y-90516500D01*
X145796000Y-90516500D01*
X145796000Y-88392000D01*
X146414540Y-88392000D01*
X146434326Y-88580256D01*
X146434327Y-88580259D01*
X146492818Y-88760277D01*
X146492821Y-88760284D01*
X146587467Y-88924216D01*
X146714129Y-89064888D01*
X146867265Y-89176148D01*
X146867270Y-89176151D01*
X147040192Y-89253142D01*
X147040197Y-89253144D01*
X147225354Y-89292500D01*
X147225355Y-89292500D01*
X147414644Y-89292500D01*
X147414646Y-89292500D01*
X147599803Y-89253144D01*
X147772730Y-89176151D01*
X147925871Y-89064888D01*
X148052533Y-88924216D01*
X148147179Y-88760284D01*
X148205674Y-88580256D01*
X148225460Y-88392000D01*
X148205674Y-88203744D01*
X148199524Y-88184816D01*
X148197530Y-88114975D01*
X148233612Y-88055143D01*
X148296313Y-88024316D01*
X148317456Y-88022500D01*
X148430644Y-88022500D01*
X148430646Y-88022500D01*
X148615803Y-87983144D01*
X148788730Y-87906151D01*
X148788734Y-87906148D01*
X148793563Y-87903998D01*
X148862813Y-87894712D01*
X148894437Y-87903998D01*
X148899265Y-87906148D01*
X148899270Y-87906151D01*
X149072197Y-87983144D01*
X149257354Y-88022500D01*
X149257355Y-88022500D01*
X149446644Y-88022500D01*
X149446646Y-88022500D01*
X149631803Y-87983144D01*
X149804730Y-87906151D01*
X149957871Y-87794888D01*
X150084533Y-87654216D01*
X150133613Y-87569205D01*
X150184179Y-87520991D01*
X150252786Y-87507767D01*
X150317651Y-87533735D01*
X150348385Y-87569203D01*
X150383486Y-87630000D01*
X150397467Y-87654216D01*
X150524129Y-87794888D01*
X150677265Y-87906148D01*
X150677270Y-87906151D01*
X150850192Y-87983142D01*
X150850197Y-87983144D01*
X151035354Y-88022500D01*
X151035355Y-88022500D01*
X151224644Y-88022500D01*
X151224646Y-88022500D01*
X151409803Y-87983144D01*
X151582730Y-87906151D01*
X151735871Y-87794888D01*
X151862533Y-87654216D01*
X151876514Y-87630000D01*
X164956540Y-87630000D01*
X164976326Y-87818256D01*
X164976327Y-87818259D01*
X165034818Y-87998277D01*
X165034821Y-87998284D01*
X165129467Y-88162216D01*
X165198893Y-88239321D01*
X165256129Y-88302888D01*
X165409265Y-88414148D01*
X165409270Y-88414151D01*
X165582192Y-88491142D01*
X165582197Y-88491144D01*
X165767354Y-88530500D01*
X165767355Y-88530500D01*
X165956644Y-88530500D01*
X165956646Y-88530500D01*
X166141803Y-88491144D01*
X166314730Y-88414151D01*
X166467871Y-88302888D01*
X166594533Y-88162216D01*
X166689179Y-87998284D01*
X166747674Y-87818256D01*
X166767460Y-87630000D01*
X166747674Y-87441744D01*
X166689179Y-87261716D01*
X166594533Y-87097784D01*
X166467871Y-86957112D01*
X166435708Y-86933744D01*
X166314734Y-86845851D01*
X166314729Y-86845848D01*
X166141807Y-86768857D01*
X166141802Y-86768855D01*
X165988318Y-86736232D01*
X165956646Y-86729500D01*
X165767354Y-86729500D01*
X165735682Y-86736232D01*
X165582197Y-86768855D01*
X165582192Y-86768857D01*
X165409270Y-86845848D01*
X165409265Y-86845851D01*
X165256129Y-86957111D01*
X165129465Y-87097785D01*
X165126343Y-87102083D01*
X165071011Y-87144746D01*
X165019537Y-87149163D01*
X165040746Y-87186714D01*
X165036814Y-87255530D01*
X165036829Y-87255535D01*
X165036811Y-87255589D01*
X165036761Y-87256470D01*
X165035505Y-87259606D01*
X164990491Y-87398148D01*
X164976326Y-87441744D01*
X164956540Y-87630000D01*
X151876514Y-87630000D01*
X151957179Y-87490284D01*
X152015674Y-87310256D01*
X152035460Y-87122000D01*
X152015674Y-86933744D01*
X151957179Y-86753716D01*
X151876514Y-86614000D01*
X163178540Y-86614000D01*
X163198326Y-86802256D01*
X163198327Y-86802259D01*
X163256818Y-86982277D01*
X163256821Y-86982284D01*
X163351467Y-87146216D01*
X163470675Y-87278610D01*
X163478129Y-87286888D01*
X163631265Y-87398148D01*
X163631270Y-87398151D01*
X163804192Y-87475142D01*
X163804197Y-87475144D01*
X163989354Y-87514500D01*
X163989355Y-87514500D01*
X164178644Y-87514500D01*
X164178646Y-87514500D01*
X164363803Y-87475144D01*
X164536730Y-87398151D01*
X164689871Y-87286888D01*
X164816533Y-87146216D01*
X164816538Y-87146206D01*
X164819647Y-87141928D01*
X164874974Y-87099259D01*
X164926459Y-87094833D01*
X164905250Y-87057271D01*
X164909188Y-86988470D01*
X164909171Y-86988465D01*
X164909192Y-86988398D01*
X164909243Y-86987516D01*
X164910497Y-86984383D01*
X164911181Y-86982277D01*
X164969674Y-86802256D01*
X164989460Y-86614000D01*
X164969674Y-86425744D01*
X164911179Y-86245716D01*
X164816533Y-86081784D01*
X164689871Y-85941112D01*
X164689870Y-85941111D01*
X164536734Y-85829851D01*
X164536729Y-85829848D01*
X164363807Y-85752857D01*
X164363802Y-85752855D01*
X164218000Y-85721865D01*
X164178646Y-85713500D01*
X163989354Y-85713500D01*
X163956897Y-85720398D01*
X163804197Y-85752855D01*
X163804192Y-85752857D01*
X163631270Y-85829848D01*
X163631265Y-85829851D01*
X163478129Y-85941111D01*
X163351466Y-86081785D01*
X163256821Y-86245715D01*
X163256818Y-86245722D01*
X163211820Y-86384214D01*
X163198326Y-86425744D01*
X163178540Y-86614000D01*
X151876514Y-86614000D01*
X151862533Y-86589784D01*
X151844693Y-86569971D01*
X151814464Y-86506981D01*
X151823089Y-86437646D01*
X151844694Y-86404028D01*
X151862533Y-86384216D01*
X151957179Y-86220284D01*
X152015674Y-86040256D01*
X152035460Y-85852000D01*
X152015674Y-85663744D01*
X151957179Y-85483716D01*
X151862533Y-85319784D01*
X151735871Y-85179112D01*
X151735870Y-85179111D01*
X151582734Y-85067851D01*
X151582729Y-85067848D01*
X151409807Y-84990857D01*
X151409802Y-84990855D01*
X151264000Y-84959865D01*
X151224646Y-84951500D01*
X151035354Y-84951500D01*
X151002897Y-84958398D01*
X150850197Y-84990855D01*
X150850192Y-84990857D01*
X150677270Y-85067848D01*
X150677265Y-85067851D01*
X150524129Y-85179111D01*
X150397466Y-85319785D01*
X150302821Y-85483715D01*
X150302818Y-85483722D01*
X150258490Y-85620151D01*
X150244326Y-85663744D01*
X150224540Y-85852000D01*
X150244326Y-86040256D01*
X150244327Y-86040259D01*
X150302818Y-86220277D01*
X150302821Y-86220284D01*
X150397467Y-86384216D01*
X150407806Y-86395699D01*
X150415307Y-86404030D01*
X150445535Y-86467022D01*
X150436909Y-86536357D01*
X150415307Y-86569970D01*
X150397465Y-86589785D01*
X150348387Y-86674793D01*
X150297820Y-86723008D01*
X150229213Y-86736232D01*
X150164349Y-86710264D01*
X150133613Y-86674793D01*
X150098514Y-86614000D01*
X150084533Y-86589784D01*
X149957871Y-86449112D01*
X149957870Y-86449111D01*
X149804734Y-86337851D01*
X149804729Y-86337848D01*
X149631807Y-86260857D01*
X149631802Y-86260855D01*
X149486001Y-86229865D01*
X149446646Y-86221500D01*
X149257354Y-86221500D01*
X149224897Y-86228398D01*
X149072197Y-86260855D01*
X149072192Y-86260857D01*
X148894435Y-86340001D01*
X148825185Y-86349286D01*
X148793563Y-86340001D01*
X148788727Y-86337848D01*
X148730735Y-86312027D01*
X148615806Y-86260857D01*
X148615802Y-86260855D01*
X148470001Y-86229865D01*
X148430646Y-86221500D01*
X148241354Y-86221500D01*
X148208897Y-86228398D01*
X148056197Y-86260855D01*
X148056192Y-86260857D01*
X147883270Y-86337848D01*
X147883265Y-86337851D01*
X147730129Y-86449111D01*
X147603466Y-86589785D01*
X147508821Y-86753715D01*
X147508818Y-86753722D01*
X147478884Y-86845851D01*
X147450326Y-86933744D01*
X147430540Y-87122000D01*
X147432931Y-87144746D01*
X147450326Y-87310258D01*
X147456476Y-87329184D01*
X147458470Y-87399025D01*
X147422388Y-87458857D01*
X147359687Y-87489684D01*
X147338544Y-87491500D01*
X147225354Y-87491500D01*
X147192897Y-87498398D01*
X147040197Y-87530855D01*
X147040192Y-87530857D01*
X146867270Y-87607848D01*
X146867265Y-87607851D01*
X146714129Y-87719111D01*
X146587466Y-87859785D01*
X146492821Y-88023715D01*
X146492818Y-88023722D01*
X146447820Y-88162214D01*
X146434326Y-88203744D01*
X146414540Y-88392000D01*
X145796000Y-88392000D01*
X145796000Y-85789158D01*
X145815685Y-85722119D01*
X145868489Y-85676364D01*
X145869564Y-85675879D01*
X145994730Y-85620151D01*
X146147871Y-85508888D01*
X146274533Y-85368216D01*
X146369179Y-85204284D01*
X146427674Y-85024256D01*
X146447460Y-84836000D01*
X146427674Y-84647744D01*
X146369179Y-84467716D01*
X146274533Y-84303784D01*
X146147871Y-84163112D01*
X146147870Y-84163111D01*
X145994734Y-84051851D01*
X145994732Y-84051850D01*
X145869563Y-83996120D01*
X145816327Y-83950869D01*
X145796006Y-83884020D01*
X145796000Y-83882841D01*
X145796000Y-83299048D01*
X145796299Y-83292967D01*
X145802741Y-83227555D01*
X145814018Y-83113056D01*
X145818757Y-83089232D01*
X145868577Y-82924994D01*
X145877875Y-82902549D01*
X145958775Y-82751195D01*
X145972272Y-82730995D01*
X146081149Y-82598328D01*
X146098328Y-82581149D01*
X146230995Y-82472272D01*
X146251195Y-82458775D01*
X146402549Y-82377875D01*
X146424994Y-82368577D01*
X146589232Y-82318757D01*
X146613056Y-82314018D01*
X146727501Y-82302746D01*
X146792969Y-82296299D01*
X146799049Y-82296000D01*
X149348518Y-82296000D01*
X149355457Y-82296389D01*
G37*
%TD.AperFunction*%
%TD*%
%TA.AperFunction,Conductor*%
%TO.N,GND*%
G36*
X154613264Y-113907709D02*
G01*
X154668988Y-113919553D01*
X154693642Y-113927564D01*
X154697939Y-113929477D01*
X154745677Y-113950731D01*
X154768117Y-113963686D01*
X154814227Y-113997186D01*
X154833483Y-114014525D01*
X154871599Y-114056857D01*
X154886836Y-114077829D01*
X154915320Y-114127165D01*
X154925864Y-114150847D01*
X154943468Y-114205027D01*
X154948858Y-114230382D01*
X154953144Y-114271163D01*
X154953145Y-114271164D01*
X154955496Y-114286725D01*
X154953111Y-114335616D01*
X154951949Y-114340213D01*
X154951945Y-114340237D01*
X154948857Y-114369617D01*
X154943468Y-114394971D01*
X154925864Y-114449151D01*
X154915320Y-114472833D01*
X154886836Y-114522169D01*
X154871599Y-114543141D01*
X154833488Y-114585468D01*
X154814221Y-114602816D01*
X154768124Y-114636306D01*
X154745677Y-114649265D01*
X154693639Y-114672434D01*
X154668986Y-114680445D01*
X154631790Y-114688352D01*
X154613263Y-114692290D01*
X154587482Y-114695000D01*
X154530516Y-114695000D01*
X154504736Y-114692290D01*
X154482984Y-114687666D01*
X154449010Y-114680445D01*
X154424356Y-114672434D01*
X154372325Y-114649268D01*
X154349878Y-114636308D01*
X154303777Y-114602815D01*
X154284514Y-114585472D01*
X154246397Y-114543139D01*
X154231162Y-114522169D01*
X154202678Y-114472833D01*
X154192136Y-114449155D01*
X154174530Y-114394971D01*
X154169141Y-114369617D01*
X154166051Y-114340221D01*
X154163186Y-114312956D01*
X154163186Y-114287037D01*
X154163446Y-114284563D01*
X154169141Y-114230374D01*
X154174528Y-114205032D01*
X154192135Y-114150841D01*
X154202672Y-114127176D01*
X154231165Y-114077824D01*
X154246392Y-114056866D01*
X154284519Y-114014521D01*
X154303771Y-113997185D01*
X154349877Y-113963687D01*
X154372312Y-113950736D01*
X154424357Y-113927563D01*
X154448999Y-113919556D01*
X154504743Y-113907708D01*
X154530514Y-113905000D01*
X154587484Y-113905000D01*
X154613264Y-113907709D01*
G37*
%TD.AperFunction*%
%TA.AperFunction,Conductor*%
G36*
X160074264Y-90285709D02*
G01*
X160129988Y-90297553D01*
X160154642Y-90305564D01*
X160163467Y-90309493D01*
X160206677Y-90328731D01*
X160229117Y-90341686D01*
X160275227Y-90375186D01*
X160294483Y-90392525D01*
X160331756Y-90433921D01*
X160332599Y-90434857D01*
X160347836Y-90455829D01*
X160376320Y-90505165D01*
X160386864Y-90528847D01*
X160404468Y-90583027D01*
X160409858Y-90608382D01*
X160415813Y-90665037D01*
X160415813Y-90690960D01*
X160409858Y-90747615D01*
X160404468Y-90772971D01*
X160386864Y-90827151D01*
X160376320Y-90850833D01*
X160347836Y-90900169D01*
X160332599Y-90921141D01*
X160294488Y-90963468D01*
X160275221Y-90980816D01*
X160229124Y-91014306D01*
X160206677Y-91027265D01*
X160154639Y-91050434D01*
X160129986Y-91058445D01*
X160092790Y-91066352D01*
X160074263Y-91070290D01*
X160048482Y-91073000D01*
X159991516Y-91073000D01*
X159965736Y-91070290D01*
X159943984Y-91065666D01*
X159910010Y-91058445D01*
X159885356Y-91050434D01*
X159833325Y-91027268D01*
X159810878Y-91014308D01*
X159764777Y-90980815D01*
X159745514Y-90963472D01*
X159707397Y-90921139D01*
X159692162Y-90900169D01*
X159668049Y-90858403D01*
X159663676Y-90850829D01*
X159653136Y-90827155D01*
X159635530Y-90772971D01*
X159630141Y-90747617D01*
X159628536Y-90732349D01*
X159624186Y-90690956D01*
X159624186Y-90665037D01*
X159624186Y-90665035D01*
X159630141Y-90608374D01*
X159635528Y-90583032D01*
X159653135Y-90528841D01*
X159663672Y-90505176D01*
X159692165Y-90455824D01*
X159707392Y-90434866D01*
X159745519Y-90392521D01*
X159764771Y-90375185D01*
X159810877Y-90341687D01*
X159833312Y-90328736D01*
X159885357Y-90305563D01*
X159909999Y-90297556D01*
X159965743Y-90285708D01*
X159991514Y-90283000D01*
X160048484Y-90283000D01*
X160074264Y-90285709D01*
G37*
%TD.AperFunction*%
%TA.AperFunction,Conductor*%
G36*
X147995936Y-90124209D02*
G01*
X148027029Y-90130817D01*
X148051660Y-90136052D01*
X148076311Y-90144062D01*
X148128357Y-90167234D01*
X148150800Y-90180192D01*
X148196888Y-90213677D01*
X148216152Y-90231022D01*
X148254273Y-90273360D01*
X148269510Y-90294331D01*
X148275996Y-90305564D01*
X148297995Y-90343668D01*
X148308537Y-90367347D01*
X148326141Y-90421527D01*
X148331531Y-90446882D01*
X148337486Y-90503537D01*
X148337486Y-90529458D01*
X148336431Y-90539500D01*
X148331531Y-90586115D01*
X148326141Y-90611471D01*
X148308537Y-90665651D01*
X148297993Y-90689333D01*
X148269509Y-90738669D01*
X148254272Y-90759641D01*
X148216161Y-90801968D01*
X148196894Y-90819316D01*
X148150797Y-90852806D01*
X148128350Y-90865765D01*
X148076312Y-90888934D01*
X148051659Y-90896945D01*
X148014463Y-90904852D01*
X147995936Y-90908790D01*
X147970155Y-90911500D01*
X147913189Y-90911500D01*
X147887409Y-90908790D01*
X147865657Y-90904166D01*
X147831683Y-90896945D01*
X147807029Y-90888934D01*
X147754998Y-90865768D01*
X147732551Y-90852808D01*
X147686450Y-90819315D01*
X147667187Y-90801972D01*
X147629070Y-90759639D01*
X147613835Y-90738669D01*
X147591797Y-90700498D01*
X147585349Y-90689329D01*
X147574809Y-90665655D01*
X147557203Y-90611471D01*
X147551814Y-90586117D01*
X147551489Y-90583027D01*
X147545859Y-90529456D01*
X147545859Y-90503537D01*
X147550873Y-90455829D01*
X147551814Y-90446874D01*
X147557201Y-90421532D01*
X147574808Y-90367341D01*
X147585345Y-90343676D01*
X147613838Y-90294324D01*
X147629065Y-90273366D01*
X147667192Y-90231021D01*
X147686444Y-90213685D01*
X147732550Y-90180187D01*
X147754985Y-90167236D01*
X147807030Y-90144063D01*
X147831672Y-90136056D01*
X147887416Y-90124208D01*
X147913187Y-90121500D01*
X147970157Y-90121500D01*
X147995936Y-90124209D01*
G37*
%TD.AperFunction*%
%TA.AperFunction,Conductor*%
G36*
X165916263Y-87237709D02*
G01*
X165947356Y-87244317D01*
X165971987Y-87249552D01*
X165996638Y-87257562D01*
X166048684Y-87280734D01*
X166071127Y-87293692D01*
X166117216Y-87327178D01*
X166136479Y-87344522D01*
X166174600Y-87386860D01*
X166189837Y-87407831D01*
X166198167Y-87422259D01*
X166218322Y-87457168D01*
X166228864Y-87480847D01*
X166246468Y-87535027D01*
X166251858Y-87560380D01*
X166257813Y-87617040D01*
X166257813Y-87642960D01*
X166251858Y-87699615D01*
X166246468Y-87724971D01*
X166228864Y-87779151D01*
X166218320Y-87802833D01*
X166189836Y-87852169D01*
X166174599Y-87873141D01*
X166136488Y-87915468D01*
X166117221Y-87932816D01*
X166071124Y-87966306D01*
X166048677Y-87979265D01*
X165996639Y-88002434D01*
X165971986Y-88010445D01*
X165935750Y-88018148D01*
X165916263Y-88022290D01*
X165890482Y-88025000D01*
X165833516Y-88025000D01*
X165807736Y-88022290D01*
X165785984Y-88017666D01*
X165752010Y-88010445D01*
X165727356Y-88002434D01*
X165675325Y-87979268D01*
X165652878Y-87966308D01*
X165606777Y-87932815D01*
X165587514Y-87915472D01*
X165549397Y-87873139D01*
X165534162Y-87852169D01*
X165505678Y-87802833D01*
X165495136Y-87779155D01*
X165477530Y-87724971D01*
X165472141Y-87699617D01*
X165469429Y-87673816D01*
X165466186Y-87642956D01*
X165466186Y-87617036D01*
X165466186Y-87617035D01*
X165472141Y-87560372D01*
X165477529Y-87535027D01*
X165504132Y-87453150D01*
X165529910Y-87408502D01*
X165587521Y-87344517D01*
X165606770Y-87327186D01*
X165652874Y-87293690D01*
X165675312Y-87280736D01*
X165727357Y-87257563D01*
X165751999Y-87249556D01*
X165807743Y-87237708D01*
X165833514Y-87235000D01*
X165890484Y-87235000D01*
X165916263Y-87237709D01*
G37*
%TD.AperFunction*%
%TA.AperFunction,Conductor*%
G36*
X156818115Y-65360258D02*
G01*
X157159280Y-65390789D01*
X157902510Y-65457299D01*
X158982793Y-65592987D01*
X160057546Y-65767146D01*
X161125397Y-65979555D01*
X162184987Y-66229943D01*
X163234964Y-66517990D01*
X164273992Y-66843330D01*
X165300745Y-67205548D01*
X166313915Y-67604182D01*
X167312212Y-68038725D01*
X168294363Y-68508622D01*
X169259116Y-69013276D01*
X170205243Y-69552042D01*
X171131537Y-70124234D01*
X172036817Y-70729123D01*
X172919931Y-71365938D01*
X173779753Y-72033868D01*
X174615187Y-72732062D01*
X175425168Y-73459629D01*
X176208665Y-74215643D01*
X176964679Y-74999140D01*
X177692246Y-75809121D01*
X178390440Y-76644555D01*
X179058370Y-77504377D01*
X179695185Y-78387491D01*
X180300074Y-79292771D01*
X180872266Y-80219065D01*
X181411032Y-81165192D01*
X181915686Y-82129945D01*
X182385583Y-83112096D01*
X182820126Y-84110393D01*
X183218760Y-85123563D01*
X183580978Y-86150316D01*
X183906318Y-87189344D01*
X184194365Y-88239321D01*
X184444753Y-89298911D01*
X184657162Y-90366762D01*
X184831321Y-91441515D01*
X184967009Y-92521798D01*
X185064053Y-93606237D01*
X185122329Y-94693448D01*
X185141762Y-95782045D01*
X185123473Y-96838100D01*
X185068629Y-97892889D01*
X184977295Y-98945146D01*
X184849581Y-99993610D01*
X184685640Y-101037024D01*
X184485670Y-102074135D01*
X184249908Y-103103700D01*
X183978640Y-104124484D01*
X183672189Y-105135264D01*
X183330923Y-106134826D01*
X182955252Y-107121973D01*
X182545625Y-108095520D01*
X182102535Y-109054300D01*
X181626513Y-109997163D01*
X181118129Y-110922978D01*
X180577993Y-111830635D01*
X180006754Y-112719045D01*
X179405095Y-113587143D01*
X178773739Y-114433889D01*
X178113443Y-115258265D01*
X177424999Y-116059284D01*
X176709232Y-116835986D01*
X175967000Y-117587438D01*
X175199195Y-118312739D01*
X174407814Y-119010067D01*
X174284114Y-119115322D01*
X174227911Y-119163145D01*
X173893402Y-119492205D01*
X173583484Y-119844520D01*
X173583484Y-119844521D01*
X173299774Y-120218247D01*
X173043732Y-120611464D01*
X172816705Y-121022103D01*
X172619861Y-121448051D01*
X172454234Y-121887071D01*
X172320682Y-122336892D01*
X172320682Y-122336893D01*
X172303404Y-122415463D01*
X172219902Y-122795166D01*
X172152415Y-123259513D01*
X172152414Y-123259523D01*
X172152414Y-123259522D01*
X172141089Y-123416142D01*
X172118574Y-123727516D01*
X172118573Y-123727523D01*
X172118574Y-123727523D01*
X172118573Y-123962129D01*
X172118566Y-124132246D01*
X172118573Y-124132491D01*
X172118573Y-127685500D01*
X172098888Y-127752539D01*
X172046084Y-127798294D01*
X171994573Y-127809500D01*
X137406119Y-127809500D01*
X137339080Y-127789815D01*
X137293325Y-127737011D01*
X137282119Y-127685500D01*
X137282119Y-126314613D01*
X142492500Y-126314613D01*
X142498913Y-126385192D01*
X142549522Y-126547606D01*
X142637530Y-126693188D01*
X142757811Y-126813469D01*
X142757813Y-126813470D01*
X142757815Y-126813472D01*
X142903394Y-126901478D01*
X143065804Y-126952086D01*
X143136384Y-126958500D01*
X143136387Y-126958500D01*
X143649613Y-126958500D01*
X143649616Y-126958500D01*
X143720196Y-126952086D01*
X143882606Y-126901478D01*
X144024671Y-126815596D01*
X144092222Y-126797761D01*
X144158696Y-126819278D01*
X144161669Y-126821372D01*
X144190266Y-126842148D01*
X144190270Y-126842151D01*
X144363192Y-126919142D01*
X144363197Y-126919144D01*
X144548354Y-126958500D01*
X144548355Y-126958500D01*
X144737644Y-126958500D01*
X144737646Y-126958500D01*
X144922803Y-126919144D01*
X145095730Y-126842151D01*
X145248871Y-126730888D01*
X145375533Y-126590216D01*
X145470179Y-126426284D01*
X145528674Y-126246256D01*
X145543500Y-126105192D01*
X145543500Y-126058000D01*
X148121001Y-126058000D01*
X148121001Y-126314582D01*
X148127408Y-126385102D01*
X148127409Y-126385107D01*
X148177981Y-126547396D01*
X148265927Y-126692877D01*
X148386122Y-126813072D01*
X148531604Y-126901019D01*
X148531603Y-126901019D01*
X148693894Y-126951590D01*
X148693893Y-126951590D01*
X148764408Y-126957998D01*
X148764426Y-126957999D01*
X148770999Y-126957998D01*
X148771000Y-126957998D01*
X148771000Y-126058000D01*
X148121001Y-126058000D01*
X145543500Y-126058000D01*
X145543500Y-125558000D01*
X148121000Y-125558000D01*
X148771000Y-125558000D01*
X148771000Y-124658000D01*
X148770999Y-124657999D01*
X148764436Y-124658000D01*
X148764417Y-124658001D01*
X148693897Y-124664408D01*
X148693892Y-124664409D01*
X148531603Y-124714981D01*
X148386122Y-124802927D01*
X148265927Y-124923122D01*
X148177980Y-125068604D01*
X148127409Y-125230893D01*
X148121000Y-125301427D01*
X148121000Y-125558000D01*
X145543500Y-125558000D01*
X145543500Y-125510808D01*
X145528674Y-125369744D01*
X145470179Y-125189716D01*
X145375533Y-125025784D01*
X145248871Y-124885112D01*
X145248870Y-124885111D01*
X145095734Y-124773851D01*
X145095729Y-124773848D01*
X144922807Y-124696857D01*
X144922802Y-124696855D01*
X144777001Y-124665865D01*
X144737646Y-124657500D01*
X144548354Y-124657500D01*
X144522897Y-124662911D01*
X144363197Y-124696855D01*
X144363192Y-124696857D01*
X144190271Y-124773848D01*
X144161701Y-124794605D01*
X144095894Y-124818083D01*
X144027840Y-124802256D01*
X144024668Y-124800402D01*
X143882606Y-124714522D01*
X143825916Y-124696857D01*
X143720196Y-124663914D01*
X143720194Y-124663913D01*
X143720192Y-124663913D01*
X143670778Y-124659423D01*
X143649616Y-124657500D01*
X143136384Y-124657500D01*
X143117145Y-124659248D01*
X143065807Y-124663913D01*
X142903393Y-124714522D01*
X142757811Y-124802530D01*
X142637530Y-124922811D01*
X142549522Y-125068393D01*
X142498913Y-125230807D01*
X142492500Y-125301386D01*
X142492500Y-126314613D01*
X137282119Y-126314613D01*
X137282119Y-123977133D01*
X137282119Y-123977042D01*
X137282112Y-123976938D01*
X137282101Y-123976575D01*
X137282154Y-123829975D01*
X137248236Y-123359631D01*
X137180358Y-122892977D01*
X137078875Y-122432461D01*
X136944320Y-121980501D01*
X136797462Y-121592479D01*
X136792143Y-121522814D01*
X136825332Y-121461330D01*
X136886494Y-121427550D01*
X136956208Y-121432199D01*
X136963871Y-121435309D01*
X137134192Y-121511142D01*
X137134197Y-121511144D01*
X137319354Y-121550500D01*
X137319355Y-121550500D01*
X137508644Y-121550500D01*
X137508646Y-121550500D01*
X137693803Y-121511144D01*
X137866730Y-121434151D01*
X138019871Y-121322888D01*
X138146533Y-121182216D01*
X138241179Y-121018284D01*
X138285337Y-120882379D01*
X140096222Y-120882379D01*
X140116008Y-121070635D01*
X140116009Y-121070638D01*
X140174500Y-121250656D01*
X140174503Y-121250663D01*
X140269149Y-121414595D01*
X140366590Y-121522814D01*
X140395811Y-121555267D01*
X140548947Y-121666527D01*
X140548952Y-121666530D01*
X140721874Y-121743521D01*
X140721879Y-121743523D01*
X140907036Y-121782879D01*
X140907037Y-121782879D01*
X141096326Y-121782879D01*
X141096328Y-121782879D01*
X141281485Y-121743523D01*
X141454412Y-121666530D01*
X141607553Y-121555267D01*
X141734215Y-121414595D01*
X141828861Y-121250663D01*
X141887356Y-121070635D01*
X141907142Y-120882379D01*
X141887356Y-120694123D01*
X141828861Y-120514095D01*
X141734215Y-120350163D01*
X141607553Y-120209491D01*
X141607552Y-120209490D01*
X141514660Y-120142000D01*
X146922540Y-120142000D01*
X146942326Y-120330256D01*
X146942327Y-120330259D01*
X147000818Y-120510277D01*
X147000820Y-120510282D01*
X147000821Y-120510284D01*
X147095467Y-120674216D01*
X147222128Y-120814888D01*
X147222129Y-120814888D01*
X147375265Y-120926148D01*
X147375270Y-120926151D01*
X147468027Y-120967450D01*
X147521264Y-121012700D01*
X147541585Y-121079550D01*
X147524979Y-121142727D01*
X147508821Y-121170713D01*
X147482844Y-121250663D01*
X147450326Y-121350744D01*
X147430540Y-121539000D01*
X147450326Y-121727256D01*
X147450327Y-121727259D01*
X147508820Y-121907283D01*
X147553690Y-121985001D01*
X147570162Y-122052901D01*
X147553690Y-122108999D01*
X147508820Y-122186716D01*
X147460025Y-122336893D01*
X147450326Y-122366744D01*
X147430540Y-122555000D01*
X147450326Y-122743256D01*
X147450327Y-122743259D01*
X147508818Y-122923277D01*
X147508821Y-122923284D01*
X147603467Y-123087216D01*
X147730129Y-123227887D01*
X147730129Y-123227888D01*
X147883265Y-123339148D01*
X147883270Y-123339151D01*
X148056192Y-123416142D01*
X148056197Y-123416144D01*
X148241354Y-123455500D01*
X148241355Y-123455500D01*
X148430644Y-123455500D01*
X148430646Y-123455500D01*
X148615803Y-123416144D01*
X148788730Y-123339151D01*
X148941871Y-123227888D01*
X149068533Y-123087216D01*
X149163179Y-122923284D01*
X149221674Y-122743256D01*
X149241460Y-122555000D01*
X149221674Y-122366744D01*
X149163179Y-122186716D01*
X149118308Y-122108997D01*
X149101836Y-122041100D01*
X149118309Y-121985001D01*
X149163179Y-121907284D01*
X149221674Y-121727256D01*
X149241460Y-121539000D01*
X149221674Y-121350744D01*
X149163179Y-121170716D01*
X149068533Y-121006784D01*
X148941871Y-120866112D01*
X148928786Y-120856605D01*
X148788734Y-120754851D01*
X148788729Y-120754848D01*
X148695971Y-120713549D01*
X148642734Y-120668298D01*
X148622413Y-120601449D01*
X148639019Y-120538272D01*
X148655179Y-120510284D01*
X148713674Y-120330256D01*
X148733460Y-120142000D01*
X148713674Y-119953744D01*
X148655179Y-119773716D01*
X148560533Y-119609784D01*
X148433871Y-119469112D01*
X148433870Y-119469111D01*
X148280734Y-119357851D01*
X148280729Y-119357848D01*
X148107807Y-119280857D01*
X148107802Y-119280855D01*
X147947698Y-119246825D01*
X147922646Y-119241500D01*
X147733354Y-119241500D01*
X147708302Y-119246825D01*
X147548197Y-119280855D01*
X147548192Y-119280857D01*
X147375270Y-119357848D01*
X147375265Y-119357851D01*
X147222129Y-119469111D01*
X147095466Y-119609785D01*
X147000821Y-119773715D01*
X147000818Y-119773722D01*
X146950114Y-119929774D01*
X146942326Y-119953744D01*
X146922540Y-120142000D01*
X141514660Y-120142000D01*
X141454416Y-120098230D01*
X141454411Y-120098227D01*
X141281489Y-120021236D01*
X141281484Y-120021234D01*
X141129331Y-119988894D01*
X141096328Y-119981879D01*
X140907036Y-119981879D01*
X140874579Y-119988777D01*
X140721879Y-120021234D01*
X140721874Y-120021236D01*
X140548952Y-120098227D01*
X140548947Y-120098230D01*
X140395811Y-120209490D01*
X140269148Y-120350164D01*
X140174503Y-120514094D01*
X140174500Y-120514101D01*
X140116009Y-120694119D01*
X140116008Y-120694123D01*
X140096222Y-120882379D01*
X138285337Y-120882379D01*
X138299674Y-120838256D01*
X138319460Y-120650000D01*
X138299674Y-120461744D01*
X138241179Y-120281716D01*
X138146533Y-120117784D01*
X138019871Y-119977112D01*
X137987708Y-119953744D01*
X137866734Y-119865851D01*
X137866729Y-119865848D01*
X137693807Y-119788857D01*
X137693802Y-119788855D01*
X137548001Y-119757865D01*
X137508646Y-119749500D01*
X137319354Y-119749500D01*
X137286897Y-119756398D01*
X137134197Y-119788855D01*
X137134192Y-119788857D01*
X136961270Y-119865848D01*
X136961265Y-119865851D01*
X136808129Y-119977111D01*
X136681466Y-120117785D01*
X136586821Y-120281715D01*
X136586818Y-120281722D01*
X136528327Y-120461740D01*
X136528326Y-120461744D01*
X136523097Y-120511500D01*
X136518551Y-120554747D01*
X136491966Y-120619361D01*
X136434668Y-120659345D01*
X136364849Y-120662005D01*
X136304676Y-120626495D01*
X136291459Y-120609662D01*
X136092019Y-120304712D01*
X135806017Y-119929777D01*
X135806014Y-119929773D01*
X135806015Y-119929774D01*
X135493625Y-119576532D01*
X135156475Y-119246824D01*
X135156474Y-119246823D01*
X135106689Y-119204727D01*
X135104144Y-119202453D01*
X135103066Y-119201434D01*
X135078427Y-119180646D01*
X134975295Y-119093630D01*
X134975001Y-119093382D01*
X134974203Y-119092704D01*
X134175181Y-118394389D01*
X133400863Y-117668628D01*
X132652264Y-116916367D01*
X131930290Y-116138516D01*
X131840047Y-116034236D01*
X131235816Y-115336018D01*
X131014878Y-115062000D01*
X135492540Y-115062000D01*
X135512326Y-115250256D01*
X135512327Y-115250259D01*
X135570818Y-115430277D01*
X135570821Y-115430284D01*
X135665467Y-115594216D01*
X135752719Y-115691119D01*
X135792129Y-115734888D01*
X135945265Y-115846148D01*
X135945270Y-115846151D01*
X136118192Y-115923142D01*
X136118197Y-115923144D01*
X136303354Y-115962500D01*
X136303355Y-115962500D01*
X136392950Y-115962500D01*
X136459989Y-115982185D01*
X136505744Y-116034989D01*
X136510881Y-116048182D01*
X136564841Y-116214254D01*
X136564844Y-116214261D01*
X136659490Y-116378193D01*
X136726337Y-116452434D01*
X136786152Y-116518865D01*
X136939288Y-116630125D01*
X136939293Y-116630128D01*
X137112215Y-116707119D01*
X137112220Y-116707121D01*
X137297377Y-116746477D01*
X137297378Y-116746477D01*
X137486667Y-116746477D01*
X137486669Y-116746477D01*
X137671826Y-116707121D01*
X137844753Y-116630128D01*
X137997894Y-116518865D01*
X138124556Y-116378193D01*
X138219202Y-116214261D01*
X138277697Y-116034233D01*
X138297483Y-115845977D01*
X138277697Y-115657721D01*
X138219202Y-115477693D01*
X138124556Y-115313761D01*
X137997894Y-115173089D01*
X137997893Y-115173088D01*
X137844757Y-115061828D01*
X137844752Y-115061825D01*
X137671830Y-114984834D01*
X137671825Y-114984832D01*
X137526024Y-114953842D01*
X137486669Y-114945477D01*
X137397072Y-114945477D01*
X137330033Y-114925792D01*
X137284278Y-114872988D01*
X137279145Y-114859805D01*
X137269453Y-114829977D01*
X138518563Y-114829977D01*
X138538349Y-115018233D01*
X138538350Y-115018236D01*
X138596841Y-115198254D01*
X138596844Y-115198261D01*
X138691490Y-115362193D01*
X138818152Y-115502865D01*
X138971288Y-115614125D01*
X138971293Y-115614128D01*
X139144215Y-115691119D01*
X139144220Y-115691121D01*
X139329377Y-115730477D01*
X139329378Y-115730477D01*
X139518667Y-115730477D01*
X139518669Y-115730477D01*
X139703826Y-115691121D01*
X139876753Y-115614128D01*
X140029894Y-115502865D01*
X140156556Y-115362193D01*
X140251202Y-115198261D01*
X140309697Y-115018233D01*
X140329483Y-114829977D01*
X140309697Y-114641721D01*
X140251202Y-114461693D01*
X140156556Y-114297761D01*
X140029894Y-114157089D01*
X140004244Y-114138453D01*
X139876757Y-114045828D01*
X139876752Y-114045825D01*
X139703830Y-113968834D01*
X139703825Y-113968832D01*
X139558023Y-113937842D01*
X139518669Y-113929477D01*
X139329377Y-113929477D01*
X139296920Y-113936375D01*
X139144220Y-113968832D01*
X139144215Y-113968834D01*
X138971293Y-114045825D01*
X138971288Y-114045828D01*
X138818152Y-114157088D01*
X138691489Y-114297762D01*
X138596844Y-114461692D01*
X138596841Y-114461699D01*
X138538350Y-114641717D01*
X138538349Y-114641721D01*
X138518563Y-114829977D01*
X137269453Y-114829977D01*
X137244604Y-114753499D01*
X137225181Y-114693721D01*
X137225178Y-114693715D01*
X137130533Y-114529784D01*
X137003871Y-114389112D01*
X137003870Y-114389111D01*
X136850734Y-114277851D01*
X136850729Y-114277848D01*
X136677807Y-114200857D01*
X136677802Y-114200855D01*
X136532001Y-114169865D01*
X136492646Y-114161500D01*
X136303354Y-114161500D01*
X136270897Y-114168398D01*
X136118197Y-114200855D01*
X136118192Y-114200857D01*
X135945270Y-114277848D01*
X135945265Y-114277851D01*
X135792129Y-114389111D01*
X135665466Y-114529785D01*
X135570821Y-114693715D01*
X135570818Y-114693722D01*
X135512327Y-114873740D01*
X135512326Y-114873744D01*
X135492540Y-115062000D01*
X131014878Y-115062000D01*
X130569681Y-114509844D01*
X129932694Y-113660995D01*
X129325625Y-112790498D01*
X128823334Y-112014000D01*
X139048540Y-112014000D01*
X139068326Y-112202256D01*
X139068327Y-112202259D01*
X139126818Y-112382277D01*
X139126821Y-112382284D01*
X139221467Y-112546216D01*
X139339095Y-112676855D01*
X139348129Y-112686888D01*
X139501265Y-112798148D01*
X139501270Y-112798151D01*
X139674192Y-112875142D01*
X139674197Y-112875144D01*
X139859354Y-112914500D01*
X139859355Y-112914500D01*
X140048644Y-112914500D01*
X140048646Y-112914500D01*
X140233803Y-112875144D01*
X140406730Y-112798151D01*
X140559871Y-112686888D01*
X140651827Y-112584759D01*
X140711312Y-112548112D01*
X140781169Y-112549442D01*
X140794397Y-112554448D01*
X140944197Y-112621144D01*
X141129354Y-112660500D01*
X141129355Y-112660500D01*
X141318644Y-112660500D01*
X141318646Y-112660500D01*
X141503803Y-112621144D01*
X141676730Y-112544151D01*
X141829871Y-112432888D01*
X141956533Y-112292216D01*
X142051179Y-112128284D01*
X142109674Y-111948256D01*
X142129460Y-111760000D01*
X142109674Y-111571744D01*
X142051179Y-111391716D01*
X141956533Y-111227784D01*
X141829871Y-111087112D01*
X141797708Y-111063744D01*
X141676734Y-110975851D01*
X141676729Y-110975848D01*
X141503807Y-110898857D01*
X141503802Y-110898855D01*
X141358001Y-110867865D01*
X141318646Y-110859500D01*
X141129354Y-110859500D01*
X141096897Y-110866398D01*
X140944197Y-110898855D01*
X140944192Y-110898857D01*
X140771270Y-110975848D01*
X140771265Y-110975851D01*
X140618129Y-111087111D01*
X140618128Y-111087112D01*
X140526172Y-111189239D01*
X140466685Y-111225887D01*
X140396828Y-111224556D01*
X140383587Y-111219545D01*
X140233806Y-111152857D01*
X140233802Y-111152855D01*
X140088000Y-111121865D01*
X140048646Y-111113500D01*
X139859354Y-111113500D01*
X139826897Y-111120398D01*
X139674197Y-111152855D01*
X139674192Y-111152857D01*
X139501270Y-111229848D01*
X139501265Y-111229851D01*
X139348129Y-111341111D01*
X139221466Y-111481785D01*
X139126821Y-111645715D01*
X139126818Y-111645722D01*
X139081820Y-111784214D01*
X139068326Y-111825744D01*
X139048540Y-112014000D01*
X128823334Y-112014000D01*
X128749208Y-111899408D01*
X128204143Y-110988803D01*
X127691089Y-110059786D01*
X127210667Y-109113481D01*
X127130887Y-108941785D01*
X126906092Y-108458000D01*
X138540540Y-108458000D01*
X138560326Y-108646256D01*
X138560327Y-108646259D01*
X138618818Y-108826277D01*
X138618821Y-108826284D01*
X138713467Y-108990216D01*
X138824456Y-109113481D01*
X138840129Y-109130888D01*
X138993265Y-109242148D01*
X138993270Y-109242151D01*
X139166192Y-109319142D01*
X139166197Y-109319144D01*
X139351354Y-109358500D01*
X139351355Y-109358500D01*
X139540644Y-109358500D01*
X139540646Y-109358500D01*
X139725803Y-109319144D01*
X139898730Y-109242151D01*
X140051871Y-109130888D01*
X140178533Y-108990216D01*
X140192514Y-108966000D01*
X141842540Y-108966000D01*
X141862326Y-109154256D01*
X141862327Y-109154259D01*
X141920818Y-109334277D01*
X141920821Y-109334284D01*
X142015467Y-109498216D01*
X142142128Y-109638888D01*
X142142129Y-109638888D01*
X142295265Y-109750148D01*
X142295270Y-109750151D01*
X142468192Y-109827142D01*
X142468197Y-109827144D01*
X142653354Y-109866500D01*
X142653355Y-109866500D01*
X142842644Y-109866500D01*
X142842646Y-109866500D01*
X143027803Y-109827144D01*
X143200730Y-109750151D01*
X143353871Y-109638888D01*
X143480533Y-109498216D01*
X143575179Y-109334284D01*
X143633674Y-109154256D01*
X143653460Y-108966000D01*
X143633674Y-108777744D01*
X143575179Y-108597716D01*
X143567837Y-108585000D01*
X148954540Y-108585000D01*
X148974326Y-108773256D01*
X148974327Y-108773259D01*
X149032818Y-108953277D01*
X149032821Y-108953284D01*
X149127467Y-109117216D01*
X149160821Y-109154259D01*
X149254129Y-109257888D01*
X149407265Y-109369148D01*
X149407270Y-109369151D01*
X149580192Y-109446142D01*
X149580197Y-109446144D01*
X149765354Y-109485500D01*
X149765355Y-109485500D01*
X149954644Y-109485500D01*
X149954646Y-109485500D01*
X150139803Y-109446144D01*
X150312730Y-109369151D01*
X150465871Y-109257888D01*
X150592533Y-109117216D01*
X150687179Y-108953284D01*
X150745674Y-108773256D01*
X150765460Y-108585000D01*
X150745674Y-108396744D01*
X150687179Y-108216716D01*
X150592533Y-108052784D01*
X150465871Y-107912112D01*
X150446540Y-107898067D01*
X150312734Y-107800851D01*
X150312729Y-107800848D01*
X150139807Y-107723857D01*
X150139802Y-107723855D01*
X149994001Y-107692865D01*
X149954646Y-107684500D01*
X149765354Y-107684500D01*
X149732897Y-107691398D01*
X149580197Y-107723855D01*
X149580192Y-107723857D01*
X149407270Y-107800848D01*
X149407265Y-107800851D01*
X149254129Y-107912111D01*
X149127466Y-108052785D01*
X149032821Y-108216715D01*
X149032818Y-108216722D01*
X149007998Y-108293112D01*
X148974326Y-108396744D01*
X148954540Y-108585000D01*
X143567837Y-108585000D01*
X143480533Y-108433784D01*
X143353871Y-108293112D01*
X143321708Y-108269744D01*
X143200734Y-108181851D01*
X143200729Y-108181848D01*
X143027807Y-108104857D01*
X143027802Y-108104855D01*
X142882001Y-108073865D01*
X142842646Y-108065500D01*
X142653354Y-108065500D01*
X142620897Y-108072398D01*
X142468197Y-108104855D01*
X142468192Y-108104857D01*
X142295270Y-108181848D01*
X142295265Y-108181851D01*
X142142129Y-108293111D01*
X142015466Y-108433785D01*
X141920821Y-108597715D01*
X141920818Y-108597722D01*
X141863784Y-108773256D01*
X141862326Y-108777744D01*
X141842540Y-108966000D01*
X140192514Y-108966000D01*
X140273179Y-108826284D01*
X140331674Y-108646256D01*
X140351460Y-108458000D01*
X140331674Y-108269744D01*
X140273179Y-108089716D01*
X140178533Y-107925784D01*
X140051871Y-107785112D01*
X140051870Y-107785111D01*
X139898734Y-107673851D01*
X139898729Y-107673848D01*
X139725807Y-107596857D01*
X139725802Y-107596855D01*
X139602509Y-107570649D01*
X139567884Y-107563289D01*
X139506403Y-107530098D01*
X139472627Y-107468935D01*
X139477279Y-107399220D01*
X139518883Y-107343088D01*
X139567884Y-107320710D01*
X139725803Y-107287144D01*
X139898730Y-107210151D01*
X139898734Y-107210148D01*
X139903563Y-107207998D01*
X139972813Y-107198712D01*
X140004437Y-107207998D01*
X140009265Y-107210148D01*
X140009270Y-107210151D01*
X140182197Y-107287144D01*
X140367354Y-107326500D01*
X140367355Y-107326500D01*
X140556644Y-107326500D01*
X140556646Y-107326500D01*
X140741803Y-107287144D01*
X140914730Y-107210151D01*
X141067871Y-107098888D01*
X141194533Y-106958216D01*
X141289179Y-106794284D01*
X141347674Y-106614256D01*
X141367460Y-106426000D01*
X141347674Y-106237744D01*
X141289179Y-106057716D01*
X141194533Y-105893784D01*
X141067871Y-105753112D01*
X141067870Y-105753111D01*
X140914734Y-105641851D01*
X140914729Y-105641848D01*
X140741807Y-105564857D01*
X140741802Y-105564855D01*
X140596000Y-105533865D01*
X140556646Y-105525500D01*
X140367354Y-105525500D01*
X140334897Y-105532398D01*
X140182197Y-105564855D01*
X140182192Y-105564857D01*
X140004435Y-105644001D01*
X139935185Y-105653286D01*
X139903563Y-105644001D01*
X139898727Y-105641848D01*
X139826002Y-105609468D01*
X139725806Y-105564857D01*
X139725802Y-105564855D01*
X139580000Y-105533865D01*
X139540646Y-105525500D01*
X139351354Y-105525500D01*
X139318897Y-105532398D01*
X139166197Y-105564855D01*
X139166192Y-105564857D01*
X138993270Y-105641848D01*
X138993265Y-105641851D01*
X138840129Y-105753111D01*
X138713466Y-105893785D01*
X138618821Y-106057715D01*
X138618818Y-106057722D01*
X138561986Y-106232634D01*
X138560326Y-106237744D01*
X138540540Y-106426000D01*
X138560326Y-106614256D01*
X138560327Y-106614259D01*
X138618818Y-106794277D01*
X138618821Y-106794284D01*
X138713467Y-106958216D01*
X138780931Y-107033142D01*
X138840129Y-107098888D01*
X138993265Y-107210148D01*
X138993270Y-107210151D01*
X139166192Y-107287142D01*
X139166197Y-107287144D01*
X139324114Y-107320710D01*
X139385596Y-107353902D01*
X139419372Y-107415065D01*
X139414720Y-107484780D01*
X139373115Y-107540912D01*
X139324114Y-107563290D01*
X139166197Y-107596855D01*
X139166192Y-107596857D01*
X138993270Y-107673848D01*
X138993265Y-107673851D01*
X138840129Y-107785111D01*
X138713466Y-107925785D01*
X138618821Y-108089715D01*
X138618818Y-108089722D01*
X138560327Y-108269740D01*
X138560326Y-108269744D01*
X138540540Y-108458000D01*
X126906092Y-108458000D01*
X126763458Y-108151034D01*
X126350005Y-107173613D01*
X126161170Y-106680000D01*
X129904540Y-106680000D01*
X129924326Y-106868256D01*
X129924327Y-106868259D01*
X129982818Y-107048277D01*
X129982821Y-107048284D01*
X130077467Y-107212216D01*
X130144931Y-107287142D01*
X130204129Y-107352888D01*
X130357265Y-107464148D01*
X130357270Y-107464151D01*
X130530192Y-107541142D01*
X130530197Y-107541144D01*
X130715354Y-107580500D01*
X130715355Y-107580500D01*
X130904644Y-107580500D01*
X130904646Y-107580500D01*
X131089803Y-107541144D01*
X131262730Y-107464151D01*
X131415871Y-107352888D01*
X131542533Y-107212216D01*
X131637179Y-107048284D01*
X131695674Y-106868256D01*
X131715460Y-106680000D01*
X131695674Y-106491744D01*
X131637179Y-106311716D01*
X131542533Y-106147784D01*
X131415871Y-106007112D01*
X131398285Y-105994335D01*
X131262734Y-105895851D01*
X131262729Y-105895848D01*
X131089807Y-105818857D01*
X131089802Y-105818855D01*
X130928489Y-105784568D01*
X130904646Y-105779500D01*
X130715354Y-105779500D01*
X130691511Y-105784568D01*
X130530197Y-105818855D01*
X130530192Y-105818857D01*
X130357270Y-105895848D01*
X130357265Y-105895851D01*
X130204129Y-106007111D01*
X130077466Y-106147785D01*
X129982821Y-106311715D01*
X129982818Y-106311722D01*
X129924327Y-106491740D01*
X129924326Y-106491744D01*
X129904540Y-106680000D01*
X126161170Y-106680000D01*
X125970808Y-106182398D01*
X125705740Y-105410000D01*
X126856540Y-105410000D01*
X126876326Y-105598256D01*
X126876327Y-105598259D01*
X126934818Y-105778277D01*
X126934821Y-105778284D01*
X127029467Y-105942216D01*
X127149567Y-106075600D01*
X127156129Y-106082888D01*
X127309265Y-106194148D01*
X127309270Y-106194151D01*
X127482192Y-106271142D01*
X127482197Y-106271144D01*
X127667354Y-106310500D01*
X127667355Y-106310500D01*
X127856644Y-106310500D01*
X127856646Y-106310500D01*
X128041803Y-106271144D01*
X128214730Y-106194151D01*
X128367871Y-106082888D01*
X128494533Y-105942216D01*
X128589179Y-105778284D01*
X128647674Y-105598256D01*
X128667460Y-105410000D01*
X128647674Y-105221744D01*
X128589179Y-105041716D01*
X128494533Y-104877784D01*
X128367871Y-104737112D01*
X128350497Y-104724489D01*
X128214734Y-104625851D01*
X128214729Y-104625848D01*
X128041807Y-104548857D01*
X128041802Y-104548855D01*
X127896000Y-104517865D01*
X127856646Y-104509500D01*
X127667354Y-104509500D01*
X127634897Y-104516398D01*
X127482197Y-104548855D01*
X127482192Y-104548857D01*
X127309270Y-104625848D01*
X127309265Y-104625851D01*
X127156129Y-104737111D01*
X127029466Y-104877785D01*
X126934821Y-105041715D01*
X126934818Y-105041722D01*
X126876327Y-105221740D01*
X126876326Y-105221744D01*
X126856540Y-105410000D01*
X125705740Y-105410000D01*
X125626326Y-105178590D01*
X125316976Y-104163405D01*
X125043132Y-103138072D01*
X124981442Y-102870000D01*
X133714540Y-102870000D01*
X133734326Y-103058256D01*
X133734327Y-103058259D01*
X133792818Y-103238277D01*
X133792821Y-103238284D01*
X133887467Y-103402216D01*
X133963214Y-103486341D01*
X134014129Y-103542888D01*
X134167265Y-103654148D01*
X134167270Y-103654151D01*
X134340192Y-103731142D01*
X134340197Y-103731144D01*
X134525354Y-103770500D01*
X134525355Y-103770500D01*
X134714644Y-103770500D01*
X134714646Y-103770500D01*
X134899803Y-103731144D01*
X135072730Y-103654151D01*
X135225871Y-103542888D01*
X135352533Y-103402216D01*
X135447179Y-103238284D01*
X135505674Y-103058256D01*
X135525460Y-102870000D01*
X135505674Y-102681744D01*
X135447179Y-102501716D01*
X135352533Y-102337784D01*
X135225871Y-102197112D01*
X135193708Y-102173744D01*
X135120424Y-102120500D01*
X142381994Y-102120500D01*
X142401780Y-102308756D01*
X142401781Y-102308759D01*
X142460272Y-102488777D01*
X142460275Y-102488784D01*
X142554921Y-102652716D01*
X142624764Y-102730284D01*
X142681583Y-102793388D01*
X142834719Y-102904648D01*
X142834724Y-102904651D01*
X143007646Y-102981642D01*
X143007651Y-102981644D01*
X143192808Y-103021000D01*
X143192809Y-103021000D01*
X143382098Y-103021000D01*
X143382100Y-103021000D01*
X143567257Y-102981644D01*
X143702624Y-102921373D01*
X143771872Y-102912088D01*
X143835149Y-102941716D01*
X143845209Y-102951681D01*
X143920129Y-103034888D01*
X144073265Y-103146148D01*
X144073270Y-103146151D01*
X144246192Y-103223142D01*
X144246197Y-103223144D01*
X144431354Y-103262500D01*
X144431355Y-103262500D01*
X144620644Y-103262500D01*
X144620646Y-103262500D01*
X144805803Y-103223144D01*
X144978730Y-103146151D01*
X145131871Y-103034888D01*
X145258533Y-102894216D01*
X145353179Y-102730284D01*
X145411674Y-102550256D01*
X145431460Y-102362000D01*
X145411674Y-102173744D01*
X145353179Y-101993716D01*
X145258533Y-101829784D01*
X145131871Y-101689112D01*
X145131870Y-101689111D01*
X144978734Y-101577851D01*
X144978729Y-101577848D01*
X144805807Y-101500857D01*
X144805802Y-101500855D01*
X144660000Y-101469865D01*
X144620646Y-101461500D01*
X144431354Y-101461500D01*
X144398897Y-101468398D01*
X144246197Y-101500855D01*
X144246192Y-101500857D01*
X144110831Y-101561125D01*
X144041581Y-101570410D01*
X143978304Y-101540782D01*
X143968246Y-101530819D01*
X143893325Y-101447612D01*
X143893324Y-101447611D01*
X143740188Y-101336351D01*
X143740183Y-101336348D01*
X143567261Y-101259357D01*
X143567256Y-101259355D01*
X143421454Y-101228365D01*
X143382100Y-101220000D01*
X143192808Y-101220000D01*
X143160351Y-101226898D01*
X143007651Y-101259355D01*
X143007646Y-101259357D01*
X142834724Y-101336348D01*
X142834719Y-101336351D01*
X142681583Y-101447611D01*
X142554920Y-101588285D01*
X142460275Y-101752215D01*
X142460272Y-101752222D01*
X142401781Y-101932240D01*
X142401780Y-101932244D01*
X142381994Y-102120500D01*
X135120424Y-102120500D01*
X135072734Y-102085851D01*
X135072729Y-102085848D01*
X134899807Y-102008857D01*
X134899802Y-102008855D01*
X134754001Y-101977865D01*
X134714646Y-101969500D01*
X134525354Y-101969500D01*
X134492897Y-101976398D01*
X134340197Y-102008855D01*
X134340192Y-102008857D01*
X134167270Y-102085848D01*
X134167265Y-102085851D01*
X134014129Y-102197111D01*
X133887466Y-102337785D01*
X133792821Y-102501715D01*
X133792818Y-102501722D01*
X133734327Y-102681740D01*
X133734326Y-102681744D01*
X133714540Y-102870000D01*
X124981442Y-102870000D01*
X124805127Y-102103833D01*
X124603249Y-101061939D01*
X124437741Y-100013652D01*
X124321014Y-99060000D01*
X125840540Y-99060000D01*
X125860326Y-99248256D01*
X125860327Y-99248259D01*
X125918818Y-99428277D01*
X125918821Y-99428284D01*
X126013467Y-99592216D01*
X126094559Y-99682277D01*
X126140129Y-99732888D01*
X126293265Y-99844148D01*
X126293270Y-99844151D01*
X126466192Y-99921142D01*
X126466197Y-99921144D01*
X126651354Y-99960500D01*
X126651355Y-99960500D01*
X126840644Y-99960500D01*
X126840646Y-99960500D01*
X127025803Y-99921144D01*
X127198730Y-99844151D01*
X127351871Y-99732888D01*
X127478533Y-99592216D01*
X127573179Y-99428284D01*
X127631674Y-99248256D01*
X127651460Y-99060000D01*
X138794540Y-99060000D01*
X138814326Y-99248256D01*
X138814327Y-99248259D01*
X138872818Y-99428277D01*
X138872821Y-99428284D01*
X138967467Y-99592216D01*
X139048559Y-99682277D01*
X139094129Y-99732888D01*
X139247265Y-99844148D01*
X139247270Y-99844151D01*
X139420192Y-99921142D01*
X139420197Y-99921144D01*
X139605354Y-99960500D01*
X139605355Y-99960500D01*
X139794644Y-99960500D01*
X139794646Y-99960500D01*
X139979803Y-99921144D01*
X140152730Y-99844151D01*
X140305871Y-99732888D01*
X140432533Y-99592216D01*
X140527179Y-99428284D01*
X140585674Y-99248256D01*
X140605460Y-99060000D01*
X140585674Y-98871744D01*
X140527179Y-98691716D01*
X140432533Y-98527784D01*
X140305871Y-98387112D01*
X140305870Y-98387111D01*
X140183219Y-98298000D01*
X142201563Y-98298000D01*
X142221349Y-98486256D01*
X142221350Y-98486259D01*
X142279841Y-98666277D01*
X142279844Y-98666284D01*
X142374490Y-98830216D01*
X142477974Y-98945146D01*
X142501152Y-98970888D01*
X142654288Y-99082148D01*
X142654293Y-99082151D01*
X142827215Y-99159142D01*
X142827220Y-99159144D01*
X143012377Y-99198500D01*
X143012378Y-99198500D01*
X143201667Y-99198500D01*
X143201669Y-99198500D01*
X143386826Y-99159144D01*
X143559753Y-99082151D01*
X143712894Y-98970888D01*
X143839556Y-98830216D01*
X143934202Y-98666284D01*
X143992697Y-98486256D01*
X144012483Y-98298000D01*
X143992697Y-98109744D01*
X143934202Y-97929716D01*
X143839556Y-97765784D01*
X143712894Y-97625112D01*
X143712893Y-97625111D01*
X143559757Y-97513851D01*
X143559752Y-97513848D01*
X143386830Y-97436857D01*
X143386825Y-97436855D01*
X143241023Y-97405865D01*
X143201669Y-97397500D01*
X143012377Y-97397500D01*
X142979920Y-97404398D01*
X142827220Y-97436855D01*
X142827215Y-97436857D01*
X142654293Y-97513848D01*
X142654288Y-97513851D01*
X142501152Y-97625111D01*
X142374489Y-97765785D01*
X142279844Y-97929715D01*
X142279841Y-97929722D01*
X142221350Y-98109740D01*
X142221349Y-98109744D01*
X142201563Y-98298000D01*
X140183219Y-98298000D01*
X140152734Y-98275851D01*
X140152729Y-98275848D01*
X139979807Y-98198857D01*
X139979802Y-98198855D01*
X139834000Y-98167865D01*
X139794646Y-98159500D01*
X139605354Y-98159500D01*
X139572897Y-98166398D01*
X139420197Y-98198855D01*
X139420192Y-98198857D01*
X139247270Y-98275848D01*
X139247265Y-98275851D01*
X139094129Y-98387111D01*
X138967466Y-98527785D01*
X138872821Y-98691715D01*
X138872818Y-98691722D01*
X138827820Y-98830214D01*
X138814326Y-98871744D01*
X138794540Y-99060000D01*
X127651460Y-99060000D01*
X127631674Y-98871744D01*
X127573179Y-98691716D01*
X127478533Y-98527784D01*
X127351871Y-98387112D01*
X127351870Y-98387111D01*
X127198734Y-98275851D01*
X127198729Y-98275848D01*
X127025807Y-98198857D01*
X127025802Y-98198855D01*
X126880000Y-98167865D01*
X126840646Y-98159500D01*
X126651354Y-98159500D01*
X126618897Y-98166398D01*
X126466197Y-98198855D01*
X126466192Y-98198857D01*
X126293270Y-98275848D01*
X126293265Y-98275851D01*
X126140129Y-98387111D01*
X126013466Y-98527785D01*
X125918821Y-98691715D01*
X125918818Y-98691722D01*
X125873820Y-98830214D01*
X125860326Y-98871744D01*
X125840540Y-99060000D01*
X124321014Y-99060000D01*
X124308804Y-98960242D01*
X124216595Y-97902984D01*
X124161225Y-96843157D01*
X124153171Y-96380284D01*
X124142762Y-95782103D01*
X124142762Y-95782046D01*
X124154527Y-95123000D01*
X124443540Y-95123000D01*
X124463326Y-95311256D01*
X124463327Y-95311259D01*
X124521818Y-95491277D01*
X124521821Y-95491284D01*
X124616467Y-95655216D01*
X124729267Y-95780493D01*
X124743129Y-95795888D01*
X124896265Y-95907148D01*
X124896270Y-95907151D01*
X125069192Y-95984142D01*
X125069197Y-95984144D01*
X125254354Y-96023500D01*
X125254355Y-96023500D01*
X125443644Y-96023500D01*
X125443646Y-96023500D01*
X125497750Y-96012000D01*
X129142540Y-96012000D01*
X129162326Y-96200256D01*
X129162327Y-96200259D01*
X129220818Y-96380277D01*
X129220821Y-96380284D01*
X129315467Y-96544216D01*
X129369451Y-96604171D01*
X129442129Y-96684888D01*
X129595265Y-96796148D01*
X129595270Y-96796151D01*
X129768192Y-96873142D01*
X129768197Y-96873144D01*
X129953354Y-96912500D01*
X129953355Y-96912500D01*
X130142644Y-96912500D01*
X130142646Y-96912500D01*
X130327803Y-96873144D01*
X130500730Y-96796151D01*
X130653871Y-96684888D01*
X130780533Y-96544216D01*
X130875179Y-96380284D01*
X130933674Y-96200256D01*
X130953460Y-96012000D01*
X130933674Y-95823744D01*
X130875179Y-95643716D01*
X130780533Y-95479784D01*
X130653871Y-95339112D01*
X130653870Y-95339111D01*
X130500734Y-95227851D01*
X130500729Y-95227848D01*
X130327807Y-95150857D01*
X130327802Y-95150855D01*
X130182000Y-95119865D01*
X130142646Y-95111500D01*
X129953354Y-95111500D01*
X129920897Y-95118398D01*
X129768197Y-95150855D01*
X129768192Y-95150857D01*
X129595270Y-95227848D01*
X129595265Y-95227851D01*
X129442129Y-95339111D01*
X129315466Y-95479785D01*
X129220821Y-95643715D01*
X129220818Y-95643722D01*
X129175865Y-95782074D01*
X129162326Y-95823744D01*
X129142540Y-96012000D01*
X125497750Y-96012000D01*
X125628803Y-95984144D01*
X125801730Y-95907151D01*
X125954871Y-95795888D01*
X126081533Y-95655216D01*
X126176179Y-95491284D01*
X126234674Y-95311256D01*
X126254460Y-95123000D01*
X126234674Y-94934744D01*
X126176179Y-94754716D01*
X126081533Y-94590784D01*
X125954871Y-94450112D01*
X125954870Y-94450111D01*
X125801734Y-94338851D01*
X125801729Y-94338848D01*
X125628807Y-94261857D01*
X125628802Y-94261855D01*
X125483001Y-94230865D01*
X125443646Y-94222500D01*
X125254354Y-94222500D01*
X125221897Y-94229398D01*
X125069197Y-94261855D01*
X125069192Y-94261857D01*
X124896270Y-94338848D01*
X124896265Y-94338851D01*
X124743129Y-94450111D01*
X124616466Y-94590785D01*
X124521821Y-94754715D01*
X124521818Y-94754722D01*
X124463327Y-94934740D01*
X124463326Y-94934744D01*
X124443540Y-95123000D01*
X124154527Y-95123000D01*
X124162195Y-94693448D01*
X124220471Y-93606237D01*
X124277943Y-92964000D01*
X128126540Y-92964000D01*
X128146326Y-93152256D01*
X128146327Y-93152259D01*
X128204818Y-93332277D01*
X128204821Y-93332284D01*
X128299467Y-93496216D01*
X128369122Y-93573575D01*
X128426129Y-93636888D01*
X128579265Y-93748148D01*
X128579270Y-93748151D01*
X128752192Y-93825142D01*
X128752197Y-93825144D01*
X128937354Y-93864500D01*
X128937355Y-93864500D01*
X129126644Y-93864500D01*
X129126646Y-93864500D01*
X129311803Y-93825144D01*
X129484730Y-93748151D01*
X129515218Y-93726000D01*
X140572540Y-93726000D01*
X140592326Y-93914256D01*
X140592327Y-93914259D01*
X140650818Y-94094277D01*
X140650821Y-94094284D01*
X140745467Y-94258216D01*
X140835115Y-94357780D01*
X140872129Y-94398888D01*
X141025265Y-94510148D01*
X141025270Y-94510151D01*
X141198192Y-94587142D01*
X141198197Y-94587144D01*
X141383354Y-94626500D01*
X141383355Y-94626500D01*
X141572644Y-94626500D01*
X141572646Y-94626500D01*
X141757803Y-94587144D01*
X141930730Y-94510151D01*
X142083871Y-94398888D01*
X142210533Y-94258216D01*
X142305179Y-94094284D01*
X142363674Y-93914256D01*
X142383460Y-93726000D01*
X142363674Y-93537744D01*
X142356771Y-93516500D01*
X143675980Y-93516500D01*
X143695766Y-93704756D01*
X143695767Y-93704759D01*
X143754258Y-93884777D01*
X143754261Y-93884784D01*
X143848907Y-94048716D01*
X143889937Y-94094284D01*
X143975569Y-94189388D01*
X144128705Y-94300648D01*
X144128710Y-94300651D01*
X144301632Y-94377642D01*
X144301637Y-94377644D01*
X144486794Y-94417000D01*
X144486795Y-94417000D01*
X144676084Y-94417000D01*
X144676086Y-94417000D01*
X144861243Y-94377644D01*
X145034170Y-94300651D01*
X145093615Y-94257461D01*
X145159421Y-94233982D01*
X145227475Y-94249807D01*
X145276170Y-94299913D01*
X145290500Y-94357780D01*
X145290500Y-96265998D01*
X145290500Y-96923642D01*
X145290921Y-96938221D01*
X145292179Y-96959998D01*
X145293451Y-96974627D01*
X145301822Y-97046592D01*
X145320605Y-97208083D01*
X145325664Y-97236915D01*
X145325664Y-97236914D01*
X145338956Y-97293287D01*
X145338956Y-97293286D01*
X145347315Y-97321350D01*
X145347315Y-97321349D01*
X145374885Y-97397500D01*
X145425493Y-97537283D01*
X145426126Y-97539030D01*
X145426126Y-97539029D01*
X145437663Y-97565920D01*
X145437667Y-97565928D01*
X145463549Y-97617751D01*
X145467774Y-97625112D01*
X145478110Y-97643121D01*
X145478117Y-97643132D01*
X145545133Y-97745655D01*
X145606694Y-97839833D01*
X145615052Y-97851845D01*
X145628025Y-97869385D01*
X145637064Y-97880893D01*
X146380066Y-98772495D01*
X146389203Y-98782870D01*
X146403251Y-98797966D01*
X146412963Y-98807847D01*
X146479312Y-98871740D01*
X146573102Y-98962059D01*
X146594063Y-98980141D01*
X146637444Y-99013604D01*
X146660268Y-99029296D01*
X146746955Y-99082151D01*
X146847245Y-99143300D01*
X146871638Y-99156398D01*
X146871643Y-99156400D01*
X146871644Y-99156401D01*
X146921248Y-99179634D01*
X146932786Y-99184286D01*
X146946928Y-99189988D01*
X146946931Y-99189989D01*
X146946936Y-99189991D01*
X147039108Y-99221410D01*
X147154205Y-99260644D01*
X147180856Y-99268128D01*
X147234335Y-99280032D01*
X147261649Y-99284560D01*
X147261659Y-99284561D01*
X147261660Y-99284562D01*
X147482616Y-99308856D01*
X147496399Y-99309990D01*
X147516999Y-99311120D01*
X147530846Y-99311500D01*
X147530847Y-99311500D01*
X148918376Y-99311500D01*
X148940013Y-99310573D01*
X148960001Y-99308856D01*
X148971946Y-99307830D01*
X149014890Y-99302280D01*
X149120000Y-99268128D01*
X149151719Y-99257822D01*
X149151719Y-99257821D01*
X149151728Y-99257819D01*
X149214429Y-99226991D01*
X149214433Y-99226989D01*
X149333201Y-99145776D01*
X149333207Y-99145768D01*
X149339731Y-99139782D01*
X149341210Y-99141393D01*
X149388837Y-99108819D01*
X149458678Y-99106815D01*
X149477595Y-99113462D01*
X149580197Y-99159144D01*
X149765354Y-99198500D01*
X149765355Y-99198500D01*
X149954644Y-99198500D01*
X149954646Y-99198500D01*
X150021514Y-99184286D01*
X150091179Y-99189601D01*
X150146913Y-99231738D01*
X150152126Y-99239348D01*
X150185970Y-99292920D01*
X150203952Y-99314000D01*
X150215289Y-99327290D01*
X150276261Y-99387564D01*
X151315168Y-100253320D01*
X151341883Y-100275582D01*
X151380782Y-100333621D01*
X151386500Y-100370841D01*
X151386500Y-124565557D01*
X151366815Y-124632596D01*
X151314011Y-124678351D01*
X151288283Y-124686847D01*
X151241194Y-124696856D01*
X151241192Y-124696857D01*
X151068271Y-124773848D01*
X150968885Y-124846056D01*
X150903078Y-124869535D01*
X150835025Y-124853709D01*
X150823115Y-124846056D01*
X150784613Y-124818083D01*
X150723730Y-124773849D01*
X150723728Y-124773848D01*
X150723729Y-124773848D01*
X150550807Y-124696857D01*
X150550802Y-124696855D01*
X150405000Y-124665865D01*
X150365646Y-124657500D01*
X150176354Y-124657500D01*
X150150897Y-124662911D01*
X149991197Y-124696855D01*
X149991192Y-124696857D01*
X149818272Y-124773848D01*
X149818270Y-124773849D01*
X149808654Y-124780835D01*
X149789260Y-124794925D01*
X149723452Y-124818402D01*
X149655399Y-124802574D01*
X149652228Y-124800721D01*
X149510395Y-124714980D01*
X149510396Y-124714980D01*
X149348105Y-124664409D01*
X149348106Y-124664409D01*
X149277572Y-124658000D01*
X149271000Y-124658000D01*
X149271000Y-125783376D01*
X149256495Y-125710455D01*
X149201240Y-125627760D01*
X149118545Y-125572505D01*
X149045624Y-125558000D01*
X148996376Y-125558000D01*
X148923455Y-125572505D01*
X148840760Y-125627760D01*
X148785505Y-125710455D01*
X148766102Y-125808000D01*
X148785505Y-125905545D01*
X148840760Y-125988240D01*
X148923455Y-126043495D01*
X148996376Y-126058000D01*
X149045624Y-126058000D01*
X149118545Y-126043495D01*
X149201240Y-125988240D01*
X149256495Y-125905545D01*
X149271000Y-125832623D01*
X149271000Y-126957999D01*
X149277581Y-126957999D01*
X149348102Y-126951591D01*
X149348107Y-126951590D01*
X149510396Y-126901018D01*
X149652228Y-126815278D01*
X149719782Y-126797442D01*
X149786256Y-126818959D01*
X149789263Y-126821077D01*
X149818265Y-126842148D01*
X149818270Y-126842151D01*
X149991192Y-126919142D01*
X149991197Y-126919144D01*
X150176354Y-126958500D01*
X150176355Y-126958500D01*
X150365644Y-126958500D01*
X150365646Y-126958500D01*
X150550803Y-126919144D01*
X150723730Y-126842151D01*
X150823114Y-126769944D01*
X150888921Y-126746464D01*
X150956975Y-126762289D01*
X150968885Y-126769944D01*
X151068265Y-126842148D01*
X151068270Y-126842151D01*
X151241192Y-126919142D01*
X151241197Y-126919144D01*
X151426354Y-126958500D01*
X151426355Y-126958500D01*
X151615644Y-126958500D01*
X151615646Y-126958500D01*
X151800803Y-126919144D01*
X151973730Y-126842151D01*
X152073114Y-126769944D01*
X152138921Y-126746464D01*
X152206975Y-126762289D01*
X152218885Y-126769944D01*
X152318265Y-126842148D01*
X152318270Y-126842151D01*
X152491192Y-126919142D01*
X152491197Y-126919144D01*
X152676354Y-126958500D01*
X152676355Y-126958500D01*
X152865644Y-126958500D01*
X152865646Y-126958500D01*
X153050803Y-126919144D01*
X153223730Y-126842151D01*
X153323114Y-126769944D01*
X153388921Y-126746464D01*
X153456975Y-126762289D01*
X153468885Y-126769944D01*
X153568265Y-126842148D01*
X153568270Y-126842151D01*
X153741192Y-126919142D01*
X153741197Y-126919144D01*
X153926354Y-126958500D01*
X153926355Y-126958500D01*
X154115644Y-126958500D01*
X154115646Y-126958500D01*
X154300803Y-126919144D01*
X154473730Y-126842151D01*
X154573114Y-126769944D01*
X154638921Y-126746464D01*
X154706975Y-126762289D01*
X154718885Y-126769944D01*
X154818265Y-126842148D01*
X154818270Y-126842151D01*
X154991192Y-126919142D01*
X154991197Y-126919144D01*
X155176354Y-126958500D01*
X155176355Y-126958500D01*
X155365644Y-126958500D01*
X155365646Y-126958500D01*
X155550803Y-126919144D01*
X155723730Y-126842151D01*
X155876871Y-126730888D01*
X156003533Y-126590216D01*
X156098179Y-126426284D01*
X156156674Y-126246256D01*
X156171500Y-126105192D01*
X156171500Y-126058000D01*
X158652001Y-126058000D01*
X158652001Y-126314582D01*
X158658408Y-126385102D01*
X158658409Y-126385107D01*
X158708981Y-126547396D01*
X158796927Y-126692877D01*
X158917122Y-126813072D01*
X159062604Y-126901019D01*
X159062603Y-126901019D01*
X159224894Y-126951590D01*
X159224893Y-126951590D01*
X159295408Y-126957998D01*
X159295426Y-126957999D01*
X159301999Y-126957998D01*
X159302000Y-126957998D01*
X159302000Y-126058000D01*
X158652001Y-126058000D01*
X156171500Y-126058000D01*
X156171500Y-125808000D01*
X159297102Y-125808000D01*
X159316505Y-125905545D01*
X159371760Y-125988240D01*
X159454455Y-126043495D01*
X159527376Y-126058000D01*
X159576624Y-126058000D01*
X159649545Y-126043495D01*
X159732240Y-125988240D01*
X159787495Y-125905545D01*
X159802000Y-125832623D01*
X159802000Y-126957999D01*
X159808581Y-126957999D01*
X159879102Y-126951591D01*
X159879107Y-126951590D01*
X160041396Y-126901018D01*
X160183228Y-126815278D01*
X160250782Y-126797442D01*
X160317256Y-126818959D01*
X160320263Y-126821077D01*
X160349265Y-126842148D01*
X160349270Y-126842151D01*
X160522192Y-126919142D01*
X160522197Y-126919144D01*
X160707354Y-126958500D01*
X160707355Y-126958500D01*
X160896644Y-126958500D01*
X160896646Y-126958500D01*
X161081803Y-126919144D01*
X161254730Y-126842151D01*
X161354114Y-126769944D01*
X161419921Y-126746464D01*
X161487975Y-126762289D01*
X161499885Y-126769944D01*
X161599265Y-126842148D01*
X161599270Y-126842151D01*
X161772192Y-126919142D01*
X161772197Y-126919144D01*
X161957354Y-126958500D01*
X161957355Y-126958500D01*
X162146644Y-126958500D01*
X162146646Y-126958500D01*
X162331803Y-126919144D01*
X162504730Y-126842151D01*
X162604114Y-126769944D01*
X162669921Y-126746464D01*
X162737975Y-126762289D01*
X162749885Y-126769944D01*
X162849265Y-126842148D01*
X162849270Y-126842151D01*
X163022192Y-126919142D01*
X163022197Y-126919144D01*
X163207354Y-126958500D01*
X163207355Y-126958500D01*
X163396644Y-126958500D01*
X163396646Y-126958500D01*
X163581803Y-126919144D01*
X163754730Y-126842151D01*
X163854114Y-126769944D01*
X163919921Y-126746464D01*
X163987975Y-126762289D01*
X163999885Y-126769944D01*
X164099265Y-126842148D01*
X164099270Y-126842151D01*
X164272192Y-126919142D01*
X164272197Y-126919144D01*
X164457354Y-126958500D01*
X164457355Y-126958500D01*
X164646644Y-126958500D01*
X164646646Y-126958500D01*
X164831803Y-126919144D01*
X165004730Y-126842151D01*
X165157871Y-126730888D01*
X165284533Y-126590216D01*
X165379179Y-126426284D01*
X165415463Y-126314613D01*
X167892500Y-126314613D01*
X167898913Y-126385192D01*
X167949522Y-126547606D01*
X168037530Y-126693188D01*
X168157811Y-126813469D01*
X168157813Y-126813470D01*
X168157815Y-126813472D01*
X168303394Y-126901478D01*
X168465804Y-126952086D01*
X168536384Y-126958500D01*
X168536387Y-126958500D01*
X169049613Y-126958500D01*
X169049616Y-126958500D01*
X169120196Y-126952086D01*
X169282606Y-126901478D01*
X169424671Y-126815596D01*
X169492222Y-126797761D01*
X169558696Y-126819278D01*
X169561669Y-126821372D01*
X169590266Y-126842148D01*
X169590270Y-126842151D01*
X169763192Y-126919142D01*
X169763197Y-126919144D01*
X169948354Y-126958500D01*
X169948355Y-126958500D01*
X170137644Y-126958500D01*
X170137646Y-126958500D01*
X170322803Y-126919144D01*
X170495730Y-126842151D01*
X170648871Y-126730888D01*
X170775533Y-126590216D01*
X170870179Y-126426284D01*
X170928674Y-126246256D01*
X170943500Y-126105192D01*
X170943500Y-125510808D01*
X170928674Y-125369744D01*
X170870179Y-125189716D01*
X170775533Y-125025784D01*
X170648871Y-124885112D01*
X170648870Y-124885111D01*
X170495734Y-124773851D01*
X170495729Y-124773848D01*
X170322807Y-124696857D01*
X170322802Y-124696855D01*
X170177000Y-124665865D01*
X170137646Y-124657500D01*
X169948354Y-124657500D01*
X169922897Y-124662911D01*
X169763197Y-124696855D01*
X169763192Y-124696857D01*
X169590271Y-124773848D01*
X169561701Y-124794605D01*
X169495894Y-124818083D01*
X169427840Y-124802256D01*
X169424668Y-124800402D01*
X169282606Y-124714522D01*
X169225916Y-124696857D01*
X169120196Y-124663914D01*
X169120194Y-124663913D01*
X169120192Y-124663913D01*
X169070778Y-124659423D01*
X169049616Y-124657500D01*
X168536384Y-124657500D01*
X168517145Y-124659248D01*
X168465807Y-124663913D01*
X168303393Y-124714522D01*
X168157811Y-124802530D01*
X168037530Y-124922811D01*
X167949522Y-125068393D01*
X167898913Y-125230807D01*
X167892500Y-125301386D01*
X167892500Y-126314613D01*
X165415463Y-126314613D01*
X165437674Y-126246256D01*
X165452500Y-126105192D01*
X165452500Y-125510808D01*
X165437674Y-125369744D01*
X165379179Y-125189716D01*
X165284533Y-125025784D01*
X165157871Y-124885112D01*
X165157870Y-124885111D01*
X165004734Y-124773851D01*
X165004729Y-124773848D01*
X164831807Y-124696857D01*
X164831802Y-124696855D01*
X164686001Y-124665865D01*
X164646646Y-124657500D01*
X164457354Y-124657500D01*
X164431897Y-124662911D01*
X164272197Y-124696855D01*
X164272192Y-124696857D01*
X164099271Y-124773848D01*
X163999885Y-124846056D01*
X163934078Y-124869535D01*
X163866025Y-124853709D01*
X163854115Y-124846056D01*
X163815613Y-124818083D01*
X163754730Y-124773849D01*
X163754728Y-124773848D01*
X163754729Y-124773848D01*
X163581807Y-124696857D01*
X163581802Y-124696855D01*
X163436001Y-124665865D01*
X163396646Y-124657500D01*
X163207354Y-124657500D01*
X163181897Y-124662911D01*
X163022197Y-124696855D01*
X163022192Y-124696857D01*
X162849271Y-124773848D01*
X162749885Y-124846056D01*
X162684078Y-124869535D01*
X162616025Y-124853709D01*
X162604115Y-124846056D01*
X162565613Y-124818083D01*
X162504730Y-124773849D01*
X162504728Y-124773848D01*
X162504729Y-124773848D01*
X162331807Y-124696857D01*
X162331802Y-124696855D01*
X162186000Y-124665865D01*
X162146646Y-124657500D01*
X161957354Y-124657500D01*
X161931897Y-124662911D01*
X161772197Y-124696855D01*
X161772192Y-124696857D01*
X161599271Y-124773848D01*
X161499885Y-124846056D01*
X161434078Y-124869535D01*
X161366025Y-124853709D01*
X161354115Y-124846056D01*
X161315613Y-124818083D01*
X161254730Y-124773849D01*
X161254728Y-124773848D01*
X161254729Y-124773848D01*
X161081807Y-124696857D01*
X161081802Y-124696855D01*
X160936000Y-124665865D01*
X160896646Y-124657500D01*
X160707354Y-124657500D01*
X160681897Y-124662911D01*
X160522197Y-124696855D01*
X160522192Y-124696857D01*
X160349272Y-124773848D01*
X160349270Y-124773849D01*
X160339654Y-124780835D01*
X160320260Y-124794925D01*
X160254452Y-124818402D01*
X160186399Y-124802574D01*
X160183228Y-124800721D01*
X160041395Y-124714980D01*
X160041396Y-124714980D01*
X159879105Y-124664409D01*
X159879106Y-124664409D01*
X159808572Y-124658000D01*
X159802000Y-124658000D01*
X159802000Y-125783376D01*
X159787495Y-125710455D01*
X159732240Y-125627760D01*
X159649545Y-125572505D01*
X159576624Y-125558000D01*
X159527376Y-125558000D01*
X159454455Y-125572505D01*
X159371760Y-125627760D01*
X159316505Y-125710455D01*
X159297102Y-125808000D01*
X156171500Y-125808000D01*
X156171500Y-125558000D01*
X158652000Y-125558000D01*
X159302000Y-125558000D01*
X159302000Y-124658000D01*
X159301999Y-124657999D01*
X159295436Y-124658000D01*
X159295417Y-124658001D01*
X159224897Y-124664408D01*
X159224892Y-124664409D01*
X159062603Y-124714981D01*
X158917122Y-124802927D01*
X158796927Y-124923122D01*
X158708980Y-125068604D01*
X158658409Y-125230893D01*
X158652000Y-125301427D01*
X158652000Y-125558000D01*
X156171500Y-125558000D01*
X156171500Y-125510808D01*
X156156674Y-125369744D01*
X156098179Y-125189716D01*
X156051490Y-125108848D01*
X156035018Y-125040948D01*
X156057871Y-124974921D01*
X156065158Y-124965654D01*
X156107567Y-124916714D01*
X156107569Y-124916709D01*
X156107571Y-124916707D01*
X156159715Y-124802528D01*
X156167338Y-124785837D01*
X156187023Y-124718798D01*
X156187024Y-124718794D01*
X156207500Y-124576378D01*
X156207500Y-121412000D01*
X158606540Y-121412000D01*
X158626326Y-121600256D01*
X158626327Y-121600259D01*
X158684818Y-121780277D01*
X158684821Y-121780284D01*
X158779467Y-121944216D01*
X158877328Y-122052901D01*
X158906129Y-122084888D01*
X159059265Y-122196148D01*
X159059270Y-122196151D01*
X159232192Y-122273142D01*
X159232197Y-122273144D01*
X159417354Y-122312500D01*
X159417355Y-122312500D01*
X159606644Y-122312500D01*
X159606646Y-122312500D01*
X159791803Y-122273144D01*
X159964730Y-122196151D01*
X160117871Y-122084888D01*
X160244533Y-121944216D01*
X160339179Y-121780284D01*
X160397674Y-121600256D01*
X160417460Y-121412000D01*
X160397674Y-121223744D01*
X160339179Y-121043716D01*
X160244533Y-120879784D01*
X160117871Y-120739112D01*
X160117870Y-120739111D01*
X159964734Y-120627851D01*
X159964729Y-120627848D01*
X159791807Y-120550857D01*
X159791802Y-120550855D01*
X159646001Y-120519865D01*
X159606646Y-120511500D01*
X159417354Y-120511500D01*
X159384897Y-120518398D01*
X159232197Y-120550855D01*
X159232192Y-120550857D01*
X159059270Y-120627848D01*
X159059265Y-120627851D01*
X158906129Y-120739111D01*
X158779466Y-120879785D01*
X158684821Y-121043715D01*
X158684818Y-121043722D01*
X158639820Y-121182214D01*
X158626326Y-121223744D01*
X158606540Y-121412000D01*
X156207500Y-121412000D01*
X156207500Y-118609190D01*
X156205985Y-118581550D01*
X156201512Y-118540857D01*
X156192469Y-118486290D01*
X156192468Y-118486287D01*
X156192468Y-118486285D01*
X156188119Y-118474793D01*
X156182801Y-118405126D01*
X156215993Y-118343644D01*
X156231196Y-118330595D01*
X156307871Y-118274888D01*
X156434533Y-118134216D01*
X156529179Y-117970284D01*
X156587674Y-117790256D01*
X156607460Y-117602000D01*
X166734540Y-117602000D01*
X166754326Y-117790256D01*
X166754327Y-117790259D01*
X166812818Y-117970277D01*
X166812821Y-117970284D01*
X166907467Y-118134216D01*
X166947803Y-118179013D01*
X167034129Y-118274888D01*
X167187265Y-118386148D01*
X167187270Y-118386151D01*
X167360192Y-118463142D01*
X167360197Y-118463144D01*
X167545354Y-118502500D01*
X167545355Y-118502500D01*
X167734644Y-118502500D01*
X167734646Y-118502500D01*
X167919803Y-118463144D01*
X168092730Y-118386151D01*
X168245871Y-118274888D01*
X168372533Y-118134216D01*
X168467179Y-117970284D01*
X168525674Y-117790256D01*
X168545460Y-117602000D01*
X168525674Y-117413744D01*
X168467179Y-117233716D01*
X168372533Y-117069784D01*
X168245871Y-116929112D01*
X168167204Y-116871957D01*
X168092734Y-116817851D01*
X168092729Y-116817848D01*
X167919807Y-116740857D01*
X167919802Y-116740855D01*
X167761091Y-116707121D01*
X167734646Y-116701500D01*
X167545354Y-116701500D01*
X167518909Y-116707121D01*
X167360197Y-116740855D01*
X167360192Y-116740857D01*
X167187270Y-116817848D01*
X167187265Y-116817851D01*
X167034129Y-116929111D01*
X166907466Y-117069785D01*
X166812821Y-117233715D01*
X166812818Y-117233722D01*
X166754327Y-117413740D01*
X166754326Y-117413744D01*
X166734540Y-117602000D01*
X156607460Y-117602000D01*
X156587674Y-117413744D01*
X156529179Y-117233716D01*
X156434533Y-117069784D01*
X156307871Y-116929112D01*
X156307870Y-116929111D01*
X156307864Y-116929106D01*
X156229205Y-116871957D01*
X156186539Y-116816627D01*
X156180560Y-116747014D01*
X156183115Y-116736697D01*
X156187023Y-116723392D01*
X156189363Y-116707119D01*
X156207500Y-116580969D01*
X156207500Y-115779546D01*
X158353040Y-115779546D01*
X158372826Y-115967802D01*
X158372827Y-115967805D01*
X158431318Y-116147823D01*
X158431321Y-116147830D01*
X158525967Y-116311762D01*
X158585782Y-116378193D01*
X158652629Y-116452434D01*
X158805765Y-116563694D01*
X158805770Y-116563697D01*
X158978692Y-116640688D01*
X158978697Y-116640690D01*
X159163854Y-116680046D01*
X159163855Y-116680046D01*
X159353144Y-116680046D01*
X159353146Y-116680046D01*
X159538303Y-116640690D01*
X159711230Y-116563697D01*
X159864371Y-116452434D01*
X159991033Y-116311762D01*
X160085679Y-116147830D01*
X160144174Y-115967802D01*
X160163960Y-115779546D01*
X160144174Y-115591290D01*
X160085679Y-115411262D01*
X159991033Y-115247330D01*
X159864371Y-115106658D01*
X159864370Y-115106657D01*
X159711234Y-114995397D01*
X159711229Y-114995394D01*
X159538307Y-114918403D01*
X159538302Y-114918401D01*
X159392501Y-114887411D01*
X159353146Y-114879046D01*
X159163854Y-114879046D01*
X159131397Y-114885944D01*
X158978697Y-114918401D01*
X158978692Y-114918403D01*
X158805770Y-114995394D01*
X158805765Y-114995397D01*
X158652629Y-115106657D01*
X158525966Y-115247331D01*
X158431321Y-115411261D01*
X158431318Y-115411268D01*
X158401557Y-115502865D01*
X158372826Y-115591290D01*
X158353040Y-115779546D01*
X156207500Y-115779546D01*
X156207500Y-114394586D01*
X156206956Y-114382580D01*
X156206466Y-114371749D01*
X156203606Y-114340213D01*
X156203411Y-114338055D01*
X156197663Y-114295944D01*
X156197785Y-114261542D01*
X156207500Y-114193981D01*
X156207500Y-113030000D01*
X158860540Y-113030000D01*
X158880326Y-113218256D01*
X158880327Y-113218259D01*
X158938818Y-113398277D01*
X158938821Y-113398284D01*
X159033467Y-113562216D01*
X159160128Y-113702888D01*
X159160129Y-113702888D01*
X159313265Y-113814148D01*
X159313270Y-113814151D01*
X159486192Y-113891142D01*
X159486197Y-113891144D01*
X159671354Y-113930500D01*
X159671355Y-113930500D01*
X159860644Y-113930500D01*
X159860646Y-113930500D01*
X160045803Y-113891144D01*
X160218730Y-113814151D01*
X160371871Y-113702888D01*
X160498533Y-113562216D01*
X160512514Y-113538000D01*
X171052540Y-113538000D01*
X171072326Y-113726256D01*
X171072327Y-113726259D01*
X171130818Y-113906277D01*
X171130821Y-113906284D01*
X171225467Y-114070216D01*
X171303687Y-114157088D01*
X171352129Y-114210888D01*
X171505265Y-114322148D01*
X171505270Y-114322151D01*
X171678192Y-114399142D01*
X171678197Y-114399144D01*
X171863354Y-114438500D01*
X171863355Y-114438500D01*
X172052644Y-114438500D01*
X172052646Y-114438500D01*
X172237803Y-114399144D01*
X172410730Y-114322151D01*
X172563871Y-114210888D01*
X172690533Y-114070216D01*
X172785179Y-113906284D01*
X172843674Y-113726256D01*
X172863460Y-113538000D01*
X172843674Y-113349744D01*
X172785179Y-113169716D01*
X172690533Y-113005784D01*
X172563871Y-112865112D01*
X172531708Y-112841744D01*
X172410734Y-112753851D01*
X172410729Y-112753848D01*
X172237807Y-112676857D01*
X172237802Y-112676855D01*
X172092001Y-112645865D01*
X172052646Y-112637500D01*
X171863354Y-112637500D01*
X171830897Y-112644398D01*
X171678197Y-112676855D01*
X171678192Y-112676857D01*
X171505270Y-112753848D01*
X171505265Y-112753851D01*
X171352129Y-112865111D01*
X171225466Y-113005785D01*
X171130821Y-113169715D01*
X171130818Y-113169722D01*
X171072327Y-113349740D01*
X171072326Y-113349744D01*
X171052540Y-113538000D01*
X160512514Y-113538000D01*
X160593179Y-113398284D01*
X160651674Y-113218256D01*
X160671460Y-113030000D01*
X160651674Y-112841744D01*
X160593179Y-112661716D01*
X160498533Y-112497784D01*
X160371871Y-112357112D01*
X160276182Y-112287590D01*
X160233517Y-112232260D01*
X160227538Y-112162646D01*
X160260144Y-112100851D01*
X160306572Y-112071945D01*
X160306366Y-112071481D01*
X160309712Y-112069991D01*
X160310763Y-112069337D01*
X160312293Y-112068838D01*
X160312303Y-112068837D01*
X160485230Y-111991844D01*
X160557872Y-111939066D01*
X160623677Y-111915586D01*
X160691731Y-111931411D01*
X160703642Y-111939066D01*
X160837265Y-112036148D01*
X160837270Y-112036151D01*
X161010192Y-112113142D01*
X161010197Y-112113144D01*
X161195354Y-112152500D01*
X161195355Y-112152500D01*
X161384644Y-112152500D01*
X161384646Y-112152500D01*
X161569803Y-112113144D01*
X161742730Y-112036151D01*
X161895871Y-111924888D01*
X162022533Y-111784216D01*
X162117179Y-111620284D01*
X162175674Y-111440256D01*
X162195460Y-111252000D01*
X162924540Y-111252000D01*
X162944326Y-111440256D01*
X162944327Y-111440259D01*
X163002818Y-111620277D01*
X163002821Y-111620284D01*
X163097467Y-111784216D01*
X163215753Y-111915586D01*
X163224129Y-111924888D01*
X163377265Y-112036148D01*
X163377270Y-112036151D01*
X163550192Y-112113142D01*
X163550197Y-112113144D01*
X163735354Y-112152500D01*
X163735355Y-112152500D01*
X163924644Y-112152500D01*
X163924646Y-112152500D01*
X164046185Y-112126666D01*
X164115849Y-112131982D01*
X164171582Y-112174119D01*
X164195688Y-112239698D01*
X164195284Y-112260911D01*
X164194540Y-112267993D01*
X164194540Y-112267997D01*
X164194540Y-112268000D01*
X164214326Y-112456256D01*
X164214327Y-112456259D01*
X164272818Y-112636277D01*
X164272821Y-112636284D01*
X164367467Y-112800216D01*
X164470369Y-112914500D01*
X164494129Y-112940888D01*
X164647265Y-113052148D01*
X164647270Y-113052151D01*
X164820192Y-113129142D01*
X164820197Y-113129144D01*
X165005354Y-113168500D01*
X165005355Y-113168500D01*
X165194644Y-113168500D01*
X165194646Y-113168500D01*
X165379803Y-113129144D01*
X165552730Y-113052151D01*
X165705871Y-112940888D01*
X165832533Y-112800216D01*
X165927179Y-112636284D01*
X165985674Y-112456256D01*
X166005460Y-112268000D01*
X165985674Y-112079744D01*
X165927179Y-111899716D01*
X165832533Y-111735784D01*
X165705871Y-111595112D01*
X165679534Y-111575977D01*
X165552734Y-111483851D01*
X165552729Y-111483848D01*
X165379807Y-111406857D01*
X165379802Y-111406855D01*
X165234001Y-111375865D01*
X165194646Y-111367500D01*
X165005354Y-111367500D01*
X165005353Y-111367500D01*
X164883816Y-111393333D01*
X164814149Y-111388017D01*
X164758416Y-111345880D01*
X164734311Y-111280300D01*
X164734716Y-111259078D01*
X164735460Y-111252000D01*
X164715674Y-111063744D01*
X164657179Y-110883716D01*
X164562533Y-110719784D01*
X164435871Y-110579112D01*
X164435870Y-110579111D01*
X164282734Y-110467851D01*
X164282729Y-110467848D01*
X164109807Y-110390857D01*
X164109802Y-110390855D01*
X163964001Y-110359865D01*
X163924646Y-110351500D01*
X163735354Y-110351500D01*
X163702897Y-110358398D01*
X163550197Y-110390855D01*
X163550192Y-110390857D01*
X163377270Y-110467848D01*
X163377265Y-110467851D01*
X163224129Y-110579111D01*
X163097466Y-110719785D01*
X163002821Y-110883715D01*
X163002818Y-110883722D01*
X162944327Y-111063740D01*
X162944326Y-111063744D01*
X162924540Y-111252000D01*
X162195460Y-111252000D01*
X162175674Y-111063744D01*
X162117179Y-110883716D01*
X162022533Y-110719784D01*
X161895871Y-110579112D01*
X161895870Y-110579111D01*
X161742734Y-110467851D01*
X161742729Y-110467848D01*
X161569807Y-110390857D01*
X161569802Y-110390855D01*
X161424001Y-110359865D01*
X161384646Y-110351500D01*
X161195354Y-110351500D01*
X161162897Y-110358398D01*
X161010197Y-110390855D01*
X161010192Y-110390857D01*
X160837270Y-110467848D01*
X160837266Y-110467851D01*
X160764625Y-110520627D01*
X160698819Y-110544106D01*
X160630765Y-110528280D01*
X160618856Y-110520626D01*
X160485234Y-110423544D01*
X160485229Y-110423541D01*
X160312307Y-110346550D01*
X160312302Y-110346548D01*
X160166500Y-110315558D01*
X160127146Y-110307193D01*
X159937854Y-110307193D01*
X159905397Y-110314091D01*
X159752697Y-110346548D01*
X159752692Y-110346550D01*
X159579770Y-110423541D01*
X159579765Y-110423544D01*
X159426629Y-110534804D01*
X159299966Y-110675478D01*
X159205321Y-110839408D01*
X159205318Y-110839415D01*
X159146827Y-111019433D01*
X159146826Y-111019437D01*
X159127040Y-111207693D01*
X159146826Y-111395949D01*
X159146827Y-111395952D01*
X159205318Y-111575970D01*
X159205321Y-111575977D01*
X159299967Y-111739909D01*
X159423696Y-111877324D01*
X159426629Y-111880581D01*
X159522316Y-111950102D01*
X159564982Y-112005432D01*
X159570961Y-112075045D01*
X159538355Y-112136840D01*
X159491928Y-112165750D01*
X159492134Y-112166212D01*
X159488810Y-112167691D01*
X159487755Y-112168349D01*
X159486197Y-112168855D01*
X159313270Y-112245848D01*
X159313265Y-112245851D01*
X159160129Y-112357111D01*
X159033466Y-112497785D01*
X158938821Y-112661715D01*
X158938818Y-112661722D01*
X158894490Y-112798151D01*
X158880326Y-112841744D01*
X158860540Y-113030000D01*
X156207500Y-113030000D01*
X156207500Y-112968270D01*
X156227185Y-112901232D01*
X156279989Y-112855477D01*
X156281020Y-112855011D01*
X156408730Y-112798151D01*
X156561871Y-112686888D01*
X156688533Y-112546216D01*
X156783179Y-112382284D01*
X156841674Y-112202256D01*
X156861460Y-112014000D01*
X156841674Y-111825744D01*
X156783179Y-111645716D01*
X156688533Y-111481784D01*
X156561871Y-111341112D01*
X156561870Y-111341111D01*
X156408734Y-111229851D01*
X156408729Y-111229848D01*
X156281064Y-111173007D01*
X156227827Y-111127756D01*
X156207506Y-111060907D01*
X156207500Y-111059728D01*
X156207500Y-110275000D01*
X156227185Y-110207961D01*
X156279989Y-110162206D01*
X156349147Y-110152262D01*
X156404382Y-110174680D01*
X156519266Y-110258148D01*
X156519270Y-110258151D01*
X156692192Y-110335142D01*
X156692197Y-110335144D01*
X156877354Y-110374500D01*
X156877355Y-110374500D01*
X157066644Y-110374500D01*
X157066646Y-110374500D01*
X157251803Y-110335144D01*
X157424730Y-110258151D01*
X157577871Y-110146888D01*
X157704533Y-110006216D01*
X157799179Y-109842284D01*
X157857674Y-109662256D01*
X157877460Y-109474000D01*
X157857674Y-109285744D01*
X157799179Y-109105716D01*
X157704533Y-108941784D01*
X157577871Y-108801112D01*
X157571932Y-108796797D01*
X157424734Y-108689851D01*
X157424729Y-108689848D01*
X157251807Y-108612857D01*
X157251802Y-108612855D01*
X157106001Y-108581865D01*
X157066646Y-108573500D01*
X156877354Y-108573500D01*
X156844897Y-108580398D01*
X156692197Y-108612855D01*
X156692192Y-108612857D01*
X156519270Y-108689848D01*
X156519265Y-108689851D01*
X156404385Y-108773317D01*
X156338579Y-108796797D01*
X156270525Y-108780971D01*
X156221830Y-108730866D01*
X156207500Y-108672999D01*
X156207500Y-106426000D01*
X161654540Y-106426000D01*
X161674326Y-106614256D01*
X161674327Y-106614259D01*
X161732818Y-106794277D01*
X161732821Y-106794284D01*
X161827467Y-106958216D01*
X161894931Y-107033142D01*
X161954129Y-107098888D01*
X162107265Y-107210148D01*
X162107270Y-107210151D01*
X162280192Y-107287142D01*
X162280197Y-107287144D01*
X162465354Y-107326500D01*
X162465355Y-107326500D01*
X162654644Y-107326500D01*
X162654646Y-107326500D01*
X162839803Y-107287144D01*
X163012730Y-107210151D01*
X163165871Y-107098888D01*
X163292533Y-106958216D01*
X163387179Y-106794284D01*
X163445674Y-106614256D01*
X163465460Y-106426000D01*
X163445674Y-106237744D01*
X163387179Y-106057716D01*
X163292533Y-105893784D01*
X163165871Y-105753112D01*
X163165870Y-105753111D01*
X163012734Y-105641851D01*
X163012729Y-105641848D01*
X162839807Y-105564857D01*
X162839802Y-105564855D01*
X162694000Y-105533865D01*
X162654646Y-105525500D01*
X162465354Y-105525500D01*
X162432897Y-105532398D01*
X162280197Y-105564855D01*
X162280192Y-105564857D01*
X162107270Y-105641848D01*
X162107265Y-105641851D01*
X161954129Y-105753111D01*
X161827466Y-105893785D01*
X161732821Y-106057715D01*
X161732818Y-106057722D01*
X161675986Y-106232634D01*
X161674326Y-106237744D01*
X161654540Y-106426000D01*
X156207500Y-106426000D01*
X156207500Y-106041009D01*
X156200501Y-105957186D01*
X156200501Y-105957183D01*
X156193682Y-105916629D01*
X156172879Y-105835123D01*
X156172878Y-105835121D01*
X156172877Y-105835116D01*
X156144204Y-105779500D01*
X156106951Y-105707240D01*
X156106950Y-105707237D01*
X156088981Y-105682004D01*
X156066417Y-105650317D01*
X156066416Y-105650316D01*
X156066414Y-105650313D01*
X156066410Y-105650309D01*
X156040020Y-105622632D01*
X156008003Y-105560530D01*
X156014644Y-105490977D01*
X156036048Y-105455860D01*
X156107567Y-105373325D01*
X156167338Y-105242448D01*
X156187023Y-105175409D01*
X156187024Y-105175405D01*
X156207500Y-105032989D01*
X156207500Y-100296816D01*
X156227185Y-100229777D01*
X156234666Y-100219362D01*
X156423255Y-99983624D01*
X156480503Y-99943574D01*
X156550319Y-99940831D01*
X156610534Y-99976270D01*
X156612209Y-99978092D01*
X156620129Y-99986888D01*
X156656967Y-100013652D01*
X156773265Y-100098148D01*
X156773270Y-100098151D01*
X156946192Y-100175142D01*
X156946197Y-100175144D01*
X157131354Y-100214500D01*
X157131355Y-100214500D01*
X157320644Y-100214500D01*
X157320646Y-100214500D01*
X157505803Y-100175144D01*
X157678730Y-100098151D01*
X157831871Y-99986888D01*
X157895850Y-99915831D01*
X157955337Y-99879183D01*
X158025194Y-99880514D01*
X158080149Y-99915831D01*
X158136232Y-99978117D01*
X158144129Y-99986888D01*
X158297265Y-100098148D01*
X158297270Y-100098151D01*
X158470192Y-100175142D01*
X158470197Y-100175144D01*
X158655354Y-100214500D01*
X158655355Y-100214500D01*
X158844644Y-100214500D01*
X158844646Y-100214500D01*
X159029803Y-100175144D01*
X159202730Y-100098151D01*
X159355871Y-99986888D01*
X159482533Y-99846216D01*
X159577179Y-99682284D01*
X159635674Y-99502256D01*
X159644052Y-99422536D01*
X159670637Y-99357924D01*
X159727934Y-99317939D01*
X159767373Y-99311500D01*
X168615047Y-99311500D01*
X168682086Y-99331185D01*
X168727841Y-99383989D01*
X168737785Y-99453147D01*
X168734822Y-99467593D01*
X168702938Y-99586586D01*
X168702936Y-99586596D01*
X168682341Y-99821999D01*
X168682341Y-99822000D01*
X168702936Y-100057403D01*
X168702938Y-100057413D01*
X168764094Y-100285655D01*
X168764096Y-100285659D01*
X168764097Y-100285663D01*
X168844004Y-100457023D01*
X168863965Y-100499830D01*
X168863967Y-100499834D01*
X168972281Y-100654521D01*
X168999504Y-100693400D01*
X168999506Y-100693402D01*
X169166597Y-100860493D01*
X169166603Y-100860498D01*
X169352158Y-100990425D01*
X169395783Y-101045002D01*
X169402977Y-101114500D01*
X169371454Y-101176855D01*
X169352158Y-101193575D01*
X169166597Y-101323505D01*
X168999505Y-101490597D01*
X168863965Y-101684169D01*
X168863964Y-101684171D01*
X168764098Y-101898335D01*
X168764094Y-101898344D01*
X168702938Y-102126586D01*
X168702936Y-102126596D01*
X168682341Y-102361999D01*
X168682341Y-102362000D01*
X168702936Y-102597403D01*
X168702938Y-102597413D01*
X168764094Y-102825655D01*
X168764096Y-102825659D01*
X168764097Y-102825663D01*
X168836832Y-102981644D01*
X168863965Y-103039830D01*
X168863967Y-103039834D01*
X168938412Y-103146151D01*
X168999505Y-103233401D01*
X169166599Y-103400495D01*
X169333439Y-103517318D01*
X169352594Y-103530730D01*
X169396219Y-103585307D01*
X169403413Y-103654805D01*
X169371890Y-103717160D01*
X169352595Y-103733880D01*
X169166922Y-103863890D01*
X169166920Y-103863891D01*
X168999891Y-104030920D01*
X168999886Y-104030926D01*
X168864400Y-104224420D01*
X168864399Y-104224422D01*
X168764570Y-104438507D01*
X168764567Y-104438513D01*
X168707364Y-104651999D01*
X168707364Y-104652000D01*
X169604314Y-104652000D01*
X169578507Y-104692156D01*
X169538000Y-104830111D01*
X169538000Y-104973889D01*
X169578507Y-105111844D01*
X169604314Y-105152000D01*
X168707364Y-105152000D01*
X168764567Y-105365486D01*
X168764570Y-105365492D01*
X168864399Y-105579578D01*
X168999894Y-105773082D01*
X169166917Y-105940105D01*
X169360421Y-106075600D01*
X169574507Y-106175429D01*
X169574516Y-106175433D01*
X169788000Y-106232634D01*
X169788000Y-105337501D01*
X169895685Y-105386680D01*
X170002237Y-105402000D01*
X170073763Y-105402000D01*
X170180315Y-105386680D01*
X170288000Y-105337501D01*
X170288000Y-106232633D01*
X170501483Y-106175433D01*
X170501492Y-106175429D01*
X170715578Y-106075600D01*
X170909078Y-105940108D01*
X171031133Y-105818053D01*
X171092456Y-105784568D01*
X171162148Y-105789552D01*
X171218082Y-105831423D01*
X171234997Y-105862401D01*
X171284202Y-105994328D01*
X171284206Y-105994335D01*
X171370452Y-106109544D01*
X171370455Y-106109547D01*
X171485664Y-106195793D01*
X171485671Y-106195797D01*
X171620517Y-106246091D01*
X171620516Y-106246091D01*
X171627444Y-106246835D01*
X171680127Y-106252500D01*
X173475872Y-106252499D01*
X173535483Y-106246091D01*
X173670331Y-106195796D01*
X173702118Y-106172000D01*
X177148540Y-106172000D01*
X177168326Y-106360256D01*
X177168327Y-106360259D01*
X177226818Y-106540277D01*
X177226821Y-106540284D01*
X177321467Y-106704216D01*
X177391889Y-106782427D01*
X177448129Y-106844888D01*
X177601265Y-106956148D01*
X177601270Y-106956151D01*
X177774192Y-107033142D01*
X177774197Y-107033144D01*
X177959354Y-107072500D01*
X177959355Y-107072500D01*
X178148644Y-107072500D01*
X178148646Y-107072500D01*
X178333803Y-107033144D01*
X178506730Y-106956151D01*
X178659871Y-106844888D01*
X178786533Y-106704216D01*
X178881179Y-106540284D01*
X178939674Y-106360256D01*
X178959460Y-106172000D01*
X178939674Y-105983744D01*
X178881179Y-105803716D01*
X178786533Y-105639784D01*
X178659871Y-105499112D01*
X178659870Y-105499111D01*
X178506734Y-105387851D01*
X178506729Y-105387848D01*
X178333807Y-105310857D01*
X178333802Y-105310855D01*
X178188001Y-105279865D01*
X178148646Y-105271500D01*
X177959354Y-105271500D01*
X177926897Y-105278398D01*
X177774197Y-105310855D01*
X177774192Y-105310857D01*
X177601270Y-105387848D01*
X177601265Y-105387851D01*
X177448129Y-105499111D01*
X177321466Y-105639785D01*
X177226821Y-105803715D01*
X177226818Y-105803722D01*
X177196884Y-105895851D01*
X177168326Y-105983744D01*
X177148540Y-106172000D01*
X173702118Y-106172000D01*
X173785546Y-106109546D01*
X173871796Y-105994331D01*
X173922091Y-105859483D01*
X173928500Y-105799873D01*
X173928499Y-104004128D01*
X173922091Y-103944517D01*
X173921002Y-103941598D01*
X173871797Y-103809671D01*
X173871793Y-103809664D01*
X173785547Y-103694455D01*
X173785544Y-103694452D01*
X173670335Y-103608206D01*
X173670328Y-103608202D01*
X173538917Y-103559189D01*
X173482983Y-103517318D01*
X173458566Y-103451853D01*
X173473418Y-103383580D01*
X173494563Y-103355332D01*
X173616495Y-103233401D01*
X173752035Y-103039830D01*
X173851903Y-102825663D01*
X173913063Y-102597408D01*
X173933659Y-102362000D01*
X173913063Y-102126592D01*
X173851903Y-101898337D01*
X173752035Y-101684171D01*
X173746425Y-101676158D01*
X173616494Y-101490597D01*
X173449402Y-101323506D01*
X173449396Y-101323501D01*
X173263842Y-101193575D01*
X173220217Y-101138998D01*
X173213023Y-101069500D01*
X173244546Y-101007145D01*
X173263842Y-100990425D01*
X173286026Y-100974891D01*
X173449401Y-100860495D01*
X173616495Y-100693401D01*
X173752035Y-100499830D01*
X173851903Y-100285663D01*
X173913063Y-100057408D01*
X173933659Y-99822000D01*
X176698341Y-99822000D01*
X176718936Y-100057403D01*
X176718938Y-100057413D01*
X176780094Y-100285655D01*
X176780096Y-100285659D01*
X176780097Y-100285663D01*
X176860004Y-100457023D01*
X176879965Y-100499830D01*
X176879967Y-100499834D01*
X176988281Y-100654521D01*
X177015505Y-100693401D01*
X177182599Y-100860495D01*
X177279384Y-100928264D01*
X177376165Y-100996032D01*
X177376167Y-100996033D01*
X177376170Y-100996035D01*
X177590337Y-101095903D01*
X177818592Y-101157063D01*
X178006918Y-101173539D01*
X178053999Y-101177659D01*
X178054000Y-101177659D01*
X178054001Y-101177659D01*
X178093234Y-101174226D01*
X178289408Y-101157063D01*
X178517663Y-101095903D01*
X178731830Y-100996035D01*
X178925401Y-100860495D01*
X179092495Y-100693401D01*
X179228035Y-100499830D01*
X179327903Y-100285663D01*
X179389063Y-100057408D01*
X179409659Y-99822000D01*
X179389063Y-99586592D01*
X179327903Y-99358337D01*
X179228035Y-99144171D01*
X179227426Y-99143300D01*
X179092494Y-98950597D01*
X178925402Y-98783506D01*
X178925396Y-98783501D01*
X178739842Y-98653575D01*
X178696217Y-98598998D01*
X178689023Y-98529500D01*
X178720546Y-98467145D01*
X178739842Y-98450425D01*
X178830262Y-98387112D01*
X178925401Y-98320495D01*
X179092495Y-98153401D01*
X179228035Y-97959830D01*
X179327903Y-97745663D01*
X179389063Y-97517408D01*
X179409659Y-97282000D01*
X179389063Y-97046592D01*
X179327903Y-96818337D01*
X179228035Y-96604171D01*
X179186055Y-96544216D01*
X179092494Y-96410597D01*
X178925402Y-96243506D01*
X178925396Y-96243501D01*
X178739842Y-96113575D01*
X178696217Y-96058998D01*
X178689023Y-95989500D01*
X178720546Y-95927145D01*
X178739842Y-95910425D01*
X178863635Y-95823744D01*
X178925401Y-95780495D01*
X179092495Y-95613401D01*
X179228035Y-95419830D01*
X179327903Y-95205663D01*
X179389063Y-94977408D01*
X179409659Y-94742000D01*
X179389063Y-94506592D01*
X179327903Y-94278337D01*
X179228035Y-94064171D01*
X179217213Y-94048716D01*
X179092496Y-93870600D01*
X179047038Y-93825142D01*
X178970179Y-93748283D01*
X178936696Y-93686963D01*
X178941680Y-93617271D01*
X178983551Y-93561337D01*
X179014529Y-93544422D01*
X179146086Y-93495354D01*
X179146093Y-93495350D01*
X179261187Y-93409190D01*
X179261190Y-93409187D01*
X179347350Y-93294093D01*
X179347354Y-93294086D01*
X179397596Y-93159379D01*
X179397598Y-93159372D01*
X179403999Y-93099844D01*
X179404000Y-93099827D01*
X179404000Y-92452000D01*
X178487686Y-92452000D01*
X178513493Y-92411844D01*
X178554000Y-92273889D01*
X178554000Y-92130111D01*
X178513493Y-91992156D01*
X178487686Y-91952000D01*
X179404000Y-91952000D01*
X179404000Y-91304172D01*
X179403999Y-91304155D01*
X179397598Y-91244627D01*
X179397596Y-91244620D01*
X179347354Y-91109913D01*
X179347350Y-91109906D01*
X179261190Y-90994812D01*
X179261187Y-90994809D01*
X179146093Y-90908649D01*
X179146086Y-90908645D01*
X179011379Y-90858403D01*
X179011372Y-90858401D01*
X178951844Y-90852000D01*
X178304000Y-90852000D01*
X178304000Y-91766498D01*
X178196315Y-91717320D01*
X178089763Y-91702000D01*
X178018237Y-91702000D01*
X177911685Y-91717320D01*
X177804000Y-91766498D01*
X177804000Y-90852000D01*
X177156155Y-90852000D01*
X177096627Y-90858401D01*
X177096620Y-90858403D01*
X176961913Y-90908645D01*
X176961906Y-90908649D01*
X176846812Y-90994809D01*
X176846809Y-90994812D01*
X176760649Y-91109906D01*
X176760645Y-91109913D01*
X176710403Y-91244620D01*
X176710401Y-91244627D01*
X176704000Y-91304155D01*
X176704000Y-91952000D01*
X177620314Y-91952000D01*
X177594507Y-91992156D01*
X177554000Y-92130111D01*
X177554000Y-92273889D01*
X177594507Y-92411844D01*
X177620314Y-92452000D01*
X176704000Y-92452000D01*
X176704000Y-93099844D01*
X176710401Y-93159372D01*
X176710403Y-93159379D01*
X176760645Y-93294086D01*
X176760649Y-93294093D01*
X176846809Y-93409187D01*
X176846812Y-93409190D01*
X176961906Y-93495350D01*
X176961913Y-93495354D01*
X177093470Y-93544421D01*
X177149403Y-93586292D01*
X177173821Y-93651756D01*
X177158970Y-93720029D01*
X177137819Y-93748284D01*
X177015503Y-93870600D01*
X176879965Y-94064169D01*
X176879964Y-94064171D01*
X176780098Y-94278335D01*
X176780094Y-94278344D01*
X176718938Y-94506586D01*
X176718936Y-94506596D01*
X176698341Y-94741999D01*
X176698341Y-94742000D01*
X176718936Y-94977403D01*
X176718938Y-94977413D01*
X176780094Y-95205655D01*
X176780096Y-95205659D01*
X176780097Y-95205663D01*
X176879965Y-95419830D01*
X176879967Y-95419834D01*
X177015501Y-95613395D01*
X177015506Y-95613402D01*
X177182597Y-95780493D01*
X177182603Y-95780498D01*
X177368158Y-95910425D01*
X177411783Y-95965002D01*
X177418977Y-96034500D01*
X177387454Y-96096855D01*
X177368158Y-96113575D01*
X177182597Y-96243505D01*
X177015505Y-96410597D01*
X176879965Y-96604169D01*
X176879964Y-96604171D01*
X176780098Y-96818335D01*
X176780094Y-96818344D01*
X176718938Y-97046586D01*
X176718936Y-97046596D01*
X176698341Y-97281999D01*
X176698341Y-97282000D01*
X176718936Y-97517403D01*
X176718938Y-97517413D01*
X176780094Y-97745655D01*
X176780096Y-97745659D01*
X176780097Y-97745663D01*
X176829611Y-97851845D01*
X176879965Y-97959830D01*
X176879967Y-97959834D01*
X177015501Y-98153395D01*
X177015506Y-98153402D01*
X177182597Y-98320493D01*
X177182603Y-98320498D01*
X177368158Y-98450425D01*
X177411783Y-98505002D01*
X177418977Y-98574500D01*
X177387454Y-98636855D01*
X177368158Y-98653575D01*
X177182597Y-98783505D01*
X177015505Y-98950597D01*
X176879965Y-99144169D01*
X176879964Y-99144171D01*
X176780098Y-99358335D01*
X176780094Y-99358344D01*
X176718938Y-99586586D01*
X176718936Y-99586596D01*
X176698341Y-99821999D01*
X176698341Y-99822000D01*
X173933659Y-99822000D01*
X173913063Y-99586592D01*
X173851903Y-99358337D01*
X173752035Y-99144171D01*
X173751426Y-99143300D01*
X173616494Y-98950597D01*
X173449402Y-98783506D01*
X173449396Y-98783501D01*
X173263842Y-98653575D01*
X173220217Y-98598998D01*
X173213023Y-98529500D01*
X173244546Y-98467145D01*
X173263842Y-98450425D01*
X173354262Y-98387112D01*
X173449401Y-98320495D01*
X173616495Y-98153401D01*
X173752035Y-97959830D01*
X173851903Y-97745663D01*
X173913063Y-97517408D01*
X173933659Y-97282000D01*
X173913063Y-97046592D01*
X173851903Y-96818337D01*
X173752035Y-96604171D01*
X173710055Y-96544216D01*
X173616494Y-96410597D01*
X173449402Y-96243506D01*
X173449396Y-96243501D01*
X173263842Y-96113575D01*
X173220217Y-96058998D01*
X173213023Y-95989500D01*
X173244546Y-95927145D01*
X173263842Y-95910425D01*
X173387635Y-95823744D01*
X173449401Y-95780495D01*
X173616495Y-95613401D01*
X173752035Y-95419830D01*
X173851903Y-95205663D01*
X173913063Y-94977408D01*
X173933659Y-94742000D01*
X173913063Y-94506592D01*
X173851903Y-94278337D01*
X173752035Y-94064171D01*
X173741214Y-94048716D01*
X173616494Y-93870597D01*
X173449402Y-93703506D01*
X173449396Y-93703501D01*
X173263842Y-93573575D01*
X173220217Y-93518998D01*
X173213023Y-93449500D01*
X173244546Y-93387145D01*
X173263842Y-93370425D01*
X173318323Y-93332277D01*
X173449401Y-93240495D01*
X173616495Y-93073401D01*
X173752035Y-92879830D01*
X173851903Y-92665663D01*
X173913063Y-92437408D01*
X173933659Y-92202000D01*
X173913063Y-91966592D01*
X173851903Y-91738337D01*
X173752035Y-91524171D01*
X173616495Y-91330599D01*
X173616494Y-91330597D01*
X173449402Y-91163506D01*
X173449396Y-91163501D01*
X173263842Y-91033575D01*
X173220217Y-90978998D01*
X173213023Y-90909500D01*
X173244546Y-90847145D01*
X173263842Y-90830425D01*
X173345890Y-90772974D01*
X173449401Y-90700495D01*
X173616495Y-90533401D01*
X173752035Y-90339830D01*
X173851903Y-90125663D01*
X173913063Y-89897408D01*
X173933659Y-89662000D01*
X173913063Y-89426592D01*
X173851903Y-89198337D01*
X173761308Y-89004058D01*
X173750817Y-88934983D01*
X173779336Y-88871199D01*
X173792500Y-88857932D01*
X173793347Y-88857199D01*
X173887567Y-88748465D01*
X173947338Y-88617588D01*
X173967023Y-88550549D01*
X173967024Y-88550545D01*
X173987500Y-88408129D01*
X173987500Y-85384317D01*
X174007185Y-85317278D01*
X174059989Y-85271523D01*
X174129147Y-85261579D01*
X174192703Y-85290604D01*
X174199180Y-85296635D01*
X174438494Y-85535949D01*
X174542475Y-85620151D01*
X174723635Y-85766852D01*
X174854752Y-85852000D01*
X175031348Y-85966682D01*
X175358264Y-86133255D01*
X175588151Y-86221500D01*
X175690677Y-86260856D01*
X175700801Y-86264742D01*
X176055206Y-86359705D01*
X176417596Y-86417102D01*
X176763734Y-86435241D01*
X176783999Y-86436304D01*
X176784000Y-86436304D01*
X176784001Y-86436304D01*
X176803203Y-86435297D01*
X177150404Y-86417102D01*
X177512794Y-86359705D01*
X177867199Y-86264742D01*
X178209736Y-86133255D01*
X178536652Y-85966682D01*
X178844366Y-85766851D01*
X179129506Y-85535949D01*
X179388949Y-85276506D01*
X179619851Y-84991366D01*
X179819682Y-84683652D01*
X179986255Y-84356736D01*
X180117742Y-84014199D01*
X180212705Y-83659794D01*
X180270102Y-83297404D01*
X180289304Y-82931000D01*
X180270102Y-82564596D01*
X180212705Y-82202206D01*
X180117742Y-81847801D01*
X180104081Y-81812214D01*
X179986253Y-81505260D01*
X179967398Y-81468256D01*
X179819682Y-81178348D01*
X179819679Y-81178343D01*
X179619852Y-80870635D01*
X179388952Y-80585498D01*
X179388949Y-80585494D01*
X179129506Y-80326051D01*
X179097010Y-80299736D01*
X178844364Y-80095147D01*
X178536656Y-79895320D01*
X178209739Y-79728746D01*
X177867206Y-79597260D01*
X177867199Y-79597258D01*
X177512794Y-79502295D01*
X177512790Y-79502294D01*
X177512789Y-79502294D01*
X177150405Y-79444898D01*
X176784001Y-79425696D01*
X176783999Y-79425696D01*
X176417594Y-79444898D01*
X176055211Y-79502294D01*
X176055209Y-79502294D01*
X175700793Y-79597260D01*
X175358260Y-79728746D01*
X175031343Y-79895320D01*
X174723635Y-80095147D01*
X174438498Y-80326047D01*
X174438490Y-80326054D01*
X174179054Y-80585490D01*
X174179047Y-80585498D01*
X173948147Y-80870635D01*
X173748320Y-81178343D01*
X173581746Y-81505260D01*
X173450260Y-81847793D01*
X173355294Y-82202209D01*
X173355294Y-82202211D01*
X173297898Y-82564594D01*
X173278696Y-82930999D01*
X173278696Y-82931000D01*
X173297898Y-83297405D01*
X173303371Y-83331959D01*
X173294417Y-83401252D01*
X173249420Y-83454704D01*
X173182669Y-83475344D01*
X173122447Y-83460717D01*
X173102807Y-83450219D01*
X173088896Y-83443639D01*
X173080378Y-83439611D01*
X173080373Y-83439609D01*
X173080369Y-83439607D01*
X173080367Y-83439606D01*
X173035003Y-83420813D01*
X173011614Y-83412444D01*
X172823637Y-83355422D01*
X172823636Y-83355422D01*
X172823629Y-83355420D01*
X172817702Y-83353935D01*
X172799559Y-83349391D01*
X172751387Y-83339809D01*
X172726836Y-83336168D01*
X172726838Y-83336168D01*
X172568094Y-83320533D01*
X172528410Y-83316625D01*
X172522229Y-83316169D01*
X172516049Y-83315713D01*
X172497575Y-83314805D01*
X172489800Y-83314614D01*
X172485160Y-83314500D01*
X172485159Y-83314500D01*
X171639642Y-83314500D01*
X171572603Y-83294815D01*
X171526848Y-83242011D01*
X171516904Y-83172853D01*
X171521711Y-83152182D01*
X171554532Y-83051168D01*
X171573674Y-82992256D01*
X171593460Y-82804000D01*
X171573674Y-82615744D01*
X171515179Y-82435716D01*
X171420533Y-82271784D01*
X171293871Y-82131112D01*
X171287891Y-82126767D01*
X171140734Y-82019851D01*
X171140729Y-82019848D01*
X170967807Y-81942857D01*
X170967802Y-81942855D01*
X170822001Y-81911865D01*
X170782646Y-81903500D01*
X170593354Y-81903500D01*
X170560897Y-81910398D01*
X170408197Y-81942855D01*
X170408192Y-81942857D01*
X170235270Y-82019848D01*
X170235265Y-82019851D01*
X170082129Y-82131111D01*
X169955466Y-82271785D01*
X169860821Y-82435715D01*
X169860818Y-82435722D01*
X169818945Y-82564596D01*
X169802326Y-82615744D01*
X169782540Y-82804000D01*
X169802326Y-82992256D01*
X169802327Y-82992259D01*
X169854289Y-83152182D01*
X169856284Y-83222023D01*
X169820204Y-83281856D01*
X169757503Y-83312684D01*
X169736358Y-83314500D01*
X163361786Y-83314500D01*
X163358644Y-83314529D01*
X163357072Y-83314544D01*
X163356997Y-83314545D01*
X163352158Y-83314613D01*
X163352154Y-83314613D01*
X163352152Y-83314614D01*
X163281152Y-83326206D01*
X163210150Y-83337799D01*
X163143507Y-83358753D01*
X163143504Y-83358755D01*
X163013795Y-83421002D01*
X162906867Y-83517277D01*
X162862128Y-83570939D01*
X162786654Y-83693443D01*
X162748753Y-83832246D01*
X162740129Y-83901580D01*
X162742869Y-84045435D01*
X162742869Y-84045438D01*
X162786021Y-84182677D01*
X162786027Y-84182691D01*
X162816255Y-84245680D01*
X162816260Y-84245688D01*
X162856194Y-84305299D01*
X162858378Y-84308807D01*
X162916319Y-84409164D01*
X162926863Y-84432845D01*
X162944468Y-84487026D01*
X162949858Y-84512382D01*
X162955813Y-84569037D01*
X162955813Y-84594960D01*
X162949858Y-84651615D01*
X162944468Y-84676971D01*
X162926864Y-84731151D01*
X162916320Y-84754833D01*
X162887836Y-84804169D01*
X162872599Y-84825141D01*
X162834488Y-84867468D01*
X162815221Y-84884816D01*
X162769124Y-84918306D01*
X162746677Y-84931265D01*
X162694639Y-84954434D01*
X162669986Y-84962445D01*
X162632790Y-84970352D01*
X162614263Y-84974290D01*
X162588482Y-84977000D01*
X162531516Y-84977000D01*
X162505736Y-84974290D01*
X162483984Y-84969666D01*
X162450010Y-84962445D01*
X162425356Y-84954434D01*
X162373325Y-84931268D01*
X162350878Y-84918308D01*
X162304777Y-84884815D01*
X162285514Y-84867472D01*
X162247397Y-84825139D01*
X162232162Y-84804169D01*
X162203678Y-84754833D01*
X162193136Y-84731155D01*
X162175530Y-84676971D01*
X162170141Y-84651617D01*
X162164186Y-84594958D01*
X162164186Y-84569037D01*
X162164186Y-84569035D01*
X162170141Y-84512374D01*
X162175530Y-84487026D01*
X162193135Y-84432841D01*
X162203672Y-84409176D01*
X162256815Y-84317127D01*
X162258319Y-84314660D01*
X162309389Y-84235195D01*
X162338414Y-84171639D01*
X162338416Y-84171636D01*
X162378950Y-84033583D01*
X162378949Y-83889703D01*
X162369005Y-83820545D01*
X162328470Y-83682496D01*
X162250682Y-83561457D01*
X162245579Y-83555568D01*
X162204933Y-83508659D01*
X162204929Y-83508656D01*
X162204927Y-83508653D01*
X162096193Y-83414433D01*
X162096190Y-83414431D01*
X162096188Y-83414430D01*
X161965322Y-83354664D01*
X161965317Y-83354662D01*
X161965316Y-83354662D01*
X161942715Y-83348025D01*
X161898282Y-83334978D01*
X161898276Y-83334976D01*
X161812823Y-83322690D01*
X161755857Y-83314500D01*
X161755855Y-83314500D01*
X150743500Y-83314500D01*
X150676461Y-83294815D01*
X150630706Y-83242011D01*
X150619500Y-83190500D01*
X150619500Y-83043824D01*
X150619500Y-83043817D01*
X150617909Y-83015495D01*
X150608389Y-82930999D01*
X150597194Y-82831639D01*
X150597193Y-82831638D01*
X150597192Y-82831628D01*
X150592440Y-82803661D01*
X150579949Y-82748935D01*
X150574886Y-82731361D01*
X150572099Y-82721684D01*
X150572099Y-82721686D01*
X150572097Y-82721679D01*
X150515602Y-82560228D01*
X150504749Y-82534026D01*
X150480395Y-82483453D01*
X150480389Y-82483442D01*
X150480390Y-82483443D01*
X150466675Y-82458625D01*
X150466675Y-82458626D01*
X150375660Y-82313775D01*
X150359240Y-82290634D01*
X150359239Y-82290633D01*
X150324243Y-82246752D01*
X150305352Y-82225612D01*
X150305352Y-82225613D01*
X150305344Y-82225604D01*
X150222234Y-82142494D01*
X150219999Y-82140139D01*
X150211872Y-82131113D01*
X150207045Y-82126767D01*
X150207201Y-82126593D01*
X150201244Y-82121504D01*
X150184395Y-82104655D01*
X150184386Y-82104647D01*
X150184387Y-82104647D01*
X150163247Y-82085756D01*
X150119362Y-82050757D01*
X150119363Y-82050757D01*
X150107215Y-82042138D01*
X150096224Y-82034340D01*
X150096216Y-82034335D01*
X150096209Y-82034330D01*
X150096208Y-82034329D01*
X149994273Y-81970279D01*
X149951372Y-81943323D01*
X149951365Y-81943319D01*
X149951364Y-81943318D01*
X149926540Y-81929599D01*
X149875972Y-81905250D01*
X149875973Y-81905250D01*
X149855600Y-81896812D01*
X149849774Y-81894399D01*
X149688312Y-81837900D01*
X149661047Y-81830044D01*
X149661046Y-81830044D01*
X149637678Y-81824711D01*
X149606333Y-81817558D01*
X149606325Y-81817556D01*
X149606318Y-81817555D01*
X149578363Y-81812805D01*
X149578362Y-81812805D01*
X149405000Y-81793272D01*
X149390845Y-81792079D01*
X149369745Y-81790896D01*
X149355597Y-81790500D01*
X149355596Y-81790500D01*
X146792839Y-81790500D01*
X146780421Y-81790805D01*
X146761950Y-81791714D01*
X146749591Y-81792626D01*
X146686681Y-81798821D01*
X146551168Y-81812167D01*
X146551167Y-81812167D01*
X146551160Y-81812167D01*
X146551160Y-81812168D01*
X146548850Y-81812510D01*
X146526619Y-81815808D01*
X146526615Y-81815808D01*
X146526608Y-81815810D01*
X146478442Y-81825391D01*
X146464656Y-81828844D01*
X146454379Y-81831418D01*
X146454381Y-81831418D01*
X146454376Y-81831419D01*
X146454370Y-81831421D01*
X146400372Y-81847801D01*
X146266377Y-81888447D01*
X146266378Y-81888447D01*
X146243000Y-81896812D01*
X146242988Y-81896816D01*
X146242985Y-81896818D01*
X146242984Y-81896818D01*
X146207357Y-81911576D01*
X146197625Y-81915608D01*
X146197623Y-81915609D01*
X146197622Y-81915609D01*
X146175196Y-81926217D01*
X146001961Y-82018813D01*
X145980675Y-82031571D01*
X145939838Y-82058857D01*
X145919902Y-82073642D01*
X145919903Y-82073641D01*
X145849875Y-82131112D01*
X145789697Y-82180500D01*
X145768056Y-82198260D01*
X145768050Y-82198265D01*
X145763696Y-82202211D01*
X145749647Y-82214944D01*
X145749647Y-82214945D01*
X145714945Y-82249647D01*
X145714944Y-82249647D01*
X145698260Y-82268056D01*
X145698261Y-82268055D01*
X145573641Y-82419903D01*
X145573642Y-82419902D01*
X145558857Y-82439838D01*
X145531571Y-82480675D01*
X145518813Y-82501961D01*
X145457998Y-82615740D01*
X145426218Y-82675196D01*
X145426217Y-82675196D01*
X145415609Y-82697622D01*
X145415609Y-82697623D01*
X145396818Y-82742984D01*
X145396818Y-82742985D01*
X145396812Y-82743000D01*
X145388447Y-82766378D01*
X145388447Y-82766377D01*
X145361421Y-82855470D01*
X145331421Y-82954370D01*
X145331418Y-82954381D01*
X145331418Y-82954379D01*
X145328844Y-82964656D01*
X145325391Y-82978442D01*
X145315810Y-83026608D01*
X145315808Y-83026620D01*
X145315808Y-83026619D01*
X145312167Y-83051167D01*
X145312167Y-83051168D01*
X145292625Y-83249590D01*
X145291713Y-83261950D01*
X145290805Y-83280424D01*
X145290500Y-83292840D01*
X145290500Y-83881728D01*
X145270815Y-83948767D01*
X145218011Y-83994522D01*
X145216936Y-83995007D01*
X145089270Y-84051848D01*
X145089265Y-84051851D01*
X144936129Y-84163111D01*
X144809466Y-84303785D01*
X144714821Y-84467715D01*
X144714818Y-84467722D01*
X144666985Y-84614938D01*
X144656326Y-84647744D01*
X144636540Y-84836000D01*
X144656326Y-85024256D01*
X144656327Y-85024259D01*
X144716829Y-85210465D01*
X144714650Y-85211172D01*
X144722531Y-85270030D01*
X144700166Y-85317768D01*
X144742095Y-85318168D01*
X144800511Y-85356500D01*
X144806347Y-85363921D01*
X144809464Y-85368212D01*
X144809467Y-85368216D01*
X144854286Y-85417992D01*
X144936129Y-85508888D01*
X145089265Y-85620148D01*
X145089266Y-85620148D01*
X145089270Y-85620151D01*
X145216936Y-85676992D01*
X145270173Y-85722242D01*
X145290494Y-85789091D01*
X145290500Y-85790271D01*
X145290500Y-92675219D01*
X145270815Y-92742258D01*
X145218011Y-92788013D01*
X145148853Y-92797957D01*
X145093615Y-92775538D01*
X145079113Y-92765002D01*
X145034170Y-92732349D01*
X145034168Y-92732348D01*
X145034169Y-92732348D01*
X144861247Y-92655357D01*
X144861242Y-92655355D01*
X144715441Y-92624365D01*
X144676086Y-92616000D01*
X144486794Y-92616000D01*
X144454337Y-92622898D01*
X144301637Y-92655355D01*
X144301632Y-92655357D01*
X144128710Y-92732348D01*
X144128705Y-92732351D01*
X143975569Y-92843611D01*
X143848906Y-92984285D01*
X143754261Y-93148215D01*
X143754258Y-93148222D01*
X143706862Y-93294093D01*
X143695766Y-93328244D01*
X143675980Y-93516500D01*
X142356771Y-93516500D01*
X142305179Y-93357716D01*
X142210533Y-93193784D01*
X142083871Y-93053112D01*
X142083870Y-93053111D01*
X141930734Y-92941851D01*
X141930729Y-92941848D01*
X141757807Y-92864857D01*
X141757802Y-92864855D01*
X141612000Y-92833865D01*
X141572646Y-92825500D01*
X141383354Y-92825500D01*
X141350897Y-92832398D01*
X141198197Y-92864855D01*
X141198192Y-92864857D01*
X141025270Y-92941848D01*
X141025265Y-92941851D01*
X140872129Y-93053111D01*
X140745466Y-93193785D01*
X140650821Y-93357715D01*
X140650818Y-93357722D01*
X140598417Y-93518998D01*
X140592326Y-93537744D01*
X140581906Y-93636888D01*
X140573168Y-93720029D01*
X140572540Y-93726000D01*
X129515218Y-93726000D01*
X129637871Y-93636888D01*
X129764533Y-93496216D01*
X129859179Y-93332284D01*
X129917674Y-93152256D01*
X129937460Y-92964000D01*
X129917674Y-92775744D01*
X129900374Y-92722500D01*
X138032540Y-92722500D01*
X138052326Y-92910756D01*
X138052327Y-92910759D01*
X138110818Y-93090777D01*
X138110821Y-93090784D01*
X138205467Y-93254716D01*
X138323983Y-93386341D01*
X138332129Y-93395388D01*
X138485265Y-93506648D01*
X138485270Y-93506651D01*
X138658192Y-93583642D01*
X138658197Y-93583644D01*
X138843354Y-93623000D01*
X138843355Y-93623000D01*
X139032644Y-93623000D01*
X139032646Y-93623000D01*
X139217803Y-93583644D01*
X139390730Y-93506651D01*
X139543871Y-93395388D01*
X139670533Y-93254716D01*
X139765179Y-93090784D01*
X139823674Y-92910756D01*
X139843460Y-92722500D01*
X139823674Y-92534244D01*
X139765179Y-92354216D01*
X139670533Y-92190284D01*
X139543871Y-92049612D01*
X139540474Y-92047144D01*
X139390734Y-91938351D01*
X139390729Y-91938348D01*
X139217807Y-91861357D01*
X139217802Y-91861355D01*
X139072000Y-91830365D01*
X139032646Y-91822000D01*
X138843354Y-91822000D01*
X138810897Y-91828898D01*
X138658197Y-91861355D01*
X138658192Y-91861357D01*
X138485270Y-91938348D01*
X138485265Y-91938351D01*
X138332129Y-92049611D01*
X138205466Y-92190285D01*
X138110821Y-92354215D01*
X138110818Y-92354222D01*
X138056370Y-92521798D01*
X138052326Y-92534244D01*
X138032540Y-92722500D01*
X129900374Y-92722500D01*
X129859179Y-92595716D01*
X129764533Y-92431784D01*
X129637871Y-92291112D01*
X129637870Y-92291111D01*
X129484734Y-92179851D01*
X129484729Y-92179848D01*
X129311807Y-92102857D01*
X129311802Y-92102855D01*
X129166001Y-92071865D01*
X129126646Y-92063500D01*
X128937354Y-92063500D01*
X128904897Y-92070398D01*
X128752197Y-92102855D01*
X128752192Y-92102857D01*
X128579270Y-92179848D01*
X128579265Y-92179851D01*
X128426129Y-92291111D01*
X128299466Y-92431785D01*
X128204821Y-92595715D01*
X128204818Y-92595722D01*
X128160425Y-92732351D01*
X128146326Y-92775744D01*
X128126540Y-92964000D01*
X124277943Y-92964000D01*
X124317515Y-92521798D01*
X124453203Y-91441515D01*
X124494608Y-91186000D01*
X130920540Y-91186000D01*
X130940326Y-91374256D01*
X130940327Y-91374259D01*
X130998818Y-91554277D01*
X130998821Y-91554284D01*
X131093467Y-91718216D01*
X131146440Y-91777048D01*
X131220129Y-91858888D01*
X131373265Y-91970148D01*
X131373270Y-91970151D01*
X131546192Y-92047142D01*
X131546197Y-92047144D01*
X131731354Y-92086500D01*
X131731355Y-92086500D01*
X131920644Y-92086500D01*
X131920646Y-92086500D01*
X132105803Y-92047144D01*
X132278730Y-91970151D01*
X132431871Y-91858888D01*
X132558533Y-91718216D01*
X132653179Y-91554284D01*
X132690312Y-91440000D01*
X133714540Y-91440000D01*
X133734326Y-91628256D01*
X133734327Y-91628259D01*
X133792818Y-91808277D01*
X133792821Y-91808284D01*
X133887467Y-91972216D01*
X133956348Y-92048716D01*
X134014129Y-92112888D01*
X134167265Y-92224148D01*
X134167270Y-92224151D01*
X134340192Y-92301142D01*
X134340197Y-92301144D01*
X134525354Y-92340500D01*
X134525355Y-92340500D01*
X134714644Y-92340500D01*
X134714646Y-92340500D01*
X134899803Y-92301144D01*
X135072730Y-92224151D01*
X135225871Y-92112888D01*
X135352533Y-91972216D01*
X135447179Y-91808284D01*
X135505674Y-91628256D01*
X135517420Y-91516500D01*
X141334540Y-91516500D01*
X141354326Y-91704756D01*
X141354327Y-91704759D01*
X141412818Y-91884777D01*
X141412821Y-91884784D01*
X141507467Y-92048716D01*
X141556216Y-92102857D01*
X141634129Y-92189388D01*
X141787265Y-92300648D01*
X141787270Y-92300651D01*
X141960192Y-92377642D01*
X141960197Y-92377644D01*
X142145354Y-92417000D01*
X142145355Y-92417000D01*
X142334644Y-92417000D01*
X142334646Y-92417000D01*
X142519803Y-92377644D01*
X142692730Y-92300651D01*
X142845871Y-92189388D01*
X142972533Y-92048716D01*
X143067179Y-91884784D01*
X143125674Y-91704756D01*
X143145460Y-91516500D01*
X143125674Y-91328244D01*
X143067179Y-91148216D01*
X142972533Y-90984284D01*
X142845871Y-90843612D01*
X142840275Y-90839546D01*
X142692734Y-90732351D01*
X142692729Y-90732348D01*
X142519807Y-90655357D01*
X142519802Y-90655355D01*
X142374001Y-90624365D01*
X142334646Y-90616000D01*
X142145354Y-90616000D01*
X142112897Y-90622898D01*
X141960197Y-90655355D01*
X141960192Y-90655357D01*
X141787270Y-90732348D01*
X141787265Y-90732351D01*
X141634129Y-90843611D01*
X141507466Y-90984285D01*
X141412821Y-91148215D01*
X141412818Y-91148222D01*
X141354327Y-91328240D01*
X141354326Y-91328244D01*
X141334540Y-91516500D01*
X135517420Y-91516500D01*
X135525460Y-91440000D01*
X135505674Y-91251744D01*
X135447179Y-91071716D01*
X135352533Y-90907784D01*
X135225871Y-90767112D01*
X135225870Y-90767111D01*
X135072734Y-90655851D01*
X135072729Y-90655848D01*
X134899807Y-90578857D01*
X134899802Y-90578855D01*
X134754001Y-90547865D01*
X134714646Y-90539500D01*
X134525354Y-90539500D01*
X134492897Y-90546398D01*
X134340197Y-90578855D01*
X134340192Y-90578857D01*
X134167270Y-90655848D01*
X134167265Y-90655851D01*
X134014129Y-90767111D01*
X133887466Y-90907785D01*
X133792821Y-91071715D01*
X133792818Y-91071722D01*
X133736638Y-91244627D01*
X133734326Y-91251744D01*
X133714540Y-91440000D01*
X132690312Y-91440000D01*
X132711674Y-91374256D01*
X132731460Y-91186000D01*
X132711674Y-90997744D01*
X132653179Y-90817716D01*
X132558533Y-90653784D01*
X132431871Y-90513112D01*
X132420933Y-90505165D01*
X132278734Y-90401851D01*
X132278729Y-90401848D01*
X132105807Y-90324857D01*
X132105802Y-90324855D01*
X131960000Y-90293865D01*
X131920646Y-90285500D01*
X131731354Y-90285500D01*
X131698897Y-90292398D01*
X131546197Y-90324855D01*
X131546192Y-90324857D01*
X131373270Y-90401848D01*
X131373265Y-90401851D01*
X131220129Y-90513111D01*
X131093466Y-90653785D01*
X130998821Y-90817715D01*
X130998818Y-90817722D01*
X130940327Y-90997740D01*
X130940326Y-90997744D01*
X130920540Y-91186000D01*
X124494608Y-91186000D01*
X124627362Y-90366762D01*
X124839771Y-89298911D01*
X125090159Y-88239321D01*
X125378206Y-87189344D01*
X125399293Y-87122000D01*
X134222540Y-87122000D01*
X134242326Y-87310256D01*
X134242327Y-87310259D01*
X134300818Y-87490277D01*
X134300821Y-87490284D01*
X134395467Y-87654216D01*
X134459178Y-87724974D01*
X134522129Y-87794888D01*
X134675265Y-87906148D01*
X134675270Y-87906151D01*
X134848192Y-87983142D01*
X134848197Y-87983144D01*
X135033354Y-88022500D01*
X135033355Y-88022500D01*
X135222644Y-88022500D01*
X135222646Y-88022500D01*
X135407803Y-87983144D01*
X135580730Y-87906151D01*
X135733871Y-87794888D01*
X135811084Y-87709133D01*
X135870568Y-87672487D01*
X135940425Y-87673816D01*
X135998473Y-87712702D01*
X136010619Y-87730107D01*
X136031466Y-87766214D01*
X136031465Y-87766214D01*
X136158129Y-87906888D01*
X136311265Y-88018148D01*
X136311270Y-88018151D01*
X136484192Y-88095142D01*
X136484197Y-88095144D01*
X136669354Y-88134500D01*
X136669355Y-88134500D01*
X136858644Y-88134500D01*
X136858646Y-88134500D01*
X137043803Y-88095144D01*
X137216730Y-88018151D01*
X137369871Y-87906888D01*
X137496533Y-87766216D01*
X137591179Y-87602284D01*
X137649674Y-87422256D01*
X137669460Y-87234000D01*
X137657689Y-87122000D01*
X138794540Y-87122000D01*
X138814326Y-87310256D01*
X138814327Y-87310259D01*
X138872818Y-87490277D01*
X138872821Y-87490284D01*
X138967467Y-87654216D01*
X139031178Y-87724974D01*
X139094129Y-87794888D01*
X139247265Y-87906148D01*
X139247270Y-87906151D01*
X139420192Y-87983142D01*
X139420197Y-87983144D01*
X139605354Y-88022500D01*
X139605355Y-88022500D01*
X139794644Y-88022500D01*
X139794646Y-88022500D01*
X139979803Y-87983144D01*
X140152730Y-87906151D01*
X140305871Y-87794888D01*
X140432533Y-87654216D01*
X140527179Y-87490284D01*
X140585674Y-87310256D01*
X140605460Y-87122000D01*
X140585674Y-86933744D01*
X140579524Y-86914816D01*
X140577530Y-86844975D01*
X140613612Y-86785143D01*
X140676313Y-86754316D01*
X140697456Y-86752500D01*
X140810644Y-86752500D01*
X140810646Y-86752500D01*
X140995803Y-86713144D01*
X141168730Y-86636151D01*
X141321871Y-86524888D01*
X141385850Y-86453831D01*
X141445337Y-86417183D01*
X141515194Y-86418514D01*
X141570150Y-86453832D01*
X141634129Y-86524888D01*
X141787265Y-86636148D01*
X141787270Y-86636151D01*
X141960192Y-86713142D01*
X141960197Y-86713144D01*
X142145354Y-86752500D01*
X142145355Y-86752500D01*
X142334644Y-86752500D01*
X142334646Y-86752500D01*
X142519803Y-86713144D01*
X142692730Y-86636151D01*
X142845871Y-86524888D01*
X142909850Y-86453831D01*
X142969337Y-86417183D01*
X143039194Y-86418514D01*
X143094150Y-86453832D01*
X143158129Y-86524888D01*
X143311265Y-86636148D01*
X143311270Y-86636151D01*
X143484192Y-86713142D01*
X143484197Y-86713144D01*
X143669354Y-86752500D01*
X143669355Y-86752500D01*
X143858644Y-86752500D01*
X143858646Y-86752500D01*
X144043803Y-86713144D01*
X144216730Y-86636151D01*
X144369871Y-86524888D01*
X144496533Y-86384216D01*
X144591179Y-86220284D01*
X144649674Y-86040256D01*
X144669460Y-85852000D01*
X144649674Y-85663744D01*
X144591179Y-85483716D01*
X144589171Y-85477535D01*
X144591352Y-85476826D01*
X144583465Y-85417992D01*
X144605828Y-85370231D01*
X144563881Y-85369824D01*
X144505473Y-85331481D01*
X144499651Y-85324076D01*
X144496534Y-85319785D01*
X144496533Y-85319784D01*
X144369871Y-85179112D01*
X144369870Y-85179111D01*
X144216734Y-85067851D01*
X144216729Y-85067848D01*
X144043807Y-84990857D01*
X144043802Y-84990855D01*
X143897389Y-84959735D01*
X143858646Y-84951500D01*
X143669354Y-84951500D01*
X143636897Y-84958398D01*
X143484197Y-84990855D01*
X143484192Y-84990857D01*
X143311270Y-85067848D01*
X143311265Y-85067851D01*
X143158129Y-85179111D01*
X143158128Y-85179112D01*
X143094149Y-85250168D01*
X143034663Y-85286816D01*
X142964806Y-85285485D01*
X142909851Y-85250168D01*
X142845871Y-85179112D01*
X142845870Y-85179111D01*
X142692734Y-85067851D01*
X142692729Y-85067848D01*
X142519807Y-84990857D01*
X142519802Y-84990855D01*
X142373389Y-84959735D01*
X142334646Y-84951500D01*
X142145354Y-84951500D01*
X142112897Y-84958398D01*
X141960197Y-84990855D01*
X141960192Y-84990857D01*
X141787270Y-85067848D01*
X141787265Y-85067851D01*
X141634129Y-85179111D01*
X141634128Y-85179112D01*
X141570149Y-85250168D01*
X141510663Y-85286816D01*
X141440806Y-85285485D01*
X141385851Y-85250168D01*
X141321871Y-85179112D01*
X141321870Y-85179111D01*
X141168734Y-85067851D01*
X141168729Y-85067848D01*
X140995807Y-84990857D01*
X140995802Y-84990855D01*
X140849389Y-84959735D01*
X140810646Y-84951500D01*
X140621354Y-84951500D01*
X140588897Y-84958398D01*
X140436197Y-84990855D01*
X140436192Y-84990857D01*
X140263270Y-85067848D01*
X140263265Y-85067851D01*
X140110129Y-85179111D01*
X139983466Y-85319785D01*
X139888821Y-85483715D01*
X139888818Y-85483722D01*
X139844490Y-85620151D01*
X139830326Y-85663744D01*
X139819489Y-85766852D01*
X139810540Y-85852000D01*
X139830326Y-86040258D01*
X139836476Y-86059184D01*
X139838470Y-86129025D01*
X139802388Y-86188857D01*
X139739687Y-86219684D01*
X139718544Y-86221500D01*
X139605354Y-86221500D01*
X139572897Y-86228398D01*
X139420197Y-86260855D01*
X139420192Y-86260857D01*
X139247270Y-86337848D01*
X139247265Y-86337851D01*
X139094129Y-86449111D01*
X138967466Y-86589785D01*
X138872821Y-86753715D01*
X138872818Y-86753722D01*
X138821404Y-86911960D01*
X138814326Y-86933744D01*
X138794540Y-87122000D01*
X137657689Y-87122000D01*
X137649674Y-87045744D01*
X137591179Y-86865716D01*
X137496533Y-86701784D01*
X137369871Y-86561112D01*
X137320013Y-86524888D01*
X137216734Y-86449851D01*
X137216729Y-86449848D01*
X137043807Y-86372857D01*
X137043802Y-86372855D01*
X136879116Y-86337851D01*
X136858646Y-86333500D01*
X136669354Y-86333500D01*
X136648884Y-86337851D01*
X136484197Y-86372855D01*
X136484192Y-86372857D01*
X136311270Y-86449848D01*
X136311265Y-86449851D01*
X136158132Y-86561109D01*
X136158129Y-86561111D01*
X136158129Y-86561112D01*
X136080915Y-86646865D01*
X136021430Y-86683513D01*
X135951573Y-86682182D01*
X135893525Y-86643295D01*
X135881380Y-86625891D01*
X135860536Y-86589788D01*
X135860534Y-86589785D01*
X135733870Y-86449111D01*
X135580734Y-86337851D01*
X135580729Y-86337848D01*
X135407807Y-86260857D01*
X135407802Y-86260855D01*
X135262000Y-86229865D01*
X135222646Y-86221500D01*
X135033354Y-86221500D01*
X135000897Y-86228398D01*
X134848197Y-86260855D01*
X134848192Y-86260857D01*
X134675270Y-86337848D01*
X134675265Y-86337851D01*
X134522129Y-86449111D01*
X134395466Y-86589785D01*
X134300821Y-86753715D01*
X134300818Y-86753722D01*
X134249404Y-86911960D01*
X134242326Y-86933744D01*
X134222540Y-87122000D01*
X125399293Y-87122000D01*
X125703546Y-86150316D01*
X126065764Y-85123563D01*
X126464398Y-84110393D01*
X126898941Y-83112096D01*
X126985584Y-82931000D01*
X128828696Y-82931000D01*
X128847898Y-83297405D01*
X128886766Y-83542809D01*
X128905295Y-83659794D01*
X128995115Y-83995007D01*
X129000260Y-84014206D01*
X129131746Y-84356739D01*
X129298320Y-84683656D01*
X129498147Y-84991364D01*
X129702736Y-85244010D01*
X129729051Y-85276506D01*
X129988494Y-85535949D01*
X130092475Y-85620151D01*
X130273635Y-85766852D01*
X130404752Y-85852000D01*
X130581348Y-85966682D01*
X130908264Y-86133255D01*
X131138151Y-86221500D01*
X131240677Y-86260856D01*
X131250801Y-86264742D01*
X131605206Y-86359705D01*
X131967596Y-86417102D01*
X132313734Y-86435241D01*
X132333999Y-86436304D01*
X132334000Y-86436304D01*
X132334001Y-86436304D01*
X132353203Y-86435297D01*
X132700404Y-86417102D01*
X133062794Y-86359705D01*
X133417199Y-86264742D01*
X133759736Y-86133255D01*
X134086652Y-85966682D01*
X134394366Y-85766851D01*
X134679506Y-85535949D01*
X134938949Y-85276506D01*
X135169851Y-84991366D01*
X135369682Y-84683652D01*
X135536255Y-84356736D01*
X135667742Y-84014199D01*
X135762705Y-83659794D01*
X135820102Y-83297404D01*
X135839304Y-82931000D01*
X135820102Y-82564596D01*
X135762705Y-82202206D01*
X135667742Y-81847801D01*
X135654081Y-81812214D01*
X135536253Y-81505260D01*
X135517398Y-81468256D01*
X135421476Y-81280000D01*
X144128540Y-81280000D01*
X144148326Y-81468256D01*
X144148327Y-81468259D01*
X144206818Y-81648277D01*
X144206821Y-81648284D01*
X144301467Y-81812216D01*
X144419095Y-81942855D01*
X144428129Y-81952888D01*
X144581265Y-82064148D01*
X144581270Y-82064151D01*
X144754192Y-82141142D01*
X144754197Y-82141144D01*
X144939354Y-82180500D01*
X144939355Y-82180500D01*
X145128644Y-82180500D01*
X145128646Y-82180500D01*
X145313803Y-82141144D01*
X145486730Y-82064151D01*
X145639871Y-81952888D01*
X145766533Y-81812216D01*
X145861179Y-81648284D01*
X145919674Y-81468256D01*
X145939460Y-81280000D01*
X145919674Y-81091744D01*
X145861179Y-80911716D01*
X145766533Y-80747784D01*
X145639871Y-80607112D01*
X145610122Y-80585498D01*
X145486734Y-80495851D01*
X145486729Y-80495848D01*
X145313807Y-80418857D01*
X145313802Y-80418855D01*
X145168000Y-80387865D01*
X145128646Y-80379500D01*
X144939354Y-80379500D01*
X144906897Y-80386398D01*
X144754197Y-80418855D01*
X144754192Y-80418857D01*
X144581270Y-80495848D01*
X144581265Y-80495851D01*
X144428129Y-80607111D01*
X144301466Y-80747785D01*
X144206821Y-80911715D01*
X144206818Y-80911722D01*
X144148327Y-81091740D01*
X144148326Y-81091744D01*
X144128540Y-81280000D01*
X135421476Y-81280000D01*
X135369682Y-81178348D01*
X135369679Y-81178343D01*
X135169852Y-80870635D01*
X134938952Y-80585498D01*
X134938949Y-80585494D01*
X134679506Y-80326051D01*
X134647010Y-80299736D01*
X134394364Y-80095147D01*
X134086656Y-79895320D01*
X133759739Y-79728746D01*
X133417206Y-79597260D01*
X133417199Y-79597258D01*
X133062794Y-79502295D01*
X133062790Y-79502294D01*
X133062789Y-79502294D01*
X132700405Y-79444898D01*
X132334001Y-79425696D01*
X132333999Y-79425696D01*
X131967594Y-79444898D01*
X131605211Y-79502294D01*
X131605209Y-79502294D01*
X131250793Y-79597260D01*
X130908260Y-79728746D01*
X130581343Y-79895320D01*
X130273635Y-80095147D01*
X129988498Y-80326047D01*
X129988490Y-80326054D01*
X129729054Y-80585490D01*
X129729047Y-80585498D01*
X129498147Y-80870635D01*
X129298320Y-81178343D01*
X129131746Y-81505260D01*
X129000260Y-81847793D01*
X128905294Y-82202209D01*
X128905294Y-82202211D01*
X128847898Y-82564594D01*
X128828696Y-82930999D01*
X128828696Y-82931000D01*
X126985584Y-82931000D01*
X127368838Y-82129945D01*
X127873492Y-81165192D01*
X128412258Y-80219065D01*
X128984450Y-79292771D01*
X129589339Y-78387491D01*
X129701464Y-78232000D01*
X153780540Y-78232000D01*
X153800326Y-78420256D01*
X153800327Y-78420259D01*
X153858818Y-78600277D01*
X153858821Y-78600284D01*
X153953467Y-78764216D01*
X154080128Y-78904888D01*
X154080129Y-78904888D01*
X154233265Y-79016148D01*
X154233270Y-79016151D01*
X154406192Y-79093142D01*
X154406197Y-79093144D01*
X154591354Y-79132500D01*
X154591355Y-79132500D01*
X154780644Y-79132500D01*
X154780646Y-79132500D01*
X154965803Y-79093144D01*
X155138730Y-79016151D01*
X155291871Y-78904888D01*
X155418533Y-78764216D01*
X155513179Y-78600284D01*
X155571674Y-78420256D01*
X155591460Y-78232000D01*
X169782540Y-78232000D01*
X169802326Y-78420256D01*
X169802327Y-78420259D01*
X169860818Y-78600277D01*
X169860821Y-78600284D01*
X169955467Y-78764216D01*
X170082129Y-78904888D01*
X170235265Y-79016148D01*
X170235270Y-79016151D01*
X170408192Y-79093142D01*
X170408197Y-79093144D01*
X170593354Y-79132500D01*
X170593355Y-79132500D01*
X170782644Y-79132500D01*
X170782646Y-79132500D01*
X170967803Y-79093144D01*
X171140730Y-79016151D01*
X171293871Y-78904888D01*
X171420533Y-78764216D01*
X171515179Y-78600284D01*
X171573674Y-78420256D01*
X171593460Y-78232000D01*
X171573674Y-78043744D01*
X171515179Y-77863716D01*
X171420533Y-77699784D01*
X171293871Y-77559112D01*
X171293870Y-77559111D01*
X171140734Y-77447851D01*
X171140729Y-77447848D01*
X170967807Y-77370857D01*
X170967802Y-77370855D01*
X170822000Y-77339865D01*
X170782646Y-77331500D01*
X170593354Y-77331500D01*
X170560897Y-77338398D01*
X170408197Y-77370855D01*
X170408192Y-77370857D01*
X170235270Y-77447848D01*
X170235265Y-77447851D01*
X170082129Y-77559111D01*
X169955466Y-77699785D01*
X169860821Y-77863715D01*
X169860818Y-77863722D01*
X169802327Y-78043740D01*
X169802326Y-78043744D01*
X169782540Y-78232000D01*
X155591460Y-78232000D01*
X155571674Y-78043744D01*
X155513179Y-77863716D01*
X155418533Y-77699784D01*
X155291871Y-77559112D01*
X155291870Y-77559111D01*
X155138734Y-77447851D01*
X155138729Y-77447848D01*
X154965807Y-77370857D01*
X154965802Y-77370855D01*
X154820000Y-77339865D01*
X154780646Y-77331500D01*
X154591354Y-77331500D01*
X154558897Y-77338398D01*
X154406197Y-77370855D01*
X154406192Y-77370857D01*
X154233270Y-77447848D01*
X154233265Y-77447851D01*
X154080129Y-77559111D01*
X153953466Y-77699785D01*
X153858821Y-77863715D01*
X153858818Y-77863722D01*
X153800327Y-78043740D01*
X153800326Y-78043744D01*
X153780540Y-78232000D01*
X129701464Y-78232000D01*
X130226154Y-77504377D01*
X130844798Y-76708000D01*
X143112540Y-76708000D01*
X143132326Y-76896256D01*
X143132327Y-76896259D01*
X143190818Y-77076277D01*
X143190821Y-77076284D01*
X143285467Y-77240216D01*
X143367660Y-77331500D01*
X143412129Y-77380888D01*
X143565265Y-77492148D01*
X143565270Y-77492151D01*
X143738192Y-77569142D01*
X143738197Y-77569144D01*
X143923354Y-77608500D01*
X143923355Y-77608500D01*
X144112644Y-77608500D01*
X144112646Y-77608500D01*
X144297803Y-77569144D01*
X144470730Y-77492151D01*
X144623871Y-77380888D01*
X144750533Y-77240216D01*
X144845179Y-77076284D01*
X144903674Y-76896256D01*
X144923460Y-76708000D01*
X144903674Y-76519744D01*
X144845179Y-76339716D01*
X144750533Y-76175784D01*
X144623871Y-76035112D01*
X144623870Y-76035111D01*
X144470734Y-75923851D01*
X144470729Y-75923848D01*
X144297807Y-75846857D01*
X144297802Y-75846855D01*
X144152000Y-75815865D01*
X144112646Y-75807500D01*
X143923354Y-75807500D01*
X143915728Y-75809121D01*
X143738197Y-75846855D01*
X143738192Y-75846857D01*
X143565270Y-75923848D01*
X143565265Y-75923851D01*
X143412129Y-76035111D01*
X143285466Y-76175785D01*
X143190821Y-76339715D01*
X143190818Y-76339722D01*
X143132327Y-76519740D01*
X143132326Y-76519744D01*
X143112540Y-76708000D01*
X130844798Y-76708000D01*
X130894084Y-76644555D01*
X131592278Y-75809121D01*
X131925638Y-75438000D01*
X136254540Y-75438000D01*
X136274326Y-75626256D01*
X136274327Y-75626259D01*
X136332818Y-75806277D01*
X136332821Y-75806284D01*
X136427467Y-75970216D01*
X136485899Y-76035111D01*
X136554129Y-76110888D01*
X136707265Y-76222148D01*
X136707270Y-76222151D01*
X136880192Y-76299142D01*
X136880197Y-76299144D01*
X137065354Y-76338500D01*
X137065355Y-76338500D01*
X137254644Y-76338500D01*
X137254646Y-76338500D01*
X137439803Y-76299144D01*
X137612730Y-76222151D01*
X137765871Y-76110888D01*
X137892533Y-75970216D01*
X137987179Y-75806284D01*
X138045674Y-75626256D01*
X138065460Y-75438000D01*
X138045674Y-75249744D01*
X137987179Y-75069716D01*
X137892533Y-74905784D01*
X137765871Y-74765112D01*
X137765870Y-74765111D01*
X137612734Y-74653851D01*
X137612729Y-74653848D01*
X137439807Y-74576857D01*
X137439802Y-74576855D01*
X137294001Y-74545865D01*
X137254646Y-74537500D01*
X137065354Y-74537500D01*
X137032897Y-74544398D01*
X136880197Y-74576855D01*
X136880192Y-74576857D01*
X136707270Y-74653848D01*
X136707265Y-74653851D01*
X136554129Y-74765111D01*
X136427466Y-74905785D01*
X136332821Y-75069715D01*
X136332818Y-75069722D01*
X136274327Y-75249740D01*
X136274326Y-75249744D01*
X136254540Y-75438000D01*
X131925638Y-75438000D01*
X132319845Y-74999140D01*
X133075859Y-74215643D01*
X133859356Y-73459629D01*
X134669337Y-72732062D01*
X135504771Y-72033868D01*
X136027242Y-71628000D01*
X147938540Y-71628000D01*
X147958326Y-71816256D01*
X147958327Y-71816259D01*
X148016818Y-71996277D01*
X148016821Y-71996284D01*
X148111467Y-72160216D01*
X148178931Y-72235142D01*
X148238129Y-72300888D01*
X148391265Y-72412148D01*
X148391270Y-72412151D01*
X148564192Y-72489142D01*
X148564197Y-72489144D01*
X148749354Y-72528500D01*
X148749355Y-72528500D01*
X148938644Y-72528500D01*
X148938646Y-72528500D01*
X149123803Y-72489144D01*
X149296730Y-72412151D01*
X149449871Y-72300888D01*
X149576533Y-72160216D01*
X149671179Y-71996284D01*
X149729674Y-71816256D01*
X149749460Y-71628000D01*
X149729674Y-71439744D01*
X149671179Y-71259716D01*
X149626308Y-71181997D01*
X149609836Y-71114100D01*
X149626309Y-71058001D01*
X149671179Y-70980284D01*
X149729674Y-70800256D01*
X149749460Y-70612000D01*
X149729674Y-70423744D01*
X149671179Y-70243716D01*
X149626308Y-70165997D01*
X149609836Y-70098100D01*
X149626308Y-70042002D01*
X149671179Y-69964284D01*
X149729674Y-69784256D01*
X149749460Y-69596000D01*
X149729674Y-69407744D01*
X149671179Y-69227716D01*
X149576533Y-69063784D01*
X149449871Y-68923112D01*
X149449870Y-68923111D01*
X149296734Y-68811851D01*
X149296729Y-68811848D01*
X149123807Y-68734857D01*
X149123802Y-68734855D01*
X148978001Y-68703865D01*
X148938646Y-68695500D01*
X148749354Y-68695500D01*
X148716897Y-68702398D01*
X148564197Y-68734855D01*
X148564192Y-68734857D01*
X148391270Y-68811848D01*
X148391265Y-68811851D01*
X148238129Y-68923111D01*
X148111466Y-69063785D01*
X148016821Y-69227715D01*
X148016818Y-69227722D01*
X147958327Y-69407740D01*
X147958326Y-69407744D01*
X147938540Y-69596000D01*
X147958326Y-69784256D01*
X147958327Y-69784259D01*
X148016821Y-69964285D01*
X148061689Y-70041999D01*
X148078162Y-70109899D01*
X148061690Y-70165997D01*
X148016821Y-70243713D01*
X148016820Y-70243717D01*
X147958327Y-70423740D01*
X147958326Y-70423744D01*
X147938540Y-70612000D01*
X147958326Y-70800256D01*
X147958327Y-70800259D01*
X148016820Y-70980283D01*
X148061690Y-71058001D01*
X148078162Y-71125901D01*
X148061690Y-71181999D01*
X148016820Y-71259716D01*
X147958327Y-71439740D01*
X147958326Y-71439744D01*
X147938540Y-71628000D01*
X136027242Y-71628000D01*
X136364593Y-71365938D01*
X137247707Y-70729123D01*
X138152987Y-70124234D01*
X139079281Y-69552042D01*
X140025408Y-69013276D01*
X140990161Y-68508622D01*
X141972312Y-68038725D01*
X142970609Y-67604182D01*
X143983779Y-67205548D01*
X145010532Y-66843330D01*
X146049560Y-66517990D01*
X147099537Y-66229943D01*
X148159127Y-65979555D01*
X149226978Y-65767146D01*
X150301731Y-65592987D01*
X151382014Y-65457299D01*
X151583092Y-65439305D01*
X152277557Y-65377159D01*
X152346084Y-65390789D01*
X152396363Y-65439305D01*
X152412431Y-65507302D01*
X152389187Y-65573192D01*
X152366645Y-65597031D01*
X152213498Y-65721047D01*
X152213490Y-65721054D01*
X151954054Y-65980490D01*
X151954047Y-65980498D01*
X151723147Y-66265635D01*
X151523320Y-66573343D01*
X151356746Y-66900260D01*
X151225260Y-67242793D01*
X151130294Y-67597209D01*
X151130294Y-67597211D01*
X151072898Y-67959594D01*
X151053696Y-68325999D01*
X151053696Y-68326000D01*
X151072898Y-68692405D01*
X151130294Y-69054788D01*
X151130294Y-69054790D01*
X151225260Y-69409206D01*
X151356746Y-69751739D01*
X151523320Y-70078656D01*
X151723147Y-70386364D01*
X151825579Y-70512857D01*
X151954051Y-70671506D01*
X152213494Y-70930949D01*
X152305831Y-71005722D01*
X152498635Y-71161852D01*
X152659820Y-71266526D01*
X152806348Y-71361682D01*
X153133264Y-71528255D01*
X153475801Y-71659742D01*
X153830206Y-71754705D01*
X154192596Y-71812102D01*
X154538734Y-71830241D01*
X154558999Y-71831304D01*
X154559000Y-71831304D01*
X154559001Y-71831304D01*
X154578202Y-71830297D01*
X154925404Y-71812102D01*
X155287794Y-71754705D01*
X155642199Y-71659742D01*
X155984736Y-71528255D01*
X156287477Y-71374000D01*
X157844540Y-71374000D01*
X157864326Y-71562256D01*
X157864327Y-71562259D01*
X157922818Y-71742277D01*
X157922821Y-71742284D01*
X158017467Y-71906216D01*
X158098559Y-71996277D01*
X158144129Y-72046888D01*
X158297265Y-72158148D01*
X158297270Y-72158151D01*
X158470192Y-72235142D01*
X158470197Y-72235144D01*
X158655354Y-72274500D01*
X158655355Y-72274500D01*
X158844644Y-72274500D01*
X158844646Y-72274500D01*
X159029803Y-72235144D01*
X159202730Y-72158151D01*
X159355871Y-72046888D01*
X159482533Y-71906216D01*
X159577179Y-71742284D01*
X159635674Y-71562256D01*
X159655460Y-71374000D01*
X159635674Y-71185744D01*
X159577179Y-71005716D01*
X159482533Y-70841784D01*
X159355871Y-70701112D01*
X159315115Y-70671501D01*
X159202734Y-70589851D01*
X159202729Y-70589848D01*
X159029807Y-70512857D01*
X159029802Y-70512855D01*
X158884001Y-70481865D01*
X158844646Y-70473500D01*
X158655354Y-70473500D01*
X158622897Y-70480398D01*
X158470197Y-70512855D01*
X158470192Y-70512857D01*
X158297270Y-70589848D01*
X158297265Y-70589851D01*
X158144129Y-70701111D01*
X158017466Y-70841785D01*
X157922821Y-71005715D01*
X157922818Y-71005722D01*
X157864327Y-71185740D01*
X157864326Y-71185744D01*
X157844540Y-71374000D01*
X156287477Y-71374000D01*
X156311652Y-71361682D01*
X156619366Y-71161851D01*
X156904506Y-70930949D01*
X157163949Y-70671506D01*
X157394851Y-70386366D01*
X157594682Y-70078652D01*
X157761255Y-69751736D01*
X157892742Y-69409199D01*
X157987705Y-69054794D01*
X158045102Y-68692404D01*
X158064304Y-68326000D01*
X158045102Y-67959596D01*
X157987705Y-67597206D01*
X157892742Y-67242801D01*
X157761255Y-66900264D01*
X157594682Y-66573348D01*
X157594679Y-66573343D01*
X157394852Y-66265635D01*
X157163952Y-65980498D01*
X157163949Y-65980494D01*
X156904506Y-65721051D01*
X156751354Y-65597031D01*
X156730691Y-65580298D01*
X156690980Y-65522811D01*
X156688652Y-65452980D01*
X156724448Y-65392976D01*
X156787001Y-65361850D01*
X156815453Y-65360115D01*
X156818115Y-65360258D01*
G37*
%TD.AperFunction*%
%TD*%
D16*
X173087071Y-130809973D02*
G75*
G03*
X175119073Y-128778000I29J2031973D01*
G01*
X134281571Y-124064347D02*
G75*
G03*
X133039370Y-121386052I-3504871J1647D01*
G01*
X176351123Y-121296234D02*
G75*
G03*
X175119073Y-123962254I2268777J-2666166D01*
G01*
X134281619Y-124064347D02*
X134281619Y-128778000D01*
X173087071Y-130810000D02*
X136313619Y-130810002D01*
X175119073Y-123962254D02*
X175119073Y-128778000D01*
X188142262Y-95782046D02*
G75*
G03*
X121142262Y-95782046I-33500000J0D01*
G01*
X134281598Y-128778000D02*
G75*
G03*
X136313619Y-130810002I2032002J0D01*
G01*
X176351140Y-121296254D02*
G75*
G03*
X188142262Y-95782046I-21708920J25514224D01*
G01*
X121142261Y-95782046D02*
G75*
G03*
X133039370Y-121386051I33499989J-4D01*
G01*
M02*
