%TF.GenerationSoftware,KiCad,Pcbnew,7.0.6*%
%TF.CreationDate,2024-03-18T21:13:23+03:00*%
%TF.ProjectId,_____ __________,1f3b3042-3020-4433-9f40-30323b353d38,rev?*%
%TF.SameCoordinates,Original*%
%TF.FileFunction,Copper,L2,Inr*%
%TF.FilePolarity,Positive*%
%FSLAX46Y46*%
G04 Gerber Fmt 4.6, Leading zero omitted, Abs format (unit mm)*
G04 Created by KiCad (PCBNEW 7.0.6) date 2024-03-18 21:13:23*
%MOMM*%
%LPD*%
G01*
G04 APERTURE LIST*
G04 Aperture macros list*
%AMRoundRect*
0 Rectangle with rounded corners*
0 $1 Rounding radius*
0 $2 $3 $4 $5 $6 $7 $8 $9 X,Y pos of 4 corners*
0 Add a 4 corners polygon primitive as box body*
4,1,4,$2,$3,$4,$5,$6,$7,$8,$9,$2,$3,0*
0 Add four circle primitives for the rounded corners*
1,1,$1+$1,$2,$3*
1,1,$1+$1,$4,$5*
1,1,$1+$1,$6,$7*
1,1,$1+$1,$8,$9*
0 Add four rect primitives between the rounded corners*
20,1,$1+$1,$2,$3,$4,$5,0*
20,1,$1+$1,$4,$5,$6,$7,0*
20,1,$1+$1,$6,$7,$8,$9,0*
20,1,$1+$1,$8,$9,$2,$3,0*%
G04 Aperture macros list end*
%TA.AperFunction,ComponentPad*%
%ADD10R,1.700000X1.700000*%
%TD*%
%TA.AperFunction,ComponentPad*%
%ADD11O,1.700000X1.700000*%
%TD*%
%TA.AperFunction,ComponentPad*%
%ADD12RoundRect,0.200000X-0.200000X-0.450000X0.200000X-0.450000X0.200000X0.450000X-0.200000X0.450000X0*%
%TD*%
%TA.AperFunction,ComponentPad*%
%ADD13O,0.800000X1.300000*%
%TD*%
%TA.AperFunction,ComponentPad*%
%ADD14C,6.000000*%
%TD*%
%TA.AperFunction,ViaPad*%
%ADD15C,0.800000*%
%TD*%
%TA.AperFunction,Conductor*%
%ADD16C,0.300000*%
%TD*%
%TA.AperFunction,Profile*%
%ADD17C,0.200000*%
%TD*%
G04 APERTURE END LIST*
D10*
%TO.N,GND*%
%TO.C,J10*%
X178054000Y-92202000D03*
D11*
%TO.N,SWCLK*%
X178054000Y-94742000D03*
%TO.N,SWDIO*%
X178054000Y-97282000D03*
%TO.N,Net-(D13-A)*%
X178054000Y-99822000D03*
%TD*%
D12*
%TO.N,CAN1L*%
%TO.C,J4*%
X168793000Y-125808000D03*
D13*
%TO.N,CAN1H*%
X170043000Y-125808000D03*
%TD*%
D14*
%TO.N,unconnected-(J3-Pin_1-Pad1)*%
%TO.C,J3*%
X132334000Y-82931000D03*
%TD*%
%TO.N,unconnected-(J1-Pin_1-Pad1)*%
%TO.C,J1*%
X176784000Y-82931000D03*
%TD*%
D12*
%TO.N,GND*%
%TO.C,J9*%
X149021000Y-125808000D03*
D13*
%TO.N,Digital_input2*%
X150271000Y-125808000D03*
%TO.N,Digital_input1*%
X151521000Y-125808000D03*
%TO.N,Analog_Input2*%
X152771000Y-125808000D03*
%TO.N,Analog_Input1*%
X154021000Y-125808000D03*
%TO.N,GNDA*%
X155271000Y-125808000D03*
%TD*%
D14*
%TO.N,unconnected-(J2-Pin_1-Pad1)*%
%TO.C,J2*%
X154559000Y-68326000D03*
%TD*%
D10*
%TO.N,+3.3V*%
%TO.C,J5*%
X172578000Y-104902000D03*
D11*
%TO.N,GND*%
X170038000Y-104902000D03*
%TO.N,Angle_Sensor_CS_MCU*%
X172578000Y-102362000D03*
%TO.N,Temp_Coil_C_MCU*%
X170038000Y-102362000D03*
%TO.N,Angle_Sensor_SCLK_MCU*%
X172578000Y-99822000D03*
%TO.N,Temp_Coil_B_MCU*%
X170038000Y-99822000D03*
%TO.N,Angle_Sensor_SDIO_MCU*%
X172578000Y-97282000D03*
%TO.N,Temp_Coil_A_MCU*%
X170038000Y-97282000D03*
%TO.N,OUT_MCU*%
X172578000Y-94742000D03*
%TO.N,Current_C_MCU*%
X170038000Y-94742000D03*
%TO.N,Current_B_MCU*%
X172578000Y-92202000D03*
%TO.N,Current_A_MCU*%
X170038000Y-92202000D03*
%TO.N,+3.3VA*%
X172578000Y-89662000D03*
%TO.N,GNDA*%
X170038000Y-89662000D03*
%TD*%
D12*
%TO.N,GND*%
%TO.C,J7*%
X159552000Y-125808000D03*
D13*
%TO.N,RS_485_Y*%
X160802000Y-125808000D03*
%TO.N,RS_485_Z*%
X162052000Y-125808000D03*
%TO.N,RS_485_B*%
X163302000Y-125808000D03*
%TO.N,RS_485_A*%
X164552000Y-125808000D03*
%TD*%
D12*
%TO.N,CAN2L*%
%TO.C,J6*%
X143393000Y-125808000D03*
D13*
%TO.N,CAN2H*%
X144643000Y-125808000D03*
%TD*%
D15*
%TO.N,GND*%
X138684000Y-120650000D03*
X151130000Y-82804000D03*
X136652000Y-103886000D03*
X148844000Y-118364000D03*
X138938000Y-91694000D03*
X173482000Y-113538000D03*
X125984000Y-100838000D03*
X159766000Y-102108000D03*
X161290000Y-116078000D03*
X142727561Y-106703516D03*
X148844000Y-81280000D03*
X133858000Y-90170000D03*
X137265023Y-112670977D03*
X143002000Y-87630000D03*
X141732000Y-97028000D03*
X159766000Y-101092000D03*
X148844000Y-74422000D03*
X154559000Y-114300000D03*
X165862000Y-87630000D03*
X162560000Y-84582000D03*
X138302647Y-96900646D03*
X142748000Y-81534000D03*
X127254000Y-90932000D03*
X160020000Y-90678000D03*
X147024477Y-111845477D03*
X132588000Y-98552000D03*
X169418000Y-121412000D03*
X159004000Y-74422000D03*
X147941673Y-90516500D03*
X164338000Y-106426000D03*
X159766000Y-100076000D03*
%TO.N,A*%
X139446000Y-108458000D03*
X156972000Y-109474000D03*
X141224000Y-111760000D03*
%TO.N,B*%
X144526000Y-102362000D03*
X139700000Y-99060000D03*
X157226000Y-99314000D03*
%TO.N,C*%
X137392023Y-115845977D03*
X149860000Y-108585000D03*
X147828000Y-120142000D03*
%TO.N,+24V*%
X170688000Y-82804000D03*
X159766000Y-113030000D03*
X130810000Y-106680000D03*
%TO.N,+12V*%
X141001682Y-120882379D03*
X134620000Y-102870000D03*
X148844000Y-71628000D03*
X148844000Y-70612000D03*
X136398000Y-115062000D03*
X142748000Y-108966000D03*
X158750000Y-71374000D03*
X148844000Y-69596000D03*
X143287454Y-102120500D03*
%TO.N,Enable*%
X138938000Y-92722500D03*
X140462000Y-106426000D03*
X141478000Y-93726000D03*
X139954000Y-112014000D03*
%TO.N,IN_A*%
X139446000Y-106426000D03*
%TO.N,IN_B*%
X143107023Y-98298000D03*
%TO.N,IN_C*%
X139424023Y-114829977D03*
%TO.N,+3.3V*%
X167640000Y-117602000D03*
X154686000Y-78232000D03*
X154686000Y-105537000D03*
X136764000Y-87234000D03*
X125349000Y-95123000D03*
X144018000Y-76708000D03*
X126746000Y-99060000D03*
X137414000Y-120650000D03*
X145542000Y-84836000D03*
X171958000Y-113538000D03*
X162560000Y-106426000D03*
X164084000Y-86614000D03*
X139700000Y-87122000D03*
X145034000Y-81280000D03*
X151130000Y-87122000D03*
X178054000Y-106172000D03*
X148336000Y-121539000D03*
X131826000Y-91186000D03*
%TO.N,NRST*%
X155689061Y-90708863D03*
%TO.N,Temp_Coil_C_MCU*%
X147320000Y-88392000D03*
%TO.N,Temp_Coil_B_MCU*%
X148336000Y-87122000D03*
%TO.N,Temp_Coil_A_MCU*%
X149352000Y-87122000D03*
%TO.N,Net-(R16-Pad2)*%
X134620000Y-91440000D03*
X148336000Y-122555000D03*
%TO.N,Current_C_MCU*%
X152400000Y-91440000D03*
%TO.N,Current_B_MCU*%
X153670000Y-91423503D03*
%TO.N,RS_485_RX_MCU*%
X161290000Y-111252000D03*
X163830000Y-111252000D03*
%TO.N,RS_485_Enable_MCU*%
X160032500Y-111207693D03*
X165100000Y-112268000D03*
%TO.N,Current_A_MCU*%
X153670000Y-90424000D03*
%TO.N,GNDA*%
X153924000Y-118110000D03*
X151384000Y-90424000D03*
X149606000Y-82804000D03*
%TO.N,+3.3VA*%
X159512000Y-121412000D03*
X159258500Y-115779546D03*
X151130000Y-85852000D03*
%TO.N,Temperature_Power_~{OS}_MCU*%
X143764000Y-85852000D03*
X149860000Y-92710000D03*
%TO.N,Temperature_Power_SCL_MCU*%
X140716000Y-85852000D03*
X149860000Y-95758000D03*
%TO.N,Temperature_Power_SDA_MCU*%
X149860000Y-98298000D03*
X142240000Y-85852000D03*
%TO.N,EEPROM_~{CS_MCU}*%
X142240000Y-91516500D03*
X129032000Y-92964000D03*
%TO.N,EEPROM_MOSI_MCU*%
X144581440Y-93516500D03*
X130048000Y-96012000D03*
%TO.N,Net-(U4-+)*%
X135128000Y-87122000D03*
%TO.N,Net-(D4-COM)*%
X155702000Y-117602000D03*
X148313669Y-94465669D03*
%TO.N,Net-(U10-+)*%
X127762000Y-105410000D03*
%TO.N,Net-(D7-K)*%
X170688000Y-78232000D03*
%TO.N,Net-(D8-K)*%
X137160000Y-75438000D03*
%TO.N,Net-(U7-PC4)*%
X158750000Y-99314000D03*
X163830000Y-96266000D03*
X148286582Y-93466536D03*
%TO.N,Net-(D14-COM)*%
X155956000Y-112014000D03*
X148336000Y-95504000D03*
%TD*%
D16*
%TO.N,A*%
X141224000Y-111760000D02*
X141224000Y-110236000D01*
X155333000Y-107835000D02*
X156972000Y-109474000D01*
X139446000Y-108458000D02*
X140462000Y-108458000D01*
X141986000Y-109982000D02*
X143510000Y-109982000D01*
X145657000Y-107835000D02*
X155333000Y-107835000D01*
X141224000Y-110236000D02*
X139446000Y-108458000D01*
X140462000Y-108458000D02*
X141986000Y-109982000D01*
X143510000Y-109982000D02*
X145657000Y-107835000D01*
%TO.N,B*%
X141795615Y-99568000D02*
X147320000Y-99568000D01*
X156972000Y-99568000D02*
X157226000Y-99314000D01*
X147320000Y-99568000D02*
X156972000Y-99568000D01*
X139700000Y-99060000D02*
X141287615Y-99060000D01*
X141287615Y-99060000D02*
X141795615Y-99568000D01*
X144526000Y-102362000D02*
X147320000Y-99568000D01*
%TO.N,C*%
X142748000Y-114808000D02*
X142748000Y-112522000D01*
X141710023Y-115845977D02*
X142748000Y-114808000D01*
X137392023Y-115845977D02*
X141710023Y-115845977D01*
X146685000Y-108585000D02*
X149860000Y-108585000D01*
X142748000Y-112522000D02*
X146685000Y-108585000D01*
%TO.N,Temperature_Power_SCL_MCU*%
X145034000Y-87884000D02*
X145034000Y-89154000D01*
X143752000Y-86602000D02*
X145034000Y-87884000D01*
X140716000Y-85852000D02*
X141466000Y-86602000D01*
X149110000Y-93528661D02*
X149860000Y-94278661D01*
X141466000Y-86602000D02*
X143752000Y-86602000D01*
X149110000Y-93230000D02*
X149110000Y-93528661D01*
X145034000Y-89154000D02*
X149110000Y-93230000D01*
X149860000Y-94278661D02*
X149860000Y-95758000D01*
%TO.N,Net-(U7-PC4)*%
X161798000Y-96266000D02*
X163830000Y-96266000D01*
X158750000Y-99314000D02*
X161798000Y-96266000D01*
%TD*%
%TA.AperFunction,Conductor*%
%TO.N,+24V*%
G36*
X178643386Y-76981685D02*
G01*
X178674272Y-77009930D01*
X179058370Y-77504377D01*
X179695185Y-78387491D01*
X180300074Y-79292771D01*
X180872266Y-80219065D01*
X181411032Y-81165192D01*
X181915686Y-82129945D01*
X182385583Y-83112096D01*
X182820126Y-84110393D01*
X183218760Y-85123563D01*
X183580978Y-86150316D01*
X183906318Y-87189344D01*
X184194365Y-88239321D01*
X184444753Y-89298911D01*
X184657162Y-90366762D01*
X184831321Y-91441515D01*
X184967009Y-92521798D01*
X185064053Y-93606237D01*
X185122329Y-94693448D01*
X185141762Y-95782045D01*
X185123473Y-96838100D01*
X185068629Y-97892889D01*
X184977295Y-98945146D01*
X184849581Y-99993610D01*
X184685640Y-101037024D01*
X184485670Y-102074135D01*
X184249908Y-103103700D01*
X183978640Y-104124484D01*
X183672189Y-105135264D01*
X183330923Y-106134826D01*
X182955252Y-107121973D01*
X182545625Y-108095520D01*
X182102535Y-109054300D01*
X181626513Y-109997163D01*
X181118129Y-110922978D01*
X180577993Y-111830635D01*
X180006754Y-112719045D01*
X179405095Y-113587143D01*
X178773739Y-114433889D01*
X178113443Y-115258265D01*
X177424999Y-116059284D01*
X176709232Y-116835986D01*
X175967000Y-117587438D01*
X175199195Y-118312739D01*
X174407814Y-119010067D01*
X174284114Y-119115322D01*
X174227911Y-119163145D01*
X173893402Y-119492205D01*
X173583484Y-119844520D01*
X173583484Y-119844521D01*
X173299774Y-120218247D01*
X173043732Y-120611464D01*
X172816705Y-121022103D01*
X172619861Y-121448051D01*
X172454234Y-121887071D01*
X172320682Y-122336892D01*
X172320682Y-122336893D01*
X172307239Y-122398024D01*
X172219902Y-122795166D01*
X172152415Y-123259513D01*
X172152414Y-123259523D01*
X172152414Y-123259522D01*
X172138598Y-123450586D01*
X172118574Y-123727516D01*
X172118573Y-123727523D01*
X172118574Y-123727523D01*
X172118573Y-123962129D01*
X172118566Y-124132246D01*
X172118573Y-124132491D01*
X172118573Y-127685500D01*
X172098888Y-127752539D01*
X172046084Y-127798294D01*
X171994573Y-127809500D01*
X137406119Y-127809500D01*
X137339080Y-127789815D01*
X137293325Y-127737011D01*
X137282119Y-127685500D01*
X137282119Y-126302960D01*
X142392500Y-126302960D01*
X142407630Y-126437249D01*
X142407631Y-126437254D01*
X142467211Y-126607523D01*
X142563184Y-126760262D01*
X142690738Y-126887816D01*
X142843478Y-126983789D01*
X142892833Y-127001059D01*
X143013745Y-127043368D01*
X143013750Y-127043369D01*
X143104246Y-127053565D01*
X143148040Y-127058499D01*
X143148043Y-127058500D01*
X143148046Y-127058500D01*
X143637957Y-127058500D01*
X143637958Y-127058499D01*
X143705104Y-127050933D01*
X143772249Y-127043369D01*
X143772252Y-127043368D01*
X143772255Y-127043368D01*
X143942522Y-126983789D01*
X144022534Y-126933513D01*
X144089769Y-126914513D01*
X144143109Y-126927178D01*
X144293729Y-127001060D01*
X144490715Y-127052063D01*
X144693936Y-127062369D01*
X144895071Y-127031556D01*
X145085887Y-126960886D01*
X145258571Y-126853252D01*
X145406053Y-126713059D01*
X145522295Y-126546049D01*
X145602540Y-126359058D01*
X145614068Y-126302960D01*
X148020500Y-126302960D01*
X148035630Y-126437249D01*
X148035631Y-126437254D01*
X148095211Y-126607523D01*
X148191183Y-126760261D01*
X148191184Y-126760262D01*
X148318738Y-126887816D01*
X148471478Y-126983789D01*
X148520833Y-127001059D01*
X148641745Y-127043368D01*
X148641750Y-127043369D01*
X148732246Y-127053565D01*
X148776040Y-127058499D01*
X148776043Y-127058500D01*
X148776046Y-127058500D01*
X149265957Y-127058500D01*
X149265958Y-127058499D01*
X149333104Y-127050933D01*
X149400249Y-127043369D01*
X149400252Y-127043368D01*
X149400255Y-127043368D01*
X149570522Y-126983789D01*
X149650534Y-126933513D01*
X149717769Y-126914513D01*
X149771109Y-126927178D01*
X149921729Y-127001060D01*
X150118715Y-127052063D01*
X150321936Y-127062369D01*
X150523071Y-127031556D01*
X150713887Y-126960886D01*
X150828445Y-126889481D01*
X150895749Y-126870726D01*
X150962510Y-126891335D01*
X150969927Y-126896652D01*
X150989042Y-126911448D01*
X151171729Y-127001060D01*
X151368715Y-127052063D01*
X151571936Y-127062369D01*
X151773071Y-127031556D01*
X151963887Y-126960886D01*
X152078445Y-126889481D01*
X152145749Y-126870726D01*
X152212510Y-126891335D01*
X152219927Y-126896652D01*
X152239042Y-126911448D01*
X152421729Y-127001060D01*
X152618715Y-127052063D01*
X152821936Y-127062369D01*
X153023071Y-127031556D01*
X153213887Y-126960886D01*
X153328445Y-126889481D01*
X153395749Y-126870726D01*
X153462510Y-126891335D01*
X153469927Y-126896652D01*
X153489042Y-126911448D01*
X153671729Y-127001060D01*
X153868715Y-127052063D01*
X154071936Y-127062369D01*
X154273071Y-127031556D01*
X154463887Y-126960886D01*
X154578445Y-126889481D01*
X154645749Y-126870726D01*
X154712510Y-126891335D01*
X154719927Y-126896652D01*
X154739042Y-126911448D01*
X154921729Y-127001060D01*
X155118715Y-127052063D01*
X155321936Y-127062369D01*
X155523071Y-127031556D01*
X155713887Y-126960886D01*
X155886571Y-126853252D01*
X156034053Y-126713059D01*
X156150295Y-126546049D01*
X156230540Y-126359058D01*
X156242068Y-126302960D01*
X158551500Y-126302960D01*
X158566630Y-126437249D01*
X158566631Y-126437254D01*
X158626211Y-126607523D01*
X158722183Y-126760262D01*
X158722184Y-126760262D01*
X158849738Y-126887816D01*
X159002478Y-126983789D01*
X159051833Y-127001059D01*
X159172745Y-127043368D01*
X159172750Y-127043369D01*
X159263246Y-127053565D01*
X159307040Y-127058499D01*
X159307043Y-127058500D01*
X159307046Y-127058500D01*
X159796957Y-127058500D01*
X159796958Y-127058499D01*
X159864104Y-127050933D01*
X159931249Y-127043369D01*
X159931252Y-127043368D01*
X159931255Y-127043368D01*
X160101522Y-126983789D01*
X160181534Y-126933513D01*
X160248769Y-126914513D01*
X160302109Y-126927178D01*
X160452729Y-127001060D01*
X160649715Y-127052063D01*
X160852936Y-127062369D01*
X161054071Y-127031556D01*
X161244887Y-126960886D01*
X161359445Y-126889481D01*
X161426749Y-126870726D01*
X161493510Y-126891335D01*
X161500927Y-126896652D01*
X161520042Y-126911448D01*
X161702729Y-127001060D01*
X161899715Y-127052063D01*
X162102936Y-127062369D01*
X162304071Y-127031556D01*
X162494887Y-126960886D01*
X162609445Y-126889481D01*
X162676749Y-126870726D01*
X162743510Y-126891335D01*
X162750927Y-126896652D01*
X162770042Y-126911448D01*
X162952729Y-127001060D01*
X163149715Y-127052063D01*
X163352936Y-127062369D01*
X163554071Y-127031556D01*
X163744887Y-126960886D01*
X163859445Y-126889481D01*
X163926749Y-126870726D01*
X163993510Y-126891335D01*
X164000927Y-126896652D01*
X164020042Y-126911448D01*
X164202729Y-127001060D01*
X164399715Y-127052063D01*
X164602936Y-127062369D01*
X164804071Y-127031556D01*
X164994887Y-126960886D01*
X165167571Y-126853252D01*
X165315053Y-126713059D01*
X165431295Y-126546049D01*
X165511540Y-126359058D01*
X165523068Y-126302960D01*
X167792500Y-126302960D01*
X167807630Y-126437249D01*
X167807631Y-126437254D01*
X167867211Y-126607523D01*
X167963184Y-126760262D01*
X168090738Y-126887816D01*
X168243478Y-126983789D01*
X168292833Y-127001059D01*
X168413745Y-127043368D01*
X168413750Y-127043369D01*
X168504246Y-127053565D01*
X168548040Y-127058499D01*
X168548043Y-127058500D01*
X168548046Y-127058500D01*
X169037957Y-127058500D01*
X169037958Y-127058499D01*
X169105104Y-127050933D01*
X169172249Y-127043369D01*
X169172252Y-127043368D01*
X169172255Y-127043368D01*
X169342522Y-126983789D01*
X169422534Y-126933513D01*
X169489769Y-126914513D01*
X169543109Y-126927178D01*
X169693729Y-127001060D01*
X169890715Y-127052063D01*
X170093936Y-127062369D01*
X170295071Y-127031556D01*
X170485887Y-126960886D01*
X170658571Y-126853252D01*
X170806053Y-126713059D01*
X170922295Y-126546049D01*
X171002540Y-126359058D01*
X171043500Y-126159741D01*
X171043500Y-125507258D01*
X171028074Y-125355562D01*
X171028074Y-125355560D01*
X170967162Y-125161420D01*
X170967160Y-125161416D01*
X170967159Y-125161412D01*
X170868409Y-124983498D01*
X170868408Y-124983497D01*
X170868407Y-124983495D01*
X170735867Y-124829106D01*
X170735865Y-124829104D01*
X170574962Y-124704554D01*
X170574959Y-124704553D01*
X170574958Y-124704552D01*
X170392271Y-124614940D01*
X170195285Y-124563937D01*
X170195287Y-124563937D01*
X170059804Y-124557066D01*
X169992064Y-124553631D01*
X169992063Y-124553631D01*
X169992061Y-124553631D01*
X169790936Y-124584442D01*
X169790924Y-124584445D01*
X169600115Y-124655113D01*
X169600109Y-124655115D01*
X169554952Y-124683262D01*
X169487647Y-124702017D01*
X169423390Y-124683023D01*
X169342522Y-124632211D01*
X169342518Y-124632209D01*
X169172262Y-124572633D01*
X169172249Y-124572630D01*
X169037960Y-124557500D01*
X169037954Y-124557500D01*
X168548046Y-124557500D01*
X168548039Y-124557500D01*
X168413750Y-124572630D01*
X168413745Y-124572631D01*
X168243476Y-124632211D01*
X168090737Y-124728184D01*
X167963184Y-124855737D01*
X167867211Y-125008476D01*
X167807631Y-125178745D01*
X167807630Y-125178750D01*
X167792500Y-125313039D01*
X167792500Y-126302960D01*
X165523068Y-126302960D01*
X165552500Y-126159741D01*
X165552500Y-125507258D01*
X165537074Y-125355562D01*
X165537074Y-125355560D01*
X165476162Y-125161420D01*
X165476160Y-125161416D01*
X165476159Y-125161412D01*
X165377409Y-124983498D01*
X165377408Y-124983497D01*
X165377407Y-124983495D01*
X165244867Y-124829106D01*
X165244865Y-124829104D01*
X165083962Y-124704554D01*
X165083959Y-124704553D01*
X165083958Y-124704552D01*
X164901271Y-124614940D01*
X164704285Y-124563937D01*
X164704287Y-124563937D01*
X164568804Y-124557066D01*
X164501064Y-124553631D01*
X164501063Y-124553631D01*
X164501061Y-124553631D01*
X164299936Y-124584442D01*
X164299924Y-124584445D01*
X164109118Y-124655111D01*
X164109111Y-124655115D01*
X163994556Y-124726517D01*
X163927250Y-124745273D01*
X163860489Y-124724663D01*
X163853065Y-124719342D01*
X163833958Y-124704552D01*
X163733171Y-124655114D01*
X163651271Y-124614940D01*
X163651270Y-124614940D01*
X163454285Y-124563937D01*
X163454287Y-124563937D01*
X163318804Y-124557066D01*
X163251064Y-124553631D01*
X163251063Y-124553631D01*
X163251061Y-124553631D01*
X163049936Y-124584442D01*
X163049924Y-124584445D01*
X162859118Y-124655111D01*
X162859111Y-124655115D01*
X162744556Y-124726517D01*
X162677250Y-124745273D01*
X162610489Y-124724663D01*
X162603065Y-124719342D01*
X162583958Y-124704552D01*
X162483171Y-124655114D01*
X162401271Y-124614940D01*
X162204285Y-124563937D01*
X162204287Y-124563937D01*
X162068804Y-124557066D01*
X162001064Y-124553631D01*
X162001063Y-124553631D01*
X162001061Y-124553631D01*
X161799936Y-124584442D01*
X161799924Y-124584445D01*
X161609118Y-124655111D01*
X161609111Y-124655115D01*
X161494556Y-124726517D01*
X161427250Y-124745273D01*
X161360489Y-124724663D01*
X161353065Y-124719342D01*
X161333958Y-124704552D01*
X161233171Y-124655114D01*
X161151271Y-124614940D01*
X160954285Y-124563937D01*
X160954287Y-124563937D01*
X160818804Y-124557066D01*
X160751064Y-124553631D01*
X160751063Y-124553631D01*
X160751061Y-124553631D01*
X160549936Y-124584442D01*
X160549924Y-124584445D01*
X160359115Y-124655113D01*
X160359109Y-124655115D01*
X160313952Y-124683262D01*
X160246647Y-124702017D01*
X160182390Y-124683023D01*
X160101522Y-124632211D01*
X160101518Y-124632209D01*
X159931262Y-124572633D01*
X159931249Y-124572630D01*
X159796960Y-124557500D01*
X159796954Y-124557500D01*
X159307046Y-124557500D01*
X159307039Y-124557500D01*
X159172750Y-124572630D01*
X159172745Y-124572631D01*
X159002476Y-124632211D01*
X158849737Y-124728184D01*
X158722184Y-124855737D01*
X158626211Y-125008476D01*
X158566631Y-125178745D01*
X158566630Y-125178750D01*
X158551500Y-125313039D01*
X158551500Y-126302960D01*
X156242068Y-126302960D01*
X156271500Y-126159741D01*
X156271500Y-125507258D01*
X156256074Y-125355562D01*
X156256074Y-125355560D01*
X156195162Y-125161420D01*
X156195160Y-125161416D01*
X156195159Y-125161412D01*
X156096409Y-124983498D01*
X156096408Y-124983497D01*
X156096407Y-124983495D01*
X155963867Y-124829106D01*
X155963865Y-124829104D01*
X155802962Y-124704554D01*
X155802959Y-124704553D01*
X155802958Y-124704552D01*
X155620271Y-124614940D01*
X155423285Y-124563937D01*
X155423287Y-124563937D01*
X155287804Y-124557066D01*
X155220064Y-124553631D01*
X155220063Y-124553631D01*
X155220061Y-124553631D01*
X155018936Y-124584442D01*
X155018924Y-124584445D01*
X154828118Y-124655111D01*
X154828111Y-124655115D01*
X154713556Y-124726517D01*
X154646250Y-124745273D01*
X154579489Y-124724663D01*
X154572065Y-124719342D01*
X154552958Y-124704552D01*
X154452171Y-124655114D01*
X154370271Y-124614940D01*
X154370270Y-124614940D01*
X154173285Y-124563937D01*
X154173287Y-124563937D01*
X154037804Y-124557066D01*
X153970064Y-124553631D01*
X153970063Y-124553631D01*
X153970061Y-124553631D01*
X153768936Y-124584442D01*
X153768924Y-124584445D01*
X153578118Y-124655111D01*
X153578111Y-124655115D01*
X153463556Y-124726517D01*
X153396250Y-124745273D01*
X153329489Y-124724663D01*
X153322065Y-124719342D01*
X153302958Y-124704552D01*
X153202171Y-124655114D01*
X153120271Y-124614940D01*
X153120270Y-124614940D01*
X152923285Y-124563937D01*
X152923287Y-124563937D01*
X152787804Y-124557066D01*
X152720064Y-124553631D01*
X152720063Y-124553631D01*
X152720061Y-124553631D01*
X152518936Y-124584442D01*
X152518924Y-124584445D01*
X152328118Y-124655111D01*
X152328111Y-124655115D01*
X152213556Y-124726517D01*
X152146250Y-124745273D01*
X152079489Y-124724663D01*
X152072065Y-124719342D01*
X152052958Y-124704552D01*
X151952171Y-124655114D01*
X151870271Y-124614940D01*
X151870270Y-124614940D01*
X151673285Y-124563937D01*
X151673287Y-124563937D01*
X151537804Y-124557066D01*
X151470064Y-124553631D01*
X151470063Y-124553631D01*
X151470061Y-124553631D01*
X151268936Y-124584442D01*
X151268924Y-124584445D01*
X151078118Y-124655111D01*
X151078111Y-124655115D01*
X150963556Y-124726517D01*
X150896250Y-124745273D01*
X150829489Y-124724663D01*
X150822065Y-124719342D01*
X150802958Y-124704552D01*
X150702171Y-124655114D01*
X150620271Y-124614940D01*
X150423285Y-124563937D01*
X150423287Y-124563937D01*
X150287804Y-124557066D01*
X150220064Y-124553631D01*
X150220063Y-124553631D01*
X150220061Y-124553631D01*
X150018936Y-124584442D01*
X150018924Y-124584445D01*
X149828115Y-124655113D01*
X149828109Y-124655115D01*
X149782952Y-124683262D01*
X149715647Y-124702017D01*
X149651390Y-124683023D01*
X149570522Y-124632211D01*
X149570518Y-124632209D01*
X149400262Y-124572633D01*
X149400249Y-124572630D01*
X149265960Y-124557500D01*
X149265954Y-124557500D01*
X148776046Y-124557500D01*
X148776039Y-124557500D01*
X148641750Y-124572630D01*
X148641745Y-124572631D01*
X148471476Y-124632211D01*
X148318737Y-124728184D01*
X148191184Y-124855737D01*
X148095211Y-125008476D01*
X148035631Y-125178745D01*
X148035630Y-125178750D01*
X148020500Y-125313039D01*
X148020500Y-126302960D01*
X145614068Y-126302960D01*
X145643500Y-126159741D01*
X145643500Y-125507258D01*
X145628074Y-125355562D01*
X145628074Y-125355560D01*
X145567162Y-125161420D01*
X145567160Y-125161416D01*
X145567159Y-125161412D01*
X145468409Y-124983498D01*
X145468408Y-124983497D01*
X145468407Y-124983495D01*
X145335867Y-124829106D01*
X145335865Y-124829104D01*
X145174962Y-124704554D01*
X145174959Y-124704553D01*
X145174958Y-124704552D01*
X144992271Y-124614940D01*
X144795285Y-124563937D01*
X144795287Y-124563937D01*
X144659804Y-124557066D01*
X144592064Y-124553631D01*
X144592063Y-124553631D01*
X144592061Y-124553631D01*
X144390936Y-124584442D01*
X144390924Y-124584445D01*
X144200115Y-124655113D01*
X144200109Y-124655115D01*
X144154952Y-124683262D01*
X144087647Y-124702017D01*
X144023390Y-124683023D01*
X143942522Y-124632211D01*
X143942518Y-124632209D01*
X143772262Y-124572633D01*
X143772249Y-124572630D01*
X143637960Y-124557500D01*
X143637954Y-124557500D01*
X143148046Y-124557500D01*
X143148039Y-124557500D01*
X143013750Y-124572630D01*
X143013745Y-124572631D01*
X142843476Y-124632211D01*
X142690737Y-124728184D01*
X142563184Y-124855737D01*
X142467211Y-125008476D01*
X142407631Y-125178745D01*
X142407630Y-125178750D01*
X142392500Y-125313039D01*
X142392500Y-126302960D01*
X137282119Y-126302960D01*
X137282119Y-123977133D01*
X137282119Y-123977042D01*
X137282112Y-123976938D01*
X137282101Y-123976575D01*
X137282154Y-123829975D01*
X137248236Y-123359631D01*
X137180358Y-122892977D01*
X137078875Y-122432461D01*
X136944320Y-121980501D01*
X136849136Y-121729010D01*
X136843817Y-121659346D01*
X136877006Y-121597862D01*
X136938167Y-121564082D01*
X137007882Y-121568731D01*
X137023562Y-121575762D01*
X137029267Y-121578811D01*
X137029273Y-121578814D01*
X137217868Y-121636024D01*
X137414000Y-121655341D01*
X137610132Y-121636024D01*
X137798727Y-121578814D01*
X137972538Y-121485910D01*
X137972544Y-121485904D01*
X137977607Y-121482523D01*
X137978703Y-121484164D01*
X138034639Y-121460405D01*
X138103507Y-121472194D01*
X138120148Y-121482888D01*
X138120393Y-121482523D01*
X138125458Y-121485907D01*
X138125462Y-121485910D01*
X138299273Y-121578814D01*
X138487868Y-121636024D01*
X138684000Y-121655341D01*
X138880132Y-121636024D01*
X139068727Y-121578814D01*
X139242538Y-121485910D01*
X139394883Y-121360883D01*
X139519910Y-121208538D01*
X139612814Y-121034727D01*
X139659029Y-120882379D01*
X139996341Y-120882379D01*
X140015657Y-121078508D01*
X140015658Y-121078511D01*
X140055101Y-121208538D01*
X140072870Y-121267112D01*
X140165768Y-121440911D01*
X140165772Y-121440918D01*
X140290798Y-121593262D01*
X140443142Y-121718288D01*
X140443149Y-121718292D01*
X140616948Y-121811190D01*
X140616951Y-121811190D01*
X140616955Y-121811193D01*
X140805550Y-121868403D01*
X141001682Y-121887720D01*
X141197814Y-121868403D01*
X141386409Y-121811193D01*
X141560220Y-121718289D01*
X141712565Y-121593262D01*
X141837592Y-121440917D01*
X141930496Y-121267106D01*
X141987706Y-121078511D01*
X142007023Y-120882379D01*
X141987706Y-120686247D01*
X141930496Y-120497652D01*
X141930493Y-120497648D01*
X141930493Y-120497645D01*
X141837595Y-120323846D01*
X141837591Y-120323839D01*
X141712565Y-120171495D01*
X141676625Y-120142000D01*
X146822659Y-120142000D01*
X146841975Y-120338129D01*
X146841976Y-120338132D01*
X146893266Y-120507213D01*
X146899188Y-120526733D01*
X146992086Y-120700532D01*
X146992090Y-120700539D01*
X147117116Y-120852883D01*
X147269460Y-120977909D01*
X147269463Y-120977911D01*
X147344256Y-121017888D01*
X147394101Y-121066850D01*
X147409562Y-121134988D01*
X147404465Y-121163242D01*
X147349975Y-121342869D01*
X147330659Y-121539000D01*
X147349975Y-121735129D01*
X147349976Y-121735132D01*
X147407186Y-121923727D01*
X147432207Y-121970538D01*
X147441833Y-121988548D01*
X147456074Y-122056951D01*
X147441833Y-122105452D01*
X147407187Y-122170271D01*
X147349975Y-122358870D01*
X147330659Y-122555000D01*
X147349975Y-122751129D01*
X147349976Y-122751132D01*
X147393004Y-122892977D01*
X147407188Y-122939733D01*
X147500086Y-123113532D01*
X147500090Y-123113539D01*
X147625116Y-123265883D01*
X147777460Y-123390909D01*
X147777467Y-123390913D01*
X147951266Y-123483811D01*
X147951269Y-123483811D01*
X147951273Y-123483814D01*
X148139868Y-123541024D01*
X148336000Y-123560341D01*
X148532132Y-123541024D01*
X148720727Y-123483814D01*
X148894538Y-123390910D01*
X149046883Y-123265883D01*
X149171910Y-123113538D01*
X149264814Y-122939727D01*
X149322024Y-122751132D01*
X149341341Y-122555000D01*
X149322024Y-122358868D01*
X149264814Y-122170273D01*
X149230166Y-122105452D01*
X149215925Y-122037051D01*
X149230167Y-121988546D01*
X149234468Y-121980501D01*
X149264814Y-121923727D01*
X149322024Y-121735132D01*
X149341341Y-121539000D01*
X149328833Y-121412000D01*
X158506659Y-121412000D01*
X158525975Y-121608129D01*
X158583188Y-121796733D01*
X158676086Y-121970532D01*
X158676090Y-121970539D01*
X158801116Y-122122883D01*
X158953460Y-122247909D01*
X158953467Y-122247913D01*
X159127266Y-122340811D01*
X159127269Y-122340811D01*
X159127273Y-122340814D01*
X159315868Y-122398024D01*
X159512000Y-122417341D01*
X159708132Y-122398024D01*
X159896727Y-122340814D01*
X159904067Y-122336891D01*
X160070532Y-122247913D01*
X160070538Y-122247910D01*
X160222883Y-122122883D01*
X160347910Y-121970538D01*
X160433082Y-121811193D01*
X160440811Y-121796733D01*
X160440811Y-121796732D01*
X160440814Y-121796727D01*
X160498024Y-121608132D01*
X160517341Y-121412000D01*
X168412659Y-121412000D01*
X168431975Y-121608129D01*
X168489188Y-121796733D01*
X168582086Y-121970532D01*
X168582090Y-121970539D01*
X168707116Y-122122883D01*
X168859460Y-122247909D01*
X168859467Y-122247913D01*
X169033266Y-122340811D01*
X169033269Y-122340811D01*
X169033273Y-122340814D01*
X169221868Y-122398024D01*
X169418000Y-122417341D01*
X169614132Y-122398024D01*
X169802727Y-122340814D01*
X169810067Y-122336891D01*
X169976532Y-122247913D01*
X169976538Y-122247910D01*
X170128883Y-122122883D01*
X170253910Y-121970538D01*
X170339082Y-121811193D01*
X170346811Y-121796733D01*
X170346811Y-121796732D01*
X170346814Y-121796727D01*
X170404024Y-121608132D01*
X170423341Y-121412000D01*
X170404024Y-121215868D01*
X170346814Y-121027273D01*
X170346811Y-121027269D01*
X170346811Y-121027266D01*
X170253913Y-120853467D01*
X170253909Y-120853460D01*
X170128883Y-120701116D01*
X169976539Y-120576090D01*
X169976532Y-120576086D01*
X169802733Y-120483188D01*
X169802727Y-120483186D01*
X169614132Y-120425976D01*
X169614129Y-120425975D01*
X169418000Y-120406659D01*
X169221870Y-120425975D01*
X169033266Y-120483188D01*
X168859467Y-120576086D01*
X168859460Y-120576090D01*
X168707116Y-120701116D01*
X168582090Y-120853460D01*
X168582086Y-120853467D01*
X168489188Y-121027266D01*
X168431975Y-121215870D01*
X168412659Y-121412000D01*
X160517341Y-121412000D01*
X160498024Y-121215868D01*
X160440814Y-121027273D01*
X160440811Y-121027269D01*
X160440811Y-121027266D01*
X160347913Y-120853467D01*
X160347909Y-120853460D01*
X160222883Y-120701116D01*
X160070539Y-120576090D01*
X160070532Y-120576086D01*
X159896733Y-120483188D01*
X159896727Y-120483186D01*
X159708132Y-120425976D01*
X159708129Y-120425975D01*
X159512000Y-120406659D01*
X159315870Y-120425975D01*
X159127266Y-120483188D01*
X158953467Y-120576086D01*
X158953460Y-120576090D01*
X158801116Y-120701116D01*
X158676090Y-120853460D01*
X158676086Y-120853467D01*
X158583188Y-121027266D01*
X158525975Y-121215870D01*
X158506659Y-121412000D01*
X149328833Y-121412000D01*
X149322024Y-121342868D01*
X149264814Y-121154273D01*
X149264811Y-121154269D01*
X149264811Y-121154266D01*
X149171913Y-120980467D01*
X149171909Y-120980460D01*
X149046883Y-120828116D01*
X148894539Y-120703090D01*
X148894532Y-120703086D01*
X148819742Y-120663110D01*
X148769898Y-120614148D01*
X148754437Y-120546010D01*
X148759535Y-120517756D01*
X148814024Y-120338132D01*
X148833341Y-120142000D01*
X148814024Y-119945868D01*
X148756814Y-119757273D01*
X148756811Y-119757269D01*
X148756811Y-119757266D01*
X148663913Y-119583467D01*
X148663911Y-119583465D01*
X148663910Y-119583462D01*
X148657363Y-119575484D01*
X148646810Y-119562625D01*
X148619497Y-119498315D01*
X148631288Y-119429447D01*
X148678440Y-119377887D01*
X148745983Y-119360004D01*
X148754806Y-119360556D01*
X148844000Y-119369341D01*
X149040132Y-119350024D01*
X149228727Y-119292814D01*
X149402538Y-119199910D01*
X149554883Y-119074883D01*
X149679910Y-118922538D01*
X149772814Y-118748727D01*
X149830024Y-118560132D01*
X149849341Y-118364000D01*
X149830024Y-118167868D01*
X149812470Y-118110000D01*
X152918659Y-118110000D01*
X152937975Y-118306129D01*
X152995188Y-118494733D01*
X153088086Y-118668532D01*
X153088090Y-118668539D01*
X153213116Y-118820883D01*
X153365460Y-118945909D01*
X153365467Y-118945913D01*
X153539266Y-119038811D01*
X153539269Y-119038811D01*
X153539273Y-119038814D01*
X153727868Y-119096024D01*
X153924000Y-119115341D01*
X154120132Y-119096024D01*
X154308727Y-119038814D01*
X154375467Y-119003141D01*
X154482532Y-118945913D01*
X154482538Y-118945910D01*
X154634883Y-118820883D01*
X154759910Y-118668538D01*
X154852814Y-118494727D01*
X154870677Y-118435838D01*
X154908973Y-118377402D01*
X154972785Y-118348945D01*
X155041852Y-118359504D01*
X155068002Y-118375982D01*
X155143460Y-118437909D01*
X155143467Y-118437913D01*
X155317266Y-118530811D01*
X155317269Y-118530811D01*
X155317273Y-118530814D01*
X155505868Y-118588024D01*
X155702000Y-118607341D01*
X155898132Y-118588024D01*
X156086727Y-118530814D01*
X156260538Y-118437910D01*
X156412883Y-118312883D01*
X156537910Y-118160538D01*
X156630814Y-117986727D01*
X156688024Y-117798132D01*
X156707341Y-117602000D01*
X166634659Y-117602000D01*
X166653975Y-117798129D01*
X166711188Y-117986733D01*
X166804086Y-118160532D01*
X166804090Y-118160539D01*
X166929116Y-118312883D01*
X167081460Y-118437909D01*
X167081467Y-118437913D01*
X167255266Y-118530811D01*
X167255269Y-118530811D01*
X167255273Y-118530814D01*
X167443868Y-118588024D01*
X167640000Y-118607341D01*
X167836132Y-118588024D01*
X168024727Y-118530814D01*
X168198538Y-118437910D01*
X168350883Y-118312883D01*
X168475910Y-118160538D01*
X168568814Y-117986727D01*
X168626024Y-117798132D01*
X168645341Y-117602000D01*
X168626024Y-117405868D01*
X168568814Y-117217273D01*
X168568811Y-117217269D01*
X168568811Y-117217266D01*
X168475913Y-117043467D01*
X168475909Y-117043460D01*
X168350883Y-116891116D01*
X168198539Y-116766090D01*
X168198532Y-116766086D01*
X168024733Y-116673188D01*
X168024727Y-116673186D01*
X167898996Y-116635045D01*
X167836129Y-116615975D01*
X167640000Y-116596659D01*
X167443870Y-116615975D01*
X167255266Y-116673188D01*
X167081467Y-116766086D01*
X167081460Y-116766090D01*
X166929116Y-116891116D01*
X166804090Y-117043460D01*
X166804086Y-117043467D01*
X166711188Y-117217266D01*
X166653975Y-117405870D01*
X166634659Y-117602000D01*
X156707341Y-117602000D01*
X156688024Y-117405868D01*
X156630814Y-117217273D01*
X156630811Y-117217269D01*
X156630811Y-117217266D01*
X156537913Y-117043467D01*
X156537909Y-117043460D01*
X156412883Y-116891116D01*
X156260539Y-116766090D01*
X156260532Y-116766086D01*
X156086733Y-116673188D01*
X156086727Y-116673186D01*
X155960997Y-116635045D01*
X155898129Y-116615975D01*
X155702000Y-116596659D01*
X155505870Y-116615975D01*
X155317266Y-116673188D01*
X155143467Y-116766086D01*
X155143460Y-116766090D01*
X154991116Y-116891116D01*
X154866090Y-117043460D01*
X154866086Y-117043467D01*
X154773186Y-117217271D01*
X154755322Y-117276160D01*
X154717024Y-117334599D01*
X154653212Y-117363055D01*
X154584145Y-117352494D01*
X154557997Y-117336017D01*
X154482539Y-117274091D01*
X154482532Y-117274086D01*
X154308733Y-117181188D01*
X154308727Y-117181186D01*
X154120132Y-117123976D01*
X154120129Y-117123975D01*
X153924000Y-117104659D01*
X153727870Y-117123975D01*
X153539266Y-117181188D01*
X153365467Y-117274086D01*
X153365460Y-117274090D01*
X153213116Y-117399116D01*
X153088090Y-117551460D01*
X153088086Y-117551467D01*
X152995188Y-117725266D01*
X152937975Y-117913870D01*
X152918659Y-118110000D01*
X149812470Y-118110000D01*
X149772814Y-117979273D01*
X149772811Y-117979269D01*
X149772811Y-117979266D01*
X149679913Y-117805467D01*
X149679909Y-117805460D01*
X149554883Y-117653116D01*
X149402539Y-117528090D01*
X149402532Y-117528086D01*
X149228733Y-117435188D01*
X149228727Y-117435186D01*
X149040132Y-117377976D01*
X149040129Y-117377975D01*
X148844000Y-117358659D01*
X148647870Y-117377975D01*
X148459266Y-117435188D01*
X148285467Y-117528086D01*
X148285460Y-117528090D01*
X148133116Y-117653116D01*
X148008090Y-117805460D01*
X148008086Y-117805467D01*
X147915188Y-117979266D01*
X147857975Y-118167870D01*
X147838659Y-118364000D01*
X147857975Y-118560129D01*
X147915188Y-118748733D01*
X148008086Y-118922532D01*
X148008090Y-118922538D01*
X148025190Y-118943375D01*
X148052502Y-119007685D01*
X148040711Y-119076552D01*
X147993558Y-119128112D01*
X147926016Y-119145995D01*
X147917183Y-119145442D01*
X147828001Y-119136659D01*
X147828000Y-119136659D01*
X147631870Y-119155975D01*
X147443266Y-119213188D01*
X147269467Y-119306086D01*
X147269460Y-119306090D01*
X147117116Y-119431116D01*
X146992090Y-119583460D01*
X146992086Y-119583467D01*
X146899188Y-119757266D01*
X146841975Y-119945870D01*
X146822659Y-120142000D01*
X141676625Y-120142000D01*
X141560221Y-120046469D01*
X141560214Y-120046465D01*
X141386415Y-119953567D01*
X141386409Y-119953565D01*
X141197814Y-119896355D01*
X141197811Y-119896354D01*
X141001682Y-119877038D01*
X140805552Y-119896354D01*
X140616948Y-119953567D01*
X140443149Y-120046465D01*
X140443142Y-120046469D01*
X140290798Y-120171495D01*
X140165772Y-120323839D01*
X140165768Y-120323846D01*
X140072870Y-120497645D01*
X140015657Y-120686249D01*
X139996341Y-120882379D01*
X139659029Y-120882379D01*
X139670024Y-120846132D01*
X139689341Y-120650000D01*
X139670024Y-120453868D01*
X139612814Y-120265273D01*
X139612811Y-120265269D01*
X139612811Y-120265266D01*
X139519913Y-120091467D01*
X139519909Y-120091460D01*
X139394883Y-119939116D01*
X139242539Y-119814090D01*
X139242532Y-119814086D01*
X139068733Y-119721188D01*
X139068727Y-119721186D01*
X138880132Y-119663976D01*
X138880129Y-119663975D01*
X138684000Y-119644659D01*
X138487870Y-119663975D01*
X138299266Y-119721188D01*
X138125467Y-119814086D01*
X138120399Y-119817473D01*
X138119305Y-119815836D01*
X138063337Y-119839596D01*
X137994471Y-119827795D01*
X137977843Y-119817109D01*
X137977601Y-119817473D01*
X137972532Y-119814086D01*
X137798733Y-119721188D01*
X137798727Y-119721186D01*
X137610132Y-119663976D01*
X137610129Y-119663975D01*
X137414000Y-119644659D01*
X137217870Y-119663975D01*
X137029266Y-119721188D01*
X136855467Y-119814086D01*
X136855460Y-119814090D01*
X136703116Y-119939116D01*
X136578090Y-120091460D01*
X136578086Y-120091467D01*
X136485186Y-120265271D01*
X136429520Y-120448775D01*
X136391223Y-120507213D01*
X136327410Y-120535670D01*
X136258343Y-120525109D01*
X136207084Y-120480651D01*
X136092019Y-120304712D01*
X135806017Y-119929777D01*
X135806014Y-119929773D01*
X135806015Y-119929774D01*
X135493625Y-119576532D01*
X135156475Y-119246824D01*
X135156474Y-119246823D01*
X135106689Y-119204727D01*
X135104144Y-119202453D01*
X135103066Y-119201434D01*
X135078427Y-119180646D01*
X134975295Y-119093630D01*
X134975001Y-119093382D01*
X134974203Y-119092704D01*
X134175181Y-118394389D01*
X133400863Y-117668628D01*
X132652264Y-116916367D01*
X131930290Y-116138516D01*
X131802470Y-115990814D01*
X131235816Y-115336018D01*
X130569681Y-114509844D01*
X129932694Y-113660995D01*
X129325625Y-112790498D01*
X128749208Y-111899408D01*
X128204143Y-110988803D01*
X127691089Y-110059786D01*
X127210667Y-109113481D01*
X127158462Y-109001129D01*
X126763458Y-108151034D01*
X126350005Y-107173613D01*
X126031217Y-106340306D01*
X126025648Y-106270658D01*
X126058618Y-106209057D01*
X126119658Y-106175059D01*
X126147031Y-106172000D01*
X127069035Y-106172000D01*
X127136074Y-106191685D01*
X127147700Y-106200147D01*
X127203460Y-106245909D01*
X127203467Y-106245913D01*
X127377266Y-106338811D01*
X127377269Y-106338811D01*
X127377273Y-106338814D01*
X127565868Y-106396024D01*
X127762000Y-106415341D01*
X127958132Y-106396024D01*
X128146727Y-106338814D01*
X128150039Y-106337044D01*
X128274238Y-106270658D01*
X128320538Y-106245910D01*
X128376300Y-106200146D01*
X128440609Y-106172834D01*
X128454965Y-106172000D01*
X134124951Y-106172000D01*
X134131032Y-106172299D01*
X134192066Y-106178310D01*
X134310941Y-106190018D01*
X134334769Y-106194757D01*
X134499001Y-106244576D01*
X134521453Y-106253877D01*
X134552849Y-106270658D01*
X134672798Y-106334772D01*
X134693010Y-106348277D01*
X134825666Y-106457145D01*
X134842854Y-106474333D01*
X134951722Y-106606989D01*
X134965227Y-106627201D01*
X135046121Y-106778543D01*
X135055424Y-106801001D01*
X135105240Y-106965224D01*
X135109982Y-106989065D01*
X135127701Y-107168967D01*
X135128000Y-107175047D01*
X135128000Y-116332000D01*
X136128003Y-116332000D01*
X136443030Y-116332000D01*
X136510069Y-116351685D01*
X136552390Y-116397550D01*
X136556111Y-116404513D01*
X136556113Y-116404516D01*
X136681139Y-116556860D01*
X136833483Y-116681886D01*
X136833490Y-116681890D01*
X137007289Y-116774788D01*
X137007292Y-116774788D01*
X137007296Y-116774791D01*
X137195891Y-116832001D01*
X137392023Y-116851318D01*
X137588155Y-116832001D01*
X137776750Y-116774791D01*
X137793029Y-116766090D01*
X137863655Y-116728338D01*
X137950561Y-116681887D01*
X137999743Y-116641524D01*
X138020336Y-116624624D01*
X138084646Y-116597311D01*
X138099001Y-116596477D01*
X141646318Y-116596477D01*
X141664288Y-116597786D01*
X141688046Y-116601266D01*
X141740091Y-116596712D01*
X141745493Y-116596477D01*
X141753727Y-116596477D01*
X141753732Y-116596477D01*
X141765350Y-116595118D01*
X141786299Y-116592670D01*
X141799051Y-116591554D01*
X141862820Y-116585976D01*
X141862828Y-116585973D01*
X141869889Y-116584516D01*
X141869901Y-116584575D01*
X141877266Y-116582942D01*
X141877252Y-116582883D01*
X141884269Y-116581218D01*
X141884278Y-116581218D01*
X141956446Y-116554951D01*
X142029357Y-116530791D01*
X142029366Y-116530784D01*
X142035905Y-116527737D01*
X142035931Y-116527793D01*
X142042713Y-116524509D01*
X142042686Y-116524455D01*
X142049129Y-116521217D01*
X142049140Y-116521214D01*
X142113306Y-116479011D01*
X142178679Y-116438689D01*
X142178685Y-116438682D01*
X142184348Y-116434206D01*
X142184386Y-116434254D01*
X142190218Y-116429503D01*
X142190179Y-116429456D01*
X142195717Y-116424808D01*
X142195716Y-116424808D01*
X142195719Y-116424807D01*
X142246568Y-116370907D01*
X142306891Y-116335652D01*
X142336764Y-116332000D01*
X142763997Y-116332000D01*
X142764000Y-116332000D01*
X143764000Y-116332000D01*
X143764000Y-115779546D01*
X158253159Y-115779546D01*
X158272475Y-115975675D01*
X158329688Y-116164279D01*
X158422586Y-116338078D01*
X158422590Y-116338085D01*
X158547616Y-116490429D01*
X158699960Y-116615455D01*
X158699967Y-116615459D01*
X158873766Y-116708357D01*
X158873769Y-116708357D01*
X158873773Y-116708360D01*
X159062368Y-116765570D01*
X159258500Y-116784887D01*
X159454632Y-116765570D01*
X159643227Y-116708360D01*
X159692755Y-116681887D01*
X159730132Y-116661907D01*
X159817038Y-116615456D01*
X159969383Y-116490429D01*
X160094410Y-116338084D01*
X160094414Y-116338078D01*
X160099357Y-116328829D01*
X160148316Y-116278982D01*
X160216453Y-116263517D01*
X160282134Y-116287346D01*
X160324506Y-116342901D01*
X160327378Y-116351280D01*
X160361186Y-116462728D01*
X160454086Y-116636532D01*
X160454090Y-116636539D01*
X160579116Y-116788883D01*
X160731460Y-116913909D01*
X160731467Y-116913913D01*
X160905266Y-117006811D01*
X160905269Y-117006811D01*
X160905273Y-117006814D01*
X161093868Y-117064024D01*
X161290000Y-117083341D01*
X161486132Y-117064024D01*
X161674727Y-117006814D01*
X161848538Y-116913910D01*
X162000883Y-116788883D01*
X162125910Y-116636538D01*
X162182434Y-116530790D01*
X162218811Y-116462733D01*
X162218813Y-116462728D01*
X162218814Y-116462727D01*
X162276024Y-116274132D01*
X162295341Y-116078000D01*
X162276024Y-115881868D01*
X162218814Y-115693273D01*
X162218811Y-115693269D01*
X162218811Y-115693266D01*
X162125913Y-115519467D01*
X162125909Y-115519460D01*
X162000883Y-115367116D01*
X161848539Y-115242090D01*
X161848532Y-115242086D01*
X161674733Y-115149188D01*
X161674727Y-115149186D01*
X161486132Y-115091976D01*
X161486129Y-115091975D01*
X161290000Y-115072659D01*
X161093870Y-115091975D01*
X160905266Y-115149188D01*
X160731467Y-115242086D01*
X160731460Y-115242090D01*
X160579116Y-115367116D01*
X160454090Y-115519460D01*
X160454088Y-115519464D01*
X160449138Y-115528725D01*
X160400174Y-115578568D01*
X160332036Y-115594027D01*
X160266357Y-115570193D01*
X160223989Y-115514635D01*
X160221125Y-115506280D01*
X160187314Y-115394819D01*
X160187312Y-115394816D01*
X160187312Y-115394814D01*
X160094413Y-115221013D01*
X160094409Y-115221006D01*
X159969383Y-115068662D01*
X159817039Y-114943636D01*
X159817032Y-114943632D01*
X159643233Y-114850734D01*
X159643227Y-114850732D01*
X159454632Y-114793522D01*
X159454629Y-114793521D01*
X159258500Y-114774205D01*
X159062370Y-114793521D01*
X158873766Y-114850734D01*
X158699967Y-114943632D01*
X158699960Y-114943636D01*
X158547616Y-115068662D01*
X158422590Y-115221006D01*
X158422586Y-115221013D01*
X158329688Y-115394812D01*
X158272475Y-115583416D01*
X158253159Y-115779546D01*
X143764000Y-115779546D01*
X143764000Y-114300000D01*
X153553659Y-114300000D01*
X153572975Y-114496129D01*
X153630188Y-114684733D01*
X153723086Y-114858532D01*
X153723090Y-114858539D01*
X153848116Y-115010883D01*
X154000460Y-115135909D01*
X154000467Y-115135913D01*
X154174266Y-115228811D01*
X154174269Y-115228811D01*
X154174273Y-115228814D01*
X154362868Y-115286024D01*
X154559000Y-115305341D01*
X154755132Y-115286024D01*
X154943727Y-115228814D01*
X155117538Y-115135910D01*
X155269883Y-115010883D01*
X155394910Y-114858538D01*
X155487814Y-114684727D01*
X155545024Y-114496132D01*
X155564341Y-114300000D01*
X155545024Y-114103868D01*
X155487814Y-113915273D01*
X155487811Y-113915269D01*
X155487811Y-113915266D01*
X155394913Y-113741467D01*
X155394909Y-113741460D01*
X155269883Y-113589116D01*
X155207598Y-113538000D01*
X170952659Y-113538000D01*
X170971975Y-113734129D01*
X171029188Y-113922733D01*
X171122086Y-114096532D01*
X171122090Y-114096539D01*
X171247116Y-114248883D01*
X171399460Y-114373909D01*
X171399467Y-114373913D01*
X171573266Y-114466811D01*
X171573269Y-114466811D01*
X171573273Y-114466814D01*
X171761868Y-114524024D01*
X171958000Y-114543341D01*
X172154132Y-114524024D01*
X172342727Y-114466814D01*
X172383071Y-114445250D01*
X172516532Y-114373913D01*
X172516538Y-114373910D01*
X172641335Y-114271490D01*
X172705645Y-114244178D01*
X172774512Y-114255969D01*
X172798665Y-114271491D01*
X172923460Y-114373909D01*
X172923467Y-114373913D01*
X173097266Y-114466811D01*
X173097269Y-114466811D01*
X173097273Y-114466814D01*
X173285868Y-114524024D01*
X173482000Y-114543341D01*
X173678132Y-114524024D01*
X173866727Y-114466814D01*
X173907071Y-114445250D01*
X174040532Y-114373913D01*
X174040538Y-114373910D01*
X174192883Y-114248883D01*
X174317910Y-114096538D01*
X174410814Y-113922727D01*
X174468024Y-113734132D01*
X174487341Y-113538000D01*
X174468024Y-113341868D01*
X174410814Y-113153273D01*
X174410811Y-113153269D01*
X174410811Y-113153266D01*
X174317913Y-112979467D01*
X174317909Y-112979460D01*
X174192883Y-112827116D01*
X174040539Y-112702090D01*
X174040532Y-112702086D01*
X173866733Y-112609188D01*
X173866727Y-112609186D01*
X173678132Y-112551976D01*
X173678129Y-112551975D01*
X173482000Y-112532659D01*
X173285870Y-112551975D01*
X173097266Y-112609188D01*
X172923467Y-112702086D01*
X172923460Y-112702090D01*
X172798665Y-112804508D01*
X172734355Y-112831821D01*
X172665487Y-112820030D01*
X172641335Y-112804508D01*
X172516539Y-112702090D01*
X172516532Y-112702086D01*
X172342733Y-112609188D01*
X172342727Y-112609186D01*
X172154132Y-112551976D01*
X172154129Y-112551975D01*
X171958000Y-112532659D01*
X171761870Y-112551975D01*
X171573266Y-112609188D01*
X171399467Y-112702086D01*
X171399460Y-112702090D01*
X171247116Y-112827116D01*
X171122090Y-112979460D01*
X171122086Y-112979467D01*
X171029188Y-113153266D01*
X170971975Y-113341870D01*
X170952659Y-113538000D01*
X155207598Y-113538000D01*
X155117539Y-113464090D01*
X155117532Y-113464086D01*
X154943733Y-113371188D01*
X154943727Y-113371186D01*
X154755132Y-113313976D01*
X154755129Y-113313975D01*
X154559000Y-113294659D01*
X154362870Y-113313975D01*
X154174266Y-113371188D01*
X154000467Y-113464086D01*
X154000460Y-113464090D01*
X153848116Y-113589116D01*
X153723090Y-113741460D01*
X153723086Y-113741467D01*
X153630188Y-113915266D01*
X153572975Y-114103870D01*
X153553659Y-114300000D01*
X143764000Y-114300000D01*
X143764000Y-113271048D01*
X143764299Y-113264967D01*
X143768706Y-113220213D01*
X143782018Y-113085056D01*
X143786757Y-113061232D01*
X143836577Y-112896994D01*
X143845875Y-112874549D01*
X143926775Y-112723195D01*
X143940272Y-112702995D01*
X144049149Y-112570328D01*
X144066328Y-112553149D01*
X144198995Y-112444272D01*
X144219195Y-112430775D01*
X144370549Y-112349875D01*
X144392994Y-112340577D01*
X144557232Y-112290757D01*
X144581056Y-112286018D01*
X144695975Y-112274700D01*
X144760969Y-112268299D01*
X144767049Y-112268000D01*
X146041543Y-112268000D01*
X146108582Y-112287685D01*
X146150901Y-112333547D01*
X146188567Y-112404016D01*
X146313593Y-112556360D01*
X146465937Y-112681386D01*
X146465944Y-112681390D01*
X146639743Y-112774288D01*
X146639746Y-112774288D01*
X146639750Y-112774291D01*
X146828345Y-112831501D01*
X147024477Y-112850818D01*
X147220609Y-112831501D01*
X147409204Y-112774291D01*
X147425949Y-112765341D01*
X147583009Y-112681390D01*
X147583015Y-112681387D01*
X147735360Y-112556360D01*
X147860387Y-112404015D01*
X147898052Y-112333547D01*
X147947015Y-112283702D01*
X148007411Y-112268000D01*
X154895565Y-112268000D01*
X154962604Y-112287685D01*
X155008359Y-112340489D01*
X155014225Y-112356003D01*
X155027186Y-112398729D01*
X155120086Y-112572532D01*
X155120090Y-112572539D01*
X155245116Y-112724883D01*
X155397460Y-112849909D01*
X155397467Y-112849913D01*
X155571266Y-112942811D01*
X155571269Y-112942811D01*
X155571273Y-112942814D01*
X155759868Y-113000024D01*
X155956000Y-113019341D01*
X156152132Y-113000024D01*
X156340727Y-112942814D01*
X156514538Y-112849910D01*
X156666883Y-112724883D01*
X156791910Y-112572538D01*
X156884814Y-112398727D01*
X156890541Y-112379847D01*
X156897775Y-112356003D01*
X156936074Y-112297565D01*
X156999886Y-112269109D01*
X157016435Y-112268000D01*
X163982272Y-112268000D01*
X164049311Y-112287685D01*
X164095066Y-112340489D01*
X164105674Y-112379845D01*
X164107827Y-112401701D01*
X164113975Y-112464128D01*
X164113975Y-112464130D01*
X164113976Y-112464132D01*
X164146859Y-112572532D01*
X164171188Y-112652733D01*
X164264086Y-112826532D01*
X164264090Y-112826539D01*
X164389116Y-112978883D01*
X164541460Y-113103909D01*
X164541467Y-113103913D01*
X164715266Y-113196811D01*
X164715269Y-113196811D01*
X164715273Y-113196814D01*
X164903868Y-113254024D01*
X165100000Y-113273341D01*
X165296132Y-113254024D01*
X165484727Y-113196814D01*
X165658538Y-113103910D01*
X165810883Y-112978883D01*
X165935910Y-112826538D01*
X166013495Y-112681387D01*
X166028811Y-112652733D01*
X166028811Y-112652732D01*
X166028814Y-112652727D01*
X166086024Y-112464132D01*
X166094325Y-112379846D01*
X166120485Y-112315059D01*
X166177520Y-112274700D01*
X166217728Y-112268000D01*
X169257783Y-112268000D01*
X169257786Y-112268000D01*
X169672000Y-112268000D01*
X175260000Y-106680000D01*
X175260000Y-106172000D01*
X177048659Y-106172000D01*
X177067975Y-106368129D01*
X177125188Y-106556733D01*
X177218086Y-106730532D01*
X177218090Y-106730539D01*
X177343116Y-106882883D01*
X177495460Y-107007909D01*
X177495467Y-107007913D01*
X177669266Y-107100811D01*
X177669269Y-107100811D01*
X177669273Y-107100814D01*
X177857868Y-107158024D01*
X178054000Y-107177341D01*
X178250132Y-107158024D01*
X178438727Y-107100814D01*
X178449603Y-107095001D01*
X178612532Y-107007913D01*
X178612538Y-107007910D01*
X178764883Y-106882883D01*
X178889910Y-106730538D01*
X178982814Y-106556727D01*
X179040024Y-106368132D01*
X179059341Y-106172000D01*
X179040024Y-105975868D01*
X178982814Y-105787273D01*
X178982811Y-105787269D01*
X178982811Y-105787266D01*
X178889913Y-105613467D01*
X178889909Y-105613460D01*
X178764883Y-105461116D01*
X178612539Y-105336090D01*
X178612532Y-105336086D01*
X178438733Y-105243188D01*
X178438727Y-105243186D01*
X178250132Y-105185976D01*
X178250129Y-105185975D01*
X178054000Y-105166659D01*
X177857870Y-105185975D01*
X177669266Y-105243188D01*
X177495467Y-105336086D01*
X177495460Y-105336090D01*
X177343116Y-105461116D01*
X177218090Y-105613460D01*
X177218086Y-105613467D01*
X177125188Y-105787266D01*
X177067975Y-105975870D01*
X177048659Y-106172000D01*
X175260000Y-106172000D01*
X175260000Y-99822005D01*
X176598528Y-99822005D01*
X176618379Y-100061559D01*
X176677389Y-100294589D01*
X176773951Y-100514729D01*
X176857016Y-100641868D01*
X176905429Y-100715969D01*
X177068236Y-100892825D01*
X177068239Y-100892827D01*
X177068242Y-100892830D01*
X177257924Y-101040466D01*
X177257930Y-101040470D01*
X177257933Y-101040472D01*
X177469344Y-101154882D01*
X177469347Y-101154883D01*
X177696699Y-101232933D01*
X177696701Y-101232933D01*
X177696703Y-101232934D01*
X177933808Y-101272500D01*
X177933809Y-101272500D01*
X178174191Y-101272500D01*
X178174192Y-101272500D01*
X178411297Y-101232934D01*
X178638656Y-101154882D01*
X178850067Y-101040472D01*
X179039764Y-100892825D01*
X179202571Y-100715969D01*
X179334049Y-100514728D01*
X179430610Y-100294591D01*
X179489620Y-100061563D01*
X179498442Y-99955090D01*
X179509471Y-99822005D01*
X179509471Y-99821994D01*
X179489620Y-99582440D01*
X179489620Y-99582437D01*
X179430610Y-99349409D01*
X179334049Y-99129272D01*
X179323999Y-99113890D01*
X179268310Y-99028651D01*
X179202571Y-98928031D01*
X179039764Y-98751175D01*
X178909585Y-98649852D01*
X178868773Y-98593143D01*
X178865098Y-98523370D01*
X178899730Y-98462687D01*
X178909585Y-98454147D01*
X179039764Y-98352825D01*
X179202571Y-98175969D01*
X179334049Y-97974728D01*
X179430610Y-97754591D01*
X179489620Y-97521563D01*
X179499695Y-97399982D01*
X179509471Y-97282005D01*
X179509471Y-97281994D01*
X179489620Y-97042440D01*
X179489620Y-97042437D01*
X179430610Y-96809409D01*
X179334049Y-96589272D01*
X179323999Y-96573890D01*
X179255773Y-96469462D01*
X179202571Y-96388031D01*
X179039764Y-96211175D01*
X178909585Y-96109852D01*
X178868773Y-96053143D01*
X178865098Y-95983370D01*
X178899730Y-95922687D01*
X178909585Y-95914147D01*
X179039764Y-95812825D01*
X179202571Y-95635969D01*
X179334049Y-95434728D01*
X179430610Y-95214591D01*
X179489620Y-94981563D01*
X179509471Y-94742000D01*
X179509162Y-94738273D01*
X179489620Y-94502440D01*
X179489620Y-94502437D01*
X179430610Y-94269409D01*
X179334049Y-94049272D01*
X179323999Y-94033890D01*
X179220437Y-93875377D01*
X179202571Y-93848031D01*
X179143046Y-93783369D01*
X179112125Y-93720716D01*
X179119985Y-93651290D01*
X179164132Y-93597135D01*
X179186825Y-93584827D01*
X179192153Y-93582619D01*
X179206841Y-93576536D01*
X179332282Y-93480282D01*
X179428536Y-93354841D01*
X179489044Y-93208762D01*
X179504500Y-93091361D01*
X179504499Y-91312640D01*
X179504499Y-91312639D01*
X179504499Y-91312636D01*
X179489046Y-91195246D01*
X179489044Y-91195239D01*
X179489044Y-91195238D01*
X179428536Y-91049159D01*
X179332282Y-90923718D01*
X179206841Y-90827464D01*
X179143610Y-90801273D01*
X179060762Y-90766956D01*
X179060760Y-90766955D01*
X178943370Y-90751501D01*
X178943367Y-90751500D01*
X178943361Y-90751500D01*
X178943354Y-90751500D01*
X177164636Y-90751500D01*
X177047246Y-90766953D01*
X177047237Y-90766956D01*
X176901160Y-90827463D01*
X176775718Y-90923718D01*
X176679463Y-91049160D01*
X176618956Y-91195237D01*
X176618955Y-91195239D01*
X176603943Y-91309273D01*
X176603501Y-91312636D01*
X176603500Y-91312645D01*
X176603500Y-93091363D01*
X176618953Y-93208753D01*
X176618956Y-93208762D01*
X176679464Y-93354841D01*
X176775718Y-93480282D01*
X176901159Y-93576536D01*
X176917666Y-93583373D01*
X176921175Y-93584827D01*
X176975579Y-93628669D01*
X176997643Y-93694963D01*
X176980363Y-93762662D01*
X176964952Y-93783370D01*
X176905435Y-93848022D01*
X176905427Y-93848033D01*
X176773951Y-94049270D01*
X176677389Y-94269410D01*
X176618379Y-94502440D01*
X176598528Y-94741994D01*
X176598528Y-94742005D01*
X176618379Y-94981559D01*
X176677389Y-95214589D01*
X176773951Y-95434729D01*
X176875894Y-95590763D01*
X176905429Y-95635969D01*
X177068236Y-95812825D01*
X177139144Y-95868014D01*
X177198414Y-95914147D01*
X177239227Y-95970857D01*
X177242901Y-96040630D01*
X177208269Y-96101313D01*
X177198414Y-96109853D01*
X177068238Y-96211173D01*
X176905430Y-96388029D01*
X176905427Y-96388033D01*
X176773951Y-96589270D01*
X176677389Y-96809410D01*
X176618379Y-97042440D01*
X176598528Y-97281994D01*
X176598528Y-97282005D01*
X176618379Y-97521559D01*
X176677389Y-97754589D01*
X176773951Y-97974729D01*
X176899748Y-98167273D01*
X176905429Y-98175969D01*
X177068236Y-98352825D01*
X177139144Y-98408014D01*
X177198414Y-98454147D01*
X177239227Y-98510857D01*
X177242901Y-98580630D01*
X177208269Y-98641313D01*
X177198414Y-98649853D01*
X177068238Y-98751173D01*
X176905430Y-98928029D01*
X176905427Y-98928033D01*
X176773951Y-99129270D01*
X176677389Y-99349410D01*
X176618379Y-99582440D01*
X176598528Y-99821994D01*
X176598528Y-99822005D01*
X175260000Y-99822005D01*
X175260000Y-88392000D01*
X174967106Y-88099106D01*
X174967102Y-88099101D01*
X171859364Y-84991364D01*
X170475039Y-83607039D01*
X170470961Y-83602539D01*
X170356277Y-83462797D01*
X170342772Y-83442585D01*
X170309340Y-83380038D01*
X170261877Y-83291240D01*
X170252575Y-83268785D01*
X170202757Y-83104556D01*
X170198018Y-83080728D01*
X170187259Y-82971493D01*
X170183271Y-82931000D01*
X173278696Y-82931000D01*
X173297898Y-83297404D01*
X173355295Y-83659794D01*
X173446477Y-84000090D01*
X173450260Y-84014206D01*
X173581746Y-84356739D01*
X173748320Y-84683656D01*
X173948147Y-84991364D01*
X174133882Y-85220727D01*
X174179051Y-85276506D01*
X174438494Y-85535949D01*
X174501958Y-85587341D01*
X174723635Y-85766852D01*
X174808593Y-85822024D01*
X175031348Y-85966682D01*
X175358264Y-86133255D01*
X175700801Y-86264742D01*
X176055206Y-86359705D01*
X176417596Y-86417102D01*
X176763734Y-86435241D01*
X176783999Y-86436304D01*
X176784000Y-86436304D01*
X176784001Y-86436304D01*
X176803203Y-86435297D01*
X177150404Y-86417102D01*
X177512794Y-86359705D01*
X177867199Y-86264742D01*
X178209736Y-86133255D01*
X178536652Y-85966682D01*
X178844366Y-85766851D01*
X179129506Y-85535949D01*
X179388949Y-85276506D01*
X179619851Y-84991366D01*
X179819682Y-84683652D01*
X179986255Y-84356736D01*
X180117742Y-84014199D01*
X180212705Y-83659794D01*
X180270102Y-83297404D01*
X180289304Y-82931000D01*
X180270102Y-82564596D01*
X180212705Y-82202206D01*
X180117742Y-81847801D01*
X179986255Y-81505264D01*
X179819682Y-81178348D01*
X179819679Y-81178343D01*
X179619852Y-80870635D01*
X179499054Y-80721462D01*
X179388949Y-80585494D01*
X179129506Y-80326051D01*
X179066042Y-80274659D01*
X178844364Y-80095147D01*
X178536656Y-79895320D01*
X178209739Y-79728746D01*
X177867206Y-79597260D01*
X177867199Y-79597258D01*
X177512794Y-79502295D01*
X177512790Y-79502294D01*
X177512789Y-79502294D01*
X177150405Y-79444898D01*
X176784001Y-79425696D01*
X176783999Y-79425696D01*
X176417594Y-79444898D01*
X176055211Y-79502294D01*
X176055209Y-79502294D01*
X175700793Y-79597260D01*
X175358260Y-79728746D01*
X175031343Y-79895320D01*
X174723635Y-80095147D01*
X174438498Y-80326047D01*
X174438490Y-80326054D01*
X174179054Y-80585490D01*
X174179047Y-80585498D01*
X173948147Y-80870635D01*
X173748320Y-81178343D01*
X173581746Y-81505260D01*
X173450260Y-81847793D01*
X173355294Y-82202209D01*
X173355294Y-82202211D01*
X173304958Y-82520024D01*
X173297898Y-82564596D01*
X173278696Y-82931000D01*
X170183271Y-82931000D01*
X170180299Y-82900817D01*
X170180000Y-82894737D01*
X170180000Y-79290614D01*
X170199685Y-79223575D01*
X170252489Y-79177820D01*
X170321647Y-79167876D01*
X170339997Y-79171954D01*
X170491868Y-79218024D01*
X170688000Y-79237341D01*
X170884132Y-79218024D01*
X171072727Y-79160814D01*
X171246538Y-79067910D01*
X171398883Y-78942883D01*
X171523910Y-78790538D01*
X171616814Y-78616727D01*
X171674024Y-78428132D01*
X171693341Y-78232000D01*
X171674024Y-78035868D01*
X171616814Y-77847273D01*
X171616811Y-77847269D01*
X171616811Y-77847266D01*
X171523913Y-77673467D01*
X171523909Y-77673460D01*
X171398883Y-77521116D01*
X171246539Y-77396090D01*
X171246532Y-77396086D01*
X171072728Y-77303186D01*
X170889291Y-77247540D01*
X170830853Y-77209243D01*
X170802396Y-77145430D01*
X170812957Y-77076363D01*
X170859182Y-77023970D01*
X170889285Y-77010222D01*
X170973232Y-76984757D01*
X170997056Y-76980018D01*
X171111501Y-76968746D01*
X171176969Y-76962299D01*
X171183049Y-76962000D01*
X178576347Y-76962000D01*
X178643386Y-76981685D01*
G37*
%TD.AperFunction*%
%TD*%
%TA.AperFunction,Conductor*%
%TO.N,+12V*%
G36*
X149424573Y-65755066D02*
G01*
X149478186Y-65799870D01*
X149484442Y-65810309D01*
X149524121Y-65884543D01*
X149533424Y-65907001D01*
X149583240Y-66071224D01*
X149587982Y-66095065D01*
X149605701Y-66274967D01*
X149606000Y-66281048D01*
X149606000Y-73619182D01*
X149586315Y-73686221D01*
X149533511Y-73731976D01*
X149464353Y-73741920D01*
X149409115Y-73719500D01*
X149296734Y-73637851D01*
X149296729Y-73637848D01*
X149123807Y-73560857D01*
X149123802Y-73560855D01*
X148978001Y-73529865D01*
X148938646Y-73521500D01*
X148749354Y-73521500D01*
X148716897Y-73528398D01*
X148564197Y-73560855D01*
X148564192Y-73560857D01*
X148391270Y-73637848D01*
X148391265Y-73637851D01*
X148238129Y-73749111D01*
X148111466Y-73889785D01*
X148016821Y-74053715D01*
X148016818Y-74053722D01*
X147964207Y-74215643D01*
X147958326Y-74233744D01*
X147938540Y-74422000D01*
X147958326Y-74610256D01*
X147958327Y-74610259D01*
X148016818Y-74790277D01*
X148016821Y-74790284D01*
X148111467Y-74954216D01*
X148238129Y-75094888D01*
X148391265Y-75206148D01*
X148391270Y-75206151D01*
X148564192Y-75283142D01*
X148564197Y-75283144D01*
X148749354Y-75322500D01*
X148749355Y-75322500D01*
X148938644Y-75322500D01*
X148938646Y-75322500D01*
X149123803Y-75283144D01*
X149296730Y-75206151D01*
X149409114Y-75124499D01*
X149474921Y-75101019D01*
X149542975Y-75116844D01*
X149591670Y-75166950D01*
X149606000Y-75224817D01*
X149606000Y-80477182D01*
X149586315Y-80544221D01*
X149533511Y-80589976D01*
X149464353Y-80599920D01*
X149409115Y-80577500D01*
X149296734Y-80495851D01*
X149296729Y-80495848D01*
X149123807Y-80418857D01*
X149123802Y-80418855D01*
X148978001Y-80387865D01*
X148938646Y-80379500D01*
X148749354Y-80379500D01*
X148716897Y-80386398D01*
X148564197Y-80418855D01*
X148564192Y-80418857D01*
X148391270Y-80495848D01*
X148391265Y-80495851D01*
X148238129Y-80607111D01*
X148111466Y-80747785D01*
X148016821Y-80911715D01*
X148016818Y-80911722D01*
X147958327Y-81091740D01*
X147958326Y-81091744D01*
X147938540Y-81280000D01*
X147958326Y-81468256D01*
X147958327Y-81468259D01*
X148016818Y-81648277D01*
X148016821Y-81648284D01*
X148111467Y-81812216D01*
X148229096Y-81942856D01*
X148238129Y-81952888D01*
X148391265Y-82064148D01*
X148391270Y-82064151D01*
X148564192Y-82141142D01*
X148564193Y-82141142D01*
X148564197Y-82141144D01*
X148739901Y-82178490D01*
X148801382Y-82211682D01*
X148835159Y-82272845D01*
X148830507Y-82342559D01*
X148821508Y-82361779D01*
X148778820Y-82435717D01*
X148778818Y-82435722D01*
X148736945Y-82564596D01*
X148720326Y-82615744D01*
X148700540Y-82804000D01*
X148720326Y-82992256D01*
X148720327Y-82992259D01*
X148778818Y-83172277D01*
X148778821Y-83172284D01*
X148873467Y-83336216D01*
X149000128Y-83476887D01*
X149000129Y-83476888D01*
X149153265Y-83588148D01*
X149153270Y-83588151D01*
X149326192Y-83665142D01*
X149326193Y-83665142D01*
X149326197Y-83665144D01*
X149507781Y-83703740D01*
X149569262Y-83736932D01*
X149603039Y-83798095D01*
X149606000Y-83825030D01*
X149606000Y-86102244D01*
X149586315Y-86169283D01*
X149533511Y-86215038D01*
X149464353Y-86224982D01*
X149456226Y-86223536D01*
X149452466Y-86222737D01*
X149446646Y-86221500D01*
X149257354Y-86221500D01*
X149224897Y-86228398D01*
X149072197Y-86260855D01*
X149072192Y-86260857D01*
X148894435Y-86340001D01*
X148825185Y-86349286D01*
X148793563Y-86340001D01*
X148788727Y-86337848D01*
X148730735Y-86312027D01*
X148615806Y-86260857D01*
X148615802Y-86260855D01*
X148470001Y-86229865D01*
X148430646Y-86221500D01*
X148241354Y-86221500D01*
X148208897Y-86228398D01*
X148056197Y-86260855D01*
X148056192Y-86260857D01*
X147883270Y-86337848D01*
X147883265Y-86337851D01*
X147730129Y-86449111D01*
X147603466Y-86589785D01*
X147508821Y-86753715D01*
X147508818Y-86753722D01*
X147457404Y-86911960D01*
X147450326Y-86933744D01*
X147433808Y-87090911D01*
X147430540Y-87121999D01*
X147450326Y-87310258D01*
X147456476Y-87329184D01*
X147458470Y-87399025D01*
X147422388Y-87458857D01*
X147359687Y-87489684D01*
X147338544Y-87491500D01*
X147225354Y-87491500D01*
X147192897Y-87498398D01*
X147040197Y-87530855D01*
X147040192Y-87530857D01*
X146867270Y-87607848D01*
X146867265Y-87607851D01*
X146714129Y-87719111D01*
X146587466Y-87859785D01*
X146492821Y-88023715D01*
X146492818Y-88023722D01*
X146440476Y-88184816D01*
X146434326Y-88203744D01*
X146414540Y-88392000D01*
X146434326Y-88580256D01*
X146434327Y-88580259D01*
X146492818Y-88760277D01*
X146492821Y-88760284D01*
X146587467Y-88924216D01*
X146714129Y-89064888D01*
X146867265Y-89176148D01*
X146867270Y-89176151D01*
X147040192Y-89253142D01*
X147040197Y-89253144D01*
X147225354Y-89292500D01*
X147225355Y-89292500D01*
X147414644Y-89292500D01*
X147414646Y-89292500D01*
X147599803Y-89253144D01*
X147772730Y-89176151D01*
X147925871Y-89064888D01*
X148052533Y-88924216D01*
X148147179Y-88760284D01*
X148205674Y-88580256D01*
X148225460Y-88392000D01*
X148205674Y-88203744D01*
X148199524Y-88184816D01*
X148197530Y-88114975D01*
X148233612Y-88055143D01*
X148296313Y-88024316D01*
X148317456Y-88022500D01*
X148430644Y-88022500D01*
X148430646Y-88022500D01*
X148615803Y-87983144D01*
X148788730Y-87906151D01*
X148788734Y-87906148D01*
X148793563Y-87903998D01*
X148862813Y-87894712D01*
X148894437Y-87903998D01*
X148899265Y-87906148D01*
X148899270Y-87906151D01*
X149072197Y-87983144D01*
X149257354Y-88022500D01*
X149257355Y-88022500D01*
X149446645Y-88022500D01*
X149446646Y-88022500D01*
X149456219Y-88020465D01*
X149525885Y-88025780D01*
X149581619Y-88067917D01*
X149605725Y-88133496D01*
X149606000Y-88141755D01*
X149606000Y-91756841D01*
X149586315Y-91823880D01*
X149533511Y-91869635D01*
X149532437Y-91870120D01*
X149407267Y-91925850D01*
X149407265Y-91925851D01*
X149254129Y-92037111D01*
X149254128Y-92037112D01*
X149143955Y-92159471D01*
X149084469Y-92196119D01*
X149014612Y-92194788D01*
X148964125Y-92164179D01*
X148318686Y-91518740D01*
X148285201Y-91457417D01*
X148290185Y-91387725D01*
X148332057Y-91331792D01*
X148355931Y-91317780D01*
X148394403Y-91300651D01*
X148547544Y-91189388D01*
X148674206Y-91048716D01*
X148768852Y-90884784D01*
X148827347Y-90704756D01*
X148847133Y-90516500D01*
X148827347Y-90328244D01*
X148768852Y-90148216D01*
X148674206Y-89984284D01*
X148547544Y-89843612D01*
X148547543Y-89843611D01*
X148394407Y-89732351D01*
X148394402Y-89732348D01*
X148221480Y-89655357D01*
X148221475Y-89655355D01*
X148075673Y-89624365D01*
X148036319Y-89616000D01*
X147847027Y-89616000D01*
X147814570Y-89622898D01*
X147661870Y-89655355D01*
X147661865Y-89655357D01*
X147488943Y-89732348D01*
X147488938Y-89732351D01*
X147335802Y-89843611D01*
X147209139Y-89984285D01*
X147134412Y-90113717D01*
X147083845Y-90161932D01*
X147015238Y-90175156D01*
X146950374Y-90149188D01*
X146939344Y-90139398D01*
X145720819Y-88920873D01*
X145687334Y-88859550D01*
X145684500Y-88833192D01*
X145684500Y-87969503D01*
X145686268Y-87953491D01*
X145686026Y-87953469D01*
X145686760Y-87945706D01*
X145684500Y-87873782D01*
X145684500Y-87843077D01*
X145684500Y-87843075D01*
X145683579Y-87835792D01*
X145683123Y-87829987D01*
X145681598Y-87781431D01*
X145675675Y-87761045D01*
X145671729Y-87741990D01*
X145670228Y-87730107D01*
X145669071Y-87720942D01*
X145651186Y-87675772D01*
X145649297Y-87670252D01*
X145644637Y-87654214D01*
X145635744Y-87623602D01*
X145624940Y-87605334D01*
X145616378Y-87587856D01*
X145608568Y-87568129D01*
X145608565Y-87568125D01*
X145596096Y-87550963D01*
X145580014Y-87528827D01*
X145576811Y-87523951D01*
X145571214Y-87514487D01*
X145552081Y-87482135D01*
X145552079Y-87482133D01*
X145552078Y-87482131D01*
X145537075Y-87467129D01*
X145524435Y-87452330D01*
X145511961Y-87435160D01*
X145474528Y-87404194D01*
X145470206Y-87400260D01*
X144548304Y-86478358D01*
X144514819Y-86417035D01*
X144519803Y-86347343D01*
X144528598Y-86328677D01*
X144591179Y-86220284D01*
X144649674Y-86040256D01*
X144669460Y-85852000D01*
X144649674Y-85663744D01*
X144591179Y-85483716D01*
X144589171Y-85477535D01*
X144591352Y-85476826D01*
X144583465Y-85417992D01*
X144605828Y-85370231D01*
X144563881Y-85369824D01*
X144505473Y-85331481D01*
X144499651Y-85324076D01*
X144496534Y-85319785D01*
X144496533Y-85319784D01*
X144369871Y-85179112D01*
X144369870Y-85179111D01*
X144216734Y-85067851D01*
X144216729Y-85067848D01*
X144043807Y-84990857D01*
X144043802Y-84990855D01*
X143898000Y-84959865D01*
X143858646Y-84951500D01*
X143669354Y-84951500D01*
X143636897Y-84958398D01*
X143484197Y-84990855D01*
X143484192Y-84990857D01*
X143311270Y-85067848D01*
X143311265Y-85067851D01*
X143158129Y-85179111D01*
X143158128Y-85179112D01*
X143094149Y-85250168D01*
X143034663Y-85286816D01*
X142964806Y-85285485D01*
X142909851Y-85250168D01*
X142845871Y-85179112D01*
X142845870Y-85179111D01*
X142692734Y-85067851D01*
X142692729Y-85067848D01*
X142519807Y-84990857D01*
X142519802Y-84990855D01*
X142374000Y-84959865D01*
X142334646Y-84951500D01*
X142145354Y-84951500D01*
X142112897Y-84958398D01*
X141960197Y-84990855D01*
X141960192Y-84990857D01*
X141787270Y-85067848D01*
X141787265Y-85067851D01*
X141634129Y-85179111D01*
X141634128Y-85179112D01*
X141570149Y-85250168D01*
X141510663Y-85286816D01*
X141440806Y-85285485D01*
X141385851Y-85250168D01*
X141321871Y-85179112D01*
X141321870Y-85179111D01*
X141168734Y-85067851D01*
X141168729Y-85067848D01*
X140995807Y-84990857D01*
X140995802Y-84990855D01*
X140850001Y-84959865D01*
X140810646Y-84951500D01*
X140621354Y-84951500D01*
X140588897Y-84958398D01*
X140436197Y-84990855D01*
X140436192Y-84990857D01*
X140263270Y-85067848D01*
X140263265Y-85067851D01*
X140110129Y-85179111D01*
X139983466Y-85319785D01*
X139888821Y-85483715D01*
X139888818Y-85483722D01*
X139844491Y-85620148D01*
X139830326Y-85663744D01*
X139819489Y-85766852D01*
X139810540Y-85852000D01*
X139830326Y-86040258D01*
X139836476Y-86059184D01*
X139838470Y-86129025D01*
X139802388Y-86188857D01*
X139739687Y-86219684D01*
X139718544Y-86221500D01*
X139605354Y-86221500D01*
X139572897Y-86228398D01*
X139420197Y-86260855D01*
X139420192Y-86260857D01*
X139247270Y-86337848D01*
X139247265Y-86337851D01*
X139094129Y-86449111D01*
X138967466Y-86589785D01*
X138872821Y-86753715D01*
X138872818Y-86753722D01*
X138821404Y-86911960D01*
X138814326Y-86933744D01*
X138794540Y-87122000D01*
X138814326Y-87310256D01*
X138814327Y-87310258D01*
X138814327Y-87310259D01*
X138872818Y-87490277D01*
X138872821Y-87490284D01*
X138967467Y-87654216D01*
X139055222Y-87751677D01*
X139094129Y-87794888D01*
X139247265Y-87906148D01*
X139247270Y-87906151D01*
X139420192Y-87983142D01*
X139420197Y-87983144D01*
X139605354Y-88022500D01*
X139605355Y-88022500D01*
X139794644Y-88022500D01*
X139794646Y-88022500D01*
X139979803Y-87983144D01*
X140152730Y-87906151D01*
X140305871Y-87794888D01*
X140432533Y-87654216D01*
X140527179Y-87490284D01*
X140585674Y-87310256D01*
X140605460Y-87122000D01*
X140587965Y-86955550D01*
X140600534Y-86886826D01*
X140648266Y-86835802D01*
X140716006Y-86818684D01*
X140782248Y-86840906D01*
X140798967Y-86854913D01*
X140945564Y-87001510D01*
X140955635Y-87014080D01*
X140955822Y-87013926D01*
X140960796Y-87019937D01*
X140960798Y-87019940D01*
X140988272Y-87045740D01*
X141013243Y-87069190D01*
X141034967Y-87090913D01*
X141040757Y-87095405D01*
X141045197Y-87099197D01*
X141069480Y-87121999D01*
X141080607Y-87132448D01*
X141080609Y-87132449D01*
X141099205Y-87142672D01*
X141115470Y-87153357D01*
X141132232Y-87166360D01*
X141132235Y-87166361D01*
X141132236Y-87166362D01*
X141176823Y-87185656D01*
X141182059Y-87188221D01*
X141224632Y-87211627D01*
X141240340Y-87215659D01*
X141245186Y-87216904D01*
X141263598Y-87223207D01*
X141283073Y-87231635D01*
X141331071Y-87239237D01*
X141336740Y-87240411D01*
X141383823Y-87252500D01*
X141405051Y-87252500D01*
X141424448Y-87254026D01*
X141445403Y-87257345D01*
X141445404Y-87257346D01*
X141445404Y-87257345D01*
X141445405Y-87257346D01*
X141493760Y-87252775D01*
X141499599Y-87252500D01*
X142007144Y-87252500D01*
X142074183Y-87272185D01*
X142119938Y-87324989D01*
X142129882Y-87394147D01*
X142125075Y-87414819D01*
X142116326Y-87441742D01*
X142097212Y-87623602D01*
X142096540Y-87630000D01*
X142116326Y-87818256D01*
X142116327Y-87818259D01*
X142174818Y-87998277D01*
X142174821Y-87998284D01*
X142269467Y-88162216D01*
X142338893Y-88239321D01*
X142396129Y-88302888D01*
X142549265Y-88414148D01*
X142549270Y-88414151D01*
X142722192Y-88491142D01*
X142722197Y-88491144D01*
X142907354Y-88530500D01*
X142907355Y-88530500D01*
X143096644Y-88530500D01*
X143096646Y-88530500D01*
X143281803Y-88491144D01*
X143454730Y-88414151D01*
X143607871Y-88302888D01*
X143734533Y-88162216D01*
X143829179Y-87998284D01*
X143864539Y-87889457D01*
X143903975Y-87831783D01*
X143968333Y-87804584D01*
X144037180Y-87816498D01*
X144070150Y-87840095D01*
X144347181Y-88117126D01*
X144380666Y-88178449D01*
X144383500Y-88204807D01*
X144383500Y-89068494D01*
X144381732Y-89084505D01*
X144381974Y-89084528D01*
X144381240Y-89092294D01*
X144383500Y-89164203D01*
X144383500Y-89194920D01*
X144383501Y-89194940D01*
X144384418Y-89202206D01*
X144384876Y-89208024D01*
X144386402Y-89256567D01*
X144386403Y-89256570D01*
X144392323Y-89276948D01*
X144396268Y-89295996D01*
X144398928Y-89317054D01*
X144398931Y-89317064D01*
X144416813Y-89362230D01*
X144418705Y-89367758D01*
X144432254Y-89414395D01*
X144432255Y-89414397D01*
X144443060Y-89432666D01*
X144451617Y-89450134D01*
X144457226Y-89464300D01*
X144459432Y-89469872D01*
X144487983Y-89509170D01*
X144491188Y-89514049D01*
X144515919Y-89555865D01*
X144515923Y-89555869D01*
X144530925Y-89570871D01*
X144543563Y-89585669D01*
X144556033Y-89602833D01*
X144556036Y-89602836D01*
X144556037Y-89602837D01*
X144593476Y-89633809D01*
X144597776Y-89637722D01*
X146121838Y-91161784D01*
X147632087Y-92672033D01*
X147665572Y-92733356D01*
X147660588Y-92803048D01*
X147636556Y-92842686D01*
X147554048Y-92934320D01*
X147459403Y-93098251D01*
X147459400Y-93098258D01*
X147400909Y-93278276D01*
X147400908Y-93278280D01*
X147381122Y-93466536D01*
X147400908Y-93654792D01*
X147400909Y-93654795D01*
X147459400Y-93834813D01*
X147459402Y-93834817D01*
X147459403Y-93834820D01*
X147470989Y-93854887D01*
X147512947Y-93927561D01*
X147529419Y-93995461D01*
X147512947Y-94051559D01*
X147486489Y-94097385D01*
X147433049Y-94261857D01*
X147427995Y-94277413D01*
X147408209Y-94465669D01*
X147427995Y-94653925D01*
X147427996Y-94653928D01*
X147486487Y-94833946D01*
X147486490Y-94833953D01*
X147548970Y-94942172D01*
X147565443Y-95010073D01*
X147548971Y-95066170D01*
X147508821Y-95135713D01*
X147467531Y-95262792D01*
X147450326Y-95315744D01*
X147430540Y-95504000D01*
X147450326Y-95692256D01*
X147450327Y-95692259D01*
X147508818Y-95872277D01*
X147508821Y-95872284D01*
X147603467Y-96036216D01*
X147675750Y-96116494D01*
X147730129Y-96176888D01*
X147883265Y-96288148D01*
X147883270Y-96288151D01*
X148056192Y-96365142D01*
X148056197Y-96365144D01*
X148241354Y-96404500D01*
X148241355Y-96404500D01*
X148430644Y-96404500D01*
X148430646Y-96404500D01*
X148615803Y-96365144D01*
X148788730Y-96288151D01*
X148915114Y-96196327D01*
X148980918Y-96172849D01*
X149048972Y-96188674D01*
X149095384Y-96234647D01*
X149127467Y-96290216D01*
X149208559Y-96380277D01*
X149254129Y-96430888D01*
X149407265Y-96542148D01*
X149407266Y-96542148D01*
X149407270Y-96542151D01*
X149532436Y-96597879D01*
X149585673Y-96643129D01*
X149605994Y-96709978D01*
X149606000Y-96711158D01*
X149606000Y-97344841D01*
X149586315Y-97411880D01*
X149533511Y-97457635D01*
X149532437Y-97458120D01*
X149407267Y-97513850D01*
X149407265Y-97513851D01*
X149254129Y-97625111D01*
X149127466Y-97765785D01*
X149032821Y-97929715D01*
X149032818Y-97929722D01*
X148974327Y-98109740D01*
X148974326Y-98109744D01*
X148954540Y-98298000D01*
X148974326Y-98486256D01*
X148974327Y-98486259D01*
X149032818Y-98666277D01*
X149032820Y-98666281D01*
X149032821Y-98666284D01*
X149047508Y-98691722D01*
X149070474Y-98731501D01*
X149086945Y-98799401D01*
X149064093Y-98865428D01*
X149009171Y-98908618D01*
X148963086Y-98917500D01*
X147405506Y-98917500D01*
X147389495Y-98915732D01*
X147389473Y-98915974D01*
X147381706Y-98915239D01*
X147309783Y-98917500D01*
X144003937Y-98917500D01*
X143936898Y-98897815D01*
X143891143Y-98845011D01*
X143881199Y-98775853D01*
X143896549Y-98731501D01*
X143903531Y-98719408D01*
X143934202Y-98666284D01*
X143992697Y-98486256D01*
X144012483Y-98298000D01*
X143992697Y-98109744D01*
X143934202Y-97929716D01*
X143839556Y-97765784D01*
X143712894Y-97625112D01*
X143641903Y-97573534D01*
X143559757Y-97513851D01*
X143559752Y-97513848D01*
X143386830Y-97436857D01*
X143386825Y-97436855D01*
X143241023Y-97405865D01*
X143201669Y-97397500D01*
X143012377Y-97397500D01*
X142979920Y-97404398D01*
X142827220Y-97436855D01*
X142752862Y-97469962D01*
X142683612Y-97479246D01*
X142620336Y-97449618D01*
X142583123Y-97390482D01*
X142583788Y-97320616D01*
X142584460Y-97318477D01*
X142617674Y-97216256D01*
X142637460Y-97028000D01*
X142617674Y-96839744D01*
X142559179Y-96659716D01*
X142464533Y-96495784D01*
X142337871Y-96355112D01*
X142337870Y-96355111D01*
X142184734Y-96243851D01*
X142184729Y-96243848D01*
X142011807Y-96166857D01*
X142011802Y-96166855D01*
X141866001Y-96135865D01*
X141826646Y-96127500D01*
X141637354Y-96127500D01*
X141604897Y-96134398D01*
X141452197Y-96166855D01*
X141452192Y-96166857D01*
X141279270Y-96243848D01*
X141279265Y-96243851D01*
X141126129Y-96355111D01*
X140999466Y-96495785D01*
X140904821Y-96659715D01*
X140904818Y-96659722D01*
X140860491Y-96796148D01*
X140846326Y-96839744D01*
X140826540Y-97028000D01*
X140846326Y-97216256D01*
X140846327Y-97216259D01*
X140904818Y-97396277D01*
X140904821Y-97396284D01*
X140999467Y-97560216D01*
X141011459Y-97573534D01*
X141126129Y-97700888D01*
X141279265Y-97812148D01*
X141279270Y-97812151D01*
X141452192Y-97889142D01*
X141452197Y-97889144D01*
X141637354Y-97928500D01*
X141637355Y-97928500D01*
X141826644Y-97928500D01*
X141826646Y-97928500D01*
X142011803Y-97889144D01*
X142086159Y-97856037D01*
X142155408Y-97846752D01*
X142218685Y-97876380D01*
X142255899Y-97935515D01*
X142255235Y-98005381D01*
X142254526Y-98007635D01*
X142221350Y-98109740D01*
X142221349Y-98109744D01*
X142201563Y-98298000D01*
X142221349Y-98486256D01*
X142221350Y-98486259D01*
X142279841Y-98666277D01*
X142279843Y-98666281D01*
X142279844Y-98666284D01*
X142294531Y-98691722D01*
X142317497Y-98731501D01*
X142333968Y-98799401D01*
X142311116Y-98865428D01*
X142256194Y-98908618D01*
X142210109Y-98917500D01*
X142116423Y-98917500D01*
X142049384Y-98897815D01*
X142028742Y-98881181D01*
X141808049Y-98660488D01*
X141797976Y-98647914D01*
X141797789Y-98648070D01*
X141792816Y-98642059D01*
X141740371Y-98592810D01*
X141718650Y-98571089D01*
X141712855Y-98566594D01*
X141708413Y-98562799D01*
X141673011Y-98529554D01*
X141673003Y-98529548D01*
X141654407Y-98519325D01*
X141638146Y-98508644D01*
X141621378Y-98495637D01*
X141597910Y-98485482D01*
X141576793Y-98476343D01*
X141571571Y-98473786D01*
X141528983Y-98450373D01*
X141528980Y-98450372D01*
X141508416Y-98445092D01*
X141490011Y-98438790D01*
X141470542Y-98430365D01*
X141470536Y-98430363D01*
X141422566Y-98422766D01*
X141416851Y-98421582D01*
X141400387Y-98417355D01*
X141369795Y-98409500D01*
X141369792Y-98409500D01*
X141348570Y-98409500D01*
X141329170Y-98407973D01*
X141308211Y-98404653D01*
X141308210Y-98404653D01*
X141284401Y-98406903D01*
X141259845Y-98409225D01*
X141254007Y-98409500D01*
X140376975Y-98409500D01*
X140309936Y-98389815D01*
X140304090Y-98385818D01*
X140152734Y-98275851D01*
X140152729Y-98275848D01*
X139979807Y-98198857D01*
X139979802Y-98198855D01*
X139834000Y-98167865D01*
X139794646Y-98159500D01*
X139605354Y-98159500D01*
X139572897Y-98166398D01*
X139420197Y-98198855D01*
X139420192Y-98198857D01*
X139247270Y-98275848D01*
X139247265Y-98275851D01*
X139094129Y-98387111D01*
X138967466Y-98527785D01*
X138872821Y-98691715D01*
X138872818Y-98691722D01*
X138816378Y-98865428D01*
X138814326Y-98871744D01*
X138794540Y-99060000D01*
X138814326Y-99248256D01*
X138814327Y-99248259D01*
X138872818Y-99428277D01*
X138872821Y-99428284D01*
X138967467Y-99592216D01*
X139048703Y-99682437D01*
X139094129Y-99732888D01*
X139247265Y-99844148D01*
X139247270Y-99844151D01*
X139420192Y-99921142D01*
X139420197Y-99921144D01*
X139605354Y-99960500D01*
X139605355Y-99960500D01*
X139794644Y-99960500D01*
X139794646Y-99960500D01*
X139979803Y-99921144D01*
X140152730Y-99844151D01*
X140304089Y-99734182D01*
X140369896Y-99710702D01*
X140376975Y-99710500D01*
X140966807Y-99710500D01*
X141033846Y-99730185D01*
X141054488Y-99746819D01*
X141275179Y-99967510D01*
X141285250Y-99980080D01*
X141285437Y-99979926D01*
X141290411Y-99985937D01*
X141290413Y-99985940D01*
X141318960Y-100012748D01*
X141342858Y-100035190D01*
X141364582Y-100056913D01*
X141370372Y-100061405D01*
X141374812Y-100065197D01*
X141387631Y-100077234D01*
X141410222Y-100098448D01*
X141410224Y-100098449D01*
X141428820Y-100108672D01*
X141445085Y-100119357D01*
X141461847Y-100132360D01*
X141461850Y-100132361D01*
X141461851Y-100132362D01*
X141506438Y-100151656D01*
X141511674Y-100154221D01*
X141554247Y-100177627D01*
X141569955Y-100181659D01*
X141574801Y-100182904D01*
X141593213Y-100189207D01*
X141612688Y-100197635D01*
X141651648Y-100203805D01*
X141660661Y-100205233D01*
X141666371Y-100206415D01*
X141713438Y-100218500D01*
X141734665Y-100218500D01*
X141754062Y-100220026D01*
X141775019Y-100223346D01*
X141823376Y-100218774D01*
X141829213Y-100218500D01*
X145450192Y-100218500D01*
X145517231Y-100238185D01*
X145562986Y-100290989D01*
X145572930Y-100360147D01*
X145543905Y-100423703D01*
X145537873Y-100430181D01*
X144542873Y-101425181D01*
X144481550Y-101458666D01*
X144455192Y-101461500D01*
X144431354Y-101461500D01*
X144398897Y-101468398D01*
X144246197Y-101500855D01*
X144246192Y-101500857D01*
X144073270Y-101577848D01*
X144073265Y-101577851D01*
X143920129Y-101689111D01*
X143793466Y-101829785D01*
X143698821Y-101993715D01*
X143698818Y-101993722D01*
X143640327Y-102173740D01*
X143640326Y-102173744D01*
X143620540Y-102362000D01*
X143640326Y-102550256D01*
X143640327Y-102550259D01*
X143698818Y-102730277D01*
X143698821Y-102730284D01*
X143793467Y-102894216D01*
X143875660Y-102985500D01*
X143920129Y-103034888D01*
X144073265Y-103146148D01*
X144073270Y-103146151D01*
X144246192Y-103223142D01*
X144246197Y-103223144D01*
X144431354Y-103262500D01*
X144431355Y-103262500D01*
X144620644Y-103262500D01*
X144620646Y-103262500D01*
X144805803Y-103223144D01*
X144978730Y-103146151D01*
X145131871Y-103034888D01*
X145258533Y-102894216D01*
X145353179Y-102730284D01*
X145411674Y-102550256D01*
X145425168Y-102421855D01*
X145451752Y-102357242D01*
X145460799Y-102347145D01*
X147553126Y-100254819D01*
X147614450Y-100221334D01*
X147640808Y-100218500D01*
X149482000Y-100218500D01*
X149549039Y-100238185D01*
X149594794Y-100290989D01*
X149606000Y-100342500D01*
X149606000Y-107060500D01*
X149586315Y-107127539D01*
X149533511Y-107173294D01*
X149482000Y-107184500D01*
X145742506Y-107184500D01*
X145726495Y-107182732D01*
X145726473Y-107182974D01*
X145718706Y-107182239D01*
X145646783Y-107184500D01*
X145616075Y-107184500D01*
X145616071Y-107184500D01*
X145616060Y-107184501D01*
X145608804Y-107185417D01*
X145602986Y-107185875D01*
X145554433Y-107187401D01*
X145539873Y-107191630D01*
X145534040Y-107193325D01*
X145514996Y-107197269D01*
X145493942Y-107199929D01*
X145493940Y-107199929D01*
X145448781Y-107217808D01*
X145443255Y-107219700D01*
X145396601Y-107233254D01*
X145378325Y-107244063D01*
X145360860Y-107252619D01*
X145341124Y-107260433D01*
X145301824Y-107288986D01*
X145296942Y-107292193D01*
X145255136Y-107316917D01*
X145240124Y-107331929D01*
X145225336Y-107344558D01*
X145208167Y-107357032D01*
X145208165Y-107357034D01*
X145177194Y-107394470D01*
X145173262Y-107398791D01*
X143276873Y-109295181D01*
X143215550Y-109328666D01*
X143189192Y-109331500D01*
X142306808Y-109331500D01*
X142239769Y-109311815D01*
X142219127Y-109295181D01*
X140982434Y-108058488D01*
X140972361Y-108045914D01*
X140972174Y-108046070D01*
X140967201Y-108040059D01*
X140914756Y-107990810D01*
X140893035Y-107969089D01*
X140887240Y-107964594D01*
X140882798Y-107960799D01*
X140847396Y-107927554D01*
X140847388Y-107927548D01*
X140828792Y-107917325D01*
X140812531Y-107906644D01*
X140795763Y-107893637D01*
X140772295Y-107883482D01*
X140751178Y-107874343D01*
X140745956Y-107871786D01*
X140703368Y-107848373D01*
X140703365Y-107848372D01*
X140682801Y-107843092D01*
X140664396Y-107836790D01*
X140644927Y-107828365D01*
X140644921Y-107828363D01*
X140596951Y-107820766D01*
X140591236Y-107819582D01*
X140574772Y-107815355D01*
X140544180Y-107807500D01*
X140544177Y-107807500D01*
X140522955Y-107807500D01*
X140503555Y-107805973D01*
X140482596Y-107802653D01*
X140482595Y-107802653D01*
X140458786Y-107804903D01*
X140434230Y-107807225D01*
X140428392Y-107807500D01*
X140122975Y-107807500D01*
X140055936Y-107787815D01*
X140050090Y-107783818D01*
X139898734Y-107673851D01*
X139898729Y-107673848D01*
X139725807Y-107596857D01*
X139725802Y-107596855D01*
X139574331Y-107564660D01*
X139567884Y-107563289D01*
X139506403Y-107530098D01*
X139472627Y-107468935D01*
X139477279Y-107399220D01*
X139518883Y-107343088D01*
X139567884Y-107320710D01*
X139725803Y-107287144D01*
X139898730Y-107210151D01*
X139898734Y-107210148D01*
X139903563Y-107207998D01*
X139972813Y-107198712D01*
X140004437Y-107207998D01*
X140009265Y-107210148D01*
X140009270Y-107210151D01*
X140182197Y-107287144D01*
X140367354Y-107326500D01*
X140367355Y-107326500D01*
X140556644Y-107326500D01*
X140556646Y-107326500D01*
X140741803Y-107287144D01*
X140914730Y-107210151D01*
X141067871Y-107098888D01*
X141194533Y-106958216D01*
X141289179Y-106794284D01*
X141318671Y-106703516D01*
X141822101Y-106703516D01*
X141841887Y-106891772D01*
X141841888Y-106891775D01*
X141900379Y-107071793D01*
X141900382Y-107071800D01*
X141995028Y-107235732D01*
X142091692Y-107343088D01*
X142121690Y-107376404D01*
X142274826Y-107487664D01*
X142274831Y-107487667D01*
X142447753Y-107564658D01*
X142447758Y-107564660D01*
X142632915Y-107604016D01*
X142632916Y-107604016D01*
X142822205Y-107604016D01*
X142822207Y-107604016D01*
X143007364Y-107564660D01*
X143180291Y-107487667D01*
X143333432Y-107376404D01*
X143460094Y-107235732D01*
X143554740Y-107071800D01*
X143613235Y-106891772D01*
X143633021Y-106703516D01*
X143613235Y-106515260D01*
X143554740Y-106335232D01*
X143460094Y-106171300D01*
X143333432Y-106030628D01*
X143333431Y-106030627D01*
X143180295Y-105919367D01*
X143180290Y-105919364D01*
X143007368Y-105842373D01*
X143007363Y-105842371D01*
X142861562Y-105811381D01*
X142822207Y-105803016D01*
X142632915Y-105803016D01*
X142610530Y-105807774D01*
X142447758Y-105842371D01*
X142447753Y-105842373D01*
X142274831Y-105919364D01*
X142274826Y-105919367D01*
X142121690Y-106030627D01*
X141995027Y-106171301D01*
X141900382Y-106335231D01*
X141900379Y-106335238D01*
X141844825Y-106506218D01*
X141841887Y-106515260D01*
X141822101Y-106703516D01*
X141318671Y-106703516D01*
X141347674Y-106614256D01*
X141367460Y-106426000D01*
X141347674Y-106237744D01*
X141289179Y-106057716D01*
X141194533Y-105893784D01*
X141067871Y-105753112D01*
X141067870Y-105753111D01*
X140914734Y-105641851D01*
X140914729Y-105641848D01*
X140741807Y-105564857D01*
X140741802Y-105564855D01*
X140596000Y-105533865D01*
X140556646Y-105525500D01*
X140367354Y-105525500D01*
X140334897Y-105532398D01*
X140182197Y-105564855D01*
X140182192Y-105564857D01*
X140004435Y-105644001D01*
X139935185Y-105653286D01*
X139903563Y-105644001D01*
X139898727Y-105641848D01*
X139813245Y-105603788D01*
X139725806Y-105564857D01*
X139725802Y-105564855D01*
X139580000Y-105533865D01*
X139540646Y-105525500D01*
X139351354Y-105525500D01*
X139318897Y-105532398D01*
X139166197Y-105564855D01*
X139166192Y-105564857D01*
X138993270Y-105641848D01*
X138993265Y-105641851D01*
X138840129Y-105753111D01*
X138713466Y-105893785D01*
X138618821Y-106057715D01*
X138618818Y-106057722D01*
X138561427Y-106234355D01*
X138560326Y-106237744D01*
X138540540Y-106426000D01*
X138560326Y-106614256D01*
X138560327Y-106614259D01*
X138618818Y-106794277D01*
X138618821Y-106794284D01*
X138713467Y-106958216D01*
X138815739Y-107071800D01*
X138840129Y-107098888D01*
X138993265Y-107210148D01*
X138993270Y-107210151D01*
X139166192Y-107287142D01*
X139166197Y-107287144D01*
X139324114Y-107320710D01*
X139385596Y-107353902D01*
X139419372Y-107415065D01*
X139414720Y-107484780D01*
X139373115Y-107540912D01*
X139324114Y-107563290D01*
X139166197Y-107596855D01*
X139166192Y-107596857D01*
X138993270Y-107673848D01*
X138993265Y-107673851D01*
X138840129Y-107785111D01*
X138713466Y-107925785D01*
X138618821Y-108089715D01*
X138618818Y-108089722D01*
X138587430Y-108186326D01*
X138560326Y-108269744D01*
X138540540Y-108458000D01*
X138560326Y-108646256D01*
X138560327Y-108646259D01*
X138618818Y-108826277D01*
X138618821Y-108826284D01*
X138713467Y-108990216D01*
X138827819Y-109117216D01*
X138840129Y-109130888D01*
X138993265Y-109242148D01*
X138993270Y-109242151D01*
X139166192Y-109319142D01*
X139166197Y-109319144D01*
X139351354Y-109358500D01*
X139375192Y-109358500D01*
X139442231Y-109378185D01*
X139462873Y-109394819D01*
X140537181Y-110469127D01*
X140570666Y-110530450D01*
X140573500Y-110556808D01*
X140573500Y-111089078D01*
X140553815Y-111156117D01*
X140541651Y-111172048D01*
X140541166Y-111172588D01*
X140526171Y-111189241D01*
X140466683Y-111225888D01*
X140396826Y-111224555D01*
X140383587Y-111219545D01*
X140233806Y-111152857D01*
X140233802Y-111152855D01*
X140088000Y-111121865D01*
X140048646Y-111113500D01*
X139859354Y-111113500D01*
X139826897Y-111120398D01*
X139674197Y-111152855D01*
X139674192Y-111152857D01*
X139501270Y-111229848D01*
X139501265Y-111229851D01*
X139348129Y-111341111D01*
X139221466Y-111481785D01*
X139126821Y-111645715D01*
X139126818Y-111645722D01*
X139069936Y-111820789D01*
X139068326Y-111825744D01*
X139048540Y-112014000D01*
X139068326Y-112202256D01*
X139068327Y-112202259D01*
X139126818Y-112382277D01*
X139126821Y-112382284D01*
X139221467Y-112546216D01*
X139268111Y-112598019D01*
X139348129Y-112686888D01*
X139501265Y-112798148D01*
X139501270Y-112798151D01*
X139674192Y-112875142D01*
X139674197Y-112875144D01*
X139859354Y-112914500D01*
X139859355Y-112914500D01*
X140048644Y-112914500D01*
X140048646Y-112914500D01*
X140233803Y-112875144D01*
X140406730Y-112798151D01*
X140559871Y-112686888D01*
X140651827Y-112584759D01*
X140711312Y-112548112D01*
X140781169Y-112549442D01*
X140794397Y-112554448D01*
X140944197Y-112621144D01*
X141129354Y-112660500D01*
X141129355Y-112660500D01*
X141318644Y-112660500D01*
X141318646Y-112660500D01*
X141503803Y-112621144D01*
X141676730Y-112544151D01*
X141829871Y-112432888D01*
X141881351Y-112375712D01*
X141940836Y-112339066D01*
X142010693Y-112340395D01*
X142068742Y-112379282D01*
X142096552Y-112443378D01*
X142097500Y-112458686D01*
X142097500Y-112461044D01*
X142095973Y-112480444D01*
X142092656Y-112501389D01*
X142092653Y-112501405D01*
X142097120Y-112548655D01*
X142097225Y-112549767D01*
X142097500Y-112555606D01*
X142097500Y-114487191D01*
X142077815Y-114554230D01*
X142061181Y-114574872D01*
X141476896Y-115159158D01*
X141415573Y-115192643D01*
X141389215Y-115195477D01*
X140422778Y-115195477D01*
X140355739Y-115175792D01*
X140309984Y-115122988D01*
X140300040Y-115053830D01*
X140304847Y-115033159D01*
X140309697Y-115018233D01*
X140329483Y-114829977D01*
X140309697Y-114641721D01*
X140251202Y-114461693D01*
X140156556Y-114297761D01*
X140029894Y-114157089D01*
X140017529Y-114148105D01*
X139876757Y-114045828D01*
X139876752Y-114045825D01*
X139703830Y-113968834D01*
X139703825Y-113968832D01*
X139536664Y-113933302D01*
X139518669Y-113929477D01*
X139329377Y-113929477D01*
X139311382Y-113933302D01*
X139144220Y-113968832D01*
X139144215Y-113968834D01*
X138971293Y-114045825D01*
X138971288Y-114045828D01*
X138818152Y-114157088D01*
X138691489Y-114297762D01*
X138596844Y-114461692D01*
X138596841Y-114461699D01*
X138538350Y-114641717D01*
X138538349Y-114641721D01*
X138521600Y-114801078D01*
X138518563Y-114829976D01*
X138538349Y-115018233D01*
X138538350Y-115018236D01*
X138543199Y-115033159D01*
X138545194Y-115103000D01*
X138509113Y-115162833D01*
X138446412Y-115193661D01*
X138425268Y-115195477D01*
X138068998Y-115195477D01*
X138001959Y-115175792D01*
X137996113Y-115171795D01*
X137844757Y-115061828D01*
X137844752Y-115061825D01*
X137671830Y-114984834D01*
X137671825Y-114984832D01*
X137526024Y-114953842D01*
X137486669Y-114945477D01*
X137297377Y-114945477D01*
X137264920Y-114952375D01*
X137112220Y-114984832D01*
X137112215Y-114984834D01*
X136939293Y-115061825D01*
X136939288Y-115061828D01*
X136786152Y-115173088D01*
X136659489Y-115313762D01*
X136564844Y-115477692D01*
X136564841Y-115477699D01*
X136511841Y-115640818D01*
X136472403Y-115698494D01*
X136408045Y-115725692D01*
X136393910Y-115726500D01*
X136244378Y-115726500D01*
X136185925Y-115711858D01*
X136091201Y-115661227D01*
X136070989Y-115647722D01*
X135938333Y-115538854D01*
X135921145Y-115521666D01*
X135885062Y-115477699D01*
X135812276Y-115389008D01*
X135798772Y-115368798D01*
X135748142Y-115274075D01*
X135733500Y-115215622D01*
X135733500Y-112670977D01*
X136359563Y-112670977D01*
X136379349Y-112859233D01*
X136379350Y-112859236D01*
X136437841Y-113039254D01*
X136437844Y-113039261D01*
X136532490Y-113203193D01*
X136604989Y-113283711D01*
X136659152Y-113343865D01*
X136812288Y-113455125D01*
X136812293Y-113455128D01*
X136985215Y-113532119D01*
X136985220Y-113532121D01*
X137170377Y-113571477D01*
X137170378Y-113571477D01*
X137359667Y-113571477D01*
X137359669Y-113571477D01*
X137544826Y-113532121D01*
X137717753Y-113455128D01*
X137870894Y-113343865D01*
X137997556Y-113203193D01*
X138092202Y-113039261D01*
X138150697Y-112859233D01*
X138170483Y-112670977D01*
X138150697Y-112482721D01*
X138092202Y-112302693D01*
X137997556Y-112138761D01*
X137870894Y-111998089D01*
X137870893Y-111998088D01*
X137717757Y-111886828D01*
X137717752Y-111886825D01*
X137544830Y-111809834D01*
X137544825Y-111809832D01*
X137399023Y-111778842D01*
X137359669Y-111770477D01*
X137170377Y-111770477D01*
X137137920Y-111777375D01*
X136985220Y-111809832D01*
X136985215Y-111809834D01*
X136812293Y-111886825D01*
X136812288Y-111886828D01*
X136659152Y-111998088D01*
X136532489Y-112138762D01*
X136437844Y-112302692D01*
X136437841Y-112302699D01*
X136393287Y-112439823D01*
X136379349Y-112482721D01*
X136359563Y-112670977D01*
X135733500Y-112670977D01*
X135733500Y-107167609D01*
X135733135Y-107152735D01*
X135732106Y-107131810D01*
X135731013Y-107117006D01*
X135711111Y-106914929D01*
X135711111Y-106914930D01*
X135706748Y-106885521D01*
X135701452Y-106858897D01*
X135696207Y-106832520D01*
X135696207Y-106832521D01*
X135688985Y-106803691D01*
X135688984Y-106803690D01*
X135688983Y-106803684D01*
X135636000Y-106629019D01*
X135636000Y-105664000D01*
X134670982Y-105664000D01*
X134496308Y-105611013D01*
X134496303Y-105611011D01*
X134496294Y-105611009D01*
X134481960Y-105607419D01*
X134467462Y-105603788D01*
X134423470Y-105595039D01*
X134414473Y-105593250D01*
X134414474Y-105593250D01*
X134385071Y-105588889D01*
X134385070Y-105588889D01*
X134226834Y-105573305D01*
X134182991Y-105568987D01*
X134174686Y-105568374D01*
X134168184Y-105567894D01*
X134147259Y-105566865D01*
X134132388Y-105566500D01*
X128788727Y-105566500D01*
X128721688Y-105546815D01*
X128675933Y-105494011D01*
X128665406Y-105429540D01*
X128667460Y-105410000D01*
X128647674Y-105221744D01*
X128589179Y-105041716D01*
X128494533Y-104877784D01*
X128367871Y-104737112D01*
X128367870Y-104737111D01*
X128214734Y-104625851D01*
X128214729Y-104625848D01*
X128041807Y-104548857D01*
X128041802Y-104548855D01*
X127896000Y-104517865D01*
X127856646Y-104509500D01*
X127667354Y-104509500D01*
X127634897Y-104516398D01*
X127482197Y-104548855D01*
X127482192Y-104548857D01*
X127309270Y-104625848D01*
X127309265Y-104625851D01*
X127156129Y-104737111D01*
X127029466Y-104877785D01*
X126934821Y-105041715D01*
X126934818Y-105041722D01*
X126876327Y-105221740D01*
X126876326Y-105221744D01*
X126856540Y-105410000D01*
X126858593Y-105429539D01*
X126846025Y-105498268D01*
X126798293Y-105549292D01*
X126735273Y-105566500D01*
X126130180Y-105566500D01*
X126096530Y-105568374D01*
X126052410Y-105573305D01*
X126052407Y-105573305D01*
X125971976Y-105587844D01*
X125912129Y-105611560D01*
X125842553Y-105617957D01*
X125780563Y-105585722D01*
X125749162Y-105536531D01*
X125745376Y-105525500D01*
X125626326Y-105178590D01*
X125316976Y-104163405D01*
X125242887Y-103886000D01*
X135746540Y-103886000D01*
X135766326Y-104074256D01*
X135766327Y-104074259D01*
X135824818Y-104254277D01*
X135824821Y-104254284D01*
X135919467Y-104418216D01*
X136001660Y-104509500D01*
X136046129Y-104558888D01*
X136199265Y-104670148D01*
X136199270Y-104670151D01*
X136372192Y-104747142D01*
X136372197Y-104747144D01*
X136557354Y-104786500D01*
X136557355Y-104786500D01*
X136746644Y-104786500D01*
X136746646Y-104786500D01*
X136931803Y-104747144D01*
X137104730Y-104670151D01*
X137257871Y-104558888D01*
X137384533Y-104418216D01*
X137479179Y-104254284D01*
X137537674Y-104074256D01*
X137557460Y-103886000D01*
X137537674Y-103697744D01*
X137479179Y-103517716D01*
X137384533Y-103353784D01*
X137257871Y-103213112D01*
X137257870Y-103213111D01*
X137104734Y-103101851D01*
X137104729Y-103101848D01*
X136931807Y-103024857D01*
X136931802Y-103024855D01*
X136786001Y-102993865D01*
X136746646Y-102985500D01*
X136557354Y-102985500D01*
X136524897Y-102992398D01*
X136372197Y-103024855D01*
X136372192Y-103024857D01*
X136199270Y-103101848D01*
X136199265Y-103101851D01*
X136046129Y-103213111D01*
X135919466Y-103353785D01*
X135824821Y-103517715D01*
X135824818Y-103517722D01*
X135766327Y-103697740D01*
X135766326Y-103697744D01*
X135746540Y-103886000D01*
X125242887Y-103886000D01*
X125043132Y-103138072D01*
X124805127Y-102103833D01*
X124603249Y-101061939D01*
X124567893Y-100838000D01*
X125078540Y-100838000D01*
X125098326Y-101026256D01*
X125098327Y-101026259D01*
X125156818Y-101206277D01*
X125156821Y-101206284D01*
X125251467Y-101370216D01*
X125300958Y-101425181D01*
X125378129Y-101510888D01*
X125531265Y-101622148D01*
X125531270Y-101622151D01*
X125704192Y-101699142D01*
X125704197Y-101699144D01*
X125889354Y-101738500D01*
X125889355Y-101738500D01*
X126078644Y-101738500D01*
X126078646Y-101738500D01*
X126263803Y-101699144D01*
X126436730Y-101622151D01*
X126589871Y-101510888D01*
X126716533Y-101370216D01*
X126811179Y-101206284D01*
X126869674Y-101026256D01*
X126889460Y-100838000D01*
X126869674Y-100649744D01*
X126811179Y-100469716D01*
X126716533Y-100305784D01*
X126591996Y-100167472D01*
X126561766Y-100104481D01*
X126570391Y-100035145D01*
X126615133Y-99981480D01*
X126681785Y-99960522D01*
X126684146Y-99960500D01*
X126840644Y-99960500D01*
X126840646Y-99960500D01*
X127025803Y-99921144D01*
X127198730Y-99844151D01*
X127351871Y-99732888D01*
X127478533Y-99592216D01*
X127573179Y-99428284D01*
X127631674Y-99248256D01*
X127651460Y-99060000D01*
X127631674Y-98871744D01*
X127573179Y-98691716D01*
X127492514Y-98552000D01*
X131682540Y-98552000D01*
X131702326Y-98740256D01*
X131702327Y-98740259D01*
X131760818Y-98920277D01*
X131760821Y-98920284D01*
X131855467Y-99084216D01*
X131958082Y-99198181D01*
X131982129Y-99224888D01*
X132135265Y-99336148D01*
X132135270Y-99336151D01*
X132308192Y-99413142D01*
X132308197Y-99413144D01*
X132493354Y-99452500D01*
X132493355Y-99452500D01*
X132682644Y-99452500D01*
X132682646Y-99452500D01*
X132867803Y-99413144D01*
X133040730Y-99336151D01*
X133193871Y-99224888D01*
X133320533Y-99084216D01*
X133415179Y-98920284D01*
X133473674Y-98740256D01*
X133493460Y-98552000D01*
X133473674Y-98363744D01*
X133415179Y-98183716D01*
X133320533Y-98019784D01*
X133193871Y-97879112D01*
X133190111Y-97876380D01*
X133040734Y-97767851D01*
X133040729Y-97767848D01*
X132867807Y-97690857D01*
X132867802Y-97690855D01*
X132722001Y-97659865D01*
X132682646Y-97651500D01*
X132493354Y-97651500D01*
X132460897Y-97658398D01*
X132308197Y-97690855D01*
X132308192Y-97690857D01*
X132135270Y-97767848D01*
X132135265Y-97767851D01*
X131982129Y-97879111D01*
X131855466Y-98019785D01*
X131760821Y-98183715D01*
X131760818Y-98183722D01*
X131702327Y-98363740D01*
X131702326Y-98363744D01*
X131682540Y-98552000D01*
X127492514Y-98552000D01*
X127478533Y-98527784D01*
X127351871Y-98387112D01*
X127319708Y-98363744D01*
X127198734Y-98275851D01*
X127198729Y-98275848D01*
X127025807Y-98198857D01*
X127025802Y-98198855D01*
X126880000Y-98167865D01*
X126840646Y-98159500D01*
X126651354Y-98159500D01*
X126618897Y-98166398D01*
X126466197Y-98198855D01*
X126466192Y-98198857D01*
X126293270Y-98275848D01*
X126293265Y-98275851D01*
X126140129Y-98387111D01*
X126013466Y-98527785D01*
X125918821Y-98691715D01*
X125918818Y-98691722D01*
X125862378Y-98865428D01*
X125860326Y-98871744D01*
X125840540Y-99060000D01*
X125860326Y-99248256D01*
X125860327Y-99248259D01*
X125918818Y-99428277D01*
X125918821Y-99428284D01*
X126013467Y-99592216D01*
X126094703Y-99682437D01*
X126138004Y-99730528D01*
X126168234Y-99793519D01*
X126159609Y-99862855D01*
X126114867Y-99916520D01*
X126048215Y-99937478D01*
X126045854Y-99937500D01*
X125889354Y-99937500D01*
X125856897Y-99944398D01*
X125704197Y-99976855D01*
X125704192Y-99976857D01*
X125531270Y-100053848D01*
X125531265Y-100053851D01*
X125378129Y-100165111D01*
X125251466Y-100305785D01*
X125156821Y-100469715D01*
X125156818Y-100469722D01*
X125098327Y-100649740D01*
X125098326Y-100649744D01*
X125078540Y-100838000D01*
X124567893Y-100838000D01*
X124437741Y-100013652D01*
X124308804Y-98960242D01*
X124216595Y-97902984D01*
X124161225Y-96843157D01*
X124142762Y-95782103D01*
X124142762Y-95782046D01*
X124154527Y-95123000D01*
X124443540Y-95123000D01*
X124463326Y-95311256D01*
X124463327Y-95311259D01*
X124521818Y-95491277D01*
X124521821Y-95491284D01*
X124616467Y-95655216D01*
X124730666Y-95782046D01*
X124743129Y-95795888D01*
X124896265Y-95907148D01*
X124896270Y-95907151D01*
X125069192Y-95984142D01*
X125069197Y-95984144D01*
X125254354Y-96023500D01*
X125254355Y-96023500D01*
X125443644Y-96023500D01*
X125443646Y-96023500D01*
X125497750Y-96012000D01*
X129142540Y-96012000D01*
X129162326Y-96200256D01*
X129162327Y-96200259D01*
X129220818Y-96380277D01*
X129220821Y-96380284D01*
X129315467Y-96544216D01*
X129442129Y-96684887D01*
X129442129Y-96684888D01*
X129595265Y-96796148D01*
X129595270Y-96796151D01*
X129768192Y-96873142D01*
X129768197Y-96873144D01*
X129953354Y-96912500D01*
X129953355Y-96912500D01*
X130142644Y-96912500D01*
X130142646Y-96912500D01*
X130198415Y-96900646D01*
X137397187Y-96900646D01*
X137416973Y-97088902D01*
X137416974Y-97088905D01*
X137475465Y-97268923D01*
X137475468Y-97268930D01*
X137570114Y-97432862D01*
X137643036Y-97513850D01*
X137696776Y-97573534D01*
X137849912Y-97684794D01*
X137849917Y-97684797D01*
X138022839Y-97761788D01*
X138022844Y-97761790D01*
X138208001Y-97801146D01*
X138208002Y-97801146D01*
X138397291Y-97801146D01*
X138397293Y-97801146D01*
X138582450Y-97761790D01*
X138755377Y-97684797D01*
X138908518Y-97573534D01*
X139035180Y-97432862D01*
X139129826Y-97268930D01*
X139188321Y-97088902D01*
X139208107Y-96900646D01*
X139188321Y-96712390D01*
X139129826Y-96532362D01*
X139035180Y-96368430D01*
X138908518Y-96227758D01*
X138865260Y-96196329D01*
X138755381Y-96116497D01*
X138755376Y-96116494D01*
X138582454Y-96039503D01*
X138582449Y-96039501D01*
X138436648Y-96008511D01*
X138397293Y-96000146D01*
X138208001Y-96000146D01*
X138175544Y-96007044D01*
X138022844Y-96039501D01*
X138022839Y-96039503D01*
X137849917Y-96116494D01*
X137849912Y-96116497D01*
X137696776Y-96227757D01*
X137570113Y-96368431D01*
X137475468Y-96532361D01*
X137475465Y-96532368D01*
X137417373Y-96711158D01*
X137416973Y-96712390D01*
X137397187Y-96900646D01*
X130198415Y-96900646D01*
X130327803Y-96873144D01*
X130500730Y-96796151D01*
X130653871Y-96684888D01*
X130780533Y-96544216D01*
X130875179Y-96380284D01*
X130933674Y-96200256D01*
X130953460Y-96012000D01*
X130933674Y-95823744D01*
X130875179Y-95643716D01*
X130780533Y-95479784D01*
X130653871Y-95339112D01*
X130621708Y-95315744D01*
X130500734Y-95227851D01*
X130500729Y-95227848D01*
X130327807Y-95150857D01*
X130327802Y-95150855D01*
X130182000Y-95119865D01*
X130142646Y-95111500D01*
X129953354Y-95111500D01*
X129920897Y-95118398D01*
X129768197Y-95150855D01*
X129768192Y-95150857D01*
X129595270Y-95227848D01*
X129595265Y-95227851D01*
X129442129Y-95339111D01*
X129315466Y-95479785D01*
X129220821Y-95643715D01*
X129220818Y-95643722D01*
X129175865Y-95782074D01*
X129162326Y-95823744D01*
X129142540Y-96012000D01*
X125497750Y-96012000D01*
X125628803Y-95984144D01*
X125801730Y-95907151D01*
X125954871Y-95795888D01*
X126081533Y-95655216D01*
X126176179Y-95491284D01*
X126234674Y-95311256D01*
X126254460Y-95123000D01*
X126234674Y-94934744D01*
X126176179Y-94754716D01*
X126081533Y-94590784D01*
X125954871Y-94450112D01*
X125954870Y-94450111D01*
X125801734Y-94338851D01*
X125801729Y-94338848D01*
X125628807Y-94261857D01*
X125628802Y-94261855D01*
X125467456Y-94227561D01*
X125443646Y-94222500D01*
X125254354Y-94222500D01*
X125230544Y-94227561D01*
X125069197Y-94261855D01*
X125069192Y-94261857D01*
X124896270Y-94338848D01*
X124896265Y-94338851D01*
X124743129Y-94450111D01*
X124616466Y-94590785D01*
X124521821Y-94754715D01*
X124521818Y-94754722D01*
X124480606Y-94881561D01*
X124463326Y-94934744D01*
X124443540Y-95123000D01*
X124154527Y-95123000D01*
X124162195Y-94693448D01*
X124220471Y-93606237D01*
X124277943Y-92964000D01*
X128126540Y-92964000D01*
X128146326Y-93152256D01*
X128146327Y-93152259D01*
X128204818Y-93332277D01*
X128204821Y-93332284D01*
X128299467Y-93496216D01*
X128377765Y-93583174D01*
X128426129Y-93636888D01*
X128579265Y-93748148D01*
X128579270Y-93748151D01*
X128752192Y-93825142D01*
X128752197Y-93825144D01*
X128937354Y-93864500D01*
X128937355Y-93864500D01*
X129126644Y-93864500D01*
X129126646Y-93864500D01*
X129311803Y-93825144D01*
X129484730Y-93748151D01*
X129515218Y-93726000D01*
X140572540Y-93726000D01*
X140592326Y-93914256D01*
X140592327Y-93914259D01*
X140650818Y-94094277D01*
X140650821Y-94094284D01*
X140745467Y-94258216D01*
X140819434Y-94340364D01*
X140872129Y-94398888D01*
X141025265Y-94510148D01*
X141025270Y-94510151D01*
X141198192Y-94587142D01*
X141198197Y-94587144D01*
X141383354Y-94626500D01*
X141383355Y-94626500D01*
X141572644Y-94626500D01*
X141572646Y-94626500D01*
X141757803Y-94587144D01*
X141930730Y-94510151D01*
X142083871Y-94398888D01*
X142210533Y-94258216D01*
X142305179Y-94094284D01*
X142363674Y-93914256D01*
X142383460Y-93726000D01*
X142363674Y-93537744D01*
X142356771Y-93516500D01*
X143675980Y-93516500D01*
X143695766Y-93704756D01*
X143695767Y-93704759D01*
X143754258Y-93884777D01*
X143754261Y-93884784D01*
X143848907Y-94048716D01*
X143936811Y-94146343D01*
X143975569Y-94189388D01*
X144128705Y-94300648D01*
X144128710Y-94300651D01*
X144301632Y-94377642D01*
X144301637Y-94377644D01*
X144486794Y-94417000D01*
X144486795Y-94417000D01*
X144676084Y-94417000D01*
X144676086Y-94417000D01*
X144861243Y-94377644D01*
X145034170Y-94300651D01*
X145187311Y-94189388D01*
X145313973Y-94048716D01*
X145408619Y-93884784D01*
X145467114Y-93704756D01*
X145486900Y-93516500D01*
X145467114Y-93328244D01*
X145408619Y-93148216D01*
X145313973Y-92984284D01*
X145187311Y-92843612D01*
X145187310Y-92843611D01*
X145034174Y-92732351D01*
X145034169Y-92732348D01*
X144861247Y-92655357D01*
X144861242Y-92655355D01*
X144715441Y-92624365D01*
X144676086Y-92616000D01*
X144486794Y-92616000D01*
X144454337Y-92622898D01*
X144301637Y-92655355D01*
X144301632Y-92655357D01*
X144128710Y-92732348D01*
X144128705Y-92732351D01*
X143975569Y-92843611D01*
X143848906Y-92984285D01*
X143754261Y-93148215D01*
X143754258Y-93148222D01*
X143712000Y-93278280D01*
X143695766Y-93328244D01*
X143675980Y-93516500D01*
X142356771Y-93516500D01*
X142305179Y-93357716D01*
X142210533Y-93193784D01*
X142083871Y-93053112D01*
X142078948Y-93049535D01*
X141930734Y-92941851D01*
X141930729Y-92941848D01*
X141757807Y-92864857D01*
X141757802Y-92864855D01*
X141612000Y-92833865D01*
X141572646Y-92825500D01*
X141383354Y-92825500D01*
X141350897Y-92832398D01*
X141198197Y-92864855D01*
X141198192Y-92864857D01*
X141025270Y-92941848D01*
X141025265Y-92941851D01*
X140872129Y-93053111D01*
X140745466Y-93193785D01*
X140650821Y-93357715D01*
X140650818Y-93357722D01*
X140592327Y-93537740D01*
X140592326Y-93537744D01*
X140572540Y-93726000D01*
X129515218Y-93726000D01*
X129637871Y-93636888D01*
X129764533Y-93496216D01*
X129859179Y-93332284D01*
X129917674Y-93152256D01*
X129937460Y-92964000D01*
X129917674Y-92775744D01*
X129900374Y-92722500D01*
X138032540Y-92722500D01*
X138052326Y-92910756D01*
X138052327Y-92910759D01*
X138110818Y-93090777D01*
X138110821Y-93090784D01*
X138205467Y-93254716D01*
X138275310Y-93332284D01*
X138332129Y-93395388D01*
X138485265Y-93506648D01*
X138485270Y-93506651D01*
X138658192Y-93583642D01*
X138658197Y-93583644D01*
X138843354Y-93623000D01*
X138843355Y-93623000D01*
X139032644Y-93623000D01*
X139032646Y-93623000D01*
X139217803Y-93583644D01*
X139390730Y-93506651D01*
X139543871Y-93395388D01*
X139670533Y-93254716D01*
X139765179Y-93090784D01*
X139823674Y-92910756D01*
X139843460Y-92722500D01*
X139823674Y-92534244D01*
X139765179Y-92354216D01*
X139716699Y-92270247D01*
X139700228Y-92202348D01*
X139716700Y-92146250D01*
X139765179Y-92062284D01*
X139823674Y-91882256D01*
X139843460Y-91694000D01*
X139824804Y-91516500D01*
X141334540Y-91516500D01*
X141354326Y-91704756D01*
X141354327Y-91704759D01*
X141412818Y-91884777D01*
X141412821Y-91884784D01*
X141507467Y-92048716D01*
X141607192Y-92159471D01*
X141634129Y-92189388D01*
X141787265Y-92300648D01*
X141787270Y-92300651D01*
X141960192Y-92377642D01*
X141960197Y-92377644D01*
X142145354Y-92417000D01*
X142145355Y-92417000D01*
X142334644Y-92417000D01*
X142334646Y-92417000D01*
X142519803Y-92377644D01*
X142692730Y-92300651D01*
X142845871Y-92189388D01*
X142972533Y-92048716D01*
X143067179Y-91884784D01*
X143125674Y-91704756D01*
X143145460Y-91516500D01*
X143125674Y-91328244D01*
X143067179Y-91148216D01*
X142972533Y-90984284D01*
X142845871Y-90843612D01*
X142845870Y-90843611D01*
X142692734Y-90732351D01*
X142692729Y-90732348D01*
X142519807Y-90655357D01*
X142519802Y-90655355D01*
X142374001Y-90624365D01*
X142334646Y-90616000D01*
X142145354Y-90616000D01*
X142112897Y-90622898D01*
X141960197Y-90655355D01*
X141960192Y-90655357D01*
X141787270Y-90732348D01*
X141787265Y-90732351D01*
X141634129Y-90843611D01*
X141507466Y-90984285D01*
X141412821Y-91148215D01*
X141412818Y-91148222D01*
X141355147Y-91325716D01*
X141354326Y-91328244D01*
X141334540Y-91516500D01*
X139824804Y-91516500D01*
X139823674Y-91505744D01*
X139765179Y-91325716D01*
X139670533Y-91161784D01*
X139543871Y-91021112D01*
X139511708Y-90997744D01*
X139390734Y-90909851D01*
X139390729Y-90909848D01*
X139217807Y-90832857D01*
X139217802Y-90832855D01*
X139072000Y-90801865D01*
X139032646Y-90793500D01*
X138843354Y-90793500D01*
X138810897Y-90800398D01*
X138658197Y-90832855D01*
X138658192Y-90832857D01*
X138485270Y-90909848D01*
X138485265Y-90909851D01*
X138332129Y-91021111D01*
X138205466Y-91161785D01*
X138110821Y-91325715D01*
X138110818Y-91325722D01*
X138073195Y-91441515D01*
X138052326Y-91505744D01*
X138032540Y-91694000D01*
X138052326Y-91882256D01*
X138052327Y-91882259D01*
X138110821Y-92062285D01*
X138159298Y-92146250D01*
X138175771Y-92214150D01*
X138159298Y-92270250D01*
X138110821Y-92354214D01*
X138056370Y-92521798D01*
X138052326Y-92534244D01*
X138032540Y-92722500D01*
X129900374Y-92722500D01*
X129859179Y-92595716D01*
X129764533Y-92431784D01*
X129637871Y-92291112D01*
X129609157Y-92270250D01*
X129484734Y-92179851D01*
X129484729Y-92179848D01*
X129311807Y-92102857D01*
X129311802Y-92102855D01*
X129166001Y-92071865D01*
X129126646Y-92063500D01*
X128937354Y-92063500D01*
X128904897Y-92070398D01*
X128752197Y-92102855D01*
X128752192Y-92102857D01*
X128579270Y-92179848D01*
X128579265Y-92179851D01*
X128426129Y-92291111D01*
X128299466Y-92431785D01*
X128204821Y-92595715D01*
X128204818Y-92595722D01*
X128150489Y-92762932D01*
X128146326Y-92775744D01*
X128126540Y-92964000D01*
X124277943Y-92964000D01*
X124317515Y-92521798D01*
X124453203Y-91441515D01*
X124535768Y-90932000D01*
X126348540Y-90932000D01*
X126368326Y-91120256D01*
X126368327Y-91120259D01*
X126426818Y-91300277D01*
X126426821Y-91300284D01*
X126521467Y-91464216D01*
X126568543Y-91516499D01*
X126648129Y-91604888D01*
X126801265Y-91716148D01*
X126801270Y-91716151D01*
X126974192Y-91793142D01*
X126974197Y-91793144D01*
X127159354Y-91832500D01*
X127159355Y-91832500D01*
X127348644Y-91832500D01*
X127348646Y-91832500D01*
X127533803Y-91793144D01*
X127706730Y-91716151D01*
X127859871Y-91604888D01*
X127986533Y-91464216D01*
X128081179Y-91300284D01*
X128118312Y-91186000D01*
X130920540Y-91186000D01*
X130940326Y-91374256D01*
X130940327Y-91374259D01*
X130998818Y-91554277D01*
X130998821Y-91554284D01*
X131093467Y-91718216D01*
X131160931Y-91793142D01*
X131220129Y-91858888D01*
X131373265Y-91970148D01*
X131373270Y-91970151D01*
X131546192Y-92047142D01*
X131546197Y-92047144D01*
X131731354Y-92086500D01*
X131731355Y-92086500D01*
X131920644Y-92086500D01*
X131920646Y-92086500D01*
X132105803Y-92047144D01*
X132278730Y-91970151D01*
X132431871Y-91858888D01*
X132558533Y-91718216D01*
X132653179Y-91554284D01*
X132711674Y-91374256D01*
X132731460Y-91186000D01*
X132711674Y-90997744D01*
X132653179Y-90817716D01*
X132558533Y-90653784D01*
X132431871Y-90513112D01*
X132431870Y-90513111D01*
X132278734Y-90401851D01*
X132278729Y-90401848D01*
X132105807Y-90324857D01*
X132105802Y-90324855D01*
X131960000Y-90293865D01*
X131920646Y-90285500D01*
X131731354Y-90285500D01*
X131698897Y-90292398D01*
X131546197Y-90324855D01*
X131546192Y-90324857D01*
X131373270Y-90401848D01*
X131373265Y-90401851D01*
X131220129Y-90513111D01*
X131093466Y-90653785D01*
X130998821Y-90817715D01*
X130998818Y-90817722D01*
X130954491Y-90954148D01*
X130940326Y-90997744D01*
X130920540Y-91186000D01*
X128118312Y-91186000D01*
X128139674Y-91120256D01*
X128159460Y-90932000D01*
X128139674Y-90743744D01*
X128081179Y-90563716D01*
X127986533Y-90399784D01*
X127859871Y-90259112D01*
X127827708Y-90235744D01*
X127737219Y-90170000D01*
X132952540Y-90170000D01*
X132972326Y-90358256D01*
X132972327Y-90358259D01*
X133030818Y-90538277D01*
X133030821Y-90538284D01*
X133125467Y-90702216D01*
X133243095Y-90832855D01*
X133252129Y-90842888D01*
X133405265Y-90954148D01*
X133405270Y-90954151D01*
X133578191Y-91031142D01*
X133578193Y-91031142D01*
X133578197Y-91031144D01*
X133656583Y-91047805D01*
X133718061Y-91080995D01*
X133751838Y-91142158D01*
X133748730Y-91207411D01*
X133734327Y-91251739D01*
X133734327Y-91251740D01*
X133734326Y-91251744D01*
X133714540Y-91440000D01*
X133734326Y-91628256D01*
X133734327Y-91628259D01*
X133792818Y-91808277D01*
X133792821Y-91808284D01*
X133887467Y-91972216D01*
X133956348Y-92048716D01*
X134014129Y-92112888D01*
X134167265Y-92224148D01*
X134167270Y-92224151D01*
X134340192Y-92301142D01*
X134340197Y-92301144D01*
X134525354Y-92340500D01*
X134525355Y-92340500D01*
X134714644Y-92340500D01*
X134714646Y-92340500D01*
X134899803Y-92301144D01*
X135072730Y-92224151D01*
X135225871Y-92112888D01*
X135352533Y-91972216D01*
X135447179Y-91808284D01*
X135505674Y-91628256D01*
X135525460Y-91440000D01*
X135505674Y-91251744D01*
X135447179Y-91071716D01*
X135352533Y-90907784D01*
X135225871Y-90767112D01*
X135193708Y-90743744D01*
X135072734Y-90655851D01*
X135072729Y-90655848D01*
X134899807Y-90578857D01*
X134899802Y-90578855D01*
X134821419Y-90562195D01*
X134759937Y-90529003D01*
X134726161Y-90467840D01*
X134729269Y-90402586D01*
X134743674Y-90358256D01*
X134763460Y-90170000D01*
X134743674Y-89981744D01*
X134685179Y-89801716D01*
X134590533Y-89637784D01*
X134463871Y-89497112D01*
X134463870Y-89497111D01*
X134310734Y-89385851D01*
X134310729Y-89385848D01*
X134137807Y-89308857D01*
X134137802Y-89308855D01*
X133987686Y-89276948D01*
X133952646Y-89269500D01*
X133763354Y-89269500D01*
X133730897Y-89276398D01*
X133578197Y-89308855D01*
X133578192Y-89308857D01*
X133405270Y-89385848D01*
X133405265Y-89385851D01*
X133252129Y-89497111D01*
X133125466Y-89637785D01*
X133030821Y-89801715D01*
X133030818Y-89801722D01*
X132972327Y-89981740D01*
X132972326Y-89981744D01*
X132952540Y-90170000D01*
X127737219Y-90170000D01*
X127706734Y-90147851D01*
X127706729Y-90147848D01*
X127533807Y-90070857D01*
X127533802Y-90070855D01*
X127388000Y-90039865D01*
X127348646Y-90031500D01*
X127159354Y-90031500D01*
X127126897Y-90038398D01*
X126974197Y-90070855D01*
X126974192Y-90070857D01*
X126801270Y-90147848D01*
X126801265Y-90147851D01*
X126648129Y-90259111D01*
X126521466Y-90399785D01*
X126426821Y-90563715D01*
X126426818Y-90563722D01*
X126368327Y-90743740D01*
X126368326Y-90743744D01*
X126348540Y-90932000D01*
X124535768Y-90932000D01*
X124627362Y-90366762D01*
X124839771Y-89298911D01*
X125090159Y-88239321D01*
X125378206Y-87189344D01*
X125399293Y-87122000D01*
X134222540Y-87122000D01*
X134242326Y-87310256D01*
X134242327Y-87310258D01*
X134242327Y-87310259D01*
X134300818Y-87490277D01*
X134300821Y-87490284D01*
X134395467Y-87654216D01*
X134483222Y-87751677D01*
X134522129Y-87794888D01*
X134675265Y-87906148D01*
X134675270Y-87906151D01*
X134848192Y-87983142D01*
X134848197Y-87983144D01*
X135033354Y-88022500D01*
X135033355Y-88022500D01*
X135222644Y-88022500D01*
X135222646Y-88022500D01*
X135407803Y-87983144D01*
X135580730Y-87906151D01*
X135733871Y-87794888D01*
X135811084Y-87709133D01*
X135870568Y-87672487D01*
X135940425Y-87673816D01*
X135998473Y-87712702D01*
X136010619Y-87730107D01*
X136031466Y-87766214D01*
X136031465Y-87766214D01*
X136158129Y-87906888D01*
X136311265Y-88018148D01*
X136311270Y-88018151D01*
X136484192Y-88095142D01*
X136484197Y-88095144D01*
X136669354Y-88134500D01*
X136669355Y-88134500D01*
X136858644Y-88134500D01*
X136858646Y-88134500D01*
X137043803Y-88095144D01*
X137216730Y-88018151D01*
X137369871Y-87906888D01*
X137496533Y-87766216D01*
X137591179Y-87602284D01*
X137649674Y-87422256D01*
X137669460Y-87234000D01*
X137649674Y-87045744D01*
X137591179Y-86865716D01*
X137496533Y-86701784D01*
X137369871Y-86561112D01*
X137369867Y-86561109D01*
X137216734Y-86449851D01*
X137216729Y-86449848D01*
X137043807Y-86372857D01*
X137043802Y-86372855D01*
X136879116Y-86337851D01*
X136858646Y-86333500D01*
X136669354Y-86333500D01*
X136648884Y-86337851D01*
X136484197Y-86372855D01*
X136484192Y-86372857D01*
X136311270Y-86449848D01*
X136311265Y-86449851D01*
X136158132Y-86561109D01*
X136158129Y-86561111D01*
X136158129Y-86561112D01*
X136080915Y-86646865D01*
X136021430Y-86683513D01*
X135951573Y-86682182D01*
X135893525Y-86643295D01*
X135881380Y-86625891D01*
X135860536Y-86589788D01*
X135860534Y-86589785D01*
X135733870Y-86449111D01*
X135580734Y-86337851D01*
X135580729Y-86337848D01*
X135407807Y-86260857D01*
X135407802Y-86260855D01*
X135262000Y-86229865D01*
X135222646Y-86221500D01*
X135033354Y-86221500D01*
X135000897Y-86228398D01*
X134848197Y-86260855D01*
X134848192Y-86260857D01*
X134675270Y-86337848D01*
X134675265Y-86337851D01*
X134522129Y-86449111D01*
X134395466Y-86589785D01*
X134300821Y-86753715D01*
X134300818Y-86753722D01*
X134249404Y-86911960D01*
X134242326Y-86933744D01*
X134222540Y-87122000D01*
X125399293Y-87122000D01*
X125703546Y-86150316D01*
X126065764Y-85123563D01*
X126464398Y-84110393D01*
X126898941Y-83112096D01*
X126985584Y-82931000D01*
X128828696Y-82931000D01*
X128847898Y-83297405D01*
X128877413Y-83483752D01*
X128905295Y-83659794D01*
X128997428Y-84003639D01*
X129000260Y-84014206D01*
X129131746Y-84356739D01*
X129298320Y-84683656D01*
X129498147Y-84991364D01*
X129702736Y-85244010D01*
X129729051Y-85276506D01*
X129988494Y-85535949D01*
X129988498Y-85535952D01*
X130273635Y-85766852D01*
X130404752Y-85852000D01*
X130581348Y-85966682D01*
X130908264Y-86133255D01*
X131138151Y-86221500D01*
X131240677Y-86260856D01*
X131250801Y-86264742D01*
X131605206Y-86359705D01*
X131967596Y-86417102D01*
X132313734Y-86435241D01*
X132333999Y-86436304D01*
X132334000Y-86436304D01*
X132334001Y-86436304D01*
X132353203Y-86435297D01*
X132700404Y-86417102D01*
X133062794Y-86359705D01*
X133417199Y-86264742D01*
X133759736Y-86133255D01*
X134086652Y-85966682D01*
X134394366Y-85766851D01*
X134679506Y-85535949D01*
X134938949Y-85276506D01*
X135169851Y-84991366D01*
X135270746Y-84836000D01*
X144636540Y-84836000D01*
X144656326Y-85024256D01*
X144656327Y-85024259D01*
X144716829Y-85210465D01*
X144714650Y-85211172D01*
X144722531Y-85270030D01*
X144700166Y-85317768D01*
X144742095Y-85318168D01*
X144800511Y-85356500D01*
X144806347Y-85363921D01*
X144809464Y-85368212D01*
X144809467Y-85368216D01*
X144854286Y-85417992D01*
X144936129Y-85508888D01*
X145089265Y-85620148D01*
X145089270Y-85620151D01*
X145262192Y-85697142D01*
X145262197Y-85697144D01*
X145447354Y-85736500D01*
X145447355Y-85736500D01*
X145636644Y-85736500D01*
X145636646Y-85736500D01*
X145821803Y-85697144D01*
X145994730Y-85620151D01*
X146147871Y-85508888D01*
X146274533Y-85368216D01*
X146369179Y-85204284D01*
X146427674Y-85024256D01*
X146447460Y-84836000D01*
X146427674Y-84647744D01*
X146369179Y-84467716D01*
X146274533Y-84303784D01*
X146147871Y-84163112D01*
X146147870Y-84163111D01*
X145994734Y-84051851D01*
X145994729Y-84051848D01*
X145821807Y-83974857D01*
X145821802Y-83974855D01*
X145676000Y-83943865D01*
X145636646Y-83935500D01*
X145447354Y-83935500D01*
X145414897Y-83942398D01*
X145262197Y-83974855D01*
X145262192Y-83974857D01*
X145089270Y-84051848D01*
X145089265Y-84051851D01*
X144936129Y-84163111D01*
X144809466Y-84303785D01*
X144714821Y-84467715D01*
X144714818Y-84467722D01*
X144666985Y-84614938D01*
X144656326Y-84647744D01*
X144636540Y-84836000D01*
X135270746Y-84836000D01*
X135369682Y-84683652D01*
X135536255Y-84356736D01*
X135667742Y-84014199D01*
X135762705Y-83659794D01*
X135820102Y-83297404D01*
X135839304Y-82931000D01*
X135820102Y-82564596D01*
X135762705Y-82202206D01*
X135667742Y-81847801D01*
X135654081Y-81812214D01*
X135591152Y-81648277D01*
X135547286Y-81534000D01*
X141842540Y-81534000D01*
X141862326Y-81722256D01*
X141862327Y-81722259D01*
X141920818Y-81902277D01*
X141920821Y-81902284D01*
X142015467Y-82066216D01*
X142072849Y-82129945D01*
X142142129Y-82206888D01*
X142295265Y-82318148D01*
X142295270Y-82318151D01*
X142468192Y-82395142D01*
X142468197Y-82395144D01*
X142653354Y-82434500D01*
X142653355Y-82434500D01*
X142842644Y-82434500D01*
X142842646Y-82434500D01*
X143027803Y-82395144D01*
X143200730Y-82318151D01*
X143353871Y-82206888D01*
X143480533Y-82066216D01*
X143575179Y-81902284D01*
X143633674Y-81722256D01*
X143653460Y-81534000D01*
X143633674Y-81345744D01*
X143612312Y-81280000D01*
X144128540Y-81280000D01*
X144148326Y-81468256D01*
X144148327Y-81468259D01*
X144206818Y-81648277D01*
X144206821Y-81648284D01*
X144301467Y-81812216D01*
X144419096Y-81942856D01*
X144428129Y-81952888D01*
X144581265Y-82064148D01*
X144581270Y-82064151D01*
X144754192Y-82141142D01*
X144754197Y-82141144D01*
X144939354Y-82180500D01*
X144939355Y-82180500D01*
X145128644Y-82180500D01*
X145128646Y-82180500D01*
X145313803Y-82141144D01*
X145486730Y-82064151D01*
X145639871Y-81952888D01*
X145766533Y-81812216D01*
X145861179Y-81648284D01*
X145919674Y-81468256D01*
X145939460Y-81280000D01*
X145919674Y-81091744D01*
X145861179Y-80911716D01*
X145766533Y-80747784D01*
X145639871Y-80607112D01*
X145629972Y-80599920D01*
X145486734Y-80495851D01*
X145486729Y-80495848D01*
X145313807Y-80418857D01*
X145313802Y-80418855D01*
X145168000Y-80387865D01*
X145128646Y-80379500D01*
X144939354Y-80379500D01*
X144906897Y-80386398D01*
X144754197Y-80418855D01*
X144754192Y-80418857D01*
X144581270Y-80495848D01*
X144581265Y-80495851D01*
X144428129Y-80607111D01*
X144301466Y-80747785D01*
X144206821Y-80911715D01*
X144206818Y-80911722D01*
X144148327Y-81091740D01*
X144148326Y-81091744D01*
X144128540Y-81280000D01*
X143612312Y-81280000D01*
X143575179Y-81165716D01*
X143480533Y-81001784D01*
X143353871Y-80861112D01*
X143353870Y-80861111D01*
X143200734Y-80749851D01*
X143200729Y-80749848D01*
X143027807Y-80672857D01*
X143027802Y-80672855D01*
X142882001Y-80641865D01*
X142842646Y-80633500D01*
X142653354Y-80633500D01*
X142620897Y-80640398D01*
X142468197Y-80672855D01*
X142468192Y-80672857D01*
X142295270Y-80749848D01*
X142295265Y-80749851D01*
X142142129Y-80861111D01*
X142015466Y-81001785D01*
X141920821Y-81165715D01*
X141920818Y-81165722D01*
X141862327Y-81345740D01*
X141862326Y-81345744D01*
X141842540Y-81534000D01*
X135547286Y-81534000D01*
X135536255Y-81505264D01*
X135369682Y-81178348D01*
X135361478Y-81165715D01*
X135169852Y-80870635D01*
X135009693Y-80672856D01*
X134938949Y-80585494D01*
X134679506Y-80326051D01*
X134625919Y-80282657D01*
X134394364Y-80095147D01*
X134086656Y-79895320D01*
X133759739Y-79728746D01*
X133417206Y-79597260D01*
X133417199Y-79597258D01*
X133062794Y-79502295D01*
X133062790Y-79502294D01*
X133062789Y-79502294D01*
X132700405Y-79444898D01*
X132334001Y-79425696D01*
X132333999Y-79425696D01*
X131967594Y-79444898D01*
X131605211Y-79502294D01*
X131605209Y-79502294D01*
X131250793Y-79597260D01*
X130908260Y-79728746D01*
X130581343Y-79895320D01*
X130273635Y-80095147D01*
X129988498Y-80326047D01*
X129988490Y-80326054D01*
X129729054Y-80585490D01*
X129729047Y-80585498D01*
X129498147Y-80870635D01*
X129298320Y-81178343D01*
X129131746Y-81505260D01*
X129000260Y-81847793D01*
X128905294Y-82202209D01*
X128905294Y-82202211D01*
X128847898Y-82564594D01*
X128828696Y-82930999D01*
X128828696Y-82931000D01*
X126985584Y-82931000D01*
X127368838Y-82129945D01*
X127873492Y-81165192D01*
X128412258Y-80219065D01*
X128984450Y-79292771D01*
X129589339Y-78387491D01*
X130226154Y-77504377D01*
X130844798Y-76708000D01*
X143112540Y-76708000D01*
X143132326Y-76896256D01*
X143132327Y-76896259D01*
X143190818Y-77076277D01*
X143190821Y-77076284D01*
X143285467Y-77240216D01*
X143412128Y-77380887D01*
X143412129Y-77380888D01*
X143565265Y-77492148D01*
X143565270Y-77492151D01*
X143738192Y-77569142D01*
X143738197Y-77569144D01*
X143923354Y-77608500D01*
X143923355Y-77608500D01*
X144112644Y-77608500D01*
X144112646Y-77608500D01*
X144297803Y-77569144D01*
X144470730Y-77492151D01*
X144623871Y-77380888D01*
X144750533Y-77240216D01*
X144845179Y-77076284D01*
X144903674Y-76896256D01*
X144923460Y-76708000D01*
X144903674Y-76519744D01*
X144845179Y-76339716D01*
X144750533Y-76175784D01*
X144623871Y-76035112D01*
X144623870Y-76035111D01*
X144470734Y-75923851D01*
X144470729Y-75923848D01*
X144297807Y-75846857D01*
X144297802Y-75846855D01*
X144152000Y-75815865D01*
X144112646Y-75807500D01*
X143923354Y-75807500D01*
X143915728Y-75809121D01*
X143738197Y-75846855D01*
X143738192Y-75846857D01*
X143565270Y-75923848D01*
X143565265Y-75923851D01*
X143412129Y-76035111D01*
X143285466Y-76175785D01*
X143190821Y-76339715D01*
X143190818Y-76339722D01*
X143147452Y-76473191D01*
X143132326Y-76519744D01*
X143112540Y-76708000D01*
X130844798Y-76708000D01*
X130894084Y-76644555D01*
X131592278Y-75809121D01*
X131925638Y-75438000D01*
X136254540Y-75438000D01*
X136274326Y-75626256D01*
X136274327Y-75626259D01*
X136332818Y-75806277D01*
X136332821Y-75806284D01*
X136427467Y-75970216D01*
X136485899Y-76035111D01*
X136554129Y-76110888D01*
X136707265Y-76222148D01*
X136707270Y-76222151D01*
X136880192Y-76299142D01*
X136880197Y-76299144D01*
X137065354Y-76338500D01*
X137065355Y-76338500D01*
X137254644Y-76338500D01*
X137254646Y-76338500D01*
X137439803Y-76299144D01*
X137612730Y-76222151D01*
X137765871Y-76110888D01*
X137892533Y-75970216D01*
X137987179Y-75806284D01*
X138045674Y-75626256D01*
X138065460Y-75438000D01*
X138045674Y-75249744D01*
X137987179Y-75069716D01*
X137892533Y-74905784D01*
X137765871Y-74765112D01*
X137765870Y-74765111D01*
X137612734Y-74653851D01*
X137612729Y-74653848D01*
X137439807Y-74576857D01*
X137439802Y-74576855D01*
X137294001Y-74545865D01*
X137254646Y-74537500D01*
X137065354Y-74537500D01*
X137032897Y-74544398D01*
X136880197Y-74576855D01*
X136880192Y-74576857D01*
X136707270Y-74653848D01*
X136707265Y-74653851D01*
X136554129Y-74765111D01*
X136427466Y-74905785D01*
X136332821Y-75069715D01*
X136332818Y-75069722D01*
X136288491Y-75206148D01*
X136274326Y-75249744D01*
X136254540Y-75438000D01*
X131925638Y-75438000D01*
X132319845Y-74999140D01*
X133075859Y-74215643D01*
X133859356Y-73459629D01*
X134669337Y-72732062D01*
X135504771Y-72033868D01*
X136364593Y-71365938D01*
X137247707Y-70729123D01*
X138152987Y-70124234D01*
X139079281Y-69552042D01*
X140025408Y-69013276D01*
X140990161Y-68508622D01*
X141972312Y-68038725D01*
X142970609Y-67604182D01*
X143983779Y-67205548D01*
X145010532Y-66843330D01*
X146049560Y-66517990D01*
X147099537Y-66229943D01*
X148159127Y-65979555D01*
X149226978Y-65767146D01*
X149355252Y-65746359D01*
X149424573Y-65755066D01*
G37*
%TD.AperFunction*%
%TD*%
D17*
X173087071Y-130809973D02*
G75*
G03*
X175119073Y-128778000I29J2031973D01*
G01*
X134281571Y-124064347D02*
G75*
G03*
X133039370Y-121386052I-3504871J1647D01*
G01*
X176351123Y-121296234D02*
G75*
G03*
X175119073Y-123962254I2268777J-2666166D01*
G01*
X134281619Y-124064347D02*
X134281619Y-128778000D01*
X173087071Y-130810000D02*
X136313619Y-130810002D01*
X175119073Y-123962254D02*
X175119073Y-128778000D01*
X188142262Y-95782046D02*
G75*
G03*
X121142262Y-95782046I-33500000J0D01*
G01*
X134281598Y-128778000D02*
G75*
G03*
X136313619Y-130810002I2032002J0D01*
G01*
X176351140Y-121296254D02*
G75*
G03*
X188142262Y-95782046I-21708920J25514224D01*
G01*
X121142261Y-95782046D02*
G75*
G03*
X133039370Y-121386051I33499989J-4D01*
G01*
M02*
