%TF.GenerationSoftware,KiCad,Pcbnew,8.0.4*%
%TF.CreationDate,2024-12-02T19:05:09+03:00*%
%TF.ProjectId,_____ __________,1f3b3042-3020-4433-9f40-30323b353d38,rev?*%
%TF.SameCoordinates,Original*%
%TF.FileFunction,Copper,L6,Bot*%
%TF.FilePolarity,Positive*%
%FSLAX46Y46*%
G04 Gerber Fmt 4.6, Leading zero omitted, Abs format (unit mm)*
G04 Created by KiCad (PCBNEW 8.0.4) date 2024-12-02 19:05:09*
%MOMM*%
%LPD*%
G01*
G04 APERTURE LIST*
G04 Aperture macros list*
%AMRoundRect*
0 Rectangle with rounded corners*
0 $1 Rounding radius*
0 $2 $3 $4 $5 $6 $7 $8 $9 X,Y pos of 4 corners*
0 Add a 4 corners polygon primitive as box body*
4,1,4,$2,$3,$4,$5,$6,$7,$8,$9,$2,$3,0*
0 Add four circle primitives for the rounded corners*
1,1,$1+$1,$2,$3*
1,1,$1+$1,$4,$5*
1,1,$1+$1,$6,$7*
1,1,$1+$1,$8,$9*
0 Add four rect primitives between the rounded corners*
20,1,$1+$1,$2,$3,$4,$5,0*
20,1,$1+$1,$4,$5,$6,$7,0*
20,1,$1+$1,$6,$7,$8,$9,0*
20,1,$1+$1,$8,$9,$2,$3,0*%
G04 Aperture macros list end*
%TA.AperFunction,ComponentPad*%
%ADD10C,1.524000*%
%TD*%
%TA.AperFunction,ComponentPad*%
%ADD11R,1.700000X1.700000*%
%TD*%
%TA.AperFunction,ComponentPad*%
%ADD12O,1.700000X1.700000*%
%TD*%
%TA.AperFunction,ComponentPad*%
%ADD13R,1.000000X1.000000*%
%TD*%
%TA.AperFunction,ComponentPad*%
%ADD14O,1.000000X1.000000*%
%TD*%
%TA.AperFunction,SMDPad,CuDef*%
%ADD15RoundRect,0.237500X-0.237500X0.250000X-0.237500X-0.250000X0.237500X-0.250000X0.237500X0.250000X0*%
%TD*%
%TA.AperFunction,SMDPad,CuDef*%
%ADD16RoundRect,0.237500X0.237500X-0.300000X0.237500X0.300000X-0.237500X0.300000X-0.237500X-0.300000X0*%
%TD*%
%TA.AperFunction,SMDPad,CuDef*%
%ADD17RoundRect,0.150000X-0.825000X-0.150000X0.825000X-0.150000X0.825000X0.150000X-0.825000X0.150000X0*%
%TD*%
%TA.AperFunction,SMDPad,CuDef*%
%ADD18RoundRect,0.237500X-0.300000X-0.237500X0.300000X-0.237500X0.300000X0.237500X-0.300000X0.237500X0*%
%TD*%
%TA.AperFunction,SMDPad,CuDef*%
%ADD19RoundRect,0.237500X0.300000X0.237500X-0.300000X0.237500X-0.300000X-0.237500X0.300000X-0.237500X0*%
%TD*%
%TA.AperFunction,SMDPad,CuDef*%
%ADD20RoundRect,0.150000X-0.150000X0.825000X-0.150000X-0.825000X0.150000X-0.825000X0.150000X0.825000X0*%
%TD*%
%TA.AperFunction,SMDPad,CuDef*%
%ADD21RoundRect,0.237500X-0.237500X0.300000X-0.237500X-0.300000X0.237500X-0.300000X0.237500X0.300000X0*%
%TD*%
%TA.AperFunction,SMDPad,CuDef*%
%ADD22RoundRect,0.249999X-2.450001X0.737501X-2.450001X-0.737501X2.450001X-0.737501X2.450001X0.737501X0*%
%TD*%
%TA.AperFunction,SMDPad,CuDef*%
%ADD23R,0.650000X1.560000*%
%TD*%
%TA.AperFunction,SMDPad,CuDef*%
%ADD24RoundRect,0.237500X0.250000X0.237500X-0.250000X0.237500X-0.250000X-0.237500X0.250000X-0.237500X0*%
%TD*%
%TA.AperFunction,SMDPad,CuDef*%
%ADD25RoundRect,0.250000X0.650000X-1.000000X0.650000X1.000000X-0.650000X1.000000X-0.650000X-1.000000X0*%
%TD*%
%TA.AperFunction,SMDPad,CuDef*%
%ADD26RoundRect,0.162500X-0.617500X-0.162500X0.617500X-0.162500X0.617500X0.162500X-0.617500X0.162500X0*%
%TD*%
%TA.AperFunction,SMDPad,CuDef*%
%ADD27RoundRect,0.237500X0.237500X-0.250000X0.237500X0.250000X-0.237500X0.250000X-0.237500X-0.250000X0*%
%TD*%
%TA.AperFunction,SMDPad,CuDef*%
%ADD28RoundRect,0.237500X-0.250000X-0.237500X0.250000X-0.237500X0.250000X0.237500X-0.250000X0.237500X0*%
%TD*%
%TA.AperFunction,SMDPad,CuDef*%
%ADD29RoundRect,0.250000X0.475000X-0.337500X0.475000X0.337500X-0.475000X0.337500X-0.475000X-0.337500X0*%
%TD*%
%TA.AperFunction,SMDPad,CuDef*%
%ADD30RoundRect,0.250000X-1.000000X-0.650000X1.000000X-0.650000X1.000000X0.650000X-1.000000X0.650000X0*%
%TD*%
%TA.AperFunction,SMDPad,CuDef*%
%ADD31RoundRect,0.250000X-0.337500X-0.475000X0.337500X-0.475000X0.337500X0.475000X-0.337500X0.475000X0*%
%TD*%
%TA.AperFunction,ViaPad*%
%ADD32C,0.800000*%
%TD*%
%TA.AperFunction,ViaPad*%
%ADD33C,1.200000*%
%TD*%
%TA.AperFunction,Conductor*%
%ADD34C,0.500000*%
%TD*%
%TA.AperFunction,Conductor*%
%ADD35C,0.300000*%
%TD*%
%TA.AperFunction,Conductor*%
%ADD36C,0.250000*%
%TD*%
%TA.AperFunction,Conductor*%
%ADD37C,1.000000*%
%TD*%
%ADD38C,0.350000*%
G04 APERTURE END LIST*
D10*
%TO.P,J11,1,Pin_1*%
%TO.N,CAN1L*%
X142178000Y-107696000D03*
%TD*%
D11*
%TO.P,J10,1,Pin_1*%
%TO.N,GND*%
X158750000Y-107696000D03*
D12*
%TO.P,J10,2,Pin_2*%
%TO.N,SWCLK*%
X161290000Y-107696000D03*
%TO.P,J10,3,Pin_3*%
%TO.N,SWDIO*%
X163830000Y-107696000D03*
%TO.P,J10,4,Pin_4*%
%TO.N,Net-(D13-A)*%
X166370000Y-107696000D03*
%TD*%
D13*
%TO.P,J16,1,Pin_1*%
%TO.N,OUT_MCU*%
X133590000Y-59600000D03*
D14*
%TO.P,J16,2,Pin_2*%
%TO.N,Current_C_MCU*%
X133590000Y-60870000D03*
%TO.P,J16,3,Pin_3*%
%TO.N,Temp_Coil_B_MCU*%
X134860000Y-59600000D03*
%TO.P,J16,4,Pin_4*%
%TO.N,Current_B_MCU*%
X134860000Y-60870000D03*
%TO.P,J16,5,Pin_5*%
%TO.N,Temp_Coil_A_MCU*%
X136130000Y-59600000D03*
%TO.P,J16,6,Pin_6*%
%TO.N,Current_A_MCU*%
X136130000Y-60870000D03*
%TO.P,J16,7,Pin_7*%
%TO.N,GNDA*%
X137400000Y-59600000D03*
%TO.P,J16,8,Pin_8*%
%TO.N,NTC_A+*%
X137400000Y-60870000D03*
%TO.P,J16,9,Pin_9*%
%TO.N,GNDA*%
X138670000Y-59600000D03*
%TO.P,J16,10,Pin_10*%
%TO.N,NTC_A+*%
X138670000Y-60870000D03*
%TD*%
D13*
%TO.P,J8,1,Pin_1*%
%TO.N,unconnected-(J8-Pin_1-Pad1)*%
X174387000Y-85979000D03*
D14*
%TO.P,J8,2,Pin_2*%
%TO.N,unconnected-(J8-Pin_2-Pad2)*%
X174387000Y-87249000D03*
%TD*%
D10*
%TO.P,J5,1,Pin_1*%
%TO.N,CAN1H*%
X139178000Y-107696000D03*
%TD*%
%TO.P,J14,1,Pin_1*%
%TO.N,CAN1L*%
X151178000Y-107696000D03*
%TD*%
%TO.P,J13,1,Pin_1*%
%TO.N,CAN1H*%
X154178000Y-107696000D03*
%TD*%
D13*
%TO.P,J6,1,Pin_1*%
%TO.N,unconnected-(J6-Pin_1-Pad1)*%
X124714000Y-85979000D03*
D14*
%TO.P,J6,2,Pin_2*%
%TO.N,unconnected-(J6-Pin_2-Pad2)*%
X124714000Y-87249000D03*
%TD*%
D10*
%TO.P,J15,1,Pin_1*%
%TO.N,GND*%
X145178000Y-107696000D03*
%TD*%
%TO.P,J12,1,Pin_1*%
%TO.N,GND*%
X148178000Y-107696000D03*
%TD*%
D15*
%TO.P,R1,1*%
%TO.N,LI_A*%
X172500000Y-67587500D03*
%TO.P,R1,2*%
%TO.N,Net-(D6-LI)*%
X172500000Y-69412500D03*
%TD*%
D16*
%TO.P,C25,1*%
%TO.N,Net-(D6-LI)*%
X171000000Y-69362500D03*
%TO.P,C25,2*%
%TO.N,GND*%
X171000000Y-67637500D03*
%TD*%
D17*
%TO.P,U5,1,-*%
%TO.N,Shunt-*%
X157775000Y-88655000D03*
%TO.P,U5,2,GND*%
%TO.N,GND*%
X157775000Y-87385000D03*
%TO.P,U5,3,REF2*%
X157775000Y-86115000D03*
%TO.P,U5,4,NC*%
%TO.N,unconnected-(U5-NC-Pad4)*%
X157775000Y-84845000D03*
%TO.P,U5,5*%
%TO.N,Net-(R16-Pad2)*%
X162725000Y-84845000D03*
%TO.P,U5,6,V+*%
%TO.N,+3.3V*%
X162725000Y-86115000D03*
%TO.P,U5,7,REF1*%
%TO.N,GND*%
X162725000Y-87385000D03*
%TO.P,U5,8,+*%
%TO.N,Shunt+*%
X162725000Y-88655000D03*
%TD*%
D18*
%TO.P,C30,1*%
%TO.N,Net-(U7-VCAP_1)*%
X141377500Y-76962000D03*
%TO.P,C30,2*%
%TO.N,GND*%
X143102500Y-76962000D03*
%TD*%
D19*
%TO.P,C21,1*%
%TO.N,+3.3V*%
X156564500Y-65532000D03*
%TO.P,C21,2*%
%TO.N,GND*%
X154839500Y-65532000D03*
%TD*%
D20*
%TO.P,D6,1,HI*%
%TO.N,Net-(D6-HI)*%
X169595000Y-71525000D03*
%TO.P,D6,2,LI*%
%TO.N,Net-(D6-LI)*%
X170865000Y-71525000D03*
%TO.P,D6,3,GND*%
%TO.N,GND*%
X172135000Y-71525000D03*
%TO.P,D6,4,LO*%
%TO.N,Net-(D6-LO)*%
X173405000Y-71525000D03*
%TO.P,D6,5,VDD*%
%TO.N,+12V*%
X173405000Y-76475000D03*
%TO.P,D6,6,SW*%
%TO.N,A*%
X172135000Y-76475000D03*
%TO.P,D6,7,HO*%
%TO.N,Net-(D6-HO)*%
X170865000Y-76475000D03*
%TO.P,D6,8,BST*%
%TO.N,Net-(D1-K)*%
X169595000Y-76475000D03*
%TD*%
D19*
%TO.P,C16,1*%
%TO.N,GND*%
X151230500Y-56134000D03*
%TO.P,C16,2*%
%TO.N,+3.3V*%
X149505500Y-56134000D03*
%TD*%
D17*
%TO.P,D10,1,HI*%
%TO.N,Net-(D10-HI)*%
X147275000Y-52905000D03*
%TO.P,D10,2,LI*%
%TO.N,Net-(D10-LI)*%
X147275000Y-51635000D03*
%TO.P,D10,3,GND*%
%TO.N,GND*%
X147275000Y-50365000D03*
%TO.P,D10,4,LO*%
%TO.N,Net-(D10-LO)*%
X147275000Y-49095000D03*
%TO.P,D10,5,VDD*%
%TO.N,+12V*%
X152225000Y-49095000D03*
%TO.P,D10,6,SW*%
%TO.N,B*%
X152225000Y-50365000D03*
%TO.P,D10,7,HO*%
%TO.N,Net-(D10-HO)*%
X152225000Y-51635000D03*
%TO.P,D10,8,BST*%
%TO.N,Net-(D10-BST)*%
X152225000Y-52905000D03*
%TD*%
D21*
%TO.P,C26,1*%
%TO.N,GND*%
X169500000Y-67637500D03*
%TO.P,C26,2*%
%TO.N,Net-(D6-HI)*%
X169500000Y-69362500D03*
%TD*%
D19*
%TO.P,C50,1*%
%TO.N,NTC_A+*%
X130062500Y-73000000D03*
%TO.P,C50,2*%
%TO.N,GNDA*%
X128337500Y-73000000D03*
%TD*%
D22*
%TO.P,L2,1*%
%TO.N,Net-(D8-K)*%
X131445000Y-89437500D03*
%TO.P,L2,2*%
%TO.N,+3.3V*%
X131445000Y-94712500D03*
%TD*%
D23*
%TO.P,U4,1*%
%TO.N,Net-(R15-Pad1)*%
X165989000Y-93947000D03*
%TO.P,U4,2,V-*%
%TO.N,GND*%
X166939000Y-93947000D03*
%TO.P,U4,3,+*%
%TO.N,Net-(U4-+)*%
X167889000Y-93947000D03*
%TO.P,U4,4,-*%
%TO.N,Net-(U4--)*%
X167889000Y-96647000D03*
%TO.P,U4,5,V+*%
%TO.N,+3.3V*%
X165989000Y-96647000D03*
%TD*%
D18*
%TO.P,C19,1*%
%TO.N,+3.3V*%
X142393500Y-78486000D03*
%TO.P,C19,2*%
%TO.N,GND*%
X144118500Y-78486000D03*
%TD*%
D19*
%TO.P,C43,1*%
%TO.N,NTC_A+*%
X162862500Y-56200000D03*
%TO.P,C43,2*%
%TO.N,GNDA*%
X161137500Y-56200000D03*
%TD*%
D24*
%TO.P,R16,1*%
%TO.N,Net-(U4-+)*%
X166662500Y-84750000D03*
%TO.P,R16,2*%
%TO.N,Net-(R16-Pad2)*%
X164837500Y-84750000D03*
%TD*%
D25*
%TO.P,D2,1,K*%
%TO.N,Net-(D10-BST)*%
X157353000Y-51911000D03*
%TO.P,D2,2,A*%
%TO.N,+12V*%
X157353000Y-47911000D03*
%TD*%
D21*
%TO.P,C20,1*%
%TO.N,+3.3V*%
X146558000Y-63399500D03*
%TO.P,C20,2*%
%TO.N,GND*%
X146558000Y-65124500D03*
%TD*%
D26*
%TO.P,U2,1,+*%
%TO.N,NTC_C-*%
X127850000Y-71350000D03*
%TO.P,U2,2,V-*%
%TO.N,GNDA*%
X127850000Y-70400000D03*
%TO.P,U2,3,-*%
%TO.N,Net-(U2--)*%
X127850000Y-69450000D03*
%TO.P,U2,4*%
X130550000Y-69450000D03*
%TO.P,U2,5,V+*%
%TO.N,NTC_A+*%
X130550000Y-71350000D03*
%TD*%
D18*
%TO.P,C51,1*%
%TO.N,PCB_Temp_C_MCU*%
X134137500Y-71000000D03*
%TO.P,C51,2*%
%TO.N,GNDA*%
X135862500Y-71000000D03*
%TD*%
D21*
%TO.P,C9,1*%
%TO.N,PWM_BKIN*%
X164145000Y-97228500D03*
%TO.P,C9,2*%
%TO.N,GND*%
X164145000Y-98953500D03*
%TD*%
D27*
%TO.P,R14,1*%
%TO.N,Net-(U4--)*%
X169545000Y-95908500D03*
%TO.P,R14,2*%
%TO.N,GND*%
X169545000Y-94083500D03*
%TD*%
D16*
%TO.P,C33,1*%
%TO.N,+3.3V*%
X132800000Y-75592500D03*
%TO.P,C33,2*%
%TO.N,GND*%
X132800000Y-73867500D03*
%TD*%
D28*
%TO.P,R3,1*%
%TO.N,HI_B*%
X143337500Y-54500000D03*
%TO.P,R3,2*%
%TO.N,Net-(D10-HI)*%
X145162500Y-54500000D03*
%TD*%
D16*
%TO.P,C31,1*%
%TO.N,Net-(U7-VCAP_2)*%
X153924000Y-79856500D03*
%TO.P,C31,2*%
%TO.N,GND*%
X153924000Y-78131500D03*
%TD*%
D18*
%TO.P,C22,1*%
%TO.N,+3.3V*%
X140869500Y-66548000D03*
%TO.P,C22,2*%
%TO.N,GND*%
X142594500Y-66548000D03*
%TD*%
D13*
%TO.P,J7,1,Pin_1*%
%TO.N,unconnected-(J7-Pin_1-Pad1)*%
X120142000Y-66421000D03*
D14*
%TO.P,J7,2,Pin_2*%
%TO.N,unconnected-(J7-Pin_2-Pad2)*%
X120142000Y-67691000D03*
%TO.P,J7,3,Pin_3*%
%TO.N,G4*%
X120142000Y-68961000D03*
%TO.P,J7,4,Pin_4*%
%TO.N,GND*%
X120142000Y-70231000D03*
%TO.P,J7,5,Pin_5*%
%TO.N,G6*%
X120142000Y-71501000D03*
%TO.P,J7,6,Pin_6*%
%TO.N,GND*%
X120142000Y-72771000D03*
%TO.P,J7,7,Pin_7*%
%TO.N,NTC_A+*%
X120142000Y-74041000D03*
%TO.P,J7,8,Pin_8*%
%TO.N,NTC_C-*%
X120142000Y-75311000D03*
%TO.P,J7,9,Pin_9*%
%TO.N,G5*%
X120142000Y-76581000D03*
%TO.P,J7,10,Pin_10*%
%TO.N,C*%
X120142000Y-77851000D03*
%TD*%
D21*
%TO.P,C23,1*%
%TO.N,+3.3V*%
X152400000Y-63399500D03*
%TO.P,C23,2*%
%TO.N,GND*%
X152400000Y-65124500D03*
%TD*%
D16*
%TO.P,C18,1*%
%TO.N,+3.3V*%
X155702000Y-78078500D03*
%TO.P,C18,2*%
%TO.N,GND*%
X155702000Y-76353500D03*
%TD*%
D27*
%TO.P,R22,1*%
%TO.N,+3.3V*%
X148336000Y-65174500D03*
%TO.P,R22,2*%
%TO.N,NRST*%
X148336000Y-63349500D03*
%TD*%
D29*
%TO.P,C5,1*%
%TO.N,Net-(D10-BST)*%
X154500000Y-52537500D03*
%TO.P,C5,2*%
%TO.N,B*%
X154500000Y-50462500D03*
%TD*%
D30*
%TO.P,D1,1,K*%
%TO.N,Net-(D1-K)*%
X171482000Y-81788000D03*
%TO.P,D1,2,A*%
%TO.N,+12V*%
X175482000Y-81788000D03*
%TD*%
D15*
%TO.P,R25,1*%
%TO.N,GNDA*%
X124400000Y-70175000D03*
%TO.P,R25,2*%
%TO.N,NTC_C-*%
X124400000Y-72000000D03*
%TD*%
D31*
%TO.P,C4,1*%
%TO.N,Net-(D1-K)*%
X169712500Y-78750000D03*
%TO.P,C4,2*%
%TO.N,A*%
X171787500Y-78750000D03*
%TD*%
D13*
%TO.P,J9,1,Pin_1*%
%TO.N,Shunt-*%
X158369000Y-91186000D03*
D14*
%TO.P,J9,2,Pin_2*%
%TO.N,Shunt+*%
X159639000Y-91186000D03*
%TO.P,J9,3,Pin_3*%
%TO.N,+24V*%
X160909000Y-91186000D03*
%TO.P,J9,4,Pin_4*%
%TO.N,GND*%
X162179000Y-91186000D03*
%TD*%
D28*
%TO.P,R13,1*%
%TO.N,+3.3V*%
X166026500Y-98599000D03*
%TO.P,R13,2*%
%TO.N,Net-(U4--)*%
X167851500Y-98599000D03*
%TD*%
D21*
%TO.P,C17,1*%
%TO.N,+3.3V*%
X150114000Y-63399500D03*
%TO.P,C17,2*%
%TO.N,GND*%
X150114000Y-65124500D03*
%TD*%
D15*
%TO.P,R15,1*%
%TO.N,Net-(R15-Pad1)*%
X164145000Y-93622500D03*
%TO.P,R15,2*%
%TO.N,PWM_BKIN*%
X164145000Y-95447500D03*
%TD*%
D19*
%TO.P,C8,1*%
%TO.N,+3.3V*%
X161112500Y-83250000D03*
%TO.P,C8,2*%
%TO.N,GND*%
X159387500Y-83250000D03*
%TD*%
D28*
%TO.P,R4,1*%
%TO.N,LI_B*%
X143337500Y-50000000D03*
%TO.P,R4,2*%
%TO.N,Net-(D10-LI)*%
X145162500Y-50000000D03*
%TD*%
D19*
%TO.P,C28,1*%
%TO.N,Net-(D10-LI)*%
X145112500Y-51500000D03*
%TO.P,C28,2*%
%TO.N,GND*%
X143387500Y-51500000D03*
%TD*%
D13*
%TO.P,J4,1,Pin_1*%
%TO.N,NTC_B-*%
X178896000Y-66421000D03*
D14*
%TO.P,J4,2,Pin_2*%
%TO.N,NTC_A+*%
X178896000Y-67691000D03*
%TO.P,J4,3,Pin_3*%
%TO.N,G3*%
X178896000Y-68961000D03*
%TO.P,J4,4,Pin_4*%
%TO.N,B*%
X178896000Y-70231000D03*
%TO.P,J4,5,Pin_5*%
%TO.N,G2*%
X178896000Y-71501000D03*
%TO.P,J4,6,Pin_6*%
%TO.N,GND*%
X178896000Y-72771000D03*
%TO.P,J4,7,Pin_7*%
%TO.N,NTC_A+*%
X178896000Y-74041000D03*
%TO.P,J4,8,Pin_8*%
%TO.N,NTC_A-*%
X178896000Y-75311000D03*
%TO.P,J4,9,Pin_9*%
%TO.N,G1*%
X178896000Y-76581000D03*
%TO.P,J4,10,Pin_10*%
%TO.N,A*%
X178896000Y-77851000D03*
%TD*%
D15*
%TO.P,R2,1*%
%TO.N,HI_A*%
X168000000Y-67587500D03*
%TO.P,R2,2*%
%TO.N,Net-(D6-HI)*%
X168000000Y-69412500D03*
%TD*%
D19*
%TO.P,C10,1*%
%TO.N,Net-(U4-+)*%
X166612500Y-86250000D03*
%TO.P,C10,2*%
%TO.N,GND*%
X164887500Y-86250000D03*
%TD*%
D18*
%TO.P,C27,1*%
%TO.N,GND*%
X143387500Y-53000000D03*
%TO.P,C27,2*%
%TO.N,Net-(D10-HI)*%
X145112500Y-53000000D03*
%TD*%
D15*
%TO.P,R19,1*%
%TO.N,Net-(U2--)*%
X132400000Y-69087500D03*
%TO.P,R19,2*%
%TO.N,PCB_Temp_C_MCU*%
X132400000Y-70912500D03*
%TD*%
D22*
%TO.P,L1,1*%
%TO.N,Net-(D7-K)*%
X160250000Y-94112500D03*
%TO.P,L1,2*%
%TO.N,+12V*%
X160250000Y-99387500D03*
%TD*%
D16*
%TO.P,C3,1*%
%TO.N,+12V*%
X125750000Y-76112500D03*
%TO.P,C3,2*%
%TO.N,GND*%
X125750000Y-74387500D03*
%TD*%
D21*
%TO.P,C47,1*%
%TO.N,GNDA*%
X126000000Y-70137500D03*
%TO.P,C47,2*%
%TO.N,NTC_C-*%
X126000000Y-71862500D03*
%TD*%
D32*
%TO.N,GND*%
X135200000Y-68600000D03*
X156337000Y-103759000D03*
X160782000Y-67564000D03*
X149098000Y-70358000D03*
X171000000Y-66500000D03*
X127115000Y-73000000D03*
X147828000Y-70358000D03*
X164211000Y-100203000D03*
X147066000Y-60020000D03*
X129750000Y-66500000D03*
X150368000Y-72898000D03*
X153162000Y-59182000D03*
X131605686Y-86902231D03*
X165862000Y-92202000D03*
X143975000Y-53018030D03*
X142250000Y-51500000D03*
X168137500Y-73637500D03*
X168783000Y-89662000D03*
X155862500Y-84887500D03*
X132930331Y-72130331D03*
X149098000Y-72898000D03*
X170850000Y-93980000D03*
X149098000Y-71628000D03*
X172135000Y-72885000D03*
X153162000Y-56262564D03*
X153162000Y-60960000D03*
X148635000Y-50365000D03*
X150368000Y-71628000D03*
X150368000Y-70358000D03*
X158177000Y-83250000D03*
X147828000Y-72898000D03*
X167909500Y-83090500D03*
X147828000Y-71628000D03*
X128250000Y-66500000D03*
%TO.N,A*%
X172807951Y-78707207D03*
%TO.N,C*%
X126250000Y-79000000D03*
%TO.N,+24V*%
X135382000Y-79248000D03*
%TO.N,+12V*%
X173250000Y-77750000D03*
X153750000Y-49000000D03*
X125845000Y-78000000D03*
X141986000Y-97028000D03*
X140081000Y-89027000D03*
%TO.N,SWCLK*%
X159639000Y-79629000D03*
%TO.N,SWDIO*%
X161036000Y-80899000D03*
%TO.N,+3.3V*%
X131572000Y-92072000D03*
X165994729Y-99790084D03*
X165354000Y-95377000D03*
X139700000Y-66040000D03*
X155702000Y-79248000D03*
X157988000Y-65532000D03*
X133731000Y-77470000D03*
X163415041Y-82456959D03*
X152400000Y-62230000D03*
X146490686Y-61913772D03*
X128000000Y-94250000D03*
X150749000Y-62230000D03*
X155887500Y-86612500D03*
X166370000Y-101092000D03*
X141986000Y-57404000D03*
X141224000Y-78486000D03*
X147320000Y-56134000D03*
X168137500Y-75362500D03*
%TO.N,NRST*%
X147701000Y-62103000D03*
%TO.N,Temp_Coil_B_MCU*%
X138938000Y-62484000D03*
%TO.N,EEPROM_MISO_MCU*%
X163865000Y-76385000D03*
X158625323Y-75287754D03*
%TO.N,Net-(U7-VCAP_1)*%
X140014091Y-76990458D03*
%TO.N,Net-(U7-VCAP_2)*%
X154686000Y-81026000D03*
%TO.N,Net-(D7-K)*%
X156750000Y-93250000D03*
%TO.N,Net-(D8-K)*%
X138000000Y-104250000D03*
%TO.N,Net-(D6-HO)*%
X175250000Y-75250000D03*
%TO.N,Net-(D6-LO)*%
X174250000Y-71500000D03*
%TO.N,Net-(D10-LO)*%
X124750000Y-69000000D03*
X145250000Y-48750000D03*
%TO.N,Net-(D10-HO)*%
X174250000Y-69000000D03*
X150865000Y-51943000D03*
%TO.N,LI_A*%
X173412500Y-67587500D03*
X139827000Y-71374000D03*
%TO.N,HI_A*%
X169500000Y-66000000D03*
X138892440Y-72308250D03*
%TO.N,HI_B*%
X137933323Y-73872045D03*
X141750000Y-53000000D03*
%TO.N,LI_B*%
X142250000Y-50000000D03*
X138000000Y-72800000D03*
%TO.N,HI_C*%
X138505571Y-75752785D03*
X132087500Y-67587500D03*
%TO.N,LI_C*%
X138395442Y-74758865D03*
X125912500Y-67587500D03*
%TO.N,NTC_A+*%
X162000000Y-54800000D03*
X144526000Y-62230000D03*
X167640000Y-71882000D03*
X130062500Y-73937500D03*
%TO.N,PWM_BKIN*%
X163220500Y-97228500D03*
X139400000Y-76200000D03*
%TO.N,GNDA*%
X164200000Y-68000000D03*
X169969367Y-73591926D03*
X145542000Y-62230000D03*
X136600000Y-72600000D03*
X173586598Y-69748267D03*
X159800000Y-56200000D03*
X128700000Y-73900000D03*
%TO.N,PCB_Temp_A_MCU*%
X163200000Y-70800000D03*
X142367000Y-63627000D03*
%TO.N,PCB_Temp_B_MCU*%
X141439000Y-64897000D03*
X159400000Y-54000000D03*
%TO.N,PCB_Temp_C_MCU*%
X139192000Y-70358000D03*
X133800000Y-69600000D03*
D33*
%TO.N,DAC_OUT1*%
X137541000Y-64516000D03*
%TD*%
D34*
%TO.N,GND*%
X126250000Y-73000000D02*
X127115000Y-73000000D01*
D35*
X164145000Y-100137000D02*
X164211000Y-100203000D01*
D36*
X151230500Y-56134000D02*
X153033436Y-56134000D01*
D35*
X166116000Y-92202000D02*
X165862000Y-92202000D01*
X169418000Y-94361000D02*
X169418000Y-94083500D01*
D34*
X172135000Y-72885000D02*
X172135000Y-71525000D01*
X163752500Y-87385000D02*
X164887500Y-86250000D01*
X162725000Y-87385000D02*
X163752500Y-87385000D01*
D35*
X169418000Y-94083500D02*
X170746500Y-94083500D01*
D34*
X125750000Y-74387500D02*
X125750000Y-73500000D01*
X171000000Y-67637500D02*
X171000000Y-66500000D01*
X148635000Y-50365000D02*
X147275000Y-50365000D01*
X125750000Y-73500000D02*
X126250000Y-73000000D01*
D35*
X166939000Y-93947000D02*
X166939000Y-93025000D01*
D34*
X159387500Y-85477499D02*
X158749999Y-86115000D01*
D35*
X132800000Y-72260662D02*
X132930331Y-72130331D01*
D34*
X143387500Y-53000000D02*
X143387500Y-51500000D01*
X171000000Y-67637500D02*
X169500000Y-67637500D01*
D36*
X153033436Y-56134000D02*
X153162000Y-56262564D01*
D35*
X132800000Y-73867500D02*
X132800000Y-72260662D01*
D34*
X157775000Y-87385000D02*
X157775000Y-86115000D01*
D35*
X166939000Y-93025000D02*
X166116000Y-92202000D01*
X170746500Y-94083500D02*
X170850000Y-93980000D01*
D34*
X143387500Y-51500000D02*
X142250000Y-51500000D01*
X158177000Y-83250000D02*
X159387500Y-83250000D01*
X158749999Y-86115000D02*
X157775000Y-86115000D01*
X162725000Y-87385000D02*
X157775000Y-87385000D01*
X159387500Y-83250000D02*
X159387500Y-85477499D01*
D36*
X147066000Y-60020000D02*
X147066000Y-60044500D01*
D35*
X164145000Y-98953500D02*
X164145000Y-100137000D01*
D34*
%TO.N,A*%
X172135000Y-76475000D02*
X172135000Y-78402500D01*
X172135000Y-78402500D02*
X171787500Y-78750000D01*
X172765158Y-78750000D02*
X171787500Y-78750000D01*
X172807951Y-78707207D02*
X172765158Y-78750000D01*
%TO.N,B*%
X166592240Y-60294318D02*
X166592240Y-58007240D01*
X155051500Y-49911000D02*
X154500000Y-50462500D01*
X178896000Y-70231000D02*
X178822497Y-70231000D01*
X175133000Y-66548000D02*
X171808250Y-63223250D01*
X152225000Y-50365000D02*
X154402500Y-50365000D01*
X158496000Y-49911000D02*
X155051500Y-49911000D01*
X178822497Y-70231000D02*
X175139497Y-66548000D01*
X166592240Y-58007240D02*
X158496000Y-49911000D01*
X169521172Y-63223250D02*
X166592240Y-60294318D01*
X175139497Y-66548000D02*
X175133000Y-66548000D01*
X171808250Y-63223250D02*
X169521172Y-63223250D01*
X154402500Y-50365000D02*
X154500000Y-50462500D01*
%TO.N,C*%
X121291000Y-79000000D02*
X126250000Y-79000000D01*
X120142000Y-77851000D02*
X121291000Y-79000000D01*
%TO.N,+12V*%
X125750000Y-76112500D02*
X125750000Y-77905000D01*
X157353000Y-47911000D02*
X154839000Y-47911000D01*
X153655000Y-49095000D02*
X153750000Y-49000000D01*
X173250000Y-77750000D02*
X173405000Y-77595000D01*
D37*
X140081000Y-89027000D02*
X140081000Y-89219000D01*
D34*
X152225000Y-49095000D02*
X153655000Y-49095000D01*
D37*
X140081000Y-89219000D02*
X150249500Y-99387500D01*
X150249500Y-99387500D02*
X160250000Y-99387500D01*
D34*
X175982000Y-80482000D02*
X175982000Y-81788000D01*
X173405000Y-77595000D02*
X173405000Y-76475000D01*
X173250000Y-77750000D02*
X175982000Y-80482000D01*
X125750000Y-77905000D02*
X125845000Y-78000000D01*
X154839000Y-47911000D02*
X153750000Y-49000000D01*
%TO.N,Net-(D1-K)*%
X171482000Y-81788000D02*
X170763000Y-81788000D01*
X170763000Y-81788000D02*
X169712500Y-80737500D01*
X171482000Y-81788000D02*
X170738000Y-81788000D01*
X169712500Y-78750000D02*
X169712500Y-80737500D01*
X169595000Y-76475000D02*
X169595000Y-78632500D01*
X169595000Y-78632500D02*
X169712500Y-78750000D01*
%TO.N,Net-(D10-BST)*%
X156487500Y-52537500D02*
X156500000Y-52550000D01*
X154500000Y-52537500D02*
X156487500Y-52537500D01*
X152225000Y-52905000D02*
X154132500Y-52905000D01*
X154132500Y-52905000D02*
X154500000Y-52537500D01*
D35*
%TO.N,Shunt+*%
X160500000Y-89762106D02*
X160500000Y-89000000D01*
X160500000Y-89000000D02*
X160845000Y-88655000D01*
X160845000Y-88655000D02*
X162725000Y-88655000D01*
X159639000Y-90623106D02*
X160500000Y-89762106D01*
X159639000Y-91186000D02*
X159639000Y-90623106D01*
%TO.N,Shunt-*%
X160000000Y-89555000D02*
X160000000Y-89000000D01*
X158369000Y-91186000D02*
X160000000Y-89555000D01*
X160000000Y-89000000D02*
X159655000Y-88655000D01*
X159655000Y-88655000D02*
X157775000Y-88655000D01*
D36*
%TO.N,+3.3V*%
X152400000Y-63145500D02*
X152146000Y-63399500D01*
X140208000Y-66548000D02*
X140869500Y-66548000D01*
D34*
X161112500Y-83250000D02*
X162622000Y-83250000D01*
X161750001Y-86115000D02*
X162725000Y-86115000D01*
X161112500Y-83250000D02*
X161112500Y-85477499D01*
D37*
X128462500Y-94712500D02*
X128000000Y-94250000D01*
D36*
X146558000Y-63399500D02*
X146561000Y-63399500D01*
D35*
X165989000Y-96647000D02*
X165989000Y-96012000D01*
X166026500Y-99758313D02*
X165994729Y-99790084D01*
D34*
X161112500Y-85477499D02*
X161750001Y-86115000D01*
D36*
X157988000Y-65532000D02*
X156564500Y-65532000D01*
D35*
X133731000Y-77470000D02*
X132800000Y-76539000D01*
D36*
X150114000Y-62865000D02*
X150114000Y-63399500D01*
X149505500Y-56134000D02*
X147320000Y-56134000D01*
D34*
X165989000Y-98561500D02*
X166026500Y-98599000D01*
D36*
X146541503Y-61964589D02*
X146541503Y-63383003D01*
D34*
X162622000Y-83250000D02*
X163415041Y-82456959D01*
D36*
X146490686Y-61913772D02*
X146541503Y-61964589D01*
D37*
X131445000Y-94712500D02*
X131572000Y-94585500D01*
D36*
X146561000Y-63399500D02*
X148336000Y-65174500D01*
X155702000Y-78078500D02*
X155702000Y-79248000D01*
D35*
X141224000Y-78486000D02*
X142393500Y-78486000D01*
X165989000Y-96012000D02*
X165354000Y-95377000D01*
D36*
X139700000Y-66040000D02*
X140208000Y-66548000D01*
D35*
X132800000Y-76539000D02*
X132800000Y-75592500D01*
D36*
X150749000Y-62230000D02*
X150114000Y-62865000D01*
D37*
X131445000Y-94712500D02*
X128462500Y-94712500D01*
D36*
X152400000Y-62230000D02*
X152400000Y-63399500D01*
D35*
X166026500Y-98599000D02*
X166026500Y-99758313D01*
D36*
%TO.N,NRST*%
X147701000Y-62103000D02*
X148336000Y-62738000D01*
X148336000Y-62738000D02*
X148336000Y-63349500D01*
D35*
%TO.N,Temp_Coil_B_MCU*%
X132816000Y-58674000D02*
X134364000Y-58674000D01*
X132334000Y-61468000D02*
X132334000Y-59156000D01*
X133350000Y-62484000D02*
X132334000Y-61468000D01*
X134364000Y-58674000D02*
X134860000Y-59170000D01*
X138938000Y-62484000D02*
X133350000Y-62484000D01*
X134860000Y-59170000D02*
X134860000Y-59600000D01*
X132334000Y-59156000D02*
X132816000Y-58674000D01*
D34*
%TO.N,Net-(R16-Pad2)*%
X162725000Y-84845000D02*
X164742500Y-84845000D01*
X164742500Y-84845000D02*
X164837500Y-84750000D01*
D35*
%TO.N,EEPROM_MISO_MCU*%
X162767754Y-75287754D02*
X163865000Y-76385000D01*
X158625323Y-75287754D02*
X162767754Y-75287754D01*
%TO.N,Net-(U4-+)*%
X166662500Y-84750000D02*
X166662500Y-86200000D01*
X167889000Y-87526500D02*
X166612500Y-86250000D01*
X167889000Y-93947000D02*
X167889000Y-87526500D01*
X166662500Y-86200000D02*
X166612500Y-86250000D01*
%TO.N,Net-(U7-VCAP_1)*%
X141349042Y-76990458D02*
X141377500Y-76962000D01*
X140014091Y-76990458D02*
X141349042Y-76990458D01*
D36*
%TO.N,Net-(U7-VCAP_2)*%
X154686000Y-81026000D02*
X153924000Y-80264000D01*
X153924000Y-80264000D02*
X153924000Y-79856500D01*
D37*
%TO.N,Net-(D7-K)*%
X157612500Y-94112500D02*
X156750000Y-93250000D01*
X160250000Y-94112500D02*
X157612500Y-94112500D01*
%TO.N,Net-(D8-K)*%
X135437500Y-89437500D02*
X138000000Y-92000000D01*
X138000000Y-92000000D02*
X138000000Y-104250000D01*
X131445000Y-89437500D02*
X135437500Y-89437500D01*
D35*
%TO.N,Net-(U4--)*%
X167889000Y-96647000D02*
X168806500Y-96647000D01*
X167889000Y-98561500D02*
X167851500Y-98599000D01*
X167889000Y-96647000D02*
X167889000Y-98561500D01*
X168806500Y-96647000D02*
X169545000Y-95908500D01*
%TO.N,Net-(R15-Pad1)*%
X165664500Y-93622500D02*
X165989000Y-93947000D01*
X164145000Y-93622500D02*
X165664500Y-93622500D01*
D34*
%TO.N,Net-(D6-LI)*%
X170865000Y-69497500D02*
X171000000Y-69362500D01*
X171000000Y-69362500D02*
X172450000Y-69362500D01*
X170865000Y-71525000D02*
X170865000Y-69497500D01*
X172450000Y-69362500D02*
X172500000Y-69412500D01*
%TO.N,Net-(D6-HI)*%
X169595000Y-69457500D02*
X169500000Y-69362500D01*
X168050000Y-69362500D02*
X168000000Y-69412500D01*
X169500000Y-69362500D02*
X168050000Y-69362500D01*
X169595000Y-71525000D02*
X169595000Y-69457500D01*
%TO.N,Net-(D10-HI)*%
X145112500Y-54450000D02*
X145162500Y-54500000D01*
X145112500Y-53000000D02*
X145112500Y-54450000D01*
X147275000Y-52905000D02*
X145207500Y-52905000D01*
X145207500Y-52905000D02*
X145112500Y-53000000D01*
%TO.N,Net-(D10-LI)*%
X147275000Y-51635000D02*
X145247500Y-51635000D01*
X145247500Y-51635000D02*
X145112500Y-51500000D01*
X145112500Y-50050000D02*
X145162500Y-50000000D01*
X145112500Y-51500000D02*
X145112500Y-50050000D01*
%TO.N,Net-(D6-HO)*%
X170865000Y-75135000D02*
X171750000Y-74250000D01*
X170865000Y-76475000D02*
X170865000Y-75135000D01*
X171750000Y-74250000D02*
X174250000Y-74250000D01*
X174250000Y-74250000D02*
X175250000Y-75250000D01*
%TO.N,Net-(D6-LO)*%
X174225000Y-71525000D02*
X174250000Y-71500000D01*
X173405000Y-71525000D02*
X174225000Y-71525000D01*
%TO.N,Net-(D10-LO)*%
X146095000Y-49095000D02*
X145750000Y-48750000D01*
X147275000Y-49095000D02*
X146095000Y-49095000D01*
X145750000Y-48750000D02*
X145250000Y-48750000D01*
%TO.N,Net-(D10-HO)*%
X150865000Y-51943000D02*
X151173000Y-51635000D01*
X151173000Y-51635000D02*
X152225000Y-51635000D01*
%TO.N,LI_A*%
X173412500Y-67587500D02*
X172500000Y-67587500D01*
%TO.N,HI_A*%
X168000000Y-66500000D02*
X168500000Y-66000000D01*
X168500000Y-66000000D02*
X169500000Y-66000000D01*
X168000000Y-67587500D02*
X168000000Y-66500000D01*
%TO.N,HI_B*%
X142250000Y-54500000D02*
X141750000Y-54000000D01*
X141750000Y-54000000D02*
X141750000Y-53000000D01*
X143337500Y-54500000D02*
X142250000Y-54500000D01*
%TO.N,LI_B*%
X143337500Y-50000000D02*
X142250000Y-50000000D01*
D35*
%TO.N,NTC_A+*%
X130062500Y-73937500D02*
X130062500Y-73000000D01*
X162862500Y-56200000D02*
X162862500Y-55662500D01*
X162862500Y-55662500D02*
X162000000Y-54800000D01*
X130062500Y-73000000D02*
X130062500Y-71837500D01*
X130062500Y-71837500D02*
X130550000Y-71350000D01*
%TO.N,NTC_C-*%
X121089000Y-75311000D02*
X124400000Y-72000000D01*
X126512500Y-71350000D02*
X126000000Y-71862500D01*
X120142000Y-75311000D02*
X121089000Y-75311000D01*
X124537500Y-71862500D02*
X124400000Y-72000000D01*
X127850000Y-71350000D02*
X126512500Y-71350000D01*
X126000000Y-71862500D02*
X124537500Y-71862500D01*
D34*
%TO.N,PWM_BKIN*%
X163220500Y-97228500D02*
X164145000Y-97228500D01*
D35*
X164145000Y-95447500D02*
X164145000Y-97228500D01*
%TO.N,GNDA*%
X128980000Y-72357500D02*
X128337500Y-73000000D01*
X126262500Y-70400000D02*
X126000000Y-70137500D01*
X135862500Y-71000000D02*
X135862500Y-71862500D01*
X128980000Y-70750001D02*
X128980000Y-72357500D01*
X124437500Y-70137500D02*
X124400000Y-70175000D01*
X128337500Y-73537500D02*
X128337500Y-73000000D01*
X127850000Y-70400000D02*
X126262500Y-70400000D01*
X161137500Y-56200000D02*
X159800000Y-56200000D01*
X128700000Y-73900000D02*
X128337500Y-73537500D01*
X127850000Y-70400000D02*
X128629999Y-70400000D01*
X126000000Y-70137500D02*
X124437500Y-70137500D01*
X135862500Y-71862500D02*
X136600000Y-72600000D01*
X128629999Y-70400000D02*
X128980000Y-70750001D01*
%TO.N,PCB_Temp_C_MCU*%
X134137500Y-71000000D02*
X134137500Y-69937500D01*
X132400000Y-70912500D02*
X134050000Y-70912500D01*
X134137500Y-69937500D02*
X133800000Y-69600000D01*
X134050000Y-70912500D02*
X134137500Y-71000000D01*
%TO.N,Net-(U2--)*%
X130550000Y-69450000D02*
X132037500Y-69450000D01*
X132037500Y-69450000D02*
X132400000Y-69087500D01*
X127850000Y-69450000D02*
X130550000Y-69450000D01*
%TD*%
%TA.AperFunction,Conductor*%
%TO.N,GND*%
G36*
X146036112Y-64281685D02*
G01*
X146081867Y-64334489D01*
X146091811Y-64403647D01*
X146062786Y-64467203D01*
X146042707Y-64485770D01*
X146007646Y-64511646D01*
X145929329Y-64617762D01*
X145885772Y-64742237D01*
X145885770Y-64742249D01*
X145883000Y-64771791D01*
X145883000Y-64874500D01*
X147233000Y-64874500D01*
X147233000Y-64831189D01*
X147252685Y-64764150D01*
X147305489Y-64718395D01*
X147374647Y-64708451D01*
X147438203Y-64737476D01*
X147444681Y-64743508D01*
X147624181Y-64923008D01*
X147657666Y-64984331D01*
X147660500Y-65010689D01*
X147660500Y-65477260D01*
X147663274Y-65506849D01*
X147706884Y-65631476D01*
X147785288Y-65737710D01*
X147785289Y-65737711D01*
X147891523Y-65816115D01*
X147891524Y-65816115D01*
X147891525Y-65816116D01*
X148016151Y-65859725D01*
X148016150Y-65859725D01*
X148045740Y-65862500D01*
X148045744Y-65862500D01*
X148626260Y-65862500D01*
X148655849Y-65859725D01*
X148678357Y-65851849D01*
X148780475Y-65816116D01*
X148886711Y-65737711D01*
X148965116Y-65631475D01*
X149008725Y-65506849D01*
X149011500Y-65477256D01*
X149011500Y-65477208D01*
X149439000Y-65477208D01*
X149441770Y-65506750D01*
X149441772Y-65506762D01*
X149485329Y-65631237D01*
X149563646Y-65737353D01*
X149669762Y-65815670D01*
X149794237Y-65859227D01*
X149794249Y-65859229D01*
X149823792Y-65862000D01*
X149864000Y-65862000D01*
X150364000Y-65862000D01*
X150404208Y-65862000D01*
X150433750Y-65859229D01*
X150433762Y-65859227D01*
X150558237Y-65815670D01*
X150664353Y-65737353D01*
X150742670Y-65631237D01*
X150786227Y-65506762D01*
X150786229Y-65506750D01*
X150789000Y-65477208D01*
X151725000Y-65477208D01*
X151727770Y-65506750D01*
X151727772Y-65506762D01*
X151771329Y-65631237D01*
X151849646Y-65737353D01*
X151955762Y-65815670D01*
X152080237Y-65859227D01*
X152080249Y-65859229D01*
X152109792Y-65862000D01*
X152150000Y-65862000D01*
X152650000Y-65862000D01*
X152690208Y-65862000D01*
X152719750Y-65859229D01*
X152719762Y-65859227D01*
X152825553Y-65822208D01*
X154102000Y-65822208D01*
X154104770Y-65851750D01*
X154104772Y-65851762D01*
X154148329Y-65976237D01*
X154226646Y-66082353D01*
X154332762Y-66160670D01*
X154457237Y-66204227D01*
X154457249Y-66204229D01*
X154486792Y-66207000D01*
X154589500Y-66207000D01*
X155089500Y-66207000D01*
X155192208Y-66207000D01*
X155221750Y-66204229D01*
X155221762Y-66204227D01*
X155346237Y-66160670D01*
X155452353Y-66082353D01*
X155530670Y-65976237D01*
X155574227Y-65851762D01*
X155574229Y-65851750D01*
X155577000Y-65822208D01*
X155577000Y-65782000D01*
X155089500Y-65782000D01*
X155089500Y-66207000D01*
X154589500Y-66207000D01*
X154589500Y-65782000D01*
X154102000Y-65782000D01*
X154102000Y-65822208D01*
X152825553Y-65822208D01*
X152844237Y-65815670D01*
X152950353Y-65737353D01*
X153028670Y-65631237D01*
X153072227Y-65506762D01*
X153072229Y-65506750D01*
X153075000Y-65477208D01*
X153075000Y-65374500D01*
X152650000Y-65374500D01*
X152650000Y-65862000D01*
X152150000Y-65862000D01*
X152150000Y-65374500D01*
X151725000Y-65374500D01*
X151725000Y-65477208D01*
X150789000Y-65477208D01*
X150789000Y-65374500D01*
X150364000Y-65374500D01*
X150364000Y-65862000D01*
X149864000Y-65862000D01*
X149864000Y-65374500D01*
X149439000Y-65374500D01*
X149439000Y-65477208D01*
X149011500Y-65477208D01*
X149011500Y-65241791D01*
X154102000Y-65241791D01*
X154102000Y-65282000D01*
X154589500Y-65282000D01*
X155089500Y-65282000D01*
X155577000Y-65282000D01*
X155577000Y-65241791D01*
X155574229Y-65212249D01*
X155574227Y-65212237D01*
X155530670Y-65087762D01*
X155452353Y-64981646D01*
X155346237Y-64903329D01*
X155221762Y-64859772D01*
X155221750Y-64859770D01*
X155192208Y-64857000D01*
X155089500Y-64857000D01*
X155089500Y-65282000D01*
X154589500Y-65282000D01*
X154589500Y-64857000D01*
X154486792Y-64857000D01*
X154457249Y-64859770D01*
X154457237Y-64859772D01*
X154332762Y-64903329D01*
X154226646Y-64981646D01*
X154148329Y-65087762D01*
X154104772Y-65212237D01*
X154104770Y-65212249D01*
X154102000Y-65241791D01*
X149011500Y-65241791D01*
X149011500Y-64871744D01*
X149010377Y-64859772D01*
X149008725Y-64842150D01*
X148965115Y-64717523D01*
X148886711Y-64611289D01*
X148886710Y-64611288D01*
X148780475Y-64532884D01*
X148695191Y-64503041D01*
X148638415Y-64462319D01*
X148612668Y-64397366D01*
X148626125Y-64328805D01*
X148674512Y-64278402D01*
X148736146Y-64262000D01*
X149525073Y-64262000D01*
X149592112Y-64281685D01*
X149637867Y-64334489D01*
X149647811Y-64403647D01*
X149618786Y-64467203D01*
X149598707Y-64485770D01*
X149563646Y-64511646D01*
X149485329Y-64617762D01*
X149441772Y-64742237D01*
X149441770Y-64742249D01*
X149439000Y-64771791D01*
X149439000Y-64874500D01*
X150789000Y-64874500D01*
X150789000Y-64771791D01*
X150786229Y-64742249D01*
X150786227Y-64742237D01*
X150742670Y-64617762D01*
X150664353Y-64511646D01*
X150629293Y-64485770D01*
X150587042Y-64430122D01*
X150581584Y-64360466D01*
X150614652Y-64298917D01*
X150675746Y-64265016D01*
X150702927Y-64262000D01*
X151811073Y-64262000D01*
X151878112Y-64281685D01*
X151923867Y-64334489D01*
X151933811Y-64403647D01*
X151904786Y-64467203D01*
X151884707Y-64485770D01*
X151849646Y-64511646D01*
X151771329Y-64617762D01*
X151727772Y-64742237D01*
X151727770Y-64742249D01*
X151725000Y-64771791D01*
X151725000Y-64874500D01*
X153075000Y-64874500D01*
X153075000Y-64771791D01*
X153072229Y-64742249D01*
X153072227Y-64742237D01*
X153028670Y-64617762D01*
X152950353Y-64511646D01*
X152915293Y-64485770D01*
X152873042Y-64430122D01*
X152867584Y-64360466D01*
X152900652Y-64298917D01*
X152961746Y-64265016D01*
X152988927Y-64262000D01*
X156086000Y-64262000D01*
X156153039Y-64281685D01*
X156198794Y-64334489D01*
X156210000Y-64386000D01*
X156210000Y-64761548D01*
X156190315Y-64828587D01*
X156137511Y-64874342D01*
X156126955Y-64878589D01*
X156057524Y-64902884D01*
X156057523Y-64902884D01*
X155951289Y-64981288D01*
X155951288Y-64981289D01*
X155872884Y-65087523D01*
X155829274Y-65212150D01*
X155826500Y-65241739D01*
X155826500Y-65822260D01*
X155829274Y-65851849D01*
X155872884Y-65976476D01*
X155925190Y-66047348D01*
X155951289Y-66082711D01*
X156057525Y-66161116D01*
X156115624Y-66181446D01*
X156126955Y-66185411D01*
X156183731Y-66226132D01*
X156209478Y-66291085D01*
X156210000Y-66302452D01*
X156210000Y-75509878D01*
X156190315Y-75576917D01*
X156137511Y-75622672D01*
X156068353Y-75632616D01*
X156045048Y-75626920D01*
X156021764Y-75618773D01*
X156021750Y-75618770D01*
X155992208Y-75616000D01*
X155952000Y-75616000D01*
X155952000Y-77091000D01*
X155992208Y-77091000D01*
X156021750Y-77088229D01*
X156021759Y-77088227D01*
X156045044Y-77080080D01*
X156114823Y-77076517D01*
X156175451Y-77111246D01*
X156207678Y-77173239D01*
X156210000Y-77197121D01*
X156210000Y-77234350D01*
X156190315Y-77301389D01*
X156137511Y-77347144D01*
X156068353Y-77357088D01*
X156045044Y-77351391D01*
X156021848Y-77343274D01*
X156021849Y-77343274D01*
X155992260Y-77340500D01*
X155992256Y-77340500D01*
X155411744Y-77340500D01*
X155411740Y-77340500D01*
X155382150Y-77343274D01*
X155257523Y-77386884D01*
X155151289Y-77465288D01*
X155151288Y-77465289D01*
X155072884Y-77571523D01*
X155029274Y-77696150D01*
X155026500Y-77725739D01*
X155026500Y-78431260D01*
X155029274Y-78460849D01*
X155029274Y-78460851D01*
X155069234Y-78575045D01*
X155072797Y-78644823D01*
X155038068Y-78705451D01*
X154976075Y-78737678D01*
X154952193Y-78740000D01*
X154691824Y-78740000D01*
X154624785Y-78720315D01*
X154579030Y-78667511D01*
X154569086Y-78598353D01*
X154574783Y-78575044D01*
X154596227Y-78513759D01*
X154596229Y-78513750D01*
X154599000Y-78484208D01*
X154599000Y-78381500D01*
X153249000Y-78381500D01*
X153249000Y-78484208D01*
X153251770Y-78513750D01*
X153251772Y-78513759D01*
X153273217Y-78575044D01*
X153276780Y-78644823D01*
X153242051Y-78705451D01*
X153180058Y-78737678D01*
X153156176Y-78740000D01*
X144911362Y-78740000D01*
X144897740Y-78736000D01*
X143354131Y-78736000D01*
X143351996Y-78737166D01*
X143325638Y-78740000D01*
X143255500Y-78740000D01*
X143188461Y-78720315D01*
X143142706Y-78667511D01*
X143131500Y-78616000D01*
X143131500Y-78195791D01*
X143381000Y-78195791D01*
X143381000Y-78236000D01*
X143868500Y-78236000D01*
X144368500Y-78236000D01*
X144856000Y-78236000D01*
X144856000Y-78195791D01*
X144853229Y-78166249D01*
X144853227Y-78166237D01*
X144809670Y-78041762D01*
X144731353Y-77935646D01*
X144625237Y-77857329D01*
X144500762Y-77813772D01*
X144500750Y-77813770D01*
X144471208Y-77811000D01*
X144368500Y-77811000D01*
X144368500Y-78236000D01*
X143868500Y-78236000D01*
X143868500Y-77811000D01*
X143765792Y-77811000D01*
X143736249Y-77813770D01*
X143736237Y-77813772D01*
X143611762Y-77857329D01*
X143505646Y-77935646D01*
X143427329Y-78041762D01*
X143383772Y-78166237D01*
X143383770Y-78166249D01*
X143381000Y-78195791D01*
X143131500Y-78195791D01*
X143131500Y-78195739D01*
X143128725Y-78166150D01*
X143085115Y-78041523D01*
X143006711Y-77935289D01*
X143006710Y-77935288D01*
X142900475Y-77856884D01*
X142888314Y-77852628D01*
X142831539Y-77811904D01*
X142818415Y-77778791D01*
X153249000Y-77778791D01*
X153249000Y-77881500D01*
X153674000Y-77881500D01*
X154174000Y-77881500D01*
X154599000Y-77881500D01*
X154599000Y-77778791D01*
X154596229Y-77749249D01*
X154596227Y-77749237D01*
X154552670Y-77624762D01*
X154474353Y-77518646D01*
X154368237Y-77440329D01*
X154243762Y-77396772D01*
X154243750Y-77396770D01*
X154214208Y-77394000D01*
X154174000Y-77394000D01*
X154174000Y-77881500D01*
X153674000Y-77881500D01*
X153674000Y-77394000D01*
X153633792Y-77394000D01*
X153604249Y-77396770D01*
X153604237Y-77396772D01*
X153479762Y-77440329D01*
X153373646Y-77518646D01*
X153295329Y-77624762D01*
X153251772Y-77749237D01*
X153251770Y-77749249D01*
X153249000Y-77778791D01*
X142818415Y-77778791D01*
X142805795Y-77746950D01*
X142819254Y-77678389D01*
X142841593Y-77647906D01*
X142852499Y-77637000D01*
X143352500Y-77637000D01*
X143455208Y-77637000D01*
X143484750Y-77634229D01*
X143484762Y-77634227D01*
X143609237Y-77590670D01*
X143715353Y-77512353D01*
X143793670Y-77406237D01*
X143837227Y-77281762D01*
X143837229Y-77281750D01*
X143840000Y-77252208D01*
X143840000Y-77212000D01*
X143352500Y-77212000D01*
X143352500Y-77637000D01*
X142852499Y-77637000D01*
X142852500Y-77636999D01*
X142852500Y-77212000D01*
X142365000Y-77212000D01*
X142365000Y-77252208D01*
X142367770Y-77281750D01*
X142367772Y-77281762D01*
X142411329Y-77406237D01*
X142489647Y-77512355D01*
X142590422Y-77586730D01*
X142632673Y-77642377D01*
X142638132Y-77712033D01*
X142605065Y-77773583D01*
X142543971Y-77807484D01*
X142516789Y-77810500D01*
X142040740Y-77810500D01*
X142011150Y-77813274D01*
X142011148Y-77813274D01*
X141896955Y-77853234D01*
X141827177Y-77856797D01*
X141766549Y-77822068D01*
X141734322Y-77760075D01*
X141732000Y-77736193D01*
X141732000Y-77732452D01*
X141751685Y-77665413D01*
X141804489Y-77619658D01*
X141815045Y-77615411D01*
X141822856Y-77612677D01*
X141884475Y-77591116D01*
X141990711Y-77512711D01*
X142069116Y-77406475D01*
X142112725Y-77281849D01*
X142115500Y-77252256D01*
X142115500Y-76671791D01*
X142365000Y-76671791D01*
X142365000Y-76712000D01*
X142852500Y-76712000D01*
X143352500Y-76712000D01*
X143840000Y-76712000D01*
X143840000Y-76706208D01*
X155027000Y-76706208D01*
X155029770Y-76735750D01*
X155029772Y-76735762D01*
X155073329Y-76860237D01*
X155151646Y-76966353D01*
X155257762Y-77044670D01*
X155382237Y-77088227D01*
X155382249Y-77088229D01*
X155411792Y-77091000D01*
X155452000Y-77091000D01*
X155452000Y-76603500D01*
X155027000Y-76603500D01*
X155027000Y-76706208D01*
X143840000Y-76706208D01*
X143840000Y-76671791D01*
X143837229Y-76642249D01*
X143837227Y-76642237D01*
X143793670Y-76517762D01*
X143715353Y-76411646D01*
X143609237Y-76333329D01*
X143484762Y-76289772D01*
X143484750Y-76289770D01*
X143455208Y-76287000D01*
X143352500Y-76287000D01*
X143352500Y-76712000D01*
X142852500Y-76712000D01*
X142852500Y-76287000D01*
X142749792Y-76287000D01*
X142720249Y-76289770D01*
X142720237Y-76289772D01*
X142595762Y-76333329D01*
X142489646Y-76411646D01*
X142411329Y-76517762D01*
X142367772Y-76642237D01*
X142367770Y-76642249D01*
X142365000Y-76671791D01*
X142115500Y-76671791D01*
X142115500Y-76671744D01*
X142114759Y-76663844D01*
X142112725Y-76642150D01*
X142069115Y-76517523D01*
X141990711Y-76411289D01*
X141990710Y-76411288D01*
X141884475Y-76332884D01*
X141815045Y-76308589D01*
X141758269Y-76267868D01*
X141732522Y-76202915D01*
X141732000Y-76191548D01*
X141732000Y-76000791D01*
X155027000Y-76000791D01*
X155027000Y-76103500D01*
X155452000Y-76103500D01*
X155452000Y-75616000D01*
X155411792Y-75616000D01*
X155382249Y-75618770D01*
X155382237Y-75618772D01*
X155257762Y-75662329D01*
X155151646Y-75740646D01*
X155073329Y-75846762D01*
X155029772Y-75971237D01*
X155029770Y-75971249D01*
X155027000Y-76000791D01*
X141732000Y-76000791D01*
X141732000Y-67136926D01*
X141751685Y-67069887D01*
X141804489Y-67024132D01*
X141873647Y-67014188D01*
X141937203Y-67043213D01*
X141955771Y-67063293D01*
X141981646Y-67098354D01*
X142087762Y-67176670D01*
X142212237Y-67220227D01*
X142212249Y-67220229D01*
X142241792Y-67223000D01*
X142344500Y-67223000D01*
X142844500Y-67223000D01*
X142947208Y-67223000D01*
X142976750Y-67220229D01*
X142976762Y-67220227D01*
X143101237Y-67176670D01*
X143207353Y-67098353D01*
X143285670Y-66992237D01*
X143329227Y-66867762D01*
X143329229Y-66867750D01*
X143332000Y-66838208D01*
X143332000Y-66798000D01*
X142844500Y-66798000D01*
X142844500Y-67223000D01*
X142344500Y-67223000D01*
X142344500Y-66298000D01*
X142844500Y-66298000D01*
X143332000Y-66298000D01*
X143332000Y-66257791D01*
X143329229Y-66228249D01*
X143329227Y-66228237D01*
X143285670Y-66103762D01*
X143207353Y-65997646D01*
X143101237Y-65919329D01*
X142976762Y-65875772D01*
X142976750Y-65875770D01*
X142947208Y-65873000D01*
X142844500Y-65873000D01*
X142844500Y-66298000D01*
X142344500Y-66298000D01*
X142344500Y-65873000D01*
X142241792Y-65873000D01*
X142212249Y-65875770D01*
X142212237Y-65875772D01*
X142087762Y-65919329D01*
X141981646Y-65997646D01*
X141955770Y-66032707D01*
X141900122Y-66074958D01*
X141830466Y-66080416D01*
X141768917Y-66047348D01*
X141735016Y-65986254D01*
X141732000Y-65959073D01*
X141732000Y-65490237D01*
X141735826Y-65477208D01*
X145883000Y-65477208D01*
X145885770Y-65506750D01*
X145885772Y-65506762D01*
X145929329Y-65631237D01*
X146007646Y-65737353D01*
X146113762Y-65815670D01*
X146238237Y-65859227D01*
X146238249Y-65859229D01*
X146267792Y-65862000D01*
X146308000Y-65862000D01*
X146808000Y-65862000D01*
X146848208Y-65862000D01*
X146877750Y-65859229D01*
X146877762Y-65859227D01*
X147002237Y-65815670D01*
X147108353Y-65737353D01*
X147186670Y-65631237D01*
X147230227Y-65506762D01*
X147230229Y-65506750D01*
X147233000Y-65477208D01*
X147233000Y-65374500D01*
X146808000Y-65374500D01*
X146808000Y-65862000D01*
X146308000Y-65862000D01*
X146308000Y-65374500D01*
X145883000Y-65374500D01*
X145883000Y-65477208D01*
X141735826Y-65477208D01*
X141751685Y-65423198D01*
X141780514Y-65391861D01*
X141867282Y-65325282D01*
X141963536Y-65199841D01*
X142024044Y-65053762D01*
X142044682Y-64897000D01*
X142041356Y-64871739D01*
X142026849Y-64761548D01*
X142024044Y-64740238D01*
X141963536Y-64594159D01*
X141867282Y-64468718D01*
X141867279Y-64468716D01*
X141862334Y-64462271D01*
X141864927Y-64460280D01*
X141838760Y-64412358D01*
X141843744Y-64342666D01*
X141885616Y-64286733D01*
X141951080Y-64262316D01*
X141959926Y-64262000D01*
X145969073Y-64262000D01*
X146036112Y-64281685D01*
G37*
%TD.AperFunction*%
%TD*%
%TA.AperFunction,Conductor*%
%TO.N,GNDA*%
G36*
X144802061Y-58420597D02*
G01*
X144978941Y-58438018D01*
X145002769Y-58442757D01*
X145167001Y-58492576D01*
X145189453Y-58501877D01*
X145340798Y-58582772D01*
X145361010Y-58596277D01*
X145493666Y-58705145D01*
X145510854Y-58722333D01*
X145619722Y-58854989D01*
X145633227Y-58875201D01*
X145714121Y-59026543D01*
X145723424Y-59049001D01*
X145773240Y-59213224D01*
X145777982Y-59237065D01*
X145795403Y-59413938D01*
X145796000Y-59426092D01*
X145796000Y-61731907D01*
X145795403Y-61744061D01*
X145777982Y-61920934D01*
X145773240Y-61944775D01*
X145723424Y-62108998D01*
X145714121Y-62131456D01*
X145633227Y-62282798D01*
X145619722Y-62303010D01*
X145510854Y-62435666D01*
X145493666Y-62452854D01*
X145361010Y-62561722D01*
X145340798Y-62575227D01*
X145251082Y-62623181D01*
X145182679Y-62637423D01*
X145117435Y-62612423D01*
X145076065Y-62556118D01*
X145071703Y-62486384D01*
X145078062Y-62466386D01*
X145111044Y-62386762D01*
X145131682Y-62230000D01*
X145128197Y-62203531D01*
X145112591Y-62084987D01*
X145111044Y-62073238D01*
X145050536Y-61927159D01*
X144954282Y-61801718D01*
X144828841Y-61705464D01*
X144682762Y-61644956D01*
X144682760Y-61644955D01*
X144526001Y-61624318D01*
X144525999Y-61624318D01*
X144369239Y-61644955D01*
X144369237Y-61644956D01*
X144223160Y-61705463D01*
X144097718Y-61801718D01*
X144001463Y-61927160D01*
X143940956Y-62073237D01*
X143940955Y-62073239D01*
X143920318Y-62229998D01*
X143920318Y-62230001D01*
X143940955Y-62386760D01*
X143940956Y-62386762D01*
X144001463Y-62532840D01*
X144001464Y-62532841D01*
X144005816Y-62538513D01*
X144031011Y-62603681D01*
X144016973Y-62672126D01*
X143968160Y-62722117D01*
X143907441Y-62738000D01*
X139651637Y-62738000D01*
X139584598Y-62718315D01*
X139538843Y-62665511D01*
X139528698Y-62597815D01*
X139543682Y-62484001D01*
X139543682Y-62483998D01*
X139525871Y-62348712D01*
X139523044Y-62327238D01*
X139462536Y-62181159D01*
X139366282Y-62055718D01*
X139240841Y-61959464D01*
X139205364Y-61944769D01*
X139094762Y-61898956D01*
X139094760Y-61898955D01*
X138938001Y-61878318D01*
X138937999Y-61878318D01*
X138781239Y-61898955D01*
X138781237Y-61898956D01*
X138635160Y-61959463D01*
X138635159Y-61959464D01*
X138509718Y-62055718D01*
X138487258Y-62084988D01*
X138430832Y-62126189D01*
X138388884Y-62133500D01*
X137077973Y-62133500D01*
X137010934Y-62113815D01*
X136965179Y-62061011D01*
X136959312Y-62045495D01*
X136933215Y-61959463D01*
X136928757Y-61944769D01*
X136924018Y-61920941D01*
X136906597Y-61744061D01*
X136906000Y-61731907D01*
X136906000Y-61606968D01*
X136925685Y-61539929D01*
X136978489Y-61494174D01*
X137047647Y-61484230D01*
X137087626Y-61497172D01*
X137149773Y-61529789D01*
X137149775Y-61529790D01*
X137314944Y-61570500D01*
X137485056Y-61570500D01*
X137650225Y-61529790D01*
X137737031Y-61484230D01*
X137800849Y-61450736D01*
X137800850Y-61450734D01*
X137800852Y-61450734D01*
X137928183Y-61337929D01*
X137932950Y-61331021D01*
X137987230Y-61287033D01*
X138056678Y-61279372D01*
X138119244Y-61310473D01*
X138137046Y-61331017D01*
X138141817Y-61337929D01*
X138199731Y-61389236D01*
X138269150Y-61450736D01*
X138419773Y-61529789D01*
X138419775Y-61529790D01*
X138584944Y-61570500D01*
X138755056Y-61570500D01*
X138920225Y-61529790D01*
X139007031Y-61484230D01*
X139070849Y-61450736D01*
X139070850Y-61450734D01*
X139070852Y-61450734D01*
X139198183Y-61337929D01*
X139294818Y-61197930D01*
X139355140Y-61038872D01*
X139375645Y-60870000D01*
X139355140Y-60701128D01*
X139294818Y-60542070D01*
X139288604Y-60533068D01*
X139266722Y-60466714D01*
X139284187Y-60399063D01*
X139311991Y-60366774D01*
X139380529Y-60310527D01*
X139505492Y-60158260D01*
X139505496Y-60158253D01*
X139598347Y-59984541D01*
X139639160Y-59850000D01*
X138914975Y-59850000D01*
X138950070Y-59814905D01*
X138996148Y-59735095D01*
X139020000Y-59646078D01*
X139020000Y-59553922D01*
X138996148Y-59464905D01*
X138950070Y-59385095D01*
X138914975Y-59350000D01*
X139639160Y-59350000D01*
X139639160Y-59349999D01*
X139598347Y-59215458D01*
X139505496Y-59041746D01*
X139505492Y-59041739D01*
X139380528Y-58889471D01*
X139228260Y-58764507D01*
X139228253Y-58764503D01*
X139054536Y-58671650D01*
X139024900Y-58662660D01*
X138966462Y-58624363D01*
X138938005Y-58560551D01*
X138948566Y-58491484D01*
X138994791Y-58439090D01*
X139060896Y-58420000D01*
X144789907Y-58420000D01*
X144802061Y-58420597D01*
G37*
%TD.AperFunction*%
%TA.AperFunction,Conductor*%
G36*
X138389930Y-59385095D02*
G01*
X138343852Y-59464905D01*
X138320000Y-59553922D01*
X138320000Y-59646078D01*
X138343852Y-59735095D01*
X138389930Y-59814905D01*
X138425025Y-59850000D01*
X137644975Y-59850000D01*
X137680070Y-59814905D01*
X137726148Y-59735095D01*
X137750000Y-59646078D01*
X137750000Y-59553922D01*
X137726148Y-59464905D01*
X137680070Y-59385095D01*
X137644975Y-59350000D01*
X138425025Y-59350000D01*
X138389930Y-59385095D01*
G37*
%TD.AperFunction*%
%TD*%
D38*
X135200000Y-68600000D03*
X156337000Y-103759000D03*
X160782000Y-67564000D03*
X149098000Y-70358000D03*
X171000000Y-66500000D03*
X127115000Y-73000000D03*
X147828000Y-70358000D03*
X164211000Y-100203000D03*
X147066000Y-60020000D03*
X129750000Y-66500000D03*
X150368000Y-72898000D03*
X153162000Y-59182000D03*
X131605686Y-86902231D03*
X165862000Y-92202000D03*
X143975000Y-53018030D03*
X142250000Y-51500000D03*
X168137500Y-73637500D03*
X168783000Y-89662000D03*
X155862500Y-84887500D03*
X132930331Y-72130331D03*
X149098000Y-72898000D03*
X170850000Y-93980000D03*
X149098000Y-71628000D03*
X172135000Y-72885000D03*
X153162000Y-56262564D03*
X153162000Y-60960000D03*
X148635000Y-50365000D03*
X150368000Y-71628000D03*
X150368000Y-70358000D03*
X158177000Y-83250000D03*
X147828000Y-72898000D03*
X167909500Y-83090500D03*
X147828000Y-71628000D03*
X128250000Y-66500000D03*
X172807951Y-78707207D03*
X126250000Y-79000000D03*
X135382000Y-79248000D03*
X173250000Y-77750000D03*
X153750000Y-49000000D03*
X125845000Y-78000000D03*
X141986000Y-97028000D03*
X140081000Y-89027000D03*
X159639000Y-79629000D03*
X161036000Y-80899000D03*
X131572000Y-92072000D03*
X165994729Y-99790084D03*
X165354000Y-95377000D03*
X139700000Y-66040000D03*
X155702000Y-79248000D03*
X157988000Y-65532000D03*
X133731000Y-77470000D03*
X163415041Y-82456959D03*
X152400000Y-62230000D03*
X146490686Y-61913772D03*
X128000000Y-94250000D03*
X150749000Y-62230000D03*
X155887500Y-86612500D03*
X166370000Y-101092000D03*
X141986000Y-57404000D03*
X141224000Y-78486000D03*
X147320000Y-56134000D03*
X168137500Y-75362500D03*
X147701000Y-62103000D03*
X138938000Y-62484000D03*
X163865000Y-76385000D03*
X158625323Y-75287754D03*
X140014091Y-76990458D03*
X154686000Y-81026000D03*
X156750000Y-93250000D03*
X138000000Y-104250000D03*
X175250000Y-75250000D03*
X174250000Y-71500000D03*
X124750000Y-69000000D03*
X145250000Y-48750000D03*
X174250000Y-69000000D03*
X150865000Y-51943000D03*
X173412500Y-67587500D03*
X139827000Y-71374000D03*
X169500000Y-66000000D03*
X138892440Y-72308250D03*
X137933323Y-73872045D03*
X141750000Y-53000000D03*
X142250000Y-50000000D03*
X138000000Y-72800000D03*
X138505571Y-75752785D03*
X132087500Y-67587500D03*
X138395442Y-74758865D03*
X125912500Y-67587500D03*
X162000000Y-54800000D03*
X144526000Y-62230000D03*
X167640000Y-71882000D03*
X130062500Y-73937500D03*
X163220500Y-97228500D03*
X139400000Y-76200000D03*
X164200000Y-68000000D03*
X169969367Y-73591926D03*
X145542000Y-62230000D03*
X136600000Y-72600000D03*
X173586598Y-69748267D03*
X159800000Y-56200000D03*
X128700000Y-73900000D03*
X163200000Y-70800000D03*
X142367000Y-63627000D03*
X141439000Y-64897000D03*
X159400000Y-54000000D03*
X139192000Y-70358000D03*
X133800000Y-69600000D03*
X137541000Y-64516000D03*
X142178000Y-107696000D03*
X158750000Y-107696000D03*
X161290000Y-107696000D03*
X163830000Y-107696000D03*
X166370000Y-107696000D03*
X127142240Y-58223250D03*
X171592240Y-58223250D03*
X133590000Y-59600000D03*
X133590000Y-60870000D03*
X134860000Y-59600000D03*
X134860000Y-60870000D03*
X136130000Y-59600000D03*
X136130000Y-60870000D03*
X137400000Y-59600000D03*
X137400000Y-60870000D03*
X138670000Y-59600000D03*
X138670000Y-60870000D03*
X149367240Y-43618250D03*
X174387000Y-85979000D03*
X174387000Y-87249000D03*
X139178000Y-107696000D03*
X151178000Y-107696000D03*
X154178000Y-107696000D03*
X124714000Y-85979000D03*
X124714000Y-87249000D03*
X145178000Y-107696000D03*
X148178000Y-107696000D03*
X120142000Y-66421000D03*
X120142000Y-67691000D03*
X120142000Y-68961000D03*
X120142000Y-70231000D03*
X120142000Y-71501000D03*
X120142000Y-72771000D03*
X120142000Y-74041000D03*
X120142000Y-75311000D03*
X120142000Y-76581000D03*
X120142000Y-77851000D03*
X158369000Y-91186000D03*
X159639000Y-91186000D03*
X160909000Y-91186000D03*
X162179000Y-91186000D03*
X178896000Y-66421000D03*
X178896000Y-67691000D03*
X178896000Y-68961000D03*
X178896000Y-70231000D03*
X178896000Y-71501000D03*
X178896000Y-72771000D03*
X178896000Y-74041000D03*
X178896000Y-75311000D03*
X178896000Y-76581000D03*
X178896000Y-77851000D03*
M02*
