M48
METRIC,TZ
T1C0.400
T2C0.650
T3C0.700
T4C1.000
T5C1.000
%
G90
G05
T1
X124750Y-69000
X125845Y-78000
X125913Y-67587
X126250Y-79000
X127115Y-73000
X128000Y-94250
X128250Y-66500
X128700Y-73900
X129750Y-66500
X130063Y-73938
X131572Y-92072
X131606Y-86902
X132088Y-67587
X132930Y-72130
X133731Y-77470
X133800Y-69600
X135200Y-68600
X135382Y-79248
X136600Y-72600
X137933Y-73872
X138000Y-72800
X138000Y-104250
X138395Y-74759
X138506Y-75753
X138892Y-72308
X138938Y-62484
X139192Y-70358
X139400Y-76200
X139700Y-66040
X139827Y-71374
X140014Y-76990
X140081Y-89027
X141224Y-78486
X141439Y-64897
X141750Y-53000
X141986Y-57404
X141986Y-97028
X142250Y-50000
X142250Y-51500
X142367Y-63627
X143975Y-53018
X144526Y-62230
X145250Y-48750
X145542Y-62230
X146491Y-61914
X147066Y-60020
X147320Y-56134
X147701Y-62103
X147828Y-70358
X147828Y-71628
X147828Y-72898
X148635Y-50365
X149098Y-70358
X149098Y-71628
X149098Y-72898
X150368Y-70358
X150368Y-71628
X150368Y-72898
X150749Y-62230
X150865Y-51943
X152400Y-62230
X153162Y-56263
X153162Y-59182
X153162Y-60960
X153750Y-49000
X154686Y-81026
X155702Y-79248
X155862Y-84888
X155888Y-86613
X156337Y-103759
X156750Y-93250
X157988Y-65532
X158177Y-83250
X158625Y-75288
X159400Y-54000
X159639Y-79629
X159800Y-56200
X160782Y-67564
X161036Y-80899
X162000Y-54800
X163200Y-70800
X163221Y-97229
X163415Y-82457
X163865Y-76385
X164200Y-68000
X164211Y-100203
X165354Y-95377
X165862Y-92202
X165995Y-99790
X166370Y-101092
X167640Y-71882
X167909Y-83091
X168138Y-73638
X168138Y-75363
X168783Y-89662
X169500Y-66000
X169969Y-73592
X170850Y-93980
X171000Y-66500
X172135Y-72885
X172808Y-78707
X173250Y-77750
X173413Y-67587
X173587Y-69748
X174250Y-69000
X174250Y-71500
X175250Y-75250
T2
X120142Y-66421
X120142Y-67691
X120142Y-68961
X120142Y-70231
X120142Y-71501
X120142Y-72771
X120142Y-74041
X120142Y-75311
X120142Y-76581
X120142Y-77851
X158369Y-91186
X159639Y-91186
X160909Y-91186
X162179Y-91186
X178896Y-66421
X178896Y-67691
X178896Y-68961
X178896Y-70231
X178896Y-71501
X178896Y-72771
X178896Y-74041
X178896Y-75311
X178896Y-76581
X178896Y-77851
T3
X124714Y-85979
X124714Y-87249
X133590Y-59600
X133590Y-60870
X134860Y-59600
X134860Y-60870
X136130Y-59600
X136130Y-60870
X137400Y-59600
X137400Y-60870
X138670Y-59600
X138670Y-60870
X174387Y-85979
X174387Y-87249
T4
X137541Y-64516
T5
X139178Y-107696
X142178Y-107696
X145178Y-107696
X148178Y-107696
X151178Y-107696
X154178Y-107696
X158750Y-107696
X161290Y-107696
X163830Y-107696
X166370Y-107696
M30
