%TF.GenerationSoftware,KiCad,Pcbnew,8.0.4*%
%TF.CreationDate,2024-10-03T15:45:29+03:00*%
%TF.ProjectId,_____ __________,1f3b3042-3020-4433-9f40-30323b353d38,rev?*%
%TF.SameCoordinates,Original*%
%TF.FileFunction,Legend,Top*%
%TF.FilePolarity,Positive*%
%FSLAX46Y46*%
G04 Gerber Fmt 4.6, Leading zero omitted, Abs format (unit mm)*
G04 Created by KiCad (PCBNEW 8.0.4) date 2024-10-03 15:45:29*
%MOMM*%
%LPD*%
G01*
G04 APERTURE LIST*
%ADD10C,0.150000*%
%ADD11C,0.120000*%
G04 APERTURE END LIST*
D10*
X138893779Y-109724819D02*
X138893779Y-108724819D01*
X138893779Y-109201009D02*
X139465207Y-109201009D01*
X139465207Y-109724819D02*
X139465207Y-108724819D01*
X142417969Y-109724819D02*
X141941779Y-109724819D01*
X141941779Y-109724819D02*
X141941779Y-108724819D01*
X145513588Y-108772438D02*
X145418350Y-108724819D01*
X145418350Y-108724819D02*
X145275493Y-108724819D01*
X145275493Y-108724819D02*
X145132636Y-108772438D01*
X145132636Y-108772438D02*
X145037398Y-108867676D01*
X145037398Y-108867676D02*
X144989779Y-108962914D01*
X144989779Y-108962914D02*
X144942160Y-109153390D01*
X144942160Y-109153390D02*
X144942160Y-109296247D01*
X144942160Y-109296247D02*
X144989779Y-109486723D01*
X144989779Y-109486723D02*
X145037398Y-109581961D01*
X145037398Y-109581961D02*
X145132636Y-109677200D01*
X145132636Y-109677200D02*
X145275493Y-109724819D01*
X145275493Y-109724819D02*
X145370731Y-109724819D01*
X145370731Y-109724819D02*
X145513588Y-109677200D01*
X145513588Y-109677200D02*
X145561207Y-109629580D01*
X145561207Y-109629580D02*
X145561207Y-109296247D01*
X145561207Y-109296247D02*
X145370731Y-109296247D01*
X148434588Y-108772438D02*
X148339350Y-108724819D01*
X148339350Y-108724819D02*
X148196493Y-108724819D01*
X148196493Y-108724819D02*
X148053636Y-108772438D01*
X148053636Y-108772438D02*
X147958398Y-108867676D01*
X147958398Y-108867676D02*
X147910779Y-108962914D01*
X147910779Y-108962914D02*
X147863160Y-109153390D01*
X147863160Y-109153390D02*
X147863160Y-109296247D01*
X147863160Y-109296247D02*
X147910779Y-109486723D01*
X147910779Y-109486723D02*
X147958398Y-109581961D01*
X147958398Y-109581961D02*
X148053636Y-109677200D01*
X148053636Y-109677200D02*
X148196493Y-109724819D01*
X148196493Y-109724819D02*
X148291731Y-109724819D01*
X148291731Y-109724819D02*
X148434588Y-109677200D01*
X148434588Y-109677200D02*
X148482207Y-109629580D01*
X148482207Y-109629580D02*
X148482207Y-109296247D01*
X148482207Y-109296247D02*
X148291731Y-109296247D01*
X151434969Y-109724819D02*
X150958779Y-109724819D01*
X150958779Y-109724819D02*
X150958779Y-108724819D01*
X154006779Y-109724819D02*
X154006779Y-108724819D01*
X154006779Y-109201009D02*
X154578207Y-109201009D01*
X154578207Y-109724819D02*
X154578207Y-108724819D01*
X161390476Y-104654819D02*
X161390476Y-105369104D01*
X161390476Y-105369104D02*
X161342857Y-105511961D01*
X161342857Y-105511961D02*
X161247619Y-105607200D01*
X161247619Y-105607200D02*
X161104762Y-105654819D01*
X161104762Y-105654819D02*
X161009524Y-105654819D01*
X162390476Y-105654819D02*
X161819048Y-105654819D01*
X162104762Y-105654819D02*
X162104762Y-104654819D01*
X162104762Y-104654819D02*
X162009524Y-104797676D01*
X162009524Y-104797676D02*
X161914286Y-104892914D01*
X161914286Y-104892914D02*
X161819048Y-104940533D01*
X163009524Y-104654819D02*
X163104762Y-104654819D01*
X163104762Y-104654819D02*
X163200000Y-104702438D01*
X163200000Y-104702438D02*
X163247619Y-104750057D01*
X163247619Y-104750057D02*
X163295238Y-104845295D01*
X163295238Y-104845295D02*
X163342857Y-105035771D01*
X163342857Y-105035771D02*
X163342857Y-105273866D01*
X163342857Y-105273866D02*
X163295238Y-105464342D01*
X163295238Y-105464342D02*
X163247619Y-105559580D01*
X163247619Y-105559580D02*
X163200000Y-105607200D01*
X163200000Y-105607200D02*
X163104762Y-105654819D01*
X163104762Y-105654819D02*
X163009524Y-105654819D01*
X163009524Y-105654819D02*
X162914286Y-105607200D01*
X162914286Y-105607200D02*
X162866667Y-105559580D01*
X162866667Y-105559580D02*
X162819048Y-105464342D01*
X162819048Y-105464342D02*
X162771429Y-105273866D01*
X162771429Y-105273866D02*
X162771429Y-105035771D01*
X162771429Y-105035771D02*
X162819048Y-104845295D01*
X162819048Y-104845295D02*
X162866667Y-104750057D01*
X162866667Y-104750057D02*
X162914286Y-104702438D01*
X162914286Y-104702438D02*
X163009524Y-104654819D01*
X122107142Y-67704819D02*
X121773809Y-67228628D01*
X121535714Y-67704819D02*
X121535714Y-66704819D01*
X121535714Y-66704819D02*
X121916666Y-66704819D01*
X121916666Y-66704819D02*
X122011904Y-66752438D01*
X122011904Y-66752438D02*
X122059523Y-66800057D01*
X122059523Y-66800057D02*
X122107142Y-66895295D01*
X122107142Y-66895295D02*
X122107142Y-67038152D01*
X122107142Y-67038152D02*
X122059523Y-67133390D01*
X122059523Y-67133390D02*
X122011904Y-67181009D01*
X122011904Y-67181009D02*
X121916666Y-67228628D01*
X121916666Y-67228628D02*
X121535714Y-67228628D01*
X123059523Y-67704819D02*
X122488095Y-67704819D01*
X122773809Y-67704819D02*
X122773809Y-66704819D01*
X122773809Y-66704819D02*
X122678571Y-66847676D01*
X122678571Y-66847676D02*
X122583333Y-66942914D01*
X122583333Y-66942914D02*
X122488095Y-66990533D01*
X124011904Y-67704819D02*
X123440476Y-67704819D01*
X123726190Y-67704819D02*
X123726190Y-66704819D01*
X123726190Y-66704819D02*
X123630952Y-66847676D01*
X123630952Y-66847676D02*
X123535714Y-66942914D01*
X123535714Y-66942914D02*
X123440476Y-66990533D01*
X147828095Y-52540819D02*
X147828095Y-53350342D01*
X147828095Y-53350342D02*
X147875714Y-53445580D01*
X147875714Y-53445580D02*
X147923333Y-53493200D01*
X147923333Y-53493200D02*
X148018571Y-53540819D01*
X148018571Y-53540819D02*
X148209047Y-53540819D01*
X148209047Y-53540819D02*
X148304285Y-53493200D01*
X148304285Y-53493200D02*
X148351904Y-53445580D01*
X148351904Y-53445580D02*
X148399523Y-53350342D01*
X148399523Y-53350342D02*
X148399523Y-52540819D01*
X149304285Y-52540819D02*
X149113809Y-52540819D01*
X149113809Y-52540819D02*
X149018571Y-52588438D01*
X149018571Y-52588438D02*
X148970952Y-52636057D01*
X148970952Y-52636057D02*
X148875714Y-52778914D01*
X148875714Y-52778914D02*
X148828095Y-52969390D01*
X148828095Y-52969390D02*
X148828095Y-53350342D01*
X148828095Y-53350342D02*
X148875714Y-53445580D01*
X148875714Y-53445580D02*
X148923333Y-53493200D01*
X148923333Y-53493200D02*
X149018571Y-53540819D01*
X149018571Y-53540819D02*
X149209047Y-53540819D01*
X149209047Y-53540819D02*
X149304285Y-53493200D01*
X149304285Y-53493200D02*
X149351904Y-53445580D01*
X149351904Y-53445580D02*
X149399523Y-53350342D01*
X149399523Y-53350342D02*
X149399523Y-53112247D01*
X149399523Y-53112247D02*
X149351904Y-53017009D01*
X149351904Y-53017009D02*
X149304285Y-52969390D01*
X149304285Y-52969390D02*
X149209047Y-52921771D01*
X149209047Y-52921771D02*
X149018571Y-52921771D01*
X149018571Y-52921771D02*
X148923333Y-52969390D01*
X148923333Y-52969390D02*
X148875714Y-53017009D01*
X148875714Y-53017009D02*
X148828095Y-53112247D01*
X165185714Y-100654819D02*
X165185714Y-99654819D01*
X165185714Y-99654819D02*
X165423809Y-99654819D01*
X165423809Y-99654819D02*
X165566666Y-99702438D01*
X165566666Y-99702438D02*
X165661904Y-99797676D01*
X165661904Y-99797676D02*
X165709523Y-99892914D01*
X165709523Y-99892914D02*
X165757142Y-100083390D01*
X165757142Y-100083390D02*
X165757142Y-100226247D01*
X165757142Y-100226247D02*
X165709523Y-100416723D01*
X165709523Y-100416723D02*
X165661904Y-100511961D01*
X165661904Y-100511961D02*
X165566666Y-100607200D01*
X165566666Y-100607200D02*
X165423809Y-100654819D01*
X165423809Y-100654819D02*
X165185714Y-100654819D01*
X166709523Y-100654819D02*
X166138095Y-100654819D01*
X166423809Y-100654819D02*
X166423809Y-99654819D01*
X166423809Y-99654819D02*
X166328571Y-99797676D01*
X166328571Y-99797676D02*
X166233333Y-99892914D01*
X166233333Y-99892914D02*
X166138095Y-99940533D01*
X167042857Y-99654819D02*
X167661904Y-99654819D01*
X167661904Y-99654819D02*
X167328571Y-100035771D01*
X167328571Y-100035771D02*
X167471428Y-100035771D01*
X167471428Y-100035771D02*
X167566666Y-100083390D01*
X167566666Y-100083390D02*
X167614285Y-100131009D01*
X167614285Y-100131009D02*
X167661904Y-100226247D01*
X167661904Y-100226247D02*
X167661904Y-100464342D01*
X167661904Y-100464342D02*
X167614285Y-100559580D01*
X167614285Y-100559580D02*
X167566666Y-100607200D01*
X167566666Y-100607200D02*
X167471428Y-100654819D01*
X167471428Y-100654819D02*
X167185714Y-100654819D01*
X167185714Y-100654819D02*
X167090476Y-100607200D01*
X167090476Y-100607200D02*
X167042857Y-100559580D01*
X135755142Y-81734819D02*
X135421809Y-81258628D01*
X135183714Y-81734819D02*
X135183714Y-80734819D01*
X135183714Y-80734819D02*
X135564666Y-80734819D01*
X135564666Y-80734819D02*
X135659904Y-80782438D01*
X135659904Y-80782438D02*
X135707523Y-80830057D01*
X135707523Y-80830057D02*
X135755142Y-80925295D01*
X135755142Y-80925295D02*
X135755142Y-81068152D01*
X135755142Y-81068152D02*
X135707523Y-81163390D01*
X135707523Y-81163390D02*
X135659904Y-81211009D01*
X135659904Y-81211009D02*
X135564666Y-81258628D01*
X135564666Y-81258628D02*
X135183714Y-81258628D01*
X136088476Y-80734819D02*
X136707523Y-80734819D01*
X136707523Y-80734819D02*
X136374190Y-81115771D01*
X136374190Y-81115771D02*
X136517047Y-81115771D01*
X136517047Y-81115771D02*
X136612285Y-81163390D01*
X136612285Y-81163390D02*
X136659904Y-81211009D01*
X136659904Y-81211009D02*
X136707523Y-81306247D01*
X136707523Y-81306247D02*
X136707523Y-81544342D01*
X136707523Y-81544342D02*
X136659904Y-81639580D01*
X136659904Y-81639580D02*
X136612285Y-81687200D01*
X136612285Y-81687200D02*
X136517047Y-81734819D01*
X136517047Y-81734819D02*
X136231333Y-81734819D01*
X136231333Y-81734819D02*
X136136095Y-81687200D01*
X136136095Y-81687200D02*
X136088476Y-81639580D01*
X137088476Y-80830057D02*
X137136095Y-80782438D01*
X137136095Y-80782438D02*
X137231333Y-80734819D01*
X137231333Y-80734819D02*
X137469428Y-80734819D01*
X137469428Y-80734819D02*
X137564666Y-80782438D01*
X137564666Y-80782438D02*
X137612285Y-80830057D01*
X137612285Y-80830057D02*
X137659904Y-80925295D01*
X137659904Y-80925295D02*
X137659904Y-81020533D01*
X137659904Y-81020533D02*
X137612285Y-81163390D01*
X137612285Y-81163390D02*
X137040857Y-81734819D01*
X137040857Y-81734819D02*
X137659904Y-81734819D01*
X147774819Y-60713857D02*
X147298628Y-61047190D01*
X147774819Y-61285285D02*
X146774819Y-61285285D01*
X146774819Y-61285285D02*
X146774819Y-60904333D01*
X146774819Y-60904333D02*
X146822438Y-60809095D01*
X146822438Y-60809095D02*
X146870057Y-60761476D01*
X146870057Y-60761476D02*
X146965295Y-60713857D01*
X146965295Y-60713857D02*
X147108152Y-60713857D01*
X147108152Y-60713857D02*
X147203390Y-60761476D01*
X147203390Y-60761476D02*
X147251009Y-60809095D01*
X147251009Y-60809095D02*
X147298628Y-60904333D01*
X147298628Y-60904333D02*
X147298628Y-61285285D01*
X146870057Y-60332904D02*
X146822438Y-60285285D01*
X146822438Y-60285285D02*
X146774819Y-60190047D01*
X146774819Y-60190047D02*
X146774819Y-59951952D01*
X146774819Y-59951952D02*
X146822438Y-59856714D01*
X146822438Y-59856714D02*
X146870057Y-59809095D01*
X146870057Y-59809095D02*
X146965295Y-59761476D01*
X146965295Y-59761476D02*
X147060533Y-59761476D01*
X147060533Y-59761476D02*
X147203390Y-59809095D01*
X147203390Y-59809095D02*
X147774819Y-60380523D01*
X147774819Y-60380523D02*
X147774819Y-59761476D01*
X146774819Y-58904333D02*
X146774819Y-59094809D01*
X146774819Y-59094809D02*
X146822438Y-59190047D01*
X146822438Y-59190047D02*
X146870057Y-59237666D01*
X146870057Y-59237666D02*
X147012914Y-59332904D01*
X147012914Y-59332904D02*
X147203390Y-59380523D01*
X147203390Y-59380523D02*
X147584342Y-59380523D01*
X147584342Y-59380523D02*
X147679580Y-59332904D01*
X147679580Y-59332904D02*
X147727200Y-59285285D01*
X147727200Y-59285285D02*
X147774819Y-59190047D01*
X147774819Y-59190047D02*
X147774819Y-58999571D01*
X147774819Y-58999571D02*
X147727200Y-58904333D01*
X147727200Y-58904333D02*
X147679580Y-58856714D01*
X147679580Y-58856714D02*
X147584342Y-58809095D01*
X147584342Y-58809095D02*
X147346247Y-58809095D01*
X147346247Y-58809095D02*
X147251009Y-58856714D01*
X147251009Y-58856714D02*
X147203390Y-58904333D01*
X147203390Y-58904333D02*
X147155771Y-58999571D01*
X147155771Y-58999571D02*
X147155771Y-59190047D01*
X147155771Y-59190047D02*
X147203390Y-59285285D01*
X147203390Y-59285285D02*
X147251009Y-59332904D01*
X147251009Y-59332904D02*
X147346247Y-59380523D01*
X140520009Y-57729333D02*
X140520009Y-58062666D01*
X141043819Y-58062666D02*
X140043819Y-58062666D01*
X140043819Y-58062666D02*
X140043819Y-57586476D01*
X140520009Y-56872190D02*
X140567628Y-56729333D01*
X140567628Y-56729333D02*
X140615247Y-56681714D01*
X140615247Y-56681714D02*
X140710485Y-56634095D01*
X140710485Y-56634095D02*
X140853342Y-56634095D01*
X140853342Y-56634095D02*
X140948580Y-56681714D01*
X140948580Y-56681714D02*
X140996200Y-56729333D01*
X140996200Y-56729333D02*
X141043819Y-56824571D01*
X141043819Y-56824571D02*
X141043819Y-57205523D01*
X141043819Y-57205523D02*
X140043819Y-57205523D01*
X140043819Y-57205523D02*
X140043819Y-56872190D01*
X140043819Y-56872190D02*
X140091438Y-56776952D01*
X140091438Y-56776952D02*
X140139057Y-56729333D01*
X140139057Y-56729333D02*
X140234295Y-56681714D01*
X140234295Y-56681714D02*
X140329533Y-56681714D01*
X140329533Y-56681714D02*
X140424771Y-56729333D01*
X140424771Y-56729333D02*
X140472390Y-56776952D01*
X140472390Y-56776952D02*
X140520009Y-56872190D01*
X140520009Y-56872190D02*
X140520009Y-57205523D01*
X141043819Y-55681714D02*
X141043819Y-56253142D01*
X141043819Y-55967428D02*
X140043819Y-55967428D01*
X140043819Y-55967428D02*
X140186676Y-56062666D01*
X140186676Y-56062666D02*
X140281914Y-56157904D01*
X140281914Y-56157904D02*
X140329533Y-56253142D01*
X158554819Y-56961904D02*
X159364342Y-56961904D01*
X159364342Y-56961904D02*
X159459580Y-56914285D01*
X159459580Y-56914285D02*
X159507200Y-56866666D01*
X159507200Y-56866666D02*
X159554819Y-56771428D01*
X159554819Y-56771428D02*
X159554819Y-56580952D01*
X159554819Y-56580952D02*
X159507200Y-56485714D01*
X159507200Y-56485714D02*
X159459580Y-56438095D01*
X159459580Y-56438095D02*
X159364342Y-56390476D01*
X159364342Y-56390476D02*
X158554819Y-56390476D01*
X159554819Y-55390476D02*
X159554819Y-55961904D01*
X159554819Y-55676190D02*
X158554819Y-55676190D01*
X158554819Y-55676190D02*
X158697676Y-55771428D01*
X158697676Y-55771428D02*
X158792914Y-55866666D01*
X158792914Y-55866666D02*
X158840533Y-55961904D01*
X163554580Y-93511666D02*
X163602200Y-93559285D01*
X163602200Y-93559285D02*
X163649819Y-93702142D01*
X163649819Y-93702142D02*
X163649819Y-93797380D01*
X163649819Y-93797380D02*
X163602200Y-93940237D01*
X163602200Y-93940237D02*
X163506961Y-94035475D01*
X163506961Y-94035475D02*
X163411723Y-94083094D01*
X163411723Y-94083094D02*
X163221247Y-94130713D01*
X163221247Y-94130713D02*
X163078390Y-94130713D01*
X163078390Y-94130713D02*
X162887914Y-94083094D01*
X162887914Y-94083094D02*
X162792676Y-94035475D01*
X162792676Y-94035475D02*
X162697438Y-93940237D01*
X162697438Y-93940237D02*
X162649819Y-93797380D01*
X162649819Y-93797380D02*
X162649819Y-93702142D01*
X162649819Y-93702142D02*
X162697438Y-93559285D01*
X162697438Y-93559285D02*
X162745057Y-93511666D01*
X162649819Y-93178332D02*
X162649819Y-92511666D01*
X162649819Y-92511666D02*
X163649819Y-92940237D01*
X171142819Y-77477857D02*
X170666628Y-77811190D01*
X171142819Y-78049285D02*
X170142819Y-78049285D01*
X170142819Y-78049285D02*
X170142819Y-77668333D01*
X170142819Y-77668333D02*
X170190438Y-77573095D01*
X170190438Y-77573095D02*
X170238057Y-77525476D01*
X170238057Y-77525476D02*
X170333295Y-77477857D01*
X170333295Y-77477857D02*
X170476152Y-77477857D01*
X170476152Y-77477857D02*
X170571390Y-77525476D01*
X170571390Y-77525476D02*
X170619009Y-77573095D01*
X170619009Y-77573095D02*
X170666628Y-77668333D01*
X170666628Y-77668333D02*
X170666628Y-78049285D01*
X170238057Y-77096904D02*
X170190438Y-77049285D01*
X170190438Y-77049285D02*
X170142819Y-76954047D01*
X170142819Y-76954047D02*
X170142819Y-76715952D01*
X170142819Y-76715952D02*
X170190438Y-76620714D01*
X170190438Y-76620714D02*
X170238057Y-76573095D01*
X170238057Y-76573095D02*
X170333295Y-76525476D01*
X170333295Y-76525476D02*
X170428533Y-76525476D01*
X170428533Y-76525476D02*
X170571390Y-76573095D01*
X170571390Y-76573095D02*
X171142819Y-77144523D01*
X171142819Y-77144523D02*
X171142819Y-76525476D01*
X170142819Y-76192142D02*
X170142819Y-75573095D01*
X170142819Y-75573095D02*
X170523771Y-75906428D01*
X170523771Y-75906428D02*
X170523771Y-75763571D01*
X170523771Y-75763571D02*
X170571390Y-75668333D01*
X170571390Y-75668333D02*
X170619009Y-75620714D01*
X170619009Y-75620714D02*
X170714247Y-75573095D01*
X170714247Y-75573095D02*
X170952342Y-75573095D01*
X170952342Y-75573095D02*
X171047580Y-75620714D01*
X171047580Y-75620714D02*
X171095200Y-75668333D01*
X171095200Y-75668333D02*
X171142819Y-75763571D01*
X171142819Y-75763571D02*
X171142819Y-76049285D01*
X171142819Y-76049285D02*
X171095200Y-76144523D01*
X171095200Y-76144523D02*
X171047580Y-76192142D01*
X175607142Y-73704819D02*
X175273809Y-73228628D01*
X175035714Y-73704819D02*
X175035714Y-72704819D01*
X175035714Y-72704819D02*
X175416666Y-72704819D01*
X175416666Y-72704819D02*
X175511904Y-72752438D01*
X175511904Y-72752438D02*
X175559523Y-72800057D01*
X175559523Y-72800057D02*
X175607142Y-72895295D01*
X175607142Y-72895295D02*
X175607142Y-73038152D01*
X175607142Y-73038152D02*
X175559523Y-73133390D01*
X175559523Y-73133390D02*
X175511904Y-73181009D01*
X175511904Y-73181009D02*
X175416666Y-73228628D01*
X175416666Y-73228628D02*
X175035714Y-73228628D01*
X176559523Y-73704819D02*
X175988095Y-73704819D01*
X176273809Y-73704819D02*
X176273809Y-72704819D01*
X176273809Y-72704819D02*
X176178571Y-72847676D01*
X176178571Y-72847676D02*
X176083333Y-72942914D01*
X176083333Y-72942914D02*
X175988095Y-72990533D01*
X177178571Y-72704819D02*
X177273809Y-72704819D01*
X177273809Y-72704819D02*
X177369047Y-72752438D01*
X177369047Y-72752438D02*
X177416666Y-72800057D01*
X177416666Y-72800057D02*
X177464285Y-72895295D01*
X177464285Y-72895295D02*
X177511904Y-73085771D01*
X177511904Y-73085771D02*
X177511904Y-73323866D01*
X177511904Y-73323866D02*
X177464285Y-73514342D01*
X177464285Y-73514342D02*
X177416666Y-73609580D01*
X177416666Y-73609580D02*
X177369047Y-73657200D01*
X177369047Y-73657200D02*
X177273809Y-73704819D01*
X177273809Y-73704819D02*
X177178571Y-73704819D01*
X177178571Y-73704819D02*
X177083333Y-73657200D01*
X177083333Y-73657200D02*
X177035714Y-73609580D01*
X177035714Y-73609580D02*
X176988095Y-73514342D01*
X176988095Y-73514342D02*
X176940476Y-73323866D01*
X176940476Y-73323866D02*
X176940476Y-73085771D01*
X176940476Y-73085771D02*
X176988095Y-72895295D01*
X176988095Y-72895295D02*
X177035714Y-72800057D01*
X177035714Y-72800057D02*
X177083333Y-72752438D01*
X177083333Y-72752438D02*
X177178571Y-72704819D01*
X140581142Y-61319580D02*
X140533523Y-61367200D01*
X140533523Y-61367200D02*
X140390666Y-61414819D01*
X140390666Y-61414819D02*
X140295428Y-61414819D01*
X140295428Y-61414819D02*
X140152571Y-61367200D01*
X140152571Y-61367200D02*
X140057333Y-61271961D01*
X140057333Y-61271961D02*
X140009714Y-61176723D01*
X140009714Y-61176723D02*
X139962095Y-60986247D01*
X139962095Y-60986247D02*
X139962095Y-60843390D01*
X139962095Y-60843390D02*
X140009714Y-60652914D01*
X140009714Y-60652914D02*
X140057333Y-60557676D01*
X140057333Y-60557676D02*
X140152571Y-60462438D01*
X140152571Y-60462438D02*
X140295428Y-60414819D01*
X140295428Y-60414819D02*
X140390666Y-60414819D01*
X140390666Y-60414819D02*
X140533523Y-60462438D01*
X140533523Y-60462438D02*
X140581142Y-60510057D01*
X141533523Y-61414819D02*
X140962095Y-61414819D01*
X141247809Y-61414819D02*
X141247809Y-60414819D01*
X141247809Y-60414819D02*
X141152571Y-60557676D01*
X141152571Y-60557676D02*
X141057333Y-60652914D01*
X141057333Y-60652914D02*
X140962095Y-60700533D01*
X141914476Y-60510057D02*
X141962095Y-60462438D01*
X141962095Y-60462438D02*
X142057333Y-60414819D01*
X142057333Y-60414819D02*
X142295428Y-60414819D01*
X142295428Y-60414819D02*
X142390666Y-60462438D01*
X142390666Y-60462438D02*
X142438285Y-60510057D01*
X142438285Y-60510057D02*
X142485904Y-60605295D01*
X142485904Y-60605295D02*
X142485904Y-60700533D01*
X142485904Y-60700533D02*
X142438285Y-60843390D01*
X142438285Y-60843390D02*
X141866857Y-61414819D01*
X141866857Y-61414819D02*
X142485904Y-61414819D01*
X138041142Y-84560580D02*
X137993523Y-84608200D01*
X137993523Y-84608200D02*
X137850666Y-84655819D01*
X137850666Y-84655819D02*
X137755428Y-84655819D01*
X137755428Y-84655819D02*
X137612571Y-84608200D01*
X137612571Y-84608200D02*
X137517333Y-84512961D01*
X137517333Y-84512961D02*
X137469714Y-84417723D01*
X137469714Y-84417723D02*
X137422095Y-84227247D01*
X137422095Y-84227247D02*
X137422095Y-84084390D01*
X137422095Y-84084390D02*
X137469714Y-83893914D01*
X137469714Y-83893914D02*
X137517333Y-83798676D01*
X137517333Y-83798676D02*
X137612571Y-83703438D01*
X137612571Y-83703438D02*
X137755428Y-83655819D01*
X137755428Y-83655819D02*
X137850666Y-83655819D01*
X137850666Y-83655819D02*
X137993523Y-83703438D01*
X137993523Y-83703438D02*
X138041142Y-83751057D01*
X138374476Y-83655819D02*
X138993523Y-83655819D01*
X138993523Y-83655819D02*
X138660190Y-84036771D01*
X138660190Y-84036771D02*
X138803047Y-84036771D01*
X138803047Y-84036771D02*
X138898285Y-84084390D01*
X138898285Y-84084390D02*
X138945904Y-84132009D01*
X138945904Y-84132009D02*
X138993523Y-84227247D01*
X138993523Y-84227247D02*
X138993523Y-84465342D01*
X138993523Y-84465342D02*
X138945904Y-84560580D01*
X138945904Y-84560580D02*
X138898285Y-84608200D01*
X138898285Y-84608200D02*
X138803047Y-84655819D01*
X138803047Y-84655819D02*
X138517333Y-84655819D01*
X138517333Y-84655819D02*
X138422095Y-84608200D01*
X138422095Y-84608200D02*
X138374476Y-84560580D01*
X139850666Y-83655819D02*
X139660190Y-83655819D01*
X139660190Y-83655819D02*
X139564952Y-83703438D01*
X139564952Y-83703438D02*
X139517333Y-83751057D01*
X139517333Y-83751057D02*
X139422095Y-83893914D01*
X139422095Y-83893914D02*
X139374476Y-84084390D01*
X139374476Y-84084390D02*
X139374476Y-84465342D01*
X139374476Y-84465342D02*
X139422095Y-84560580D01*
X139422095Y-84560580D02*
X139469714Y-84608200D01*
X139469714Y-84608200D02*
X139564952Y-84655819D01*
X139564952Y-84655819D02*
X139755428Y-84655819D01*
X139755428Y-84655819D02*
X139850666Y-84608200D01*
X139850666Y-84608200D02*
X139898285Y-84560580D01*
X139898285Y-84560580D02*
X139945904Y-84465342D01*
X139945904Y-84465342D02*
X139945904Y-84227247D01*
X139945904Y-84227247D02*
X139898285Y-84132009D01*
X139898285Y-84132009D02*
X139850666Y-84084390D01*
X139850666Y-84084390D02*
X139755428Y-84036771D01*
X139755428Y-84036771D02*
X139564952Y-84036771D01*
X139564952Y-84036771D02*
X139469714Y-84084390D01*
X139469714Y-84084390D02*
X139422095Y-84132009D01*
X139422095Y-84132009D02*
X139374476Y-84227247D01*
X127204819Y-65416666D02*
X126728628Y-65749999D01*
X127204819Y-65988094D02*
X126204819Y-65988094D01*
X126204819Y-65988094D02*
X126204819Y-65607142D01*
X126204819Y-65607142D02*
X126252438Y-65511904D01*
X126252438Y-65511904D02*
X126300057Y-65464285D01*
X126300057Y-65464285D02*
X126395295Y-65416666D01*
X126395295Y-65416666D02*
X126538152Y-65416666D01*
X126538152Y-65416666D02*
X126633390Y-65464285D01*
X126633390Y-65464285D02*
X126681009Y-65511904D01*
X126681009Y-65511904D02*
X126728628Y-65607142D01*
X126728628Y-65607142D02*
X126728628Y-65988094D01*
X126204819Y-64559523D02*
X126204819Y-64749999D01*
X126204819Y-64749999D02*
X126252438Y-64845237D01*
X126252438Y-64845237D02*
X126300057Y-64892856D01*
X126300057Y-64892856D02*
X126442914Y-64988094D01*
X126442914Y-64988094D02*
X126633390Y-65035713D01*
X126633390Y-65035713D02*
X127014342Y-65035713D01*
X127014342Y-65035713D02*
X127109580Y-64988094D01*
X127109580Y-64988094D02*
X127157200Y-64940475D01*
X127157200Y-64940475D02*
X127204819Y-64845237D01*
X127204819Y-64845237D02*
X127204819Y-64654761D01*
X127204819Y-64654761D02*
X127157200Y-64559523D01*
X127157200Y-64559523D02*
X127109580Y-64511904D01*
X127109580Y-64511904D02*
X127014342Y-64464285D01*
X127014342Y-64464285D02*
X126776247Y-64464285D01*
X126776247Y-64464285D02*
X126681009Y-64511904D01*
X126681009Y-64511904D02*
X126633390Y-64559523D01*
X126633390Y-64559523D02*
X126585771Y-64654761D01*
X126585771Y-64654761D02*
X126585771Y-64845237D01*
X126585771Y-64845237D02*
X126633390Y-64940475D01*
X126633390Y-64940475D02*
X126681009Y-64988094D01*
X126681009Y-64988094D02*
X126776247Y-65035713D01*
X135755142Y-80337819D02*
X135421809Y-79861628D01*
X135183714Y-80337819D02*
X135183714Y-79337819D01*
X135183714Y-79337819D02*
X135564666Y-79337819D01*
X135564666Y-79337819D02*
X135659904Y-79385438D01*
X135659904Y-79385438D02*
X135707523Y-79433057D01*
X135707523Y-79433057D02*
X135755142Y-79528295D01*
X135755142Y-79528295D02*
X135755142Y-79671152D01*
X135755142Y-79671152D02*
X135707523Y-79766390D01*
X135707523Y-79766390D02*
X135659904Y-79814009D01*
X135659904Y-79814009D02*
X135564666Y-79861628D01*
X135564666Y-79861628D02*
X135183714Y-79861628D01*
X136088476Y-79337819D02*
X136707523Y-79337819D01*
X136707523Y-79337819D02*
X136374190Y-79718771D01*
X136374190Y-79718771D02*
X136517047Y-79718771D01*
X136517047Y-79718771D02*
X136612285Y-79766390D01*
X136612285Y-79766390D02*
X136659904Y-79814009D01*
X136659904Y-79814009D02*
X136707523Y-79909247D01*
X136707523Y-79909247D02*
X136707523Y-80147342D01*
X136707523Y-80147342D02*
X136659904Y-80242580D01*
X136659904Y-80242580D02*
X136612285Y-80290200D01*
X136612285Y-80290200D02*
X136517047Y-80337819D01*
X136517047Y-80337819D02*
X136231333Y-80337819D01*
X136231333Y-80337819D02*
X136136095Y-80290200D01*
X136136095Y-80290200D02*
X136088476Y-80242580D01*
X137564666Y-79671152D02*
X137564666Y-80337819D01*
X137326571Y-79290200D02*
X137088476Y-80004485D01*
X137088476Y-80004485D02*
X137707523Y-80004485D01*
X176083333Y-78704819D02*
X175750000Y-78228628D01*
X175511905Y-78704819D02*
X175511905Y-77704819D01*
X175511905Y-77704819D02*
X175892857Y-77704819D01*
X175892857Y-77704819D02*
X175988095Y-77752438D01*
X175988095Y-77752438D02*
X176035714Y-77800057D01*
X176035714Y-77800057D02*
X176083333Y-77895295D01*
X176083333Y-77895295D02*
X176083333Y-78038152D01*
X176083333Y-78038152D02*
X176035714Y-78133390D01*
X176035714Y-78133390D02*
X175988095Y-78181009D01*
X175988095Y-78181009D02*
X175892857Y-78228628D01*
X175892857Y-78228628D02*
X175511905Y-78228628D01*
X176416667Y-77704819D02*
X177083333Y-77704819D01*
X177083333Y-77704819D02*
X176654762Y-78704819D01*
X157077580Y-89669857D02*
X157125200Y-89717476D01*
X157125200Y-89717476D02*
X157172819Y-89860333D01*
X157172819Y-89860333D02*
X157172819Y-89955571D01*
X157172819Y-89955571D02*
X157125200Y-90098428D01*
X157125200Y-90098428D02*
X157029961Y-90193666D01*
X157029961Y-90193666D02*
X156934723Y-90241285D01*
X156934723Y-90241285D02*
X156744247Y-90288904D01*
X156744247Y-90288904D02*
X156601390Y-90288904D01*
X156601390Y-90288904D02*
X156410914Y-90241285D01*
X156410914Y-90241285D02*
X156315676Y-90193666D01*
X156315676Y-90193666D02*
X156220438Y-90098428D01*
X156220438Y-90098428D02*
X156172819Y-89955571D01*
X156172819Y-89955571D02*
X156172819Y-89860333D01*
X156172819Y-89860333D02*
X156220438Y-89717476D01*
X156220438Y-89717476D02*
X156268057Y-89669857D01*
X156506152Y-88812714D02*
X157172819Y-88812714D01*
X156125200Y-89050809D02*
X156839485Y-89288904D01*
X156839485Y-89288904D02*
X156839485Y-88669857D01*
X156601390Y-88146047D02*
X156553771Y-88241285D01*
X156553771Y-88241285D02*
X156506152Y-88288904D01*
X156506152Y-88288904D02*
X156410914Y-88336523D01*
X156410914Y-88336523D02*
X156363295Y-88336523D01*
X156363295Y-88336523D02*
X156268057Y-88288904D01*
X156268057Y-88288904D02*
X156220438Y-88241285D01*
X156220438Y-88241285D02*
X156172819Y-88146047D01*
X156172819Y-88146047D02*
X156172819Y-87955571D01*
X156172819Y-87955571D02*
X156220438Y-87860333D01*
X156220438Y-87860333D02*
X156268057Y-87812714D01*
X156268057Y-87812714D02*
X156363295Y-87765095D01*
X156363295Y-87765095D02*
X156410914Y-87765095D01*
X156410914Y-87765095D02*
X156506152Y-87812714D01*
X156506152Y-87812714D02*
X156553771Y-87860333D01*
X156553771Y-87860333D02*
X156601390Y-87955571D01*
X156601390Y-87955571D02*
X156601390Y-88146047D01*
X156601390Y-88146047D02*
X156649009Y-88241285D01*
X156649009Y-88241285D02*
X156696628Y-88288904D01*
X156696628Y-88288904D02*
X156791866Y-88336523D01*
X156791866Y-88336523D02*
X156982342Y-88336523D01*
X156982342Y-88336523D02*
X157077580Y-88288904D01*
X157077580Y-88288904D02*
X157125200Y-88241285D01*
X157125200Y-88241285D02*
X157172819Y-88146047D01*
X157172819Y-88146047D02*
X157172819Y-87955571D01*
X157172819Y-87955571D02*
X157125200Y-87860333D01*
X157125200Y-87860333D02*
X157077580Y-87812714D01*
X157077580Y-87812714D02*
X156982342Y-87765095D01*
X156982342Y-87765095D02*
X156791866Y-87765095D01*
X156791866Y-87765095D02*
X156696628Y-87812714D01*
X156696628Y-87812714D02*
X156649009Y-87860333D01*
X156649009Y-87860333D02*
X156601390Y-87955571D01*
X154170142Y-61319580D02*
X154122523Y-61367200D01*
X154122523Y-61367200D02*
X153979666Y-61414819D01*
X153979666Y-61414819D02*
X153884428Y-61414819D01*
X153884428Y-61414819D02*
X153741571Y-61367200D01*
X153741571Y-61367200D02*
X153646333Y-61271961D01*
X153646333Y-61271961D02*
X153598714Y-61176723D01*
X153598714Y-61176723D02*
X153551095Y-60986247D01*
X153551095Y-60986247D02*
X153551095Y-60843390D01*
X153551095Y-60843390D02*
X153598714Y-60652914D01*
X153598714Y-60652914D02*
X153646333Y-60557676D01*
X153646333Y-60557676D02*
X153741571Y-60462438D01*
X153741571Y-60462438D02*
X153884428Y-60414819D01*
X153884428Y-60414819D02*
X153979666Y-60414819D01*
X153979666Y-60414819D02*
X154122523Y-60462438D01*
X154122523Y-60462438D02*
X154170142Y-60510057D01*
X155074904Y-60414819D02*
X154598714Y-60414819D01*
X154598714Y-60414819D02*
X154551095Y-60891009D01*
X154551095Y-60891009D02*
X154598714Y-60843390D01*
X154598714Y-60843390D02*
X154693952Y-60795771D01*
X154693952Y-60795771D02*
X154932047Y-60795771D01*
X154932047Y-60795771D02*
X155027285Y-60843390D01*
X155027285Y-60843390D02*
X155074904Y-60891009D01*
X155074904Y-60891009D02*
X155122523Y-60986247D01*
X155122523Y-60986247D02*
X155122523Y-61224342D01*
X155122523Y-61224342D02*
X155074904Y-61319580D01*
X155074904Y-61319580D02*
X155027285Y-61367200D01*
X155027285Y-61367200D02*
X154932047Y-61414819D01*
X154932047Y-61414819D02*
X154693952Y-61414819D01*
X154693952Y-61414819D02*
X154598714Y-61367200D01*
X154598714Y-61367200D02*
X154551095Y-61319580D01*
X155979666Y-60414819D02*
X155789190Y-60414819D01*
X155789190Y-60414819D02*
X155693952Y-60462438D01*
X155693952Y-60462438D02*
X155646333Y-60510057D01*
X155646333Y-60510057D02*
X155551095Y-60652914D01*
X155551095Y-60652914D02*
X155503476Y-60843390D01*
X155503476Y-60843390D02*
X155503476Y-61224342D01*
X155503476Y-61224342D02*
X155551095Y-61319580D01*
X155551095Y-61319580D02*
X155598714Y-61367200D01*
X155598714Y-61367200D02*
X155693952Y-61414819D01*
X155693952Y-61414819D02*
X155884428Y-61414819D01*
X155884428Y-61414819D02*
X155979666Y-61367200D01*
X155979666Y-61367200D02*
X156027285Y-61319580D01*
X156027285Y-61319580D02*
X156074904Y-61224342D01*
X156074904Y-61224342D02*
X156074904Y-60986247D01*
X156074904Y-60986247D02*
X156027285Y-60891009D01*
X156027285Y-60891009D02*
X155979666Y-60843390D01*
X155979666Y-60843390D02*
X155884428Y-60795771D01*
X155884428Y-60795771D02*
X155693952Y-60795771D01*
X155693952Y-60795771D02*
X155598714Y-60843390D01*
X155598714Y-60843390D02*
X155551095Y-60891009D01*
X155551095Y-60891009D02*
X155503476Y-60986247D01*
X153744819Y-92238094D02*
X152744819Y-92238094D01*
X152744819Y-92238094D02*
X152744819Y-91999999D01*
X152744819Y-91999999D02*
X152792438Y-91857142D01*
X152792438Y-91857142D02*
X152887676Y-91761904D01*
X152887676Y-91761904D02*
X152982914Y-91714285D01*
X152982914Y-91714285D02*
X153173390Y-91666666D01*
X153173390Y-91666666D02*
X153316247Y-91666666D01*
X153316247Y-91666666D02*
X153506723Y-91714285D01*
X153506723Y-91714285D02*
X153601961Y-91761904D01*
X153601961Y-91761904D02*
X153697200Y-91857142D01*
X153697200Y-91857142D02*
X153744819Y-91999999D01*
X153744819Y-91999999D02*
X153744819Y-92238094D01*
X152744819Y-91333332D02*
X152744819Y-90666666D01*
X152744819Y-90666666D02*
X153744819Y-91095237D01*
X170331104Y-88314285D02*
X170369200Y-88352381D01*
X170369200Y-88352381D02*
X170407295Y-88466666D01*
X170407295Y-88466666D02*
X170407295Y-88542857D01*
X170407295Y-88542857D02*
X170369200Y-88657143D01*
X170369200Y-88657143D02*
X170293009Y-88733333D01*
X170293009Y-88733333D02*
X170216819Y-88771428D01*
X170216819Y-88771428D02*
X170064438Y-88809524D01*
X170064438Y-88809524D02*
X169950152Y-88809524D01*
X169950152Y-88809524D02*
X169797771Y-88771428D01*
X169797771Y-88771428D02*
X169721580Y-88733333D01*
X169721580Y-88733333D02*
X169645390Y-88657143D01*
X169645390Y-88657143D02*
X169607295Y-88542857D01*
X169607295Y-88542857D02*
X169607295Y-88466666D01*
X169607295Y-88466666D02*
X169645390Y-88352381D01*
X169645390Y-88352381D02*
X169683485Y-88314285D01*
X169607295Y-87590476D02*
X169607295Y-87971428D01*
X169607295Y-87971428D02*
X169988247Y-88009524D01*
X169988247Y-88009524D02*
X169950152Y-87971428D01*
X169950152Y-87971428D02*
X169912057Y-87895238D01*
X169912057Y-87895238D02*
X169912057Y-87704762D01*
X169912057Y-87704762D02*
X169950152Y-87628571D01*
X169950152Y-87628571D02*
X169988247Y-87590476D01*
X169988247Y-87590476D02*
X170064438Y-87552381D01*
X170064438Y-87552381D02*
X170254914Y-87552381D01*
X170254914Y-87552381D02*
X170331104Y-87590476D01*
X170331104Y-87590476D02*
X170369200Y-87628571D01*
X170369200Y-87628571D02*
X170407295Y-87704762D01*
X170407295Y-87704762D02*
X170407295Y-87895238D01*
X170407295Y-87895238D02*
X170369200Y-87971428D01*
X170369200Y-87971428D02*
X170331104Y-88009524D01*
X169683485Y-87247619D02*
X169645390Y-87209523D01*
X169645390Y-87209523D02*
X169607295Y-87133333D01*
X169607295Y-87133333D02*
X169607295Y-86942857D01*
X169607295Y-86942857D02*
X169645390Y-86866666D01*
X169645390Y-86866666D02*
X169683485Y-86828571D01*
X169683485Y-86828571D02*
X169759676Y-86790476D01*
X169759676Y-86790476D02*
X169835866Y-86790476D01*
X169835866Y-86790476D02*
X169950152Y-86828571D01*
X169950152Y-86828571D02*
X170407295Y-87285714D01*
X170407295Y-87285714D02*
X170407295Y-86790476D01*
X138041142Y-86211580D02*
X137993523Y-86259200D01*
X137993523Y-86259200D02*
X137850666Y-86306819D01*
X137850666Y-86306819D02*
X137755428Y-86306819D01*
X137755428Y-86306819D02*
X137612571Y-86259200D01*
X137612571Y-86259200D02*
X137517333Y-86163961D01*
X137517333Y-86163961D02*
X137469714Y-86068723D01*
X137469714Y-86068723D02*
X137422095Y-85878247D01*
X137422095Y-85878247D02*
X137422095Y-85735390D01*
X137422095Y-85735390D02*
X137469714Y-85544914D01*
X137469714Y-85544914D02*
X137517333Y-85449676D01*
X137517333Y-85449676D02*
X137612571Y-85354438D01*
X137612571Y-85354438D02*
X137755428Y-85306819D01*
X137755428Y-85306819D02*
X137850666Y-85306819D01*
X137850666Y-85306819D02*
X137993523Y-85354438D01*
X137993523Y-85354438D02*
X138041142Y-85402057D01*
X138374476Y-85306819D02*
X138993523Y-85306819D01*
X138993523Y-85306819D02*
X138660190Y-85687771D01*
X138660190Y-85687771D02*
X138803047Y-85687771D01*
X138803047Y-85687771D02*
X138898285Y-85735390D01*
X138898285Y-85735390D02*
X138945904Y-85783009D01*
X138945904Y-85783009D02*
X138993523Y-85878247D01*
X138993523Y-85878247D02*
X138993523Y-86116342D01*
X138993523Y-86116342D02*
X138945904Y-86211580D01*
X138945904Y-86211580D02*
X138898285Y-86259200D01*
X138898285Y-86259200D02*
X138803047Y-86306819D01*
X138803047Y-86306819D02*
X138517333Y-86306819D01*
X138517333Y-86306819D02*
X138422095Y-86259200D01*
X138422095Y-86259200D02*
X138374476Y-86211580D01*
X139469714Y-86306819D02*
X139660190Y-86306819D01*
X139660190Y-86306819D02*
X139755428Y-86259200D01*
X139755428Y-86259200D02*
X139803047Y-86211580D01*
X139803047Y-86211580D02*
X139898285Y-86068723D01*
X139898285Y-86068723D02*
X139945904Y-85878247D01*
X139945904Y-85878247D02*
X139945904Y-85497295D01*
X139945904Y-85497295D02*
X139898285Y-85402057D01*
X139898285Y-85402057D02*
X139850666Y-85354438D01*
X139850666Y-85354438D02*
X139755428Y-85306819D01*
X139755428Y-85306819D02*
X139564952Y-85306819D01*
X139564952Y-85306819D02*
X139469714Y-85354438D01*
X139469714Y-85354438D02*
X139422095Y-85402057D01*
X139422095Y-85402057D02*
X139374476Y-85497295D01*
X139374476Y-85497295D02*
X139374476Y-85735390D01*
X139374476Y-85735390D02*
X139422095Y-85830628D01*
X139422095Y-85830628D02*
X139469714Y-85878247D01*
X139469714Y-85878247D02*
X139564952Y-85925866D01*
X139564952Y-85925866D02*
X139755428Y-85925866D01*
X139755428Y-85925866D02*
X139850666Y-85878247D01*
X139850666Y-85878247D02*
X139898285Y-85830628D01*
X139898285Y-85830628D02*
X139945904Y-85735390D01*
X157985714Y-104254819D02*
X157985714Y-103254819D01*
X157985714Y-103254819D02*
X158223809Y-103254819D01*
X158223809Y-103254819D02*
X158366666Y-103302438D01*
X158366666Y-103302438D02*
X158461904Y-103397676D01*
X158461904Y-103397676D02*
X158509523Y-103492914D01*
X158509523Y-103492914D02*
X158557142Y-103683390D01*
X158557142Y-103683390D02*
X158557142Y-103826247D01*
X158557142Y-103826247D02*
X158509523Y-104016723D01*
X158509523Y-104016723D02*
X158461904Y-104111961D01*
X158461904Y-104111961D02*
X158366666Y-104207200D01*
X158366666Y-104207200D02*
X158223809Y-104254819D01*
X158223809Y-104254819D02*
X157985714Y-104254819D01*
X159509523Y-104254819D02*
X158938095Y-104254819D01*
X159223809Y-104254819D02*
X159223809Y-103254819D01*
X159223809Y-103254819D02*
X159128571Y-103397676D01*
X159128571Y-103397676D02*
X159033333Y-103492914D01*
X159033333Y-103492914D02*
X158938095Y-103540533D01*
X160461904Y-104254819D02*
X159890476Y-104254819D01*
X160176190Y-104254819D02*
X160176190Y-103254819D01*
X160176190Y-103254819D02*
X160080952Y-103397676D01*
X160080952Y-103397676D02*
X159985714Y-103492914D01*
X159985714Y-103492914D02*
X159890476Y-103540533D01*
X154170142Y-59541580D02*
X154122523Y-59589200D01*
X154122523Y-59589200D02*
X153979666Y-59636819D01*
X153979666Y-59636819D02*
X153884428Y-59636819D01*
X153884428Y-59636819D02*
X153741571Y-59589200D01*
X153741571Y-59589200D02*
X153646333Y-59493961D01*
X153646333Y-59493961D02*
X153598714Y-59398723D01*
X153598714Y-59398723D02*
X153551095Y-59208247D01*
X153551095Y-59208247D02*
X153551095Y-59065390D01*
X153551095Y-59065390D02*
X153598714Y-58874914D01*
X153598714Y-58874914D02*
X153646333Y-58779676D01*
X153646333Y-58779676D02*
X153741571Y-58684438D01*
X153741571Y-58684438D02*
X153884428Y-58636819D01*
X153884428Y-58636819D02*
X153979666Y-58636819D01*
X153979666Y-58636819D02*
X154122523Y-58684438D01*
X154122523Y-58684438D02*
X154170142Y-58732057D01*
X155074904Y-58636819D02*
X154598714Y-58636819D01*
X154598714Y-58636819D02*
X154551095Y-59113009D01*
X154551095Y-59113009D02*
X154598714Y-59065390D01*
X154598714Y-59065390D02*
X154693952Y-59017771D01*
X154693952Y-59017771D02*
X154932047Y-59017771D01*
X154932047Y-59017771D02*
X155027285Y-59065390D01*
X155027285Y-59065390D02*
X155074904Y-59113009D01*
X155074904Y-59113009D02*
X155122523Y-59208247D01*
X155122523Y-59208247D02*
X155122523Y-59446342D01*
X155122523Y-59446342D02*
X155074904Y-59541580D01*
X155074904Y-59541580D02*
X155027285Y-59589200D01*
X155027285Y-59589200D02*
X154932047Y-59636819D01*
X154932047Y-59636819D02*
X154693952Y-59636819D01*
X154693952Y-59636819D02*
X154598714Y-59589200D01*
X154598714Y-59589200D02*
X154551095Y-59541580D01*
X155455857Y-58636819D02*
X156122523Y-58636819D01*
X156122523Y-58636819D02*
X155693952Y-59636819D01*
X124854819Y-75338094D02*
X123854819Y-75338094D01*
X123854819Y-75338094D02*
X123854819Y-75099999D01*
X123854819Y-75099999D02*
X123902438Y-74957142D01*
X123902438Y-74957142D02*
X123997676Y-74861904D01*
X123997676Y-74861904D02*
X124092914Y-74814285D01*
X124092914Y-74814285D02*
X124283390Y-74766666D01*
X124283390Y-74766666D02*
X124426247Y-74766666D01*
X124426247Y-74766666D02*
X124616723Y-74814285D01*
X124616723Y-74814285D02*
X124711961Y-74861904D01*
X124711961Y-74861904D02*
X124807200Y-74957142D01*
X124807200Y-74957142D02*
X124854819Y-75099999D01*
X124854819Y-75099999D02*
X124854819Y-75338094D01*
X124188152Y-73909523D02*
X124854819Y-73909523D01*
X123807200Y-74147618D02*
X124521485Y-74385713D01*
X124521485Y-74385713D02*
X124521485Y-73766666D01*
X173587580Y-79033666D02*
X173635200Y-79081285D01*
X173635200Y-79081285D02*
X173682819Y-79224142D01*
X173682819Y-79224142D02*
X173682819Y-79319380D01*
X173682819Y-79319380D02*
X173635200Y-79462237D01*
X173635200Y-79462237D02*
X173539961Y-79557475D01*
X173539961Y-79557475D02*
X173444723Y-79605094D01*
X173444723Y-79605094D02*
X173254247Y-79652713D01*
X173254247Y-79652713D02*
X173111390Y-79652713D01*
X173111390Y-79652713D02*
X172920914Y-79605094D01*
X172920914Y-79605094D02*
X172825676Y-79557475D01*
X172825676Y-79557475D02*
X172730438Y-79462237D01*
X172730438Y-79462237D02*
X172682819Y-79319380D01*
X172682819Y-79319380D02*
X172682819Y-79224142D01*
X172682819Y-79224142D02*
X172730438Y-79081285D01*
X172730438Y-79081285D02*
X172778057Y-79033666D01*
X173682819Y-78081285D02*
X173682819Y-78652713D01*
X173682819Y-78366999D02*
X172682819Y-78366999D01*
X172682819Y-78366999D02*
X172825676Y-78462237D01*
X172825676Y-78462237D02*
X172920914Y-78557475D01*
X172920914Y-78557475D02*
X172968533Y-78652713D01*
X135501142Y-68526819D02*
X135167809Y-68050628D01*
X134929714Y-68526819D02*
X134929714Y-67526819D01*
X134929714Y-67526819D02*
X135310666Y-67526819D01*
X135310666Y-67526819D02*
X135405904Y-67574438D01*
X135405904Y-67574438D02*
X135453523Y-67622057D01*
X135453523Y-67622057D02*
X135501142Y-67717295D01*
X135501142Y-67717295D02*
X135501142Y-67860152D01*
X135501142Y-67860152D02*
X135453523Y-67955390D01*
X135453523Y-67955390D02*
X135405904Y-68003009D01*
X135405904Y-68003009D02*
X135310666Y-68050628D01*
X135310666Y-68050628D02*
X134929714Y-68050628D01*
X135834476Y-67526819D02*
X136453523Y-67526819D01*
X136453523Y-67526819D02*
X136120190Y-67907771D01*
X136120190Y-67907771D02*
X136263047Y-67907771D01*
X136263047Y-67907771D02*
X136358285Y-67955390D01*
X136358285Y-67955390D02*
X136405904Y-68003009D01*
X136405904Y-68003009D02*
X136453523Y-68098247D01*
X136453523Y-68098247D02*
X136453523Y-68336342D01*
X136453523Y-68336342D02*
X136405904Y-68431580D01*
X136405904Y-68431580D02*
X136358285Y-68479200D01*
X136358285Y-68479200D02*
X136263047Y-68526819D01*
X136263047Y-68526819D02*
X135977333Y-68526819D01*
X135977333Y-68526819D02*
X135882095Y-68479200D01*
X135882095Y-68479200D02*
X135834476Y-68431580D01*
X136786857Y-67526819D02*
X137405904Y-67526819D01*
X137405904Y-67526819D02*
X137072571Y-67907771D01*
X137072571Y-67907771D02*
X137215428Y-67907771D01*
X137215428Y-67907771D02*
X137310666Y-67955390D01*
X137310666Y-67955390D02*
X137358285Y-68003009D01*
X137358285Y-68003009D02*
X137405904Y-68098247D01*
X137405904Y-68098247D02*
X137405904Y-68336342D01*
X137405904Y-68336342D02*
X137358285Y-68431580D01*
X137358285Y-68431580D02*
X137310666Y-68479200D01*
X137310666Y-68479200D02*
X137215428Y-68526819D01*
X137215428Y-68526819D02*
X136929714Y-68526819D01*
X136929714Y-68526819D02*
X136834476Y-68479200D01*
X136834476Y-68479200D02*
X136786857Y-68431580D01*
X145280142Y-103737580D02*
X145232523Y-103785200D01*
X145232523Y-103785200D02*
X145089666Y-103832819D01*
X145089666Y-103832819D02*
X144994428Y-103832819D01*
X144994428Y-103832819D02*
X144851571Y-103785200D01*
X144851571Y-103785200D02*
X144756333Y-103689961D01*
X144756333Y-103689961D02*
X144708714Y-103594723D01*
X144708714Y-103594723D02*
X144661095Y-103404247D01*
X144661095Y-103404247D02*
X144661095Y-103261390D01*
X144661095Y-103261390D02*
X144708714Y-103070914D01*
X144708714Y-103070914D02*
X144756333Y-102975676D01*
X144756333Y-102975676D02*
X144851571Y-102880438D01*
X144851571Y-102880438D02*
X144994428Y-102832819D01*
X144994428Y-102832819D02*
X145089666Y-102832819D01*
X145089666Y-102832819D02*
X145232523Y-102880438D01*
X145232523Y-102880438D02*
X145280142Y-102928057D01*
X145613476Y-102832819D02*
X146232523Y-102832819D01*
X146232523Y-102832819D02*
X145899190Y-103213771D01*
X145899190Y-103213771D02*
X146042047Y-103213771D01*
X146042047Y-103213771D02*
X146137285Y-103261390D01*
X146137285Y-103261390D02*
X146184904Y-103309009D01*
X146184904Y-103309009D02*
X146232523Y-103404247D01*
X146232523Y-103404247D02*
X146232523Y-103642342D01*
X146232523Y-103642342D02*
X146184904Y-103737580D01*
X146184904Y-103737580D02*
X146137285Y-103785200D01*
X146137285Y-103785200D02*
X146042047Y-103832819D01*
X146042047Y-103832819D02*
X145756333Y-103832819D01*
X145756333Y-103832819D02*
X145661095Y-103785200D01*
X145661095Y-103785200D02*
X145613476Y-103737580D01*
X147137285Y-102832819D02*
X146661095Y-102832819D01*
X146661095Y-102832819D02*
X146613476Y-103309009D01*
X146613476Y-103309009D02*
X146661095Y-103261390D01*
X146661095Y-103261390D02*
X146756333Y-103213771D01*
X146756333Y-103213771D02*
X146994428Y-103213771D01*
X146994428Y-103213771D02*
X147089666Y-103261390D01*
X147089666Y-103261390D02*
X147137285Y-103309009D01*
X147137285Y-103309009D02*
X147184904Y-103404247D01*
X147184904Y-103404247D02*
X147184904Y-103642342D01*
X147184904Y-103642342D02*
X147137285Y-103737580D01*
X147137285Y-103737580D02*
X147089666Y-103785200D01*
X147089666Y-103785200D02*
X146994428Y-103832819D01*
X146994428Y-103832819D02*
X146756333Y-103832819D01*
X146756333Y-103832819D02*
X146661095Y-103785200D01*
X146661095Y-103785200D02*
X146613476Y-103737580D01*
X161357142Y-51654819D02*
X161023809Y-51178628D01*
X160785714Y-51654819D02*
X160785714Y-50654819D01*
X160785714Y-50654819D02*
X161166666Y-50654819D01*
X161166666Y-50654819D02*
X161261904Y-50702438D01*
X161261904Y-50702438D02*
X161309523Y-50750057D01*
X161309523Y-50750057D02*
X161357142Y-50845295D01*
X161357142Y-50845295D02*
X161357142Y-50988152D01*
X161357142Y-50988152D02*
X161309523Y-51083390D01*
X161309523Y-51083390D02*
X161261904Y-51131009D01*
X161261904Y-51131009D02*
X161166666Y-51178628D01*
X161166666Y-51178628D02*
X160785714Y-51178628D01*
X162309523Y-51654819D02*
X161738095Y-51654819D01*
X162023809Y-51654819D02*
X162023809Y-50654819D01*
X162023809Y-50654819D02*
X161928571Y-50797676D01*
X161928571Y-50797676D02*
X161833333Y-50892914D01*
X161833333Y-50892914D02*
X161738095Y-50940533D01*
X162880952Y-51083390D02*
X162785714Y-51035771D01*
X162785714Y-51035771D02*
X162738095Y-50988152D01*
X162738095Y-50988152D02*
X162690476Y-50892914D01*
X162690476Y-50892914D02*
X162690476Y-50845295D01*
X162690476Y-50845295D02*
X162738095Y-50750057D01*
X162738095Y-50750057D02*
X162785714Y-50702438D01*
X162785714Y-50702438D02*
X162880952Y-50654819D01*
X162880952Y-50654819D02*
X163071428Y-50654819D01*
X163071428Y-50654819D02*
X163166666Y-50702438D01*
X163166666Y-50702438D02*
X163214285Y-50750057D01*
X163214285Y-50750057D02*
X163261904Y-50845295D01*
X163261904Y-50845295D02*
X163261904Y-50892914D01*
X163261904Y-50892914D02*
X163214285Y-50988152D01*
X163214285Y-50988152D02*
X163166666Y-51035771D01*
X163166666Y-51035771D02*
X163071428Y-51083390D01*
X163071428Y-51083390D02*
X162880952Y-51083390D01*
X162880952Y-51083390D02*
X162785714Y-51131009D01*
X162785714Y-51131009D02*
X162738095Y-51178628D01*
X162738095Y-51178628D02*
X162690476Y-51273866D01*
X162690476Y-51273866D02*
X162690476Y-51464342D01*
X162690476Y-51464342D02*
X162738095Y-51559580D01*
X162738095Y-51559580D02*
X162785714Y-51607200D01*
X162785714Y-51607200D02*
X162880952Y-51654819D01*
X162880952Y-51654819D02*
X163071428Y-51654819D01*
X163071428Y-51654819D02*
X163166666Y-51607200D01*
X163166666Y-51607200D02*
X163214285Y-51559580D01*
X163214285Y-51559580D02*
X163261904Y-51464342D01*
X163261904Y-51464342D02*
X163261904Y-51273866D01*
X163261904Y-51273866D02*
X163214285Y-51178628D01*
X163214285Y-51178628D02*
X163166666Y-51131009D01*
X163166666Y-51131009D02*
X163071428Y-51083390D01*
X151033333Y-51359580D02*
X150985714Y-51407200D01*
X150985714Y-51407200D02*
X150842857Y-51454819D01*
X150842857Y-51454819D02*
X150747619Y-51454819D01*
X150747619Y-51454819D02*
X150604762Y-51407200D01*
X150604762Y-51407200D02*
X150509524Y-51311961D01*
X150509524Y-51311961D02*
X150461905Y-51216723D01*
X150461905Y-51216723D02*
X150414286Y-51026247D01*
X150414286Y-51026247D02*
X150414286Y-50883390D01*
X150414286Y-50883390D02*
X150461905Y-50692914D01*
X150461905Y-50692914D02*
X150509524Y-50597676D01*
X150509524Y-50597676D02*
X150604762Y-50502438D01*
X150604762Y-50502438D02*
X150747619Y-50454819D01*
X150747619Y-50454819D02*
X150842857Y-50454819D01*
X150842857Y-50454819D02*
X150985714Y-50502438D01*
X150985714Y-50502438D02*
X151033333Y-50550057D01*
X151414286Y-50550057D02*
X151461905Y-50502438D01*
X151461905Y-50502438D02*
X151557143Y-50454819D01*
X151557143Y-50454819D02*
X151795238Y-50454819D01*
X151795238Y-50454819D02*
X151890476Y-50502438D01*
X151890476Y-50502438D02*
X151938095Y-50550057D01*
X151938095Y-50550057D02*
X151985714Y-50645295D01*
X151985714Y-50645295D02*
X151985714Y-50740533D01*
X151985714Y-50740533D02*
X151938095Y-50883390D01*
X151938095Y-50883390D02*
X151366667Y-51454819D01*
X151366667Y-51454819D02*
X151985714Y-51454819D01*
X122583333Y-78704819D02*
X122250000Y-78228628D01*
X122011905Y-78704819D02*
X122011905Y-77704819D01*
X122011905Y-77704819D02*
X122392857Y-77704819D01*
X122392857Y-77704819D02*
X122488095Y-77752438D01*
X122488095Y-77752438D02*
X122535714Y-77800057D01*
X122535714Y-77800057D02*
X122583333Y-77895295D01*
X122583333Y-77895295D02*
X122583333Y-78038152D01*
X122583333Y-78038152D02*
X122535714Y-78133390D01*
X122535714Y-78133390D02*
X122488095Y-78181009D01*
X122488095Y-78181009D02*
X122392857Y-78228628D01*
X122392857Y-78228628D02*
X122011905Y-78228628D01*
X123059524Y-78704819D02*
X123250000Y-78704819D01*
X123250000Y-78704819D02*
X123345238Y-78657200D01*
X123345238Y-78657200D02*
X123392857Y-78609580D01*
X123392857Y-78609580D02*
X123488095Y-78466723D01*
X123488095Y-78466723D02*
X123535714Y-78276247D01*
X123535714Y-78276247D02*
X123535714Y-77895295D01*
X123535714Y-77895295D02*
X123488095Y-77800057D01*
X123488095Y-77800057D02*
X123440476Y-77752438D01*
X123440476Y-77752438D02*
X123345238Y-77704819D01*
X123345238Y-77704819D02*
X123154762Y-77704819D01*
X123154762Y-77704819D02*
X123059524Y-77752438D01*
X123059524Y-77752438D02*
X123011905Y-77800057D01*
X123011905Y-77800057D02*
X122964286Y-77895295D01*
X122964286Y-77895295D02*
X122964286Y-78133390D01*
X122964286Y-78133390D02*
X123011905Y-78228628D01*
X123011905Y-78228628D02*
X123059524Y-78276247D01*
X123059524Y-78276247D02*
X123154762Y-78323866D01*
X123154762Y-78323866D02*
X123345238Y-78323866D01*
X123345238Y-78323866D02*
X123440476Y-78276247D01*
X123440476Y-78276247D02*
X123488095Y-78228628D01*
X123488095Y-78228628D02*
X123535714Y-78133390D01*
X161861905Y-89654819D02*
X161861905Y-88654819D01*
X161861905Y-88654819D02*
X162100000Y-88654819D01*
X162100000Y-88654819D02*
X162242857Y-88702438D01*
X162242857Y-88702438D02*
X162338095Y-88797676D01*
X162338095Y-88797676D02*
X162385714Y-88892914D01*
X162385714Y-88892914D02*
X162433333Y-89083390D01*
X162433333Y-89083390D02*
X162433333Y-89226247D01*
X162433333Y-89226247D02*
X162385714Y-89416723D01*
X162385714Y-89416723D02*
X162338095Y-89511961D01*
X162338095Y-89511961D02*
X162242857Y-89607200D01*
X162242857Y-89607200D02*
X162100000Y-89654819D01*
X162100000Y-89654819D02*
X161861905Y-89654819D01*
X162909524Y-89654819D02*
X163100000Y-89654819D01*
X163100000Y-89654819D02*
X163195238Y-89607200D01*
X163195238Y-89607200D02*
X163242857Y-89559580D01*
X163242857Y-89559580D02*
X163338095Y-89416723D01*
X163338095Y-89416723D02*
X163385714Y-89226247D01*
X163385714Y-89226247D02*
X163385714Y-88845295D01*
X163385714Y-88845295D02*
X163338095Y-88750057D01*
X163338095Y-88750057D02*
X163290476Y-88702438D01*
X163290476Y-88702438D02*
X163195238Y-88654819D01*
X163195238Y-88654819D02*
X163004762Y-88654819D01*
X163004762Y-88654819D02*
X162909524Y-88702438D01*
X162909524Y-88702438D02*
X162861905Y-88750057D01*
X162861905Y-88750057D02*
X162814286Y-88845295D01*
X162814286Y-88845295D02*
X162814286Y-89083390D01*
X162814286Y-89083390D02*
X162861905Y-89178628D01*
X162861905Y-89178628D02*
X162909524Y-89226247D01*
X162909524Y-89226247D02*
X163004762Y-89273866D01*
X163004762Y-89273866D02*
X163195238Y-89273866D01*
X163195238Y-89273866D02*
X163290476Y-89226247D01*
X163290476Y-89226247D02*
X163338095Y-89178628D01*
X163338095Y-89178628D02*
X163385714Y-89083390D01*
X167618580Y-78493857D02*
X167666200Y-78541476D01*
X167666200Y-78541476D02*
X167713819Y-78684333D01*
X167713819Y-78684333D02*
X167713819Y-78779571D01*
X167713819Y-78779571D02*
X167666200Y-78922428D01*
X167666200Y-78922428D02*
X167570961Y-79017666D01*
X167570961Y-79017666D02*
X167475723Y-79065285D01*
X167475723Y-79065285D02*
X167285247Y-79112904D01*
X167285247Y-79112904D02*
X167142390Y-79112904D01*
X167142390Y-79112904D02*
X166951914Y-79065285D01*
X166951914Y-79065285D02*
X166856676Y-79017666D01*
X166856676Y-79017666D02*
X166761438Y-78922428D01*
X166761438Y-78922428D02*
X166713819Y-78779571D01*
X166713819Y-78779571D02*
X166713819Y-78684333D01*
X166713819Y-78684333D02*
X166761438Y-78541476D01*
X166761438Y-78541476D02*
X166809057Y-78493857D01*
X166713819Y-77589095D02*
X166713819Y-78065285D01*
X166713819Y-78065285D02*
X167190009Y-78112904D01*
X167190009Y-78112904D02*
X167142390Y-78065285D01*
X167142390Y-78065285D02*
X167094771Y-77970047D01*
X167094771Y-77970047D02*
X167094771Y-77731952D01*
X167094771Y-77731952D02*
X167142390Y-77636714D01*
X167142390Y-77636714D02*
X167190009Y-77589095D01*
X167190009Y-77589095D02*
X167285247Y-77541476D01*
X167285247Y-77541476D02*
X167523342Y-77541476D01*
X167523342Y-77541476D02*
X167618580Y-77589095D01*
X167618580Y-77589095D02*
X167666200Y-77636714D01*
X167666200Y-77636714D02*
X167713819Y-77731952D01*
X167713819Y-77731952D02*
X167713819Y-77970047D01*
X167713819Y-77970047D02*
X167666200Y-78065285D01*
X167666200Y-78065285D02*
X167618580Y-78112904D01*
X167047152Y-76684333D02*
X167713819Y-76684333D01*
X166666200Y-76922428D02*
X167380485Y-77160523D01*
X167380485Y-77160523D02*
X167380485Y-76541476D01*
X125055333Y-79109580D02*
X125007714Y-79157200D01*
X125007714Y-79157200D02*
X124864857Y-79204819D01*
X124864857Y-79204819D02*
X124769619Y-79204819D01*
X124769619Y-79204819D02*
X124626762Y-79157200D01*
X124626762Y-79157200D02*
X124531524Y-79061961D01*
X124531524Y-79061961D02*
X124483905Y-78966723D01*
X124483905Y-78966723D02*
X124436286Y-78776247D01*
X124436286Y-78776247D02*
X124436286Y-78633390D01*
X124436286Y-78633390D02*
X124483905Y-78442914D01*
X124483905Y-78442914D02*
X124531524Y-78347676D01*
X124531524Y-78347676D02*
X124626762Y-78252438D01*
X124626762Y-78252438D02*
X124769619Y-78204819D01*
X124769619Y-78204819D02*
X124864857Y-78204819D01*
X124864857Y-78204819D02*
X125007714Y-78252438D01*
X125007714Y-78252438D02*
X125055333Y-78300057D01*
X125912476Y-78204819D02*
X125722000Y-78204819D01*
X125722000Y-78204819D02*
X125626762Y-78252438D01*
X125626762Y-78252438D02*
X125579143Y-78300057D01*
X125579143Y-78300057D02*
X125483905Y-78442914D01*
X125483905Y-78442914D02*
X125436286Y-78633390D01*
X125436286Y-78633390D02*
X125436286Y-79014342D01*
X125436286Y-79014342D02*
X125483905Y-79109580D01*
X125483905Y-79109580D02*
X125531524Y-79157200D01*
X125531524Y-79157200D02*
X125626762Y-79204819D01*
X125626762Y-79204819D02*
X125817238Y-79204819D01*
X125817238Y-79204819D02*
X125912476Y-79157200D01*
X125912476Y-79157200D02*
X125960095Y-79109580D01*
X125960095Y-79109580D02*
X126007714Y-79014342D01*
X126007714Y-79014342D02*
X126007714Y-78776247D01*
X126007714Y-78776247D02*
X125960095Y-78681009D01*
X125960095Y-78681009D02*
X125912476Y-78633390D01*
X125912476Y-78633390D02*
X125817238Y-78585771D01*
X125817238Y-78585771D02*
X125626762Y-78585771D01*
X125626762Y-78585771D02*
X125531524Y-78633390D01*
X125531524Y-78633390D02*
X125483905Y-78681009D01*
X125483905Y-78681009D02*
X125436286Y-78776247D01*
X135334476Y-56858819D02*
X135334476Y-57573104D01*
X135334476Y-57573104D02*
X135286857Y-57715961D01*
X135286857Y-57715961D02*
X135191619Y-57811200D01*
X135191619Y-57811200D02*
X135048762Y-57858819D01*
X135048762Y-57858819D02*
X134953524Y-57858819D01*
X136334476Y-57858819D02*
X135763048Y-57858819D01*
X136048762Y-57858819D02*
X136048762Y-56858819D01*
X136048762Y-56858819D02*
X135953524Y-57001676D01*
X135953524Y-57001676D02*
X135858286Y-57096914D01*
X135858286Y-57096914D02*
X135763048Y-57144533D01*
X137191619Y-56858819D02*
X137001143Y-56858819D01*
X137001143Y-56858819D02*
X136905905Y-56906438D01*
X136905905Y-56906438D02*
X136858286Y-56954057D01*
X136858286Y-56954057D02*
X136763048Y-57096914D01*
X136763048Y-57096914D02*
X136715429Y-57287390D01*
X136715429Y-57287390D02*
X136715429Y-57668342D01*
X136715429Y-57668342D02*
X136763048Y-57763580D01*
X136763048Y-57763580D02*
X136810667Y-57811200D01*
X136810667Y-57811200D02*
X136905905Y-57858819D01*
X136905905Y-57858819D02*
X137096381Y-57858819D01*
X137096381Y-57858819D02*
X137191619Y-57811200D01*
X137191619Y-57811200D02*
X137239238Y-57763580D01*
X137239238Y-57763580D02*
X137286857Y-57668342D01*
X137286857Y-57668342D02*
X137286857Y-57430247D01*
X137286857Y-57430247D02*
X137239238Y-57335009D01*
X137239238Y-57335009D02*
X137191619Y-57287390D01*
X137191619Y-57287390D02*
X137096381Y-57239771D01*
X137096381Y-57239771D02*
X136905905Y-57239771D01*
X136905905Y-57239771D02*
X136810667Y-57287390D01*
X136810667Y-57287390D02*
X136763048Y-57335009D01*
X136763048Y-57335009D02*
X136715429Y-57430247D01*
X132557142Y-108759580D02*
X132509523Y-108807200D01*
X132509523Y-108807200D02*
X132366666Y-108854819D01*
X132366666Y-108854819D02*
X132271428Y-108854819D01*
X132271428Y-108854819D02*
X132128571Y-108807200D01*
X132128571Y-108807200D02*
X132033333Y-108711961D01*
X132033333Y-108711961D02*
X131985714Y-108616723D01*
X131985714Y-108616723D02*
X131938095Y-108426247D01*
X131938095Y-108426247D02*
X131938095Y-108283390D01*
X131938095Y-108283390D02*
X131985714Y-108092914D01*
X131985714Y-108092914D02*
X132033333Y-107997676D01*
X132033333Y-107997676D02*
X132128571Y-107902438D01*
X132128571Y-107902438D02*
X132271428Y-107854819D01*
X132271428Y-107854819D02*
X132366666Y-107854819D01*
X132366666Y-107854819D02*
X132509523Y-107902438D01*
X132509523Y-107902438D02*
X132557142Y-107950057D01*
X133414285Y-108188152D02*
X133414285Y-108854819D01*
X133176190Y-107807200D02*
X132938095Y-108521485D01*
X132938095Y-108521485D02*
X133557142Y-108521485D01*
X134461904Y-108854819D02*
X133890476Y-108854819D01*
X134176190Y-108854819D02*
X134176190Y-107854819D01*
X134176190Y-107854819D02*
X134080952Y-107997676D01*
X134080952Y-107997676D02*
X133985714Y-108092914D01*
X133985714Y-108092914D02*
X133890476Y-108140533D01*
X129398819Y-101738094D02*
X130208342Y-101738094D01*
X130208342Y-101738094D02*
X130303580Y-101690475D01*
X130303580Y-101690475D02*
X130351200Y-101642856D01*
X130351200Y-101642856D02*
X130398819Y-101547618D01*
X130398819Y-101547618D02*
X130398819Y-101357142D01*
X130398819Y-101357142D02*
X130351200Y-101261904D01*
X130351200Y-101261904D02*
X130303580Y-101214285D01*
X130303580Y-101214285D02*
X130208342Y-101166666D01*
X130208342Y-101166666D02*
X129398819Y-101166666D01*
X130398819Y-100166666D02*
X130398819Y-100738094D01*
X130398819Y-100452380D02*
X129398819Y-100452380D01*
X129398819Y-100452380D02*
X129541676Y-100547618D01*
X129541676Y-100547618D02*
X129636914Y-100642856D01*
X129636914Y-100642856D02*
X129684533Y-100738094D01*
X130398819Y-99214285D02*
X130398819Y-99785713D01*
X130398819Y-99499999D02*
X129398819Y-99499999D01*
X129398819Y-99499999D02*
X129541676Y-99595237D01*
X129541676Y-99595237D02*
X129636914Y-99690475D01*
X129636914Y-99690475D02*
X129684533Y-99785713D01*
X176083333Y-67704819D02*
X175750000Y-67228628D01*
X175511905Y-67704819D02*
X175511905Y-66704819D01*
X175511905Y-66704819D02*
X175892857Y-66704819D01*
X175892857Y-66704819D02*
X175988095Y-66752438D01*
X175988095Y-66752438D02*
X176035714Y-66800057D01*
X176035714Y-66800057D02*
X176083333Y-66895295D01*
X176083333Y-66895295D02*
X176083333Y-67038152D01*
X176083333Y-67038152D02*
X176035714Y-67133390D01*
X176035714Y-67133390D02*
X175988095Y-67181009D01*
X175988095Y-67181009D02*
X175892857Y-67228628D01*
X175892857Y-67228628D02*
X175511905Y-67228628D01*
X176654762Y-67133390D02*
X176559524Y-67085771D01*
X176559524Y-67085771D02*
X176511905Y-67038152D01*
X176511905Y-67038152D02*
X176464286Y-66942914D01*
X176464286Y-66942914D02*
X176464286Y-66895295D01*
X176464286Y-66895295D02*
X176511905Y-66800057D01*
X176511905Y-66800057D02*
X176559524Y-66752438D01*
X176559524Y-66752438D02*
X176654762Y-66704819D01*
X176654762Y-66704819D02*
X176845238Y-66704819D01*
X176845238Y-66704819D02*
X176940476Y-66752438D01*
X176940476Y-66752438D02*
X176988095Y-66800057D01*
X176988095Y-66800057D02*
X177035714Y-66895295D01*
X177035714Y-66895295D02*
X177035714Y-66942914D01*
X177035714Y-66942914D02*
X176988095Y-67038152D01*
X176988095Y-67038152D02*
X176940476Y-67085771D01*
X176940476Y-67085771D02*
X176845238Y-67133390D01*
X176845238Y-67133390D02*
X176654762Y-67133390D01*
X176654762Y-67133390D02*
X176559524Y-67181009D01*
X176559524Y-67181009D02*
X176511905Y-67228628D01*
X176511905Y-67228628D02*
X176464286Y-67323866D01*
X176464286Y-67323866D02*
X176464286Y-67514342D01*
X176464286Y-67514342D02*
X176511905Y-67609580D01*
X176511905Y-67609580D02*
X176559524Y-67657200D01*
X176559524Y-67657200D02*
X176654762Y-67704819D01*
X176654762Y-67704819D02*
X176845238Y-67704819D01*
X176845238Y-67704819D02*
X176940476Y-67657200D01*
X176940476Y-67657200D02*
X176988095Y-67609580D01*
X176988095Y-67609580D02*
X177035714Y-67514342D01*
X177035714Y-67514342D02*
X177035714Y-67323866D01*
X177035714Y-67323866D02*
X176988095Y-67228628D01*
X176988095Y-67228628D02*
X176940476Y-67181009D01*
X176940476Y-67181009D02*
X176845238Y-67133390D01*
X127761905Y-84615819D02*
X127761905Y-83615819D01*
X127761905Y-83615819D02*
X128000000Y-83615819D01*
X128000000Y-83615819D02*
X128142857Y-83663438D01*
X128142857Y-83663438D02*
X128238095Y-83758676D01*
X128238095Y-83758676D02*
X128285714Y-83853914D01*
X128285714Y-83853914D02*
X128333333Y-84044390D01*
X128333333Y-84044390D02*
X128333333Y-84187247D01*
X128333333Y-84187247D02*
X128285714Y-84377723D01*
X128285714Y-84377723D02*
X128238095Y-84472961D01*
X128238095Y-84472961D02*
X128142857Y-84568200D01*
X128142857Y-84568200D02*
X128000000Y-84615819D01*
X128000000Y-84615819D02*
X127761905Y-84615819D01*
X128666667Y-83615819D02*
X129285714Y-83615819D01*
X129285714Y-83615819D02*
X128952381Y-83996771D01*
X128952381Y-83996771D02*
X129095238Y-83996771D01*
X129095238Y-83996771D02*
X129190476Y-84044390D01*
X129190476Y-84044390D02*
X129238095Y-84092009D01*
X129238095Y-84092009D02*
X129285714Y-84187247D01*
X129285714Y-84187247D02*
X129285714Y-84425342D01*
X129285714Y-84425342D02*
X129238095Y-84520580D01*
X129238095Y-84520580D02*
X129190476Y-84568200D01*
X129190476Y-84568200D02*
X129095238Y-84615819D01*
X129095238Y-84615819D02*
X128809524Y-84615819D01*
X128809524Y-84615819D02*
X128714286Y-84568200D01*
X128714286Y-84568200D02*
X128666667Y-84520580D01*
X122107142Y-73704819D02*
X121773809Y-73228628D01*
X121535714Y-73704819D02*
X121535714Y-72704819D01*
X121535714Y-72704819D02*
X121916666Y-72704819D01*
X121916666Y-72704819D02*
X122011904Y-72752438D01*
X122011904Y-72752438D02*
X122059523Y-72800057D01*
X122059523Y-72800057D02*
X122107142Y-72895295D01*
X122107142Y-72895295D02*
X122107142Y-73038152D01*
X122107142Y-73038152D02*
X122059523Y-73133390D01*
X122059523Y-73133390D02*
X122011904Y-73181009D01*
X122011904Y-73181009D02*
X121916666Y-73228628D01*
X121916666Y-73228628D02*
X121535714Y-73228628D01*
X123059523Y-73704819D02*
X122488095Y-73704819D01*
X122773809Y-73704819D02*
X122773809Y-72704819D01*
X122773809Y-72704819D02*
X122678571Y-72847676D01*
X122678571Y-72847676D02*
X122583333Y-72942914D01*
X122583333Y-72942914D02*
X122488095Y-72990533D01*
X123440476Y-72800057D02*
X123488095Y-72752438D01*
X123488095Y-72752438D02*
X123583333Y-72704819D01*
X123583333Y-72704819D02*
X123821428Y-72704819D01*
X123821428Y-72704819D02*
X123916666Y-72752438D01*
X123916666Y-72752438D02*
X123964285Y-72800057D01*
X123964285Y-72800057D02*
X124011904Y-72895295D01*
X124011904Y-72895295D02*
X124011904Y-72990533D01*
X124011904Y-72990533D02*
X123964285Y-73133390D01*
X123964285Y-73133390D02*
X123392857Y-73704819D01*
X123392857Y-73704819D02*
X124011904Y-73704819D01*
X166254819Y-67042857D02*
X165778628Y-67376190D01*
X166254819Y-67614285D02*
X165254819Y-67614285D01*
X165254819Y-67614285D02*
X165254819Y-67233333D01*
X165254819Y-67233333D02*
X165302438Y-67138095D01*
X165302438Y-67138095D02*
X165350057Y-67090476D01*
X165350057Y-67090476D02*
X165445295Y-67042857D01*
X165445295Y-67042857D02*
X165588152Y-67042857D01*
X165588152Y-67042857D02*
X165683390Y-67090476D01*
X165683390Y-67090476D02*
X165731009Y-67138095D01*
X165731009Y-67138095D02*
X165778628Y-67233333D01*
X165778628Y-67233333D02*
X165778628Y-67614285D01*
X166254819Y-66090476D02*
X166254819Y-66661904D01*
X166254819Y-66376190D02*
X165254819Y-66376190D01*
X165254819Y-66376190D02*
X165397676Y-66471428D01*
X165397676Y-66471428D02*
X165492914Y-66566666D01*
X165492914Y-66566666D02*
X165540533Y-66661904D01*
X165254819Y-65757142D02*
X165254819Y-65090476D01*
X165254819Y-65090476D02*
X166254819Y-65519047D01*
X130109580Y-65392857D02*
X130157200Y-65440476D01*
X130157200Y-65440476D02*
X130204819Y-65583333D01*
X130204819Y-65583333D02*
X130204819Y-65678571D01*
X130204819Y-65678571D02*
X130157200Y-65821428D01*
X130157200Y-65821428D02*
X130061961Y-65916666D01*
X130061961Y-65916666D02*
X129966723Y-65964285D01*
X129966723Y-65964285D02*
X129776247Y-66011904D01*
X129776247Y-66011904D02*
X129633390Y-66011904D01*
X129633390Y-66011904D02*
X129442914Y-65964285D01*
X129442914Y-65964285D02*
X129347676Y-65916666D01*
X129347676Y-65916666D02*
X129252438Y-65821428D01*
X129252438Y-65821428D02*
X129204819Y-65678571D01*
X129204819Y-65678571D02*
X129204819Y-65583333D01*
X129204819Y-65583333D02*
X129252438Y-65440476D01*
X129252438Y-65440476D02*
X129300057Y-65392857D01*
X129300057Y-65011904D02*
X129252438Y-64964285D01*
X129252438Y-64964285D02*
X129204819Y-64869047D01*
X129204819Y-64869047D02*
X129204819Y-64630952D01*
X129204819Y-64630952D02*
X129252438Y-64535714D01*
X129252438Y-64535714D02*
X129300057Y-64488095D01*
X129300057Y-64488095D02*
X129395295Y-64440476D01*
X129395295Y-64440476D02*
X129490533Y-64440476D01*
X129490533Y-64440476D02*
X129633390Y-64488095D01*
X129633390Y-64488095D02*
X130204819Y-65059523D01*
X130204819Y-65059523D02*
X130204819Y-64440476D01*
X130204819Y-63964285D02*
X130204819Y-63773809D01*
X130204819Y-63773809D02*
X130157200Y-63678571D01*
X130157200Y-63678571D02*
X130109580Y-63630952D01*
X130109580Y-63630952D02*
X129966723Y-63535714D01*
X129966723Y-63535714D02*
X129776247Y-63488095D01*
X129776247Y-63488095D02*
X129395295Y-63488095D01*
X129395295Y-63488095D02*
X129300057Y-63535714D01*
X129300057Y-63535714D02*
X129252438Y-63583333D01*
X129252438Y-63583333D02*
X129204819Y-63678571D01*
X129204819Y-63678571D02*
X129204819Y-63869047D01*
X129204819Y-63869047D02*
X129252438Y-63964285D01*
X129252438Y-63964285D02*
X129300057Y-64011904D01*
X129300057Y-64011904D02*
X129395295Y-64059523D01*
X129395295Y-64059523D02*
X129633390Y-64059523D01*
X129633390Y-64059523D02*
X129728628Y-64011904D01*
X129728628Y-64011904D02*
X129776247Y-63964285D01*
X129776247Y-63964285D02*
X129823866Y-63869047D01*
X129823866Y-63869047D02*
X129823866Y-63678571D01*
X129823866Y-63678571D02*
X129776247Y-63583333D01*
X129776247Y-63583333D02*
X129728628Y-63535714D01*
X129728628Y-63535714D02*
X129633390Y-63488095D01*
X157957142Y-51559580D02*
X157909523Y-51607200D01*
X157909523Y-51607200D02*
X157766666Y-51654819D01*
X157766666Y-51654819D02*
X157671428Y-51654819D01*
X157671428Y-51654819D02*
X157528571Y-51607200D01*
X157528571Y-51607200D02*
X157433333Y-51511961D01*
X157433333Y-51511961D02*
X157385714Y-51416723D01*
X157385714Y-51416723D02*
X157338095Y-51226247D01*
X157338095Y-51226247D02*
X157338095Y-51083390D01*
X157338095Y-51083390D02*
X157385714Y-50892914D01*
X157385714Y-50892914D02*
X157433333Y-50797676D01*
X157433333Y-50797676D02*
X157528571Y-50702438D01*
X157528571Y-50702438D02*
X157671428Y-50654819D01*
X157671428Y-50654819D02*
X157766666Y-50654819D01*
X157766666Y-50654819D02*
X157909523Y-50702438D01*
X157909523Y-50702438D02*
X157957142Y-50750057D01*
X158814285Y-50988152D02*
X158814285Y-51654819D01*
X158576190Y-50607200D02*
X158338095Y-51321485D01*
X158338095Y-51321485D02*
X158957142Y-51321485D01*
X159814285Y-50654819D02*
X159338095Y-50654819D01*
X159338095Y-50654819D02*
X159290476Y-51131009D01*
X159290476Y-51131009D02*
X159338095Y-51083390D01*
X159338095Y-51083390D02*
X159433333Y-51035771D01*
X159433333Y-51035771D02*
X159671428Y-51035771D01*
X159671428Y-51035771D02*
X159766666Y-51083390D01*
X159766666Y-51083390D02*
X159814285Y-51131009D01*
X159814285Y-51131009D02*
X159861904Y-51226247D01*
X159861904Y-51226247D02*
X159861904Y-51464342D01*
X159861904Y-51464342D02*
X159814285Y-51559580D01*
X159814285Y-51559580D02*
X159766666Y-51607200D01*
X159766666Y-51607200D02*
X159671428Y-51654819D01*
X159671428Y-51654819D02*
X159433333Y-51654819D01*
X159433333Y-51654819D02*
X159338095Y-51607200D01*
X159338095Y-51607200D02*
X159290476Y-51559580D01*
X140581142Y-59795580D02*
X140533523Y-59843200D01*
X140533523Y-59843200D02*
X140390666Y-59890819D01*
X140390666Y-59890819D02*
X140295428Y-59890819D01*
X140295428Y-59890819D02*
X140152571Y-59843200D01*
X140152571Y-59843200D02*
X140057333Y-59747961D01*
X140057333Y-59747961D02*
X140009714Y-59652723D01*
X140009714Y-59652723D02*
X139962095Y-59462247D01*
X139962095Y-59462247D02*
X139962095Y-59319390D01*
X139962095Y-59319390D02*
X140009714Y-59128914D01*
X140009714Y-59128914D02*
X140057333Y-59033676D01*
X140057333Y-59033676D02*
X140152571Y-58938438D01*
X140152571Y-58938438D02*
X140295428Y-58890819D01*
X140295428Y-58890819D02*
X140390666Y-58890819D01*
X140390666Y-58890819D02*
X140533523Y-58938438D01*
X140533523Y-58938438D02*
X140581142Y-58986057D01*
X141533523Y-59890819D02*
X140962095Y-59890819D01*
X141247809Y-59890819D02*
X141247809Y-58890819D01*
X141247809Y-58890819D02*
X141152571Y-59033676D01*
X141152571Y-59033676D02*
X141057333Y-59128914D01*
X141057333Y-59128914D02*
X140962095Y-59176533D01*
X141866857Y-58890819D02*
X142485904Y-58890819D01*
X142485904Y-58890819D02*
X142152571Y-59271771D01*
X142152571Y-59271771D02*
X142295428Y-59271771D01*
X142295428Y-59271771D02*
X142390666Y-59319390D01*
X142390666Y-59319390D02*
X142438285Y-59367009D01*
X142438285Y-59367009D02*
X142485904Y-59462247D01*
X142485904Y-59462247D02*
X142485904Y-59700342D01*
X142485904Y-59700342D02*
X142438285Y-59795580D01*
X142438285Y-59795580D02*
X142390666Y-59843200D01*
X142390666Y-59843200D02*
X142295428Y-59890819D01*
X142295428Y-59890819D02*
X142009714Y-59890819D01*
X142009714Y-59890819D02*
X141914476Y-59843200D01*
X141914476Y-59843200D02*
X141866857Y-59795580D01*
X150868142Y-105261580D02*
X150820523Y-105309200D01*
X150820523Y-105309200D02*
X150677666Y-105356819D01*
X150677666Y-105356819D02*
X150582428Y-105356819D01*
X150582428Y-105356819D02*
X150439571Y-105309200D01*
X150439571Y-105309200D02*
X150344333Y-105213961D01*
X150344333Y-105213961D02*
X150296714Y-105118723D01*
X150296714Y-105118723D02*
X150249095Y-104928247D01*
X150249095Y-104928247D02*
X150249095Y-104785390D01*
X150249095Y-104785390D02*
X150296714Y-104594914D01*
X150296714Y-104594914D02*
X150344333Y-104499676D01*
X150344333Y-104499676D02*
X150439571Y-104404438D01*
X150439571Y-104404438D02*
X150582428Y-104356819D01*
X150582428Y-104356819D02*
X150677666Y-104356819D01*
X150677666Y-104356819D02*
X150820523Y-104404438D01*
X150820523Y-104404438D02*
X150868142Y-104452057D01*
X151772904Y-104356819D02*
X151296714Y-104356819D01*
X151296714Y-104356819D02*
X151249095Y-104833009D01*
X151249095Y-104833009D02*
X151296714Y-104785390D01*
X151296714Y-104785390D02*
X151391952Y-104737771D01*
X151391952Y-104737771D02*
X151630047Y-104737771D01*
X151630047Y-104737771D02*
X151725285Y-104785390D01*
X151725285Y-104785390D02*
X151772904Y-104833009D01*
X151772904Y-104833009D02*
X151820523Y-104928247D01*
X151820523Y-104928247D02*
X151820523Y-105166342D01*
X151820523Y-105166342D02*
X151772904Y-105261580D01*
X151772904Y-105261580D02*
X151725285Y-105309200D01*
X151725285Y-105309200D02*
X151630047Y-105356819D01*
X151630047Y-105356819D02*
X151391952Y-105356819D01*
X151391952Y-105356819D02*
X151296714Y-105309200D01*
X151296714Y-105309200D02*
X151249095Y-105261580D01*
X152153857Y-104356819D02*
X152772904Y-104356819D01*
X152772904Y-104356819D02*
X152439571Y-104737771D01*
X152439571Y-104737771D02*
X152582428Y-104737771D01*
X152582428Y-104737771D02*
X152677666Y-104785390D01*
X152677666Y-104785390D02*
X152725285Y-104833009D01*
X152725285Y-104833009D02*
X152772904Y-104928247D01*
X152772904Y-104928247D02*
X152772904Y-105166342D01*
X152772904Y-105166342D02*
X152725285Y-105261580D01*
X152725285Y-105261580D02*
X152677666Y-105309200D01*
X152677666Y-105309200D02*
X152582428Y-105356819D01*
X152582428Y-105356819D02*
X152296714Y-105356819D01*
X152296714Y-105356819D02*
X152201476Y-105309200D01*
X152201476Y-105309200D02*
X152153857Y-105261580D01*
X141043819Y-101195094D02*
X140043819Y-101195094D01*
X140043819Y-101195094D02*
X140043819Y-100956999D01*
X140043819Y-100956999D02*
X140091438Y-100814142D01*
X140091438Y-100814142D02*
X140186676Y-100718904D01*
X140186676Y-100718904D02*
X140281914Y-100671285D01*
X140281914Y-100671285D02*
X140472390Y-100623666D01*
X140472390Y-100623666D02*
X140615247Y-100623666D01*
X140615247Y-100623666D02*
X140805723Y-100671285D01*
X140805723Y-100671285D02*
X140900961Y-100718904D01*
X140900961Y-100718904D02*
X140996200Y-100814142D01*
X140996200Y-100814142D02*
X141043819Y-100956999D01*
X141043819Y-100956999D02*
X141043819Y-101195094D01*
X140472390Y-100052237D02*
X140424771Y-100147475D01*
X140424771Y-100147475D02*
X140377152Y-100195094D01*
X140377152Y-100195094D02*
X140281914Y-100242713D01*
X140281914Y-100242713D02*
X140234295Y-100242713D01*
X140234295Y-100242713D02*
X140139057Y-100195094D01*
X140139057Y-100195094D02*
X140091438Y-100147475D01*
X140091438Y-100147475D02*
X140043819Y-100052237D01*
X140043819Y-100052237D02*
X140043819Y-99861761D01*
X140043819Y-99861761D02*
X140091438Y-99766523D01*
X140091438Y-99766523D02*
X140139057Y-99718904D01*
X140139057Y-99718904D02*
X140234295Y-99671285D01*
X140234295Y-99671285D02*
X140281914Y-99671285D01*
X140281914Y-99671285D02*
X140377152Y-99718904D01*
X140377152Y-99718904D02*
X140424771Y-99766523D01*
X140424771Y-99766523D02*
X140472390Y-99861761D01*
X140472390Y-99861761D02*
X140472390Y-100052237D01*
X140472390Y-100052237D02*
X140520009Y-100147475D01*
X140520009Y-100147475D02*
X140567628Y-100195094D01*
X140567628Y-100195094D02*
X140662866Y-100242713D01*
X140662866Y-100242713D02*
X140853342Y-100242713D01*
X140853342Y-100242713D02*
X140948580Y-100195094D01*
X140948580Y-100195094D02*
X140996200Y-100147475D01*
X140996200Y-100147475D02*
X141043819Y-100052237D01*
X141043819Y-100052237D02*
X141043819Y-99861761D01*
X141043819Y-99861761D02*
X140996200Y-99766523D01*
X140996200Y-99766523D02*
X140948580Y-99718904D01*
X140948580Y-99718904D02*
X140853342Y-99671285D01*
X140853342Y-99671285D02*
X140662866Y-99671285D01*
X140662866Y-99671285D02*
X140567628Y-99718904D01*
X140567628Y-99718904D02*
X140520009Y-99766523D01*
X140520009Y-99766523D02*
X140472390Y-99861761D01*
X130929142Y-86159580D02*
X130881523Y-86207200D01*
X130881523Y-86207200D02*
X130738666Y-86254819D01*
X130738666Y-86254819D02*
X130643428Y-86254819D01*
X130643428Y-86254819D02*
X130500571Y-86207200D01*
X130500571Y-86207200D02*
X130405333Y-86111961D01*
X130405333Y-86111961D02*
X130357714Y-86016723D01*
X130357714Y-86016723D02*
X130310095Y-85826247D01*
X130310095Y-85826247D02*
X130310095Y-85683390D01*
X130310095Y-85683390D02*
X130357714Y-85492914D01*
X130357714Y-85492914D02*
X130405333Y-85397676D01*
X130405333Y-85397676D02*
X130500571Y-85302438D01*
X130500571Y-85302438D02*
X130643428Y-85254819D01*
X130643428Y-85254819D02*
X130738666Y-85254819D01*
X130738666Y-85254819D02*
X130881523Y-85302438D01*
X130881523Y-85302438D02*
X130929142Y-85350057D01*
X131262476Y-85254819D02*
X131881523Y-85254819D01*
X131881523Y-85254819D02*
X131548190Y-85635771D01*
X131548190Y-85635771D02*
X131691047Y-85635771D01*
X131691047Y-85635771D02*
X131786285Y-85683390D01*
X131786285Y-85683390D02*
X131833904Y-85731009D01*
X131833904Y-85731009D02*
X131881523Y-85826247D01*
X131881523Y-85826247D02*
X131881523Y-86064342D01*
X131881523Y-86064342D02*
X131833904Y-86159580D01*
X131833904Y-86159580D02*
X131786285Y-86207200D01*
X131786285Y-86207200D02*
X131691047Y-86254819D01*
X131691047Y-86254819D02*
X131405333Y-86254819D01*
X131405333Y-86254819D02*
X131310095Y-86207200D01*
X131310095Y-86207200D02*
X131262476Y-86159580D01*
X132262476Y-85350057D02*
X132310095Y-85302438D01*
X132310095Y-85302438D02*
X132405333Y-85254819D01*
X132405333Y-85254819D02*
X132643428Y-85254819D01*
X132643428Y-85254819D02*
X132738666Y-85302438D01*
X132738666Y-85302438D02*
X132786285Y-85350057D01*
X132786285Y-85350057D02*
X132833904Y-85445295D01*
X132833904Y-85445295D02*
X132833904Y-85540533D01*
X132833904Y-85540533D02*
X132786285Y-85683390D01*
X132786285Y-85683390D02*
X132214857Y-86254819D01*
X132214857Y-86254819D02*
X132833904Y-86254819D01*
X167713819Y-89796857D02*
X167237628Y-90130190D01*
X167713819Y-90368285D02*
X166713819Y-90368285D01*
X166713819Y-90368285D02*
X166713819Y-89987333D01*
X166713819Y-89987333D02*
X166761438Y-89892095D01*
X166761438Y-89892095D02*
X166809057Y-89844476D01*
X166809057Y-89844476D02*
X166904295Y-89796857D01*
X166904295Y-89796857D02*
X167047152Y-89796857D01*
X167047152Y-89796857D02*
X167142390Y-89844476D01*
X167142390Y-89844476D02*
X167190009Y-89892095D01*
X167190009Y-89892095D02*
X167237628Y-89987333D01*
X167237628Y-89987333D02*
X167237628Y-90368285D01*
X166713819Y-89463523D02*
X166713819Y-88844476D01*
X166713819Y-88844476D02*
X167094771Y-89177809D01*
X167094771Y-89177809D02*
X167094771Y-89034952D01*
X167094771Y-89034952D02*
X167142390Y-88939714D01*
X167142390Y-88939714D02*
X167190009Y-88892095D01*
X167190009Y-88892095D02*
X167285247Y-88844476D01*
X167285247Y-88844476D02*
X167523342Y-88844476D01*
X167523342Y-88844476D02*
X167618580Y-88892095D01*
X167618580Y-88892095D02*
X167666200Y-88939714D01*
X167666200Y-88939714D02*
X167713819Y-89034952D01*
X167713819Y-89034952D02*
X167713819Y-89320666D01*
X167713819Y-89320666D02*
X167666200Y-89415904D01*
X167666200Y-89415904D02*
X167618580Y-89463523D01*
X166713819Y-87939714D02*
X166713819Y-88415904D01*
X166713819Y-88415904D02*
X167190009Y-88463523D01*
X167190009Y-88463523D02*
X167142390Y-88415904D01*
X167142390Y-88415904D02*
X167094771Y-88320666D01*
X167094771Y-88320666D02*
X167094771Y-88082571D01*
X167094771Y-88082571D02*
X167142390Y-87987333D01*
X167142390Y-87987333D02*
X167190009Y-87939714D01*
X167190009Y-87939714D02*
X167285247Y-87892095D01*
X167285247Y-87892095D02*
X167523342Y-87892095D01*
X167523342Y-87892095D02*
X167618580Y-87939714D01*
X167618580Y-87939714D02*
X167666200Y-87987333D01*
X167666200Y-87987333D02*
X167713819Y-88082571D01*
X167713819Y-88082571D02*
X167713819Y-88320666D01*
X167713819Y-88320666D02*
X167666200Y-88415904D01*
X167666200Y-88415904D02*
X167618580Y-88463523D01*
X131704819Y-65416666D02*
X131228628Y-65749999D01*
X131704819Y-65988094D02*
X130704819Y-65988094D01*
X130704819Y-65988094D02*
X130704819Y-65607142D01*
X130704819Y-65607142D02*
X130752438Y-65511904D01*
X130752438Y-65511904D02*
X130800057Y-65464285D01*
X130800057Y-65464285D02*
X130895295Y-65416666D01*
X130895295Y-65416666D02*
X131038152Y-65416666D01*
X131038152Y-65416666D02*
X131133390Y-65464285D01*
X131133390Y-65464285D02*
X131181009Y-65511904D01*
X131181009Y-65511904D02*
X131228628Y-65607142D01*
X131228628Y-65607142D02*
X131228628Y-65988094D01*
X130704819Y-64511904D02*
X130704819Y-64988094D01*
X130704819Y-64988094D02*
X131181009Y-65035713D01*
X131181009Y-65035713D02*
X131133390Y-64988094D01*
X131133390Y-64988094D02*
X131085771Y-64892856D01*
X131085771Y-64892856D02*
X131085771Y-64654761D01*
X131085771Y-64654761D02*
X131133390Y-64559523D01*
X131133390Y-64559523D02*
X131181009Y-64511904D01*
X131181009Y-64511904D02*
X131276247Y-64464285D01*
X131276247Y-64464285D02*
X131514342Y-64464285D01*
X131514342Y-64464285D02*
X131609580Y-64511904D01*
X131609580Y-64511904D02*
X131657200Y-64559523D01*
X131657200Y-64559523D02*
X131704819Y-64654761D01*
X131704819Y-64654761D02*
X131704819Y-64892856D01*
X131704819Y-64892856D02*
X131657200Y-64988094D01*
X131657200Y-64988094D02*
X131609580Y-65035713D01*
X164559580Y-67042857D02*
X164607200Y-67090476D01*
X164607200Y-67090476D02*
X164654819Y-67233333D01*
X164654819Y-67233333D02*
X164654819Y-67328571D01*
X164654819Y-67328571D02*
X164607200Y-67471428D01*
X164607200Y-67471428D02*
X164511961Y-67566666D01*
X164511961Y-67566666D02*
X164416723Y-67614285D01*
X164416723Y-67614285D02*
X164226247Y-67661904D01*
X164226247Y-67661904D02*
X164083390Y-67661904D01*
X164083390Y-67661904D02*
X163892914Y-67614285D01*
X163892914Y-67614285D02*
X163797676Y-67566666D01*
X163797676Y-67566666D02*
X163702438Y-67471428D01*
X163702438Y-67471428D02*
X163654819Y-67328571D01*
X163654819Y-67328571D02*
X163654819Y-67233333D01*
X163654819Y-67233333D02*
X163702438Y-67090476D01*
X163702438Y-67090476D02*
X163750057Y-67042857D01*
X164654819Y-66090476D02*
X164654819Y-66661904D01*
X164654819Y-66376190D02*
X163654819Y-66376190D01*
X163654819Y-66376190D02*
X163797676Y-66471428D01*
X163797676Y-66471428D02*
X163892914Y-66566666D01*
X163892914Y-66566666D02*
X163940533Y-66661904D01*
X163654819Y-65185714D02*
X163654819Y-65661904D01*
X163654819Y-65661904D02*
X164131009Y-65709523D01*
X164131009Y-65709523D02*
X164083390Y-65661904D01*
X164083390Y-65661904D02*
X164035771Y-65566666D01*
X164035771Y-65566666D02*
X164035771Y-65328571D01*
X164035771Y-65328571D02*
X164083390Y-65233333D01*
X164083390Y-65233333D02*
X164131009Y-65185714D01*
X164131009Y-65185714D02*
X164226247Y-65138095D01*
X164226247Y-65138095D02*
X164464342Y-65138095D01*
X164464342Y-65138095D02*
X164559580Y-65185714D01*
X164559580Y-65185714D02*
X164607200Y-65233333D01*
X164607200Y-65233333D02*
X164654819Y-65328571D01*
X164654819Y-65328571D02*
X164654819Y-65566666D01*
X164654819Y-65566666D02*
X164607200Y-65661904D01*
X164607200Y-65661904D02*
X164559580Y-65709523D01*
X172559580Y-67794857D02*
X172607200Y-67842476D01*
X172607200Y-67842476D02*
X172654819Y-67985333D01*
X172654819Y-67985333D02*
X172654819Y-68080571D01*
X172654819Y-68080571D02*
X172607200Y-68223428D01*
X172607200Y-68223428D02*
X172511961Y-68318666D01*
X172511961Y-68318666D02*
X172416723Y-68366285D01*
X172416723Y-68366285D02*
X172226247Y-68413904D01*
X172226247Y-68413904D02*
X172083390Y-68413904D01*
X172083390Y-68413904D02*
X171892914Y-68366285D01*
X171892914Y-68366285D02*
X171797676Y-68318666D01*
X171797676Y-68318666D02*
X171702438Y-68223428D01*
X171702438Y-68223428D02*
X171654819Y-68080571D01*
X171654819Y-68080571D02*
X171654819Y-67985333D01*
X171654819Y-67985333D02*
X171702438Y-67842476D01*
X171702438Y-67842476D02*
X171750057Y-67794857D01*
X172654819Y-66842476D02*
X172654819Y-67413904D01*
X172654819Y-67128190D02*
X171654819Y-67128190D01*
X171654819Y-67128190D02*
X171797676Y-67223428D01*
X171797676Y-67223428D02*
X171892914Y-67318666D01*
X171892914Y-67318666D02*
X171940533Y-67413904D01*
X171988152Y-65985333D02*
X172654819Y-65985333D01*
X171607200Y-66223428D02*
X172321485Y-66461523D01*
X172321485Y-66461523D02*
X172321485Y-65842476D01*
X163822142Y-59795580D02*
X163774523Y-59843200D01*
X163774523Y-59843200D02*
X163631666Y-59890819D01*
X163631666Y-59890819D02*
X163536428Y-59890819D01*
X163536428Y-59890819D02*
X163393571Y-59843200D01*
X163393571Y-59843200D02*
X163298333Y-59747961D01*
X163298333Y-59747961D02*
X163250714Y-59652723D01*
X163250714Y-59652723D02*
X163203095Y-59462247D01*
X163203095Y-59462247D02*
X163203095Y-59319390D01*
X163203095Y-59319390D02*
X163250714Y-59128914D01*
X163250714Y-59128914D02*
X163298333Y-59033676D01*
X163298333Y-59033676D02*
X163393571Y-58938438D01*
X163393571Y-58938438D02*
X163536428Y-58890819D01*
X163536428Y-58890819D02*
X163631666Y-58890819D01*
X163631666Y-58890819D02*
X163774523Y-58938438D01*
X163774523Y-58938438D02*
X163822142Y-58986057D01*
X164679285Y-59224152D02*
X164679285Y-59890819D01*
X164441190Y-58843200D02*
X164203095Y-59557485D01*
X164203095Y-59557485D02*
X164822142Y-59557485D01*
X165155476Y-58986057D02*
X165203095Y-58938438D01*
X165203095Y-58938438D02*
X165298333Y-58890819D01*
X165298333Y-58890819D02*
X165536428Y-58890819D01*
X165536428Y-58890819D02*
X165631666Y-58938438D01*
X165631666Y-58938438D02*
X165679285Y-58986057D01*
X165679285Y-58986057D02*
X165726904Y-59081295D01*
X165726904Y-59081295D02*
X165726904Y-59176533D01*
X165726904Y-59176533D02*
X165679285Y-59319390D01*
X165679285Y-59319390D02*
X165107857Y-59890819D01*
X165107857Y-59890819D02*
X165726904Y-59890819D01*
X159250142Y-70558819D02*
X158916809Y-70082628D01*
X158678714Y-70558819D02*
X158678714Y-69558819D01*
X158678714Y-69558819D02*
X159059666Y-69558819D01*
X159059666Y-69558819D02*
X159154904Y-69606438D01*
X159154904Y-69606438D02*
X159202523Y-69654057D01*
X159202523Y-69654057D02*
X159250142Y-69749295D01*
X159250142Y-69749295D02*
X159250142Y-69892152D01*
X159250142Y-69892152D02*
X159202523Y-69987390D01*
X159202523Y-69987390D02*
X159154904Y-70035009D01*
X159154904Y-70035009D02*
X159059666Y-70082628D01*
X159059666Y-70082628D02*
X158678714Y-70082628D01*
X159631095Y-69654057D02*
X159678714Y-69606438D01*
X159678714Y-69606438D02*
X159773952Y-69558819D01*
X159773952Y-69558819D02*
X160012047Y-69558819D01*
X160012047Y-69558819D02*
X160107285Y-69606438D01*
X160107285Y-69606438D02*
X160154904Y-69654057D01*
X160154904Y-69654057D02*
X160202523Y-69749295D01*
X160202523Y-69749295D02*
X160202523Y-69844533D01*
X160202523Y-69844533D02*
X160154904Y-69987390D01*
X160154904Y-69987390D02*
X159583476Y-70558819D01*
X159583476Y-70558819D02*
X160202523Y-70558819D01*
X161154904Y-70558819D02*
X160583476Y-70558819D01*
X160869190Y-70558819D02*
X160869190Y-69558819D01*
X160869190Y-69558819D02*
X160773952Y-69701676D01*
X160773952Y-69701676D02*
X160678714Y-69796914D01*
X160678714Y-69796914D02*
X160583476Y-69844533D01*
X169523580Y-77477857D02*
X169571200Y-77525476D01*
X169571200Y-77525476D02*
X169618819Y-77668333D01*
X169618819Y-77668333D02*
X169618819Y-77763571D01*
X169618819Y-77763571D02*
X169571200Y-77906428D01*
X169571200Y-77906428D02*
X169475961Y-78001666D01*
X169475961Y-78001666D02*
X169380723Y-78049285D01*
X169380723Y-78049285D02*
X169190247Y-78096904D01*
X169190247Y-78096904D02*
X169047390Y-78096904D01*
X169047390Y-78096904D02*
X168856914Y-78049285D01*
X168856914Y-78049285D02*
X168761676Y-78001666D01*
X168761676Y-78001666D02*
X168666438Y-77906428D01*
X168666438Y-77906428D02*
X168618819Y-77763571D01*
X168618819Y-77763571D02*
X168618819Y-77668333D01*
X168618819Y-77668333D02*
X168666438Y-77525476D01*
X168666438Y-77525476D02*
X168714057Y-77477857D01*
X168714057Y-77096904D02*
X168666438Y-77049285D01*
X168666438Y-77049285D02*
X168618819Y-76954047D01*
X168618819Y-76954047D02*
X168618819Y-76715952D01*
X168618819Y-76715952D02*
X168666438Y-76620714D01*
X168666438Y-76620714D02*
X168714057Y-76573095D01*
X168714057Y-76573095D02*
X168809295Y-76525476D01*
X168809295Y-76525476D02*
X168904533Y-76525476D01*
X168904533Y-76525476D02*
X169047390Y-76573095D01*
X169047390Y-76573095D02*
X169618819Y-77144523D01*
X169618819Y-77144523D02*
X169618819Y-76525476D01*
X168952152Y-75668333D02*
X169618819Y-75668333D01*
X168571200Y-75906428D02*
X169285485Y-76144523D01*
X169285485Y-76144523D02*
X169285485Y-75525476D01*
X168238095Y-67054819D02*
X168238095Y-67864342D01*
X168238095Y-67864342D02*
X168285714Y-67959580D01*
X168285714Y-67959580D02*
X168333333Y-68007200D01*
X168333333Y-68007200D02*
X168428571Y-68054819D01*
X168428571Y-68054819D02*
X168619047Y-68054819D01*
X168619047Y-68054819D02*
X168714285Y-68007200D01*
X168714285Y-68007200D02*
X168761904Y-67959580D01*
X168761904Y-67959580D02*
X168809523Y-67864342D01*
X168809523Y-67864342D02*
X168809523Y-67054819D01*
X169428571Y-67483390D02*
X169333333Y-67435771D01*
X169333333Y-67435771D02*
X169285714Y-67388152D01*
X169285714Y-67388152D02*
X169238095Y-67292914D01*
X169238095Y-67292914D02*
X169238095Y-67245295D01*
X169238095Y-67245295D02*
X169285714Y-67150057D01*
X169285714Y-67150057D02*
X169333333Y-67102438D01*
X169333333Y-67102438D02*
X169428571Y-67054819D01*
X169428571Y-67054819D02*
X169619047Y-67054819D01*
X169619047Y-67054819D02*
X169714285Y-67102438D01*
X169714285Y-67102438D02*
X169761904Y-67150057D01*
X169761904Y-67150057D02*
X169809523Y-67245295D01*
X169809523Y-67245295D02*
X169809523Y-67292914D01*
X169809523Y-67292914D02*
X169761904Y-67388152D01*
X169761904Y-67388152D02*
X169714285Y-67435771D01*
X169714285Y-67435771D02*
X169619047Y-67483390D01*
X169619047Y-67483390D02*
X169428571Y-67483390D01*
X169428571Y-67483390D02*
X169333333Y-67531009D01*
X169333333Y-67531009D02*
X169285714Y-67578628D01*
X169285714Y-67578628D02*
X169238095Y-67673866D01*
X169238095Y-67673866D02*
X169238095Y-67864342D01*
X169238095Y-67864342D02*
X169285714Y-67959580D01*
X169285714Y-67959580D02*
X169333333Y-68007200D01*
X169333333Y-68007200D02*
X169428571Y-68054819D01*
X169428571Y-68054819D02*
X169619047Y-68054819D01*
X169619047Y-68054819D02*
X169714285Y-68007200D01*
X169714285Y-68007200D02*
X169761904Y-67959580D01*
X169761904Y-67959580D02*
X169809523Y-67864342D01*
X169809523Y-67864342D02*
X169809523Y-67673866D01*
X169809523Y-67673866D02*
X169761904Y-67578628D01*
X169761904Y-67578628D02*
X169714285Y-67531009D01*
X169714285Y-67531009D02*
X169619047Y-67483390D01*
X150868142Y-103610580D02*
X150820523Y-103658200D01*
X150820523Y-103658200D02*
X150677666Y-103705819D01*
X150677666Y-103705819D02*
X150582428Y-103705819D01*
X150582428Y-103705819D02*
X150439571Y-103658200D01*
X150439571Y-103658200D02*
X150344333Y-103562961D01*
X150344333Y-103562961D02*
X150296714Y-103467723D01*
X150296714Y-103467723D02*
X150249095Y-103277247D01*
X150249095Y-103277247D02*
X150249095Y-103134390D01*
X150249095Y-103134390D02*
X150296714Y-102943914D01*
X150296714Y-102943914D02*
X150344333Y-102848676D01*
X150344333Y-102848676D02*
X150439571Y-102753438D01*
X150439571Y-102753438D02*
X150582428Y-102705819D01*
X150582428Y-102705819D02*
X150677666Y-102705819D01*
X150677666Y-102705819D02*
X150820523Y-102753438D01*
X150820523Y-102753438D02*
X150868142Y-102801057D01*
X151772904Y-102705819D02*
X151296714Y-102705819D01*
X151296714Y-102705819D02*
X151249095Y-103182009D01*
X151249095Y-103182009D02*
X151296714Y-103134390D01*
X151296714Y-103134390D02*
X151391952Y-103086771D01*
X151391952Y-103086771D02*
X151630047Y-103086771D01*
X151630047Y-103086771D02*
X151725285Y-103134390D01*
X151725285Y-103134390D02*
X151772904Y-103182009D01*
X151772904Y-103182009D02*
X151820523Y-103277247D01*
X151820523Y-103277247D02*
X151820523Y-103515342D01*
X151820523Y-103515342D02*
X151772904Y-103610580D01*
X151772904Y-103610580D02*
X151725285Y-103658200D01*
X151725285Y-103658200D02*
X151630047Y-103705819D01*
X151630047Y-103705819D02*
X151391952Y-103705819D01*
X151391952Y-103705819D02*
X151296714Y-103658200D01*
X151296714Y-103658200D02*
X151249095Y-103610580D01*
X152725285Y-102705819D02*
X152249095Y-102705819D01*
X152249095Y-102705819D02*
X152201476Y-103182009D01*
X152201476Y-103182009D02*
X152249095Y-103134390D01*
X152249095Y-103134390D02*
X152344333Y-103086771D01*
X152344333Y-103086771D02*
X152582428Y-103086771D01*
X152582428Y-103086771D02*
X152677666Y-103134390D01*
X152677666Y-103134390D02*
X152725285Y-103182009D01*
X152725285Y-103182009D02*
X152772904Y-103277247D01*
X152772904Y-103277247D02*
X152772904Y-103515342D01*
X152772904Y-103515342D02*
X152725285Y-103610580D01*
X152725285Y-103610580D02*
X152677666Y-103658200D01*
X152677666Y-103658200D02*
X152582428Y-103705819D01*
X152582428Y-103705819D02*
X152344333Y-103705819D01*
X152344333Y-103705819D02*
X152249095Y-103658200D01*
X152249095Y-103658200D02*
X152201476Y-103610580D01*
X161638905Y-71704819D02*
X161638905Y-72514342D01*
X161638905Y-72514342D02*
X161686524Y-72609580D01*
X161686524Y-72609580D02*
X161734143Y-72657200D01*
X161734143Y-72657200D02*
X161829381Y-72704819D01*
X161829381Y-72704819D02*
X162019857Y-72704819D01*
X162019857Y-72704819D02*
X162115095Y-72657200D01*
X162115095Y-72657200D02*
X162162714Y-72609580D01*
X162162714Y-72609580D02*
X162210333Y-72514342D01*
X162210333Y-72514342D02*
X162210333Y-71704819D01*
X163210333Y-72704819D02*
X162638905Y-72704819D01*
X162924619Y-72704819D02*
X162924619Y-71704819D01*
X162924619Y-71704819D02*
X162829381Y-71847676D01*
X162829381Y-71847676D02*
X162734143Y-71942914D01*
X162734143Y-71942914D02*
X162638905Y-71990533D01*
X163591286Y-71800057D02*
X163638905Y-71752438D01*
X163638905Y-71752438D02*
X163734143Y-71704819D01*
X163734143Y-71704819D02*
X163972238Y-71704819D01*
X163972238Y-71704819D02*
X164067476Y-71752438D01*
X164067476Y-71752438D02*
X164115095Y-71800057D01*
X164115095Y-71800057D02*
X164162714Y-71895295D01*
X164162714Y-71895295D02*
X164162714Y-71990533D01*
X164162714Y-71990533D02*
X164115095Y-72133390D01*
X164115095Y-72133390D02*
X163543667Y-72704819D01*
X163543667Y-72704819D02*
X164162714Y-72704819D01*
X143629142Y-53191580D02*
X143581523Y-53239200D01*
X143581523Y-53239200D02*
X143438666Y-53286819D01*
X143438666Y-53286819D02*
X143343428Y-53286819D01*
X143343428Y-53286819D02*
X143200571Y-53239200D01*
X143200571Y-53239200D02*
X143105333Y-53143961D01*
X143105333Y-53143961D02*
X143057714Y-53048723D01*
X143057714Y-53048723D02*
X143010095Y-52858247D01*
X143010095Y-52858247D02*
X143010095Y-52715390D01*
X143010095Y-52715390D02*
X143057714Y-52524914D01*
X143057714Y-52524914D02*
X143105333Y-52429676D01*
X143105333Y-52429676D02*
X143200571Y-52334438D01*
X143200571Y-52334438D02*
X143343428Y-52286819D01*
X143343428Y-52286819D02*
X143438666Y-52286819D01*
X143438666Y-52286819D02*
X143581523Y-52334438D01*
X143581523Y-52334438D02*
X143629142Y-52382057D01*
X144581523Y-53286819D02*
X144010095Y-53286819D01*
X144295809Y-53286819D02*
X144295809Y-52286819D01*
X144295809Y-52286819D02*
X144200571Y-52429676D01*
X144200571Y-52429676D02*
X144105333Y-52524914D01*
X144105333Y-52524914D02*
X144010095Y-52572533D01*
X145533904Y-53286819D02*
X144962476Y-53286819D01*
X145248190Y-53286819D02*
X145248190Y-52286819D01*
X145248190Y-52286819D02*
X145152952Y-52429676D01*
X145152952Y-52429676D02*
X145057714Y-52524914D01*
X145057714Y-52524914D02*
X144962476Y-52572533D01*
X128609580Y-65392857D02*
X128657200Y-65440476D01*
X128657200Y-65440476D02*
X128704819Y-65583333D01*
X128704819Y-65583333D02*
X128704819Y-65678571D01*
X128704819Y-65678571D02*
X128657200Y-65821428D01*
X128657200Y-65821428D02*
X128561961Y-65916666D01*
X128561961Y-65916666D02*
X128466723Y-65964285D01*
X128466723Y-65964285D02*
X128276247Y-66011904D01*
X128276247Y-66011904D02*
X128133390Y-66011904D01*
X128133390Y-66011904D02*
X127942914Y-65964285D01*
X127942914Y-65964285D02*
X127847676Y-65916666D01*
X127847676Y-65916666D02*
X127752438Y-65821428D01*
X127752438Y-65821428D02*
X127704819Y-65678571D01*
X127704819Y-65678571D02*
X127704819Y-65583333D01*
X127704819Y-65583333D02*
X127752438Y-65440476D01*
X127752438Y-65440476D02*
X127800057Y-65392857D01*
X128038152Y-64535714D02*
X128704819Y-64535714D01*
X127657200Y-64773809D02*
X128371485Y-65011904D01*
X128371485Y-65011904D02*
X128371485Y-64392857D01*
X127704819Y-63821428D02*
X127704819Y-63726190D01*
X127704819Y-63726190D02*
X127752438Y-63630952D01*
X127752438Y-63630952D02*
X127800057Y-63583333D01*
X127800057Y-63583333D02*
X127895295Y-63535714D01*
X127895295Y-63535714D02*
X128085771Y-63488095D01*
X128085771Y-63488095D02*
X128323866Y-63488095D01*
X128323866Y-63488095D02*
X128514342Y-63535714D01*
X128514342Y-63535714D02*
X128609580Y-63583333D01*
X128609580Y-63583333D02*
X128657200Y-63630952D01*
X128657200Y-63630952D02*
X128704819Y-63726190D01*
X128704819Y-63726190D02*
X128704819Y-63821428D01*
X128704819Y-63821428D02*
X128657200Y-63916666D01*
X128657200Y-63916666D02*
X128609580Y-63964285D01*
X128609580Y-63964285D02*
X128514342Y-64011904D01*
X128514342Y-64011904D02*
X128323866Y-64059523D01*
X128323866Y-64059523D02*
X128085771Y-64059523D01*
X128085771Y-64059523D02*
X127895295Y-64011904D01*
X127895295Y-64011904D02*
X127800057Y-63964285D01*
X127800057Y-63964285D02*
X127752438Y-63916666D01*
X127752438Y-63916666D02*
X127704819Y-63821428D01*
X156337095Y-63139069D02*
X156337095Y-63948592D01*
X156337095Y-63948592D02*
X156384714Y-64043830D01*
X156384714Y-64043830D02*
X156432333Y-64091450D01*
X156432333Y-64091450D02*
X156527571Y-64139069D01*
X156527571Y-64139069D02*
X156718047Y-64139069D01*
X156718047Y-64139069D02*
X156813285Y-64091450D01*
X156813285Y-64091450D02*
X156860904Y-64043830D01*
X156860904Y-64043830D02*
X156908523Y-63948592D01*
X156908523Y-63948592D02*
X156908523Y-63139069D01*
X157289476Y-63139069D02*
X157956142Y-63139069D01*
X157956142Y-63139069D02*
X157527571Y-64139069D01*
X160132142Y-80890580D02*
X160084523Y-80938200D01*
X160084523Y-80938200D02*
X159941666Y-80985819D01*
X159941666Y-80985819D02*
X159846428Y-80985819D01*
X159846428Y-80985819D02*
X159703571Y-80938200D01*
X159703571Y-80938200D02*
X159608333Y-80842961D01*
X159608333Y-80842961D02*
X159560714Y-80747723D01*
X159560714Y-80747723D02*
X159513095Y-80557247D01*
X159513095Y-80557247D02*
X159513095Y-80414390D01*
X159513095Y-80414390D02*
X159560714Y-80223914D01*
X159560714Y-80223914D02*
X159608333Y-80128676D01*
X159608333Y-80128676D02*
X159703571Y-80033438D01*
X159703571Y-80033438D02*
X159846428Y-79985819D01*
X159846428Y-79985819D02*
X159941666Y-79985819D01*
X159941666Y-79985819D02*
X160084523Y-80033438D01*
X160084523Y-80033438D02*
X160132142Y-80081057D01*
X160989285Y-80319152D02*
X160989285Y-80985819D01*
X160751190Y-79938200D02*
X160513095Y-80652485D01*
X160513095Y-80652485D02*
X161132142Y-80652485D01*
X161941666Y-80319152D02*
X161941666Y-80985819D01*
X161703571Y-79938200D02*
X161465476Y-80652485D01*
X161465476Y-80652485D02*
X162084523Y-80652485D01*
X142440819Y-57538857D02*
X141964628Y-57872190D01*
X142440819Y-58110285D02*
X141440819Y-58110285D01*
X141440819Y-58110285D02*
X141440819Y-57729333D01*
X141440819Y-57729333D02*
X141488438Y-57634095D01*
X141488438Y-57634095D02*
X141536057Y-57586476D01*
X141536057Y-57586476D02*
X141631295Y-57538857D01*
X141631295Y-57538857D02*
X141774152Y-57538857D01*
X141774152Y-57538857D02*
X141869390Y-57586476D01*
X141869390Y-57586476D02*
X141917009Y-57634095D01*
X141917009Y-57634095D02*
X141964628Y-57729333D01*
X141964628Y-57729333D02*
X141964628Y-58110285D01*
X141536057Y-57157904D02*
X141488438Y-57110285D01*
X141488438Y-57110285D02*
X141440819Y-57015047D01*
X141440819Y-57015047D02*
X141440819Y-56776952D01*
X141440819Y-56776952D02*
X141488438Y-56681714D01*
X141488438Y-56681714D02*
X141536057Y-56634095D01*
X141536057Y-56634095D02*
X141631295Y-56586476D01*
X141631295Y-56586476D02*
X141726533Y-56586476D01*
X141726533Y-56586476D02*
X141869390Y-56634095D01*
X141869390Y-56634095D02*
X142440819Y-57205523D01*
X142440819Y-57205523D02*
X142440819Y-56586476D01*
X141440819Y-55967428D02*
X141440819Y-55872190D01*
X141440819Y-55872190D02*
X141488438Y-55776952D01*
X141488438Y-55776952D02*
X141536057Y-55729333D01*
X141536057Y-55729333D02*
X141631295Y-55681714D01*
X141631295Y-55681714D02*
X141821771Y-55634095D01*
X141821771Y-55634095D02*
X142059866Y-55634095D01*
X142059866Y-55634095D02*
X142250342Y-55681714D01*
X142250342Y-55681714D02*
X142345580Y-55729333D01*
X142345580Y-55729333D02*
X142393200Y-55776952D01*
X142393200Y-55776952D02*
X142440819Y-55872190D01*
X142440819Y-55872190D02*
X142440819Y-55967428D01*
X142440819Y-55967428D02*
X142393200Y-56062666D01*
X142393200Y-56062666D02*
X142345580Y-56110285D01*
X142345580Y-56110285D02*
X142250342Y-56157904D01*
X142250342Y-56157904D02*
X142059866Y-56205523D01*
X142059866Y-56205523D02*
X141821771Y-56205523D01*
X141821771Y-56205523D02*
X141631295Y-56157904D01*
X141631295Y-56157904D02*
X141536057Y-56110285D01*
X141536057Y-56110285D02*
X141488438Y-56062666D01*
X141488438Y-56062666D02*
X141440819Y-55967428D01*
X135501142Y-67034580D02*
X135453523Y-67082200D01*
X135453523Y-67082200D02*
X135310666Y-67129819D01*
X135310666Y-67129819D02*
X135215428Y-67129819D01*
X135215428Y-67129819D02*
X135072571Y-67082200D01*
X135072571Y-67082200D02*
X134977333Y-66986961D01*
X134977333Y-66986961D02*
X134929714Y-66891723D01*
X134929714Y-66891723D02*
X134882095Y-66701247D01*
X134882095Y-66701247D02*
X134882095Y-66558390D01*
X134882095Y-66558390D02*
X134929714Y-66367914D01*
X134929714Y-66367914D02*
X134977333Y-66272676D01*
X134977333Y-66272676D02*
X135072571Y-66177438D01*
X135072571Y-66177438D02*
X135215428Y-66129819D01*
X135215428Y-66129819D02*
X135310666Y-66129819D01*
X135310666Y-66129819D02*
X135453523Y-66177438D01*
X135453523Y-66177438D02*
X135501142Y-66225057D01*
X135834476Y-66129819D02*
X136453523Y-66129819D01*
X136453523Y-66129819D02*
X136120190Y-66510771D01*
X136120190Y-66510771D02*
X136263047Y-66510771D01*
X136263047Y-66510771D02*
X136358285Y-66558390D01*
X136358285Y-66558390D02*
X136405904Y-66606009D01*
X136405904Y-66606009D02*
X136453523Y-66701247D01*
X136453523Y-66701247D02*
X136453523Y-66939342D01*
X136453523Y-66939342D02*
X136405904Y-67034580D01*
X136405904Y-67034580D02*
X136358285Y-67082200D01*
X136358285Y-67082200D02*
X136263047Y-67129819D01*
X136263047Y-67129819D02*
X135977333Y-67129819D01*
X135977333Y-67129819D02*
X135882095Y-67082200D01*
X135882095Y-67082200D02*
X135834476Y-67034580D01*
X137024952Y-66558390D02*
X136929714Y-66510771D01*
X136929714Y-66510771D02*
X136882095Y-66463152D01*
X136882095Y-66463152D02*
X136834476Y-66367914D01*
X136834476Y-66367914D02*
X136834476Y-66320295D01*
X136834476Y-66320295D02*
X136882095Y-66225057D01*
X136882095Y-66225057D02*
X136929714Y-66177438D01*
X136929714Y-66177438D02*
X137024952Y-66129819D01*
X137024952Y-66129819D02*
X137215428Y-66129819D01*
X137215428Y-66129819D02*
X137310666Y-66177438D01*
X137310666Y-66177438D02*
X137358285Y-66225057D01*
X137358285Y-66225057D02*
X137405904Y-66320295D01*
X137405904Y-66320295D02*
X137405904Y-66367914D01*
X137405904Y-66367914D02*
X137358285Y-66463152D01*
X137358285Y-66463152D02*
X137310666Y-66510771D01*
X137310666Y-66510771D02*
X137215428Y-66558390D01*
X137215428Y-66558390D02*
X137024952Y-66558390D01*
X137024952Y-66558390D02*
X136929714Y-66606009D01*
X136929714Y-66606009D02*
X136882095Y-66653628D01*
X136882095Y-66653628D02*
X136834476Y-66748866D01*
X136834476Y-66748866D02*
X136834476Y-66939342D01*
X136834476Y-66939342D02*
X136882095Y-67034580D01*
X136882095Y-67034580D02*
X136929714Y-67082200D01*
X136929714Y-67082200D02*
X137024952Y-67129819D01*
X137024952Y-67129819D02*
X137215428Y-67129819D01*
X137215428Y-67129819D02*
X137310666Y-67082200D01*
X137310666Y-67082200D02*
X137358285Y-67034580D01*
X137358285Y-67034580D02*
X137405904Y-66939342D01*
X137405904Y-66939342D02*
X137405904Y-66748866D01*
X137405904Y-66748866D02*
X137358285Y-66653628D01*
X137358285Y-66653628D02*
X137310666Y-66606009D01*
X137310666Y-66606009D02*
X137215428Y-66558390D01*
X145280142Y-105388580D02*
X145232523Y-105436200D01*
X145232523Y-105436200D02*
X145089666Y-105483819D01*
X145089666Y-105483819D02*
X144994428Y-105483819D01*
X144994428Y-105483819D02*
X144851571Y-105436200D01*
X144851571Y-105436200D02*
X144756333Y-105340961D01*
X144756333Y-105340961D02*
X144708714Y-105245723D01*
X144708714Y-105245723D02*
X144661095Y-105055247D01*
X144661095Y-105055247D02*
X144661095Y-104912390D01*
X144661095Y-104912390D02*
X144708714Y-104721914D01*
X144708714Y-104721914D02*
X144756333Y-104626676D01*
X144756333Y-104626676D02*
X144851571Y-104531438D01*
X144851571Y-104531438D02*
X144994428Y-104483819D01*
X144994428Y-104483819D02*
X145089666Y-104483819D01*
X145089666Y-104483819D02*
X145232523Y-104531438D01*
X145232523Y-104531438D02*
X145280142Y-104579057D01*
X145613476Y-104483819D02*
X146232523Y-104483819D01*
X146232523Y-104483819D02*
X145899190Y-104864771D01*
X145899190Y-104864771D02*
X146042047Y-104864771D01*
X146042047Y-104864771D02*
X146137285Y-104912390D01*
X146137285Y-104912390D02*
X146184904Y-104960009D01*
X146184904Y-104960009D02*
X146232523Y-105055247D01*
X146232523Y-105055247D02*
X146232523Y-105293342D01*
X146232523Y-105293342D02*
X146184904Y-105388580D01*
X146184904Y-105388580D02*
X146137285Y-105436200D01*
X146137285Y-105436200D02*
X146042047Y-105483819D01*
X146042047Y-105483819D02*
X145756333Y-105483819D01*
X145756333Y-105483819D02*
X145661095Y-105436200D01*
X145661095Y-105436200D02*
X145613476Y-105388580D01*
X147089666Y-104817152D02*
X147089666Y-105483819D01*
X146851571Y-104436200D02*
X146613476Y-105150485D01*
X146613476Y-105150485D02*
X147232523Y-105150485D01*
X145704819Y-87431904D02*
X146514342Y-87431904D01*
X146514342Y-87431904D02*
X146609580Y-87384285D01*
X146609580Y-87384285D02*
X146657200Y-87336666D01*
X146657200Y-87336666D02*
X146704819Y-87241428D01*
X146704819Y-87241428D02*
X146704819Y-87050952D01*
X146704819Y-87050952D02*
X146657200Y-86955714D01*
X146657200Y-86955714D02*
X146609580Y-86908095D01*
X146609580Y-86908095D02*
X146514342Y-86860476D01*
X146514342Y-86860476D02*
X145704819Y-86860476D01*
X146704819Y-86336666D02*
X146704819Y-86146190D01*
X146704819Y-86146190D02*
X146657200Y-86050952D01*
X146657200Y-86050952D02*
X146609580Y-86003333D01*
X146609580Y-86003333D02*
X146466723Y-85908095D01*
X146466723Y-85908095D02*
X146276247Y-85860476D01*
X146276247Y-85860476D02*
X145895295Y-85860476D01*
X145895295Y-85860476D02*
X145800057Y-85908095D01*
X145800057Y-85908095D02*
X145752438Y-85955714D01*
X145752438Y-85955714D02*
X145704819Y-86050952D01*
X145704819Y-86050952D02*
X145704819Y-86241428D01*
X145704819Y-86241428D02*
X145752438Y-86336666D01*
X145752438Y-86336666D02*
X145800057Y-86384285D01*
X145800057Y-86384285D02*
X145895295Y-86431904D01*
X145895295Y-86431904D02*
X146133390Y-86431904D01*
X146133390Y-86431904D02*
X146228628Y-86384285D01*
X146228628Y-86384285D02*
X146276247Y-86336666D01*
X146276247Y-86336666D02*
X146323866Y-86241428D01*
X146323866Y-86241428D02*
X146323866Y-86050952D01*
X146323866Y-86050952D02*
X146276247Y-85955714D01*
X146276247Y-85955714D02*
X146228628Y-85908095D01*
X146228628Y-85908095D02*
X146133390Y-85860476D01*
X158601580Y-89669857D02*
X158649200Y-89717476D01*
X158649200Y-89717476D02*
X158696819Y-89860333D01*
X158696819Y-89860333D02*
X158696819Y-89955571D01*
X158696819Y-89955571D02*
X158649200Y-90098428D01*
X158649200Y-90098428D02*
X158553961Y-90193666D01*
X158553961Y-90193666D02*
X158458723Y-90241285D01*
X158458723Y-90241285D02*
X158268247Y-90288904D01*
X158268247Y-90288904D02*
X158125390Y-90288904D01*
X158125390Y-90288904D02*
X157934914Y-90241285D01*
X157934914Y-90241285D02*
X157839676Y-90193666D01*
X157839676Y-90193666D02*
X157744438Y-90098428D01*
X157744438Y-90098428D02*
X157696819Y-89955571D01*
X157696819Y-89955571D02*
X157696819Y-89860333D01*
X157696819Y-89860333D02*
X157744438Y-89717476D01*
X157744438Y-89717476D02*
X157792057Y-89669857D01*
X158030152Y-88812714D02*
X158696819Y-88812714D01*
X157649200Y-89050809D02*
X158363485Y-89288904D01*
X158363485Y-89288904D02*
X158363485Y-88669857D01*
X158696819Y-88241285D02*
X158696819Y-88050809D01*
X158696819Y-88050809D02*
X158649200Y-87955571D01*
X158649200Y-87955571D02*
X158601580Y-87907952D01*
X158601580Y-87907952D02*
X158458723Y-87812714D01*
X158458723Y-87812714D02*
X158268247Y-87765095D01*
X158268247Y-87765095D02*
X157887295Y-87765095D01*
X157887295Y-87765095D02*
X157792057Y-87812714D01*
X157792057Y-87812714D02*
X157744438Y-87860333D01*
X157744438Y-87860333D02*
X157696819Y-87955571D01*
X157696819Y-87955571D02*
X157696819Y-88146047D01*
X157696819Y-88146047D02*
X157744438Y-88241285D01*
X157744438Y-88241285D02*
X157792057Y-88288904D01*
X157792057Y-88288904D02*
X157887295Y-88336523D01*
X157887295Y-88336523D02*
X158125390Y-88336523D01*
X158125390Y-88336523D02*
X158220628Y-88288904D01*
X158220628Y-88288904D02*
X158268247Y-88241285D01*
X158268247Y-88241285D02*
X158315866Y-88146047D01*
X158315866Y-88146047D02*
X158315866Y-87955571D01*
X158315866Y-87955571D02*
X158268247Y-87860333D01*
X158268247Y-87860333D02*
X158220628Y-87812714D01*
X158220628Y-87812714D02*
X158125390Y-87765095D01*
X163822142Y-61414819D02*
X163488809Y-60938628D01*
X163250714Y-61414819D02*
X163250714Y-60414819D01*
X163250714Y-60414819D02*
X163631666Y-60414819D01*
X163631666Y-60414819D02*
X163726904Y-60462438D01*
X163726904Y-60462438D02*
X163774523Y-60510057D01*
X163774523Y-60510057D02*
X163822142Y-60605295D01*
X163822142Y-60605295D02*
X163822142Y-60748152D01*
X163822142Y-60748152D02*
X163774523Y-60843390D01*
X163774523Y-60843390D02*
X163726904Y-60891009D01*
X163726904Y-60891009D02*
X163631666Y-60938628D01*
X163631666Y-60938628D02*
X163250714Y-60938628D01*
X164203095Y-60510057D02*
X164250714Y-60462438D01*
X164250714Y-60462438D02*
X164345952Y-60414819D01*
X164345952Y-60414819D02*
X164584047Y-60414819D01*
X164584047Y-60414819D02*
X164679285Y-60462438D01*
X164679285Y-60462438D02*
X164726904Y-60510057D01*
X164726904Y-60510057D02*
X164774523Y-60605295D01*
X164774523Y-60605295D02*
X164774523Y-60700533D01*
X164774523Y-60700533D02*
X164726904Y-60843390D01*
X164726904Y-60843390D02*
X164155476Y-61414819D01*
X164155476Y-61414819D02*
X164774523Y-61414819D01*
X165631666Y-60748152D02*
X165631666Y-61414819D01*
X165393571Y-60367200D02*
X165155476Y-61081485D01*
X165155476Y-61081485D02*
X165774523Y-61081485D01*
X170331104Y-84467285D02*
X170369200Y-84505381D01*
X170369200Y-84505381D02*
X170407295Y-84619666D01*
X170407295Y-84619666D02*
X170407295Y-84695857D01*
X170407295Y-84695857D02*
X170369200Y-84810143D01*
X170369200Y-84810143D02*
X170293009Y-84886333D01*
X170293009Y-84886333D02*
X170216819Y-84924428D01*
X170216819Y-84924428D02*
X170064438Y-84962524D01*
X170064438Y-84962524D02*
X169950152Y-84962524D01*
X169950152Y-84962524D02*
X169797771Y-84924428D01*
X169797771Y-84924428D02*
X169721580Y-84886333D01*
X169721580Y-84886333D02*
X169645390Y-84810143D01*
X169645390Y-84810143D02*
X169607295Y-84695857D01*
X169607295Y-84695857D02*
X169607295Y-84619666D01*
X169607295Y-84619666D02*
X169645390Y-84505381D01*
X169645390Y-84505381D02*
X169683485Y-84467285D01*
X169873961Y-83781571D02*
X170407295Y-83781571D01*
X169569200Y-83972047D02*
X170140628Y-84162524D01*
X170140628Y-84162524D02*
X170140628Y-83667285D01*
X169607295Y-83019666D02*
X169607295Y-83172047D01*
X169607295Y-83172047D02*
X169645390Y-83248238D01*
X169645390Y-83248238D02*
X169683485Y-83286333D01*
X169683485Y-83286333D02*
X169797771Y-83362523D01*
X169797771Y-83362523D02*
X169950152Y-83400619D01*
X169950152Y-83400619D02*
X170254914Y-83400619D01*
X170254914Y-83400619D02*
X170331104Y-83362523D01*
X170331104Y-83362523D02*
X170369200Y-83324428D01*
X170369200Y-83324428D02*
X170407295Y-83248238D01*
X170407295Y-83248238D02*
X170407295Y-83095857D01*
X170407295Y-83095857D02*
X170369200Y-83019666D01*
X170369200Y-83019666D02*
X170331104Y-82981571D01*
X170331104Y-82981571D02*
X170254914Y-82943476D01*
X170254914Y-82943476D02*
X170064438Y-82943476D01*
X170064438Y-82943476D02*
X169988247Y-82981571D01*
X169988247Y-82981571D02*
X169950152Y-83019666D01*
X169950152Y-83019666D02*
X169912057Y-83095857D01*
X169912057Y-83095857D02*
X169912057Y-83248238D01*
X169912057Y-83248238D02*
X169950152Y-83324428D01*
X169950152Y-83324428D02*
X169988247Y-83362523D01*
X169988247Y-83362523D02*
X170064438Y-83400619D01*
X131603905Y-70574819D02*
X131603905Y-71384342D01*
X131603905Y-71384342D02*
X131651524Y-71479580D01*
X131651524Y-71479580D02*
X131699143Y-71527200D01*
X131699143Y-71527200D02*
X131794381Y-71574819D01*
X131794381Y-71574819D02*
X131984857Y-71574819D01*
X131984857Y-71574819D02*
X132080095Y-71527200D01*
X132080095Y-71527200D02*
X132127714Y-71479580D01*
X132127714Y-71479580D02*
X132175333Y-71384342D01*
X132175333Y-71384342D02*
X132175333Y-70574819D01*
X133175333Y-71574819D02*
X132603905Y-71574819D01*
X132889619Y-71574819D02*
X132889619Y-70574819D01*
X132889619Y-70574819D02*
X132794381Y-70717676D01*
X132794381Y-70717676D02*
X132699143Y-70812914D01*
X132699143Y-70812914D02*
X132603905Y-70860533D01*
X133794381Y-70574819D02*
X133889619Y-70574819D01*
X133889619Y-70574819D02*
X133984857Y-70622438D01*
X133984857Y-70622438D02*
X134032476Y-70670057D01*
X134032476Y-70670057D02*
X134080095Y-70765295D01*
X134080095Y-70765295D02*
X134127714Y-70955771D01*
X134127714Y-70955771D02*
X134127714Y-71193866D01*
X134127714Y-71193866D02*
X134080095Y-71384342D01*
X134080095Y-71384342D02*
X134032476Y-71479580D01*
X134032476Y-71479580D02*
X133984857Y-71527200D01*
X133984857Y-71527200D02*
X133889619Y-71574819D01*
X133889619Y-71574819D02*
X133794381Y-71574819D01*
X133794381Y-71574819D02*
X133699143Y-71527200D01*
X133699143Y-71527200D02*
X133651524Y-71479580D01*
X133651524Y-71479580D02*
X133603905Y-71384342D01*
X133603905Y-71384342D02*
X133556286Y-71193866D01*
X133556286Y-71193866D02*
X133556286Y-70955771D01*
X133556286Y-70955771D02*
X133603905Y-70765295D01*
X133603905Y-70765295D02*
X133651524Y-70670057D01*
X133651524Y-70670057D02*
X133699143Y-70622438D01*
X133699143Y-70622438D02*
X133794381Y-70574819D01*
X137265580Y-74683857D02*
X137313200Y-74731476D01*
X137313200Y-74731476D02*
X137360819Y-74874333D01*
X137360819Y-74874333D02*
X137360819Y-74969571D01*
X137360819Y-74969571D02*
X137313200Y-75112428D01*
X137313200Y-75112428D02*
X137217961Y-75207666D01*
X137217961Y-75207666D02*
X137122723Y-75255285D01*
X137122723Y-75255285D02*
X136932247Y-75302904D01*
X136932247Y-75302904D02*
X136789390Y-75302904D01*
X136789390Y-75302904D02*
X136598914Y-75255285D01*
X136598914Y-75255285D02*
X136503676Y-75207666D01*
X136503676Y-75207666D02*
X136408438Y-75112428D01*
X136408438Y-75112428D02*
X136360819Y-74969571D01*
X136360819Y-74969571D02*
X136360819Y-74874333D01*
X136360819Y-74874333D02*
X136408438Y-74731476D01*
X136408438Y-74731476D02*
X136456057Y-74683857D01*
X136360819Y-74350523D02*
X136360819Y-73731476D01*
X136360819Y-73731476D02*
X136741771Y-74064809D01*
X136741771Y-74064809D02*
X136741771Y-73921952D01*
X136741771Y-73921952D02*
X136789390Y-73826714D01*
X136789390Y-73826714D02*
X136837009Y-73779095D01*
X136837009Y-73779095D02*
X136932247Y-73731476D01*
X136932247Y-73731476D02*
X137170342Y-73731476D01*
X137170342Y-73731476D02*
X137265580Y-73779095D01*
X137265580Y-73779095D02*
X137313200Y-73826714D01*
X137313200Y-73826714D02*
X137360819Y-73921952D01*
X137360819Y-73921952D02*
X137360819Y-74207666D01*
X137360819Y-74207666D02*
X137313200Y-74302904D01*
X137313200Y-74302904D02*
X137265580Y-74350523D01*
X136360819Y-73398142D02*
X136360819Y-72731476D01*
X136360819Y-72731476D02*
X137360819Y-73160047D01*
D11*
%TO.C,J10*%
X157420000Y-109026000D02*
X157420000Y-107696000D01*
X158750000Y-109026000D02*
X157420000Y-109026000D01*
X160020000Y-106366000D02*
X167700000Y-106366000D01*
X160020000Y-109026000D02*
X160020000Y-106366000D01*
X160020000Y-109026000D02*
X167700000Y-109026000D01*
X167700000Y-109026000D02*
X167700000Y-106366000D01*
%TO.C,R11*%
X122522936Y-68265000D02*
X122977064Y-68265000D01*
X122522936Y-69735000D02*
X122977064Y-69735000D01*
%TO.C,U6*%
X147818000Y-58259000D02*
X152918000Y-58259000D01*
X147818000Y-54009000D02*
X147818000Y-58259000D01*
%TO.C,D13*%
X165520000Y-101622000D02*
X165520000Y-104882000D01*
X167220000Y-101622000D02*
X165520000Y-101622000D01*
X167220000Y-101622000D02*
X167220000Y-104882000D01*
%TO.C,R32*%
X136525724Y-77677500D02*
X136016276Y-77677500D01*
X136525724Y-78722500D02*
X136016276Y-78722500D01*
%TO.C,R26*%
X148194500Y-59816276D02*
X148194500Y-60325724D01*
X149239500Y-59816276D02*
X149239500Y-60325724D01*
%TO.C,FB1*%
X143000000Y-56724733D02*
X143000000Y-57067267D01*
X144020000Y-56724733D02*
X144020000Y-57067267D01*
%TO.C,U1*%
X160390000Y-56100000D02*
X160390000Y-55300000D01*
X160390000Y-56100000D02*
X160390000Y-56900000D01*
X163610000Y-57100000D02*
X163610000Y-55300000D01*
X160440000Y-57400000D02*
X160110000Y-57640000D01*
X160110000Y-57160000D01*
X160440000Y-57400000D01*
G36*
X160440000Y-57400000D02*
G01*
X160110000Y-57640000D01*
X160110000Y-57160000D01*
X160440000Y-57400000D01*
G37*
%TO.C,C7*%
X164209000Y-93491267D02*
X164209000Y-93198733D01*
X165229000Y-93491267D02*
X165229000Y-93198733D01*
%TO.C,R23*%
X170165500Y-73787724D02*
X170165500Y-73278276D01*
X171210500Y-73787724D02*
X171210500Y-73278276D01*
%TO.C,R10*%
X176477064Y-70765000D02*
X176022936Y-70765000D01*
X176477064Y-72235000D02*
X176022936Y-72235000D01*
%TO.C,C12*%
X144125733Y-60450000D02*
X144418267Y-60450000D01*
X144125733Y-61470000D02*
X144418267Y-61470000D01*
%TO.C,C36*%
X135034000Y-91287000D02*
X143269000Y-91287000D01*
X143269000Y-86767000D02*
X135034000Y-86767000D01*
X143269000Y-91287000D02*
X143269000Y-86767000D01*
%TO.C,R6*%
X126227500Y-68245276D02*
X126227500Y-68754724D01*
X127272500Y-68245276D02*
X127272500Y-68754724D01*
%TO.C,R34*%
X136016276Y-76077500D02*
X136525724Y-76077500D01*
X136016276Y-77122500D02*
X136525724Y-77122500D01*
%TO.C,R7*%
X176477064Y-75765000D02*
X176022936Y-75765000D01*
X176477064Y-77235000D02*
X176022936Y-77235000D01*
%TO.C,C48*%
X156240000Y-85896267D02*
X156240000Y-85603733D01*
X157260000Y-85896267D02*
X157260000Y-85603733D01*
%TO.C,C56*%
X151403267Y-60450000D02*
X151110733Y-60450000D01*
X151403267Y-61470000D02*
X151110733Y-61470000D01*
%TO.C,D7*%
X149100000Y-95010000D02*
X149100000Y-89500000D01*
X149100000Y-95010000D02*
X152400000Y-95010000D01*
X152400000Y-95010000D02*
X152400000Y-89500000D01*
%TO.C,C52*%
X168265000Y-87916267D02*
X168265000Y-87623733D01*
X169285000Y-87916267D02*
X169285000Y-87623733D01*
%TO.C,C39*%
X135034000Y-96367000D02*
X143269000Y-96367000D01*
X143269000Y-91847000D02*
X135034000Y-91847000D01*
X143269000Y-96367000D02*
X143269000Y-91847000D01*
%TO.C,D11*%
X155350000Y-102190000D02*
X156000000Y-102190000D01*
X155350000Y-105310000D02*
X156000000Y-105310000D01*
X156650000Y-102190000D02*
X156000000Y-102190000D01*
X157675000Y-105310000D02*
X156000000Y-105310000D01*
%TO.C,C57*%
X151110733Y-58672000D02*
X151403267Y-58672000D01*
X151110733Y-59692000D02*
X151403267Y-59692000D01*
%TO.C,D4*%
X125190000Y-74000000D02*
X125190000Y-72050000D01*
X125190000Y-74000000D02*
X125190000Y-75950000D01*
X130310000Y-74000000D02*
X130310000Y-72050000D01*
X130310000Y-74000000D02*
X130310000Y-75950000D01*
X130545000Y-71540000D02*
X130215000Y-71300000D01*
X130545000Y-71060000D01*
X130545000Y-71540000D01*
G36*
X130545000Y-71540000D02*
G01*
X130215000Y-71300000D01*
X130545000Y-71060000D01*
X130545000Y-71540000D01*
G37*
%TO.C,C1*%
X172740000Y-75353733D02*
X172740000Y-75646267D01*
X173760000Y-75353733D02*
X173760000Y-75646267D01*
%TO.C,R33*%
X135889276Y-70597500D02*
X136398724Y-70597500D01*
X135889276Y-71642500D02*
X136398724Y-71642500D01*
%TO.C,C35*%
X146711252Y-95890000D02*
X145288748Y-95890000D01*
X146711252Y-98610000D02*
X145288748Y-98610000D01*
%TO.C,R18*%
X162254724Y-52477500D02*
X161745276Y-52477500D01*
X162254724Y-53522500D02*
X161745276Y-53522500D01*
%TO.C,C2*%
X151103733Y-48990000D02*
X151396267Y-48990000D01*
X151103733Y-50010000D02*
X151396267Y-50010000D01*
%TO.C,R9*%
X122977064Y-75765000D02*
X122522936Y-75765000D01*
X122977064Y-77235000D02*
X122522936Y-77235000D01*
%TO.C,D9*%
X159325000Y-83305000D02*
X162775000Y-83305000D01*
X160825000Y-88425000D02*
X162775000Y-88425000D01*
X164725000Y-83305000D02*
X162775000Y-83305000D01*
X164725000Y-88425000D02*
X162775000Y-88425000D01*
%TO.C,C54*%
X166740000Y-74646267D02*
X166740000Y-74353733D01*
X167760000Y-74646267D02*
X167760000Y-74353733D01*
%TO.C,C6*%
X128761252Y-78015000D02*
X128238748Y-78015000D01*
X128761252Y-79485000D02*
X128238748Y-79485000D01*
%TO.C,J16*%
X132830000Y-58650000D02*
X133590000Y-58650000D01*
X132830000Y-59600000D02*
X132830000Y-58650000D01*
X132895000Y-60562470D02*
X132895000Y-60360000D01*
X132895000Y-61820000D02*
X132895000Y-61177530D01*
X132895000Y-61820000D02*
X139365000Y-61820000D01*
X134225000Y-58650000D02*
X139365000Y-58650000D01*
X134225000Y-58840000D02*
X134225000Y-58650000D01*
X139365000Y-59292470D02*
X139365000Y-58650000D01*
X139365000Y-60562470D02*
X139365000Y-59907530D01*
X139365000Y-61820000D02*
X139365000Y-61177530D01*
%TO.C,C41*%
X133961252Y-104640000D02*
X132538748Y-104640000D01*
X133961252Y-107360000D02*
X132538748Y-107360000D01*
%TO.C,U11*%
X130940000Y-100500000D02*
X130940000Y-98550000D01*
X130940000Y-100500000D02*
X130940000Y-102450000D01*
X136060000Y-100500000D02*
X136060000Y-97050000D01*
X136060000Y-100500000D02*
X136060000Y-102450000D01*
%TO.C,R8*%
X176477064Y-68265000D02*
X176022936Y-68265000D01*
X176477064Y-69735000D02*
X176022936Y-69735000D01*
%TO.C,D3*%
X132010000Y-80011000D02*
X126500000Y-80011000D01*
X132010000Y-83311000D02*
X126500000Y-83311000D01*
X132010000Y-83311000D02*
X132010000Y-80011000D01*
%TO.C,R12*%
X122977064Y-70765000D02*
X122522936Y-70765000D01*
X122977064Y-72235000D02*
X122522936Y-72235000D01*
%TO.C,R17*%
X165277500Y-69745276D02*
X165277500Y-70254724D01*
X166322500Y-69745276D02*
X166322500Y-70254724D01*
%TO.C,C29*%
X129240000Y-68353733D02*
X129240000Y-68646267D01*
X130260000Y-68353733D02*
X130260000Y-68646267D01*
%TO.C,C45*%
X158746267Y-52490000D02*
X158453733Y-52490000D01*
X158746267Y-53510000D02*
X158453733Y-53510000D01*
%TO.C,C13*%
X144125733Y-58926000D02*
X144418267Y-58926000D01*
X144125733Y-59946000D02*
X144418267Y-59946000D01*
%TO.C,J8*%
X173057000Y-86614000D02*
X173057000Y-87944000D01*
X173057000Y-86614000D02*
X173627000Y-86614000D01*
X173057000Y-87944000D02*
X174079470Y-87944000D01*
X174387000Y-85219000D02*
X175717000Y-85219000D01*
X174694530Y-87944000D02*
X175717000Y-87944000D01*
X175147000Y-86614000D02*
X175717000Y-86614000D01*
X175717000Y-85219000D02*
X175717000Y-85979000D01*
X175717000Y-86614000D02*
X175717000Y-87944000D01*
%TO.C,C53*%
X150788748Y-99390000D02*
X152211252Y-99390000D01*
X150788748Y-102110000D02*
X152211252Y-102110000D01*
%TO.C,D8*%
X136350000Y-104010000D02*
X136350000Y-98500000D01*
X136350000Y-104010000D02*
X139650000Y-104010000D01*
X139650000Y-104010000D02*
X139650000Y-98500000D01*
%TO.C,C32*%
X129312000Y-88298000D02*
X129312000Y-96533000D01*
X129312000Y-96533000D02*
X133832000Y-96533000D01*
X133832000Y-96533000D02*
X133832000Y-88298000D01*
%TO.C,R35*%
X166752500Y-85610276D02*
X166752500Y-86119724D01*
X167797500Y-85610276D02*
X167797500Y-86119724D01*
%TO.C,R5*%
X130727500Y-68754724D02*
X130727500Y-68245276D01*
X131772500Y-68754724D02*
X131772500Y-68245276D01*
%TO.C,C15*%
X163690000Y-70146267D02*
X163690000Y-69853733D01*
X164710000Y-70146267D02*
X164710000Y-69853733D01*
%TO.C,C14*%
X171690000Y-70053733D02*
X171690000Y-70346267D01*
X172710000Y-70053733D02*
X172710000Y-70346267D01*
%TO.C,C42*%
X161546267Y-58890000D02*
X161253733Y-58890000D01*
X161546267Y-59910000D02*
X161253733Y-59910000D01*
%TO.C,R21*%
X160162964Y-67987750D02*
X159653516Y-67987750D01*
X160162964Y-69032750D02*
X159653516Y-69032750D01*
%TO.C,C24*%
X168654000Y-73386733D02*
X168654000Y-73679267D01*
X169674000Y-73386733D02*
X169674000Y-73679267D01*
%TO.C,U8*%
X168900000Y-71610000D02*
X168100000Y-71610000D01*
X168900000Y-71610000D02*
X169700000Y-71610000D01*
X169900000Y-68390000D02*
X168100000Y-68390000D01*
X170440000Y-71890000D02*
X169960000Y-71890000D01*
X170200000Y-71560000D01*
X170440000Y-71890000D01*
G36*
X170440000Y-71890000D02*
G01*
X169960000Y-71890000D01*
X170200000Y-71560000D01*
X170440000Y-71890000D01*
G37*
%TO.C,C55*%
X150788748Y-95890000D02*
X152211252Y-95890000D01*
X150788748Y-98610000D02*
X152211252Y-98610000D01*
%TO.C,U12*%
X162750000Y-73190000D02*
X160800000Y-73190000D01*
X162750000Y-73190000D02*
X164700000Y-73190000D01*
X162750000Y-78310000D02*
X160800000Y-78310000D01*
X162750000Y-78310000D02*
X166200000Y-78310000D01*
%TO.C,J6*%
X123384000Y-86614000D02*
X123384000Y-87944000D01*
X123384000Y-86614000D02*
X123954000Y-86614000D01*
X123384000Y-87944000D02*
X124406470Y-87944000D01*
X124714000Y-85219000D02*
X126044000Y-85219000D01*
X125021530Y-87944000D02*
X126044000Y-87944000D01*
X125474000Y-86614000D02*
X126044000Y-86614000D01*
X126044000Y-85219000D02*
X126044000Y-85979000D01*
X126044000Y-86614000D02*
X126044000Y-87944000D01*
%TO.C,C11*%
X144125733Y-53846000D02*
X144418267Y-53846000D01*
X144125733Y-54866000D02*
X144418267Y-54866000D01*
%TO.C,C40*%
X127740000Y-68646267D02*
X127740000Y-68353733D01*
X128760000Y-68646267D02*
X128760000Y-68353733D01*
%TO.C,U7*%
X141876240Y-64448250D02*
X142576240Y-64448250D01*
X141876240Y-65148250D02*
X141876240Y-64448250D01*
X141876240Y-77968250D02*
X141876240Y-78668250D01*
X141876240Y-78668250D02*
X142576240Y-78668250D01*
X155396240Y-64448250D02*
X155396240Y-63083250D01*
X156096240Y-64448250D02*
X155396240Y-64448250D01*
X156096240Y-65148250D02*
X156096240Y-64448250D01*
X156096240Y-77968250D02*
X156096240Y-78668250D01*
X156096240Y-78668250D02*
X155396240Y-78668250D01*
%TO.C,C44*%
X160628733Y-81799000D02*
X160921267Y-81799000D01*
X160628733Y-82819000D02*
X160921267Y-82819000D01*
%TO.C,R20*%
X144511500Y-56641276D02*
X144511500Y-57150724D01*
X145556500Y-56641276D02*
X145556500Y-57150724D01*
%TO.C,C38*%
X136290267Y-69086000D02*
X135997733Y-69086000D01*
X136290267Y-70106000D02*
X135997733Y-70106000D01*
%TO.C,C34*%
X146711252Y-99390000D02*
X145288748Y-99390000D01*
X146711252Y-102110000D02*
X145288748Y-102110000D01*
%TO.C,U9*%
X143690000Y-91750000D02*
X143690000Y-89800000D01*
X143690000Y-91750000D02*
X143690000Y-93700000D01*
X148810000Y-91750000D02*
X148810000Y-88300000D01*
X148810000Y-91750000D02*
X148810000Y-93700000D01*
%TO.C,C49*%
X157740000Y-85896267D02*
X157740000Y-85603733D01*
X158760000Y-85896267D02*
X158760000Y-85603733D01*
%TO.C,R24*%
X161654724Y-60477500D02*
X161145276Y-60477500D01*
X161654724Y-61522500D02*
X161145276Y-61522500D01*
%TO.C,C46*%
X168265000Y-84099267D02*
X168265000Y-83806733D01*
X169285000Y-84099267D02*
X169285000Y-83806733D01*
%TO.C,U10*%
X131190000Y-73830000D02*
X131190000Y-75630000D01*
X134410000Y-74830000D02*
X134410000Y-74030000D01*
X134410000Y-74830000D02*
X134410000Y-75630000D01*
X134690000Y-73770000D02*
X134360000Y-73530000D01*
X134690000Y-73290000D01*
X134690000Y-73770000D01*
G36*
X134690000Y-73770000D02*
G01*
X134360000Y-73530000D01*
X134690000Y-73290000D01*
X134690000Y-73770000D01*
G37*
%TO.C,C37*%
X134872000Y-74187267D02*
X134872000Y-73894733D01*
X135892000Y-74187267D02*
X135892000Y-73894733D01*
%TD*%
M02*
