%TF.GenerationSoftware,KiCad,Pcbnew,7.0.1*%
%TF.CreationDate,2023-12-15T16:06:27+03:00*%
%TF.ProjectId,_____ __________,1f3b3042-3020-4433-9f40-30323b353d38,rev?*%
%TF.SameCoordinates,Original*%
%TF.FileFunction,Legend,Bot*%
%TF.FilePolarity,Positive*%
%FSLAX46Y46*%
G04 Gerber Fmt 4.6, Leading zero omitted, Abs format (unit mm)*
G04 Created by KiCad (PCBNEW 7.0.1) date 2023-12-15 16:06:27*
%MOMM*%
%LPD*%
G01*
G04 APERTURE LIST*
%ADD10C,0.150000*%
%ADD11C,0.120000*%
%TA.AperFunction,Profile*%
%ADD12C,0.200000*%
%TD*%
G04 APERTURE END LIST*
D10*
%TO.C,R1*%
X149137666Y-110952619D02*
X149470999Y-110476428D01*
X149709094Y-110952619D02*
X149709094Y-109952619D01*
X149709094Y-109952619D02*
X149328142Y-109952619D01*
X149328142Y-109952619D02*
X149232904Y-110000238D01*
X149232904Y-110000238D02*
X149185285Y-110047857D01*
X149185285Y-110047857D02*
X149137666Y-110143095D01*
X149137666Y-110143095D02*
X149137666Y-110285952D01*
X149137666Y-110285952D02*
X149185285Y-110381190D01*
X149185285Y-110381190D02*
X149232904Y-110428809D01*
X149232904Y-110428809D02*
X149328142Y-110476428D01*
X149328142Y-110476428D02*
X149709094Y-110476428D01*
X148185285Y-110952619D02*
X148756713Y-110952619D01*
X148470999Y-110952619D02*
X148470999Y-109952619D01*
X148470999Y-109952619D02*
X148566237Y-110095476D01*
X148566237Y-110095476D02*
X148661475Y-110190714D01*
X148661475Y-110190714D02*
X148756713Y-110238333D01*
%TO.C,U5*%
X155447904Y-123414619D02*
X155447904Y-124224142D01*
X155447904Y-124224142D02*
X155400285Y-124319380D01*
X155400285Y-124319380D02*
X155352666Y-124367000D01*
X155352666Y-124367000D02*
X155257428Y-124414619D01*
X155257428Y-124414619D02*
X155066952Y-124414619D01*
X155066952Y-124414619D02*
X154971714Y-124367000D01*
X154971714Y-124367000D02*
X154924095Y-124319380D01*
X154924095Y-124319380D02*
X154876476Y-124224142D01*
X154876476Y-124224142D02*
X154876476Y-123414619D01*
X153924095Y-123414619D02*
X154400285Y-123414619D01*
X154400285Y-123414619D02*
X154447904Y-123890809D01*
X154447904Y-123890809D02*
X154400285Y-123843190D01*
X154400285Y-123843190D02*
X154305047Y-123795571D01*
X154305047Y-123795571D02*
X154066952Y-123795571D01*
X154066952Y-123795571D02*
X153971714Y-123843190D01*
X153971714Y-123843190D02*
X153924095Y-123890809D01*
X153924095Y-123890809D02*
X153876476Y-123986047D01*
X153876476Y-123986047D02*
X153876476Y-124224142D01*
X153876476Y-124224142D02*
X153924095Y-124319380D01*
X153924095Y-124319380D02*
X153971714Y-124367000D01*
X153971714Y-124367000D02*
X154066952Y-124414619D01*
X154066952Y-124414619D02*
X154305047Y-124414619D01*
X154305047Y-124414619D02*
X154400285Y-124367000D01*
X154400285Y-124367000D02*
X154447904Y-124319380D01*
%TO.C,R11*%
X149994857Y-97744619D02*
X150328190Y-97268428D01*
X150566285Y-97744619D02*
X150566285Y-96744619D01*
X150566285Y-96744619D02*
X150185333Y-96744619D01*
X150185333Y-96744619D02*
X150090095Y-96792238D01*
X150090095Y-96792238D02*
X150042476Y-96839857D01*
X150042476Y-96839857D02*
X149994857Y-96935095D01*
X149994857Y-96935095D02*
X149994857Y-97077952D01*
X149994857Y-97077952D02*
X150042476Y-97173190D01*
X150042476Y-97173190D02*
X150090095Y-97220809D01*
X150090095Y-97220809D02*
X150185333Y-97268428D01*
X150185333Y-97268428D02*
X150566285Y-97268428D01*
X149042476Y-97744619D02*
X149613904Y-97744619D01*
X149328190Y-97744619D02*
X149328190Y-96744619D01*
X149328190Y-96744619D02*
X149423428Y-96887476D01*
X149423428Y-96887476D02*
X149518666Y-96982714D01*
X149518666Y-96982714D02*
X149613904Y-97030333D01*
X148090095Y-97744619D02*
X148661523Y-97744619D01*
X148375809Y-97744619D02*
X148375809Y-96744619D01*
X148375809Y-96744619D02*
X148471047Y-96887476D01*
X148471047Y-96887476D02*
X148566285Y-96982714D01*
X148566285Y-96982714D02*
X148661523Y-97030333D01*
%TO.C,C7*%
X139051380Y-88987333D02*
X139099000Y-88939714D01*
X139099000Y-88939714D02*
X139146619Y-88796857D01*
X139146619Y-88796857D02*
X139146619Y-88701619D01*
X139146619Y-88701619D02*
X139099000Y-88558762D01*
X139099000Y-88558762D02*
X139003761Y-88463524D01*
X139003761Y-88463524D02*
X138908523Y-88415905D01*
X138908523Y-88415905D02*
X138718047Y-88368286D01*
X138718047Y-88368286D02*
X138575190Y-88368286D01*
X138575190Y-88368286D02*
X138384714Y-88415905D01*
X138384714Y-88415905D02*
X138289476Y-88463524D01*
X138289476Y-88463524D02*
X138194238Y-88558762D01*
X138194238Y-88558762D02*
X138146619Y-88701619D01*
X138146619Y-88701619D02*
X138146619Y-88796857D01*
X138146619Y-88796857D02*
X138194238Y-88939714D01*
X138194238Y-88939714D02*
X138241857Y-88987333D01*
X138146619Y-89320667D02*
X138146619Y-89987333D01*
X138146619Y-89987333D02*
X139146619Y-89558762D01*
%TO.C,C53*%
X140321380Y-122801142D02*
X140369000Y-122753523D01*
X140369000Y-122753523D02*
X140416619Y-122610666D01*
X140416619Y-122610666D02*
X140416619Y-122515428D01*
X140416619Y-122515428D02*
X140369000Y-122372571D01*
X140369000Y-122372571D02*
X140273761Y-122277333D01*
X140273761Y-122277333D02*
X140178523Y-122229714D01*
X140178523Y-122229714D02*
X139988047Y-122182095D01*
X139988047Y-122182095D02*
X139845190Y-122182095D01*
X139845190Y-122182095D02*
X139654714Y-122229714D01*
X139654714Y-122229714D02*
X139559476Y-122277333D01*
X139559476Y-122277333D02*
X139464238Y-122372571D01*
X139464238Y-122372571D02*
X139416619Y-122515428D01*
X139416619Y-122515428D02*
X139416619Y-122610666D01*
X139416619Y-122610666D02*
X139464238Y-122753523D01*
X139464238Y-122753523D02*
X139511857Y-122801142D01*
X139416619Y-123705904D02*
X139416619Y-123229714D01*
X139416619Y-123229714D02*
X139892809Y-123182095D01*
X139892809Y-123182095D02*
X139845190Y-123229714D01*
X139845190Y-123229714D02*
X139797571Y-123324952D01*
X139797571Y-123324952D02*
X139797571Y-123563047D01*
X139797571Y-123563047D02*
X139845190Y-123658285D01*
X139845190Y-123658285D02*
X139892809Y-123705904D01*
X139892809Y-123705904D02*
X139988047Y-123753523D01*
X139988047Y-123753523D02*
X140226142Y-123753523D01*
X140226142Y-123753523D02*
X140321380Y-123705904D01*
X140321380Y-123705904D02*
X140369000Y-123658285D01*
X140369000Y-123658285D02*
X140416619Y-123563047D01*
X140416619Y-123563047D02*
X140416619Y-123324952D01*
X140416619Y-123324952D02*
X140369000Y-123229714D01*
X140369000Y-123229714D02*
X140321380Y-123182095D01*
X139416619Y-124086857D02*
X139416619Y-124705904D01*
X139416619Y-124705904D02*
X139797571Y-124372571D01*
X139797571Y-124372571D02*
X139797571Y-124515428D01*
X139797571Y-124515428D02*
X139845190Y-124610666D01*
X139845190Y-124610666D02*
X139892809Y-124658285D01*
X139892809Y-124658285D02*
X139988047Y-124705904D01*
X139988047Y-124705904D02*
X140226142Y-124705904D01*
X140226142Y-124705904D02*
X140321380Y-124658285D01*
X140321380Y-124658285D02*
X140369000Y-124610666D01*
X140369000Y-124610666D02*
X140416619Y-124515428D01*
X140416619Y-124515428D02*
X140416619Y-124229714D01*
X140416619Y-124229714D02*
X140369000Y-124134476D01*
X140369000Y-124134476D02*
X140321380Y-124086857D01*
%TO.C,U3*%
X138429904Y-114524619D02*
X138429904Y-115334142D01*
X138429904Y-115334142D02*
X138382285Y-115429380D01*
X138382285Y-115429380D02*
X138334666Y-115477000D01*
X138334666Y-115477000D02*
X138239428Y-115524619D01*
X138239428Y-115524619D02*
X138048952Y-115524619D01*
X138048952Y-115524619D02*
X137953714Y-115477000D01*
X137953714Y-115477000D02*
X137906095Y-115429380D01*
X137906095Y-115429380D02*
X137858476Y-115334142D01*
X137858476Y-115334142D02*
X137858476Y-114524619D01*
X137477523Y-114524619D02*
X136858476Y-114524619D01*
X136858476Y-114524619D02*
X137191809Y-114905571D01*
X137191809Y-114905571D02*
X137048952Y-114905571D01*
X137048952Y-114905571D02*
X136953714Y-114953190D01*
X136953714Y-114953190D02*
X136906095Y-115000809D01*
X136906095Y-115000809D02*
X136858476Y-115096047D01*
X136858476Y-115096047D02*
X136858476Y-115334142D01*
X136858476Y-115334142D02*
X136906095Y-115429380D01*
X136906095Y-115429380D02*
X136953714Y-115477000D01*
X136953714Y-115477000D02*
X137048952Y-115524619D01*
X137048952Y-115524619D02*
X137334666Y-115524619D01*
X137334666Y-115524619D02*
X137429904Y-115477000D01*
X137429904Y-115477000D02*
X137477523Y-115429380D01*
%TO.C,R10*%
X149629857Y-107142619D02*
X149963190Y-106666428D01*
X150201285Y-107142619D02*
X150201285Y-106142619D01*
X150201285Y-106142619D02*
X149820333Y-106142619D01*
X149820333Y-106142619D02*
X149725095Y-106190238D01*
X149725095Y-106190238D02*
X149677476Y-106237857D01*
X149677476Y-106237857D02*
X149629857Y-106333095D01*
X149629857Y-106333095D02*
X149629857Y-106475952D01*
X149629857Y-106475952D02*
X149677476Y-106571190D01*
X149677476Y-106571190D02*
X149725095Y-106618809D01*
X149725095Y-106618809D02*
X149820333Y-106666428D01*
X149820333Y-106666428D02*
X150201285Y-106666428D01*
X148677476Y-107142619D02*
X149248904Y-107142619D01*
X148963190Y-107142619D02*
X148963190Y-106142619D01*
X148963190Y-106142619D02*
X149058428Y-106285476D01*
X149058428Y-106285476D02*
X149153666Y-106380714D01*
X149153666Y-106380714D02*
X149248904Y-106428333D01*
X148058428Y-106142619D02*
X147963190Y-106142619D01*
X147963190Y-106142619D02*
X147867952Y-106190238D01*
X147867952Y-106190238D02*
X147820333Y-106237857D01*
X147820333Y-106237857D02*
X147772714Y-106333095D01*
X147772714Y-106333095D02*
X147725095Y-106523571D01*
X147725095Y-106523571D02*
X147725095Y-106761666D01*
X147725095Y-106761666D02*
X147772714Y-106952142D01*
X147772714Y-106952142D02*
X147820333Y-107047380D01*
X147820333Y-107047380D02*
X147867952Y-107095000D01*
X147867952Y-107095000D02*
X147963190Y-107142619D01*
X147963190Y-107142619D02*
X148058428Y-107142619D01*
X148058428Y-107142619D02*
X148153666Y-107095000D01*
X148153666Y-107095000D02*
X148201285Y-107047380D01*
X148201285Y-107047380D02*
X148248904Y-106952142D01*
X148248904Y-106952142D02*
X148296523Y-106761666D01*
X148296523Y-106761666D02*
X148296523Y-106523571D01*
X148296523Y-106523571D02*
X148248904Y-106333095D01*
X148248904Y-106333095D02*
X148201285Y-106237857D01*
X148201285Y-106237857D02*
X148153666Y-106190238D01*
X148153666Y-106190238D02*
X148058428Y-106142619D01*
%TO.C,R6*%
X148756666Y-113746619D02*
X149089999Y-113270428D01*
X149328094Y-113746619D02*
X149328094Y-112746619D01*
X149328094Y-112746619D02*
X148947142Y-112746619D01*
X148947142Y-112746619D02*
X148851904Y-112794238D01*
X148851904Y-112794238D02*
X148804285Y-112841857D01*
X148804285Y-112841857D02*
X148756666Y-112937095D01*
X148756666Y-112937095D02*
X148756666Y-113079952D01*
X148756666Y-113079952D02*
X148804285Y-113175190D01*
X148804285Y-113175190D02*
X148851904Y-113222809D01*
X148851904Y-113222809D02*
X148947142Y-113270428D01*
X148947142Y-113270428D02*
X149328094Y-113270428D01*
X147899523Y-112746619D02*
X148089999Y-112746619D01*
X148089999Y-112746619D02*
X148185237Y-112794238D01*
X148185237Y-112794238D02*
X148232856Y-112841857D01*
X148232856Y-112841857D02*
X148328094Y-112984714D01*
X148328094Y-112984714D02*
X148375713Y-113175190D01*
X148375713Y-113175190D02*
X148375713Y-113556142D01*
X148375713Y-113556142D02*
X148328094Y-113651380D01*
X148328094Y-113651380D02*
X148280475Y-113699000D01*
X148280475Y-113699000D02*
X148185237Y-113746619D01*
X148185237Y-113746619D02*
X147994761Y-113746619D01*
X147994761Y-113746619D02*
X147899523Y-113699000D01*
X147899523Y-113699000D02*
X147851904Y-113651380D01*
X147851904Y-113651380D02*
X147804285Y-113556142D01*
X147804285Y-113556142D02*
X147804285Y-113318047D01*
X147804285Y-113318047D02*
X147851904Y-113222809D01*
X147851904Y-113222809D02*
X147899523Y-113175190D01*
X147899523Y-113175190D02*
X147994761Y-113127571D01*
X147994761Y-113127571D02*
X148185237Y-113127571D01*
X148185237Y-113127571D02*
X148280475Y-113175190D01*
X148280475Y-113175190D02*
X148328094Y-113222809D01*
X148328094Y-113222809D02*
X148375713Y-113318047D01*
%TO.C,L2*%
X142152666Y-71582619D02*
X142628856Y-71582619D01*
X142628856Y-71582619D02*
X142628856Y-70582619D01*
X141866951Y-70677857D02*
X141819332Y-70630238D01*
X141819332Y-70630238D02*
X141724094Y-70582619D01*
X141724094Y-70582619D02*
X141485999Y-70582619D01*
X141485999Y-70582619D02*
X141390761Y-70630238D01*
X141390761Y-70630238D02*
X141343142Y-70677857D01*
X141343142Y-70677857D02*
X141295523Y-70773095D01*
X141295523Y-70773095D02*
X141295523Y-70868333D01*
X141295523Y-70868333D02*
X141343142Y-71011190D01*
X141343142Y-71011190D02*
X141914570Y-71582619D01*
X141914570Y-71582619D02*
X141295523Y-71582619D01*
%TO.C,R7*%
X149137666Y-109174619D02*
X149470999Y-108698428D01*
X149709094Y-109174619D02*
X149709094Y-108174619D01*
X149709094Y-108174619D02*
X149328142Y-108174619D01*
X149328142Y-108174619D02*
X149232904Y-108222238D01*
X149232904Y-108222238D02*
X149185285Y-108269857D01*
X149185285Y-108269857D02*
X149137666Y-108365095D01*
X149137666Y-108365095D02*
X149137666Y-108507952D01*
X149137666Y-108507952D02*
X149185285Y-108603190D01*
X149185285Y-108603190D02*
X149232904Y-108650809D01*
X149232904Y-108650809D02*
X149328142Y-108698428D01*
X149328142Y-108698428D02*
X149709094Y-108698428D01*
X148804332Y-108174619D02*
X148137666Y-108174619D01*
X148137666Y-108174619D02*
X148566237Y-109174619D01*
%TO.C,C48*%
X172980285Y-118149904D02*
X173018381Y-118188000D01*
X173018381Y-118188000D02*
X173132666Y-118226095D01*
X173132666Y-118226095D02*
X173208857Y-118226095D01*
X173208857Y-118226095D02*
X173323143Y-118188000D01*
X173323143Y-118188000D02*
X173399333Y-118111809D01*
X173399333Y-118111809D02*
X173437428Y-118035619D01*
X173437428Y-118035619D02*
X173475524Y-117883238D01*
X173475524Y-117883238D02*
X173475524Y-117768952D01*
X173475524Y-117768952D02*
X173437428Y-117616571D01*
X173437428Y-117616571D02*
X173399333Y-117540380D01*
X173399333Y-117540380D02*
X173323143Y-117464190D01*
X173323143Y-117464190D02*
X173208857Y-117426095D01*
X173208857Y-117426095D02*
X173132666Y-117426095D01*
X173132666Y-117426095D02*
X173018381Y-117464190D01*
X173018381Y-117464190D02*
X172980285Y-117502285D01*
X172294571Y-117692761D02*
X172294571Y-118226095D01*
X172485047Y-117388000D02*
X172675524Y-117959428D01*
X172675524Y-117959428D02*
X172180285Y-117959428D01*
X171761238Y-117768952D02*
X171837428Y-117730857D01*
X171837428Y-117730857D02*
X171875523Y-117692761D01*
X171875523Y-117692761D02*
X171913619Y-117616571D01*
X171913619Y-117616571D02*
X171913619Y-117578476D01*
X171913619Y-117578476D02*
X171875523Y-117502285D01*
X171875523Y-117502285D02*
X171837428Y-117464190D01*
X171837428Y-117464190D02*
X171761238Y-117426095D01*
X171761238Y-117426095D02*
X171608857Y-117426095D01*
X171608857Y-117426095D02*
X171532666Y-117464190D01*
X171532666Y-117464190D02*
X171494571Y-117502285D01*
X171494571Y-117502285D02*
X171456476Y-117578476D01*
X171456476Y-117578476D02*
X171456476Y-117616571D01*
X171456476Y-117616571D02*
X171494571Y-117692761D01*
X171494571Y-117692761D02*
X171532666Y-117730857D01*
X171532666Y-117730857D02*
X171608857Y-117768952D01*
X171608857Y-117768952D02*
X171761238Y-117768952D01*
X171761238Y-117768952D02*
X171837428Y-117807047D01*
X171837428Y-117807047D02*
X171875523Y-117845142D01*
X171875523Y-117845142D02*
X171913619Y-117921333D01*
X171913619Y-117921333D02*
X171913619Y-118073714D01*
X171913619Y-118073714D02*
X171875523Y-118149904D01*
X171875523Y-118149904D02*
X171837428Y-118188000D01*
X171837428Y-118188000D02*
X171761238Y-118226095D01*
X171761238Y-118226095D02*
X171608857Y-118226095D01*
X171608857Y-118226095D02*
X171532666Y-118188000D01*
X171532666Y-118188000D02*
X171494571Y-118149904D01*
X171494571Y-118149904D02*
X171456476Y-118073714D01*
X171456476Y-118073714D02*
X171456476Y-117921333D01*
X171456476Y-117921333D02*
X171494571Y-117845142D01*
X171494571Y-117845142D02*
X171532666Y-117807047D01*
X171532666Y-117807047D02*
X171608857Y-117768952D01*
%TO.C,R17*%
X142702619Y-79875142D02*
X142226428Y-79541809D01*
X142702619Y-79303714D02*
X141702619Y-79303714D01*
X141702619Y-79303714D02*
X141702619Y-79684666D01*
X141702619Y-79684666D02*
X141750238Y-79779904D01*
X141750238Y-79779904D02*
X141797857Y-79827523D01*
X141797857Y-79827523D02*
X141893095Y-79875142D01*
X141893095Y-79875142D02*
X142035952Y-79875142D01*
X142035952Y-79875142D02*
X142131190Y-79827523D01*
X142131190Y-79827523D02*
X142178809Y-79779904D01*
X142178809Y-79779904D02*
X142226428Y-79684666D01*
X142226428Y-79684666D02*
X142226428Y-79303714D01*
X142702619Y-80827523D02*
X142702619Y-80256095D01*
X142702619Y-80541809D02*
X141702619Y-80541809D01*
X141702619Y-80541809D02*
X141845476Y-80446571D01*
X141845476Y-80446571D02*
X141940714Y-80351333D01*
X141940714Y-80351333D02*
X141988333Y-80256095D01*
X141702619Y-81160857D02*
X141702619Y-81827523D01*
X141702619Y-81827523D02*
X142702619Y-81398952D01*
%TO.C,C52*%
X168154285Y-119419904D02*
X168192381Y-119458000D01*
X168192381Y-119458000D02*
X168306666Y-119496095D01*
X168306666Y-119496095D02*
X168382857Y-119496095D01*
X168382857Y-119496095D02*
X168497143Y-119458000D01*
X168497143Y-119458000D02*
X168573333Y-119381809D01*
X168573333Y-119381809D02*
X168611428Y-119305619D01*
X168611428Y-119305619D02*
X168649524Y-119153238D01*
X168649524Y-119153238D02*
X168649524Y-119038952D01*
X168649524Y-119038952D02*
X168611428Y-118886571D01*
X168611428Y-118886571D02*
X168573333Y-118810380D01*
X168573333Y-118810380D02*
X168497143Y-118734190D01*
X168497143Y-118734190D02*
X168382857Y-118696095D01*
X168382857Y-118696095D02*
X168306666Y-118696095D01*
X168306666Y-118696095D02*
X168192381Y-118734190D01*
X168192381Y-118734190D02*
X168154285Y-118772285D01*
X167430476Y-118696095D02*
X167811428Y-118696095D01*
X167811428Y-118696095D02*
X167849524Y-119077047D01*
X167849524Y-119077047D02*
X167811428Y-119038952D01*
X167811428Y-119038952D02*
X167735238Y-119000857D01*
X167735238Y-119000857D02*
X167544762Y-119000857D01*
X167544762Y-119000857D02*
X167468571Y-119038952D01*
X167468571Y-119038952D02*
X167430476Y-119077047D01*
X167430476Y-119077047D02*
X167392381Y-119153238D01*
X167392381Y-119153238D02*
X167392381Y-119343714D01*
X167392381Y-119343714D02*
X167430476Y-119419904D01*
X167430476Y-119419904D02*
X167468571Y-119458000D01*
X167468571Y-119458000D02*
X167544762Y-119496095D01*
X167544762Y-119496095D02*
X167735238Y-119496095D01*
X167735238Y-119496095D02*
X167811428Y-119458000D01*
X167811428Y-119458000D02*
X167849524Y-119419904D01*
X167087619Y-118772285D02*
X167049523Y-118734190D01*
X167049523Y-118734190D02*
X166973333Y-118696095D01*
X166973333Y-118696095D02*
X166782857Y-118696095D01*
X166782857Y-118696095D02*
X166706666Y-118734190D01*
X166706666Y-118734190D02*
X166668571Y-118772285D01*
X166668571Y-118772285D02*
X166630476Y-118848476D01*
X166630476Y-118848476D02*
X166630476Y-118924666D01*
X166630476Y-118924666D02*
X166668571Y-119038952D01*
X166668571Y-119038952D02*
X167125714Y-119496095D01*
X167125714Y-119496095D02*
X166630476Y-119496095D01*
%TO.C,D11*%
X167594619Y-122151214D02*
X166594619Y-122151214D01*
X166594619Y-122151214D02*
X166594619Y-122389309D01*
X166594619Y-122389309D02*
X166642238Y-122532166D01*
X166642238Y-122532166D02*
X166737476Y-122627404D01*
X166737476Y-122627404D02*
X166832714Y-122675023D01*
X166832714Y-122675023D02*
X167023190Y-122722642D01*
X167023190Y-122722642D02*
X167166047Y-122722642D01*
X167166047Y-122722642D02*
X167356523Y-122675023D01*
X167356523Y-122675023D02*
X167451761Y-122627404D01*
X167451761Y-122627404D02*
X167547000Y-122532166D01*
X167547000Y-122532166D02*
X167594619Y-122389309D01*
X167594619Y-122389309D02*
X167594619Y-122151214D01*
X167594619Y-123675023D02*
X167594619Y-123103595D01*
X167594619Y-123389309D02*
X166594619Y-123389309D01*
X166594619Y-123389309D02*
X166737476Y-123294071D01*
X166737476Y-123294071D02*
X166832714Y-123198833D01*
X166832714Y-123198833D02*
X166880333Y-123103595D01*
X167594619Y-124627404D02*
X167594619Y-124055976D01*
X167594619Y-124341690D02*
X166594619Y-124341690D01*
X166594619Y-124341690D02*
X166737476Y-124246452D01*
X166737476Y-124246452D02*
X166832714Y-124151214D01*
X166832714Y-124151214D02*
X166880333Y-124055976D01*
%TO.C,R16*%
X134160619Y-88511142D02*
X133684428Y-88177809D01*
X134160619Y-87939714D02*
X133160619Y-87939714D01*
X133160619Y-87939714D02*
X133160619Y-88320666D01*
X133160619Y-88320666D02*
X133208238Y-88415904D01*
X133208238Y-88415904D02*
X133255857Y-88463523D01*
X133255857Y-88463523D02*
X133351095Y-88511142D01*
X133351095Y-88511142D02*
X133493952Y-88511142D01*
X133493952Y-88511142D02*
X133589190Y-88463523D01*
X133589190Y-88463523D02*
X133636809Y-88415904D01*
X133636809Y-88415904D02*
X133684428Y-88320666D01*
X133684428Y-88320666D02*
X133684428Y-87939714D01*
X134160619Y-89463523D02*
X134160619Y-88892095D01*
X134160619Y-89177809D02*
X133160619Y-89177809D01*
X133160619Y-89177809D02*
X133303476Y-89082571D01*
X133303476Y-89082571D02*
X133398714Y-88987333D01*
X133398714Y-88987333D02*
X133446333Y-88892095D01*
X133160619Y-90320666D02*
X133160619Y-90130190D01*
X133160619Y-90130190D02*
X133208238Y-90034952D01*
X133208238Y-90034952D02*
X133255857Y-89987333D01*
X133255857Y-89987333D02*
X133398714Y-89892095D01*
X133398714Y-89892095D02*
X133589190Y-89844476D01*
X133589190Y-89844476D02*
X133970142Y-89844476D01*
X133970142Y-89844476D02*
X134065380Y-89892095D01*
X134065380Y-89892095D02*
X134113000Y-89939714D01*
X134113000Y-89939714D02*
X134160619Y-90034952D01*
X134160619Y-90034952D02*
X134160619Y-90225428D01*
X134160619Y-90225428D02*
X134113000Y-90320666D01*
X134113000Y-90320666D02*
X134065380Y-90368285D01*
X134065380Y-90368285D02*
X133970142Y-90415904D01*
X133970142Y-90415904D02*
X133732047Y-90415904D01*
X133732047Y-90415904D02*
X133636809Y-90368285D01*
X133636809Y-90368285D02*
X133589190Y-90320666D01*
X133589190Y-90320666D02*
X133541571Y-90225428D01*
X133541571Y-90225428D02*
X133541571Y-90034952D01*
X133541571Y-90034952D02*
X133589190Y-89939714D01*
X133589190Y-89939714D02*
X133636809Y-89892095D01*
X133636809Y-89892095D02*
X133732047Y-89844476D01*
%TO.C,U1*%
X138429904Y-106396619D02*
X138429904Y-107206142D01*
X138429904Y-107206142D02*
X138382285Y-107301380D01*
X138382285Y-107301380D02*
X138334666Y-107349000D01*
X138334666Y-107349000D02*
X138239428Y-107396619D01*
X138239428Y-107396619D02*
X138048952Y-107396619D01*
X138048952Y-107396619D02*
X137953714Y-107349000D01*
X137953714Y-107349000D02*
X137906095Y-107301380D01*
X137906095Y-107301380D02*
X137858476Y-107206142D01*
X137858476Y-107206142D02*
X137858476Y-106396619D01*
X136858476Y-107396619D02*
X137429904Y-107396619D01*
X137144190Y-107396619D02*
X137144190Y-106396619D01*
X137144190Y-106396619D02*
X137239428Y-106539476D01*
X137239428Y-106539476D02*
X137334666Y-106634714D01*
X137334666Y-106634714D02*
X137429904Y-106682333D01*
%TO.C,D2*%
X134320619Y-99337905D02*
X133320619Y-99337905D01*
X133320619Y-99337905D02*
X133320619Y-99576000D01*
X133320619Y-99576000D02*
X133368238Y-99718857D01*
X133368238Y-99718857D02*
X133463476Y-99814095D01*
X133463476Y-99814095D02*
X133558714Y-99861714D01*
X133558714Y-99861714D02*
X133749190Y-99909333D01*
X133749190Y-99909333D02*
X133892047Y-99909333D01*
X133892047Y-99909333D02*
X134082523Y-99861714D01*
X134082523Y-99861714D02*
X134177761Y-99814095D01*
X134177761Y-99814095D02*
X134273000Y-99718857D01*
X134273000Y-99718857D02*
X134320619Y-99576000D01*
X134320619Y-99576000D02*
X134320619Y-99337905D01*
X133415857Y-100290286D02*
X133368238Y-100337905D01*
X133368238Y-100337905D02*
X133320619Y-100433143D01*
X133320619Y-100433143D02*
X133320619Y-100671238D01*
X133320619Y-100671238D02*
X133368238Y-100766476D01*
X133368238Y-100766476D02*
X133415857Y-100814095D01*
X133415857Y-100814095D02*
X133511095Y-100861714D01*
X133511095Y-100861714D02*
X133606333Y-100861714D01*
X133606333Y-100861714D02*
X133749190Y-100814095D01*
X133749190Y-100814095D02*
X134320619Y-100242667D01*
X134320619Y-100242667D02*
X134320619Y-100861714D01*
%TO.C,C1*%
X136586166Y-94695380D02*
X136633785Y-94743000D01*
X136633785Y-94743000D02*
X136776642Y-94790619D01*
X136776642Y-94790619D02*
X136871880Y-94790619D01*
X136871880Y-94790619D02*
X137014737Y-94743000D01*
X137014737Y-94743000D02*
X137109975Y-94647761D01*
X137109975Y-94647761D02*
X137157594Y-94552523D01*
X137157594Y-94552523D02*
X137205213Y-94362047D01*
X137205213Y-94362047D02*
X137205213Y-94219190D01*
X137205213Y-94219190D02*
X137157594Y-94028714D01*
X137157594Y-94028714D02*
X137109975Y-93933476D01*
X137109975Y-93933476D02*
X137014737Y-93838238D01*
X137014737Y-93838238D02*
X136871880Y-93790619D01*
X136871880Y-93790619D02*
X136776642Y-93790619D01*
X136776642Y-93790619D02*
X136633785Y-93838238D01*
X136633785Y-93838238D02*
X136586166Y-93885857D01*
X135633785Y-94790619D02*
X136205213Y-94790619D01*
X135919499Y-94790619D02*
X135919499Y-93790619D01*
X135919499Y-93790619D02*
X136014737Y-93933476D01*
X136014737Y-93933476D02*
X136109975Y-94028714D01*
X136109975Y-94028714D02*
X136205213Y-94076333D01*
%TO.C,C47*%
X148449380Y-122801142D02*
X148497000Y-122753523D01*
X148497000Y-122753523D02*
X148544619Y-122610666D01*
X148544619Y-122610666D02*
X148544619Y-122515428D01*
X148544619Y-122515428D02*
X148497000Y-122372571D01*
X148497000Y-122372571D02*
X148401761Y-122277333D01*
X148401761Y-122277333D02*
X148306523Y-122229714D01*
X148306523Y-122229714D02*
X148116047Y-122182095D01*
X148116047Y-122182095D02*
X147973190Y-122182095D01*
X147973190Y-122182095D02*
X147782714Y-122229714D01*
X147782714Y-122229714D02*
X147687476Y-122277333D01*
X147687476Y-122277333D02*
X147592238Y-122372571D01*
X147592238Y-122372571D02*
X147544619Y-122515428D01*
X147544619Y-122515428D02*
X147544619Y-122610666D01*
X147544619Y-122610666D02*
X147592238Y-122753523D01*
X147592238Y-122753523D02*
X147639857Y-122801142D01*
X147877952Y-123658285D02*
X148544619Y-123658285D01*
X147497000Y-123420190D02*
X148211285Y-123182095D01*
X148211285Y-123182095D02*
X148211285Y-123801142D01*
X147544619Y-124086857D02*
X147544619Y-124753523D01*
X147544619Y-124753523D02*
X148544619Y-124324952D01*
%TO.C,C2*%
X134024666Y-113905380D02*
X134072285Y-113953000D01*
X134072285Y-113953000D02*
X134215142Y-114000619D01*
X134215142Y-114000619D02*
X134310380Y-114000619D01*
X134310380Y-114000619D02*
X134453237Y-113953000D01*
X134453237Y-113953000D02*
X134548475Y-113857761D01*
X134548475Y-113857761D02*
X134596094Y-113762523D01*
X134596094Y-113762523D02*
X134643713Y-113572047D01*
X134643713Y-113572047D02*
X134643713Y-113429190D01*
X134643713Y-113429190D02*
X134596094Y-113238714D01*
X134596094Y-113238714D02*
X134548475Y-113143476D01*
X134548475Y-113143476D02*
X134453237Y-113048238D01*
X134453237Y-113048238D02*
X134310380Y-113000619D01*
X134310380Y-113000619D02*
X134215142Y-113000619D01*
X134215142Y-113000619D02*
X134072285Y-113048238D01*
X134072285Y-113048238D02*
X134024666Y-113095857D01*
X133643713Y-113095857D02*
X133596094Y-113048238D01*
X133596094Y-113048238D02*
X133500856Y-113000619D01*
X133500856Y-113000619D02*
X133262761Y-113000619D01*
X133262761Y-113000619D02*
X133167523Y-113048238D01*
X133167523Y-113048238D02*
X133119904Y-113095857D01*
X133119904Y-113095857D02*
X133072285Y-113191095D01*
X133072285Y-113191095D02*
X133072285Y-113286333D01*
X133072285Y-113286333D02*
X133119904Y-113429190D01*
X133119904Y-113429190D02*
X133691332Y-114000619D01*
X133691332Y-114000619D02*
X133072285Y-114000619D01*
%TO.C,R9*%
X149010666Y-117556619D02*
X149343999Y-117080428D01*
X149582094Y-117556619D02*
X149582094Y-116556619D01*
X149582094Y-116556619D02*
X149201142Y-116556619D01*
X149201142Y-116556619D02*
X149105904Y-116604238D01*
X149105904Y-116604238D02*
X149058285Y-116651857D01*
X149058285Y-116651857D02*
X149010666Y-116747095D01*
X149010666Y-116747095D02*
X149010666Y-116889952D01*
X149010666Y-116889952D02*
X149058285Y-116985190D01*
X149058285Y-116985190D02*
X149105904Y-117032809D01*
X149105904Y-117032809D02*
X149201142Y-117080428D01*
X149201142Y-117080428D02*
X149582094Y-117080428D01*
X148534475Y-117556619D02*
X148343999Y-117556619D01*
X148343999Y-117556619D02*
X148248761Y-117509000D01*
X148248761Y-117509000D02*
X148201142Y-117461380D01*
X148201142Y-117461380D02*
X148105904Y-117318523D01*
X148105904Y-117318523D02*
X148058285Y-117128047D01*
X148058285Y-117128047D02*
X148058285Y-116747095D01*
X148058285Y-116747095D02*
X148105904Y-116651857D01*
X148105904Y-116651857D02*
X148153523Y-116604238D01*
X148153523Y-116604238D02*
X148248761Y-116556619D01*
X148248761Y-116556619D02*
X148439237Y-116556619D01*
X148439237Y-116556619D02*
X148534475Y-116604238D01*
X148534475Y-116604238D02*
X148582094Y-116651857D01*
X148582094Y-116651857D02*
X148629713Y-116747095D01*
X148629713Y-116747095D02*
X148629713Y-116985190D01*
X148629713Y-116985190D02*
X148582094Y-117080428D01*
X148582094Y-117080428D02*
X148534475Y-117128047D01*
X148534475Y-117128047D02*
X148439237Y-117175666D01*
X148439237Y-117175666D02*
X148248761Y-117175666D01*
X148248761Y-117175666D02*
X148153523Y-117128047D01*
X148153523Y-117128047D02*
X148105904Y-117080428D01*
X148105904Y-117080428D02*
X148058285Y-116985190D01*
%TO.C,C6*%
X137781380Y-120737333D02*
X137829000Y-120689714D01*
X137829000Y-120689714D02*
X137876619Y-120546857D01*
X137876619Y-120546857D02*
X137876619Y-120451619D01*
X137876619Y-120451619D02*
X137829000Y-120308762D01*
X137829000Y-120308762D02*
X137733761Y-120213524D01*
X137733761Y-120213524D02*
X137638523Y-120165905D01*
X137638523Y-120165905D02*
X137448047Y-120118286D01*
X137448047Y-120118286D02*
X137305190Y-120118286D01*
X137305190Y-120118286D02*
X137114714Y-120165905D01*
X137114714Y-120165905D02*
X137019476Y-120213524D01*
X137019476Y-120213524D02*
X136924238Y-120308762D01*
X136924238Y-120308762D02*
X136876619Y-120451619D01*
X136876619Y-120451619D02*
X136876619Y-120546857D01*
X136876619Y-120546857D02*
X136924238Y-120689714D01*
X136924238Y-120689714D02*
X136971857Y-120737333D01*
X136876619Y-121594476D02*
X136876619Y-121404000D01*
X136876619Y-121404000D02*
X136924238Y-121308762D01*
X136924238Y-121308762D02*
X136971857Y-121261143D01*
X136971857Y-121261143D02*
X137114714Y-121165905D01*
X137114714Y-121165905D02*
X137305190Y-121118286D01*
X137305190Y-121118286D02*
X137686142Y-121118286D01*
X137686142Y-121118286D02*
X137781380Y-121165905D01*
X137781380Y-121165905D02*
X137829000Y-121213524D01*
X137829000Y-121213524D02*
X137876619Y-121308762D01*
X137876619Y-121308762D02*
X137876619Y-121499238D01*
X137876619Y-121499238D02*
X137829000Y-121594476D01*
X137829000Y-121594476D02*
X137781380Y-121642095D01*
X137781380Y-121642095D02*
X137686142Y-121689714D01*
X137686142Y-121689714D02*
X137448047Y-121689714D01*
X137448047Y-121689714D02*
X137352809Y-121642095D01*
X137352809Y-121642095D02*
X137305190Y-121594476D01*
X137305190Y-121594476D02*
X137257571Y-121499238D01*
X137257571Y-121499238D02*
X137257571Y-121308762D01*
X137257571Y-121308762D02*
X137305190Y-121213524D01*
X137305190Y-121213524D02*
X137352809Y-121165905D01*
X137352809Y-121165905D02*
X137448047Y-121118286D01*
%TO.C,D12*%
X145232285Y-121366619D02*
X145232285Y-120366619D01*
X145232285Y-120366619D02*
X144994190Y-120366619D01*
X144994190Y-120366619D02*
X144851333Y-120414238D01*
X144851333Y-120414238D02*
X144756095Y-120509476D01*
X144756095Y-120509476D02*
X144708476Y-120604714D01*
X144708476Y-120604714D02*
X144660857Y-120795190D01*
X144660857Y-120795190D02*
X144660857Y-120938047D01*
X144660857Y-120938047D02*
X144708476Y-121128523D01*
X144708476Y-121128523D02*
X144756095Y-121223761D01*
X144756095Y-121223761D02*
X144851333Y-121319000D01*
X144851333Y-121319000D02*
X144994190Y-121366619D01*
X144994190Y-121366619D02*
X145232285Y-121366619D01*
X143708476Y-121366619D02*
X144279904Y-121366619D01*
X143994190Y-121366619D02*
X143994190Y-120366619D01*
X143994190Y-120366619D02*
X144089428Y-120509476D01*
X144089428Y-120509476D02*
X144184666Y-120604714D01*
X144184666Y-120604714D02*
X144279904Y-120652333D01*
X143327523Y-120461857D02*
X143279904Y-120414238D01*
X143279904Y-120414238D02*
X143184666Y-120366619D01*
X143184666Y-120366619D02*
X142946571Y-120366619D01*
X142946571Y-120366619D02*
X142851333Y-120414238D01*
X142851333Y-120414238D02*
X142803714Y-120461857D01*
X142803714Y-120461857D02*
X142756095Y-120557095D01*
X142756095Y-120557095D02*
X142756095Y-120652333D01*
X142756095Y-120652333D02*
X142803714Y-120795190D01*
X142803714Y-120795190D02*
X143375142Y-121366619D01*
X143375142Y-121366619D02*
X142756095Y-121366619D01*
%TO.C,R8*%
X149264666Y-99776619D02*
X149597999Y-99300428D01*
X149836094Y-99776619D02*
X149836094Y-98776619D01*
X149836094Y-98776619D02*
X149455142Y-98776619D01*
X149455142Y-98776619D02*
X149359904Y-98824238D01*
X149359904Y-98824238D02*
X149312285Y-98871857D01*
X149312285Y-98871857D02*
X149264666Y-98967095D01*
X149264666Y-98967095D02*
X149264666Y-99109952D01*
X149264666Y-99109952D02*
X149312285Y-99205190D01*
X149312285Y-99205190D02*
X149359904Y-99252809D01*
X149359904Y-99252809D02*
X149455142Y-99300428D01*
X149455142Y-99300428D02*
X149836094Y-99300428D01*
X148693237Y-99205190D02*
X148788475Y-99157571D01*
X148788475Y-99157571D02*
X148836094Y-99109952D01*
X148836094Y-99109952D02*
X148883713Y-99014714D01*
X148883713Y-99014714D02*
X148883713Y-98967095D01*
X148883713Y-98967095D02*
X148836094Y-98871857D01*
X148836094Y-98871857D02*
X148788475Y-98824238D01*
X148788475Y-98824238D02*
X148693237Y-98776619D01*
X148693237Y-98776619D02*
X148502761Y-98776619D01*
X148502761Y-98776619D02*
X148407523Y-98824238D01*
X148407523Y-98824238D02*
X148359904Y-98871857D01*
X148359904Y-98871857D02*
X148312285Y-98967095D01*
X148312285Y-98967095D02*
X148312285Y-99014714D01*
X148312285Y-99014714D02*
X148359904Y-99109952D01*
X148359904Y-99109952D02*
X148407523Y-99157571D01*
X148407523Y-99157571D02*
X148502761Y-99205190D01*
X148502761Y-99205190D02*
X148693237Y-99205190D01*
X148693237Y-99205190D02*
X148788475Y-99252809D01*
X148788475Y-99252809D02*
X148836094Y-99300428D01*
X148836094Y-99300428D02*
X148883713Y-99395666D01*
X148883713Y-99395666D02*
X148883713Y-99586142D01*
X148883713Y-99586142D02*
X148836094Y-99681380D01*
X148836094Y-99681380D02*
X148788475Y-99729000D01*
X148788475Y-99729000D02*
X148693237Y-99776619D01*
X148693237Y-99776619D02*
X148502761Y-99776619D01*
X148502761Y-99776619D02*
X148407523Y-99729000D01*
X148407523Y-99729000D02*
X148359904Y-99681380D01*
X148359904Y-99681380D02*
X148312285Y-99586142D01*
X148312285Y-99586142D02*
X148312285Y-99395666D01*
X148312285Y-99395666D02*
X148359904Y-99300428D01*
X148359904Y-99300428D02*
X148407523Y-99252809D01*
X148407523Y-99252809D02*
X148502761Y-99205190D01*
%TO.C,D3*%
X134320619Y-117117905D02*
X133320619Y-117117905D01*
X133320619Y-117117905D02*
X133320619Y-117356000D01*
X133320619Y-117356000D02*
X133368238Y-117498857D01*
X133368238Y-117498857D02*
X133463476Y-117594095D01*
X133463476Y-117594095D02*
X133558714Y-117641714D01*
X133558714Y-117641714D02*
X133749190Y-117689333D01*
X133749190Y-117689333D02*
X133892047Y-117689333D01*
X133892047Y-117689333D02*
X134082523Y-117641714D01*
X134082523Y-117641714D02*
X134177761Y-117594095D01*
X134177761Y-117594095D02*
X134273000Y-117498857D01*
X134273000Y-117498857D02*
X134320619Y-117356000D01*
X134320619Y-117356000D02*
X134320619Y-117117905D01*
X133320619Y-118022667D02*
X133320619Y-118641714D01*
X133320619Y-118641714D02*
X133701571Y-118308381D01*
X133701571Y-118308381D02*
X133701571Y-118451238D01*
X133701571Y-118451238D02*
X133749190Y-118546476D01*
X133749190Y-118546476D02*
X133796809Y-118594095D01*
X133796809Y-118594095D02*
X133892047Y-118641714D01*
X133892047Y-118641714D02*
X134130142Y-118641714D01*
X134130142Y-118641714D02*
X134225380Y-118594095D01*
X134225380Y-118594095D02*
X134273000Y-118546476D01*
X134273000Y-118546476D02*
X134320619Y-118451238D01*
X134320619Y-118451238D02*
X134320619Y-118165524D01*
X134320619Y-118165524D02*
X134273000Y-118070286D01*
X134273000Y-118070286D02*
X134225380Y-118022667D01*
%TO.C,R3*%
X148756666Y-119334619D02*
X149089999Y-118858428D01*
X149328094Y-119334619D02*
X149328094Y-118334619D01*
X149328094Y-118334619D02*
X148947142Y-118334619D01*
X148947142Y-118334619D02*
X148851904Y-118382238D01*
X148851904Y-118382238D02*
X148804285Y-118429857D01*
X148804285Y-118429857D02*
X148756666Y-118525095D01*
X148756666Y-118525095D02*
X148756666Y-118667952D01*
X148756666Y-118667952D02*
X148804285Y-118763190D01*
X148804285Y-118763190D02*
X148851904Y-118810809D01*
X148851904Y-118810809D02*
X148947142Y-118858428D01*
X148947142Y-118858428D02*
X149328094Y-118858428D01*
X148423332Y-118334619D02*
X147804285Y-118334619D01*
X147804285Y-118334619D02*
X148137618Y-118715571D01*
X148137618Y-118715571D02*
X147994761Y-118715571D01*
X147994761Y-118715571D02*
X147899523Y-118763190D01*
X147899523Y-118763190D02*
X147851904Y-118810809D01*
X147851904Y-118810809D02*
X147804285Y-118906047D01*
X147804285Y-118906047D02*
X147804285Y-119144142D01*
X147804285Y-119144142D02*
X147851904Y-119239380D01*
X147851904Y-119239380D02*
X147899523Y-119287000D01*
X147899523Y-119287000D02*
X147994761Y-119334619D01*
X147994761Y-119334619D02*
X148280475Y-119334619D01*
X148280475Y-119334619D02*
X148375713Y-119287000D01*
X148375713Y-119287000D02*
X148423332Y-119239380D01*
%TO.C,R12*%
X149994857Y-115524619D02*
X150328190Y-115048428D01*
X150566285Y-115524619D02*
X150566285Y-114524619D01*
X150566285Y-114524619D02*
X150185333Y-114524619D01*
X150185333Y-114524619D02*
X150090095Y-114572238D01*
X150090095Y-114572238D02*
X150042476Y-114619857D01*
X150042476Y-114619857D02*
X149994857Y-114715095D01*
X149994857Y-114715095D02*
X149994857Y-114857952D01*
X149994857Y-114857952D02*
X150042476Y-114953190D01*
X150042476Y-114953190D02*
X150090095Y-115000809D01*
X150090095Y-115000809D02*
X150185333Y-115048428D01*
X150185333Y-115048428D02*
X150566285Y-115048428D01*
X149042476Y-115524619D02*
X149613904Y-115524619D01*
X149328190Y-115524619D02*
X149328190Y-114524619D01*
X149328190Y-114524619D02*
X149423428Y-114667476D01*
X149423428Y-114667476D02*
X149518666Y-114762714D01*
X149518666Y-114762714D02*
X149613904Y-114810333D01*
X148661523Y-114619857D02*
X148613904Y-114572238D01*
X148613904Y-114572238D02*
X148518666Y-114524619D01*
X148518666Y-114524619D02*
X148280571Y-114524619D01*
X148280571Y-114524619D02*
X148185333Y-114572238D01*
X148185333Y-114572238D02*
X148137714Y-114619857D01*
X148137714Y-114619857D02*
X148090095Y-114715095D01*
X148090095Y-114715095D02*
X148090095Y-114810333D01*
X148090095Y-114810333D02*
X148137714Y-114953190D01*
X148137714Y-114953190D02*
X148709142Y-115524619D01*
X148709142Y-115524619D02*
X148090095Y-115524619D01*
%TO.C,R18*%
X141178619Y-79875142D02*
X140702428Y-79541809D01*
X141178619Y-79303714D02*
X140178619Y-79303714D01*
X140178619Y-79303714D02*
X140178619Y-79684666D01*
X140178619Y-79684666D02*
X140226238Y-79779904D01*
X140226238Y-79779904D02*
X140273857Y-79827523D01*
X140273857Y-79827523D02*
X140369095Y-79875142D01*
X140369095Y-79875142D02*
X140511952Y-79875142D01*
X140511952Y-79875142D02*
X140607190Y-79827523D01*
X140607190Y-79827523D02*
X140654809Y-79779904D01*
X140654809Y-79779904D02*
X140702428Y-79684666D01*
X140702428Y-79684666D02*
X140702428Y-79303714D01*
X141178619Y-80827523D02*
X141178619Y-80256095D01*
X141178619Y-80541809D02*
X140178619Y-80541809D01*
X140178619Y-80541809D02*
X140321476Y-80446571D01*
X140321476Y-80446571D02*
X140416714Y-80351333D01*
X140416714Y-80351333D02*
X140464333Y-80256095D01*
X140607190Y-81398952D02*
X140559571Y-81303714D01*
X140559571Y-81303714D02*
X140511952Y-81256095D01*
X140511952Y-81256095D02*
X140416714Y-81208476D01*
X140416714Y-81208476D02*
X140369095Y-81208476D01*
X140369095Y-81208476D02*
X140273857Y-81256095D01*
X140273857Y-81256095D02*
X140226238Y-81303714D01*
X140226238Y-81303714D02*
X140178619Y-81398952D01*
X140178619Y-81398952D02*
X140178619Y-81589428D01*
X140178619Y-81589428D02*
X140226238Y-81684666D01*
X140226238Y-81684666D02*
X140273857Y-81732285D01*
X140273857Y-81732285D02*
X140369095Y-81779904D01*
X140369095Y-81779904D02*
X140416714Y-81779904D01*
X140416714Y-81779904D02*
X140511952Y-81732285D01*
X140511952Y-81732285D02*
X140559571Y-81684666D01*
X140559571Y-81684666D02*
X140607190Y-81589428D01*
X140607190Y-81589428D02*
X140607190Y-81398952D01*
X140607190Y-81398952D02*
X140654809Y-81303714D01*
X140654809Y-81303714D02*
X140702428Y-81256095D01*
X140702428Y-81256095D02*
X140797666Y-81208476D01*
X140797666Y-81208476D02*
X140988142Y-81208476D01*
X140988142Y-81208476D02*
X141083380Y-81256095D01*
X141083380Y-81256095D02*
X141131000Y-81303714D01*
X141131000Y-81303714D02*
X141178619Y-81398952D01*
X141178619Y-81398952D02*
X141178619Y-81589428D01*
X141178619Y-81589428D02*
X141131000Y-81684666D01*
X141131000Y-81684666D02*
X141083380Y-81732285D01*
X141083380Y-81732285D02*
X140988142Y-81779904D01*
X140988142Y-81779904D02*
X140797666Y-81779904D01*
X140797666Y-81779904D02*
X140702428Y-81732285D01*
X140702428Y-81732285D02*
X140654809Y-81684666D01*
X140654809Y-81684666D02*
X140607190Y-81589428D01*
%TO.C,C13*%
X150227380Y-80891142D02*
X150275000Y-80843523D01*
X150275000Y-80843523D02*
X150322619Y-80700666D01*
X150322619Y-80700666D02*
X150322619Y-80605428D01*
X150322619Y-80605428D02*
X150275000Y-80462571D01*
X150275000Y-80462571D02*
X150179761Y-80367333D01*
X150179761Y-80367333D02*
X150084523Y-80319714D01*
X150084523Y-80319714D02*
X149894047Y-80272095D01*
X149894047Y-80272095D02*
X149751190Y-80272095D01*
X149751190Y-80272095D02*
X149560714Y-80319714D01*
X149560714Y-80319714D02*
X149465476Y-80367333D01*
X149465476Y-80367333D02*
X149370238Y-80462571D01*
X149370238Y-80462571D02*
X149322619Y-80605428D01*
X149322619Y-80605428D02*
X149322619Y-80700666D01*
X149322619Y-80700666D02*
X149370238Y-80843523D01*
X149370238Y-80843523D02*
X149417857Y-80891142D01*
X150322619Y-81843523D02*
X150322619Y-81272095D01*
X150322619Y-81557809D02*
X149322619Y-81557809D01*
X149322619Y-81557809D02*
X149465476Y-81462571D01*
X149465476Y-81462571D02*
X149560714Y-81367333D01*
X149560714Y-81367333D02*
X149608333Y-81272095D01*
X149322619Y-82176857D02*
X149322619Y-82795904D01*
X149322619Y-82795904D02*
X149703571Y-82462571D01*
X149703571Y-82462571D02*
X149703571Y-82605428D01*
X149703571Y-82605428D02*
X149751190Y-82700666D01*
X149751190Y-82700666D02*
X149798809Y-82748285D01*
X149798809Y-82748285D02*
X149894047Y-82795904D01*
X149894047Y-82795904D02*
X150132142Y-82795904D01*
X150132142Y-82795904D02*
X150227380Y-82748285D01*
X150227380Y-82748285D02*
X150275000Y-82700666D01*
X150275000Y-82700666D02*
X150322619Y-82605428D01*
X150322619Y-82605428D02*
X150322619Y-82319714D01*
X150322619Y-82319714D02*
X150275000Y-82224476D01*
X150275000Y-82224476D02*
X150227380Y-82176857D01*
%TO.C,R5*%
X149010666Y-95966619D02*
X149343999Y-95490428D01*
X149582094Y-95966619D02*
X149582094Y-94966619D01*
X149582094Y-94966619D02*
X149201142Y-94966619D01*
X149201142Y-94966619D02*
X149105904Y-95014238D01*
X149105904Y-95014238D02*
X149058285Y-95061857D01*
X149058285Y-95061857D02*
X149010666Y-95157095D01*
X149010666Y-95157095D02*
X149010666Y-95299952D01*
X149010666Y-95299952D02*
X149058285Y-95395190D01*
X149058285Y-95395190D02*
X149105904Y-95442809D01*
X149105904Y-95442809D02*
X149201142Y-95490428D01*
X149201142Y-95490428D02*
X149582094Y-95490428D01*
X148105904Y-94966619D02*
X148582094Y-94966619D01*
X148582094Y-94966619D02*
X148629713Y-95442809D01*
X148629713Y-95442809D02*
X148582094Y-95395190D01*
X148582094Y-95395190D02*
X148486856Y-95347571D01*
X148486856Y-95347571D02*
X148248761Y-95347571D01*
X148248761Y-95347571D02*
X148153523Y-95395190D01*
X148153523Y-95395190D02*
X148105904Y-95442809D01*
X148105904Y-95442809D02*
X148058285Y-95538047D01*
X148058285Y-95538047D02*
X148058285Y-95776142D01*
X148058285Y-95776142D02*
X148105904Y-95871380D01*
X148105904Y-95871380D02*
X148153523Y-95919000D01*
X148153523Y-95919000D02*
X148248761Y-95966619D01*
X148248761Y-95966619D02*
X148486856Y-95966619D01*
X148486856Y-95966619D02*
X148582094Y-95919000D01*
X148582094Y-95919000D02*
X148629713Y-95871380D01*
%TO.C,R22*%
X152534857Y-90538619D02*
X152868190Y-90062428D01*
X153106285Y-90538619D02*
X153106285Y-89538619D01*
X153106285Y-89538619D02*
X152725333Y-89538619D01*
X152725333Y-89538619D02*
X152630095Y-89586238D01*
X152630095Y-89586238D02*
X152582476Y-89633857D01*
X152582476Y-89633857D02*
X152534857Y-89729095D01*
X152534857Y-89729095D02*
X152534857Y-89871952D01*
X152534857Y-89871952D02*
X152582476Y-89967190D01*
X152582476Y-89967190D02*
X152630095Y-90014809D01*
X152630095Y-90014809D02*
X152725333Y-90062428D01*
X152725333Y-90062428D02*
X153106285Y-90062428D01*
X152153904Y-89633857D02*
X152106285Y-89586238D01*
X152106285Y-89586238D02*
X152011047Y-89538619D01*
X152011047Y-89538619D02*
X151772952Y-89538619D01*
X151772952Y-89538619D02*
X151677714Y-89586238D01*
X151677714Y-89586238D02*
X151630095Y-89633857D01*
X151630095Y-89633857D02*
X151582476Y-89729095D01*
X151582476Y-89729095D02*
X151582476Y-89824333D01*
X151582476Y-89824333D02*
X151630095Y-89967190D01*
X151630095Y-89967190D02*
X152201523Y-90538619D01*
X152201523Y-90538619D02*
X151582476Y-90538619D01*
X151201523Y-89633857D02*
X151153904Y-89586238D01*
X151153904Y-89586238D02*
X151058666Y-89538619D01*
X151058666Y-89538619D02*
X150820571Y-89538619D01*
X150820571Y-89538619D02*
X150725333Y-89586238D01*
X150725333Y-89586238D02*
X150677714Y-89633857D01*
X150677714Y-89633857D02*
X150630095Y-89729095D01*
X150630095Y-89729095D02*
X150630095Y-89824333D01*
X150630095Y-89824333D02*
X150677714Y-89967190D01*
X150677714Y-89967190D02*
X151249142Y-90538619D01*
X151249142Y-90538619D02*
X150630095Y-90538619D01*
%TO.C,J8*%
X154892333Y-90223619D02*
X154892333Y-90937904D01*
X154892333Y-90937904D02*
X154939952Y-91080761D01*
X154939952Y-91080761D02*
X155035190Y-91176000D01*
X155035190Y-91176000D02*
X155178047Y-91223619D01*
X155178047Y-91223619D02*
X155273285Y-91223619D01*
X154273285Y-90652190D02*
X154368523Y-90604571D01*
X154368523Y-90604571D02*
X154416142Y-90556952D01*
X154416142Y-90556952D02*
X154463761Y-90461714D01*
X154463761Y-90461714D02*
X154463761Y-90414095D01*
X154463761Y-90414095D02*
X154416142Y-90318857D01*
X154416142Y-90318857D02*
X154368523Y-90271238D01*
X154368523Y-90271238D02*
X154273285Y-90223619D01*
X154273285Y-90223619D02*
X154082809Y-90223619D01*
X154082809Y-90223619D02*
X153987571Y-90271238D01*
X153987571Y-90271238D02*
X153939952Y-90318857D01*
X153939952Y-90318857D02*
X153892333Y-90414095D01*
X153892333Y-90414095D02*
X153892333Y-90461714D01*
X153892333Y-90461714D02*
X153939952Y-90556952D01*
X153939952Y-90556952D02*
X153987571Y-90604571D01*
X153987571Y-90604571D02*
X154082809Y-90652190D01*
X154082809Y-90652190D02*
X154273285Y-90652190D01*
X154273285Y-90652190D02*
X154368523Y-90699809D01*
X154368523Y-90699809D02*
X154416142Y-90747428D01*
X154416142Y-90747428D02*
X154463761Y-90842666D01*
X154463761Y-90842666D02*
X154463761Y-91033142D01*
X154463761Y-91033142D02*
X154416142Y-91128380D01*
X154416142Y-91128380D02*
X154368523Y-91176000D01*
X154368523Y-91176000D02*
X154273285Y-91223619D01*
X154273285Y-91223619D02*
X154082809Y-91223619D01*
X154082809Y-91223619D02*
X153987571Y-91176000D01*
X153987571Y-91176000D02*
X153939952Y-91128380D01*
X153939952Y-91128380D02*
X153892333Y-91033142D01*
X153892333Y-91033142D02*
X153892333Y-90842666D01*
X153892333Y-90842666D02*
X153939952Y-90747428D01*
X153939952Y-90747428D02*
X153987571Y-90699809D01*
X153987571Y-90699809D02*
X154082809Y-90652190D01*
%TO.C,C14*%
X148703380Y-80891142D02*
X148751000Y-80843523D01*
X148751000Y-80843523D02*
X148798619Y-80700666D01*
X148798619Y-80700666D02*
X148798619Y-80605428D01*
X148798619Y-80605428D02*
X148751000Y-80462571D01*
X148751000Y-80462571D02*
X148655761Y-80367333D01*
X148655761Y-80367333D02*
X148560523Y-80319714D01*
X148560523Y-80319714D02*
X148370047Y-80272095D01*
X148370047Y-80272095D02*
X148227190Y-80272095D01*
X148227190Y-80272095D02*
X148036714Y-80319714D01*
X148036714Y-80319714D02*
X147941476Y-80367333D01*
X147941476Y-80367333D02*
X147846238Y-80462571D01*
X147846238Y-80462571D02*
X147798619Y-80605428D01*
X147798619Y-80605428D02*
X147798619Y-80700666D01*
X147798619Y-80700666D02*
X147846238Y-80843523D01*
X147846238Y-80843523D02*
X147893857Y-80891142D01*
X148798619Y-81843523D02*
X148798619Y-81272095D01*
X148798619Y-81557809D02*
X147798619Y-81557809D01*
X147798619Y-81557809D02*
X147941476Y-81462571D01*
X147941476Y-81462571D02*
X148036714Y-81367333D01*
X148036714Y-81367333D02*
X148084333Y-81272095D01*
X148131952Y-82700666D02*
X148798619Y-82700666D01*
X147751000Y-82462571D02*
X148465285Y-82224476D01*
X148465285Y-82224476D02*
X148465285Y-82843523D01*
%TO.C,R19*%
X144226619Y-79875142D02*
X143750428Y-79541809D01*
X144226619Y-79303714D02*
X143226619Y-79303714D01*
X143226619Y-79303714D02*
X143226619Y-79684666D01*
X143226619Y-79684666D02*
X143274238Y-79779904D01*
X143274238Y-79779904D02*
X143321857Y-79827523D01*
X143321857Y-79827523D02*
X143417095Y-79875142D01*
X143417095Y-79875142D02*
X143559952Y-79875142D01*
X143559952Y-79875142D02*
X143655190Y-79827523D01*
X143655190Y-79827523D02*
X143702809Y-79779904D01*
X143702809Y-79779904D02*
X143750428Y-79684666D01*
X143750428Y-79684666D02*
X143750428Y-79303714D01*
X144226619Y-80827523D02*
X144226619Y-80256095D01*
X144226619Y-80541809D02*
X143226619Y-80541809D01*
X143226619Y-80541809D02*
X143369476Y-80446571D01*
X143369476Y-80446571D02*
X143464714Y-80351333D01*
X143464714Y-80351333D02*
X143512333Y-80256095D01*
X144226619Y-81303714D02*
X144226619Y-81494190D01*
X144226619Y-81494190D02*
X144179000Y-81589428D01*
X144179000Y-81589428D02*
X144131380Y-81637047D01*
X144131380Y-81637047D02*
X143988523Y-81732285D01*
X143988523Y-81732285D02*
X143798047Y-81779904D01*
X143798047Y-81779904D02*
X143417095Y-81779904D01*
X143417095Y-81779904D02*
X143321857Y-81732285D01*
X143321857Y-81732285D02*
X143274238Y-81684666D01*
X143274238Y-81684666D02*
X143226619Y-81589428D01*
X143226619Y-81589428D02*
X143226619Y-81398952D01*
X143226619Y-81398952D02*
X143274238Y-81303714D01*
X143274238Y-81303714D02*
X143321857Y-81256095D01*
X143321857Y-81256095D02*
X143417095Y-81208476D01*
X143417095Y-81208476D02*
X143655190Y-81208476D01*
X143655190Y-81208476D02*
X143750428Y-81256095D01*
X143750428Y-81256095D02*
X143798047Y-81303714D01*
X143798047Y-81303714D02*
X143845666Y-81398952D01*
X143845666Y-81398952D02*
X143845666Y-81589428D01*
X143845666Y-81589428D02*
X143798047Y-81684666D01*
X143798047Y-81684666D02*
X143750428Y-81732285D01*
X143750428Y-81732285D02*
X143655190Y-81779904D01*
%TO.C,C15*%
X147179380Y-80891142D02*
X147227000Y-80843523D01*
X147227000Y-80843523D02*
X147274619Y-80700666D01*
X147274619Y-80700666D02*
X147274619Y-80605428D01*
X147274619Y-80605428D02*
X147227000Y-80462571D01*
X147227000Y-80462571D02*
X147131761Y-80367333D01*
X147131761Y-80367333D02*
X147036523Y-80319714D01*
X147036523Y-80319714D02*
X146846047Y-80272095D01*
X146846047Y-80272095D02*
X146703190Y-80272095D01*
X146703190Y-80272095D02*
X146512714Y-80319714D01*
X146512714Y-80319714D02*
X146417476Y-80367333D01*
X146417476Y-80367333D02*
X146322238Y-80462571D01*
X146322238Y-80462571D02*
X146274619Y-80605428D01*
X146274619Y-80605428D02*
X146274619Y-80700666D01*
X146274619Y-80700666D02*
X146322238Y-80843523D01*
X146322238Y-80843523D02*
X146369857Y-80891142D01*
X147274619Y-81843523D02*
X147274619Y-81272095D01*
X147274619Y-81557809D02*
X146274619Y-81557809D01*
X146274619Y-81557809D02*
X146417476Y-81462571D01*
X146417476Y-81462571D02*
X146512714Y-81367333D01*
X146512714Y-81367333D02*
X146560333Y-81272095D01*
X146274619Y-82748285D02*
X146274619Y-82272095D01*
X146274619Y-82272095D02*
X146750809Y-82224476D01*
X146750809Y-82224476D02*
X146703190Y-82272095D01*
X146703190Y-82272095D02*
X146655571Y-82367333D01*
X146655571Y-82367333D02*
X146655571Y-82605428D01*
X146655571Y-82605428D02*
X146703190Y-82700666D01*
X146703190Y-82700666D02*
X146750809Y-82748285D01*
X146750809Y-82748285D02*
X146846047Y-82795904D01*
X146846047Y-82795904D02*
X147084142Y-82795904D01*
X147084142Y-82795904D02*
X147179380Y-82748285D01*
X147179380Y-82748285D02*
X147227000Y-82700666D01*
X147227000Y-82700666D02*
X147274619Y-82605428D01*
X147274619Y-82605428D02*
X147274619Y-82367333D01*
X147274619Y-82367333D02*
X147227000Y-82272095D01*
X147227000Y-82272095D02*
X147179380Y-82224476D01*
%TO.C,C5*%
X137580666Y-102983380D02*
X137628285Y-103031000D01*
X137628285Y-103031000D02*
X137771142Y-103078619D01*
X137771142Y-103078619D02*
X137866380Y-103078619D01*
X137866380Y-103078619D02*
X138009237Y-103031000D01*
X138009237Y-103031000D02*
X138104475Y-102935761D01*
X138104475Y-102935761D02*
X138152094Y-102840523D01*
X138152094Y-102840523D02*
X138199713Y-102650047D01*
X138199713Y-102650047D02*
X138199713Y-102507190D01*
X138199713Y-102507190D02*
X138152094Y-102316714D01*
X138152094Y-102316714D02*
X138104475Y-102221476D01*
X138104475Y-102221476D02*
X138009237Y-102126238D01*
X138009237Y-102126238D02*
X137866380Y-102078619D01*
X137866380Y-102078619D02*
X137771142Y-102078619D01*
X137771142Y-102078619D02*
X137628285Y-102126238D01*
X137628285Y-102126238D02*
X137580666Y-102173857D01*
X136675904Y-102078619D02*
X137152094Y-102078619D01*
X137152094Y-102078619D02*
X137199713Y-102554809D01*
X137199713Y-102554809D02*
X137152094Y-102507190D01*
X137152094Y-102507190D02*
X137056856Y-102459571D01*
X137056856Y-102459571D02*
X136818761Y-102459571D01*
X136818761Y-102459571D02*
X136723523Y-102507190D01*
X136723523Y-102507190D02*
X136675904Y-102554809D01*
X136675904Y-102554809D02*
X136628285Y-102650047D01*
X136628285Y-102650047D02*
X136628285Y-102888142D01*
X136628285Y-102888142D02*
X136675904Y-102983380D01*
X136675904Y-102983380D02*
X136723523Y-103031000D01*
X136723523Y-103031000D02*
X136818761Y-103078619D01*
X136818761Y-103078619D02*
X137056856Y-103078619D01*
X137056856Y-103078619D02*
X137152094Y-103031000D01*
X137152094Y-103031000D02*
X137199713Y-102983380D01*
%TO.C,D1*%
X134320619Y-108735905D02*
X133320619Y-108735905D01*
X133320619Y-108735905D02*
X133320619Y-108974000D01*
X133320619Y-108974000D02*
X133368238Y-109116857D01*
X133368238Y-109116857D02*
X133463476Y-109212095D01*
X133463476Y-109212095D02*
X133558714Y-109259714D01*
X133558714Y-109259714D02*
X133749190Y-109307333D01*
X133749190Y-109307333D02*
X133892047Y-109307333D01*
X133892047Y-109307333D02*
X134082523Y-109259714D01*
X134082523Y-109259714D02*
X134177761Y-109212095D01*
X134177761Y-109212095D02*
X134273000Y-109116857D01*
X134273000Y-109116857D02*
X134320619Y-108974000D01*
X134320619Y-108974000D02*
X134320619Y-108735905D01*
X134320619Y-110259714D02*
X134320619Y-109688286D01*
X134320619Y-109974000D02*
X133320619Y-109974000D01*
X133320619Y-109974000D02*
X133463476Y-109878762D01*
X133463476Y-109878762D02*
X133558714Y-109783524D01*
X133558714Y-109783524D02*
X133606333Y-109688286D01*
%TO.C,C4*%
X137580666Y-112381380D02*
X137628285Y-112429000D01*
X137628285Y-112429000D02*
X137771142Y-112476619D01*
X137771142Y-112476619D02*
X137866380Y-112476619D01*
X137866380Y-112476619D02*
X138009237Y-112429000D01*
X138009237Y-112429000D02*
X138104475Y-112333761D01*
X138104475Y-112333761D02*
X138152094Y-112238523D01*
X138152094Y-112238523D02*
X138199713Y-112048047D01*
X138199713Y-112048047D02*
X138199713Y-111905190D01*
X138199713Y-111905190D02*
X138152094Y-111714714D01*
X138152094Y-111714714D02*
X138104475Y-111619476D01*
X138104475Y-111619476D02*
X138009237Y-111524238D01*
X138009237Y-111524238D02*
X137866380Y-111476619D01*
X137866380Y-111476619D02*
X137771142Y-111476619D01*
X137771142Y-111476619D02*
X137628285Y-111524238D01*
X137628285Y-111524238D02*
X137580666Y-111571857D01*
X136723523Y-111809952D02*
X136723523Y-112476619D01*
X136961618Y-111429000D02*
X137199713Y-112143285D01*
X137199713Y-112143285D02*
X136580666Y-112143285D01*
%TO.C,C32*%
X162694857Y-119366380D02*
X162742476Y-119414000D01*
X162742476Y-119414000D02*
X162885333Y-119461619D01*
X162885333Y-119461619D02*
X162980571Y-119461619D01*
X162980571Y-119461619D02*
X163123428Y-119414000D01*
X163123428Y-119414000D02*
X163218666Y-119318761D01*
X163218666Y-119318761D02*
X163266285Y-119223523D01*
X163266285Y-119223523D02*
X163313904Y-119033047D01*
X163313904Y-119033047D02*
X163313904Y-118890190D01*
X163313904Y-118890190D02*
X163266285Y-118699714D01*
X163266285Y-118699714D02*
X163218666Y-118604476D01*
X163218666Y-118604476D02*
X163123428Y-118509238D01*
X163123428Y-118509238D02*
X162980571Y-118461619D01*
X162980571Y-118461619D02*
X162885333Y-118461619D01*
X162885333Y-118461619D02*
X162742476Y-118509238D01*
X162742476Y-118509238D02*
X162694857Y-118556857D01*
X162361523Y-118461619D02*
X161742476Y-118461619D01*
X161742476Y-118461619D02*
X162075809Y-118842571D01*
X162075809Y-118842571D02*
X161932952Y-118842571D01*
X161932952Y-118842571D02*
X161837714Y-118890190D01*
X161837714Y-118890190D02*
X161790095Y-118937809D01*
X161790095Y-118937809D02*
X161742476Y-119033047D01*
X161742476Y-119033047D02*
X161742476Y-119271142D01*
X161742476Y-119271142D02*
X161790095Y-119366380D01*
X161790095Y-119366380D02*
X161837714Y-119414000D01*
X161837714Y-119414000D02*
X161932952Y-119461619D01*
X161932952Y-119461619D02*
X162218666Y-119461619D01*
X162218666Y-119461619D02*
X162313904Y-119414000D01*
X162313904Y-119414000D02*
X162361523Y-119366380D01*
X161361523Y-118556857D02*
X161313904Y-118509238D01*
X161313904Y-118509238D02*
X161218666Y-118461619D01*
X161218666Y-118461619D02*
X160980571Y-118461619D01*
X160980571Y-118461619D02*
X160885333Y-118509238D01*
X160885333Y-118509238D02*
X160837714Y-118556857D01*
X160837714Y-118556857D02*
X160790095Y-118652095D01*
X160790095Y-118652095D02*
X160790095Y-118747333D01*
X160790095Y-118747333D02*
X160837714Y-118890190D01*
X160837714Y-118890190D02*
X161409142Y-119461619D01*
X161409142Y-119461619D02*
X160790095Y-119461619D01*
%TO.C,U2*%
X138175904Y-96998619D02*
X138175904Y-97808142D01*
X138175904Y-97808142D02*
X138128285Y-97903380D01*
X138128285Y-97903380D02*
X138080666Y-97951000D01*
X138080666Y-97951000D02*
X137985428Y-97998619D01*
X137985428Y-97998619D02*
X137794952Y-97998619D01*
X137794952Y-97998619D02*
X137699714Y-97951000D01*
X137699714Y-97951000D02*
X137652095Y-97903380D01*
X137652095Y-97903380D02*
X137604476Y-97808142D01*
X137604476Y-97808142D02*
X137604476Y-96998619D01*
X137175904Y-97093857D02*
X137128285Y-97046238D01*
X137128285Y-97046238D02*
X137033047Y-96998619D01*
X137033047Y-96998619D02*
X136794952Y-96998619D01*
X136794952Y-96998619D02*
X136699714Y-97046238D01*
X136699714Y-97046238D02*
X136652095Y-97093857D01*
X136652095Y-97093857D02*
X136604476Y-97189095D01*
X136604476Y-97189095D02*
X136604476Y-97284333D01*
X136604476Y-97284333D02*
X136652095Y-97427190D01*
X136652095Y-97427190D02*
X137223523Y-97998619D01*
X137223523Y-97998619D02*
X136604476Y-97998619D01*
%TO.C,C8*%
X148957380Y-120483333D02*
X149005000Y-120435714D01*
X149005000Y-120435714D02*
X149052619Y-120292857D01*
X149052619Y-120292857D02*
X149052619Y-120197619D01*
X149052619Y-120197619D02*
X149005000Y-120054762D01*
X149005000Y-120054762D02*
X148909761Y-119959524D01*
X148909761Y-119959524D02*
X148814523Y-119911905D01*
X148814523Y-119911905D02*
X148624047Y-119864286D01*
X148624047Y-119864286D02*
X148481190Y-119864286D01*
X148481190Y-119864286D02*
X148290714Y-119911905D01*
X148290714Y-119911905D02*
X148195476Y-119959524D01*
X148195476Y-119959524D02*
X148100238Y-120054762D01*
X148100238Y-120054762D02*
X148052619Y-120197619D01*
X148052619Y-120197619D02*
X148052619Y-120292857D01*
X148052619Y-120292857D02*
X148100238Y-120435714D01*
X148100238Y-120435714D02*
X148147857Y-120483333D01*
X148481190Y-121054762D02*
X148433571Y-120959524D01*
X148433571Y-120959524D02*
X148385952Y-120911905D01*
X148385952Y-120911905D02*
X148290714Y-120864286D01*
X148290714Y-120864286D02*
X148243095Y-120864286D01*
X148243095Y-120864286D02*
X148147857Y-120911905D01*
X148147857Y-120911905D02*
X148100238Y-120959524D01*
X148100238Y-120959524D02*
X148052619Y-121054762D01*
X148052619Y-121054762D02*
X148052619Y-121245238D01*
X148052619Y-121245238D02*
X148100238Y-121340476D01*
X148100238Y-121340476D02*
X148147857Y-121388095D01*
X148147857Y-121388095D02*
X148243095Y-121435714D01*
X148243095Y-121435714D02*
X148290714Y-121435714D01*
X148290714Y-121435714D02*
X148385952Y-121388095D01*
X148385952Y-121388095D02*
X148433571Y-121340476D01*
X148433571Y-121340476D02*
X148481190Y-121245238D01*
X148481190Y-121245238D02*
X148481190Y-121054762D01*
X148481190Y-121054762D02*
X148528809Y-120959524D01*
X148528809Y-120959524D02*
X148576428Y-120911905D01*
X148576428Y-120911905D02*
X148671666Y-120864286D01*
X148671666Y-120864286D02*
X148862142Y-120864286D01*
X148862142Y-120864286D02*
X148957380Y-120911905D01*
X148957380Y-120911905D02*
X149005000Y-120959524D01*
X149005000Y-120959524D02*
X149052619Y-121054762D01*
X149052619Y-121054762D02*
X149052619Y-121245238D01*
X149052619Y-121245238D02*
X149005000Y-121340476D01*
X149005000Y-121340476D02*
X148957380Y-121388095D01*
X148957380Y-121388095D02*
X148862142Y-121435714D01*
X148862142Y-121435714D02*
X148671666Y-121435714D01*
X148671666Y-121435714D02*
X148576428Y-121388095D01*
X148576428Y-121388095D02*
X148528809Y-121340476D01*
X148528809Y-121340476D02*
X148481190Y-121245238D01*
%TO.C,R4*%
X149137666Y-105364619D02*
X149470999Y-104888428D01*
X149709094Y-105364619D02*
X149709094Y-104364619D01*
X149709094Y-104364619D02*
X149328142Y-104364619D01*
X149328142Y-104364619D02*
X149232904Y-104412238D01*
X149232904Y-104412238D02*
X149185285Y-104459857D01*
X149185285Y-104459857D02*
X149137666Y-104555095D01*
X149137666Y-104555095D02*
X149137666Y-104697952D01*
X149137666Y-104697952D02*
X149185285Y-104793190D01*
X149185285Y-104793190D02*
X149232904Y-104840809D01*
X149232904Y-104840809D02*
X149328142Y-104888428D01*
X149328142Y-104888428D02*
X149709094Y-104888428D01*
X148280523Y-104697952D02*
X148280523Y-105364619D01*
X148518618Y-104317000D02*
X148756713Y-105031285D01*
X148756713Y-105031285D02*
X148137666Y-105031285D01*
%TO.C,R2*%
X149010666Y-101554619D02*
X149343999Y-101078428D01*
X149582094Y-101554619D02*
X149582094Y-100554619D01*
X149582094Y-100554619D02*
X149201142Y-100554619D01*
X149201142Y-100554619D02*
X149105904Y-100602238D01*
X149105904Y-100602238D02*
X149058285Y-100649857D01*
X149058285Y-100649857D02*
X149010666Y-100745095D01*
X149010666Y-100745095D02*
X149010666Y-100887952D01*
X149010666Y-100887952D02*
X149058285Y-100983190D01*
X149058285Y-100983190D02*
X149105904Y-101030809D01*
X149105904Y-101030809D02*
X149201142Y-101078428D01*
X149201142Y-101078428D02*
X149582094Y-101078428D01*
X148629713Y-100649857D02*
X148582094Y-100602238D01*
X148582094Y-100602238D02*
X148486856Y-100554619D01*
X148486856Y-100554619D02*
X148248761Y-100554619D01*
X148248761Y-100554619D02*
X148153523Y-100602238D01*
X148153523Y-100602238D02*
X148105904Y-100649857D01*
X148105904Y-100649857D02*
X148058285Y-100745095D01*
X148058285Y-100745095D02*
X148058285Y-100840333D01*
X148058285Y-100840333D02*
X148105904Y-100983190D01*
X148105904Y-100983190D02*
X148677332Y-101554619D01*
X148677332Y-101554619D02*
X148058285Y-101554619D01*
%TO.C,C49*%
X172980285Y-115863904D02*
X173018381Y-115902000D01*
X173018381Y-115902000D02*
X173132666Y-115940095D01*
X173132666Y-115940095D02*
X173208857Y-115940095D01*
X173208857Y-115940095D02*
X173323143Y-115902000D01*
X173323143Y-115902000D02*
X173399333Y-115825809D01*
X173399333Y-115825809D02*
X173437428Y-115749619D01*
X173437428Y-115749619D02*
X173475524Y-115597238D01*
X173475524Y-115597238D02*
X173475524Y-115482952D01*
X173475524Y-115482952D02*
X173437428Y-115330571D01*
X173437428Y-115330571D02*
X173399333Y-115254380D01*
X173399333Y-115254380D02*
X173323143Y-115178190D01*
X173323143Y-115178190D02*
X173208857Y-115140095D01*
X173208857Y-115140095D02*
X173132666Y-115140095D01*
X173132666Y-115140095D02*
X173018381Y-115178190D01*
X173018381Y-115178190D02*
X172980285Y-115216285D01*
X172294571Y-115406761D02*
X172294571Y-115940095D01*
X172485047Y-115102000D02*
X172675524Y-115673428D01*
X172675524Y-115673428D02*
X172180285Y-115673428D01*
X171837428Y-115940095D02*
X171685047Y-115940095D01*
X171685047Y-115940095D02*
X171608857Y-115902000D01*
X171608857Y-115902000D02*
X171570761Y-115863904D01*
X171570761Y-115863904D02*
X171494571Y-115749619D01*
X171494571Y-115749619D02*
X171456476Y-115597238D01*
X171456476Y-115597238D02*
X171456476Y-115292476D01*
X171456476Y-115292476D02*
X171494571Y-115216285D01*
X171494571Y-115216285D02*
X171532666Y-115178190D01*
X171532666Y-115178190D02*
X171608857Y-115140095D01*
X171608857Y-115140095D02*
X171761238Y-115140095D01*
X171761238Y-115140095D02*
X171837428Y-115178190D01*
X171837428Y-115178190D02*
X171875523Y-115216285D01*
X171875523Y-115216285D02*
X171913619Y-115292476D01*
X171913619Y-115292476D02*
X171913619Y-115482952D01*
X171913619Y-115482952D02*
X171875523Y-115559142D01*
X171875523Y-115559142D02*
X171837428Y-115597238D01*
X171837428Y-115597238D02*
X171761238Y-115635333D01*
X171761238Y-115635333D02*
X171608857Y-115635333D01*
X171608857Y-115635333D02*
X171532666Y-115597238D01*
X171532666Y-115597238D02*
X171494571Y-115559142D01*
X171494571Y-115559142D02*
X171456476Y-115482952D01*
%TO.C,C46*%
X171710285Y-119419904D02*
X171748381Y-119458000D01*
X171748381Y-119458000D02*
X171862666Y-119496095D01*
X171862666Y-119496095D02*
X171938857Y-119496095D01*
X171938857Y-119496095D02*
X172053143Y-119458000D01*
X172053143Y-119458000D02*
X172129333Y-119381809D01*
X172129333Y-119381809D02*
X172167428Y-119305619D01*
X172167428Y-119305619D02*
X172205524Y-119153238D01*
X172205524Y-119153238D02*
X172205524Y-119038952D01*
X172205524Y-119038952D02*
X172167428Y-118886571D01*
X172167428Y-118886571D02*
X172129333Y-118810380D01*
X172129333Y-118810380D02*
X172053143Y-118734190D01*
X172053143Y-118734190D02*
X171938857Y-118696095D01*
X171938857Y-118696095D02*
X171862666Y-118696095D01*
X171862666Y-118696095D02*
X171748381Y-118734190D01*
X171748381Y-118734190D02*
X171710285Y-118772285D01*
X171024571Y-118962761D02*
X171024571Y-119496095D01*
X171215047Y-118658000D02*
X171405524Y-119229428D01*
X171405524Y-119229428D02*
X170910285Y-119229428D01*
X170262666Y-118696095D02*
X170415047Y-118696095D01*
X170415047Y-118696095D02*
X170491238Y-118734190D01*
X170491238Y-118734190D02*
X170529333Y-118772285D01*
X170529333Y-118772285D02*
X170605523Y-118886571D01*
X170605523Y-118886571D02*
X170643619Y-119038952D01*
X170643619Y-119038952D02*
X170643619Y-119343714D01*
X170643619Y-119343714D02*
X170605523Y-119419904D01*
X170605523Y-119419904D02*
X170567428Y-119458000D01*
X170567428Y-119458000D02*
X170491238Y-119496095D01*
X170491238Y-119496095D02*
X170338857Y-119496095D01*
X170338857Y-119496095D02*
X170262666Y-119458000D01*
X170262666Y-119458000D02*
X170224571Y-119419904D01*
X170224571Y-119419904D02*
X170186476Y-119343714D01*
X170186476Y-119343714D02*
X170186476Y-119153238D01*
X170186476Y-119153238D02*
X170224571Y-119077047D01*
X170224571Y-119077047D02*
X170262666Y-119038952D01*
X170262666Y-119038952D02*
X170338857Y-119000857D01*
X170338857Y-119000857D02*
X170491238Y-119000857D01*
X170491238Y-119000857D02*
X170567428Y-119038952D01*
X170567428Y-119038952D02*
X170605523Y-119077047D01*
X170605523Y-119077047D02*
X170643619Y-119153238D01*
%TO.C,L1*%
X163996666Y-71725619D02*
X164472856Y-71725619D01*
X164472856Y-71725619D02*
X164472856Y-70725619D01*
X163139523Y-71725619D02*
X163710951Y-71725619D01*
X163425237Y-71725619D02*
X163425237Y-70725619D01*
X163425237Y-70725619D02*
X163520475Y-70868476D01*
X163520475Y-70868476D02*
X163615713Y-70963714D01*
X163615713Y-70963714D02*
X163710951Y-71011333D01*
%TO.C,D6*%
X162006619Y-122451905D02*
X161006619Y-122451905D01*
X161006619Y-122451905D02*
X161006619Y-122690000D01*
X161006619Y-122690000D02*
X161054238Y-122832857D01*
X161054238Y-122832857D02*
X161149476Y-122928095D01*
X161149476Y-122928095D02*
X161244714Y-122975714D01*
X161244714Y-122975714D02*
X161435190Y-123023333D01*
X161435190Y-123023333D02*
X161578047Y-123023333D01*
X161578047Y-123023333D02*
X161768523Y-122975714D01*
X161768523Y-122975714D02*
X161863761Y-122928095D01*
X161863761Y-122928095D02*
X161959000Y-122832857D01*
X161959000Y-122832857D02*
X162006619Y-122690000D01*
X162006619Y-122690000D02*
X162006619Y-122451905D01*
X161006619Y-123880476D02*
X161006619Y-123690000D01*
X161006619Y-123690000D02*
X161054238Y-123594762D01*
X161054238Y-123594762D02*
X161101857Y-123547143D01*
X161101857Y-123547143D02*
X161244714Y-123451905D01*
X161244714Y-123451905D02*
X161435190Y-123404286D01*
X161435190Y-123404286D02*
X161816142Y-123404286D01*
X161816142Y-123404286D02*
X161911380Y-123451905D01*
X161911380Y-123451905D02*
X161959000Y-123499524D01*
X161959000Y-123499524D02*
X162006619Y-123594762D01*
X162006619Y-123594762D02*
X162006619Y-123785238D01*
X162006619Y-123785238D02*
X161959000Y-123880476D01*
X161959000Y-123880476D02*
X161911380Y-123928095D01*
X161911380Y-123928095D02*
X161816142Y-123975714D01*
X161816142Y-123975714D02*
X161578047Y-123975714D01*
X161578047Y-123975714D02*
X161482809Y-123928095D01*
X161482809Y-123928095D02*
X161435190Y-123880476D01*
X161435190Y-123880476D02*
X161387571Y-123785238D01*
X161387571Y-123785238D02*
X161387571Y-123594762D01*
X161387571Y-123594762D02*
X161435190Y-123499524D01*
X161435190Y-123499524D02*
X161482809Y-123451905D01*
X161482809Y-123451905D02*
X161578047Y-123404286D01*
%TO.C,C3*%
X134024666Y-105523380D02*
X134072285Y-105571000D01*
X134072285Y-105571000D02*
X134215142Y-105618619D01*
X134215142Y-105618619D02*
X134310380Y-105618619D01*
X134310380Y-105618619D02*
X134453237Y-105571000D01*
X134453237Y-105571000D02*
X134548475Y-105475761D01*
X134548475Y-105475761D02*
X134596094Y-105380523D01*
X134596094Y-105380523D02*
X134643713Y-105190047D01*
X134643713Y-105190047D02*
X134643713Y-105047190D01*
X134643713Y-105047190D02*
X134596094Y-104856714D01*
X134596094Y-104856714D02*
X134548475Y-104761476D01*
X134548475Y-104761476D02*
X134453237Y-104666238D01*
X134453237Y-104666238D02*
X134310380Y-104618619D01*
X134310380Y-104618619D02*
X134215142Y-104618619D01*
X134215142Y-104618619D02*
X134072285Y-104666238D01*
X134072285Y-104666238D02*
X134024666Y-104713857D01*
X133691332Y-104618619D02*
X133072285Y-104618619D01*
X133072285Y-104618619D02*
X133405618Y-104999571D01*
X133405618Y-104999571D02*
X133262761Y-104999571D01*
X133262761Y-104999571D02*
X133167523Y-105047190D01*
X133167523Y-105047190D02*
X133119904Y-105094809D01*
X133119904Y-105094809D02*
X133072285Y-105190047D01*
X133072285Y-105190047D02*
X133072285Y-105428142D01*
X133072285Y-105428142D02*
X133119904Y-105523380D01*
X133119904Y-105523380D02*
X133167523Y-105571000D01*
X133167523Y-105571000D02*
X133262761Y-105618619D01*
X133262761Y-105618619D02*
X133548475Y-105618619D01*
X133548475Y-105618619D02*
X133643713Y-105571000D01*
X133643713Y-105571000D02*
X133691332Y-105523380D01*
%TO.C,C37*%
X127875380Y-102227142D02*
X127923000Y-102179523D01*
X127923000Y-102179523D02*
X127970619Y-102036666D01*
X127970619Y-102036666D02*
X127970619Y-101941428D01*
X127970619Y-101941428D02*
X127923000Y-101798571D01*
X127923000Y-101798571D02*
X127827761Y-101703333D01*
X127827761Y-101703333D02*
X127732523Y-101655714D01*
X127732523Y-101655714D02*
X127542047Y-101608095D01*
X127542047Y-101608095D02*
X127399190Y-101608095D01*
X127399190Y-101608095D02*
X127208714Y-101655714D01*
X127208714Y-101655714D02*
X127113476Y-101703333D01*
X127113476Y-101703333D02*
X127018238Y-101798571D01*
X127018238Y-101798571D02*
X126970619Y-101941428D01*
X126970619Y-101941428D02*
X126970619Y-102036666D01*
X126970619Y-102036666D02*
X127018238Y-102179523D01*
X127018238Y-102179523D02*
X127065857Y-102227142D01*
X126970619Y-102560476D02*
X126970619Y-103179523D01*
X126970619Y-103179523D02*
X127351571Y-102846190D01*
X127351571Y-102846190D02*
X127351571Y-102989047D01*
X127351571Y-102989047D02*
X127399190Y-103084285D01*
X127399190Y-103084285D02*
X127446809Y-103131904D01*
X127446809Y-103131904D02*
X127542047Y-103179523D01*
X127542047Y-103179523D02*
X127780142Y-103179523D01*
X127780142Y-103179523D02*
X127875380Y-103131904D01*
X127875380Y-103131904D02*
X127923000Y-103084285D01*
X127923000Y-103084285D02*
X127970619Y-102989047D01*
X127970619Y-102989047D02*
X127970619Y-102703333D01*
X127970619Y-102703333D02*
X127923000Y-102608095D01*
X127923000Y-102608095D02*
X127875380Y-102560476D01*
X126970619Y-103512857D02*
X126970619Y-104179523D01*
X126970619Y-104179523D02*
X127970619Y-103750952D01*
D11*
%TO.C,R1*%
X145795276Y-109967500D02*
X146304724Y-109967500D01*
X145795276Y-111012500D02*
X146304724Y-111012500D01*
%TO.C,U5*%
X154686000Y-123210000D02*
X156636000Y-123210000D01*
X154686000Y-123210000D02*
X152736000Y-123210000D01*
X154686000Y-118090000D02*
X158136000Y-118090000D01*
X154686000Y-118090000D02*
X152736000Y-118090000D01*
%TO.C,R11*%
X145822936Y-96547000D02*
X146277064Y-96547000D01*
X145822936Y-98017000D02*
X146277064Y-98017000D01*
%TO.C,C7*%
X137670000Y-89007733D02*
X137670000Y-89300267D01*
X136650000Y-89007733D02*
X136650000Y-89300267D01*
%TO.C,C53*%
X140968000Y-123590267D02*
X140968000Y-123297733D01*
X141988000Y-123590267D02*
X141988000Y-123297733D01*
%TO.C,U3*%
X143784000Y-116078000D02*
X143784000Y-114128000D01*
X143784000Y-116078000D02*
X143784000Y-118028000D01*
X138664000Y-116078000D02*
X138664000Y-112628000D01*
X138664000Y-116078000D02*
X138664000Y-118028000D01*
%TO.C,R10*%
X145822936Y-105945000D02*
X146277064Y-105945000D01*
X145822936Y-107415000D02*
X146277064Y-107415000D01*
%TO.C,R6*%
X145795276Y-112761500D02*
X146304724Y-112761500D01*
X145795276Y-113806500D02*
X146304724Y-113806500D01*
%TO.C,L2*%
X138711000Y-72163000D02*
X145261000Y-72163000D01*
X138711000Y-73423500D02*
X138711000Y-72163000D01*
X138711000Y-77452500D02*
X138711000Y-78713000D01*
X138711000Y-78713000D02*
X145261000Y-78713000D01*
X145261000Y-72163000D02*
X145261000Y-73423500D01*
X145261000Y-78713000D02*
X145261000Y-77452500D01*
%TO.C,R7*%
X145822936Y-107977000D02*
X146277064Y-107977000D01*
X145822936Y-109447000D02*
X146277064Y-109447000D01*
%TO.C,C48*%
X169818267Y-118620000D02*
X169525733Y-118620000D01*
X169818267Y-117600000D02*
X169525733Y-117600000D01*
%TO.C,R17*%
X141717500Y-84074724D02*
X141717500Y-83565276D01*
X142762500Y-84074724D02*
X142762500Y-83565276D01*
%TO.C,C52*%
X167786267Y-120906000D02*
X167493733Y-120906000D01*
X167786267Y-119886000D02*
X167493733Y-119886000D01*
%TO.C,D11*%
X167858000Y-123365500D02*
X167858000Y-124015500D01*
X167858000Y-123365500D02*
X167858000Y-122715500D01*
X170978000Y-123365500D02*
X170978000Y-125040500D01*
X170978000Y-123365500D02*
X170978000Y-122715500D01*
%TO.C,R16*%
X135650500Y-88899276D02*
X135650500Y-89408724D01*
X134605500Y-88899276D02*
X134605500Y-89408724D01*
%TO.C,U1*%
X143784000Y-107696000D02*
X143784000Y-105746000D01*
X143784000Y-107696000D02*
X143784000Y-109646000D01*
X138664000Y-107696000D02*
X138664000Y-104246000D01*
X138664000Y-107696000D02*
X138664000Y-109646000D01*
%TO.C,D2*%
X134532000Y-101686000D02*
X134532000Y-99026000D01*
X136232000Y-101686000D02*
X134532000Y-101686000D01*
X136232000Y-101686000D02*
X136232000Y-99026000D01*
%TO.C,C1*%
X136565767Y-96268000D02*
X136273233Y-96268000D01*
X136565767Y-95248000D02*
X136273233Y-95248000D01*
%TO.C,C47*%
X147068000Y-123297733D02*
X147068000Y-123590267D01*
X146048000Y-123297733D02*
X146048000Y-123590267D01*
%TO.C,C2*%
X136251733Y-113028000D02*
X136544267Y-113028000D01*
X136251733Y-114048000D02*
X136544267Y-114048000D01*
%TO.C,R9*%
X145822936Y-116359000D02*
X146277064Y-116359000D01*
X145822936Y-117829000D02*
X146277064Y-117829000D01*
%TO.C,C6*%
X136679000Y-118117252D02*
X136679000Y-117594748D01*
X138149000Y-118117252D02*
X138149000Y-117594748D01*
%TO.C,D12*%
X142458000Y-123190000D02*
X142458000Y-123840000D01*
X142458000Y-123190000D02*
X142458000Y-122540000D01*
X145578000Y-123190000D02*
X145578000Y-124865000D01*
X145578000Y-123190000D02*
X145578000Y-122540000D01*
%TO.C,R8*%
X145822936Y-98579000D02*
X146277064Y-98579000D01*
X145822936Y-100049000D02*
X146277064Y-100049000D01*
%TO.C,D3*%
X134532000Y-119466000D02*
X134532000Y-116806000D01*
X136232000Y-119466000D02*
X134532000Y-119466000D01*
X136232000Y-119466000D02*
X136232000Y-116806000D01*
%TO.C,R3*%
X145795276Y-118349500D02*
X146304724Y-118349500D01*
X145795276Y-119394500D02*
X146304724Y-119394500D01*
%TO.C,R12*%
X145822936Y-114327000D02*
X146277064Y-114327000D01*
X145822936Y-115797000D02*
X146277064Y-115797000D01*
%TO.C,R18*%
X140193500Y-84074724D02*
X140193500Y-83565276D01*
X141238500Y-84074724D02*
X141238500Y-83565276D01*
%TO.C,C13*%
X149350000Y-84982267D02*
X149350000Y-84689733D01*
X150370000Y-84982267D02*
X150370000Y-84689733D01*
%TO.C,R5*%
X145795276Y-94981500D02*
X146304724Y-94981500D01*
X145795276Y-96026500D02*
X146304724Y-96026500D01*
%TO.C,R22*%
X151637276Y-88123500D02*
X152146724Y-88123500D01*
X151637276Y-89168500D02*
X152146724Y-89168500D01*
%TO.C,J8*%
X158599000Y-92331000D02*
X157159000Y-92331000D01*
X157159000Y-117281000D02*
X151959000Y-117281000D01*
X157159000Y-116711000D02*
X157159000Y-117281000D01*
X157159000Y-114171000D02*
X157159000Y-115191000D01*
X157159000Y-111631000D02*
X157159000Y-112651000D01*
X157159000Y-109091000D02*
X157159000Y-110111000D01*
X157159000Y-106551000D02*
X157159000Y-107571000D01*
X157159000Y-104011000D02*
X157159000Y-105031000D01*
X157159000Y-101471000D02*
X157159000Y-102491000D01*
X157159000Y-98931000D02*
X157159000Y-99951000D01*
X157159000Y-96391000D02*
X157159000Y-97411000D01*
X157159000Y-93851000D02*
X157159000Y-94871000D01*
X157159000Y-91761000D02*
X157159000Y-92331000D01*
X157159000Y-91761000D02*
X151959000Y-91761000D01*
X151959000Y-116711000D02*
X151959000Y-117281000D01*
X151959000Y-114171000D02*
X151959000Y-115191000D01*
X151959000Y-111631000D02*
X151959000Y-112651000D01*
X151959000Y-109091000D02*
X151959000Y-110111000D01*
X151959000Y-106551000D02*
X151959000Y-107571000D01*
X151959000Y-104011000D02*
X151959000Y-105031000D01*
X151959000Y-101471000D02*
X151959000Y-102491000D01*
X151959000Y-98931000D02*
X151959000Y-99951000D01*
X151959000Y-96391000D02*
X151959000Y-97411000D01*
X151959000Y-93851000D02*
X151959000Y-94871000D01*
X151959000Y-91761000D02*
X151959000Y-92331000D01*
%TO.C,C14*%
X147826000Y-84982267D02*
X147826000Y-84689733D01*
X148846000Y-84982267D02*
X148846000Y-84689733D01*
%TO.C,R19*%
X143241500Y-84074724D02*
X143241500Y-83565276D01*
X144286500Y-84074724D02*
X144286500Y-83565276D01*
%TO.C,C15*%
X146302000Y-84982267D02*
X146302000Y-84689733D01*
X147322000Y-84982267D02*
X147322000Y-84689733D01*
%TO.C,C5*%
X136679000Y-100337252D02*
X136679000Y-99814748D01*
X138149000Y-100337252D02*
X138149000Y-99814748D01*
%TO.C,D1*%
X134532000Y-111084000D02*
X134532000Y-108424000D01*
X136232000Y-111084000D02*
X134532000Y-111084000D01*
X136232000Y-111084000D02*
X136232000Y-108424000D01*
%TO.C,C4*%
X136679000Y-109735252D02*
X136679000Y-109212748D01*
X138149000Y-109735252D02*
X138149000Y-109212748D01*
%TO.C,C32*%
X161905733Y-119886000D02*
X162198267Y-119886000D01*
X161905733Y-120906000D02*
X162198267Y-120906000D01*
%TO.C,U2*%
X143784000Y-98298000D02*
X143784000Y-96348000D01*
X143784000Y-98298000D02*
X143784000Y-100248000D01*
X138664000Y-98298000D02*
X138664000Y-94848000D01*
X138664000Y-98298000D02*
X138664000Y-100248000D01*
%TO.C,C8*%
X149604000Y-120796267D02*
X149604000Y-120503733D01*
X150624000Y-120796267D02*
X150624000Y-120503733D01*
%TO.C,R4*%
X145795276Y-104379500D02*
X146304724Y-104379500D01*
X145795276Y-105424500D02*
X146304724Y-105424500D01*
%TO.C,R2*%
X145795276Y-100569500D02*
X146304724Y-100569500D01*
X145795276Y-101614500D02*
X146304724Y-101614500D01*
%TO.C,C49*%
X169818267Y-116080000D02*
X169525733Y-116080000D01*
X169818267Y-115060000D02*
X169525733Y-115060000D01*
%TO.C,C46*%
X171342267Y-120906000D02*
X171049733Y-120906000D01*
X171342267Y-119886000D02*
X171049733Y-119886000D01*
%TO.C,L1*%
X167105000Y-78713000D02*
X160555000Y-78713000D01*
X167105000Y-77452500D02*
X167105000Y-78713000D01*
X167105000Y-73423500D02*
X167105000Y-72163000D01*
X167105000Y-72163000D02*
X160555000Y-72163000D01*
X160555000Y-78713000D02*
X160555000Y-77452500D01*
X160555000Y-72163000D02*
X160555000Y-73423500D01*
%TO.C,D6*%
X162270000Y-123190000D02*
X162270000Y-123840000D01*
X162270000Y-123190000D02*
X162270000Y-122540000D01*
X165390000Y-123190000D02*
X165390000Y-124865000D01*
X165390000Y-123190000D02*
X165390000Y-122540000D01*
%TO.C,C3*%
X136251733Y-104646000D02*
X136544267Y-104646000D01*
X136251733Y-105666000D02*
X136544267Y-105666000D01*
%TO.C,C37*%
X125474000Y-103016267D02*
X125474000Y-102723733D01*
X126494000Y-103016267D02*
X126494000Y-102723733D01*
%TD*%
D12*
X173087071Y-130809973D02*
G75*
G03*
X175119073Y-128778000I29J2031973D01*
G01*
X134281607Y-124064347D02*
G75*
G03*
X133039370Y-121386051I-3504807J1647D01*
G01*
X176351146Y-121296261D02*
G75*
G03*
X175119073Y-123962254I2268654J-2666139D01*
G01*
X134281619Y-124064347D02*
X134281619Y-128778000D01*
X173087071Y-130810000D02*
X136313619Y-130810002D01*
X175119073Y-123962254D02*
X175119073Y-128778000D01*
X188142262Y-95782046D02*
G75*
G03*
X121142262Y-95782046I-33500000J0D01*
G01*
X134281598Y-128778000D02*
G75*
G03*
X136313619Y-130810002I2032002J0D01*
G01*
X176351135Y-121296249D02*
G75*
G03*
X188142262Y-95782046I-21708895J25514219D01*
G01*
X121142265Y-95782046D02*
G75*
G03*
X133039370Y-121386051I33499975J-14D01*
G01*
M02*
