M48
; DRILL file {KiCad 8.0.4} date 2024-10-03T15:45:32+0300
; FORMAT={-:-/ absolute / inch / decimal}
; #@! TF.CreationDate,2024-10-03T15:45:32+03:00
; #@! TF.GenerationSoftware,Kicad,Pcbnew,8.0.4
; #@! TF.FileFunction,Plated,1,6,PTH
FMAT,2
INCH
; #@! TA.AperFunction,Plated,PTH,ViaDrill
T1C0.0157
; #@! TA.AperFunction,Plated,PTH,ComponentDrill
T2C0.0256
; #@! TA.AperFunction,Plated,PTH,ComponentDrill
T3C0.0276
; #@! TA.AperFunction,Plated,PTH,ViaDrill
T4C0.0394
; #@! TA.AperFunction,Plated,PTH,ComponentDrill
T5C0.0394
%
G90
G05
T1
X4.9114Y-2.7165
X4.9545Y-3.0709
X4.9572Y-2.6609
X4.9705Y-3.1102
X5.0045Y-2.874
X5.0394Y-3.7106
X5.0492Y-2.6181
X5.0669Y-2.9094
X5.1083Y-2.6181
X5.1206Y-2.9109
X5.18Y-3.6249
X5.1813Y-3.4213
X5.2003Y-2.6609
X5.2335Y-2.8398
X5.265Y-3.05
X5.2677Y-2.7402
X5.3228Y-2.7008
X5.33Y-3.12
X5.378Y-2.8583
X5.4304Y-2.9083
X5.4331Y-2.8661
X5.4331Y-4.1043
X5.4486Y-2.9433
X5.453Y-2.9824
X5.4682Y-2.8468
X5.47Y-2.46
X5.48Y-2.77
X5.4882Y-3.0
X5.5Y-2.6
X5.505Y-2.81
X5.5124Y-3.0311
X5.515Y-3.505
X5.56Y-3.09
X5.5685Y-2.555
X5.5807Y-2.0866
X5.59Y-2.26
X5.59Y-3.82
X5.6004Y-1.9685
X5.6004Y-2.0276
X5.605Y-2.505
X5.6683Y-2.0873
X5.69Y-2.45
X5.7185Y-1.9193
X5.73Y-2.45
X5.7673Y-2.4376
X5.79Y-2.363
X5.8Y-2.21
X5.815Y-2.445
X5.82Y-2.77
X5.82Y-2.82
X5.82Y-2.87
X5.8518Y-1.9829
X5.87Y-2.77
X5.87Y-2.82
X5.87Y-2.87
X5.92Y-2.77
X5.92Y-2.82
X5.92Y-2.87
X5.935Y-2.45
X5.9396Y-2.045
X6.0Y-2.45
X6.03Y-2.2151
X6.03Y-2.33
X6.03Y-2.4
X6.0531Y-1.9291
X6.09Y-3.19
X6.13Y-3.12
X6.1363Y-3.342
X6.1373Y-3.4099
X6.155Y-4.085
X6.1713Y-3.6713
X6.22Y-2.58
X6.2274Y-3.2776
X6.2451Y-2.9641
X6.2756Y-2.126
X6.285Y-3.135
X6.2913Y-2.2126
X6.33Y-2.66
X6.34Y-3.185
X6.378Y-2.1575
X6.4252Y-2.7874
X6.426Y-3.8279
X6.4337Y-3.2463
X6.4514Y-3.0073
X6.4646Y-2.6772
X6.465Y-3.945
X6.51Y-3.755
X6.53Y-3.63
X6.5352Y-3.9287
X6.55Y-3.98
X6.6Y-2.83
X6.6106Y-3.2713
X6.6196Y-2.8991
X6.6196Y-2.967
X6.645Y-3.53
X6.6732Y-2.5984
X6.6917Y-2.8973
X6.7264Y-3.7
X6.7323Y-2.6181
X6.777Y-2.8695
X6.8035Y-3.0987
X6.8209Y-3.061
X6.8273Y-2.6609
X6.8341Y-2.746
X6.8602Y-2.7165
X6.8602Y-2.815
X6.8996Y-2.9626
T2
X4.73Y-2.615
X4.73Y-2.665
X4.73Y-2.715
X4.73Y-2.765
X4.73Y-2.815
X4.73Y-2.865
X4.73Y-2.915
X4.73Y-2.965
X4.73Y-3.015
X4.73Y-3.065
X6.235Y-3.59
X6.285Y-3.59
X6.335Y-3.59
X6.385Y-3.59
X7.0431Y-2.615
X7.0431Y-2.665
X7.0431Y-2.715
X7.0431Y-2.765
X7.0431Y-2.815
X7.0431Y-2.865
X7.0431Y-2.915
X7.0431Y-2.965
X7.0431Y-3.015
X7.0431Y-3.065
T3
X4.91Y-3.385
X4.91Y-3.435
X5.2594Y-2.3465
X5.2594Y-2.3965
X5.3094Y-2.3465
X5.3094Y-2.3965
X5.3594Y-2.3465
X5.3594Y-2.3965
X5.4094Y-2.3465
X5.4094Y-2.3965
X5.4594Y-2.3465
X5.4594Y-2.3965
X6.8656Y-3.385
X6.8656Y-3.435
T4
X5.415Y-2.54
T5
X5.4794Y-4.24
X5.5976Y-4.24
X5.7157Y-4.24
X5.8338Y-4.24
X5.9519Y-4.24
X6.07Y-4.24
X6.25Y-4.24
X6.35Y-4.24
X6.45Y-4.24
X6.55Y-4.24
M30
