%TF.GenerationSoftware,KiCad,Pcbnew,7.0.1*%
%TF.CreationDate,2023-12-24T22:53:40+03:00*%
%TF.ProjectId,_____ __________,1f3b3042-3020-4433-9f40-30323b353d38,rev?*%
%TF.SameCoordinates,Original*%
%TF.FileFunction,Legend,Top*%
%TF.FilePolarity,Positive*%
%FSLAX46Y46*%
G04 Gerber Fmt 4.6, Leading zero omitted, Abs format (unit mm)*
G04 Created by KiCad (PCBNEW 7.0.1) date 2023-12-24 22:53:40*
%MOMM*%
%LPD*%
G01*
G04 APERTURE LIST*
%ADD10C,0.150000*%
%ADD11C,0.120000*%
%TA.AperFunction,Profile*%
%ADD12C,0.200000*%
%TD*%
G04 APERTURE END LIST*
D10*
X155321000Y-121793000D02*
X155321000Y-120777000D01*
X156083000Y-120777000D02*
X156083000Y-118745000D01*
X155321000Y-120777000D02*
X156083000Y-120777000D01*
X153670000Y-118237000D02*
X155575000Y-118237000D01*
X152146000Y-120904000D02*
X152146000Y-121793000D01*
X152146000Y-120904000D02*
X153670000Y-120904000D01*
X153670000Y-120904000D02*
X153670000Y-118237000D01*
%TO.C,R27*%
X165601714Y-94858095D02*
X165335047Y-94477142D01*
X165144571Y-94858095D02*
X165144571Y-94058095D01*
X165144571Y-94058095D02*
X165449333Y-94058095D01*
X165449333Y-94058095D02*
X165525523Y-94096190D01*
X165525523Y-94096190D02*
X165563618Y-94134285D01*
X165563618Y-94134285D02*
X165601714Y-94210476D01*
X165601714Y-94210476D02*
X165601714Y-94324761D01*
X165601714Y-94324761D02*
X165563618Y-94400952D01*
X165563618Y-94400952D02*
X165525523Y-94439047D01*
X165525523Y-94439047D02*
X165449333Y-94477142D01*
X165449333Y-94477142D02*
X165144571Y-94477142D01*
X165906475Y-94134285D02*
X165944571Y-94096190D01*
X165944571Y-94096190D02*
X166020761Y-94058095D01*
X166020761Y-94058095D02*
X166211237Y-94058095D01*
X166211237Y-94058095D02*
X166287428Y-94096190D01*
X166287428Y-94096190D02*
X166325523Y-94134285D01*
X166325523Y-94134285D02*
X166363618Y-94210476D01*
X166363618Y-94210476D02*
X166363618Y-94286666D01*
X166363618Y-94286666D02*
X166325523Y-94400952D01*
X166325523Y-94400952D02*
X165868380Y-94858095D01*
X165868380Y-94858095D02*
X166363618Y-94858095D01*
X166630285Y-94058095D02*
X167163619Y-94058095D01*
X167163619Y-94058095D02*
X166820761Y-94858095D01*
%TO.C,U8*%
X166243095Y-111857619D02*
X166243095Y-112667142D01*
X166243095Y-112667142D02*
X166290714Y-112762380D01*
X166290714Y-112762380D02*
X166338333Y-112810000D01*
X166338333Y-112810000D02*
X166433571Y-112857619D01*
X166433571Y-112857619D02*
X166624047Y-112857619D01*
X166624047Y-112857619D02*
X166719285Y-112810000D01*
X166719285Y-112810000D02*
X166766904Y-112762380D01*
X166766904Y-112762380D02*
X166814523Y-112667142D01*
X166814523Y-112667142D02*
X166814523Y-111857619D01*
X167433571Y-112286190D02*
X167338333Y-112238571D01*
X167338333Y-112238571D02*
X167290714Y-112190952D01*
X167290714Y-112190952D02*
X167243095Y-112095714D01*
X167243095Y-112095714D02*
X167243095Y-112048095D01*
X167243095Y-112048095D02*
X167290714Y-111952857D01*
X167290714Y-111952857D02*
X167338333Y-111905238D01*
X167338333Y-111905238D02*
X167433571Y-111857619D01*
X167433571Y-111857619D02*
X167624047Y-111857619D01*
X167624047Y-111857619D02*
X167719285Y-111905238D01*
X167719285Y-111905238D02*
X167766904Y-111952857D01*
X167766904Y-111952857D02*
X167814523Y-112048095D01*
X167814523Y-112048095D02*
X167814523Y-112095714D01*
X167814523Y-112095714D02*
X167766904Y-112190952D01*
X167766904Y-112190952D02*
X167719285Y-112238571D01*
X167719285Y-112238571D02*
X167624047Y-112286190D01*
X167624047Y-112286190D02*
X167433571Y-112286190D01*
X167433571Y-112286190D02*
X167338333Y-112333809D01*
X167338333Y-112333809D02*
X167290714Y-112381428D01*
X167290714Y-112381428D02*
X167243095Y-112476666D01*
X167243095Y-112476666D02*
X167243095Y-112667142D01*
X167243095Y-112667142D02*
X167290714Y-112762380D01*
X167290714Y-112762380D02*
X167338333Y-112810000D01*
X167338333Y-112810000D02*
X167433571Y-112857619D01*
X167433571Y-112857619D02*
X167624047Y-112857619D01*
X167624047Y-112857619D02*
X167719285Y-112810000D01*
X167719285Y-112810000D02*
X167766904Y-112762380D01*
X167766904Y-112762380D02*
X167814523Y-112667142D01*
X167814523Y-112667142D02*
X167814523Y-112476666D01*
X167814523Y-112476666D02*
X167766904Y-112381428D01*
X167766904Y-112381428D02*
X167719285Y-112333809D01*
X167719285Y-112333809D02*
X167624047Y-112286190D01*
%TO.C,J10*%
X177244476Y-89334619D02*
X177244476Y-90048904D01*
X177244476Y-90048904D02*
X177196857Y-90191761D01*
X177196857Y-90191761D02*
X177101619Y-90287000D01*
X177101619Y-90287000D02*
X176958762Y-90334619D01*
X176958762Y-90334619D02*
X176863524Y-90334619D01*
X178244476Y-90334619D02*
X177673048Y-90334619D01*
X177958762Y-90334619D02*
X177958762Y-89334619D01*
X177958762Y-89334619D02*
X177863524Y-89477476D01*
X177863524Y-89477476D02*
X177768286Y-89572714D01*
X177768286Y-89572714D02*
X177673048Y-89620333D01*
X178863524Y-89334619D02*
X178958762Y-89334619D01*
X178958762Y-89334619D02*
X179054000Y-89382238D01*
X179054000Y-89382238D02*
X179101619Y-89429857D01*
X179101619Y-89429857D02*
X179149238Y-89525095D01*
X179149238Y-89525095D02*
X179196857Y-89715571D01*
X179196857Y-89715571D02*
X179196857Y-89953666D01*
X179196857Y-89953666D02*
X179149238Y-90144142D01*
X179149238Y-90144142D02*
X179101619Y-90239380D01*
X179101619Y-90239380D02*
X179054000Y-90287000D01*
X179054000Y-90287000D02*
X178958762Y-90334619D01*
X178958762Y-90334619D02*
X178863524Y-90334619D01*
X178863524Y-90334619D02*
X178768286Y-90287000D01*
X178768286Y-90287000D02*
X178720667Y-90239380D01*
X178720667Y-90239380D02*
X178673048Y-90144142D01*
X178673048Y-90144142D02*
X178625429Y-89953666D01*
X178625429Y-89953666D02*
X178625429Y-89715571D01*
X178625429Y-89715571D02*
X178673048Y-89525095D01*
X178673048Y-89525095D02*
X178720667Y-89429857D01*
X178720667Y-89429857D02*
X178768286Y-89382238D01*
X178768286Y-89382238D02*
X178863524Y-89334619D01*
%TO.C,J4*%
X169211666Y-123668619D02*
X169211666Y-124382904D01*
X169211666Y-124382904D02*
X169164047Y-124525761D01*
X169164047Y-124525761D02*
X169068809Y-124621000D01*
X169068809Y-124621000D02*
X168925952Y-124668619D01*
X168925952Y-124668619D02*
X168830714Y-124668619D01*
X170116428Y-124001952D02*
X170116428Y-124668619D01*
X169878333Y-123621000D02*
X169640238Y-124335285D01*
X169640238Y-124335285D02*
X170259285Y-124335285D01*
%TO.C,C30*%
X141517904Y-104908285D02*
X141556000Y-104946381D01*
X141556000Y-104946381D02*
X141594095Y-105060666D01*
X141594095Y-105060666D02*
X141594095Y-105136857D01*
X141594095Y-105136857D02*
X141556000Y-105251143D01*
X141556000Y-105251143D02*
X141479809Y-105327333D01*
X141479809Y-105327333D02*
X141403619Y-105365428D01*
X141403619Y-105365428D02*
X141251238Y-105403524D01*
X141251238Y-105403524D02*
X141136952Y-105403524D01*
X141136952Y-105403524D02*
X140984571Y-105365428D01*
X140984571Y-105365428D02*
X140908380Y-105327333D01*
X140908380Y-105327333D02*
X140832190Y-105251143D01*
X140832190Y-105251143D02*
X140794095Y-105136857D01*
X140794095Y-105136857D02*
X140794095Y-105060666D01*
X140794095Y-105060666D02*
X140832190Y-104946381D01*
X140832190Y-104946381D02*
X140870285Y-104908285D01*
X140794095Y-104641619D02*
X140794095Y-104146381D01*
X140794095Y-104146381D02*
X141098857Y-104413047D01*
X141098857Y-104413047D02*
X141098857Y-104298762D01*
X141098857Y-104298762D02*
X141136952Y-104222571D01*
X141136952Y-104222571D02*
X141175047Y-104184476D01*
X141175047Y-104184476D02*
X141251238Y-104146381D01*
X141251238Y-104146381D02*
X141441714Y-104146381D01*
X141441714Y-104146381D02*
X141517904Y-104184476D01*
X141517904Y-104184476D02*
X141556000Y-104222571D01*
X141556000Y-104222571D02*
X141594095Y-104298762D01*
X141594095Y-104298762D02*
X141594095Y-104527333D01*
X141594095Y-104527333D02*
X141556000Y-104603524D01*
X141556000Y-104603524D02*
X141517904Y-104641619D01*
X140794095Y-103651142D02*
X140794095Y-103574952D01*
X140794095Y-103574952D02*
X140832190Y-103498761D01*
X140832190Y-103498761D02*
X140870285Y-103460666D01*
X140870285Y-103460666D02*
X140946476Y-103422571D01*
X140946476Y-103422571D02*
X141098857Y-103384476D01*
X141098857Y-103384476D02*
X141289333Y-103384476D01*
X141289333Y-103384476D02*
X141441714Y-103422571D01*
X141441714Y-103422571D02*
X141517904Y-103460666D01*
X141517904Y-103460666D02*
X141556000Y-103498761D01*
X141556000Y-103498761D02*
X141594095Y-103574952D01*
X141594095Y-103574952D02*
X141594095Y-103651142D01*
X141594095Y-103651142D02*
X141556000Y-103727333D01*
X141556000Y-103727333D02*
X141517904Y-103765428D01*
X141517904Y-103765428D02*
X141441714Y-103803523D01*
X141441714Y-103803523D02*
X141289333Y-103841619D01*
X141289333Y-103841619D02*
X141098857Y-103841619D01*
X141098857Y-103841619D02*
X140946476Y-103803523D01*
X140946476Y-103803523D02*
X140870285Y-103765428D01*
X140870285Y-103765428D02*
X140832190Y-103727333D01*
X140832190Y-103727333D02*
X140794095Y-103651142D01*
%TO.C,U6*%
X150774476Y-79326095D02*
X150774476Y-79973714D01*
X150774476Y-79973714D02*
X150812571Y-80049904D01*
X150812571Y-80049904D02*
X150850666Y-80088000D01*
X150850666Y-80088000D02*
X150926857Y-80126095D01*
X150926857Y-80126095D02*
X151079238Y-80126095D01*
X151079238Y-80126095D02*
X151155428Y-80088000D01*
X151155428Y-80088000D02*
X151193523Y-80049904D01*
X151193523Y-80049904D02*
X151231619Y-79973714D01*
X151231619Y-79973714D02*
X151231619Y-79326095D01*
X151955428Y-79326095D02*
X151803047Y-79326095D01*
X151803047Y-79326095D02*
X151726856Y-79364190D01*
X151726856Y-79364190D02*
X151688761Y-79402285D01*
X151688761Y-79402285D02*
X151612571Y-79516571D01*
X151612571Y-79516571D02*
X151574475Y-79668952D01*
X151574475Y-79668952D02*
X151574475Y-79973714D01*
X151574475Y-79973714D02*
X151612571Y-80049904D01*
X151612571Y-80049904D02*
X151650666Y-80088000D01*
X151650666Y-80088000D02*
X151726856Y-80126095D01*
X151726856Y-80126095D02*
X151879237Y-80126095D01*
X151879237Y-80126095D02*
X151955428Y-80088000D01*
X151955428Y-80088000D02*
X151993523Y-80049904D01*
X151993523Y-80049904D02*
X152031618Y-79973714D01*
X152031618Y-79973714D02*
X152031618Y-79783238D01*
X152031618Y-79783238D02*
X151993523Y-79707047D01*
X151993523Y-79707047D02*
X151955428Y-79668952D01*
X151955428Y-79668952D02*
X151879237Y-79630857D01*
X151879237Y-79630857D02*
X151726856Y-79630857D01*
X151726856Y-79630857D02*
X151650666Y-79668952D01*
X151650666Y-79668952D02*
X151612571Y-79707047D01*
X151612571Y-79707047D02*
X151574475Y-79783238D01*
%TO.C,R29*%
X164200095Y-99828285D02*
X163819142Y-100094952D01*
X164200095Y-100285428D02*
X163400095Y-100285428D01*
X163400095Y-100285428D02*
X163400095Y-99980666D01*
X163400095Y-99980666D02*
X163438190Y-99904476D01*
X163438190Y-99904476D02*
X163476285Y-99866381D01*
X163476285Y-99866381D02*
X163552476Y-99828285D01*
X163552476Y-99828285D02*
X163666761Y-99828285D01*
X163666761Y-99828285D02*
X163742952Y-99866381D01*
X163742952Y-99866381D02*
X163781047Y-99904476D01*
X163781047Y-99904476D02*
X163819142Y-99980666D01*
X163819142Y-99980666D02*
X163819142Y-100285428D01*
X163476285Y-99523524D02*
X163438190Y-99485428D01*
X163438190Y-99485428D02*
X163400095Y-99409238D01*
X163400095Y-99409238D02*
X163400095Y-99218762D01*
X163400095Y-99218762D02*
X163438190Y-99142571D01*
X163438190Y-99142571D02*
X163476285Y-99104476D01*
X163476285Y-99104476D02*
X163552476Y-99066381D01*
X163552476Y-99066381D02*
X163628666Y-99066381D01*
X163628666Y-99066381D02*
X163742952Y-99104476D01*
X163742952Y-99104476D02*
X164200095Y-99561619D01*
X164200095Y-99561619D02*
X164200095Y-99066381D01*
X164200095Y-98685428D02*
X164200095Y-98533047D01*
X164200095Y-98533047D02*
X164162000Y-98456857D01*
X164162000Y-98456857D02*
X164123904Y-98418761D01*
X164123904Y-98418761D02*
X164009619Y-98342571D01*
X164009619Y-98342571D02*
X163857238Y-98304476D01*
X163857238Y-98304476D02*
X163552476Y-98304476D01*
X163552476Y-98304476D02*
X163476285Y-98342571D01*
X163476285Y-98342571D02*
X163438190Y-98380666D01*
X163438190Y-98380666D02*
X163400095Y-98456857D01*
X163400095Y-98456857D02*
X163400095Y-98609238D01*
X163400095Y-98609238D02*
X163438190Y-98685428D01*
X163438190Y-98685428D02*
X163476285Y-98723523D01*
X163476285Y-98723523D02*
X163552476Y-98761619D01*
X163552476Y-98761619D02*
X163742952Y-98761619D01*
X163742952Y-98761619D02*
X163819142Y-98723523D01*
X163819142Y-98723523D02*
X163857238Y-98685428D01*
X163857238Y-98685428D02*
X163895333Y-98609238D01*
X163895333Y-98609238D02*
X163895333Y-98456857D01*
X163895333Y-98456857D02*
X163857238Y-98380666D01*
X163857238Y-98380666D02*
X163819142Y-98342571D01*
X163819142Y-98342571D02*
X163742952Y-98304476D01*
%TO.C,D13*%
X176666619Y-105080285D02*
X175666619Y-105080285D01*
X175666619Y-105080285D02*
X175666619Y-104842190D01*
X175666619Y-104842190D02*
X175714238Y-104699333D01*
X175714238Y-104699333D02*
X175809476Y-104604095D01*
X175809476Y-104604095D02*
X175904714Y-104556476D01*
X175904714Y-104556476D02*
X176095190Y-104508857D01*
X176095190Y-104508857D02*
X176238047Y-104508857D01*
X176238047Y-104508857D02*
X176428523Y-104556476D01*
X176428523Y-104556476D02*
X176523761Y-104604095D01*
X176523761Y-104604095D02*
X176619000Y-104699333D01*
X176619000Y-104699333D02*
X176666619Y-104842190D01*
X176666619Y-104842190D02*
X176666619Y-105080285D01*
X176666619Y-103556476D02*
X176666619Y-104127904D01*
X176666619Y-103842190D02*
X175666619Y-103842190D01*
X175666619Y-103842190D02*
X175809476Y-103937428D01*
X175809476Y-103937428D02*
X175904714Y-104032666D01*
X175904714Y-104032666D02*
X175952333Y-104127904D01*
X175666619Y-103223142D02*
X175666619Y-102604095D01*
X175666619Y-102604095D02*
X176047571Y-102937428D01*
X176047571Y-102937428D02*
X176047571Y-102794571D01*
X176047571Y-102794571D02*
X176095190Y-102699333D01*
X176095190Y-102699333D02*
X176142809Y-102651714D01*
X176142809Y-102651714D02*
X176238047Y-102604095D01*
X176238047Y-102604095D02*
X176476142Y-102604095D01*
X176476142Y-102604095D02*
X176571380Y-102651714D01*
X176571380Y-102651714D02*
X176619000Y-102699333D01*
X176619000Y-102699333D02*
X176666619Y-102794571D01*
X176666619Y-102794571D02*
X176666619Y-103080285D01*
X176666619Y-103080285D02*
X176619000Y-103175523D01*
X176619000Y-103175523D02*
X176571380Y-103223142D01*
%TO.C,R32*%
X128135142Y-108666619D02*
X127801809Y-108190428D01*
X127563714Y-108666619D02*
X127563714Y-107666619D01*
X127563714Y-107666619D02*
X127944666Y-107666619D01*
X127944666Y-107666619D02*
X128039904Y-107714238D01*
X128039904Y-107714238D02*
X128087523Y-107761857D01*
X128087523Y-107761857D02*
X128135142Y-107857095D01*
X128135142Y-107857095D02*
X128135142Y-107999952D01*
X128135142Y-107999952D02*
X128087523Y-108095190D01*
X128087523Y-108095190D02*
X128039904Y-108142809D01*
X128039904Y-108142809D02*
X127944666Y-108190428D01*
X127944666Y-108190428D02*
X127563714Y-108190428D01*
X128468476Y-107666619D02*
X129087523Y-107666619D01*
X129087523Y-107666619D02*
X128754190Y-108047571D01*
X128754190Y-108047571D02*
X128897047Y-108047571D01*
X128897047Y-108047571D02*
X128992285Y-108095190D01*
X128992285Y-108095190D02*
X129039904Y-108142809D01*
X129039904Y-108142809D02*
X129087523Y-108238047D01*
X129087523Y-108238047D02*
X129087523Y-108476142D01*
X129087523Y-108476142D02*
X129039904Y-108571380D01*
X129039904Y-108571380D02*
X128992285Y-108619000D01*
X128992285Y-108619000D02*
X128897047Y-108666619D01*
X128897047Y-108666619D02*
X128611333Y-108666619D01*
X128611333Y-108666619D02*
X128516095Y-108619000D01*
X128516095Y-108619000D02*
X128468476Y-108571380D01*
X129468476Y-107761857D02*
X129516095Y-107714238D01*
X129516095Y-107714238D02*
X129611333Y-107666619D01*
X129611333Y-107666619D02*
X129849428Y-107666619D01*
X129849428Y-107666619D02*
X129944666Y-107714238D01*
X129944666Y-107714238D02*
X129992285Y-107761857D01*
X129992285Y-107761857D02*
X130039904Y-107857095D01*
X130039904Y-107857095D02*
X130039904Y-107952333D01*
X130039904Y-107952333D02*
X129992285Y-108095190D01*
X129992285Y-108095190D02*
X129420857Y-108666619D01*
X129420857Y-108666619D02*
X130039904Y-108666619D01*
%TO.C,C21*%
X158789904Y-82810285D02*
X158828000Y-82848381D01*
X158828000Y-82848381D02*
X158866095Y-82962666D01*
X158866095Y-82962666D02*
X158866095Y-83038857D01*
X158866095Y-83038857D02*
X158828000Y-83153143D01*
X158828000Y-83153143D02*
X158751809Y-83229333D01*
X158751809Y-83229333D02*
X158675619Y-83267428D01*
X158675619Y-83267428D02*
X158523238Y-83305524D01*
X158523238Y-83305524D02*
X158408952Y-83305524D01*
X158408952Y-83305524D02*
X158256571Y-83267428D01*
X158256571Y-83267428D02*
X158180380Y-83229333D01*
X158180380Y-83229333D02*
X158104190Y-83153143D01*
X158104190Y-83153143D02*
X158066095Y-83038857D01*
X158066095Y-83038857D02*
X158066095Y-82962666D01*
X158066095Y-82962666D02*
X158104190Y-82848381D01*
X158104190Y-82848381D02*
X158142285Y-82810285D01*
X158142285Y-82505524D02*
X158104190Y-82467428D01*
X158104190Y-82467428D02*
X158066095Y-82391238D01*
X158066095Y-82391238D02*
X158066095Y-82200762D01*
X158066095Y-82200762D02*
X158104190Y-82124571D01*
X158104190Y-82124571D02*
X158142285Y-82086476D01*
X158142285Y-82086476D02*
X158218476Y-82048381D01*
X158218476Y-82048381D02*
X158294666Y-82048381D01*
X158294666Y-82048381D02*
X158408952Y-82086476D01*
X158408952Y-82086476D02*
X158866095Y-82543619D01*
X158866095Y-82543619D02*
X158866095Y-82048381D01*
X158866095Y-81286476D02*
X158866095Y-81743619D01*
X158866095Y-81515047D02*
X158066095Y-81515047D01*
X158066095Y-81515047D02*
X158180380Y-81591238D01*
X158180380Y-81591238D02*
X158256571Y-81667428D01*
X158256571Y-81667428D02*
X158294666Y-81743619D01*
%TO.C,FB1*%
X144113333Y-85803047D02*
X143846667Y-85803047D01*
X143846667Y-86222095D02*
X143846667Y-85422095D01*
X143846667Y-85422095D02*
X144227619Y-85422095D01*
X144799047Y-85803047D02*
X144913333Y-85841142D01*
X144913333Y-85841142D02*
X144951428Y-85879238D01*
X144951428Y-85879238D02*
X144989524Y-85955428D01*
X144989524Y-85955428D02*
X144989524Y-86069714D01*
X144989524Y-86069714D02*
X144951428Y-86145904D01*
X144951428Y-86145904D02*
X144913333Y-86184000D01*
X144913333Y-86184000D02*
X144837143Y-86222095D01*
X144837143Y-86222095D02*
X144532381Y-86222095D01*
X144532381Y-86222095D02*
X144532381Y-85422095D01*
X144532381Y-85422095D02*
X144799047Y-85422095D01*
X144799047Y-85422095D02*
X144875238Y-85460190D01*
X144875238Y-85460190D02*
X144913333Y-85498285D01*
X144913333Y-85498285D02*
X144951428Y-85574476D01*
X144951428Y-85574476D02*
X144951428Y-85650666D01*
X144951428Y-85650666D02*
X144913333Y-85726857D01*
X144913333Y-85726857D02*
X144875238Y-85764952D01*
X144875238Y-85764952D02*
X144799047Y-85803047D01*
X144799047Y-85803047D02*
X144532381Y-85803047D01*
X145751428Y-86222095D02*
X145294285Y-86222095D01*
X145522857Y-86222095D02*
X145522857Y-85422095D01*
X145522857Y-85422095D02*
X145446666Y-85536380D01*
X145446666Y-85536380D02*
X145370476Y-85612571D01*
X145370476Y-85612571D02*
X145294285Y-85650666D01*
%TO.C,C16*%
X150741142Y-78345380D02*
X150693523Y-78393000D01*
X150693523Y-78393000D02*
X150550666Y-78440619D01*
X150550666Y-78440619D02*
X150455428Y-78440619D01*
X150455428Y-78440619D02*
X150312571Y-78393000D01*
X150312571Y-78393000D02*
X150217333Y-78297761D01*
X150217333Y-78297761D02*
X150169714Y-78202523D01*
X150169714Y-78202523D02*
X150122095Y-78012047D01*
X150122095Y-78012047D02*
X150122095Y-77869190D01*
X150122095Y-77869190D02*
X150169714Y-77678714D01*
X150169714Y-77678714D02*
X150217333Y-77583476D01*
X150217333Y-77583476D02*
X150312571Y-77488238D01*
X150312571Y-77488238D02*
X150455428Y-77440619D01*
X150455428Y-77440619D02*
X150550666Y-77440619D01*
X150550666Y-77440619D02*
X150693523Y-77488238D01*
X150693523Y-77488238D02*
X150741142Y-77535857D01*
X151693523Y-78440619D02*
X151122095Y-78440619D01*
X151407809Y-78440619D02*
X151407809Y-77440619D01*
X151407809Y-77440619D02*
X151312571Y-77583476D01*
X151312571Y-77583476D02*
X151217333Y-77678714D01*
X151217333Y-77678714D02*
X151122095Y-77726333D01*
X152550666Y-77440619D02*
X152360190Y-77440619D01*
X152360190Y-77440619D02*
X152264952Y-77488238D01*
X152264952Y-77488238D02*
X152217333Y-77535857D01*
X152217333Y-77535857D02*
X152122095Y-77678714D01*
X152122095Y-77678714D02*
X152074476Y-77869190D01*
X152074476Y-77869190D02*
X152074476Y-78250142D01*
X152074476Y-78250142D02*
X152122095Y-78345380D01*
X152122095Y-78345380D02*
X152169714Y-78393000D01*
X152169714Y-78393000D02*
X152264952Y-78440619D01*
X152264952Y-78440619D02*
X152455428Y-78440619D01*
X152455428Y-78440619D02*
X152550666Y-78393000D01*
X152550666Y-78393000D02*
X152598285Y-78345380D01*
X152598285Y-78345380D02*
X152645904Y-78250142D01*
X152645904Y-78250142D02*
X152645904Y-78012047D01*
X152645904Y-78012047D02*
X152598285Y-77916809D01*
X152598285Y-77916809D02*
X152550666Y-77869190D01*
X152550666Y-77869190D02*
X152455428Y-77821571D01*
X152455428Y-77821571D02*
X152264952Y-77821571D01*
X152264952Y-77821571D02*
X152169714Y-77869190D01*
X152169714Y-77869190D02*
X152122095Y-77916809D01*
X152122095Y-77916809D02*
X152074476Y-78012047D01*
%TO.C,R36*%
X140200142Y-123017619D02*
X139866809Y-122541428D01*
X139628714Y-123017619D02*
X139628714Y-122017619D01*
X139628714Y-122017619D02*
X140009666Y-122017619D01*
X140009666Y-122017619D02*
X140104904Y-122065238D01*
X140104904Y-122065238D02*
X140152523Y-122112857D01*
X140152523Y-122112857D02*
X140200142Y-122208095D01*
X140200142Y-122208095D02*
X140200142Y-122350952D01*
X140200142Y-122350952D02*
X140152523Y-122446190D01*
X140152523Y-122446190D02*
X140104904Y-122493809D01*
X140104904Y-122493809D02*
X140009666Y-122541428D01*
X140009666Y-122541428D02*
X139628714Y-122541428D01*
X140533476Y-122017619D02*
X141152523Y-122017619D01*
X141152523Y-122017619D02*
X140819190Y-122398571D01*
X140819190Y-122398571D02*
X140962047Y-122398571D01*
X140962047Y-122398571D02*
X141057285Y-122446190D01*
X141057285Y-122446190D02*
X141104904Y-122493809D01*
X141104904Y-122493809D02*
X141152523Y-122589047D01*
X141152523Y-122589047D02*
X141152523Y-122827142D01*
X141152523Y-122827142D02*
X141104904Y-122922380D01*
X141104904Y-122922380D02*
X141057285Y-122970000D01*
X141057285Y-122970000D02*
X140962047Y-123017619D01*
X140962047Y-123017619D02*
X140676333Y-123017619D01*
X140676333Y-123017619D02*
X140581095Y-122970000D01*
X140581095Y-122970000D02*
X140533476Y-122922380D01*
X142009666Y-122017619D02*
X141819190Y-122017619D01*
X141819190Y-122017619D02*
X141723952Y-122065238D01*
X141723952Y-122065238D02*
X141676333Y-122112857D01*
X141676333Y-122112857D02*
X141581095Y-122255714D01*
X141581095Y-122255714D02*
X141533476Y-122446190D01*
X141533476Y-122446190D02*
X141533476Y-122827142D01*
X141533476Y-122827142D02*
X141581095Y-122922380D01*
X141581095Y-122922380D02*
X141628714Y-122970000D01*
X141628714Y-122970000D02*
X141723952Y-123017619D01*
X141723952Y-123017619D02*
X141914428Y-123017619D01*
X141914428Y-123017619D02*
X142009666Y-122970000D01*
X142009666Y-122970000D02*
X142057285Y-122922380D01*
X142057285Y-122922380D02*
X142104904Y-122827142D01*
X142104904Y-122827142D02*
X142104904Y-122589047D01*
X142104904Y-122589047D02*
X142057285Y-122493809D01*
X142057285Y-122493809D02*
X142009666Y-122446190D01*
X142009666Y-122446190D02*
X141914428Y-122398571D01*
X141914428Y-122398571D02*
X141723952Y-122398571D01*
X141723952Y-122398571D02*
X141628714Y-122446190D01*
X141628714Y-122446190D02*
X141581095Y-122493809D01*
X141581095Y-122493809D02*
X141533476Y-122589047D01*
%TO.C,J3*%
X132000666Y-78202619D02*
X132000666Y-78916904D01*
X132000666Y-78916904D02*
X131953047Y-79059761D01*
X131953047Y-79059761D02*
X131857809Y-79155000D01*
X131857809Y-79155000D02*
X131714952Y-79202619D01*
X131714952Y-79202619D02*
X131619714Y-79202619D01*
X132381619Y-78202619D02*
X133000666Y-78202619D01*
X133000666Y-78202619D02*
X132667333Y-78583571D01*
X132667333Y-78583571D02*
X132810190Y-78583571D01*
X132810190Y-78583571D02*
X132905428Y-78631190D01*
X132905428Y-78631190D02*
X132953047Y-78678809D01*
X132953047Y-78678809D02*
X133000666Y-78774047D01*
X133000666Y-78774047D02*
X133000666Y-79012142D01*
X133000666Y-79012142D02*
X132953047Y-79107380D01*
X132953047Y-79107380D02*
X132905428Y-79155000D01*
X132905428Y-79155000D02*
X132810190Y-79202619D01*
X132810190Y-79202619D02*
X132524476Y-79202619D01*
X132524476Y-79202619D02*
X132429238Y-79155000D01*
X132429238Y-79155000D02*
X132381619Y-79107380D01*
%TO.C,C12*%
X149599714Y-83097904D02*
X149561618Y-83136000D01*
X149561618Y-83136000D02*
X149447333Y-83174095D01*
X149447333Y-83174095D02*
X149371142Y-83174095D01*
X149371142Y-83174095D02*
X149256856Y-83136000D01*
X149256856Y-83136000D02*
X149180666Y-83059809D01*
X149180666Y-83059809D02*
X149142571Y-82983619D01*
X149142571Y-82983619D02*
X149104475Y-82831238D01*
X149104475Y-82831238D02*
X149104475Y-82716952D01*
X149104475Y-82716952D02*
X149142571Y-82564571D01*
X149142571Y-82564571D02*
X149180666Y-82488380D01*
X149180666Y-82488380D02*
X149256856Y-82412190D01*
X149256856Y-82412190D02*
X149371142Y-82374095D01*
X149371142Y-82374095D02*
X149447333Y-82374095D01*
X149447333Y-82374095D02*
X149561618Y-82412190D01*
X149561618Y-82412190D02*
X149599714Y-82450285D01*
X150361618Y-83174095D02*
X149904475Y-83174095D01*
X150133047Y-83174095D02*
X150133047Y-82374095D01*
X150133047Y-82374095D02*
X150056856Y-82488380D01*
X150056856Y-82488380D02*
X149980666Y-82564571D01*
X149980666Y-82564571D02*
X149904475Y-82602666D01*
X150666380Y-82450285D02*
X150704476Y-82412190D01*
X150704476Y-82412190D02*
X150780666Y-82374095D01*
X150780666Y-82374095D02*
X150971142Y-82374095D01*
X150971142Y-82374095D02*
X151047333Y-82412190D01*
X151047333Y-82412190D02*
X151085428Y-82450285D01*
X151085428Y-82450285D02*
X151123523Y-82526476D01*
X151123523Y-82526476D02*
X151123523Y-82602666D01*
X151123523Y-82602666D02*
X151085428Y-82716952D01*
X151085428Y-82716952D02*
X150628285Y-83174095D01*
X150628285Y-83174095D02*
X151123523Y-83174095D01*
%TO.C,C36*%
X160647142Y-68693380D02*
X160599523Y-68741000D01*
X160599523Y-68741000D02*
X160456666Y-68788619D01*
X160456666Y-68788619D02*
X160361428Y-68788619D01*
X160361428Y-68788619D02*
X160218571Y-68741000D01*
X160218571Y-68741000D02*
X160123333Y-68645761D01*
X160123333Y-68645761D02*
X160075714Y-68550523D01*
X160075714Y-68550523D02*
X160028095Y-68360047D01*
X160028095Y-68360047D02*
X160028095Y-68217190D01*
X160028095Y-68217190D02*
X160075714Y-68026714D01*
X160075714Y-68026714D02*
X160123333Y-67931476D01*
X160123333Y-67931476D02*
X160218571Y-67836238D01*
X160218571Y-67836238D02*
X160361428Y-67788619D01*
X160361428Y-67788619D02*
X160456666Y-67788619D01*
X160456666Y-67788619D02*
X160599523Y-67836238D01*
X160599523Y-67836238D02*
X160647142Y-67883857D01*
X160980476Y-67788619D02*
X161599523Y-67788619D01*
X161599523Y-67788619D02*
X161266190Y-68169571D01*
X161266190Y-68169571D02*
X161409047Y-68169571D01*
X161409047Y-68169571D02*
X161504285Y-68217190D01*
X161504285Y-68217190D02*
X161551904Y-68264809D01*
X161551904Y-68264809D02*
X161599523Y-68360047D01*
X161599523Y-68360047D02*
X161599523Y-68598142D01*
X161599523Y-68598142D02*
X161551904Y-68693380D01*
X161551904Y-68693380D02*
X161504285Y-68741000D01*
X161504285Y-68741000D02*
X161409047Y-68788619D01*
X161409047Y-68788619D02*
X161123333Y-68788619D01*
X161123333Y-68788619D02*
X161028095Y-68741000D01*
X161028095Y-68741000D02*
X160980476Y-68693380D01*
X162456666Y-67788619D02*
X162266190Y-67788619D01*
X162266190Y-67788619D02*
X162170952Y-67836238D01*
X162170952Y-67836238D02*
X162123333Y-67883857D01*
X162123333Y-67883857D02*
X162028095Y-68026714D01*
X162028095Y-68026714D02*
X161980476Y-68217190D01*
X161980476Y-68217190D02*
X161980476Y-68598142D01*
X161980476Y-68598142D02*
X162028095Y-68693380D01*
X162028095Y-68693380D02*
X162075714Y-68741000D01*
X162075714Y-68741000D02*
X162170952Y-68788619D01*
X162170952Y-68788619D02*
X162361428Y-68788619D01*
X162361428Y-68788619D02*
X162456666Y-68741000D01*
X162456666Y-68741000D02*
X162504285Y-68693380D01*
X162504285Y-68693380D02*
X162551904Y-68598142D01*
X162551904Y-68598142D02*
X162551904Y-68360047D01*
X162551904Y-68360047D02*
X162504285Y-68264809D01*
X162504285Y-68264809D02*
X162456666Y-68217190D01*
X162456666Y-68217190D02*
X162361428Y-68169571D01*
X162361428Y-68169571D02*
X162170952Y-68169571D01*
X162170952Y-68169571D02*
X162075714Y-68217190D01*
X162075714Y-68217190D02*
X162028095Y-68264809D01*
X162028095Y-68264809D02*
X161980476Y-68360047D01*
%TO.C,C29*%
X165601714Y-105449904D02*
X165563618Y-105488000D01*
X165563618Y-105488000D02*
X165449333Y-105526095D01*
X165449333Y-105526095D02*
X165373142Y-105526095D01*
X165373142Y-105526095D02*
X165258856Y-105488000D01*
X165258856Y-105488000D02*
X165182666Y-105411809D01*
X165182666Y-105411809D02*
X165144571Y-105335619D01*
X165144571Y-105335619D02*
X165106475Y-105183238D01*
X165106475Y-105183238D02*
X165106475Y-105068952D01*
X165106475Y-105068952D02*
X165144571Y-104916571D01*
X165144571Y-104916571D02*
X165182666Y-104840380D01*
X165182666Y-104840380D02*
X165258856Y-104764190D01*
X165258856Y-104764190D02*
X165373142Y-104726095D01*
X165373142Y-104726095D02*
X165449333Y-104726095D01*
X165449333Y-104726095D02*
X165563618Y-104764190D01*
X165563618Y-104764190D02*
X165601714Y-104802285D01*
X165906475Y-104802285D02*
X165944571Y-104764190D01*
X165944571Y-104764190D02*
X166020761Y-104726095D01*
X166020761Y-104726095D02*
X166211237Y-104726095D01*
X166211237Y-104726095D02*
X166287428Y-104764190D01*
X166287428Y-104764190D02*
X166325523Y-104802285D01*
X166325523Y-104802285D02*
X166363618Y-104878476D01*
X166363618Y-104878476D02*
X166363618Y-104954666D01*
X166363618Y-104954666D02*
X166325523Y-105068952D01*
X166325523Y-105068952D02*
X165868380Y-105526095D01*
X165868380Y-105526095D02*
X166363618Y-105526095D01*
X166744571Y-105526095D02*
X166896952Y-105526095D01*
X166896952Y-105526095D02*
X166973142Y-105488000D01*
X166973142Y-105488000D02*
X167011238Y-105449904D01*
X167011238Y-105449904D02*
X167087428Y-105335619D01*
X167087428Y-105335619D02*
X167125523Y-105183238D01*
X167125523Y-105183238D02*
X167125523Y-104878476D01*
X167125523Y-104878476D02*
X167087428Y-104802285D01*
X167087428Y-104802285D02*
X167049333Y-104764190D01*
X167049333Y-104764190D02*
X166973142Y-104726095D01*
X166973142Y-104726095D02*
X166820761Y-104726095D01*
X166820761Y-104726095D02*
X166744571Y-104764190D01*
X166744571Y-104764190D02*
X166706476Y-104802285D01*
X166706476Y-104802285D02*
X166668380Y-104878476D01*
X166668380Y-104878476D02*
X166668380Y-105068952D01*
X166668380Y-105068952D02*
X166706476Y-105145142D01*
X166706476Y-105145142D02*
X166744571Y-105183238D01*
X166744571Y-105183238D02*
X166820761Y-105221333D01*
X166820761Y-105221333D02*
X166973142Y-105221333D01*
X166973142Y-105221333D02*
X167049333Y-105183238D01*
X167049333Y-105183238D02*
X167087428Y-105145142D01*
X167087428Y-105145142D02*
X167125523Y-105068952D01*
%TO.C,R34*%
X124922619Y-103512857D02*
X124446428Y-103846190D01*
X124922619Y-104084285D02*
X123922619Y-104084285D01*
X123922619Y-104084285D02*
X123922619Y-103703333D01*
X123922619Y-103703333D02*
X123970238Y-103608095D01*
X123970238Y-103608095D02*
X124017857Y-103560476D01*
X124017857Y-103560476D02*
X124113095Y-103512857D01*
X124113095Y-103512857D02*
X124255952Y-103512857D01*
X124255952Y-103512857D02*
X124351190Y-103560476D01*
X124351190Y-103560476D02*
X124398809Y-103608095D01*
X124398809Y-103608095D02*
X124446428Y-103703333D01*
X124446428Y-103703333D02*
X124446428Y-104084285D01*
X123922619Y-103179523D02*
X123922619Y-102560476D01*
X123922619Y-102560476D02*
X124303571Y-102893809D01*
X124303571Y-102893809D02*
X124303571Y-102750952D01*
X124303571Y-102750952D02*
X124351190Y-102655714D01*
X124351190Y-102655714D02*
X124398809Y-102608095D01*
X124398809Y-102608095D02*
X124494047Y-102560476D01*
X124494047Y-102560476D02*
X124732142Y-102560476D01*
X124732142Y-102560476D02*
X124827380Y-102608095D01*
X124827380Y-102608095D02*
X124875000Y-102655714D01*
X124875000Y-102655714D02*
X124922619Y-102750952D01*
X124922619Y-102750952D02*
X124922619Y-103036666D01*
X124922619Y-103036666D02*
X124875000Y-103131904D01*
X124875000Y-103131904D02*
X124827380Y-103179523D01*
X124255952Y-101703333D02*
X124922619Y-101703333D01*
X123875000Y-101941428D02*
X124589285Y-102179523D01*
X124589285Y-102179523D02*
X124589285Y-101560476D01*
%TO.C,C55*%
X156837142Y-112127380D02*
X156789523Y-112175000D01*
X156789523Y-112175000D02*
X156646666Y-112222619D01*
X156646666Y-112222619D02*
X156551428Y-112222619D01*
X156551428Y-112222619D02*
X156408571Y-112175000D01*
X156408571Y-112175000D02*
X156313333Y-112079761D01*
X156313333Y-112079761D02*
X156265714Y-111984523D01*
X156265714Y-111984523D02*
X156218095Y-111794047D01*
X156218095Y-111794047D02*
X156218095Y-111651190D01*
X156218095Y-111651190D02*
X156265714Y-111460714D01*
X156265714Y-111460714D02*
X156313333Y-111365476D01*
X156313333Y-111365476D02*
X156408571Y-111270238D01*
X156408571Y-111270238D02*
X156551428Y-111222619D01*
X156551428Y-111222619D02*
X156646666Y-111222619D01*
X156646666Y-111222619D02*
X156789523Y-111270238D01*
X156789523Y-111270238D02*
X156837142Y-111317857D01*
X157741904Y-111222619D02*
X157265714Y-111222619D01*
X157265714Y-111222619D02*
X157218095Y-111698809D01*
X157218095Y-111698809D02*
X157265714Y-111651190D01*
X157265714Y-111651190D02*
X157360952Y-111603571D01*
X157360952Y-111603571D02*
X157599047Y-111603571D01*
X157599047Y-111603571D02*
X157694285Y-111651190D01*
X157694285Y-111651190D02*
X157741904Y-111698809D01*
X157741904Y-111698809D02*
X157789523Y-111794047D01*
X157789523Y-111794047D02*
X157789523Y-112032142D01*
X157789523Y-112032142D02*
X157741904Y-112127380D01*
X157741904Y-112127380D02*
X157694285Y-112175000D01*
X157694285Y-112175000D02*
X157599047Y-112222619D01*
X157599047Y-112222619D02*
X157360952Y-112222619D01*
X157360952Y-112222619D02*
X157265714Y-112175000D01*
X157265714Y-112175000D02*
X157218095Y-112127380D01*
X158694285Y-111222619D02*
X158218095Y-111222619D01*
X158218095Y-111222619D02*
X158170476Y-111698809D01*
X158170476Y-111698809D02*
X158218095Y-111651190D01*
X158218095Y-111651190D02*
X158313333Y-111603571D01*
X158313333Y-111603571D02*
X158551428Y-111603571D01*
X158551428Y-111603571D02*
X158646666Y-111651190D01*
X158646666Y-111651190D02*
X158694285Y-111698809D01*
X158694285Y-111698809D02*
X158741904Y-111794047D01*
X158741904Y-111794047D02*
X158741904Y-112032142D01*
X158741904Y-112032142D02*
X158694285Y-112127380D01*
X158694285Y-112127380D02*
X158646666Y-112175000D01*
X158646666Y-112175000D02*
X158551428Y-112222619D01*
X158551428Y-112222619D02*
X158313333Y-112222619D01*
X158313333Y-112222619D02*
X158218095Y-112175000D01*
X158218095Y-112175000D02*
X158170476Y-112127380D01*
%TO.C,U4*%
X136652095Y-86076619D02*
X136652095Y-86886142D01*
X136652095Y-86886142D02*
X136699714Y-86981380D01*
X136699714Y-86981380D02*
X136747333Y-87029000D01*
X136747333Y-87029000D02*
X136842571Y-87076619D01*
X136842571Y-87076619D02*
X137033047Y-87076619D01*
X137033047Y-87076619D02*
X137128285Y-87029000D01*
X137128285Y-87029000D02*
X137175904Y-86981380D01*
X137175904Y-86981380D02*
X137223523Y-86886142D01*
X137223523Y-86886142D02*
X137223523Y-86076619D01*
X138128285Y-86409952D02*
X138128285Y-87076619D01*
X137890190Y-86029000D02*
X137652095Y-86743285D01*
X137652095Y-86743285D02*
X138271142Y-86743285D01*
%TO.C,C19*%
X167679904Y-91192285D02*
X167718000Y-91230381D01*
X167718000Y-91230381D02*
X167756095Y-91344666D01*
X167756095Y-91344666D02*
X167756095Y-91420857D01*
X167756095Y-91420857D02*
X167718000Y-91535143D01*
X167718000Y-91535143D02*
X167641809Y-91611333D01*
X167641809Y-91611333D02*
X167565619Y-91649428D01*
X167565619Y-91649428D02*
X167413238Y-91687524D01*
X167413238Y-91687524D02*
X167298952Y-91687524D01*
X167298952Y-91687524D02*
X167146571Y-91649428D01*
X167146571Y-91649428D02*
X167070380Y-91611333D01*
X167070380Y-91611333D02*
X166994190Y-91535143D01*
X166994190Y-91535143D02*
X166956095Y-91420857D01*
X166956095Y-91420857D02*
X166956095Y-91344666D01*
X166956095Y-91344666D02*
X166994190Y-91230381D01*
X166994190Y-91230381D02*
X167032285Y-91192285D01*
X167756095Y-90430381D02*
X167756095Y-90887524D01*
X167756095Y-90658952D02*
X166956095Y-90658952D01*
X166956095Y-90658952D02*
X167070380Y-90735143D01*
X167070380Y-90735143D02*
X167146571Y-90811333D01*
X167146571Y-90811333D02*
X167184666Y-90887524D01*
X167756095Y-90049428D02*
X167756095Y-89897047D01*
X167756095Y-89897047D02*
X167718000Y-89820857D01*
X167718000Y-89820857D02*
X167679904Y-89782761D01*
X167679904Y-89782761D02*
X167565619Y-89706571D01*
X167565619Y-89706571D02*
X167413238Y-89668476D01*
X167413238Y-89668476D02*
X167108476Y-89668476D01*
X167108476Y-89668476D02*
X167032285Y-89706571D01*
X167032285Y-89706571D02*
X166994190Y-89744666D01*
X166994190Y-89744666D02*
X166956095Y-89820857D01*
X166956095Y-89820857D02*
X166956095Y-89973238D01*
X166956095Y-89973238D02*
X166994190Y-90049428D01*
X166994190Y-90049428D02*
X167032285Y-90087523D01*
X167032285Y-90087523D02*
X167108476Y-90125619D01*
X167108476Y-90125619D02*
X167298952Y-90125619D01*
X167298952Y-90125619D02*
X167375142Y-90087523D01*
X167375142Y-90087523D02*
X167413238Y-90049428D01*
X167413238Y-90049428D02*
X167451333Y-89973238D01*
X167451333Y-89973238D02*
X167451333Y-89820857D01*
X167451333Y-89820857D02*
X167413238Y-89744666D01*
X167413238Y-89744666D02*
X167375142Y-89706571D01*
X167375142Y-89706571D02*
X167298952Y-89668476D01*
%TO.C,C25*%
X160186904Y-118624285D02*
X160225000Y-118662381D01*
X160225000Y-118662381D02*
X160263095Y-118776666D01*
X160263095Y-118776666D02*
X160263095Y-118852857D01*
X160263095Y-118852857D02*
X160225000Y-118967143D01*
X160225000Y-118967143D02*
X160148809Y-119043333D01*
X160148809Y-119043333D02*
X160072619Y-119081428D01*
X160072619Y-119081428D02*
X159920238Y-119119524D01*
X159920238Y-119119524D02*
X159805952Y-119119524D01*
X159805952Y-119119524D02*
X159653571Y-119081428D01*
X159653571Y-119081428D02*
X159577380Y-119043333D01*
X159577380Y-119043333D02*
X159501190Y-118967143D01*
X159501190Y-118967143D02*
X159463095Y-118852857D01*
X159463095Y-118852857D02*
X159463095Y-118776666D01*
X159463095Y-118776666D02*
X159501190Y-118662381D01*
X159501190Y-118662381D02*
X159539285Y-118624285D01*
X159539285Y-118319524D02*
X159501190Y-118281428D01*
X159501190Y-118281428D02*
X159463095Y-118205238D01*
X159463095Y-118205238D02*
X159463095Y-118014762D01*
X159463095Y-118014762D02*
X159501190Y-117938571D01*
X159501190Y-117938571D02*
X159539285Y-117900476D01*
X159539285Y-117900476D02*
X159615476Y-117862381D01*
X159615476Y-117862381D02*
X159691666Y-117862381D01*
X159691666Y-117862381D02*
X159805952Y-117900476D01*
X159805952Y-117900476D02*
X160263095Y-118357619D01*
X160263095Y-118357619D02*
X160263095Y-117862381D01*
X159463095Y-117138571D02*
X159463095Y-117519523D01*
X159463095Y-117519523D02*
X159844047Y-117557619D01*
X159844047Y-117557619D02*
X159805952Y-117519523D01*
X159805952Y-117519523D02*
X159767857Y-117443333D01*
X159767857Y-117443333D02*
X159767857Y-117252857D01*
X159767857Y-117252857D02*
X159805952Y-117176666D01*
X159805952Y-117176666D02*
X159844047Y-117138571D01*
X159844047Y-117138571D02*
X159920238Y-117100476D01*
X159920238Y-117100476D02*
X160110714Y-117100476D01*
X160110714Y-117100476D02*
X160186904Y-117138571D01*
X160186904Y-117138571D02*
X160225000Y-117176666D01*
X160225000Y-117176666D02*
X160263095Y-117252857D01*
X160263095Y-117252857D02*
X160263095Y-117443333D01*
X160263095Y-117443333D02*
X160225000Y-117519523D01*
X160225000Y-117519523D02*
X160186904Y-117557619D01*
%TO.C,D5*%
X152345405Y-110825619D02*
X152345405Y-109825619D01*
X152345405Y-109825619D02*
X152583500Y-109825619D01*
X152583500Y-109825619D02*
X152726357Y-109873238D01*
X152726357Y-109873238D02*
X152821595Y-109968476D01*
X152821595Y-109968476D02*
X152869214Y-110063714D01*
X152869214Y-110063714D02*
X152916833Y-110254190D01*
X152916833Y-110254190D02*
X152916833Y-110397047D01*
X152916833Y-110397047D02*
X152869214Y-110587523D01*
X152869214Y-110587523D02*
X152821595Y-110682761D01*
X152821595Y-110682761D02*
X152726357Y-110778000D01*
X152726357Y-110778000D02*
X152583500Y-110825619D01*
X152583500Y-110825619D02*
X152345405Y-110825619D01*
X153821595Y-109825619D02*
X153345405Y-109825619D01*
X153345405Y-109825619D02*
X153297786Y-110301809D01*
X153297786Y-110301809D02*
X153345405Y-110254190D01*
X153345405Y-110254190D02*
X153440643Y-110206571D01*
X153440643Y-110206571D02*
X153678738Y-110206571D01*
X153678738Y-110206571D02*
X153773976Y-110254190D01*
X153773976Y-110254190D02*
X153821595Y-110301809D01*
X153821595Y-110301809D02*
X153869214Y-110397047D01*
X153869214Y-110397047D02*
X153869214Y-110635142D01*
X153869214Y-110635142D02*
X153821595Y-110730380D01*
X153821595Y-110730380D02*
X153773976Y-110778000D01*
X153773976Y-110778000D02*
X153678738Y-110825619D01*
X153678738Y-110825619D02*
X153440643Y-110825619D01*
X153440643Y-110825619D02*
X153345405Y-110778000D01*
X153345405Y-110778000D02*
X153297786Y-110730380D01*
%TO.C,D7*%
X165885905Y-81194619D02*
X165885905Y-80194619D01*
X165885905Y-80194619D02*
X166124000Y-80194619D01*
X166124000Y-80194619D02*
X166266857Y-80242238D01*
X166266857Y-80242238D02*
X166362095Y-80337476D01*
X166362095Y-80337476D02*
X166409714Y-80432714D01*
X166409714Y-80432714D02*
X166457333Y-80623190D01*
X166457333Y-80623190D02*
X166457333Y-80766047D01*
X166457333Y-80766047D02*
X166409714Y-80956523D01*
X166409714Y-80956523D02*
X166362095Y-81051761D01*
X166362095Y-81051761D02*
X166266857Y-81147000D01*
X166266857Y-81147000D02*
X166124000Y-81194619D01*
X166124000Y-81194619D02*
X165885905Y-81194619D01*
X166790667Y-80194619D02*
X167457333Y-80194619D01*
X167457333Y-80194619D02*
X167028762Y-81194619D01*
%TO.C,C39*%
X150741142Y-71995380D02*
X150693523Y-72043000D01*
X150693523Y-72043000D02*
X150550666Y-72090619D01*
X150550666Y-72090619D02*
X150455428Y-72090619D01*
X150455428Y-72090619D02*
X150312571Y-72043000D01*
X150312571Y-72043000D02*
X150217333Y-71947761D01*
X150217333Y-71947761D02*
X150169714Y-71852523D01*
X150169714Y-71852523D02*
X150122095Y-71662047D01*
X150122095Y-71662047D02*
X150122095Y-71519190D01*
X150122095Y-71519190D02*
X150169714Y-71328714D01*
X150169714Y-71328714D02*
X150217333Y-71233476D01*
X150217333Y-71233476D02*
X150312571Y-71138238D01*
X150312571Y-71138238D02*
X150455428Y-71090619D01*
X150455428Y-71090619D02*
X150550666Y-71090619D01*
X150550666Y-71090619D02*
X150693523Y-71138238D01*
X150693523Y-71138238D02*
X150741142Y-71185857D01*
X151074476Y-71090619D02*
X151693523Y-71090619D01*
X151693523Y-71090619D02*
X151360190Y-71471571D01*
X151360190Y-71471571D02*
X151503047Y-71471571D01*
X151503047Y-71471571D02*
X151598285Y-71519190D01*
X151598285Y-71519190D02*
X151645904Y-71566809D01*
X151645904Y-71566809D02*
X151693523Y-71662047D01*
X151693523Y-71662047D02*
X151693523Y-71900142D01*
X151693523Y-71900142D02*
X151645904Y-71995380D01*
X151645904Y-71995380D02*
X151598285Y-72043000D01*
X151598285Y-72043000D02*
X151503047Y-72090619D01*
X151503047Y-72090619D02*
X151217333Y-72090619D01*
X151217333Y-72090619D02*
X151122095Y-72043000D01*
X151122095Y-72043000D02*
X151074476Y-71995380D01*
X152169714Y-72090619D02*
X152360190Y-72090619D01*
X152360190Y-72090619D02*
X152455428Y-72043000D01*
X152455428Y-72043000D02*
X152503047Y-71995380D01*
X152503047Y-71995380D02*
X152598285Y-71852523D01*
X152598285Y-71852523D02*
X152645904Y-71662047D01*
X152645904Y-71662047D02*
X152645904Y-71281095D01*
X152645904Y-71281095D02*
X152598285Y-71185857D01*
X152598285Y-71185857D02*
X152550666Y-71138238D01*
X152550666Y-71138238D02*
X152455428Y-71090619D01*
X152455428Y-71090619D02*
X152264952Y-71090619D01*
X152264952Y-71090619D02*
X152169714Y-71138238D01*
X152169714Y-71138238D02*
X152122095Y-71185857D01*
X152122095Y-71185857D02*
X152074476Y-71281095D01*
X152074476Y-71281095D02*
X152074476Y-71519190D01*
X152074476Y-71519190D02*
X152122095Y-71614428D01*
X152122095Y-71614428D02*
X152169714Y-71662047D01*
X152169714Y-71662047D02*
X152264952Y-71709666D01*
X152264952Y-71709666D02*
X152455428Y-71709666D01*
X152455428Y-71709666D02*
X152550666Y-71662047D01*
X152550666Y-71662047D02*
X152598285Y-71614428D01*
X152598285Y-71614428D02*
X152645904Y-71519190D01*
%TO.C,J1*%
X176450666Y-78202619D02*
X176450666Y-78916904D01*
X176450666Y-78916904D02*
X176403047Y-79059761D01*
X176403047Y-79059761D02*
X176307809Y-79155000D01*
X176307809Y-79155000D02*
X176164952Y-79202619D01*
X176164952Y-79202619D02*
X176069714Y-79202619D01*
X177450666Y-79202619D02*
X176879238Y-79202619D01*
X177164952Y-79202619D02*
X177164952Y-78202619D01*
X177164952Y-78202619D02*
X177069714Y-78345476D01*
X177069714Y-78345476D02*
X176974476Y-78440714D01*
X176974476Y-78440714D02*
X176879238Y-78488333D01*
%TO.C,R25*%
X160263095Y-121164285D02*
X159882142Y-121430952D01*
X160263095Y-121621428D02*
X159463095Y-121621428D01*
X159463095Y-121621428D02*
X159463095Y-121316666D01*
X159463095Y-121316666D02*
X159501190Y-121240476D01*
X159501190Y-121240476D02*
X159539285Y-121202381D01*
X159539285Y-121202381D02*
X159615476Y-121164285D01*
X159615476Y-121164285D02*
X159729761Y-121164285D01*
X159729761Y-121164285D02*
X159805952Y-121202381D01*
X159805952Y-121202381D02*
X159844047Y-121240476D01*
X159844047Y-121240476D02*
X159882142Y-121316666D01*
X159882142Y-121316666D02*
X159882142Y-121621428D01*
X159539285Y-120859524D02*
X159501190Y-120821428D01*
X159501190Y-120821428D02*
X159463095Y-120745238D01*
X159463095Y-120745238D02*
X159463095Y-120554762D01*
X159463095Y-120554762D02*
X159501190Y-120478571D01*
X159501190Y-120478571D02*
X159539285Y-120440476D01*
X159539285Y-120440476D02*
X159615476Y-120402381D01*
X159615476Y-120402381D02*
X159691666Y-120402381D01*
X159691666Y-120402381D02*
X159805952Y-120440476D01*
X159805952Y-120440476D02*
X160263095Y-120897619D01*
X160263095Y-120897619D02*
X160263095Y-120402381D01*
X159463095Y-119678571D02*
X159463095Y-120059523D01*
X159463095Y-120059523D02*
X159844047Y-120097619D01*
X159844047Y-120097619D02*
X159805952Y-120059523D01*
X159805952Y-120059523D02*
X159767857Y-119983333D01*
X159767857Y-119983333D02*
X159767857Y-119792857D01*
X159767857Y-119792857D02*
X159805952Y-119716666D01*
X159805952Y-119716666D02*
X159844047Y-119678571D01*
X159844047Y-119678571D02*
X159920238Y-119640476D01*
X159920238Y-119640476D02*
X160110714Y-119640476D01*
X160110714Y-119640476D02*
X160186904Y-119678571D01*
X160186904Y-119678571D02*
X160225000Y-119716666D01*
X160225000Y-119716666D02*
X160263095Y-119792857D01*
X160263095Y-119792857D02*
X160263095Y-119983333D01*
X160263095Y-119983333D02*
X160225000Y-120059523D01*
X160225000Y-120059523D02*
X160186904Y-120097619D01*
%TO.C,R30*%
X164200095Y-97288285D02*
X163819142Y-97554952D01*
X164200095Y-97745428D02*
X163400095Y-97745428D01*
X163400095Y-97745428D02*
X163400095Y-97440666D01*
X163400095Y-97440666D02*
X163438190Y-97364476D01*
X163438190Y-97364476D02*
X163476285Y-97326381D01*
X163476285Y-97326381D02*
X163552476Y-97288285D01*
X163552476Y-97288285D02*
X163666761Y-97288285D01*
X163666761Y-97288285D02*
X163742952Y-97326381D01*
X163742952Y-97326381D02*
X163781047Y-97364476D01*
X163781047Y-97364476D02*
X163819142Y-97440666D01*
X163819142Y-97440666D02*
X163819142Y-97745428D01*
X163400095Y-97021619D02*
X163400095Y-96526381D01*
X163400095Y-96526381D02*
X163704857Y-96793047D01*
X163704857Y-96793047D02*
X163704857Y-96678762D01*
X163704857Y-96678762D02*
X163742952Y-96602571D01*
X163742952Y-96602571D02*
X163781047Y-96564476D01*
X163781047Y-96564476D02*
X163857238Y-96526381D01*
X163857238Y-96526381D02*
X164047714Y-96526381D01*
X164047714Y-96526381D02*
X164123904Y-96564476D01*
X164123904Y-96564476D02*
X164162000Y-96602571D01*
X164162000Y-96602571D02*
X164200095Y-96678762D01*
X164200095Y-96678762D02*
X164200095Y-96907333D01*
X164200095Y-96907333D02*
X164162000Y-96983524D01*
X164162000Y-96983524D02*
X164123904Y-97021619D01*
X163400095Y-96031142D02*
X163400095Y-95954952D01*
X163400095Y-95954952D02*
X163438190Y-95878761D01*
X163438190Y-95878761D02*
X163476285Y-95840666D01*
X163476285Y-95840666D02*
X163552476Y-95802571D01*
X163552476Y-95802571D02*
X163704857Y-95764476D01*
X163704857Y-95764476D02*
X163895333Y-95764476D01*
X163895333Y-95764476D02*
X164047714Y-95802571D01*
X164047714Y-95802571D02*
X164123904Y-95840666D01*
X164123904Y-95840666D02*
X164162000Y-95878761D01*
X164162000Y-95878761D02*
X164200095Y-95954952D01*
X164200095Y-95954952D02*
X164200095Y-96031142D01*
X164200095Y-96031142D02*
X164162000Y-96107333D01*
X164162000Y-96107333D02*
X164123904Y-96145428D01*
X164123904Y-96145428D02*
X164047714Y-96183523D01*
X164047714Y-96183523D02*
X163895333Y-96221619D01*
X163895333Y-96221619D02*
X163704857Y-96221619D01*
X163704857Y-96221619D02*
X163552476Y-96183523D01*
X163552476Y-96183523D02*
X163476285Y-96145428D01*
X163476285Y-96145428D02*
X163438190Y-96107333D01*
X163438190Y-96107333D02*
X163400095Y-96031142D01*
%TO.C,R31*%
X163187142Y-122001619D02*
X162853809Y-121525428D01*
X162615714Y-122001619D02*
X162615714Y-121001619D01*
X162615714Y-121001619D02*
X162996666Y-121001619D01*
X162996666Y-121001619D02*
X163091904Y-121049238D01*
X163091904Y-121049238D02*
X163139523Y-121096857D01*
X163139523Y-121096857D02*
X163187142Y-121192095D01*
X163187142Y-121192095D02*
X163187142Y-121334952D01*
X163187142Y-121334952D02*
X163139523Y-121430190D01*
X163139523Y-121430190D02*
X163091904Y-121477809D01*
X163091904Y-121477809D02*
X162996666Y-121525428D01*
X162996666Y-121525428D02*
X162615714Y-121525428D01*
X163520476Y-121001619D02*
X164139523Y-121001619D01*
X164139523Y-121001619D02*
X163806190Y-121382571D01*
X163806190Y-121382571D02*
X163949047Y-121382571D01*
X163949047Y-121382571D02*
X164044285Y-121430190D01*
X164044285Y-121430190D02*
X164091904Y-121477809D01*
X164091904Y-121477809D02*
X164139523Y-121573047D01*
X164139523Y-121573047D02*
X164139523Y-121811142D01*
X164139523Y-121811142D02*
X164091904Y-121906380D01*
X164091904Y-121906380D02*
X164044285Y-121954000D01*
X164044285Y-121954000D02*
X163949047Y-122001619D01*
X163949047Y-122001619D02*
X163663333Y-122001619D01*
X163663333Y-122001619D02*
X163568095Y-121954000D01*
X163568095Y-121954000D02*
X163520476Y-121906380D01*
X165091904Y-122001619D02*
X164520476Y-122001619D01*
X164806190Y-122001619D02*
X164806190Y-121001619D01*
X164806190Y-121001619D02*
X164710952Y-121144476D01*
X164710952Y-121144476D02*
X164615714Y-121239714D01*
X164615714Y-121239714D02*
X164520476Y-121287333D01*
%TO.C,R33*%
X133558619Y-103592857D02*
X133082428Y-103926190D01*
X133558619Y-104164285D02*
X132558619Y-104164285D01*
X132558619Y-104164285D02*
X132558619Y-103783333D01*
X132558619Y-103783333D02*
X132606238Y-103688095D01*
X132606238Y-103688095D02*
X132653857Y-103640476D01*
X132653857Y-103640476D02*
X132749095Y-103592857D01*
X132749095Y-103592857D02*
X132891952Y-103592857D01*
X132891952Y-103592857D02*
X132987190Y-103640476D01*
X132987190Y-103640476D02*
X133034809Y-103688095D01*
X133034809Y-103688095D02*
X133082428Y-103783333D01*
X133082428Y-103783333D02*
X133082428Y-104164285D01*
X132558619Y-103259523D02*
X132558619Y-102640476D01*
X132558619Y-102640476D02*
X132939571Y-102973809D01*
X132939571Y-102973809D02*
X132939571Y-102830952D01*
X132939571Y-102830952D02*
X132987190Y-102735714D01*
X132987190Y-102735714D02*
X133034809Y-102688095D01*
X133034809Y-102688095D02*
X133130047Y-102640476D01*
X133130047Y-102640476D02*
X133368142Y-102640476D01*
X133368142Y-102640476D02*
X133463380Y-102688095D01*
X133463380Y-102688095D02*
X133511000Y-102735714D01*
X133511000Y-102735714D02*
X133558619Y-102830952D01*
X133558619Y-102830952D02*
X133558619Y-103116666D01*
X133558619Y-103116666D02*
X133511000Y-103211904D01*
X133511000Y-103211904D02*
X133463380Y-103259523D01*
X132558619Y-102307142D02*
X132558619Y-101688095D01*
X132558619Y-101688095D02*
X132939571Y-102021428D01*
X132939571Y-102021428D02*
X132939571Y-101878571D01*
X132939571Y-101878571D02*
X132987190Y-101783333D01*
X132987190Y-101783333D02*
X133034809Y-101735714D01*
X133034809Y-101735714D02*
X133130047Y-101688095D01*
X133130047Y-101688095D02*
X133368142Y-101688095D01*
X133368142Y-101688095D02*
X133463380Y-101735714D01*
X133463380Y-101735714D02*
X133511000Y-101783333D01*
X133511000Y-101783333D02*
X133558619Y-101878571D01*
X133558619Y-101878571D02*
X133558619Y-102164285D01*
X133558619Y-102164285D02*
X133511000Y-102259523D01*
X133511000Y-102259523D02*
X133463380Y-102307142D01*
%TO.C,C20*%
X161837904Y-82810285D02*
X161876000Y-82848381D01*
X161876000Y-82848381D02*
X161914095Y-82962666D01*
X161914095Y-82962666D02*
X161914095Y-83038857D01*
X161914095Y-83038857D02*
X161876000Y-83153143D01*
X161876000Y-83153143D02*
X161799809Y-83229333D01*
X161799809Y-83229333D02*
X161723619Y-83267428D01*
X161723619Y-83267428D02*
X161571238Y-83305524D01*
X161571238Y-83305524D02*
X161456952Y-83305524D01*
X161456952Y-83305524D02*
X161304571Y-83267428D01*
X161304571Y-83267428D02*
X161228380Y-83229333D01*
X161228380Y-83229333D02*
X161152190Y-83153143D01*
X161152190Y-83153143D02*
X161114095Y-83038857D01*
X161114095Y-83038857D02*
X161114095Y-82962666D01*
X161114095Y-82962666D02*
X161152190Y-82848381D01*
X161152190Y-82848381D02*
X161190285Y-82810285D01*
X161190285Y-82505524D02*
X161152190Y-82467428D01*
X161152190Y-82467428D02*
X161114095Y-82391238D01*
X161114095Y-82391238D02*
X161114095Y-82200762D01*
X161114095Y-82200762D02*
X161152190Y-82124571D01*
X161152190Y-82124571D02*
X161190285Y-82086476D01*
X161190285Y-82086476D02*
X161266476Y-82048381D01*
X161266476Y-82048381D02*
X161342666Y-82048381D01*
X161342666Y-82048381D02*
X161456952Y-82086476D01*
X161456952Y-82086476D02*
X161914095Y-82543619D01*
X161914095Y-82543619D02*
X161914095Y-82048381D01*
X161114095Y-81553142D02*
X161114095Y-81476952D01*
X161114095Y-81476952D02*
X161152190Y-81400761D01*
X161152190Y-81400761D02*
X161190285Y-81362666D01*
X161190285Y-81362666D02*
X161266476Y-81324571D01*
X161266476Y-81324571D02*
X161418857Y-81286476D01*
X161418857Y-81286476D02*
X161609333Y-81286476D01*
X161609333Y-81286476D02*
X161761714Y-81324571D01*
X161761714Y-81324571D02*
X161837904Y-81362666D01*
X161837904Y-81362666D02*
X161876000Y-81400761D01*
X161876000Y-81400761D02*
X161914095Y-81476952D01*
X161914095Y-81476952D02*
X161914095Y-81553142D01*
X161914095Y-81553142D02*
X161876000Y-81629333D01*
X161876000Y-81629333D02*
X161837904Y-81667428D01*
X161837904Y-81667428D02*
X161761714Y-81705523D01*
X161761714Y-81705523D02*
X161609333Y-81743619D01*
X161609333Y-81743619D02*
X161418857Y-81743619D01*
X161418857Y-81743619D02*
X161266476Y-81705523D01*
X161266476Y-81705523D02*
X161190285Y-81667428D01*
X161190285Y-81667428D02*
X161152190Y-81629333D01*
X161152190Y-81629333D02*
X161114095Y-81553142D01*
%TO.C,C35*%
X160647142Y-70217380D02*
X160599523Y-70265000D01*
X160599523Y-70265000D02*
X160456666Y-70312619D01*
X160456666Y-70312619D02*
X160361428Y-70312619D01*
X160361428Y-70312619D02*
X160218571Y-70265000D01*
X160218571Y-70265000D02*
X160123333Y-70169761D01*
X160123333Y-70169761D02*
X160075714Y-70074523D01*
X160075714Y-70074523D02*
X160028095Y-69884047D01*
X160028095Y-69884047D02*
X160028095Y-69741190D01*
X160028095Y-69741190D02*
X160075714Y-69550714D01*
X160075714Y-69550714D02*
X160123333Y-69455476D01*
X160123333Y-69455476D02*
X160218571Y-69360238D01*
X160218571Y-69360238D02*
X160361428Y-69312619D01*
X160361428Y-69312619D02*
X160456666Y-69312619D01*
X160456666Y-69312619D02*
X160599523Y-69360238D01*
X160599523Y-69360238D02*
X160647142Y-69407857D01*
X160980476Y-69312619D02*
X161599523Y-69312619D01*
X161599523Y-69312619D02*
X161266190Y-69693571D01*
X161266190Y-69693571D02*
X161409047Y-69693571D01*
X161409047Y-69693571D02*
X161504285Y-69741190D01*
X161504285Y-69741190D02*
X161551904Y-69788809D01*
X161551904Y-69788809D02*
X161599523Y-69884047D01*
X161599523Y-69884047D02*
X161599523Y-70122142D01*
X161599523Y-70122142D02*
X161551904Y-70217380D01*
X161551904Y-70217380D02*
X161504285Y-70265000D01*
X161504285Y-70265000D02*
X161409047Y-70312619D01*
X161409047Y-70312619D02*
X161123333Y-70312619D01*
X161123333Y-70312619D02*
X161028095Y-70265000D01*
X161028095Y-70265000D02*
X160980476Y-70217380D01*
X162504285Y-69312619D02*
X162028095Y-69312619D01*
X162028095Y-69312619D02*
X161980476Y-69788809D01*
X161980476Y-69788809D02*
X162028095Y-69741190D01*
X162028095Y-69741190D02*
X162123333Y-69693571D01*
X162123333Y-69693571D02*
X162361428Y-69693571D01*
X162361428Y-69693571D02*
X162456666Y-69741190D01*
X162456666Y-69741190D02*
X162504285Y-69788809D01*
X162504285Y-69788809D02*
X162551904Y-69884047D01*
X162551904Y-69884047D02*
X162551904Y-70122142D01*
X162551904Y-70122142D02*
X162504285Y-70217380D01*
X162504285Y-70217380D02*
X162456666Y-70265000D01*
X162456666Y-70265000D02*
X162361428Y-70312619D01*
X162361428Y-70312619D02*
X162123333Y-70312619D01*
X162123333Y-70312619D02*
X162028095Y-70265000D01*
X162028095Y-70265000D02*
X161980476Y-70217380D01*
%TO.C,C28*%
X143249714Y-87669904D02*
X143211618Y-87708000D01*
X143211618Y-87708000D02*
X143097333Y-87746095D01*
X143097333Y-87746095D02*
X143021142Y-87746095D01*
X143021142Y-87746095D02*
X142906856Y-87708000D01*
X142906856Y-87708000D02*
X142830666Y-87631809D01*
X142830666Y-87631809D02*
X142792571Y-87555619D01*
X142792571Y-87555619D02*
X142754475Y-87403238D01*
X142754475Y-87403238D02*
X142754475Y-87288952D01*
X142754475Y-87288952D02*
X142792571Y-87136571D01*
X142792571Y-87136571D02*
X142830666Y-87060380D01*
X142830666Y-87060380D02*
X142906856Y-86984190D01*
X142906856Y-86984190D02*
X143021142Y-86946095D01*
X143021142Y-86946095D02*
X143097333Y-86946095D01*
X143097333Y-86946095D02*
X143211618Y-86984190D01*
X143211618Y-86984190D02*
X143249714Y-87022285D01*
X143554475Y-87022285D02*
X143592571Y-86984190D01*
X143592571Y-86984190D02*
X143668761Y-86946095D01*
X143668761Y-86946095D02*
X143859237Y-86946095D01*
X143859237Y-86946095D02*
X143935428Y-86984190D01*
X143935428Y-86984190D02*
X143973523Y-87022285D01*
X143973523Y-87022285D02*
X144011618Y-87098476D01*
X144011618Y-87098476D02*
X144011618Y-87174666D01*
X144011618Y-87174666D02*
X143973523Y-87288952D01*
X143973523Y-87288952D02*
X143516380Y-87746095D01*
X143516380Y-87746095D02*
X144011618Y-87746095D01*
X144468761Y-87288952D02*
X144392571Y-87250857D01*
X144392571Y-87250857D02*
X144354476Y-87212761D01*
X144354476Y-87212761D02*
X144316380Y-87136571D01*
X144316380Y-87136571D02*
X144316380Y-87098476D01*
X144316380Y-87098476D02*
X144354476Y-87022285D01*
X144354476Y-87022285D02*
X144392571Y-86984190D01*
X144392571Y-86984190D02*
X144468761Y-86946095D01*
X144468761Y-86946095D02*
X144621142Y-86946095D01*
X144621142Y-86946095D02*
X144697333Y-86984190D01*
X144697333Y-86984190D02*
X144735428Y-87022285D01*
X144735428Y-87022285D02*
X144773523Y-87098476D01*
X144773523Y-87098476D02*
X144773523Y-87136571D01*
X144773523Y-87136571D02*
X144735428Y-87212761D01*
X144735428Y-87212761D02*
X144697333Y-87250857D01*
X144697333Y-87250857D02*
X144621142Y-87288952D01*
X144621142Y-87288952D02*
X144468761Y-87288952D01*
X144468761Y-87288952D02*
X144392571Y-87327047D01*
X144392571Y-87327047D02*
X144354476Y-87365142D01*
X144354476Y-87365142D02*
X144316380Y-87441333D01*
X144316380Y-87441333D02*
X144316380Y-87593714D01*
X144316380Y-87593714D02*
X144354476Y-87669904D01*
X144354476Y-87669904D02*
X144392571Y-87708000D01*
X144392571Y-87708000D02*
X144468761Y-87746095D01*
X144468761Y-87746095D02*
X144621142Y-87746095D01*
X144621142Y-87746095D02*
X144697333Y-87708000D01*
X144697333Y-87708000D02*
X144735428Y-87669904D01*
X144735428Y-87669904D02*
X144773523Y-87593714D01*
X144773523Y-87593714D02*
X144773523Y-87441333D01*
X144773523Y-87441333D02*
X144735428Y-87365142D01*
X144735428Y-87365142D02*
X144697333Y-87327047D01*
X144697333Y-87327047D02*
X144621142Y-87288952D01*
%TO.C,D9*%
X171981905Y-110317619D02*
X171981905Y-109317619D01*
X171981905Y-109317619D02*
X172220000Y-109317619D01*
X172220000Y-109317619D02*
X172362857Y-109365238D01*
X172362857Y-109365238D02*
X172458095Y-109460476D01*
X172458095Y-109460476D02*
X172505714Y-109555714D01*
X172505714Y-109555714D02*
X172553333Y-109746190D01*
X172553333Y-109746190D02*
X172553333Y-109889047D01*
X172553333Y-109889047D02*
X172505714Y-110079523D01*
X172505714Y-110079523D02*
X172458095Y-110174761D01*
X172458095Y-110174761D02*
X172362857Y-110270000D01*
X172362857Y-110270000D02*
X172220000Y-110317619D01*
X172220000Y-110317619D02*
X171981905Y-110317619D01*
X173029524Y-110317619D02*
X173220000Y-110317619D01*
X173220000Y-110317619D02*
X173315238Y-110270000D01*
X173315238Y-110270000D02*
X173362857Y-110222380D01*
X173362857Y-110222380D02*
X173458095Y-110079523D01*
X173458095Y-110079523D02*
X173505714Y-109889047D01*
X173505714Y-109889047D02*
X173505714Y-109508095D01*
X173505714Y-109508095D02*
X173458095Y-109412857D01*
X173458095Y-109412857D02*
X173410476Y-109365238D01*
X173410476Y-109365238D02*
X173315238Y-109317619D01*
X173315238Y-109317619D02*
X173124762Y-109317619D01*
X173124762Y-109317619D02*
X173029524Y-109365238D01*
X173029524Y-109365238D02*
X172981905Y-109412857D01*
X172981905Y-109412857D02*
X172934286Y-109508095D01*
X172934286Y-109508095D02*
X172934286Y-109746190D01*
X172934286Y-109746190D02*
X172981905Y-109841428D01*
X172981905Y-109841428D02*
X173029524Y-109889047D01*
X173029524Y-109889047D02*
X173124762Y-109936666D01*
X173124762Y-109936666D02*
X173315238Y-109936666D01*
X173315238Y-109936666D02*
X173410476Y-109889047D01*
X173410476Y-109889047D02*
X173458095Y-109841428D01*
X173458095Y-109841428D02*
X173505714Y-109746190D01*
%TO.C,C54*%
X128897142Y-89775380D02*
X128849523Y-89823000D01*
X128849523Y-89823000D02*
X128706666Y-89870619D01*
X128706666Y-89870619D02*
X128611428Y-89870619D01*
X128611428Y-89870619D02*
X128468571Y-89823000D01*
X128468571Y-89823000D02*
X128373333Y-89727761D01*
X128373333Y-89727761D02*
X128325714Y-89632523D01*
X128325714Y-89632523D02*
X128278095Y-89442047D01*
X128278095Y-89442047D02*
X128278095Y-89299190D01*
X128278095Y-89299190D02*
X128325714Y-89108714D01*
X128325714Y-89108714D02*
X128373333Y-89013476D01*
X128373333Y-89013476D02*
X128468571Y-88918238D01*
X128468571Y-88918238D02*
X128611428Y-88870619D01*
X128611428Y-88870619D02*
X128706666Y-88870619D01*
X128706666Y-88870619D02*
X128849523Y-88918238D01*
X128849523Y-88918238D02*
X128897142Y-88965857D01*
X129801904Y-88870619D02*
X129325714Y-88870619D01*
X129325714Y-88870619D02*
X129278095Y-89346809D01*
X129278095Y-89346809D02*
X129325714Y-89299190D01*
X129325714Y-89299190D02*
X129420952Y-89251571D01*
X129420952Y-89251571D02*
X129659047Y-89251571D01*
X129659047Y-89251571D02*
X129754285Y-89299190D01*
X129754285Y-89299190D02*
X129801904Y-89346809D01*
X129801904Y-89346809D02*
X129849523Y-89442047D01*
X129849523Y-89442047D02*
X129849523Y-89680142D01*
X129849523Y-89680142D02*
X129801904Y-89775380D01*
X129801904Y-89775380D02*
X129754285Y-89823000D01*
X129754285Y-89823000D02*
X129659047Y-89870619D01*
X129659047Y-89870619D02*
X129420952Y-89870619D01*
X129420952Y-89870619D02*
X129325714Y-89823000D01*
X129325714Y-89823000D02*
X129278095Y-89775380D01*
X130706666Y-89203952D02*
X130706666Y-89870619D01*
X130468571Y-88823000D02*
X130230476Y-89537285D01*
X130230476Y-89537285D02*
X130849523Y-89537285D01*
%TO.C,C41*%
X154043142Y-71995380D02*
X153995523Y-72043000D01*
X153995523Y-72043000D02*
X153852666Y-72090619D01*
X153852666Y-72090619D02*
X153757428Y-72090619D01*
X153757428Y-72090619D02*
X153614571Y-72043000D01*
X153614571Y-72043000D02*
X153519333Y-71947761D01*
X153519333Y-71947761D02*
X153471714Y-71852523D01*
X153471714Y-71852523D02*
X153424095Y-71662047D01*
X153424095Y-71662047D02*
X153424095Y-71519190D01*
X153424095Y-71519190D02*
X153471714Y-71328714D01*
X153471714Y-71328714D02*
X153519333Y-71233476D01*
X153519333Y-71233476D02*
X153614571Y-71138238D01*
X153614571Y-71138238D02*
X153757428Y-71090619D01*
X153757428Y-71090619D02*
X153852666Y-71090619D01*
X153852666Y-71090619D02*
X153995523Y-71138238D01*
X153995523Y-71138238D02*
X154043142Y-71185857D01*
X154900285Y-71423952D02*
X154900285Y-72090619D01*
X154662190Y-71043000D02*
X154424095Y-71757285D01*
X154424095Y-71757285D02*
X155043142Y-71757285D01*
X155947904Y-72090619D02*
X155376476Y-72090619D01*
X155662190Y-72090619D02*
X155662190Y-71090619D01*
X155662190Y-71090619D02*
X155566952Y-71233476D01*
X155566952Y-71233476D02*
X155471714Y-71328714D01*
X155471714Y-71328714D02*
X155376476Y-71376333D01*
%TO.C,U11*%
X137921619Y-78454094D02*
X138731142Y-78454094D01*
X138731142Y-78454094D02*
X138826380Y-78406475D01*
X138826380Y-78406475D02*
X138874000Y-78358856D01*
X138874000Y-78358856D02*
X138921619Y-78263618D01*
X138921619Y-78263618D02*
X138921619Y-78073142D01*
X138921619Y-78073142D02*
X138874000Y-77977904D01*
X138874000Y-77977904D02*
X138826380Y-77930285D01*
X138826380Y-77930285D02*
X138731142Y-77882666D01*
X138731142Y-77882666D02*
X137921619Y-77882666D01*
X138921619Y-76882666D02*
X138921619Y-77454094D01*
X138921619Y-77168380D02*
X137921619Y-77168380D01*
X137921619Y-77168380D02*
X138064476Y-77263618D01*
X138064476Y-77263618D02*
X138159714Y-77358856D01*
X138159714Y-77358856D02*
X138207333Y-77454094D01*
X138921619Y-75930285D02*
X138921619Y-76501713D01*
X138921619Y-76215999D02*
X137921619Y-76215999D01*
X137921619Y-76215999D02*
X138064476Y-76311237D01*
X138064476Y-76311237D02*
X138159714Y-76406475D01*
X138159714Y-76406475D02*
X138207333Y-76501713D01*
%TO.C,C9*%
X139559380Y-92876666D02*
X139607000Y-92924285D01*
X139607000Y-92924285D02*
X139654619Y-93067142D01*
X139654619Y-93067142D02*
X139654619Y-93162380D01*
X139654619Y-93162380D02*
X139607000Y-93305237D01*
X139607000Y-93305237D02*
X139511761Y-93400475D01*
X139511761Y-93400475D02*
X139416523Y-93448094D01*
X139416523Y-93448094D02*
X139226047Y-93495713D01*
X139226047Y-93495713D02*
X139083190Y-93495713D01*
X139083190Y-93495713D02*
X138892714Y-93448094D01*
X138892714Y-93448094D02*
X138797476Y-93400475D01*
X138797476Y-93400475D02*
X138702238Y-93305237D01*
X138702238Y-93305237D02*
X138654619Y-93162380D01*
X138654619Y-93162380D02*
X138654619Y-93067142D01*
X138654619Y-93067142D02*
X138702238Y-92924285D01*
X138702238Y-92924285D02*
X138749857Y-92876666D01*
X139654619Y-92400475D02*
X139654619Y-92209999D01*
X139654619Y-92209999D02*
X139607000Y-92114761D01*
X139607000Y-92114761D02*
X139559380Y-92067142D01*
X139559380Y-92067142D02*
X139416523Y-91971904D01*
X139416523Y-91971904D02*
X139226047Y-91924285D01*
X139226047Y-91924285D02*
X138845095Y-91924285D01*
X138845095Y-91924285D02*
X138749857Y-91971904D01*
X138749857Y-91971904D02*
X138702238Y-92019523D01*
X138702238Y-92019523D02*
X138654619Y-92114761D01*
X138654619Y-92114761D02*
X138654619Y-92305237D01*
X138654619Y-92305237D02*
X138702238Y-92400475D01*
X138702238Y-92400475D02*
X138749857Y-92448094D01*
X138749857Y-92448094D02*
X138845095Y-92495713D01*
X138845095Y-92495713D02*
X139083190Y-92495713D01*
X139083190Y-92495713D02*
X139178428Y-92448094D01*
X139178428Y-92448094D02*
X139226047Y-92400475D01*
X139226047Y-92400475D02*
X139273666Y-92305237D01*
X139273666Y-92305237D02*
X139273666Y-92114761D01*
X139273666Y-92114761D02*
X139226047Y-92019523D01*
X139226047Y-92019523D02*
X139178428Y-91971904D01*
X139178428Y-91971904D02*
X139083190Y-91924285D01*
%TO.C,R14*%
X141594095Y-86874285D02*
X141213142Y-87140952D01*
X141594095Y-87331428D02*
X140794095Y-87331428D01*
X140794095Y-87331428D02*
X140794095Y-87026666D01*
X140794095Y-87026666D02*
X140832190Y-86950476D01*
X140832190Y-86950476D02*
X140870285Y-86912381D01*
X140870285Y-86912381D02*
X140946476Y-86874285D01*
X140946476Y-86874285D02*
X141060761Y-86874285D01*
X141060761Y-86874285D02*
X141136952Y-86912381D01*
X141136952Y-86912381D02*
X141175047Y-86950476D01*
X141175047Y-86950476D02*
X141213142Y-87026666D01*
X141213142Y-87026666D02*
X141213142Y-87331428D01*
X141594095Y-86112381D02*
X141594095Y-86569524D01*
X141594095Y-86340952D02*
X140794095Y-86340952D01*
X140794095Y-86340952D02*
X140908380Y-86417143D01*
X140908380Y-86417143D02*
X140984571Y-86493333D01*
X140984571Y-86493333D02*
X141022666Y-86569524D01*
X141060761Y-85426666D02*
X141594095Y-85426666D01*
X140756000Y-85617142D02*
X141327428Y-85807619D01*
X141327428Y-85807619D02*
X141327428Y-85312380D01*
%TO.C,R39*%
X150322619Y-120149857D02*
X149846428Y-120483190D01*
X150322619Y-120721285D02*
X149322619Y-120721285D01*
X149322619Y-120721285D02*
X149322619Y-120340333D01*
X149322619Y-120340333D02*
X149370238Y-120245095D01*
X149370238Y-120245095D02*
X149417857Y-120197476D01*
X149417857Y-120197476D02*
X149513095Y-120149857D01*
X149513095Y-120149857D02*
X149655952Y-120149857D01*
X149655952Y-120149857D02*
X149751190Y-120197476D01*
X149751190Y-120197476D02*
X149798809Y-120245095D01*
X149798809Y-120245095D02*
X149846428Y-120340333D01*
X149846428Y-120340333D02*
X149846428Y-120721285D01*
X149322619Y-119816523D02*
X149322619Y-119197476D01*
X149322619Y-119197476D02*
X149703571Y-119530809D01*
X149703571Y-119530809D02*
X149703571Y-119387952D01*
X149703571Y-119387952D02*
X149751190Y-119292714D01*
X149751190Y-119292714D02*
X149798809Y-119245095D01*
X149798809Y-119245095D02*
X149894047Y-119197476D01*
X149894047Y-119197476D02*
X150132142Y-119197476D01*
X150132142Y-119197476D02*
X150227380Y-119245095D01*
X150227380Y-119245095D02*
X150275000Y-119292714D01*
X150275000Y-119292714D02*
X150322619Y-119387952D01*
X150322619Y-119387952D02*
X150322619Y-119673666D01*
X150322619Y-119673666D02*
X150275000Y-119768904D01*
X150275000Y-119768904D02*
X150227380Y-119816523D01*
X150322619Y-118721285D02*
X150322619Y-118530809D01*
X150322619Y-118530809D02*
X150275000Y-118435571D01*
X150275000Y-118435571D02*
X150227380Y-118387952D01*
X150227380Y-118387952D02*
X150084523Y-118292714D01*
X150084523Y-118292714D02*
X149894047Y-118245095D01*
X149894047Y-118245095D02*
X149513095Y-118245095D01*
X149513095Y-118245095D02*
X149417857Y-118292714D01*
X149417857Y-118292714D02*
X149370238Y-118340333D01*
X149370238Y-118340333D02*
X149322619Y-118435571D01*
X149322619Y-118435571D02*
X149322619Y-118626047D01*
X149322619Y-118626047D02*
X149370238Y-118721285D01*
X149370238Y-118721285D02*
X149417857Y-118768904D01*
X149417857Y-118768904D02*
X149513095Y-118816523D01*
X149513095Y-118816523D02*
X149751190Y-118816523D01*
X149751190Y-118816523D02*
X149846428Y-118768904D01*
X149846428Y-118768904D02*
X149894047Y-118721285D01*
X149894047Y-118721285D02*
X149941666Y-118626047D01*
X149941666Y-118626047D02*
X149941666Y-118435571D01*
X149941666Y-118435571D02*
X149894047Y-118340333D01*
X149894047Y-118340333D02*
X149846428Y-118292714D01*
X149846428Y-118292714D02*
X149751190Y-118245095D01*
%TO.C,C34*%
X157345142Y-75297380D02*
X157297523Y-75345000D01*
X157297523Y-75345000D02*
X157154666Y-75392619D01*
X157154666Y-75392619D02*
X157059428Y-75392619D01*
X157059428Y-75392619D02*
X156916571Y-75345000D01*
X156916571Y-75345000D02*
X156821333Y-75249761D01*
X156821333Y-75249761D02*
X156773714Y-75154523D01*
X156773714Y-75154523D02*
X156726095Y-74964047D01*
X156726095Y-74964047D02*
X156726095Y-74821190D01*
X156726095Y-74821190D02*
X156773714Y-74630714D01*
X156773714Y-74630714D02*
X156821333Y-74535476D01*
X156821333Y-74535476D02*
X156916571Y-74440238D01*
X156916571Y-74440238D02*
X157059428Y-74392619D01*
X157059428Y-74392619D02*
X157154666Y-74392619D01*
X157154666Y-74392619D02*
X157297523Y-74440238D01*
X157297523Y-74440238D02*
X157345142Y-74487857D01*
X157678476Y-74392619D02*
X158297523Y-74392619D01*
X158297523Y-74392619D02*
X157964190Y-74773571D01*
X157964190Y-74773571D02*
X158107047Y-74773571D01*
X158107047Y-74773571D02*
X158202285Y-74821190D01*
X158202285Y-74821190D02*
X158249904Y-74868809D01*
X158249904Y-74868809D02*
X158297523Y-74964047D01*
X158297523Y-74964047D02*
X158297523Y-75202142D01*
X158297523Y-75202142D02*
X158249904Y-75297380D01*
X158249904Y-75297380D02*
X158202285Y-75345000D01*
X158202285Y-75345000D02*
X158107047Y-75392619D01*
X158107047Y-75392619D02*
X157821333Y-75392619D01*
X157821333Y-75392619D02*
X157726095Y-75345000D01*
X157726095Y-75345000D02*
X157678476Y-75297380D01*
X159154666Y-74725952D02*
X159154666Y-75392619D01*
X158916571Y-74345000D02*
X158678476Y-75059285D01*
X158678476Y-75059285D02*
X159297523Y-75059285D01*
%TO.C,J9*%
X147748666Y-123160619D02*
X147748666Y-123874904D01*
X147748666Y-123874904D02*
X147701047Y-124017761D01*
X147701047Y-124017761D02*
X147605809Y-124113000D01*
X147605809Y-124113000D02*
X147462952Y-124160619D01*
X147462952Y-124160619D02*
X147367714Y-124160619D01*
X148272476Y-124160619D02*
X148462952Y-124160619D01*
X148462952Y-124160619D02*
X148558190Y-124113000D01*
X148558190Y-124113000D02*
X148605809Y-124065380D01*
X148605809Y-124065380D02*
X148701047Y-123922523D01*
X148701047Y-123922523D02*
X148748666Y-123732047D01*
X148748666Y-123732047D02*
X148748666Y-123351095D01*
X148748666Y-123351095D02*
X148701047Y-123255857D01*
X148701047Y-123255857D02*
X148653428Y-123208238D01*
X148653428Y-123208238D02*
X148558190Y-123160619D01*
X148558190Y-123160619D02*
X148367714Y-123160619D01*
X148367714Y-123160619D02*
X148272476Y-123208238D01*
X148272476Y-123208238D02*
X148224857Y-123255857D01*
X148224857Y-123255857D02*
X148177238Y-123351095D01*
X148177238Y-123351095D02*
X148177238Y-123589190D01*
X148177238Y-123589190D02*
X148224857Y-123684428D01*
X148224857Y-123684428D02*
X148272476Y-123732047D01*
X148272476Y-123732047D02*
X148367714Y-123779666D01*
X148367714Y-123779666D02*
X148558190Y-123779666D01*
X148558190Y-123779666D02*
X148653428Y-123732047D01*
X148653428Y-123732047D02*
X148701047Y-123684428D01*
X148701047Y-123684428D02*
X148748666Y-123589190D01*
%TO.C,C33*%
X125087142Y-99427380D02*
X125039523Y-99475000D01*
X125039523Y-99475000D02*
X124896666Y-99522619D01*
X124896666Y-99522619D02*
X124801428Y-99522619D01*
X124801428Y-99522619D02*
X124658571Y-99475000D01*
X124658571Y-99475000D02*
X124563333Y-99379761D01*
X124563333Y-99379761D02*
X124515714Y-99284523D01*
X124515714Y-99284523D02*
X124468095Y-99094047D01*
X124468095Y-99094047D02*
X124468095Y-98951190D01*
X124468095Y-98951190D02*
X124515714Y-98760714D01*
X124515714Y-98760714D02*
X124563333Y-98665476D01*
X124563333Y-98665476D02*
X124658571Y-98570238D01*
X124658571Y-98570238D02*
X124801428Y-98522619D01*
X124801428Y-98522619D02*
X124896666Y-98522619D01*
X124896666Y-98522619D02*
X125039523Y-98570238D01*
X125039523Y-98570238D02*
X125087142Y-98617857D01*
X125420476Y-98522619D02*
X126039523Y-98522619D01*
X126039523Y-98522619D02*
X125706190Y-98903571D01*
X125706190Y-98903571D02*
X125849047Y-98903571D01*
X125849047Y-98903571D02*
X125944285Y-98951190D01*
X125944285Y-98951190D02*
X125991904Y-98998809D01*
X125991904Y-98998809D02*
X126039523Y-99094047D01*
X126039523Y-99094047D02*
X126039523Y-99332142D01*
X126039523Y-99332142D02*
X125991904Y-99427380D01*
X125991904Y-99427380D02*
X125944285Y-99475000D01*
X125944285Y-99475000D02*
X125849047Y-99522619D01*
X125849047Y-99522619D02*
X125563333Y-99522619D01*
X125563333Y-99522619D02*
X125468095Y-99475000D01*
X125468095Y-99475000D02*
X125420476Y-99427380D01*
X126372857Y-98522619D02*
X126991904Y-98522619D01*
X126991904Y-98522619D02*
X126658571Y-98903571D01*
X126658571Y-98903571D02*
X126801428Y-98903571D01*
X126801428Y-98903571D02*
X126896666Y-98951190D01*
X126896666Y-98951190D02*
X126944285Y-98998809D01*
X126944285Y-98998809D02*
X126991904Y-99094047D01*
X126991904Y-99094047D02*
X126991904Y-99332142D01*
X126991904Y-99332142D02*
X126944285Y-99427380D01*
X126944285Y-99427380D02*
X126896666Y-99475000D01*
X126896666Y-99475000D02*
X126801428Y-99522619D01*
X126801428Y-99522619D02*
X126515714Y-99522619D01*
X126515714Y-99522619D02*
X126420476Y-99475000D01*
X126420476Y-99475000D02*
X126372857Y-99427380D01*
%TO.C,C51*%
X138950880Y-115450857D02*
X138998500Y-115498476D01*
X138998500Y-115498476D02*
X139046119Y-115641333D01*
X139046119Y-115641333D02*
X139046119Y-115736571D01*
X139046119Y-115736571D02*
X138998500Y-115879428D01*
X138998500Y-115879428D02*
X138903261Y-115974666D01*
X138903261Y-115974666D02*
X138808023Y-116022285D01*
X138808023Y-116022285D02*
X138617547Y-116069904D01*
X138617547Y-116069904D02*
X138474690Y-116069904D01*
X138474690Y-116069904D02*
X138284214Y-116022285D01*
X138284214Y-116022285D02*
X138188976Y-115974666D01*
X138188976Y-115974666D02*
X138093738Y-115879428D01*
X138093738Y-115879428D02*
X138046119Y-115736571D01*
X138046119Y-115736571D02*
X138046119Y-115641333D01*
X138046119Y-115641333D02*
X138093738Y-115498476D01*
X138093738Y-115498476D02*
X138141357Y-115450857D01*
X138046119Y-114546095D02*
X138046119Y-115022285D01*
X138046119Y-115022285D02*
X138522309Y-115069904D01*
X138522309Y-115069904D02*
X138474690Y-115022285D01*
X138474690Y-115022285D02*
X138427071Y-114927047D01*
X138427071Y-114927047D02*
X138427071Y-114688952D01*
X138427071Y-114688952D02*
X138474690Y-114593714D01*
X138474690Y-114593714D02*
X138522309Y-114546095D01*
X138522309Y-114546095D02*
X138617547Y-114498476D01*
X138617547Y-114498476D02*
X138855642Y-114498476D01*
X138855642Y-114498476D02*
X138950880Y-114546095D01*
X138950880Y-114546095D02*
X138998500Y-114593714D01*
X138998500Y-114593714D02*
X139046119Y-114688952D01*
X139046119Y-114688952D02*
X139046119Y-114927047D01*
X139046119Y-114927047D02*
X138998500Y-115022285D01*
X138998500Y-115022285D02*
X138950880Y-115069904D01*
X139046119Y-113546095D02*
X139046119Y-114117523D01*
X139046119Y-113831809D02*
X138046119Y-113831809D01*
X138046119Y-113831809D02*
X138188976Y-113927047D01*
X138188976Y-113927047D02*
X138284214Y-114022285D01*
X138284214Y-114022285D02*
X138331833Y-114117523D01*
%TO.C,R38*%
X153497619Y-116593857D02*
X153021428Y-116927190D01*
X153497619Y-117165285D02*
X152497619Y-117165285D01*
X152497619Y-117165285D02*
X152497619Y-116784333D01*
X152497619Y-116784333D02*
X152545238Y-116689095D01*
X152545238Y-116689095D02*
X152592857Y-116641476D01*
X152592857Y-116641476D02*
X152688095Y-116593857D01*
X152688095Y-116593857D02*
X152830952Y-116593857D01*
X152830952Y-116593857D02*
X152926190Y-116641476D01*
X152926190Y-116641476D02*
X152973809Y-116689095D01*
X152973809Y-116689095D02*
X153021428Y-116784333D01*
X153021428Y-116784333D02*
X153021428Y-117165285D01*
X152497619Y-116260523D02*
X152497619Y-115641476D01*
X152497619Y-115641476D02*
X152878571Y-115974809D01*
X152878571Y-115974809D02*
X152878571Y-115831952D01*
X152878571Y-115831952D02*
X152926190Y-115736714D01*
X152926190Y-115736714D02*
X152973809Y-115689095D01*
X152973809Y-115689095D02*
X153069047Y-115641476D01*
X153069047Y-115641476D02*
X153307142Y-115641476D01*
X153307142Y-115641476D02*
X153402380Y-115689095D01*
X153402380Y-115689095D02*
X153450000Y-115736714D01*
X153450000Y-115736714D02*
X153497619Y-115831952D01*
X153497619Y-115831952D02*
X153497619Y-116117666D01*
X153497619Y-116117666D02*
X153450000Y-116212904D01*
X153450000Y-116212904D02*
X153402380Y-116260523D01*
X152926190Y-115070047D02*
X152878571Y-115165285D01*
X152878571Y-115165285D02*
X152830952Y-115212904D01*
X152830952Y-115212904D02*
X152735714Y-115260523D01*
X152735714Y-115260523D02*
X152688095Y-115260523D01*
X152688095Y-115260523D02*
X152592857Y-115212904D01*
X152592857Y-115212904D02*
X152545238Y-115165285D01*
X152545238Y-115165285D02*
X152497619Y-115070047D01*
X152497619Y-115070047D02*
X152497619Y-114879571D01*
X152497619Y-114879571D02*
X152545238Y-114784333D01*
X152545238Y-114784333D02*
X152592857Y-114736714D01*
X152592857Y-114736714D02*
X152688095Y-114689095D01*
X152688095Y-114689095D02*
X152735714Y-114689095D01*
X152735714Y-114689095D02*
X152830952Y-114736714D01*
X152830952Y-114736714D02*
X152878571Y-114784333D01*
X152878571Y-114784333D02*
X152926190Y-114879571D01*
X152926190Y-114879571D02*
X152926190Y-115070047D01*
X152926190Y-115070047D02*
X152973809Y-115165285D01*
X152973809Y-115165285D02*
X153021428Y-115212904D01*
X153021428Y-115212904D02*
X153116666Y-115260523D01*
X153116666Y-115260523D02*
X153307142Y-115260523D01*
X153307142Y-115260523D02*
X153402380Y-115212904D01*
X153402380Y-115212904D02*
X153450000Y-115165285D01*
X153450000Y-115165285D02*
X153497619Y-115070047D01*
X153497619Y-115070047D02*
X153497619Y-114879571D01*
X153497619Y-114879571D02*
X153450000Y-114784333D01*
X153450000Y-114784333D02*
X153402380Y-114736714D01*
X153402380Y-114736714D02*
X153307142Y-114689095D01*
X153307142Y-114689095D02*
X153116666Y-114689095D01*
X153116666Y-114689095D02*
X153021428Y-114736714D01*
X153021428Y-114736714D02*
X152973809Y-114784333D01*
X152973809Y-114784333D02*
X152926190Y-114879571D01*
%TO.C,J2*%
X154225666Y-63724619D02*
X154225666Y-64438904D01*
X154225666Y-64438904D02*
X154178047Y-64581761D01*
X154178047Y-64581761D02*
X154082809Y-64677000D01*
X154082809Y-64677000D02*
X153939952Y-64724619D01*
X153939952Y-64724619D02*
X153844714Y-64724619D01*
X154654238Y-63819857D02*
X154701857Y-63772238D01*
X154701857Y-63772238D02*
X154797095Y-63724619D01*
X154797095Y-63724619D02*
X155035190Y-63724619D01*
X155035190Y-63724619D02*
X155130428Y-63772238D01*
X155130428Y-63772238D02*
X155178047Y-63819857D01*
X155178047Y-63819857D02*
X155225666Y-63915095D01*
X155225666Y-63915095D02*
X155225666Y-64010333D01*
X155225666Y-64010333D02*
X155178047Y-64153190D01*
X155178047Y-64153190D02*
X154606619Y-64724619D01*
X154606619Y-64724619D02*
X155225666Y-64724619D01*
%TO.C,C31*%
X165601714Y-107989904D02*
X165563618Y-108028000D01*
X165563618Y-108028000D02*
X165449333Y-108066095D01*
X165449333Y-108066095D02*
X165373142Y-108066095D01*
X165373142Y-108066095D02*
X165258856Y-108028000D01*
X165258856Y-108028000D02*
X165182666Y-107951809D01*
X165182666Y-107951809D02*
X165144571Y-107875619D01*
X165144571Y-107875619D02*
X165106475Y-107723238D01*
X165106475Y-107723238D02*
X165106475Y-107608952D01*
X165106475Y-107608952D02*
X165144571Y-107456571D01*
X165144571Y-107456571D02*
X165182666Y-107380380D01*
X165182666Y-107380380D02*
X165258856Y-107304190D01*
X165258856Y-107304190D02*
X165373142Y-107266095D01*
X165373142Y-107266095D02*
X165449333Y-107266095D01*
X165449333Y-107266095D02*
X165563618Y-107304190D01*
X165563618Y-107304190D02*
X165601714Y-107342285D01*
X165868380Y-107266095D02*
X166363618Y-107266095D01*
X166363618Y-107266095D02*
X166096952Y-107570857D01*
X166096952Y-107570857D02*
X166211237Y-107570857D01*
X166211237Y-107570857D02*
X166287428Y-107608952D01*
X166287428Y-107608952D02*
X166325523Y-107647047D01*
X166325523Y-107647047D02*
X166363618Y-107723238D01*
X166363618Y-107723238D02*
X166363618Y-107913714D01*
X166363618Y-107913714D02*
X166325523Y-107989904D01*
X166325523Y-107989904D02*
X166287428Y-108028000D01*
X166287428Y-108028000D02*
X166211237Y-108066095D01*
X166211237Y-108066095D02*
X165982666Y-108066095D01*
X165982666Y-108066095D02*
X165906475Y-108028000D01*
X165906475Y-108028000D02*
X165868380Y-107989904D01*
X167125523Y-108066095D02*
X166668380Y-108066095D01*
X166896952Y-108066095D02*
X166896952Y-107266095D01*
X166896952Y-107266095D02*
X166820761Y-107380380D01*
X166820761Y-107380380D02*
X166744571Y-107456571D01*
X166744571Y-107456571D02*
X166668380Y-107494666D01*
%TO.C,R26*%
X151846619Y-120149857D02*
X151370428Y-120483190D01*
X151846619Y-120721285D02*
X150846619Y-120721285D01*
X150846619Y-120721285D02*
X150846619Y-120340333D01*
X150846619Y-120340333D02*
X150894238Y-120245095D01*
X150894238Y-120245095D02*
X150941857Y-120197476D01*
X150941857Y-120197476D02*
X151037095Y-120149857D01*
X151037095Y-120149857D02*
X151179952Y-120149857D01*
X151179952Y-120149857D02*
X151275190Y-120197476D01*
X151275190Y-120197476D02*
X151322809Y-120245095D01*
X151322809Y-120245095D02*
X151370428Y-120340333D01*
X151370428Y-120340333D02*
X151370428Y-120721285D01*
X150941857Y-119768904D02*
X150894238Y-119721285D01*
X150894238Y-119721285D02*
X150846619Y-119626047D01*
X150846619Y-119626047D02*
X150846619Y-119387952D01*
X150846619Y-119387952D02*
X150894238Y-119292714D01*
X150894238Y-119292714D02*
X150941857Y-119245095D01*
X150941857Y-119245095D02*
X151037095Y-119197476D01*
X151037095Y-119197476D02*
X151132333Y-119197476D01*
X151132333Y-119197476D02*
X151275190Y-119245095D01*
X151275190Y-119245095D02*
X151846619Y-119816523D01*
X151846619Y-119816523D02*
X151846619Y-119197476D01*
X150846619Y-118340333D02*
X150846619Y-118530809D01*
X150846619Y-118530809D02*
X150894238Y-118626047D01*
X150894238Y-118626047D02*
X150941857Y-118673666D01*
X150941857Y-118673666D02*
X151084714Y-118768904D01*
X151084714Y-118768904D02*
X151275190Y-118816523D01*
X151275190Y-118816523D02*
X151656142Y-118816523D01*
X151656142Y-118816523D02*
X151751380Y-118768904D01*
X151751380Y-118768904D02*
X151799000Y-118721285D01*
X151799000Y-118721285D02*
X151846619Y-118626047D01*
X151846619Y-118626047D02*
X151846619Y-118435571D01*
X151846619Y-118435571D02*
X151799000Y-118340333D01*
X151799000Y-118340333D02*
X151751380Y-118292714D01*
X151751380Y-118292714D02*
X151656142Y-118245095D01*
X151656142Y-118245095D02*
X151418047Y-118245095D01*
X151418047Y-118245095D02*
X151322809Y-118292714D01*
X151322809Y-118292714D02*
X151275190Y-118340333D01*
X151275190Y-118340333D02*
X151227571Y-118435571D01*
X151227571Y-118435571D02*
X151227571Y-118626047D01*
X151227571Y-118626047D02*
X151275190Y-118721285D01*
X151275190Y-118721285D02*
X151322809Y-118768904D01*
X151322809Y-118768904D02*
X151418047Y-118816523D01*
%TO.C,J5*%
X170974666Y-106694619D02*
X170974666Y-107408904D01*
X170974666Y-107408904D02*
X170927047Y-107551761D01*
X170927047Y-107551761D02*
X170831809Y-107647000D01*
X170831809Y-107647000D02*
X170688952Y-107694619D01*
X170688952Y-107694619D02*
X170593714Y-107694619D01*
X171927047Y-106694619D02*
X171450857Y-106694619D01*
X171450857Y-106694619D02*
X171403238Y-107170809D01*
X171403238Y-107170809D02*
X171450857Y-107123190D01*
X171450857Y-107123190D02*
X171546095Y-107075571D01*
X171546095Y-107075571D02*
X171784190Y-107075571D01*
X171784190Y-107075571D02*
X171879428Y-107123190D01*
X171879428Y-107123190D02*
X171927047Y-107170809D01*
X171927047Y-107170809D02*
X171974666Y-107266047D01*
X171974666Y-107266047D02*
X171974666Y-107504142D01*
X171974666Y-107504142D02*
X171927047Y-107599380D01*
X171927047Y-107599380D02*
X171879428Y-107647000D01*
X171879428Y-107647000D02*
X171784190Y-107694619D01*
X171784190Y-107694619D02*
X171546095Y-107694619D01*
X171546095Y-107694619D02*
X171450857Y-107647000D01*
X171450857Y-107647000D02*
X171403238Y-107599380D01*
%TO.C,C27*%
X143121142Y-92061380D02*
X143073523Y-92109000D01*
X143073523Y-92109000D02*
X142930666Y-92156619D01*
X142930666Y-92156619D02*
X142835428Y-92156619D01*
X142835428Y-92156619D02*
X142692571Y-92109000D01*
X142692571Y-92109000D02*
X142597333Y-92013761D01*
X142597333Y-92013761D02*
X142549714Y-91918523D01*
X142549714Y-91918523D02*
X142502095Y-91728047D01*
X142502095Y-91728047D02*
X142502095Y-91585190D01*
X142502095Y-91585190D02*
X142549714Y-91394714D01*
X142549714Y-91394714D02*
X142597333Y-91299476D01*
X142597333Y-91299476D02*
X142692571Y-91204238D01*
X142692571Y-91204238D02*
X142835428Y-91156619D01*
X142835428Y-91156619D02*
X142930666Y-91156619D01*
X142930666Y-91156619D02*
X143073523Y-91204238D01*
X143073523Y-91204238D02*
X143121142Y-91251857D01*
X143502095Y-91251857D02*
X143549714Y-91204238D01*
X143549714Y-91204238D02*
X143644952Y-91156619D01*
X143644952Y-91156619D02*
X143883047Y-91156619D01*
X143883047Y-91156619D02*
X143978285Y-91204238D01*
X143978285Y-91204238D02*
X144025904Y-91251857D01*
X144025904Y-91251857D02*
X144073523Y-91347095D01*
X144073523Y-91347095D02*
X144073523Y-91442333D01*
X144073523Y-91442333D02*
X144025904Y-91585190D01*
X144025904Y-91585190D02*
X143454476Y-92156619D01*
X143454476Y-92156619D02*
X144073523Y-92156619D01*
X144406857Y-91156619D02*
X145073523Y-91156619D01*
X145073523Y-91156619D02*
X144644952Y-92156619D01*
%TO.C,C22*%
X144265714Y-106719904D02*
X144227618Y-106758000D01*
X144227618Y-106758000D02*
X144113333Y-106796095D01*
X144113333Y-106796095D02*
X144037142Y-106796095D01*
X144037142Y-106796095D02*
X143922856Y-106758000D01*
X143922856Y-106758000D02*
X143846666Y-106681809D01*
X143846666Y-106681809D02*
X143808571Y-106605619D01*
X143808571Y-106605619D02*
X143770475Y-106453238D01*
X143770475Y-106453238D02*
X143770475Y-106338952D01*
X143770475Y-106338952D02*
X143808571Y-106186571D01*
X143808571Y-106186571D02*
X143846666Y-106110380D01*
X143846666Y-106110380D02*
X143922856Y-106034190D01*
X143922856Y-106034190D02*
X144037142Y-105996095D01*
X144037142Y-105996095D02*
X144113333Y-105996095D01*
X144113333Y-105996095D02*
X144227618Y-106034190D01*
X144227618Y-106034190D02*
X144265714Y-106072285D01*
X144570475Y-106072285D02*
X144608571Y-106034190D01*
X144608571Y-106034190D02*
X144684761Y-105996095D01*
X144684761Y-105996095D02*
X144875237Y-105996095D01*
X144875237Y-105996095D02*
X144951428Y-106034190D01*
X144951428Y-106034190D02*
X144989523Y-106072285D01*
X144989523Y-106072285D02*
X145027618Y-106148476D01*
X145027618Y-106148476D02*
X145027618Y-106224666D01*
X145027618Y-106224666D02*
X144989523Y-106338952D01*
X144989523Y-106338952D02*
X144532380Y-106796095D01*
X144532380Y-106796095D02*
X145027618Y-106796095D01*
X145332380Y-106072285D02*
X145370476Y-106034190D01*
X145370476Y-106034190D02*
X145446666Y-105996095D01*
X145446666Y-105996095D02*
X145637142Y-105996095D01*
X145637142Y-105996095D02*
X145713333Y-106034190D01*
X145713333Y-106034190D02*
X145751428Y-106072285D01*
X145751428Y-106072285D02*
X145789523Y-106148476D01*
X145789523Y-106148476D02*
X145789523Y-106224666D01*
X145789523Y-106224666D02*
X145751428Y-106338952D01*
X145751428Y-106338952D02*
X145294285Y-106796095D01*
X145294285Y-106796095D02*
X145789523Y-106796095D01*
%TO.C,D8*%
X140424905Y-69336619D02*
X140424905Y-68336619D01*
X140424905Y-68336619D02*
X140663000Y-68336619D01*
X140663000Y-68336619D02*
X140805857Y-68384238D01*
X140805857Y-68384238D02*
X140901095Y-68479476D01*
X140901095Y-68479476D02*
X140948714Y-68574714D01*
X140948714Y-68574714D02*
X140996333Y-68765190D01*
X140996333Y-68765190D02*
X140996333Y-68908047D01*
X140996333Y-68908047D02*
X140948714Y-69098523D01*
X140948714Y-69098523D02*
X140901095Y-69193761D01*
X140901095Y-69193761D02*
X140805857Y-69289000D01*
X140805857Y-69289000D02*
X140663000Y-69336619D01*
X140663000Y-69336619D02*
X140424905Y-69336619D01*
X141567762Y-68765190D02*
X141472524Y-68717571D01*
X141472524Y-68717571D02*
X141424905Y-68669952D01*
X141424905Y-68669952D02*
X141377286Y-68574714D01*
X141377286Y-68574714D02*
X141377286Y-68527095D01*
X141377286Y-68527095D02*
X141424905Y-68431857D01*
X141424905Y-68431857D02*
X141472524Y-68384238D01*
X141472524Y-68384238D02*
X141567762Y-68336619D01*
X141567762Y-68336619D02*
X141758238Y-68336619D01*
X141758238Y-68336619D02*
X141853476Y-68384238D01*
X141853476Y-68384238D02*
X141901095Y-68431857D01*
X141901095Y-68431857D02*
X141948714Y-68527095D01*
X141948714Y-68527095D02*
X141948714Y-68574714D01*
X141948714Y-68574714D02*
X141901095Y-68669952D01*
X141901095Y-68669952D02*
X141853476Y-68717571D01*
X141853476Y-68717571D02*
X141758238Y-68765190D01*
X141758238Y-68765190D02*
X141567762Y-68765190D01*
X141567762Y-68765190D02*
X141472524Y-68812809D01*
X141472524Y-68812809D02*
X141424905Y-68860428D01*
X141424905Y-68860428D02*
X141377286Y-68955666D01*
X141377286Y-68955666D02*
X141377286Y-69146142D01*
X141377286Y-69146142D02*
X141424905Y-69241380D01*
X141424905Y-69241380D02*
X141472524Y-69289000D01*
X141472524Y-69289000D02*
X141567762Y-69336619D01*
X141567762Y-69336619D02*
X141758238Y-69336619D01*
X141758238Y-69336619D02*
X141853476Y-69289000D01*
X141853476Y-69289000D02*
X141901095Y-69241380D01*
X141901095Y-69241380D02*
X141948714Y-69146142D01*
X141948714Y-69146142D02*
X141948714Y-68955666D01*
X141948714Y-68955666D02*
X141901095Y-68860428D01*
X141901095Y-68860428D02*
X141853476Y-68812809D01*
X141853476Y-68812809D02*
X141758238Y-68765190D01*
%TO.C,D10*%
X141178619Y-121356285D02*
X140178619Y-121356285D01*
X140178619Y-121356285D02*
X140178619Y-121118190D01*
X140178619Y-121118190D02*
X140226238Y-120975333D01*
X140226238Y-120975333D02*
X140321476Y-120880095D01*
X140321476Y-120880095D02*
X140416714Y-120832476D01*
X140416714Y-120832476D02*
X140607190Y-120784857D01*
X140607190Y-120784857D02*
X140750047Y-120784857D01*
X140750047Y-120784857D02*
X140940523Y-120832476D01*
X140940523Y-120832476D02*
X141035761Y-120880095D01*
X141035761Y-120880095D02*
X141131000Y-120975333D01*
X141131000Y-120975333D02*
X141178619Y-121118190D01*
X141178619Y-121118190D02*
X141178619Y-121356285D01*
X141178619Y-119832476D02*
X141178619Y-120403904D01*
X141178619Y-120118190D02*
X140178619Y-120118190D01*
X140178619Y-120118190D02*
X140321476Y-120213428D01*
X140321476Y-120213428D02*
X140416714Y-120308666D01*
X140416714Y-120308666D02*
X140464333Y-120403904D01*
X140178619Y-119213428D02*
X140178619Y-119118190D01*
X140178619Y-119118190D02*
X140226238Y-119022952D01*
X140226238Y-119022952D02*
X140273857Y-118975333D01*
X140273857Y-118975333D02*
X140369095Y-118927714D01*
X140369095Y-118927714D02*
X140559571Y-118880095D01*
X140559571Y-118880095D02*
X140797666Y-118880095D01*
X140797666Y-118880095D02*
X140988142Y-118927714D01*
X140988142Y-118927714D02*
X141083380Y-118975333D01*
X141083380Y-118975333D02*
X141131000Y-119022952D01*
X141131000Y-119022952D02*
X141178619Y-119118190D01*
X141178619Y-119118190D02*
X141178619Y-119213428D01*
X141178619Y-119213428D02*
X141131000Y-119308666D01*
X141131000Y-119308666D02*
X141083380Y-119356285D01*
X141083380Y-119356285D02*
X140988142Y-119403904D01*
X140988142Y-119403904D02*
X140797666Y-119451523D01*
X140797666Y-119451523D02*
X140559571Y-119451523D01*
X140559571Y-119451523D02*
X140369095Y-119403904D01*
X140369095Y-119403904D02*
X140273857Y-119356285D01*
X140273857Y-119356285D02*
X140226238Y-119308666D01*
X140226238Y-119308666D02*
X140178619Y-119213428D01*
%TO.C,R35*%
X172077142Y-120858619D02*
X171743809Y-120382428D01*
X171505714Y-120858619D02*
X171505714Y-119858619D01*
X171505714Y-119858619D02*
X171886666Y-119858619D01*
X171886666Y-119858619D02*
X171981904Y-119906238D01*
X171981904Y-119906238D02*
X172029523Y-119953857D01*
X172029523Y-119953857D02*
X172077142Y-120049095D01*
X172077142Y-120049095D02*
X172077142Y-120191952D01*
X172077142Y-120191952D02*
X172029523Y-120287190D01*
X172029523Y-120287190D02*
X171981904Y-120334809D01*
X171981904Y-120334809D02*
X171886666Y-120382428D01*
X171886666Y-120382428D02*
X171505714Y-120382428D01*
X172410476Y-119858619D02*
X173029523Y-119858619D01*
X173029523Y-119858619D02*
X172696190Y-120239571D01*
X172696190Y-120239571D02*
X172839047Y-120239571D01*
X172839047Y-120239571D02*
X172934285Y-120287190D01*
X172934285Y-120287190D02*
X172981904Y-120334809D01*
X172981904Y-120334809D02*
X173029523Y-120430047D01*
X173029523Y-120430047D02*
X173029523Y-120668142D01*
X173029523Y-120668142D02*
X172981904Y-120763380D01*
X172981904Y-120763380D02*
X172934285Y-120811000D01*
X172934285Y-120811000D02*
X172839047Y-120858619D01*
X172839047Y-120858619D02*
X172553333Y-120858619D01*
X172553333Y-120858619D02*
X172458095Y-120811000D01*
X172458095Y-120811000D02*
X172410476Y-120763380D01*
X173934285Y-119858619D02*
X173458095Y-119858619D01*
X173458095Y-119858619D02*
X173410476Y-120334809D01*
X173410476Y-120334809D02*
X173458095Y-120287190D01*
X173458095Y-120287190D02*
X173553333Y-120239571D01*
X173553333Y-120239571D02*
X173791428Y-120239571D01*
X173791428Y-120239571D02*
X173886666Y-120287190D01*
X173886666Y-120287190D02*
X173934285Y-120334809D01*
X173934285Y-120334809D02*
X173981904Y-120430047D01*
X173981904Y-120430047D02*
X173981904Y-120668142D01*
X173981904Y-120668142D02*
X173934285Y-120763380D01*
X173934285Y-120763380D02*
X173886666Y-120811000D01*
X173886666Y-120811000D02*
X173791428Y-120858619D01*
X173791428Y-120858619D02*
X173553333Y-120858619D01*
X173553333Y-120858619D02*
X173458095Y-120811000D01*
X173458095Y-120811000D02*
X173410476Y-120763380D01*
%TO.C,C23*%
X157265904Y-82810285D02*
X157304000Y-82848381D01*
X157304000Y-82848381D02*
X157342095Y-82962666D01*
X157342095Y-82962666D02*
X157342095Y-83038857D01*
X157342095Y-83038857D02*
X157304000Y-83153143D01*
X157304000Y-83153143D02*
X157227809Y-83229333D01*
X157227809Y-83229333D02*
X157151619Y-83267428D01*
X157151619Y-83267428D02*
X156999238Y-83305524D01*
X156999238Y-83305524D02*
X156884952Y-83305524D01*
X156884952Y-83305524D02*
X156732571Y-83267428D01*
X156732571Y-83267428D02*
X156656380Y-83229333D01*
X156656380Y-83229333D02*
X156580190Y-83153143D01*
X156580190Y-83153143D02*
X156542095Y-83038857D01*
X156542095Y-83038857D02*
X156542095Y-82962666D01*
X156542095Y-82962666D02*
X156580190Y-82848381D01*
X156580190Y-82848381D02*
X156618285Y-82810285D01*
X156618285Y-82505524D02*
X156580190Y-82467428D01*
X156580190Y-82467428D02*
X156542095Y-82391238D01*
X156542095Y-82391238D02*
X156542095Y-82200762D01*
X156542095Y-82200762D02*
X156580190Y-82124571D01*
X156580190Y-82124571D02*
X156618285Y-82086476D01*
X156618285Y-82086476D02*
X156694476Y-82048381D01*
X156694476Y-82048381D02*
X156770666Y-82048381D01*
X156770666Y-82048381D02*
X156884952Y-82086476D01*
X156884952Y-82086476D02*
X157342095Y-82543619D01*
X157342095Y-82543619D02*
X157342095Y-82048381D01*
X156542095Y-81781714D02*
X156542095Y-81286476D01*
X156542095Y-81286476D02*
X156846857Y-81553142D01*
X156846857Y-81553142D02*
X156846857Y-81438857D01*
X156846857Y-81438857D02*
X156884952Y-81362666D01*
X156884952Y-81362666D02*
X156923047Y-81324571D01*
X156923047Y-81324571D02*
X156999238Y-81286476D01*
X156999238Y-81286476D02*
X157189714Y-81286476D01*
X157189714Y-81286476D02*
X157265904Y-81324571D01*
X157265904Y-81324571D02*
X157304000Y-81362666D01*
X157304000Y-81362666D02*
X157342095Y-81438857D01*
X157342095Y-81438857D02*
X157342095Y-81667428D01*
X157342095Y-81667428D02*
X157304000Y-81743619D01*
X157304000Y-81743619D02*
X157265904Y-81781714D01*
%TO.C,D4*%
X160263095Y-123399475D02*
X159463095Y-123399475D01*
X159463095Y-123399475D02*
X159463095Y-123208999D01*
X159463095Y-123208999D02*
X159501190Y-123094713D01*
X159501190Y-123094713D02*
X159577380Y-123018523D01*
X159577380Y-123018523D02*
X159653571Y-122980428D01*
X159653571Y-122980428D02*
X159805952Y-122942332D01*
X159805952Y-122942332D02*
X159920238Y-122942332D01*
X159920238Y-122942332D02*
X160072619Y-122980428D01*
X160072619Y-122980428D02*
X160148809Y-123018523D01*
X160148809Y-123018523D02*
X160225000Y-123094713D01*
X160225000Y-123094713D02*
X160263095Y-123208999D01*
X160263095Y-123208999D02*
X160263095Y-123399475D01*
X159729761Y-122256618D02*
X160263095Y-122256618D01*
X159425000Y-122447094D02*
X159996428Y-122637571D01*
X159996428Y-122637571D02*
X159996428Y-122142332D01*
%TO.C,C18*%
X165601714Y-103925904D02*
X165563618Y-103964000D01*
X165563618Y-103964000D02*
X165449333Y-104002095D01*
X165449333Y-104002095D02*
X165373142Y-104002095D01*
X165373142Y-104002095D02*
X165258856Y-103964000D01*
X165258856Y-103964000D02*
X165182666Y-103887809D01*
X165182666Y-103887809D02*
X165144571Y-103811619D01*
X165144571Y-103811619D02*
X165106475Y-103659238D01*
X165106475Y-103659238D02*
X165106475Y-103544952D01*
X165106475Y-103544952D02*
X165144571Y-103392571D01*
X165144571Y-103392571D02*
X165182666Y-103316380D01*
X165182666Y-103316380D02*
X165258856Y-103240190D01*
X165258856Y-103240190D02*
X165373142Y-103202095D01*
X165373142Y-103202095D02*
X165449333Y-103202095D01*
X165449333Y-103202095D02*
X165563618Y-103240190D01*
X165563618Y-103240190D02*
X165601714Y-103278285D01*
X166363618Y-104002095D02*
X165906475Y-104002095D01*
X166135047Y-104002095D02*
X166135047Y-103202095D01*
X166135047Y-103202095D02*
X166058856Y-103316380D01*
X166058856Y-103316380D02*
X165982666Y-103392571D01*
X165982666Y-103392571D02*
X165906475Y-103430666D01*
X166820761Y-103544952D02*
X166744571Y-103506857D01*
X166744571Y-103506857D02*
X166706476Y-103468761D01*
X166706476Y-103468761D02*
X166668380Y-103392571D01*
X166668380Y-103392571D02*
X166668380Y-103354476D01*
X166668380Y-103354476D02*
X166706476Y-103278285D01*
X166706476Y-103278285D02*
X166744571Y-103240190D01*
X166744571Y-103240190D02*
X166820761Y-103202095D01*
X166820761Y-103202095D02*
X166973142Y-103202095D01*
X166973142Y-103202095D02*
X167049333Y-103240190D01*
X167049333Y-103240190D02*
X167087428Y-103278285D01*
X167087428Y-103278285D02*
X167125523Y-103354476D01*
X167125523Y-103354476D02*
X167125523Y-103392571D01*
X167125523Y-103392571D02*
X167087428Y-103468761D01*
X167087428Y-103468761D02*
X167049333Y-103506857D01*
X167049333Y-103506857D02*
X166973142Y-103544952D01*
X166973142Y-103544952D02*
X166820761Y-103544952D01*
X166820761Y-103544952D02*
X166744571Y-103583047D01*
X166744571Y-103583047D02*
X166706476Y-103621142D01*
X166706476Y-103621142D02*
X166668380Y-103697333D01*
X166668380Y-103697333D02*
X166668380Y-103849714D01*
X166668380Y-103849714D02*
X166706476Y-103925904D01*
X166706476Y-103925904D02*
X166744571Y-103964000D01*
X166744571Y-103964000D02*
X166820761Y-104002095D01*
X166820761Y-104002095D02*
X166973142Y-104002095D01*
X166973142Y-104002095D02*
X167049333Y-103964000D01*
X167049333Y-103964000D02*
X167087428Y-103925904D01*
X167087428Y-103925904D02*
X167125523Y-103849714D01*
X167125523Y-103849714D02*
X167125523Y-103697333D01*
X167125523Y-103697333D02*
X167087428Y-103621142D01*
X167087428Y-103621142D02*
X167049333Y-103583047D01*
X167049333Y-103583047D02*
X166973142Y-103544952D01*
%TO.C,C50*%
X140728880Y-115450857D02*
X140776500Y-115498476D01*
X140776500Y-115498476D02*
X140824119Y-115641333D01*
X140824119Y-115641333D02*
X140824119Y-115736571D01*
X140824119Y-115736571D02*
X140776500Y-115879428D01*
X140776500Y-115879428D02*
X140681261Y-115974666D01*
X140681261Y-115974666D02*
X140586023Y-116022285D01*
X140586023Y-116022285D02*
X140395547Y-116069904D01*
X140395547Y-116069904D02*
X140252690Y-116069904D01*
X140252690Y-116069904D02*
X140062214Y-116022285D01*
X140062214Y-116022285D02*
X139966976Y-115974666D01*
X139966976Y-115974666D02*
X139871738Y-115879428D01*
X139871738Y-115879428D02*
X139824119Y-115736571D01*
X139824119Y-115736571D02*
X139824119Y-115641333D01*
X139824119Y-115641333D02*
X139871738Y-115498476D01*
X139871738Y-115498476D02*
X139919357Y-115450857D01*
X139824119Y-114546095D02*
X139824119Y-115022285D01*
X139824119Y-115022285D02*
X140300309Y-115069904D01*
X140300309Y-115069904D02*
X140252690Y-115022285D01*
X140252690Y-115022285D02*
X140205071Y-114927047D01*
X140205071Y-114927047D02*
X140205071Y-114688952D01*
X140205071Y-114688952D02*
X140252690Y-114593714D01*
X140252690Y-114593714D02*
X140300309Y-114546095D01*
X140300309Y-114546095D02*
X140395547Y-114498476D01*
X140395547Y-114498476D02*
X140633642Y-114498476D01*
X140633642Y-114498476D02*
X140728880Y-114546095D01*
X140728880Y-114546095D02*
X140776500Y-114593714D01*
X140776500Y-114593714D02*
X140824119Y-114688952D01*
X140824119Y-114688952D02*
X140824119Y-114927047D01*
X140824119Y-114927047D02*
X140776500Y-115022285D01*
X140776500Y-115022285D02*
X140728880Y-115069904D01*
X139824119Y-113879428D02*
X139824119Y-113784190D01*
X139824119Y-113784190D02*
X139871738Y-113688952D01*
X139871738Y-113688952D02*
X139919357Y-113641333D01*
X139919357Y-113641333D02*
X140014595Y-113593714D01*
X140014595Y-113593714D02*
X140205071Y-113546095D01*
X140205071Y-113546095D02*
X140443166Y-113546095D01*
X140443166Y-113546095D02*
X140633642Y-113593714D01*
X140633642Y-113593714D02*
X140728880Y-113641333D01*
X140728880Y-113641333D02*
X140776500Y-113688952D01*
X140776500Y-113688952D02*
X140824119Y-113784190D01*
X140824119Y-113784190D02*
X140824119Y-113879428D01*
X140824119Y-113879428D02*
X140776500Y-113974666D01*
X140776500Y-113974666D02*
X140728880Y-114022285D01*
X140728880Y-114022285D02*
X140633642Y-114069904D01*
X140633642Y-114069904D02*
X140443166Y-114117523D01*
X140443166Y-114117523D02*
X140205071Y-114117523D01*
X140205071Y-114117523D02*
X140014595Y-114069904D01*
X140014595Y-114069904D02*
X139919357Y-114022285D01*
X139919357Y-114022285D02*
X139871738Y-113974666D01*
X139871738Y-113974666D02*
X139824119Y-113879428D01*
%TO.C,C42*%
X145153142Y-81647380D02*
X145105523Y-81695000D01*
X145105523Y-81695000D02*
X144962666Y-81742619D01*
X144962666Y-81742619D02*
X144867428Y-81742619D01*
X144867428Y-81742619D02*
X144724571Y-81695000D01*
X144724571Y-81695000D02*
X144629333Y-81599761D01*
X144629333Y-81599761D02*
X144581714Y-81504523D01*
X144581714Y-81504523D02*
X144534095Y-81314047D01*
X144534095Y-81314047D02*
X144534095Y-81171190D01*
X144534095Y-81171190D02*
X144581714Y-80980714D01*
X144581714Y-80980714D02*
X144629333Y-80885476D01*
X144629333Y-80885476D02*
X144724571Y-80790238D01*
X144724571Y-80790238D02*
X144867428Y-80742619D01*
X144867428Y-80742619D02*
X144962666Y-80742619D01*
X144962666Y-80742619D02*
X145105523Y-80790238D01*
X145105523Y-80790238D02*
X145153142Y-80837857D01*
X146010285Y-81075952D02*
X146010285Y-81742619D01*
X145772190Y-80695000D02*
X145534095Y-81409285D01*
X145534095Y-81409285D02*
X146153142Y-81409285D01*
X146486476Y-80837857D02*
X146534095Y-80790238D01*
X146534095Y-80790238D02*
X146629333Y-80742619D01*
X146629333Y-80742619D02*
X146867428Y-80742619D01*
X146867428Y-80742619D02*
X146962666Y-80790238D01*
X146962666Y-80790238D02*
X147010285Y-80837857D01*
X147010285Y-80837857D02*
X147057904Y-80933095D01*
X147057904Y-80933095D02*
X147057904Y-81028333D01*
X147057904Y-81028333D02*
X147010285Y-81171190D01*
X147010285Y-81171190D02*
X146438857Y-81742619D01*
X146438857Y-81742619D02*
X147057904Y-81742619D01*
%TO.C,J7*%
X160575666Y-123668619D02*
X160575666Y-124382904D01*
X160575666Y-124382904D02*
X160528047Y-124525761D01*
X160528047Y-124525761D02*
X160432809Y-124621000D01*
X160432809Y-124621000D02*
X160289952Y-124668619D01*
X160289952Y-124668619D02*
X160194714Y-124668619D01*
X160956619Y-123668619D02*
X161623285Y-123668619D01*
X161623285Y-123668619D02*
X161194714Y-124668619D01*
%TO.C,J6*%
X143811666Y-123668619D02*
X143811666Y-124382904D01*
X143811666Y-124382904D02*
X143764047Y-124525761D01*
X143764047Y-124525761D02*
X143668809Y-124621000D01*
X143668809Y-124621000D02*
X143525952Y-124668619D01*
X143525952Y-124668619D02*
X143430714Y-124668619D01*
X144716428Y-123668619D02*
X144525952Y-123668619D01*
X144525952Y-123668619D02*
X144430714Y-123716238D01*
X144430714Y-123716238D02*
X144383095Y-123763857D01*
X144383095Y-123763857D02*
X144287857Y-123906714D01*
X144287857Y-123906714D02*
X144240238Y-124097190D01*
X144240238Y-124097190D02*
X144240238Y-124478142D01*
X144240238Y-124478142D02*
X144287857Y-124573380D01*
X144287857Y-124573380D02*
X144335476Y-124621000D01*
X144335476Y-124621000D02*
X144430714Y-124668619D01*
X144430714Y-124668619D02*
X144621190Y-124668619D01*
X144621190Y-124668619D02*
X144716428Y-124621000D01*
X144716428Y-124621000D02*
X144764047Y-124573380D01*
X144764047Y-124573380D02*
X144811666Y-124478142D01*
X144811666Y-124478142D02*
X144811666Y-124240047D01*
X144811666Y-124240047D02*
X144764047Y-124144809D01*
X144764047Y-124144809D02*
X144716428Y-124097190D01*
X144716428Y-124097190D02*
X144621190Y-124049571D01*
X144621190Y-124049571D02*
X144430714Y-124049571D01*
X144430714Y-124049571D02*
X144335476Y-124097190D01*
X144335476Y-124097190D02*
X144287857Y-124144809D01*
X144287857Y-124144809D02*
X144240238Y-124240047D01*
%TO.C,R24*%
X155818095Y-120021285D02*
X155437142Y-120287952D01*
X155818095Y-120478428D02*
X155018095Y-120478428D01*
X155018095Y-120478428D02*
X155018095Y-120173666D01*
X155018095Y-120173666D02*
X155056190Y-120097476D01*
X155056190Y-120097476D02*
X155094285Y-120059381D01*
X155094285Y-120059381D02*
X155170476Y-120021285D01*
X155170476Y-120021285D02*
X155284761Y-120021285D01*
X155284761Y-120021285D02*
X155360952Y-120059381D01*
X155360952Y-120059381D02*
X155399047Y-120097476D01*
X155399047Y-120097476D02*
X155437142Y-120173666D01*
X155437142Y-120173666D02*
X155437142Y-120478428D01*
X155094285Y-119716524D02*
X155056190Y-119678428D01*
X155056190Y-119678428D02*
X155018095Y-119602238D01*
X155018095Y-119602238D02*
X155018095Y-119411762D01*
X155018095Y-119411762D02*
X155056190Y-119335571D01*
X155056190Y-119335571D02*
X155094285Y-119297476D01*
X155094285Y-119297476D02*
X155170476Y-119259381D01*
X155170476Y-119259381D02*
X155246666Y-119259381D01*
X155246666Y-119259381D02*
X155360952Y-119297476D01*
X155360952Y-119297476D02*
X155818095Y-119754619D01*
X155818095Y-119754619D02*
X155818095Y-119259381D01*
X155284761Y-118573666D02*
X155818095Y-118573666D01*
X154980000Y-118764142D02*
X155551428Y-118954619D01*
X155551428Y-118954619D02*
X155551428Y-118459380D01*
%TO.C,D14*%
X155529619Y-117038285D02*
X154529619Y-117038285D01*
X154529619Y-117038285D02*
X154529619Y-116800190D01*
X154529619Y-116800190D02*
X154577238Y-116657333D01*
X154577238Y-116657333D02*
X154672476Y-116562095D01*
X154672476Y-116562095D02*
X154767714Y-116514476D01*
X154767714Y-116514476D02*
X154958190Y-116466857D01*
X154958190Y-116466857D02*
X155101047Y-116466857D01*
X155101047Y-116466857D02*
X155291523Y-116514476D01*
X155291523Y-116514476D02*
X155386761Y-116562095D01*
X155386761Y-116562095D02*
X155482000Y-116657333D01*
X155482000Y-116657333D02*
X155529619Y-116800190D01*
X155529619Y-116800190D02*
X155529619Y-117038285D01*
X155529619Y-115514476D02*
X155529619Y-116085904D01*
X155529619Y-115800190D02*
X154529619Y-115800190D01*
X154529619Y-115800190D02*
X154672476Y-115895428D01*
X154672476Y-115895428D02*
X154767714Y-115990666D01*
X154767714Y-115990666D02*
X154815333Y-116085904D01*
X154862952Y-114657333D02*
X155529619Y-114657333D01*
X154482000Y-114895428D02*
X155196285Y-115133523D01*
X155196285Y-115133523D02*
X155196285Y-114514476D01*
%TO.C,R21*%
X164585714Y-92318095D02*
X164319047Y-91937142D01*
X164128571Y-92318095D02*
X164128571Y-91518095D01*
X164128571Y-91518095D02*
X164433333Y-91518095D01*
X164433333Y-91518095D02*
X164509523Y-91556190D01*
X164509523Y-91556190D02*
X164547618Y-91594285D01*
X164547618Y-91594285D02*
X164585714Y-91670476D01*
X164585714Y-91670476D02*
X164585714Y-91784761D01*
X164585714Y-91784761D02*
X164547618Y-91860952D01*
X164547618Y-91860952D02*
X164509523Y-91899047D01*
X164509523Y-91899047D02*
X164433333Y-91937142D01*
X164433333Y-91937142D02*
X164128571Y-91937142D01*
X164890475Y-91594285D02*
X164928571Y-91556190D01*
X164928571Y-91556190D02*
X165004761Y-91518095D01*
X165004761Y-91518095D02*
X165195237Y-91518095D01*
X165195237Y-91518095D02*
X165271428Y-91556190D01*
X165271428Y-91556190D02*
X165309523Y-91594285D01*
X165309523Y-91594285D02*
X165347618Y-91670476D01*
X165347618Y-91670476D02*
X165347618Y-91746666D01*
X165347618Y-91746666D02*
X165309523Y-91860952D01*
X165309523Y-91860952D02*
X164852380Y-92318095D01*
X164852380Y-92318095D02*
X165347618Y-92318095D01*
X166109523Y-92318095D02*
X165652380Y-92318095D01*
X165880952Y-92318095D02*
X165880952Y-91518095D01*
X165880952Y-91518095D02*
X165804761Y-91632380D01*
X165804761Y-91632380D02*
X165728571Y-91708571D01*
X165728571Y-91708571D02*
X165652380Y-91746666D01*
%TO.C,D15*%
X147756714Y-110838619D02*
X147756714Y-109838619D01*
X147756714Y-109838619D02*
X147994809Y-109838619D01*
X147994809Y-109838619D02*
X148137666Y-109886238D01*
X148137666Y-109886238D02*
X148232904Y-109981476D01*
X148232904Y-109981476D02*
X148280523Y-110076714D01*
X148280523Y-110076714D02*
X148328142Y-110267190D01*
X148328142Y-110267190D02*
X148328142Y-110410047D01*
X148328142Y-110410047D02*
X148280523Y-110600523D01*
X148280523Y-110600523D02*
X148232904Y-110695761D01*
X148232904Y-110695761D02*
X148137666Y-110791000D01*
X148137666Y-110791000D02*
X147994809Y-110838619D01*
X147994809Y-110838619D02*
X147756714Y-110838619D01*
X149280523Y-110838619D02*
X148709095Y-110838619D01*
X148994809Y-110838619D02*
X148994809Y-109838619D01*
X148994809Y-109838619D02*
X148899571Y-109981476D01*
X148899571Y-109981476D02*
X148804333Y-110076714D01*
X148804333Y-110076714D02*
X148709095Y-110124333D01*
X150185285Y-109838619D02*
X149709095Y-109838619D01*
X149709095Y-109838619D02*
X149661476Y-110314809D01*
X149661476Y-110314809D02*
X149709095Y-110267190D01*
X149709095Y-110267190D02*
X149804333Y-110219571D01*
X149804333Y-110219571D02*
X150042428Y-110219571D01*
X150042428Y-110219571D02*
X150137666Y-110267190D01*
X150137666Y-110267190D02*
X150185285Y-110314809D01*
X150185285Y-110314809D02*
X150232904Y-110410047D01*
X150232904Y-110410047D02*
X150232904Y-110648142D01*
X150232904Y-110648142D02*
X150185285Y-110743380D01*
X150185285Y-110743380D02*
X150137666Y-110791000D01*
X150137666Y-110791000D02*
X150042428Y-110838619D01*
X150042428Y-110838619D02*
X149804333Y-110838619D01*
X149804333Y-110838619D02*
X149709095Y-110791000D01*
X149709095Y-110791000D02*
X149661476Y-110743380D01*
%TO.C,U12*%
X124430619Y-95726094D02*
X125240142Y-95726094D01*
X125240142Y-95726094D02*
X125335380Y-95678475D01*
X125335380Y-95678475D02*
X125383000Y-95630856D01*
X125383000Y-95630856D02*
X125430619Y-95535618D01*
X125430619Y-95535618D02*
X125430619Y-95345142D01*
X125430619Y-95345142D02*
X125383000Y-95249904D01*
X125383000Y-95249904D02*
X125335380Y-95202285D01*
X125335380Y-95202285D02*
X125240142Y-95154666D01*
X125240142Y-95154666D02*
X124430619Y-95154666D01*
X125430619Y-94154666D02*
X125430619Y-94726094D01*
X125430619Y-94440380D02*
X124430619Y-94440380D01*
X124430619Y-94440380D02*
X124573476Y-94535618D01*
X124573476Y-94535618D02*
X124668714Y-94630856D01*
X124668714Y-94630856D02*
X124716333Y-94726094D01*
X124525857Y-93773713D02*
X124478238Y-93726094D01*
X124478238Y-93726094D02*
X124430619Y-93630856D01*
X124430619Y-93630856D02*
X124430619Y-93392761D01*
X124430619Y-93392761D02*
X124478238Y-93297523D01*
X124478238Y-93297523D02*
X124525857Y-93249904D01*
X124525857Y-93249904D02*
X124621095Y-93202285D01*
X124621095Y-93202285D02*
X124716333Y-93202285D01*
X124716333Y-93202285D02*
X124859190Y-93249904D01*
X124859190Y-93249904D02*
X125430619Y-93821332D01*
X125430619Y-93821332D02*
X125430619Y-93202285D01*
%TO.C,R13*%
X140070095Y-86874285D02*
X139689142Y-87140952D01*
X140070095Y-87331428D02*
X139270095Y-87331428D01*
X139270095Y-87331428D02*
X139270095Y-87026666D01*
X139270095Y-87026666D02*
X139308190Y-86950476D01*
X139308190Y-86950476D02*
X139346285Y-86912381D01*
X139346285Y-86912381D02*
X139422476Y-86874285D01*
X139422476Y-86874285D02*
X139536761Y-86874285D01*
X139536761Y-86874285D02*
X139612952Y-86912381D01*
X139612952Y-86912381D02*
X139651047Y-86950476D01*
X139651047Y-86950476D02*
X139689142Y-87026666D01*
X139689142Y-87026666D02*
X139689142Y-87331428D01*
X140070095Y-86112381D02*
X140070095Y-86569524D01*
X140070095Y-86340952D02*
X139270095Y-86340952D01*
X139270095Y-86340952D02*
X139384380Y-86417143D01*
X139384380Y-86417143D02*
X139460571Y-86493333D01*
X139460571Y-86493333D02*
X139498666Y-86569524D01*
X139270095Y-85845714D02*
X139270095Y-85350476D01*
X139270095Y-85350476D02*
X139574857Y-85617142D01*
X139574857Y-85617142D02*
X139574857Y-85502857D01*
X139574857Y-85502857D02*
X139612952Y-85426666D01*
X139612952Y-85426666D02*
X139651047Y-85388571D01*
X139651047Y-85388571D02*
X139727238Y-85350476D01*
X139727238Y-85350476D02*
X139917714Y-85350476D01*
X139917714Y-85350476D02*
X139993904Y-85388571D01*
X139993904Y-85388571D02*
X140032000Y-85426666D01*
X140032000Y-85426666D02*
X140070095Y-85502857D01*
X140070095Y-85502857D02*
X140070095Y-85731428D01*
X140070095Y-85731428D02*
X140032000Y-85807619D01*
X140032000Y-85807619D02*
X139993904Y-85845714D01*
%TO.C,C17*%
X167679904Y-88652285D02*
X167718000Y-88690381D01*
X167718000Y-88690381D02*
X167756095Y-88804666D01*
X167756095Y-88804666D02*
X167756095Y-88880857D01*
X167756095Y-88880857D02*
X167718000Y-88995143D01*
X167718000Y-88995143D02*
X167641809Y-89071333D01*
X167641809Y-89071333D02*
X167565619Y-89109428D01*
X167565619Y-89109428D02*
X167413238Y-89147524D01*
X167413238Y-89147524D02*
X167298952Y-89147524D01*
X167298952Y-89147524D02*
X167146571Y-89109428D01*
X167146571Y-89109428D02*
X167070380Y-89071333D01*
X167070380Y-89071333D02*
X166994190Y-88995143D01*
X166994190Y-88995143D02*
X166956095Y-88880857D01*
X166956095Y-88880857D02*
X166956095Y-88804666D01*
X166956095Y-88804666D02*
X166994190Y-88690381D01*
X166994190Y-88690381D02*
X167032285Y-88652285D01*
X167756095Y-87890381D02*
X167756095Y-88347524D01*
X167756095Y-88118952D02*
X166956095Y-88118952D01*
X166956095Y-88118952D02*
X167070380Y-88195143D01*
X167070380Y-88195143D02*
X167146571Y-88271333D01*
X167146571Y-88271333D02*
X167184666Y-88347524D01*
X166956095Y-87623714D02*
X166956095Y-87090380D01*
X166956095Y-87090380D02*
X167756095Y-87433238D01*
%TO.C,C11*%
X139565142Y-83933380D02*
X139517523Y-83981000D01*
X139517523Y-83981000D02*
X139374666Y-84028619D01*
X139374666Y-84028619D02*
X139279428Y-84028619D01*
X139279428Y-84028619D02*
X139136571Y-83981000D01*
X139136571Y-83981000D02*
X139041333Y-83885761D01*
X139041333Y-83885761D02*
X138993714Y-83790523D01*
X138993714Y-83790523D02*
X138946095Y-83600047D01*
X138946095Y-83600047D02*
X138946095Y-83457190D01*
X138946095Y-83457190D02*
X138993714Y-83266714D01*
X138993714Y-83266714D02*
X139041333Y-83171476D01*
X139041333Y-83171476D02*
X139136571Y-83076238D01*
X139136571Y-83076238D02*
X139279428Y-83028619D01*
X139279428Y-83028619D02*
X139374666Y-83028619D01*
X139374666Y-83028619D02*
X139517523Y-83076238D01*
X139517523Y-83076238D02*
X139565142Y-83123857D01*
X140517523Y-84028619D02*
X139946095Y-84028619D01*
X140231809Y-84028619D02*
X140231809Y-83028619D01*
X140231809Y-83028619D02*
X140136571Y-83171476D01*
X140136571Y-83171476D02*
X140041333Y-83266714D01*
X140041333Y-83266714D02*
X139946095Y-83314333D01*
X141469904Y-84028619D02*
X140898476Y-84028619D01*
X141184190Y-84028619D02*
X141184190Y-83028619D01*
X141184190Y-83028619D02*
X141088952Y-83171476D01*
X141088952Y-83171476D02*
X140993714Y-83266714D01*
X140993714Y-83266714D02*
X140898476Y-83314333D01*
%TO.C,R15*%
X135082619Y-93352857D02*
X134606428Y-93686190D01*
X135082619Y-93924285D02*
X134082619Y-93924285D01*
X134082619Y-93924285D02*
X134082619Y-93543333D01*
X134082619Y-93543333D02*
X134130238Y-93448095D01*
X134130238Y-93448095D02*
X134177857Y-93400476D01*
X134177857Y-93400476D02*
X134273095Y-93352857D01*
X134273095Y-93352857D02*
X134415952Y-93352857D01*
X134415952Y-93352857D02*
X134511190Y-93400476D01*
X134511190Y-93400476D02*
X134558809Y-93448095D01*
X134558809Y-93448095D02*
X134606428Y-93543333D01*
X134606428Y-93543333D02*
X134606428Y-93924285D01*
X135082619Y-92400476D02*
X135082619Y-92971904D01*
X135082619Y-92686190D02*
X134082619Y-92686190D01*
X134082619Y-92686190D02*
X134225476Y-92781428D01*
X134225476Y-92781428D02*
X134320714Y-92876666D01*
X134320714Y-92876666D02*
X134368333Y-92971904D01*
X134082619Y-91495714D02*
X134082619Y-91971904D01*
X134082619Y-91971904D02*
X134558809Y-92019523D01*
X134558809Y-92019523D02*
X134511190Y-91971904D01*
X134511190Y-91971904D02*
X134463571Y-91876666D01*
X134463571Y-91876666D02*
X134463571Y-91638571D01*
X134463571Y-91638571D02*
X134511190Y-91543333D01*
X134511190Y-91543333D02*
X134558809Y-91495714D01*
X134558809Y-91495714D02*
X134654047Y-91448095D01*
X134654047Y-91448095D02*
X134892142Y-91448095D01*
X134892142Y-91448095D02*
X134987380Y-91495714D01*
X134987380Y-91495714D02*
X135035000Y-91543333D01*
X135035000Y-91543333D02*
X135082619Y-91638571D01*
X135082619Y-91638571D02*
X135082619Y-91876666D01*
X135082619Y-91876666D02*
X135035000Y-91971904D01*
X135035000Y-91971904D02*
X134987380Y-92019523D01*
%TO.C,C45*%
X148094880Y-120276857D02*
X148142500Y-120324476D01*
X148142500Y-120324476D02*
X148190119Y-120467333D01*
X148190119Y-120467333D02*
X148190119Y-120562571D01*
X148190119Y-120562571D02*
X148142500Y-120705428D01*
X148142500Y-120705428D02*
X148047261Y-120800666D01*
X148047261Y-120800666D02*
X147952023Y-120848285D01*
X147952023Y-120848285D02*
X147761547Y-120895904D01*
X147761547Y-120895904D02*
X147618690Y-120895904D01*
X147618690Y-120895904D02*
X147428214Y-120848285D01*
X147428214Y-120848285D02*
X147332976Y-120800666D01*
X147332976Y-120800666D02*
X147237738Y-120705428D01*
X147237738Y-120705428D02*
X147190119Y-120562571D01*
X147190119Y-120562571D02*
X147190119Y-120467333D01*
X147190119Y-120467333D02*
X147237738Y-120324476D01*
X147237738Y-120324476D02*
X147285357Y-120276857D01*
X147523452Y-119419714D02*
X148190119Y-119419714D01*
X147142500Y-119657809D02*
X147856785Y-119895904D01*
X147856785Y-119895904D02*
X147856785Y-119276857D01*
X147190119Y-118419714D02*
X147190119Y-118895904D01*
X147190119Y-118895904D02*
X147666309Y-118943523D01*
X147666309Y-118943523D02*
X147618690Y-118895904D01*
X147618690Y-118895904D02*
X147571071Y-118800666D01*
X147571071Y-118800666D02*
X147571071Y-118562571D01*
X147571071Y-118562571D02*
X147618690Y-118467333D01*
X147618690Y-118467333D02*
X147666309Y-118419714D01*
X147666309Y-118419714D02*
X147761547Y-118372095D01*
X147761547Y-118372095D02*
X147999642Y-118372095D01*
X147999642Y-118372095D02*
X148094880Y-118419714D01*
X148094880Y-118419714D02*
X148142500Y-118467333D01*
X148142500Y-118467333D02*
X148190119Y-118562571D01*
X148190119Y-118562571D02*
X148190119Y-118800666D01*
X148190119Y-118800666D02*
X148142500Y-118895904D01*
X148142500Y-118895904D02*
X148094880Y-118943523D01*
%TO.C,U7*%
X161036095Y-87854619D02*
X161036095Y-88664142D01*
X161036095Y-88664142D02*
X161083714Y-88759380D01*
X161083714Y-88759380D02*
X161131333Y-88807000D01*
X161131333Y-88807000D02*
X161226571Y-88854619D01*
X161226571Y-88854619D02*
X161417047Y-88854619D01*
X161417047Y-88854619D02*
X161512285Y-88807000D01*
X161512285Y-88807000D02*
X161559904Y-88759380D01*
X161559904Y-88759380D02*
X161607523Y-88664142D01*
X161607523Y-88664142D02*
X161607523Y-87854619D01*
X161988476Y-87854619D02*
X162655142Y-87854619D01*
X162655142Y-87854619D02*
X162226571Y-88854619D01*
%TO.C,C24*%
X160313904Y-82810285D02*
X160352000Y-82848381D01*
X160352000Y-82848381D02*
X160390095Y-82962666D01*
X160390095Y-82962666D02*
X160390095Y-83038857D01*
X160390095Y-83038857D02*
X160352000Y-83153143D01*
X160352000Y-83153143D02*
X160275809Y-83229333D01*
X160275809Y-83229333D02*
X160199619Y-83267428D01*
X160199619Y-83267428D02*
X160047238Y-83305524D01*
X160047238Y-83305524D02*
X159932952Y-83305524D01*
X159932952Y-83305524D02*
X159780571Y-83267428D01*
X159780571Y-83267428D02*
X159704380Y-83229333D01*
X159704380Y-83229333D02*
X159628190Y-83153143D01*
X159628190Y-83153143D02*
X159590095Y-83038857D01*
X159590095Y-83038857D02*
X159590095Y-82962666D01*
X159590095Y-82962666D02*
X159628190Y-82848381D01*
X159628190Y-82848381D02*
X159666285Y-82810285D01*
X159666285Y-82505524D02*
X159628190Y-82467428D01*
X159628190Y-82467428D02*
X159590095Y-82391238D01*
X159590095Y-82391238D02*
X159590095Y-82200762D01*
X159590095Y-82200762D02*
X159628190Y-82124571D01*
X159628190Y-82124571D02*
X159666285Y-82086476D01*
X159666285Y-82086476D02*
X159742476Y-82048381D01*
X159742476Y-82048381D02*
X159818666Y-82048381D01*
X159818666Y-82048381D02*
X159932952Y-82086476D01*
X159932952Y-82086476D02*
X160390095Y-82543619D01*
X160390095Y-82543619D02*
X160390095Y-82048381D01*
X159856761Y-81362666D02*
X160390095Y-81362666D01*
X159552000Y-81553142D02*
X160123428Y-81743619D01*
X160123428Y-81743619D02*
X160123428Y-81248380D01*
%TO.C,C44*%
X178421380Y-113418857D02*
X178469000Y-113466476D01*
X178469000Y-113466476D02*
X178516619Y-113609333D01*
X178516619Y-113609333D02*
X178516619Y-113704571D01*
X178516619Y-113704571D02*
X178469000Y-113847428D01*
X178469000Y-113847428D02*
X178373761Y-113942666D01*
X178373761Y-113942666D02*
X178278523Y-113990285D01*
X178278523Y-113990285D02*
X178088047Y-114037904D01*
X178088047Y-114037904D02*
X177945190Y-114037904D01*
X177945190Y-114037904D02*
X177754714Y-113990285D01*
X177754714Y-113990285D02*
X177659476Y-113942666D01*
X177659476Y-113942666D02*
X177564238Y-113847428D01*
X177564238Y-113847428D02*
X177516619Y-113704571D01*
X177516619Y-113704571D02*
X177516619Y-113609333D01*
X177516619Y-113609333D02*
X177564238Y-113466476D01*
X177564238Y-113466476D02*
X177611857Y-113418857D01*
X177849952Y-112561714D02*
X178516619Y-112561714D01*
X177469000Y-112799809D02*
X178183285Y-113037904D01*
X178183285Y-113037904D02*
X178183285Y-112418857D01*
X177849952Y-111609333D02*
X178516619Y-111609333D01*
X177469000Y-111847428D02*
X178183285Y-112085523D01*
X178183285Y-112085523D02*
X178183285Y-111466476D01*
%TO.C,C40*%
X145915142Y-70217380D02*
X145867523Y-70265000D01*
X145867523Y-70265000D02*
X145724666Y-70312619D01*
X145724666Y-70312619D02*
X145629428Y-70312619D01*
X145629428Y-70312619D02*
X145486571Y-70265000D01*
X145486571Y-70265000D02*
X145391333Y-70169761D01*
X145391333Y-70169761D02*
X145343714Y-70074523D01*
X145343714Y-70074523D02*
X145296095Y-69884047D01*
X145296095Y-69884047D02*
X145296095Y-69741190D01*
X145296095Y-69741190D02*
X145343714Y-69550714D01*
X145343714Y-69550714D02*
X145391333Y-69455476D01*
X145391333Y-69455476D02*
X145486571Y-69360238D01*
X145486571Y-69360238D02*
X145629428Y-69312619D01*
X145629428Y-69312619D02*
X145724666Y-69312619D01*
X145724666Y-69312619D02*
X145867523Y-69360238D01*
X145867523Y-69360238D02*
X145915142Y-69407857D01*
X146772285Y-69645952D02*
X146772285Y-70312619D01*
X146534190Y-69265000D02*
X146296095Y-69979285D01*
X146296095Y-69979285D02*
X146915142Y-69979285D01*
X147486571Y-69312619D02*
X147581809Y-69312619D01*
X147581809Y-69312619D02*
X147677047Y-69360238D01*
X147677047Y-69360238D02*
X147724666Y-69407857D01*
X147724666Y-69407857D02*
X147772285Y-69503095D01*
X147772285Y-69503095D02*
X147819904Y-69693571D01*
X147819904Y-69693571D02*
X147819904Y-69931666D01*
X147819904Y-69931666D02*
X147772285Y-70122142D01*
X147772285Y-70122142D02*
X147724666Y-70217380D01*
X147724666Y-70217380D02*
X147677047Y-70265000D01*
X147677047Y-70265000D02*
X147581809Y-70312619D01*
X147581809Y-70312619D02*
X147486571Y-70312619D01*
X147486571Y-70312619D02*
X147391333Y-70265000D01*
X147391333Y-70265000D02*
X147343714Y-70217380D01*
X147343714Y-70217380D02*
X147296095Y-70122142D01*
X147296095Y-70122142D02*
X147248476Y-69931666D01*
X147248476Y-69931666D02*
X147248476Y-69693571D01*
X147248476Y-69693571D02*
X147296095Y-69503095D01*
X147296095Y-69503095D02*
X147343714Y-69407857D01*
X147343714Y-69407857D02*
X147391333Y-69360238D01*
X147391333Y-69360238D02*
X147486571Y-69312619D01*
%TO.C,R20*%
X147059714Y-83174095D02*
X146793047Y-82793142D01*
X146602571Y-83174095D02*
X146602571Y-82374095D01*
X146602571Y-82374095D02*
X146907333Y-82374095D01*
X146907333Y-82374095D02*
X146983523Y-82412190D01*
X146983523Y-82412190D02*
X147021618Y-82450285D01*
X147021618Y-82450285D02*
X147059714Y-82526476D01*
X147059714Y-82526476D02*
X147059714Y-82640761D01*
X147059714Y-82640761D02*
X147021618Y-82716952D01*
X147021618Y-82716952D02*
X146983523Y-82755047D01*
X146983523Y-82755047D02*
X146907333Y-82793142D01*
X146907333Y-82793142D02*
X146602571Y-82793142D01*
X147364475Y-82450285D02*
X147402571Y-82412190D01*
X147402571Y-82412190D02*
X147478761Y-82374095D01*
X147478761Y-82374095D02*
X147669237Y-82374095D01*
X147669237Y-82374095D02*
X147745428Y-82412190D01*
X147745428Y-82412190D02*
X147783523Y-82450285D01*
X147783523Y-82450285D02*
X147821618Y-82526476D01*
X147821618Y-82526476D02*
X147821618Y-82602666D01*
X147821618Y-82602666D02*
X147783523Y-82716952D01*
X147783523Y-82716952D02*
X147326380Y-83174095D01*
X147326380Y-83174095D02*
X147821618Y-83174095D01*
X148316857Y-82374095D02*
X148393047Y-82374095D01*
X148393047Y-82374095D02*
X148469238Y-82412190D01*
X148469238Y-82412190D02*
X148507333Y-82450285D01*
X148507333Y-82450285D02*
X148545428Y-82526476D01*
X148545428Y-82526476D02*
X148583523Y-82678857D01*
X148583523Y-82678857D02*
X148583523Y-82869333D01*
X148583523Y-82869333D02*
X148545428Y-83021714D01*
X148545428Y-83021714D02*
X148507333Y-83097904D01*
X148507333Y-83097904D02*
X148469238Y-83136000D01*
X148469238Y-83136000D02*
X148393047Y-83174095D01*
X148393047Y-83174095D02*
X148316857Y-83174095D01*
X148316857Y-83174095D02*
X148240666Y-83136000D01*
X148240666Y-83136000D02*
X148202571Y-83097904D01*
X148202571Y-83097904D02*
X148164476Y-83021714D01*
X148164476Y-83021714D02*
X148126380Y-82869333D01*
X148126380Y-82869333D02*
X148126380Y-82678857D01*
X148126380Y-82678857D02*
X148164476Y-82526476D01*
X148164476Y-82526476D02*
X148202571Y-82450285D01*
X148202571Y-82450285D02*
X148240666Y-82412190D01*
X148240666Y-82412190D02*
X148316857Y-82374095D01*
%TO.C,C26*%
X143757714Y-102655904D02*
X143719618Y-102694000D01*
X143719618Y-102694000D02*
X143605333Y-102732095D01*
X143605333Y-102732095D02*
X143529142Y-102732095D01*
X143529142Y-102732095D02*
X143414856Y-102694000D01*
X143414856Y-102694000D02*
X143338666Y-102617809D01*
X143338666Y-102617809D02*
X143300571Y-102541619D01*
X143300571Y-102541619D02*
X143262475Y-102389238D01*
X143262475Y-102389238D02*
X143262475Y-102274952D01*
X143262475Y-102274952D02*
X143300571Y-102122571D01*
X143300571Y-102122571D02*
X143338666Y-102046380D01*
X143338666Y-102046380D02*
X143414856Y-101970190D01*
X143414856Y-101970190D02*
X143529142Y-101932095D01*
X143529142Y-101932095D02*
X143605333Y-101932095D01*
X143605333Y-101932095D02*
X143719618Y-101970190D01*
X143719618Y-101970190D02*
X143757714Y-102008285D01*
X144062475Y-102008285D02*
X144100571Y-101970190D01*
X144100571Y-101970190D02*
X144176761Y-101932095D01*
X144176761Y-101932095D02*
X144367237Y-101932095D01*
X144367237Y-101932095D02*
X144443428Y-101970190D01*
X144443428Y-101970190D02*
X144481523Y-102008285D01*
X144481523Y-102008285D02*
X144519618Y-102084476D01*
X144519618Y-102084476D02*
X144519618Y-102160666D01*
X144519618Y-102160666D02*
X144481523Y-102274952D01*
X144481523Y-102274952D02*
X144024380Y-102732095D01*
X144024380Y-102732095D02*
X144519618Y-102732095D01*
X145205333Y-101932095D02*
X145052952Y-101932095D01*
X145052952Y-101932095D02*
X144976761Y-101970190D01*
X144976761Y-101970190D02*
X144938666Y-102008285D01*
X144938666Y-102008285D02*
X144862476Y-102122571D01*
X144862476Y-102122571D02*
X144824380Y-102274952D01*
X144824380Y-102274952D02*
X144824380Y-102579714D01*
X144824380Y-102579714D02*
X144862476Y-102655904D01*
X144862476Y-102655904D02*
X144900571Y-102694000D01*
X144900571Y-102694000D02*
X144976761Y-102732095D01*
X144976761Y-102732095D02*
X145129142Y-102732095D01*
X145129142Y-102732095D02*
X145205333Y-102694000D01*
X145205333Y-102694000D02*
X145243428Y-102655904D01*
X145243428Y-102655904D02*
X145281523Y-102579714D01*
X145281523Y-102579714D02*
X145281523Y-102389238D01*
X145281523Y-102389238D02*
X145243428Y-102313047D01*
X145243428Y-102313047D02*
X145205333Y-102274952D01*
X145205333Y-102274952D02*
X145129142Y-102236857D01*
X145129142Y-102236857D02*
X144976761Y-102236857D01*
X144976761Y-102236857D02*
X144900571Y-102274952D01*
X144900571Y-102274952D02*
X144862476Y-102313047D01*
X144862476Y-102313047D02*
X144824380Y-102389238D01*
%TO.C,C38*%
X133463380Y-100130857D02*
X133511000Y-100178476D01*
X133511000Y-100178476D02*
X133558619Y-100321333D01*
X133558619Y-100321333D02*
X133558619Y-100416571D01*
X133558619Y-100416571D02*
X133511000Y-100559428D01*
X133511000Y-100559428D02*
X133415761Y-100654666D01*
X133415761Y-100654666D02*
X133320523Y-100702285D01*
X133320523Y-100702285D02*
X133130047Y-100749904D01*
X133130047Y-100749904D02*
X132987190Y-100749904D01*
X132987190Y-100749904D02*
X132796714Y-100702285D01*
X132796714Y-100702285D02*
X132701476Y-100654666D01*
X132701476Y-100654666D02*
X132606238Y-100559428D01*
X132606238Y-100559428D02*
X132558619Y-100416571D01*
X132558619Y-100416571D02*
X132558619Y-100321333D01*
X132558619Y-100321333D02*
X132606238Y-100178476D01*
X132606238Y-100178476D02*
X132653857Y-100130857D01*
X132558619Y-99797523D02*
X132558619Y-99178476D01*
X132558619Y-99178476D02*
X132939571Y-99511809D01*
X132939571Y-99511809D02*
X132939571Y-99368952D01*
X132939571Y-99368952D02*
X132987190Y-99273714D01*
X132987190Y-99273714D02*
X133034809Y-99226095D01*
X133034809Y-99226095D02*
X133130047Y-99178476D01*
X133130047Y-99178476D02*
X133368142Y-99178476D01*
X133368142Y-99178476D02*
X133463380Y-99226095D01*
X133463380Y-99226095D02*
X133511000Y-99273714D01*
X133511000Y-99273714D02*
X133558619Y-99368952D01*
X133558619Y-99368952D02*
X133558619Y-99654666D01*
X133558619Y-99654666D02*
X133511000Y-99749904D01*
X133511000Y-99749904D02*
X133463380Y-99797523D01*
X132987190Y-98607047D02*
X132939571Y-98702285D01*
X132939571Y-98702285D02*
X132891952Y-98749904D01*
X132891952Y-98749904D02*
X132796714Y-98797523D01*
X132796714Y-98797523D02*
X132749095Y-98797523D01*
X132749095Y-98797523D02*
X132653857Y-98749904D01*
X132653857Y-98749904D02*
X132606238Y-98702285D01*
X132606238Y-98702285D02*
X132558619Y-98607047D01*
X132558619Y-98607047D02*
X132558619Y-98416571D01*
X132558619Y-98416571D02*
X132606238Y-98321333D01*
X132606238Y-98321333D02*
X132653857Y-98273714D01*
X132653857Y-98273714D02*
X132749095Y-98226095D01*
X132749095Y-98226095D02*
X132796714Y-98226095D01*
X132796714Y-98226095D02*
X132891952Y-98273714D01*
X132891952Y-98273714D02*
X132939571Y-98321333D01*
X132939571Y-98321333D02*
X132987190Y-98416571D01*
X132987190Y-98416571D02*
X132987190Y-98607047D01*
X132987190Y-98607047D02*
X133034809Y-98702285D01*
X133034809Y-98702285D02*
X133082428Y-98749904D01*
X133082428Y-98749904D02*
X133177666Y-98797523D01*
X133177666Y-98797523D02*
X133368142Y-98797523D01*
X133368142Y-98797523D02*
X133463380Y-98749904D01*
X133463380Y-98749904D02*
X133511000Y-98702285D01*
X133511000Y-98702285D02*
X133558619Y-98607047D01*
X133558619Y-98607047D02*
X133558619Y-98416571D01*
X133558619Y-98416571D02*
X133511000Y-98321333D01*
X133511000Y-98321333D02*
X133463380Y-98273714D01*
X133463380Y-98273714D02*
X133368142Y-98226095D01*
X133368142Y-98226095D02*
X133177666Y-98226095D01*
X133177666Y-98226095D02*
X133082428Y-98273714D01*
X133082428Y-98273714D02*
X133034809Y-98321333D01*
X133034809Y-98321333D02*
X132987190Y-98416571D01*
%TO.C,U9*%
X168724619Y-73405904D02*
X169534142Y-73405904D01*
X169534142Y-73405904D02*
X169629380Y-73358285D01*
X169629380Y-73358285D02*
X169677000Y-73310666D01*
X169677000Y-73310666D02*
X169724619Y-73215428D01*
X169724619Y-73215428D02*
X169724619Y-73024952D01*
X169724619Y-73024952D02*
X169677000Y-72929714D01*
X169677000Y-72929714D02*
X169629380Y-72882095D01*
X169629380Y-72882095D02*
X169534142Y-72834476D01*
X169534142Y-72834476D02*
X168724619Y-72834476D01*
X169724619Y-72310666D02*
X169724619Y-72120190D01*
X169724619Y-72120190D02*
X169677000Y-72024952D01*
X169677000Y-72024952D02*
X169629380Y-71977333D01*
X169629380Y-71977333D02*
X169486523Y-71882095D01*
X169486523Y-71882095D02*
X169296047Y-71834476D01*
X169296047Y-71834476D02*
X168915095Y-71834476D01*
X168915095Y-71834476D02*
X168819857Y-71882095D01*
X168819857Y-71882095D02*
X168772238Y-71929714D01*
X168772238Y-71929714D02*
X168724619Y-72024952D01*
X168724619Y-72024952D02*
X168724619Y-72215428D01*
X168724619Y-72215428D02*
X168772238Y-72310666D01*
X168772238Y-72310666D02*
X168819857Y-72358285D01*
X168819857Y-72358285D02*
X168915095Y-72405904D01*
X168915095Y-72405904D02*
X169153190Y-72405904D01*
X169153190Y-72405904D02*
X169248428Y-72358285D01*
X169248428Y-72358285D02*
X169296047Y-72310666D01*
X169296047Y-72310666D02*
X169343666Y-72215428D01*
X169343666Y-72215428D02*
X169343666Y-72024952D01*
X169343666Y-72024952D02*
X169296047Y-71929714D01*
X169296047Y-71929714D02*
X169248428Y-71882095D01*
X169248428Y-71882095D02*
X169153190Y-71834476D01*
%TO.C,C10*%
X133971380Y-89796857D02*
X134019000Y-89844476D01*
X134019000Y-89844476D02*
X134066619Y-89987333D01*
X134066619Y-89987333D02*
X134066619Y-90082571D01*
X134066619Y-90082571D02*
X134019000Y-90225428D01*
X134019000Y-90225428D02*
X133923761Y-90320666D01*
X133923761Y-90320666D02*
X133828523Y-90368285D01*
X133828523Y-90368285D02*
X133638047Y-90415904D01*
X133638047Y-90415904D02*
X133495190Y-90415904D01*
X133495190Y-90415904D02*
X133304714Y-90368285D01*
X133304714Y-90368285D02*
X133209476Y-90320666D01*
X133209476Y-90320666D02*
X133114238Y-90225428D01*
X133114238Y-90225428D02*
X133066619Y-90082571D01*
X133066619Y-90082571D02*
X133066619Y-89987333D01*
X133066619Y-89987333D02*
X133114238Y-89844476D01*
X133114238Y-89844476D02*
X133161857Y-89796857D01*
X134066619Y-88844476D02*
X134066619Y-89415904D01*
X134066619Y-89130190D02*
X133066619Y-89130190D01*
X133066619Y-89130190D02*
X133209476Y-89225428D01*
X133209476Y-89225428D02*
X133304714Y-89320666D01*
X133304714Y-89320666D02*
X133352333Y-89415904D01*
X133066619Y-88225428D02*
X133066619Y-88130190D01*
X133066619Y-88130190D02*
X133114238Y-88034952D01*
X133114238Y-88034952D02*
X133161857Y-87987333D01*
X133161857Y-87987333D02*
X133257095Y-87939714D01*
X133257095Y-87939714D02*
X133447571Y-87892095D01*
X133447571Y-87892095D02*
X133685666Y-87892095D01*
X133685666Y-87892095D02*
X133876142Y-87939714D01*
X133876142Y-87939714D02*
X133971380Y-87987333D01*
X133971380Y-87987333D02*
X134019000Y-88034952D01*
X134019000Y-88034952D02*
X134066619Y-88130190D01*
X134066619Y-88130190D02*
X134066619Y-88225428D01*
X134066619Y-88225428D02*
X134019000Y-88320666D01*
X134019000Y-88320666D02*
X133971380Y-88368285D01*
X133971380Y-88368285D02*
X133876142Y-88415904D01*
X133876142Y-88415904D02*
X133685666Y-88463523D01*
X133685666Y-88463523D02*
X133447571Y-88463523D01*
X133447571Y-88463523D02*
X133257095Y-88415904D01*
X133257095Y-88415904D02*
X133161857Y-88368285D01*
X133161857Y-88368285D02*
X133114238Y-88320666D01*
X133114238Y-88320666D02*
X133066619Y-88225428D01*
%TO.C,C43*%
X147947142Y-81647380D02*
X147899523Y-81695000D01*
X147899523Y-81695000D02*
X147756666Y-81742619D01*
X147756666Y-81742619D02*
X147661428Y-81742619D01*
X147661428Y-81742619D02*
X147518571Y-81695000D01*
X147518571Y-81695000D02*
X147423333Y-81599761D01*
X147423333Y-81599761D02*
X147375714Y-81504523D01*
X147375714Y-81504523D02*
X147328095Y-81314047D01*
X147328095Y-81314047D02*
X147328095Y-81171190D01*
X147328095Y-81171190D02*
X147375714Y-80980714D01*
X147375714Y-80980714D02*
X147423333Y-80885476D01*
X147423333Y-80885476D02*
X147518571Y-80790238D01*
X147518571Y-80790238D02*
X147661428Y-80742619D01*
X147661428Y-80742619D02*
X147756666Y-80742619D01*
X147756666Y-80742619D02*
X147899523Y-80790238D01*
X147899523Y-80790238D02*
X147947142Y-80837857D01*
X148804285Y-81075952D02*
X148804285Y-81742619D01*
X148566190Y-80695000D02*
X148328095Y-81409285D01*
X148328095Y-81409285D02*
X148947142Y-81409285D01*
X149232857Y-80742619D02*
X149851904Y-80742619D01*
X149851904Y-80742619D02*
X149518571Y-81123571D01*
X149518571Y-81123571D02*
X149661428Y-81123571D01*
X149661428Y-81123571D02*
X149756666Y-81171190D01*
X149756666Y-81171190D02*
X149804285Y-81218809D01*
X149804285Y-81218809D02*
X149851904Y-81314047D01*
X149851904Y-81314047D02*
X149851904Y-81552142D01*
X149851904Y-81552142D02*
X149804285Y-81647380D01*
X149804285Y-81647380D02*
X149756666Y-81695000D01*
X149756666Y-81695000D02*
X149661428Y-81742619D01*
X149661428Y-81742619D02*
X149375714Y-81742619D01*
X149375714Y-81742619D02*
X149280476Y-81695000D01*
X149280476Y-81695000D02*
X149232857Y-81647380D01*
%TO.C,R37*%
X154675095Y-120021285D02*
X154294142Y-120287952D01*
X154675095Y-120478428D02*
X153875095Y-120478428D01*
X153875095Y-120478428D02*
X153875095Y-120173666D01*
X153875095Y-120173666D02*
X153913190Y-120097476D01*
X153913190Y-120097476D02*
X153951285Y-120059381D01*
X153951285Y-120059381D02*
X154027476Y-120021285D01*
X154027476Y-120021285D02*
X154141761Y-120021285D01*
X154141761Y-120021285D02*
X154217952Y-120059381D01*
X154217952Y-120059381D02*
X154256047Y-120097476D01*
X154256047Y-120097476D02*
X154294142Y-120173666D01*
X154294142Y-120173666D02*
X154294142Y-120478428D01*
X153875095Y-119754619D02*
X153875095Y-119259381D01*
X153875095Y-119259381D02*
X154179857Y-119526047D01*
X154179857Y-119526047D02*
X154179857Y-119411762D01*
X154179857Y-119411762D02*
X154217952Y-119335571D01*
X154217952Y-119335571D02*
X154256047Y-119297476D01*
X154256047Y-119297476D02*
X154332238Y-119259381D01*
X154332238Y-119259381D02*
X154522714Y-119259381D01*
X154522714Y-119259381D02*
X154598904Y-119297476D01*
X154598904Y-119297476D02*
X154637000Y-119335571D01*
X154637000Y-119335571D02*
X154675095Y-119411762D01*
X154675095Y-119411762D02*
X154675095Y-119640333D01*
X154675095Y-119640333D02*
X154637000Y-119716524D01*
X154637000Y-119716524D02*
X154598904Y-119754619D01*
X153875095Y-118992714D02*
X153875095Y-118459380D01*
X153875095Y-118459380D02*
X154675095Y-118802238D01*
%TO.C,R28*%
X165601714Y-102224095D02*
X165335047Y-101843142D01*
X165144571Y-102224095D02*
X165144571Y-101424095D01*
X165144571Y-101424095D02*
X165449333Y-101424095D01*
X165449333Y-101424095D02*
X165525523Y-101462190D01*
X165525523Y-101462190D02*
X165563618Y-101500285D01*
X165563618Y-101500285D02*
X165601714Y-101576476D01*
X165601714Y-101576476D02*
X165601714Y-101690761D01*
X165601714Y-101690761D02*
X165563618Y-101766952D01*
X165563618Y-101766952D02*
X165525523Y-101805047D01*
X165525523Y-101805047D02*
X165449333Y-101843142D01*
X165449333Y-101843142D02*
X165144571Y-101843142D01*
X165906475Y-101500285D02*
X165944571Y-101462190D01*
X165944571Y-101462190D02*
X166020761Y-101424095D01*
X166020761Y-101424095D02*
X166211237Y-101424095D01*
X166211237Y-101424095D02*
X166287428Y-101462190D01*
X166287428Y-101462190D02*
X166325523Y-101500285D01*
X166325523Y-101500285D02*
X166363618Y-101576476D01*
X166363618Y-101576476D02*
X166363618Y-101652666D01*
X166363618Y-101652666D02*
X166325523Y-101766952D01*
X166325523Y-101766952D02*
X165868380Y-102224095D01*
X165868380Y-102224095D02*
X166363618Y-102224095D01*
X166820761Y-101766952D02*
X166744571Y-101728857D01*
X166744571Y-101728857D02*
X166706476Y-101690761D01*
X166706476Y-101690761D02*
X166668380Y-101614571D01*
X166668380Y-101614571D02*
X166668380Y-101576476D01*
X166668380Y-101576476D02*
X166706476Y-101500285D01*
X166706476Y-101500285D02*
X166744571Y-101462190D01*
X166744571Y-101462190D02*
X166820761Y-101424095D01*
X166820761Y-101424095D02*
X166973142Y-101424095D01*
X166973142Y-101424095D02*
X167049333Y-101462190D01*
X167049333Y-101462190D02*
X167087428Y-101500285D01*
X167087428Y-101500285D02*
X167125523Y-101576476D01*
X167125523Y-101576476D02*
X167125523Y-101614571D01*
X167125523Y-101614571D02*
X167087428Y-101690761D01*
X167087428Y-101690761D02*
X167049333Y-101728857D01*
X167049333Y-101728857D02*
X166973142Y-101766952D01*
X166973142Y-101766952D02*
X166820761Y-101766952D01*
X166820761Y-101766952D02*
X166744571Y-101805047D01*
X166744571Y-101805047D02*
X166706476Y-101843142D01*
X166706476Y-101843142D02*
X166668380Y-101919333D01*
X166668380Y-101919333D02*
X166668380Y-102071714D01*
X166668380Y-102071714D02*
X166706476Y-102147904D01*
X166706476Y-102147904D02*
X166744571Y-102186000D01*
X166744571Y-102186000D02*
X166820761Y-102224095D01*
X166820761Y-102224095D02*
X166973142Y-102224095D01*
X166973142Y-102224095D02*
X167049333Y-102186000D01*
X167049333Y-102186000D02*
X167087428Y-102147904D01*
X167087428Y-102147904D02*
X167125523Y-102071714D01*
X167125523Y-102071714D02*
X167125523Y-101919333D01*
X167125523Y-101919333D02*
X167087428Y-101843142D01*
X167087428Y-101843142D02*
X167049333Y-101805047D01*
X167049333Y-101805047D02*
X166973142Y-101766952D01*
%TO.C,R23*%
X152647714Y-88414095D02*
X152381047Y-88033142D01*
X152190571Y-88414095D02*
X152190571Y-87614095D01*
X152190571Y-87614095D02*
X152495333Y-87614095D01*
X152495333Y-87614095D02*
X152571523Y-87652190D01*
X152571523Y-87652190D02*
X152609618Y-87690285D01*
X152609618Y-87690285D02*
X152647714Y-87766476D01*
X152647714Y-87766476D02*
X152647714Y-87880761D01*
X152647714Y-87880761D02*
X152609618Y-87956952D01*
X152609618Y-87956952D02*
X152571523Y-87995047D01*
X152571523Y-87995047D02*
X152495333Y-88033142D01*
X152495333Y-88033142D02*
X152190571Y-88033142D01*
X152952475Y-87690285D02*
X152990571Y-87652190D01*
X152990571Y-87652190D02*
X153066761Y-87614095D01*
X153066761Y-87614095D02*
X153257237Y-87614095D01*
X153257237Y-87614095D02*
X153333428Y-87652190D01*
X153333428Y-87652190D02*
X153371523Y-87690285D01*
X153371523Y-87690285D02*
X153409618Y-87766476D01*
X153409618Y-87766476D02*
X153409618Y-87842666D01*
X153409618Y-87842666D02*
X153371523Y-87956952D01*
X153371523Y-87956952D02*
X152914380Y-88414095D01*
X152914380Y-88414095D02*
X153409618Y-88414095D01*
X153676285Y-87614095D02*
X154171523Y-87614095D01*
X154171523Y-87614095D02*
X153904857Y-87918857D01*
X153904857Y-87918857D02*
X154019142Y-87918857D01*
X154019142Y-87918857D02*
X154095333Y-87956952D01*
X154095333Y-87956952D02*
X154133428Y-87995047D01*
X154133428Y-87995047D02*
X154171523Y-88071238D01*
X154171523Y-88071238D02*
X154171523Y-88261714D01*
X154171523Y-88261714D02*
X154133428Y-88337904D01*
X154133428Y-88337904D02*
X154095333Y-88376000D01*
X154095333Y-88376000D02*
X154019142Y-88414095D01*
X154019142Y-88414095D02*
X153790571Y-88414095D01*
X153790571Y-88414095D02*
X153714380Y-88376000D01*
X153714380Y-88376000D02*
X153676285Y-88337904D01*
%TO.C,U10*%
X127539905Y-104872619D02*
X127539905Y-105682142D01*
X127539905Y-105682142D02*
X127587524Y-105777380D01*
X127587524Y-105777380D02*
X127635143Y-105825000D01*
X127635143Y-105825000D02*
X127730381Y-105872619D01*
X127730381Y-105872619D02*
X127920857Y-105872619D01*
X127920857Y-105872619D02*
X128016095Y-105825000D01*
X128016095Y-105825000D02*
X128063714Y-105777380D01*
X128063714Y-105777380D02*
X128111333Y-105682142D01*
X128111333Y-105682142D02*
X128111333Y-104872619D01*
X129111333Y-105872619D02*
X128539905Y-105872619D01*
X128825619Y-105872619D02*
X128825619Y-104872619D01*
X128825619Y-104872619D02*
X128730381Y-105015476D01*
X128730381Y-105015476D02*
X128635143Y-105110714D01*
X128635143Y-105110714D02*
X128539905Y-105158333D01*
X129730381Y-104872619D02*
X129825619Y-104872619D01*
X129825619Y-104872619D02*
X129920857Y-104920238D01*
X129920857Y-104920238D02*
X129968476Y-104967857D01*
X129968476Y-104967857D02*
X130016095Y-105063095D01*
X130016095Y-105063095D02*
X130063714Y-105253571D01*
X130063714Y-105253571D02*
X130063714Y-105491666D01*
X130063714Y-105491666D02*
X130016095Y-105682142D01*
X130016095Y-105682142D02*
X129968476Y-105777380D01*
X129968476Y-105777380D02*
X129920857Y-105825000D01*
X129920857Y-105825000D02*
X129825619Y-105872619D01*
X129825619Y-105872619D02*
X129730381Y-105872619D01*
X129730381Y-105872619D02*
X129635143Y-105825000D01*
X129635143Y-105825000D02*
X129587524Y-105777380D01*
X129587524Y-105777380D02*
X129539905Y-105682142D01*
X129539905Y-105682142D02*
X129492286Y-105491666D01*
X129492286Y-105491666D02*
X129492286Y-105253571D01*
X129492286Y-105253571D02*
X129539905Y-105063095D01*
X129539905Y-105063095D02*
X129587524Y-104967857D01*
X129587524Y-104967857D02*
X129635143Y-104920238D01*
X129635143Y-104920238D02*
X129730381Y-104872619D01*
D11*
%TO.C,R27*%
X165861276Y-95235500D02*
X166370724Y-95235500D01*
X165861276Y-96280500D02*
X166370724Y-96280500D01*
%TO.C,U8*%
X169535000Y-116840000D02*
X169535000Y-113390000D01*
X169535000Y-116840000D02*
X169535000Y-118790000D01*
X160665000Y-116840000D02*
X160665000Y-114890000D01*
X160665000Y-116840000D02*
X160665000Y-118790000D01*
%TO.C,J10*%
X176724000Y-90872000D02*
X178054000Y-90872000D01*
X176724000Y-92202000D02*
X176724000Y-90872000D01*
X176724000Y-93472000D02*
X176724000Y-101152000D01*
X176724000Y-93472000D02*
X179384000Y-93472000D01*
X176724000Y-101152000D02*
X179384000Y-101152000D01*
X179384000Y-93472000D02*
X179384000Y-101152000D01*
%TO.C,J4*%
X167183000Y-124648000D02*
X167183000Y-130368000D01*
X167183000Y-130368000D02*
X169418000Y-130368000D01*
X168253000Y-124648000D02*
X167183000Y-124648000D01*
X168253000Y-124948000D02*
X168253000Y-124648000D01*
X168543000Y-124358000D02*
X168043000Y-124358000D01*
X168543000Y-124658000D02*
X168543000Y-124358000D01*
X169418000Y-124948000D02*
X168253000Y-124948000D01*
X169418000Y-124948000D02*
X170583000Y-124948000D01*
X170583000Y-124648000D02*
X171653000Y-124648000D01*
X170583000Y-124948000D02*
X170583000Y-124648000D01*
X171653000Y-124648000D02*
X171653000Y-130368000D01*
X171653000Y-130368000D02*
X169418000Y-130368000D01*
%TO.C,C30*%
X143004000Y-104348233D02*
X143004000Y-104640767D01*
X141984000Y-104348233D02*
X141984000Y-104640767D01*
%TO.C,U6*%
X156049000Y-80508000D02*
X151799000Y-80508000D01*
X151799000Y-80508000D02*
X151799000Y-85608000D01*
%TO.C,R29*%
X165861276Y-98283500D02*
X166370724Y-98283500D01*
X165861276Y-99328500D02*
X166370724Y-99328500D01*
%TO.C,D13*%
X177204000Y-105876000D02*
X178904000Y-105876000D01*
X177204000Y-105876000D02*
X177204000Y-102616000D01*
X178904000Y-105876000D02*
X178904000Y-102616000D01*
%TO.C,R32*%
X129032724Y-107202500D02*
X128523276Y-107202500D01*
X129032724Y-106157500D02*
X128523276Y-106157500D01*
%TO.C,C21*%
X157986000Y-85490267D02*
X157986000Y-85197733D01*
X159006000Y-85490267D02*
X159006000Y-85197733D01*
%TO.C,FB1*%
X147402733Y-85342000D02*
X147745267Y-85342000D01*
X147402733Y-86362000D02*
X147745267Y-86362000D01*
%TO.C,C16*%
X153777733Y-78992000D02*
X154070267Y-78992000D01*
X153777733Y-80012000D02*
X154070267Y-80012000D01*
%TO.C,R36*%
X143763276Y-121905500D02*
X144272724Y-121905500D01*
X143763276Y-122950500D02*
X144272724Y-122950500D01*
%TO.C,C12*%
X149604000Y-85236267D02*
X149604000Y-84943733D01*
X150624000Y-85236267D02*
X150624000Y-84943733D01*
%TO.C,C36*%
X162650000Y-72186748D02*
X162650000Y-73609252D01*
X159930000Y-72186748D02*
X159930000Y-73609252D01*
%TO.C,C29*%
X163175733Y-104646000D02*
X163468267Y-104646000D01*
X163175733Y-105666000D02*
X163468267Y-105666000D01*
%TO.C,R34*%
X125461500Y-103124724D02*
X125461500Y-102615276D01*
X126506500Y-103124724D02*
X126506500Y-102615276D01*
%TO.C,C55*%
X157626267Y-113794000D02*
X157333733Y-113794000D01*
X157626267Y-112774000D02*
X157333733Y-112774000D01*
%TO.C,U4*%
X138574000Y-89854000D02*
X138574000Y-88454000D01*
X136254000Y-88454000D02*
X136254000Y-90354000D01*
%TO.C,C19*%
X164953733Y-89660000D02*
X165246267Y-89660000D01*
X164953733Y-90680000D02*
X165246267Y-90680000D01*
%TO.C,C25*%
X157626267Y-118874000D02*
X157333733Y-118874000D01*
X157626267Y-117854000D02*
X157333733Y-117854000D01*
%TO.C,D5*%
X153083500Y-114336000D02*
X154758500Y-114336000D01*
X153083500Y-114336000D02*
X152433500Y-114336000D01*
X153083500Y-111216000D02*
X153733500Y-111216000D01*
X153083500Y-111216000D02*
X152433500Y-111216000D01*
%TO.C,D7*%
X170134000Y-79882000D02*
X170134000Y-76582000D01*
X170134000Y-79882000D02*
X164624000Y-79882000D01*
X170134000Y-76582000D02*
X164624000Y-76582000D01*
%TO.C,C39*%
X152744000Y-73964748D02*
X152744000Y-75387252D01*
X150024000Y-73964748D02*
X150024000Y-75387252D01*
%TO.C,R25*%
X157734724Y-120410500D02*
X157225276Y-120410500D01*
X157734724Y-119365500D02*
X157225276Y-119365500D01*
%TO.C,R30*%
X165861276Y-96759500D02*
X166370724Y-96759500D01*
X165861276Y-97804500D02*
X166370724Y-97804500D01*
%TO.C,R31*%
X163602936Y-122455000D02*
X164057064Y-122455000D01*
X163602936Y-123925000D02*
X164057064Y-123925000D01*
%TO.C,R33*%
X130983500Y-103204724D02*
X130983500Y-102695276D01*
X132028500Y-103204724D02*
X132028500Y-102695276D01*
%TO.C,C20*%
X161034000Y-85490267D02*
X161034000Y-85197733D01*
X162054000Y-85490267D02*
X162054000Y-85197733D01*
%TO.C,C35*%
X159930000Y-78689252D02*
X159930000Y-77266748D01*
X162650000Y-78689252D02*
X162650000Y-77266748D01*
%TO.C,C28*%
X143910267Y-89156000D02*
X143617733Y-89156000D01*
X143910267Y-88136000D02*
X143617733Y-88136000D01*
%TO.C,D9*%
X175280000Y-114300000D02*
X175280000Y-110850000D01*
X175280000Y-114300000D02*
X175280000Y-116250000D01*
X170160000Y-114300000D02*
X170160000Y-112350000D01*
X170160000Y-114300000D02*
X170160000Y-116250000D01*
%TO.C,C54*%
X129686267Y-91442000D02*
X129393733Y-91442000D01*
X129686267Y-90422000D02*
X129393733Y-90422000D01*
%TO.C,C41*%
X156046000Y-73964748D02*
X156046000Y-75387252D01*
X153326000Y-73964748D02*
X153326000Y-75387252D01*
%TO.C,U11*%
X139299000Y-77216000D02*
X139299000Y-80666000D01*
X139299000Y-77216000D02*
X139299000Y-75266000D01*
X144419000Y-77216000D02*
X144419000Y-79166000D01*
X144419000Y-77216000D02*
X144419000Y-75266000D01*
%TO.C,C9*%
X137158000Y-92755767D02*
X137158000Y-92463233D01*
X138178000Y-92755767D02*
X138178000Y-92463233D01*
%TO.C,R14*%
X140701500Y-89408724D02*
X140701500Y-88899276D01*
X141746500Y-89408724D02*
X141746500Y-88899276D01*
%TO.C,R39*%
X150382500Y-122427276D02*
X150382500Y-122936724D01*
X149337500Y-122427276D02*
X149337500Y-122936724D01*
%TO.C,C34*%
X156628000Y-78689252D02*
X156628000Y-77266748D01*
X159348000Y-78689252D02*
X159348000Y-77266748D01*
%TO.C,J9*%
X147411000Y-124648000D02*
X147411000Y-130368000D01*
X147411000Y-130368000D02*
X152146000Y-130368000D01*
X148481000Y-124648000D02*
X147411000Y-124648000D01*
X148481000Y-124948000D02*
X148481000Y-124648000D01*
X148771000Y-124358000D02*
X148271000Y-124358000D01*
X148771000Y-124658000D02*
X148771000Y-124358000D01*
X152146000Y-124948000D02*
X148481000Y-124948000D01*
X152146000Y-124948000D02*
X155811000Y-124948000D01*
X155811000Y-124648000D02*
X156881000Y-124648000D01*
X155811000Y-124948000D02*
X155811000Y-124648000D01*
X156881000Y-124648000D02*
X156881000Y-130368000D01*
X156881000Y-130368000D02*
X152146000Y-130368000D01*
%TO.C,C33*%
X128631733Y-98550000D02*
X128924267Y-98550000D01*
X128631733Y-99570000D02*
X128924267Y-99570000D01*
%TO.C,C51*%
X138073500Y-118002267D02*
X138073500Y-117709733D01*
X139093500Y-118002267D02*
X139093500Y-117709733D01*
%TO.C,R38*%
X153430500Y-118871276D02*
X153430500Y-119380724D01*
X152385500Y-118871276D02*
X152385500Y-119380724D01*
%TO.C,C31*%
X163175733Y-107186000D02*
X163468267Y-107186000D01*
X163175733Y-108206000D02*
X163468267Y-108206000D01*
%TO.C,R26*%
X151906500Y-122427276D02*
X151906500Y-122936724D01*
X150861500Y-122427276D02*
X150861500Y-122936724D01*
%TO.C,J5*%
X173908000Y-106232000D02*
X172578000Y-106232000D01*
X173908000Y-104902000D02*
X173908000Y-106232000D01*
X173908000Y-103632000D02*
X173908000Y-88332000D01*
X173908000Y-103632000D02*
X171308000Y-103632000D01*
X173908000Y-88332000D02*
X168708000Y-88332000D01*
X171308000Y-106232000D02*
X168708000Y-106232000D01*
X171308000Y-103632000D02*
X171308000Y-106232000D01*
X168708000Y-106232000D02*
X168708000Y-88332000D01*
%TO.C,C27*%
X143910267Y-90680000D02*
X143617733Y-90680000D01*
X143910267Y-89660000D02*
X143617733Y-89660000D01*
%TO.C,C22*%
X145180267Y-105666000D02*
X144887733Y-105666000D01*
X145180267Y-104646000D02*
X144887733Y-104646000D01*
%TO.C,D8*%
X137653000Y-69724000D02*
X137653000Y-73024000D01*
X137653000Y-69724000D02*
X143163000Y-69724000D01*
X137653000Y-73024000D02*
X143163000Y-73024000D01*
%TO.C,D10*%
X146578000Y-117856000D02*
X146578000Y-114406000D01*
X146578000Y-117856000D02*
X146578000Y-119806000D01*
X141458000Y-117856000D02*
X141458000Y-115906000D01*
X141458000Y-117856000D02*
X141458000Y-119806000D01*
%TO.C,R35*%
X172465276Y-118349500D02*
X172974724Y-118349500D01*
X172465276Y-119394500D02*
X172974724Y-119394500D01*
%TO.C,C23*%
X156462000Y-85490267D02*
X156462000Y-85197733D01*
X157482000Y-85490267D02*
X157482000Y-85197733D01*
%TO.C,D4*%
X157480000Y-123988000D02*
X159155000Y-123988000D01*
X157480000Y-123988000D02*
X156830000Y-123988000D01*
X157480000Y-120868000D02*
X158130000Y-120868000D01*
X157480000Y-120868000D02*
X156830000Y-120868000D01*
%TO.C,C18*%
X163175733Y-103122000D02*
X163468267Y-103122000D01*
X163175733Y-104142000D02*
X163468267Y-104142000D01*
%TO.C,C50*%
X139851500Y-118002267D02*
X139851500Y-117709733D01*
X140871500Y-118002267D02*
X140871500Y-117709733D01*
%TO.C,C42*%
X145079000Y-78743252D02*
X145079000Y-77320748D01*
X146899000Y-78743252D02*
X146899000Y-77320748D01*
%TO.C,J7*%
X157942000Y-124648000D02*
X157942000Y-130368000D01*
X157942000Y-130368000D02*
X162052000Y-130368000D01*
X159012000Y-124648000D02*
X157942000Y-124648000D01*
X159012000Y-124948000D02*
X159012000Y-124648000D01*
X159302000Y-124358000D02*
X158802000Y-124358000D01*
X159302000Y-124658000D02*
X159302000Y-124358000D01*
X162052000Y-124948000D02*
X159012000Y-124948000D01*
X162052000Y-124948000D02*
X165092000Y-124948000D01*
X165092000Y-124648000D02*
X166162000Y-124648000D01*
X165092000Y-124948000D02*
X165092000Y-124648000D01*
X166162000Y-124648000D02*
X166162000Y-130368000D01*
X166162000Y-130368000D02*
X162052000Y-130368000D01*
%TO.C,J6*%
X141783000Y-124648000D02*
X141783000Y-130368000D01*
X141783000Y-130368000D02*
X144018000Y-130368000D01*
X142853000Y-124648000D02*
X141783000Y-124648000D01*
X142853000Y-124948000D02*
X142853000Y-124648000D01*
X143143000Y-124358000D02*
X142643000Y-124358000D01*
X143143000Y-124658000D02*
X143143000Y-124358000D01*
X144018000Y-124948000D02*
X142853000Y-124948000D01*
X144018000Y-124948000D02*
X145183000Y-124948000D01*
X145183000Y-124648000D02*
X146253000Y-124648000D01*
X145183000Y-124948000D02*
X145183000Y-124648000D01*
X146253000Y-124648000D02*
X146253000Y-130368000D01*
X146253000Y-130368000D02*
X144018000Y-130368000D01*
%TO.C,R24*%
X153909500Y-122936724D02*
X153909500Y-122427276D01*
X154954500Y-122936724D02*
X154954500Y-122427276D01*
%TO.C,D14*%
X157480000Y-117384000D02*
X159155000Y-117384000D01*
X157480000Y-117384000D02*
X156830000Y-117384000D01*
X157480000Y-114264000D02*
X158130000Y-114264000D01*
X157480000Y-114264000D02*
X156830000Y-114264000D01*
%TO.C,R21*%
X165354724Y-93740500D02*
X164845276Y-93740500D01*
X165354724Y-92695500D02*
X164845276Y-92695500D01*
%TO.C,D15*%
X148971000Y-111216000D02*
X147296000Y-111216000D01*
X148971000Y-111216000D02*
X149621000Y-111216000D01*
X148971000Y-114336000D02*
X148321000Y-114336000D01*
X148971000Y-114336000D02*
X149621000Y-114336000D01*
%TO.C,U12*%
X129540000Y-91928000D02*
X126090000Y-91928000D01*
X129540000Y-91928000D02*
X131490000Y-91928000D01*
X129540000Y-97048000D02*
X127590000Y-97048000D01*
X129540000Y-97048000D02*
X131490000Y-97048000D01*
%TO.C,R13*%
X140222500Y-88899276D02*
X140222500Y-89408724D01*
X139177500Y-88899276D02*
X139177500Y-89408724D01*
%TO.C,C17*%
X164953733Y-88136000D02*
X165246267Y-88136000D01*
X164953733Y-89156000D02*
X165246267Y-89156000D01*
%TO.C,C11*%
X143656267Y-84076000D02*
X143363733Y-84076000D01*
X143656267Y-83056000D02*
X143363733Y-83056000D01*
%TO.C,R15*%
X136666500Y-92354776D02*
X136666500Y-92864224D01*
X135621500Y-92354776D02*
X135621500Y-92864224D01*
%TO.C,C45*%
X147217500Y-116478267D02*
X147217500Y-116185733D01*
X148237500Y-116478267D02*
X148237500Y-116185733D01*
%TO.C,U7*%
X161288000Y-89156000D02*
X160588000Y-89156000D01*
X160588000Y-89156000D02*
X160588000Y-87791000D01*
X147068000Y-89156000D02*
X147768000Y-89156000D01*
X161288000Y-89856000D02*
X161288000Y-89156000D01*
X147068000Y-89856000D02*
X147068000Y-89156000D01*
X161288000Y-102676000D02*
X161288000Y-103376000D01*
X147068000Y-102676000D02*
X147068000Y-103376000D01*
X161288000Y-103376000D02*
X160588000Y-103376000D01*
X147068000Y-103376000D02*
X147768000Y-103376000D01*
%TO.C,C24*%
X159510000Y-85490267D02*
X159510000Y-85197733D01*
X160530000Y-85490267D02*
X160530000Y-85197733D01*
%TO.C,C44*%
X175766000Y-112922267D02*
X175766000Y-112629733D01*
X176786000Y-112922267D02*
X176786000Y-112629733D01*
%TO.C,C40*%
X147857000Y-72240748D02*
X147857000Y-73663252D01*
X145137000Y-72240748D02*
X145137000Y-73663252D01*
%TO.C,R20*%
X147319276Y-83805500D02*
X147828724Y-83805500D01*
X147319276Y-84850500D02*
X147828724Y-84850500D01*
%TO.C,C26*%
X145180267Y-104142000D02*
X144887733Y-104142000D01*
X145180267Y-103122000D02*
X144887733Y-103122000D01*
%TO.C,C38*%
X130996000Y-99714267D02*
X130996000Y-99421733D01*
X132016000Y-99714267D02*
X132016000Y-99421733D01*
%TO.C,U9*%
X168422000Y-72644000D02*
X168422000Y-69194000D01*
X168422000Y-72644000D02*
X168422000Y-74594000D01*
X163302000Y-72644000D02*
X163302000Y-70694000D01*
X163302000Y-72644000D02*
X163302000Y-74594000D01*
%TO.C,C10*%
X135638000Y-89034233D02*
X135638000Y-89326767D01*
X134618000Y-89034233D02*
X134618000Y-89326767D01*
%TO.C,C43*%
X147619000Y-78743252D02*
X147619000Y-77320748D01*
X149439000Y-78743252D02*
X149439000Y-77320748D01*
%TO.C,R37*%
X152385500Y-122936724D02*
X152385500Y-122427276D01*
X153430500Y-122936724D02*
X153430500Y-122427276D01*
%TO.C,R28*%
X165861276Y-99807500D02*
X166370724Y-99807500D01*
X165861276Y-100852500D02*
X166370724Y-100852500D01*
%TO.C,R23*%
X153416724Y-87136500D02*
X152907276Y-87136500D01*
X153416724Y-86091500D02*
X152907276Y-86091500D01*
%TO.C,U10*%
X130388000Y-103262000D02*
X130388000Y-101462000D01*
X127168000Y-101462000D02*
X127168000Y-103912000D01*
%TD*%
D12*
X173087071Y-130809973D02*
G75*
G03*
X175119073Y-128778000I29J2031973D01*
G01*
X134281571Y-124064347D02*
G75*
G03*
X133039370Y-121386052I-3504871J1647D01*
G01*
X176351123Y-121296234D02*
G75*
G03*
X175119073Y-123962254I2268777J-2666166D01*
G01*
X134281619Y-124064347D02*
X134281619Y-128778000D01*
X173087071Y-130810000D02*
X136313619Y-130810002D01*
X175119073Y-123962254D02*
X175119073Y-128778000D01*
X188142262Y-95782046D02*
G75*
G03*
X121142262Y-95782046I-33500000J0D01*
G01*
X134281598Y-128778000D02*
G75*
G03*
X136313619Y-130810002I2032002J0D01*
G01*
X176351140Y-121296254D02*
G75*
G03*
X188142262Y-95782046I-21708920J25514224D01*
G01*
X121142261Y-95782046D02*
G75*
G03*
X133039370Y-121386051I33499989J-4D01*
G01*
M02*
