%TF.GenerationSoftware,KiCad,Pcbnew,7.0.1*%
%TF.CreationDate,2023-12-24T22:53:40+03:00*%
%TF.ProjectId,_____ __________,1f3b3042-3020-4433-9f40-30323b353d38,rev?*%
%TF.SameCoordinates,Original*%
%TF.FileFunction,Copper,L4,Inr*%
%TF.FilePolarity,Positive*%
%FSLAX46Y46*%
G04 Gerber Fmt 4.6, Leading zero omitted, Abs format (unit mm)*
G04 Created by KiCad (PCBNEW 7.0.1) date 2023-12-24 22:53:40*
%MOMM*%
%LPD*%
G01*
G04 APERTURE LIST*
G04 Aperture macros list*
%AMRoundRect*
0 Rectangle with rounded corners*
0 $1 Rounding radius*
0 $2 $3 $4 $5 $6 $7 $8 $9 X,Y pos of 4 corners*
0 Add a 4 corners polygon primitive as box body*
4,1,4,$2,$3,$4,$5,$6,$7,$8,$9,$2,$3,0*
0 Add four circle primitives for the rounded corners*
1,1,$1+$1,$2,$3*
1,1,$1+$1,$4,$5*
1,1,$1+$1,$6,$7*
1,1,$1+$1,$8,$9*
0 Add four rect primitives between the rounded corners*
20,1,$1+$1,$2,$3,$4,$5,0*
20,1,$1+$1,$4,$5,$6,$7,0*
20,1,$1+$1,$6,$7,$8,$9,0*
20,1,$1+$1,$8,$9,$2,$3,0*%
G04 Aperture macros list end*
%TA.AperFunction,ComponentPad*%
%ADD10R,1.700000X1.700000*%
%TD*%
%TA.AperFunction,ComponentPad*%
%ADD11O,1.700000X1.700000*%
%TD*%
%TA.AperFunction,ComponentPad*%
%ADD12RoundRect,0.200000X-0.200000X-0.450000X0.200000X-0.450000X0.200000X0.450000X-0.200000X0.450000X0*%
%TD*%
%TA.AperFunction,ComponentPad*%
%ADD13O,0.800000X1.300000*%
%TD*%
%TA.AperFunction,ComponentPad*%
%ADD14C,6.000000*%
%TD*%
%TA.AperFunction,ViaPad*%
%ADD15C,0.800000*%
%TD*%
%TA.AperFunction,Profile*%
%ADD16C,0.200000*%
%TD*%
G04 APERTURE END LIST*
D10*
%TO.N,GND*%
%TO.C,J10*%
X178054000Y-92202000D03*
D11*
%TO.N,SWCLK*%
X178054000Y-94742000D03*
%TO.N,SWDIO*%
X178054000Y-97282000D03*
%TO.N,Net-(D13-A)*%
X178054000Y-99822000D03*
%TD*%
D12*
%TO.N,CAN1L*%
%TO.C,J4*%
X168793000Y-125808000D03*
D13*
%TO.N,CAN1H*%
X170043000Y-125808000D03*
%TD*%
D14*
%TO.N,unconnected-(J3-Pin_1-Pad1)*%
%TO.C,J3*%
X132334000Y-82931000D03*
%TD*%
%TO.N,unconnected-(J1-Pin_1-Pad1)*%
%TO.C,J1*%
X176784000Y-82931000D03*
%TD*%
D12*
%TO.N,GND*%
%TO.C,J9*%
X149021000Y-125808000D03*
D13*
%TO.N,Digital_input2*%
X150271000Y-125808000D03*
%TO.N,Digital_input1*%
X151521000Y-125808000D03*
%TO.N,Analog_Input2*%
X152771000Y-125808000D03*
%TO.N,Analog_Input1*%
X154021000Y-125808000D03*
%TO.N,GNDA*%
X155271000Y-125808000D03*
%TD*%
D14*
%TO.N,unconnected-(J2-Pin_1-Pad1)*%
%TO.C,J2*%
X154559000Y-68326000D03*
%TD*%
D10*
%TO.N,+3.3V*%
%TO.C,J5*%
X172578000Y-104902000D03*
D11*
%TO.N,GND*%
X170038000Y-104902000D03*
%TO.N,Angle_Sensor_CS_MCU*%
X172578000Y-102362000D03*
%TO.N,Temp_Coil_C_MCU*%
X170038000Y-102362000D03*
%TO.N,Angle_Sensor_SCLK_MCU*%
X172578000Y-99822000D03*
%TO.N,Temp_Coil_B_MCU*%
X170038000Y-99822000D03*
%TO.N,Angle_Sensor_SDIO_MCU*%
X172578000Y-97282000D03*
%TO.N,Temp_Coil_A_MCU*%
X170038000Y-97282000D03*
%TO.N,OUT_MCU*%
X172578000Y-94742000D03*
%TO.N,Current_C_MCU*%
X170038000Y-94742000D03*
%TO.N,Current_B_MCU*%
X172578000Y-92202000D03*
%TO.N,Current_A_MCU*%
X170038000Y-92202000D03*
%TO.N,+3.3VA*%
X172578000Y-89662000D03*
%TO.N,GNDA*%
X170038000Y-89662000D03*
%TD*%
D12*
%TO.N,GND*%
%TO.C,J7*%
X159552000Y-125808000D03*
D13*
%TO.N,RS_485_Y*%
X160802000Y-125808000D03*
%TO.N,RS_485_Z*%
X162052000Y-125808000D03*
%TO.N,RS_485_B*%
X163302000Y-125808000D03*
%TO.N,RS_485_A*%
X164552000Y-125808000D03*
%TD*%
D12*
%TO.N,CAN2L*%
%TO.C,J6*%
X143393000Y-125808000D03*
D13*
%TO.N,CAN2H*%
X144643000Y-125808000D03*
%TD*%
D15*
%TO.N,GND*%
X138684000Y-120650000D03*
X151130000Y-82804000D03*
X136652000Y-103886000D03*
X148844000Y-118364000D03*
X138938000Y-91694000D03*
X173482000Y-113538000D03*
X125984000Y-100838000D03*
X159766000Y-102108000D03*
X161290000Y-116078000D03*
X142727561Y-106703516D03*
X148844000Y-81280000D03*
X133858000Y-90170000D03*
X137265023Y-112670977D03*
X143002000Y-87630000D03*
X141732000Y-97028000D03*
X159766000Y-101092000D03*
X148844000Y-74422000D03*
X154559000Y-114300000D03*
X165862000Y-87630000D03*
X162560000Y-84582000D03*
X138302647Y-96900646D03*
X142748000Y-81534000D03*
X127254000Y-90932000D03*
X160020000Y-90678000D03*
X147024477Y-111845477D03*
X132588000Y-98552000D03*
X169418000Y-121412000D03*
X159004000Y-74422000D03*
X147941673Y-90516500D03*
X164338000Y-106426000D03*
X159766000Y-100076000D03*
%TO.N,A*%
X139446000Y-108458000D03*
X156972000Y-109474000D03*
X141224000Y-111760000D03*
%TO.N,B*%
X144526000Y-102362000D03*
X139700000Y-99060000D03*
X157226000Y-99314000D03*
%TO.N,C*%
X137392023Y-115845977D03*
X149860000Y-108585000D03*
X147828000Y-120142000D03*
%TO.N,+24V*%
X170688000Y-82804000D03*
X159766000Y-113030000D03*
X130810000Y-106680000D03*
%TO.N,+12V*%
X141001682Y-120882379D03*
X134620000Y-102870000D03*
X148844000Y-71628000D03*
X148844000Y-70612000D03*
X136398000Y-115062000D03*
X142748000Y-108966000D03*
X158750000Y-71374000D03*
X148844000Y-69596000D03*
X143287454Y-102120500D03*
%TO.N,Enable*%
X138938000Y-92722500D03*
X140462000Y-106426000D03*
X141478000Y-93726000D03*
X139954000Y-112014000D03*
%TO.N,IN_A*%
X139446000Y-106426000D03*
%TO.N,IN_B*%
X143107023Y-98298000D03*
%TO.N,IN_C*%
X139424023Y-114829977D03*
%TO.N,+3.3V*%
X167640000Y-117602000D03*
X154686000Y-78232000D03*
X154686000Y-105537000D03*
X136764000Y-87234000D03*
X125349000Y-95123000D03*
X144018000Y-76708000D03*
X126746000Y-99060000D03*
X137414000Y-120650000D03*
X145542000Y-84836000D03*
X171958000Y-113538000D03*
X162560000Y-106426000D03*
X164084000Y-86614000D03*
X139700000Y-87122000D03*
X145034000Y-81280000D03*
X151130000Y-87122000D03*
X178054000Y-106172000D03*
X148336000Y-121539000D03*
X131826000Y-91186000D03*
%TO.N,NRST*%
X155689061Y-90708863D03*
%TO.N,Temp_Coil_C_MCU*%
X147320000Y-88392000D03*
%TO.N,Temp_Coil_B_MCU*%
X148336000Y-87122000D03*
%TO.N,Temp_Coil_A_MCU*%
X149352000Y-87122000D03*
%TO.N,Net-(R16-Pad2)*%
X134620000Y-91440000D03*
X148336000Y-122555000D03*
%TO.N,Current_C_MCU*%
X152400000Y-91440000D03*
%TO.N,Current_B_MCU*%
X153670000Y-91423503D03*
%TO.N,RS_485_RX_MCU*%
X161290000Y-111252000D03*
X163830000Y-111252000D03*
%TO.N,RS_485_Enable_MCU*%
X160032500Y-111207693D03*
X165100000Y-112268000D03*
%TO.N,Current_A_MCU*%
X153670000Y-90424000D03*
%TO.N,GNDA*%
X153924000Y-118110000D03*
X151384000Y-90424000D03*
X149606000Y-82804000D03*
%TO.N,+3.3VA*%
X159512000Y-121412000D03*
X159258500Y-115779546D03*
X151130000Y-85852000D03*
%TO.N,Temperature_Power_~{OS}_MCU*%
X143764000Y-85852000D03*
X149860000Y-92710000D03*
%TO.N,Temperature_Power_SCL_MCU*%
X140716000Y-85852000D03*
X149860000Y-95758000D03*
%TO.N,Temperature_Power_SDA_MCU*%
X149860000Y-98298000D03*
X142240000Y-85852000D03*
%TO.N,EEPROM_~{CS_MCU}*%
X142240000Y-91516500D03*
X129032000Y-92964000D03*
%TO.N,EEPROM_MOSI_MCU*%
X144581440Y-93516500D03*
X130048000Y-96012000D03*
%TO.N,Net-(U4-+)*%
X135128000Y-87122000D03*
%TO.N,Net-(D4-COM)*%
X155702000Y-117602000D03*
X148313669Y-94465669D03*
%TO.N,Net-(U10-+)*%
X127762000Y-105410000D03*
%TO.N,Net-(D7-K)*%
X170688000Y-78232000D03*
%TO.N,Net-(D8-K)*%
X137160000Y-75438000D03*
%TO.N,Net-(U7-PC4)*%
X158750000Y-99314000D03*
X163830000Y-96266000D03*
X148286582Y-93466536D03*
%TO.N,Net-(D14-COM)*%
X155956000Y-112014000D03*
X148336000Y-95504000D03*
%TD*%
%TA.AperFunction,Conductor*%
%TO.N,GNDA*%
G36*
X156398820Y-98945715D02*
G01*
X156340326Y-99125742D01*
X156325689Y-99265003D01*
X156299196Y-99329503D01*
X155921131Y-99802085D01*
X155921127Y-99802090D01*
X155702000Y-100076000D01*
X155702000Y-100426781D01*
X155702000Y-100426784D01*
X155702000Y-105032989D01*
X155685387Y-105094989D01*
X155640000Y-105140376D01*
X155578000Y-105156989D01*
X155516000Y-105140376D01*
X155470613Y-105094989D01*
X155418533Y-105004783D01*
X155291870Y-104864110D01*
X155138730Y-104752848D01*
X154965802Y-104675855D01*
X154780648Y-104636500D01*
X154780646Y-104636500D01*
X154591354Y-104636500D01*
X154591352Y-104636500D01*
X154406197Y-104675855D01*
X154233269Y-104752848D01*
X154080129Y-104864110D01*
X153953466Y-105004783D01*
X153858820Y-105168715D01*
X153800326Y-105348742D01*
X153780540Y-105536999D01*
X153800326Y-105725257D01*
X153858820Y-105905284D01*
X153953466Y-106069216D01*
X154080129Y-106209889D01*
X154233269Y-106321151D01*
X154406197Y-106398144D01*
X154591352Y-106437500D01*
X154591354Y-106437500D01*
X154780646Y-106437500D01*
X154780648Y-106437500D01*
X154904083Y-106411262D01*
X154965803Y-106398144D01*
X155138730Y-106321151D01*
X155291871Y-106209888D01*
X155418533Y-106069216D01*
X155470612Y-105979011D01*
X155516000Y-105933624D01*
X155578000Y-105917011D01*
X155640000Y-105933624D01*
X155685387Y-105979011D01*
X155702000Y-106041011D01*
X155702000Y-111060842D01*
X155692971Y-111107293D01*
X155667198Y-111146980D01*
X155628437Y-111174120D01*
X155584274Y-111193783D01*
X155503267Y-111229849D01*
X155350129Y-111341110D01*
X155223466Y-111481783D01*
X155128820Y-111645715D01*
X155070326Y-111825742D01*
X155050540Y-112014000D01*
X155070326Y-112202257D01*
X155128820Y-112382284D01*
X155223466Y-112546216D01*
X155350129Y-112686889D01*
X155503267Y-112798150D01*
X155542764Y-112815735D01*
X155628437Y-112853879D01*
X155667198Y-112881020D01*
X155692971Y-112920707D01*
X155702000Y-112967158D01*
X155702000Y-114193981D01*
X155686453Y-114254097D01*
X155643710Y-114299139D01*
X155640979Y-114299999D01*
X155643710Y-114300861D01*
X155686453Y-114345903D01*
X155702000Y-114406019D01*
X155702000Y-116580969D01*
X155689450Y-116635327D01*
X155654342Y-116678682D01*
X155603781Y-116702259D01*
X155422197Y-116740855D01*
X155249269Y-116817848D01*
X155096129Y-116929110D01*
X154969466Y-117069783D01*
X154874820Y-117233715D01*
X154816326Y-117413742D01*
X154796540Y-117601999D01*
X154816326Y-117790257D01*
X154874820Y-117970284D01*
X154969466Y-118134216D01*
X155096129Y-118274889D01*
X155249269Y-118386151D01*
X155422197Y-118463144D01*
X155603781Y-118501741D01*
X155654342Y-118525318D01*
X155689450Y-118568673D01*
X155702000Y-118623031D01*
X155702000Y-124576379D01*
X155689920Y-124629763D01*
X155656035Y-124672746D01*
X155606946Y-124696953D01*
X155552217Y-124697669D01*
X155520999Y-124691032D01*
X155521000Y-124691033D01*
X155521000Y-125934000D01*
X155504387Y-125996000D01*
X155459000Y-126041387D01*
X155397000Y-126058000D01*
X155145000Y-126058000D01*
X155083000Y-126041387D01*
X155037613Y-125996000D01*
X155021000Y-125934000D01*
X155021000Y-124691032D01*
X154991353Y-124697335D01*
X154818518Y-124774285D01*
X154719310Y-124846364D01*
X154672206Y-124867336D01*
X154620644Y-124867336D01*
X154573540Y-124846364D01*
X154473730Y-124773848D01*
X154300802Y-124696855D01*
X154115648Y-124657500D01*
X154115646Y-124657500D01*
X153926354Y-124657500D01*
X153926352Y-124657500D01*
X153741197Y-124696855D01*
X153568272Y-124773846D01*
X153468884Y-124846056D01*
X153421779Y-124867027D01*
X153370218Y-124867027D01*
X153323113Y-124846055D01*
X153223727Y-124773847D01*
X153050802Y-124696855D01*
X152865648Y-124657500D01*
X152865646Y-124657500D01*
X152676354Y-124657500D01*
X152676352Y-124657500D01*
X152491197Y-124696855D01*
X152318272Y-124773846D01*
X152218884Y-124846056D01*
X152171779Y-124867027D01*
X152120218Y-124867027D01*
X152073113Y-124846055D01*
X151973728Y-124773847D01*
X151965563Y-124770212D01*
X151926801Y-124743070D01*
X151901029Y-124703384D01*
X151892000Y-124656933D01*
X151892000Y-114300000D01*
X153653540Y-114300000D01*
X153663321Y-114393058D01*
X153673326Y-114488257D01*
X153731820Y-114668284D01*
X153826466Y-114832216D01*
X153953129Y-114972889D01*
X154106269Y-115084151D01*
X154279197Y-115161144D01*
X154464352Y-115200500D01*
X154464354Y-115200500D01*
X154653646Y-115200500D01*
X154653648Y-115200500D01*
X154777083Y-115174262D01*
X154838803Y-115161144D01*
X155011730Y-115084151D01*
X155164871Y-114972888D01*
X155291533Y-114832216D01*
X155386179Y-114668284D01*
X155444674Y-114488256D01*
X155454679Y-114393056D01*
X155476425Y-114334896D01*
X155517283Y-114300000D01*
X155476425Y-114265104D01*
X155454679Y-114206942D01*
X155453317Y-114193981D01*
X155444674Y-114111744D01*
X155386179Y-113931716D01*
X155386179Y-113931715D01*
X155291533Y-113767783D01*
X155164870Y-113627110D01*
X155011730Y-113515848D01*
X154838802Y-113438855D01*
X154653648Y-113399500D01*
X154653646Y-113399500D01*
X154464354Y-113399500D01*
X154464352Y-113399500D01*
X154279197Y-113438855D01*
X154106269Y-113515848D01*
X153953129Y-113627110D01*
X153826466Y-113767783D01*
X153731820Y-113931715D01*
X153673326Y-114111742D01*
X153653630Y-114299139D01*
X153653540Y-114300000D01*
X151892000Y-114300000D01*
X151892000Y-100544373D01*
X151892000Y-100076000D01*
X150586562Y-98988135D01*
X150578729Y-98980157D01*
X150560784Y-98930224D01*
X150565354Y-98877361D01*
X150591600Y-98831251D01*
X150592533Y-98830216D01*
X150606514Y-98806000D01*
X156479484Y-98806000D01*
X156398820Y-98945715D01*
G37*
%TD.AperFunction*%
%TD*%
%TA.AperFunction,Conductor*%
%TO.N,GNDA*%
G36*
X149358922Y-82296780D02*
G01*
X149374503Y-82298535D01*
X149507682Y-82313541D01*
X149534743Y-82319717D01*
X149669433Y-82366848D01*
X149694443Y-82378891D01*
X149815271Y-82454812D01*
X149836980Y-82472125D01*
X149937874Y-82573019D01*
X149955187Y-82594728D01*
X150031106Y-82715553D01*
X150043153Y-82740570D01*
X150090280Y-82875250D01*
X150096459Y-82902321D01*
X150114000Y-83058000D01*
X150114000Y-83820000D01*
X161755857Y-83820000D01*
X161810992Y-83832932D01*
X161854627Y-83869030D01*
X161877661Y-83920765D01*
X161875289Y-83977347D01*
X161848006Y-84026973D01*
X161827466Y-84049784D01*
X161732820Y-84213715D01*
X161674326Y-84393742D01*
X161654540Y-84581999D01*
X161674326Y-84770257D01*
X161732820Y-84950284D01*
X161827466Y-85114216D01*
X161954129Y-85254889D01*
X162107269Y-85366151D01*
X162280197Y-85443144D01*
X162465352Y-85482500D01*
X162465354Y-85482500D01*
X162654646Y-85482500D01*
X162654648Y-85482500D01*
X162778083Y-85456262D01*
X162839803Y-85443144D01*
X163012730Y-85366151D01*
X163076550Y-85319783D01*
X163165870Y-85254889D01*
X163292533Y-85114216D01*
X163387179Y-84950284D01*
X163431480Y-84813939D01*
X163445674Y-84770256D01*
X163465460Y-84582000D01*
X163445674Y-84393744D01*
X163407157Y-84275201D01*
X163387179Y-84213715D01*
X163292533Y-84049784D01*
X163271994Y-84026973D01*
X163244711Y-83977347D01*
X163242339Y-83920765D01*
X163265373Y-83869030D01*
X163309008Y-83832932D01*
X163364143Y-83820000D01*
X172475907Y-83820000D01*
X172488061Y-83820597D01*
X172664941Y-83838018D01*
X172688769Y-83842757D01*
X172853001Y-83892576D01*
X172875453Y-83901877D01*
X173026798Y-83982772D01*
X173047010Y-83996277D01*
X173179666Y-84105145D01*
X173196854Y-84122333D01*
X173305722Y-84254989D01*
X173319227Y-84275201D01*
X173400121Y-84426543D01*
X173409424Y-84449001D01*
X173459240Y-84613224D01*
X173463982Y-84637065D01*
X173481403Y-84813939D01*
X173482000Y-84826093D01*
X173482000Y-88408129D01*
X173464009Y-88472457D01*
X173415257Y-88518118D01*
X173349891Y-88531864D01*
X173286877Y-88509704D01*
X173255831Y-88487965D01*
X173148746Y-88438031D01*
X173041663Y-88388097D01*
X172980502Y-88371709D01*
X172813407Y-88326936D01*
X172577999Y-88306340D01*
X172342592Y-88326936D01*
X172114336Y-88388097D01*
X171900170Y-88487965D01*
X171706598Y-88623505D01*
X171539508Y-88790595D01*
X171409269Y-88976596D01*
X171364951Y-89015461D01*
X171307694Y-89029472D01*
X171250437Y-89015461D01*
X171206119Y-88976595D01*
X171076109Y-88790921D01*
X170909081Y-88623893D01*
X170715576Y-88488399D01*
X170501492Y-88388569D01*
X170288000Y-88331364D01*
X170288000Y-89788000D01*
X170271387Y-89850000D01*
X170226000Y-89895387D01*
X170164000Y-89912000D01*
X168707364Y-89912000D01*
X168764569Y-90125492D01*
X168864399Y-90339576D01*
X168999893Y-90533081D01*
X169166918Y-90700106D01*
X169352595Y-90830119D01*
X169391460Y-90874437D01*
X169405471Y-90931694D01*
X169391460Y-90988951D01*
X169352595Y-91033269D01*
X169166595Y-91163508D01*
X168999505Y-91330598D01*
X168863965Y-91524170D01*
X168764097Y-91738336D01*
X168702936Y-91966592D01*
X168682340Y-92202000D01*
X168702936Y-92437407D01*
X168725534Y-92521742D01*
X168764097Y-92665663D01*
X168863965Y-92879830D01*
X168999505Y-93073401D01*
X169166599Y-93240495D01*
X169352160Y-93370426D01*
X169391024Y-93414743D01*
X169405035Y-93472000D01*
X169391024Y-93529257D01*
X169352158Y-93573575D01*
X169299425Y-93610500D01*
X169166595Y-93703508D01*
X168999505Y-93870598D01*
X168863965Y-94064170D01*
X168764097Y-94278336D01*
X168702936Y-94506592D01*
X168682340Y-94741999D01*
X168702936Y-94977407D01*
X168726531Y-95065464D01*
X168764097Y-95205663D01*
X168863965Y-95419830D01*
X168999505Y-95613401D01*
X169166599Y-95780495D01*
X169352160Y-95910426D01*
X169391024Y-95954743D01*
X169405035Y-96012000D01*
X169391024Y-96069257D01*
X169352160Y-96113574D01*
X169247066Y-96187162D01*
X169166595Y-96243508D01*
X168999505Y-96410598D01*
X168863965Y-96604170D01*
X168764097Y-96818336D01*
X168702936Y-97046592D01*
X168682340Y-97281999D01*
X168702936Y-97517407D01*
X168703922Y-97521085D01*
X168764097Y-97745663D01*
X168863965Y-97959830D01*
X168999505Y-98153401D01*
X169166599Y-98320495D01*
X169352160Y-98450426D01*
X169391024Y-98494743D01*
X169405035Y-98552000D01*
X169391024Y-98609257D01*
X169352160Y-98653574D01*
X169166599Y-98783505D01*
X169166596Y-98783507D01*
X169166500Y-98783575D01*
X169132664Y-98800261D01*
X169095376Y-98806000D01*
X159559546Y-98806000D01*
X159509111Y-98795280D01*
X159467396Y-98764972D01*
X159355870Y-98641110D01*
X159202730Y-98529848D01*
X159029802Y-98452855D01*
X158844648Y-98413500D01*
X158844646Y-98413500D01*
X158655354Y-98413500D01*
X158655352Y-98413500D01*
X158470197Y-98452855D01*
X158297269Y-98529848D01*
X158144129Y-98641110D01*
X158080150Y-98712167D01*
X158022179Y-98748391D01*
X157953821Y-98748391D01*
X157895850Y-98712167D01*
X157831870Y-98641110D01*
X157678730Y-98529848D01*
X157505802Y-98452855D01*
X157320648Y-98413500D01*
X157320646Y-98413500D01*
X157131354Y-98413500D01*
X157131352Y-98413500D01*
X156946197Y-98452855D01*
X156773269Y-98529848D01*
X156620129Y-98641110D01*
X156493465Y-98781785D01*
X156479485Y-98806000D01*
X150606514Y-98806000D01*
X150687179Y-98666284D01*
X150745674Y-98486256D01*
X150765460Y-98298000D01*
X150745674Y-98109744D01*
X150687179Y-97929716D01*
X150687179Y-97929715D01*
X150592533Y-97765783D01*
X150465870Y-97625110D01*
X150312730Y-97513848D01*
X150139802Y-97436855D01*
X149954648Y-97397500D01*
X149954646Y-97397500D01*
X149765354Y-97397500D01*
X149765352Y-97397500D01*
X149580197Y-97436855D01*
X149407269Y-97513848D01*
X149254129Y-97625110D01*
X149127466Y-97765783D01*
X149032820Y-97929715D01*
X148974326Y-98109742D01*
X148954540Y-98298000D01*
X148974326Y-98486257D01*
X149025477Y-98643682D01*
X149030019Y-98701398D01*
X149007864Y-98754885D01*
X148963841Y-98792485D01*
X148907546Y-98806000D01*
X147541169Y-98806000D01*
X147527617Y-98805257D01*
X147330657Y-98783601D01*
X147304201Y-98777712D01*
X147123126Y-98715988D01*
X147098581Y-98704492D01*
X146935234Y-98604896D01*
X146913774Y-98588342D01*
X146771049Y-98450898D01*
X146761803Y-98440963D01*
X146661411Y-98320493D01*
X146485786Y-98109742D01*
X146032383Y-97565658D01*
X146023850Y-97554121D01*
X145909246Y-97378798D01*
X145896444Y-97353165D01*
X145827603Y-97163022D01*
X145821029Y-97135143D01*
X145796830Y-96927086D01*
X145796000Y-96912760D01*
X145796000Y-93466536D01*
X147381122Y-93466536D01*
X147400908Y-93654793D01*
X147459402Y-93834820D01*
X147512946Y-93927560D01*
X147529559Y-93989559D01*
X147512947Y-94051559D01*
X147486489Y-94097385D01*
X147427995Y-94277411D01*
X147408209Y-94465669D01*
X147427995Y-94653926D01*
X147486489Y-94833953D01*
X147548970Y-94942173D01*
X147565583Y-95004172D01*
X147548971Y-95066172D01*
X147508820Y-95135716D01*
X147450326Y-95315742D01*
X147430540Y-95504000D01*
X147450326Y-95692257D01*
X147508820Y-95872284D01*
X147603466Y-96036216D01*
X147730129Y-96176889D01*
X147883269Y-96288151D01*
X148056197Y-96365144D01*
X148241352Y-96404500D01*
X148241354Y-96404500D01*
X148430646Y-96404500D01*
X148430648Y-96404500D01*
X148605537Y-96367326D01*
X148615803Y-96365144D01*
X148685193Y-96334248D01*
X148788727Y-96288153D01*
X148819218Y-96266000D01*
X148915114Y-96196327D01*
X148979347Y-96172949D01*
X149046212Y-96187162D01*
X149095384Y-96234647D01*
X149127466Y-96290216D01*
X149254129Y-96430889D01*
X149407269Y-96542151D01*
X149580197Y-96619144D01*
X149765352Y-96658500D01*
X149765354Y-96658500D01*
X149954646Y-96658500D01*
X149954648Y-96658500D01*
X150078083Y-96632262D01*
X150139803Y-96619144D01*
X150312730Y-96542151D01*
X150465871Y-96430888D01*
X150592533Y-96290216D01*
X150606515Y-96265999D01*
X162924540Y-96265999D01*
X162944326Y-96454257D01*
X163002820Y-96634284D01*
X163097466Y-96798216D01*
X163224129Y-96938889D01*
X163377269Y-97050151D01*
X163550197Y-97127144D01*
X163735352Y-97166500D01*
X163735354Y-97166500D01*
X163924646Y-97166500D01*
X163924648Y-97166500D01*
X164072170Y-97135143D01*
X164109803Y-97127144D01*
X164282730Y-97050151D01*
X164435871Y-96938888D01*
X164562533Y-96798216D01*
X164657179Y-96634284D01*
X164715674Y-96454256D01*
X164735460Y-96266000D01*
X164715674Y-96077744D01*
X164663131Y-95916035D01*
X164657179Y-95897715D01*
X164562533Y-95733783D01*
X164435870Y-95593110D01*
X164282730Y-95481848D01*
X164109802Y-95404855D01*
X163924648Y-95365500D01*
X163924646Y-95365500D01*
X163735354Y-95365500D01*
X163735352Y-95365500D01*
X163550197Y-95404855D01*
X163377269Y-95481848D01*
X163224129Y-95593110D01*
X163097466Y-95733783D01*
X163002820Y-95897715D01*
X162944326Y-96077742D01*
X162924540Y-96265999D01*
X150606515Y-96265999D01*
X150687179Y-96126284D01*
X150745674Y-95946256D01*
X150765460Y-95758000D01*
X150745674Y-95569744D01*
X150696963Y-95419827D01*
X150687179Y-95389715D01*
X150592533Y-95225783D01*
X150465870Y-95085110D01*
X150312730Y-94973848D01*
X150139802Y-94896855D01*
X149954648Y-94857500D01*
X149954646Y-94857500D01*
X149765354Y-94857500D01*
X149765352Y-94857500D01*
X149580197Y-94896855D01*
X149407272Y-94973846D01*
X149281171Y-95065464D01*
X149218661Y-95088710D01*
X149153150Y-95076213D01*
X149103589Y-95031586D01*
X149084313Y-94967740D01*
X149100900Y-94903144D01*
X149140848Y-94833953D01*
X149199343Y-94653925D01*
X149219129Y-94465669D01*
X149199343Y-94277413D01*
X149140848Y-94097385D01*
X149140848Y-94097384D01*
X149087304Y-94004644D01*
X149070691Y-93942644D01*
X149087303Y-93880645D01*
X149113761Y-93834820D01*
X149172256Y-93654792D01*
X149182165Y-93560508D01*
X149205167Y-93500588D01*
X149255049Y-93460194D01*
X149318446Y-93450152D01*
X149378370Y-93473155D01*
X149407269Y-93494151D01*
X149580197Y-93571144D01*
X149765352Y-93610500D01*
X149765354Y-93610500D01*
X149954646Y-93610500D01*
X149954648Y-93610500D01*
X150078083Y-93584262D01*
X150139803Y-93571144D01*
X150312730Y-93494151D01*
X150465871Y-93382888D01*
X150592533Y-93242216D01*
X150687179Y-93078284D01*
X150745674Y-92898256D01*
X150765460Y-92710000D01*
X150745674Y-92521744D01*
X150687179Y-92341716D01*
X150687179Y-92341715D01*
X150592533Y-92177783D01*
X150465870Y-92037110D01*
X150312730Y-91925848D01*
X150139802Y-91848855D01*
X149954648Y-91809500D01*
X149954646Y-91809500D01*
X149765354Y-91809500D01*
X149765352Y-91809500D01*
X149580197Y-91848855D01*
X149407269Y-91925848D01*
X149254129Y-92037110D01*
X149127466Y-92177783D01*
X149032820Y-92341715D01*
X148974326Y-92521742D01*
X148964417Y-92616024D01*
X148941414Y-92675948D01*
X148891531Y-92716342D01*
X148828135Y-92726383D01*
X148768211Y-92703380D01*
X148739312Y-92682384D01*
X148566384Y-92605391D01*
X148381230Y-92566036D01*
X148381228Y-92566036D01*
X148191936Y-92566036D01*
X148191934Y-92566036D01*
X148006779Y-92605391D01*
X147833851Y-92682384D01*
X147680711Y-92793646D01*
X147554048Y-92934319D01*
X147459402Y-93098251D01*
X147400908Y-93278278D01*
X147381122Y-93466536D01*
X145796000Y-93466536D01*
X145796000Y-91439999D01*
X151494540Y-91439999D01*
X151514326Y-91628257D01*
X151572820Y-91808284D01*
X151667466Y-91972216D01*
X151794129Y-92112889D01*
X151947269Y-92224151D01*
X152120197Y-92301144D01*
X152305352Y-92340500D01*
X152305354Y-92340500D01*
X152494646Y-92340500D01*
X152494648Y-92340500D01*
X152618084Y-92314262D01*
X152679803Y-92301144D01*
X152749193Y-92270248D01*
X152852727Y-92224153D01*
X152883218Y-92202000D01*
X152973471Y-92136427D01*
X153020570Y-92115458D01*
X153072133Y-92115458D01*
X153119237Y-92136430D01*
X153217269Y-92207654D01*
X153390197Y-92284647D01*
X153575352Y-92324003D01*
X153575354Y-92324003D01*
X153764646Y-92324003D01*
X153764648Y-92324003D01*
X153888083Y-92297765D01*
X153949803Y-92284647D01*
X154122730Y-92207654D01*
X154220762Y-92136430D01*
X154275870Y-92096392D01*
X154297574Y-92072288D01*
X154402533Y-91955719D01*
X154497179Y-91791787D01*
X154555674Y-91611759D01*
X154575460Y-91423503D01*
X154555674Y-91235247D01*
X154504304Y-91077147D01*
X154497180Y-91055221D01*
X154492020Y-91046284D01*
X154457069Y-90985747D01*
X154440458Y-90923751D01*
X154457071Y-90861752D01*
X154497179Y-90792284D01*
X154543021Y-90651197D01*
X154574813Y-90600319D01*
X154626771Y-90570321D01*
X154686731Y-90568226D01*
X154740655Y-90594526D01*
X154775921Y-90643064D01*
X154784272Y-90702476D01*
X154784033Y-90704757D01*
X154783601Y-90708863D01*
X154792369Y-90792284D01*
X154803387Y-90897120D01*
X154861881Y-91077147D01*
X154956527Y-91241079D01*
X155083190Y-91381752D01*
X155236330Y-91493014D01*
X155409258Y-91570007D01*
X155594413Y-91609363D01*
X155594415Y-91609363D01*
X155783707Y-91609363D01*
X155783709Y-91609363D01*
X155928907Y-91578500D01*
X155968864Y-91570007D01*
X156141791Y-91493014D01*
X156141791Y-91493013D01*
X156294931Y-91381752D01*
X156421594Y-91241079D01*
X156516240Y-91077147D01*
X156544797Y-90989257D01*
X156574735Y-90897119D01*
X156594521Y-90708863D01*
X156591277Y-90678000D01*
X159114540Y-90678000D01*
X159134326Y-90866257D01*
X159192820Y-91046284D01*
X159287466Y-91210216D01*
X159414129Y-91350889D01*
X159567269Y-91462151D01*
X159740197Y-91539144D01*
X159925352Y-91578500D01*
X159925354Y-91578500D01*
X160114646Y-91578500D01*
X160114648Y-91578500D01*
X160238084Y-91552262D01*
X160299803Y-91539144D01*
X160472730Y-91462151D01*
X160583392Y-91381751D01*
X160625870Y-91350889D01*
X160752533Y-91210216D01*
X160847179Y-91046284D01*
X160884312Y-90932000D01*
X160905674Y-90866256D01*
X160925460Y-90678000D01*
X160905674Y-90489744D01*
X160875332Y-90396363D01*
X160847179Y-90309715D01*
X160752533Y-90145783D01*
X160625870Y-90005110D01*
X160472730Y-89893848D01*
X160299802Y-89816855D01*
X160114648Y-89777500D01*
X160114646Y-89777500D01*
X159925354Y-89777500D01*
X159925352Y-89777500D01*
X159740197Y-89816855D01*
X159567269Y-89893848D01*
X159414129Y-90005110D01*
X159287466Y-90145783D01*
X159192820Y-90309715D01*
X159134326Y-90489742D01*
X159114540Y-90678000D01*
X156591277Y-90678000D01*
X156574735Y-90520607D01*
X156543345Y-90423999D01*
X156516240Y-90340578D01*
X156421594Y-90176646D01*
X156294931Y-90035973D01*
X156141791Y-89924711D01*
X155968863Y-89847718D01*
X155783709Y-89808363D01*
X155783707Y-89808363D01*
X155594415Y-89808363D01*
X155594413Y-89808363D01*
X155409258Y-89847718D01*
X155236330Y-89924711D01*
X155083190Y-90035973D01*
X154956527Y-90176646D01*
X154861882Y-90340577D01*
X154816040Y-90481664D01*
X154784246Y-90532544D01*
X154732286Y-90562542D01*
X154672325Y-90564635D01*
X154618401Y-90538332D01*
X154583137Y-90489792D01*
X154574789Y-90430381D01*
X154575460Y-90424000D01*
X154555674Y-90235744D01*
X154497179Y-90055716D01*
X154497179Y-90055715D01*
X154402533Y-89891783D01*
X154275870Y-89751110D01*
X154122730Y-89639848D01*
X153949802Y-89562855D01*
X153764648Y-89523500D01*
X153764646Y-89523500D01*
X153575354Y-89523500D01*
X153575352Y-89523500D01*
X153390197Y-89562855D01*
X153217269Y-89639848D01*
X153064129Y-89751110D01*
X152937466Y-89891783D01*
X152842820Y-90055715D01*
X152784326Y-90235742D01*
X152764540Y-90424000D01*
X152765284Y-90431084D01*
X152757726Y-90488482D01*
X152724934Y-90536193D01*
X152674056Y-90563817D01*
X152616183Y-90565332D01*
X152494649Y-90539500D01*
X152494646Y-90539500D01*
X152305354Y-90539500D01*
X152305352Y-90539500D01*
X152120197Y-90578855D01*
X151947269Y-90655848D01*
X151794129Y-90767110D01*
X151667466Y-90907783D01*
X151572820Y-91071715D01*
X151514326Y-91251742D01*
X151494540Y-91439999D01*
X145796000Y-91439999D01*
X145796000Y-90516500D01*
X147036213Y-90516500D01*
X147055999Y-90704757D01*
X147114493Y-90884784D01*
X147209139Y-91048716D01*
X147335802Y-91189389D01*
X147488942Y-91300651D01*
X147661870Y-91377644D01*
X147847025Y-91417000D01*
X147847027Y-91417000D01*
X148036319Y-91417000D01*
X148036321Y-91417000D01*
X148202149Y-91381752D01*
X148221476Y-91377644D01*
X148394403Y-91300651D01*
X148547544Y-91189388D01*
X148674206Y-91048716D01*
X148768852Y-90884784D01*
X148827347Y-90704756D01*
X148847133Y-90516500D01*
X148827347Y-90328244D01*
X148768852Y-90148216D01*
X148768852Y-90148215D01*
X148674206Y-89984283D01*
X148547543Y-89843610D01*
X148394403Y-89732348D01*
X148221475Y-89655355D01*
X148036321Y-89616000D01*
X148036319Y-89616000D01*
X147847027Y-89616000D01*
X147847025Y-89616000D01*
X147661870Y-89655355D01*
X147488942Y-89732348D01*
X147335802Y-89843610D01*
X147209139Y-89984283D01*
X147114493Y-90148215D01*
X147055999Y-90328242D01*
X147036213Y-90516500D01*
X145796000Y-90516500D01*
X145796000Y-89412000D01*
X168707364Y-89412000D01*
X169788000Y-89412000D01*
X169788000Y-88331364D01*
X169787999Y-88331364D01*
X169574507Y-88388569D01*
X169360421Y-88488400D01*
X169166921Y-88623890D01*
X168999890Y-88790921D01*
X168864400Y-88984421D01*
X168764569Y-89198507D01*
X168707364Y-89411999D01*
X168707364Y-89412000D01*
X145796000Y-89412000D01*
X145796000Y-88391999D01*
X146414540Y-88391999D01*
X146434326Y-88580257D01*
X146492820Y-88760284D01*
X146587466Y-88924216D01*
X146714129Y-89064889D01*
X146867269Y-89176151D01*
X147040197Y-89253144D01*
X147225352Y-89292500D01*
X147225354Y-89292500D01*
X147414646Y-89292500D01*
X147414648Y-89292500D01*
X147538084Y-89266262D01*
X147599803Y-89253144D01*
X147772730Y-89176151D01*
X147925871Y-89064888D01*
X148052533Y-88924216D01*
X148147179Y-88760284D01*
X148205674Y-88580256D01*
X148225460Y-88392000D01*
X148205674Y-88203744D01*
X148199523Y-88184815D01*
X148194982Y-88127103D01*
X148217137Y-88073615D01*
X148261160Y-88036015D01*
X148317455Y-88022500D01*
X148430648Y-88022500D01*
X148554084Y-87996262D01*
X148615803Y-87983144D01*
X148727755Y-87933298D01*
X148793564Y-87903999D01*
X148844000Y-87893278D01*
X148894436Y-87903999D01*
X149072197Y-87983144D01*
X149257352Y-88022500D01*
X149257354Y-88022500D01*
X149446646Y-88022500D01*
X149446648Y-88022500D01*
X149570084Y-87996262D01*
X149631803Y-87983144D01*
X149804730Y-87906151D01*
X149957871Y-87794888D01*
X150084533Y-87654216D01*
X150133612Y-87569207D01*
X150179000Y-87523820D01*
X150241000Y-87507207D01*
X150303000Y-87523820D01*
X150348387Y-87569207D01*
X150397466Y-87654216D01*
X150524129Y-87794889D01*
X150677269Y-87906151D01*
X150850197Y-87983144D01*
X151035352Y-88022500D01*
X151035354Y-88022500D01*
X151224646Y-88022500D01*
X151224648Y-88022500D01*
X151348084Y-87996262D01*
X151409803Y-87983144D01*
X151582730Y-87906151D01*
X151735871Y-87794888D01*
X151862533Y-87654216D01*
X151876514Y-87630000D01*
X164956540Y-87630000D01*
X164976326Y-87818257D01*
X165034820Y-87998284D01*
X165129466Y-88162216D01*
X165256129Y-88302889D01*
X165409269Y-88414151D01*
X165582197Y-88491144D01*
X165767352Y-88530500D01*
X165767354Y-88530500D01*
X165956646Y-88530500D01*
X165956648Y-88530500D01*
X166080083Y-88504262D01*
X166141803Y-88491144D01*
X166314730Y-88414151D01*
X166428677Y-88331364D01*
X166467870Y-88302889D01*
X166594533Y-88162216D01*
X166689179Y-87998284D01*
X166719814Y-87903999D01*
X166747674Y-87818256D01*
X166767460Y-87630000D01*
X166747674Y-87441744D01*
X166704951Y-87310256D01*
X166689179Y-87261715D01*
X166594533Y-87097783D01*
X166467870Y-86957110D01*
X166314730Y-86845848D01*
X166141802Y-86768855D01*
X165956648Y-86729500D01*
X165956646Y-86729500D01*
X165767354Y-86729500D01*
X165767352Y-86729500D01*
X165582197Y-86768855D01*
X165409269Y-86845848D01*
X165256129Y-86957110D01*
X165120746Y-87107469D01*
X165118682Y-87105611D01*
X165092556Y-87132649D01*
X165035498Y-87151172D01*
X165020552Y-87148533D01*
X165041238Y-87194993D01*
X165037053Y-87254845D01*
X164976326Y-87441742D01*
X164956540Y-87630000D01*
X151876514Y-87630000D01*
X151957179Y-87490284D01*
X152015674Y-87310256D01*
X152035460Y-87122000D01*
X152015674Y-86933744D01*
X151972951Y-86802256D01*
X151957179Y-86753715D01*
X151876515Y-86614000D01*
X163178540Y-86614000D01*
X163198326Y-86802257D01*
X163256820Y-86982284D01*
X163351466Y-87146216D01*
X163478129Y-87286889D01*
X163631269Y-87398151D01*
X163804197Y-87475144D01*
X163989352Y-87514500D01*
X163989354Y-87514500D01*
X164178646Y-87514500D01*
X164178648Y-87514500D01*
X164302083Y-87488262D01*
X164363803Y-87475144D01*
X164536730Y-87398151D01*
X164552220Y-87386897D01*
X164689870Y-87286889D01*
X164825254Y-87136531D01*
X164827318Y-87138390D01*
X164853408Y-87111372D01*
X164910468Y-87092829D01*
X164925446Y-87095469D01*
X164904760Y-87048997D01*
X164908946Y-86989153D01*
X164911176Y-86982288D01*
X164911179Y-86982284D01*
X164969674Y-86802256D01*
X164989460Y-86614000D01*
X164969674Y-86425744D01*
X164917361Y-86264742D01*
X164911179Y-86245715D01*
X164816533Y-86081783D01*
X164689870Y-85941110D01*
X164536730Y-85829848D01*
X164363802Y-85752855D01*
X164178648Y-85713500D01*
X164178646Y-85713500D01*
X163989354Y-85713500D01*
X163989352Y-85713500D01*
X163804197Y-85752855D01*
X163631269Y-85829848D01*
X163478129Y-85941110D01*
X163351466Y-86081783D01*
X163256820Y-86245715D01*
X163198326Y-86425742D01*
X163178540Y-86614000D01*
X151876515Y-86614000D01*
X151862533Y-86589783D01*
X151844694Y-86569971D01*
X151816527Y-86516997D01*
X151816528Y-86457000D01*
X151844694Y-86404027D01*
X151862533Y-86384216D01*
X151957179Y-86220284D01*
X152015674Y-86040256D01*
X152035460Y-85852000D01*
X152015674Y-85663744D01*
X151957179Y-85483716D01*
X151957179Y-85483715D01*
X151862533Y-85319783D01*
X151735870Y-85179110D01*
X151582730Y-85067848D01*
X151409802Y-84990855D01*
X151224648Y-84951500D01*
X151224646Y-84951500D01*
X151035354Y-84951500D01*
X151035352Y-84951500D01*
X150850197Y-84990855D01*
X150677269Y-85067848D01*
X150524129Y-85179110D01*
X150397466Y-85319783D01*
X150302820Y-85483715D01*
X150244326Y-85663742D01*
X150224540Y-85852000D01*
X150244326Y-86040257D01*
X150302820Y-86220284D01*
X150397466Y-86384216D01*
X150415305Y-86404028D01*
X150443472Y-86457002D01*
X150443472Y-86516998D01*
X150415305Y-86569972D01*
X150397466Y-86589783D01*
X150348387Y-86674792D01*
X150303000Y-86720179D01*
X150241000Y-86736792D01*
X150179000Y-86720179D01*
X150133613Y-86674792D01*
X150084533Y-86589784D01*
X149957870Y-86449110D01*
X149804730Y-86337848D01*
X149631802Y-86260855D01*
X149446648Y-86221500D01*
X149446646Y-86221500D01*
X149257354Y-86221500D01*
X149257352Y-86221500D01*
X149072201Y-86260854D01*
X148894436Y-86340001D01*
X148844000Y-86350721D01*
X148793564Y-86340001D01*
X148624531Y-86264742D01*
X148615803Y-86260856D01*
X148615802Y-86260855D01*
X148615798Y-86260854D01*
X148430648Y-86221500D01*
X148430646Y-86221500D01*
X148241354Y-86221500D01*
X148241352Y-86221500D01*
X148056197Y-86260855D01*
X147883269Y-86337848D01*
X147730129Y-86449110D01*
X147603466Y-86589783D01*
X147508820Y-86753715D01*
X147450326Y-86933742D01*
X147432067Y-87107469D01*
X147430540Y-87122000D01*
X147450326Y-87310256D01*
X147456476Y-87329184D01*
X147461018Y-87386897D01*
X147438863Y-87440385D01*
X147394840Y-87477985D01*
X147338545Y-87491500D01*
X147225352Y-87491500D01*
X147040197Y-87530855D01*
X146867269Y-87607848D01*
X146714129Y-87719110D01*
X146587466Y-87859783D01*
X146492820Y-88023715D01*
X146434326Y-88203742D01*
X146414540Y-88391999D01*
X145796000Y-88391999D01*
X145796000Y-85789158D01*
X145805029Y-85742707D01*
X145830802Y-85703020D01*
X145869562Y-85675879D01*
X145994730Y-85620151D01*
X145994730Y-85620150D01*
X145994732Y-85620150D01*
X146147870Y-85508889D01*
X146274533Y-85368216D01*
X146369179Y-85204284D01*
X146377358Y-85179112D01*
X146427674Y-85024256D01*
X146447460Y-84836000D01*
X146427674Y-84647744D01*
X146369179Y-84467716D01*
X146369179Y-84467715D01*
X146274533Y-84303783D01*
X146147870Y-84163110D01*
X145994732Y-84051849D01*
X145925872Y-84021191D01*
X145869562Y-83996120D01*
X145830802Y-83968980D01*
X145805029Y-83929293D01*
X145796000Y-83882842D01*
X145796000Y-83302093D01*
X145796597Y-83289939D01*
X145802741Y-83227560D01*
X145814018Y-83113056D01*
X145818757Y-83089232D01*
X145868577Y-82924994D01*
X145877875Y-82902549D01*
X145958775Y-82751195D01*
X145972272Y-82730995D01*
X146081149Y-82598328D01*
X146098328Y-82581149D01*
X146230995Y-82472272D01*
X146251195Y-82458775D01*
X146402549Y-82377875D01*
X146424994Y-82368577D01*
X146589232Y-82318757D01*
X146613056Y-82314018D01*
X146789938Y-82296597D01*
X146802093Y-82296000D01*
X149345039Y-82296000D01*
X149358922Y-82296780D01*
G37*
%TD.AperFunction*%
%TD*%
%TA.AperFunction,Conductor*%
%TO.N,GND*%
G36*
X154613261Y-113907708D02*
G01*
X154668990Y-113919553D01*
X154693630Y-113927559D01*
X154745681Y-113950734D01*
X154768130Y-113963695D01*
X154814217Y-113997179D01*
X154833480Y-114014523D01*
X154871600Y-114056858D01*
X154886836Y-114077827D01*
X154915323Y-114127169D01*
X154925865Y-114150847D01*
X154943468Y-114205024D01*
X154948858Y-114230380D01*
X154951948Y-114259779D01*
X154954726Y-114271575D01*
X154954728Y-114328416D01*
X154951947Y-114340224D01*
X154948857Y-114369620D01*
X154943468Y-114394972D01*
X154925864Y-114449150D01*
X154915321Y-114472829D01*
X154886837Y-114522167D01*
X154871599Y-114543141D01*
X154833488Y-114585468D01*
X154814221Y-114602816D01*
X154768124Y-114636306D01*
X154745677Y-114649265D01*
X154693639Y-114672434D01*
X154668986Y-114680445D01*
X154631790Y-114688352D01*
X154613263Y-114692290D01*
X154587482Y-114695000D01*
X154530516Y-114695000D01*
X154504737Y-114692290D01*
X154466635Y-114684191D01*
X154449010Y-114680445D01*
X154424358Y-114672435D01*
X154423638Y-114672114D01*
X154372313Y-114649263D01*
X154349868Y-114636304D01*
X154303779Y-114602818D01*
X154284515Y-114585473D01*
X154246397Y-114543139D01*
X154231160Y-114522166D01*
X154202676Y-114472830D01*
X154192133Y-114449153D01*
X154174529Y-114394972D01*
X154169140Y-114369617D01*
X154163186Y-114312958D01*
X154163186Y-114287040D01*
X154166051Y-114259777D01*
X154169141Y-114230375D01*
X154174530Y-114205022D01*
X154178117Y-114193983D01*
X154192135Y-114150840D01*
X154202670Y-114127176D01*
X154231162Y-114077826D01*
X154246397Y-114056858D01*
X154284517Y-114014521D01*
X154303779Y-113997179D01*
X154349869Y-113963692D01*
X154372316Y-113950734D01*
X154424359Y-113927563D01*
X154449015Y-113919552D01*
X154449025Y-113919550D01*
X154453509Y-113918596D01*
X154504736Y-113907709D01*
X154530515Y-113905000D01*
X154587488Y-113905000D01*
X154613261Y-113907708D01*
G37*
%TD.AperFunction*%
%TA.AperFunction,Conductor*%
G36*
X160074261Y-90285708D02*
G01*
X160129990Y-90297553D01*
X160154630Y-90305559D01*
X160206681Y-90328734D01*
X160229130Y-90341695D01*
X160275217Y-90375179D01*
X160294480Y-90392523D01*
X160332600Y-90434858D01*
X160347836Y-90455827D01*
X160376323Y-90505169D01*
X160386865Y-90528847D01*
X160404468Y-90583023D01*
X160409858Y-90608382D01*
X160415812Y-90665040D01*
X160415812Y-90690959D01*
X160409858Y-90747613D01*
X160404468Y-90772971D01*
X160386864Y-90827151D01*
X160376320Y-90850834D01*
X160347837Y-90900167D01*
X160332599Y-90921139D01*
X160294478Y-90963476D01*
X160275215Y-90980820D01*
X160229132Y-91014302D01*
X160206680Y-91027265D01*
X160154640Y-91050434D01*
X160129990Y-91058444D01*
X160097942Y-91065256D01*
X160074262Y-91070290D01*
X160048482Y-91073000D01*
X159991516Y-91073000D01*
X159965737Y-91070290D01*
X159927635Y-91062191D01*
X159910010Y-91058445D01*
X159885358Y-91050435D01*
X159884638Y-91050114D01*
X159833313Y-91027263D01*
X159810868Y-91014304D01*
X159764779Y-90980818D01*
X159745515Y-90963473D01*
X159707397Y-90921139D01*
X159692160Y-90900166D01*
X159663676Y-90850830D01*
X159653133Y-90827151D01*
X159635529Y-90772971D01*
X159630140Y-90747617D01*
X159629199Y-90738666D01*
X159624186Y-90690958D01*
X159624186Y-90665040D01*
X159625369Y-90653783D01*
X159630141Y-90608375D01*
X159635530Y-90583022D01*
X159636884Y-90578855D01*
X159653135Y-90528840D01*
X159663670Y-90505176D01*
X159692162Y-90455826D01*
X159707397Y-90434858D01*
X159708242Y-90433920D01*
X159745517Y-90392521D01*
X159764779Y-90375179D01*
X159810869Y-90341692D01*
X159833316Y-90328734D01*
X159842029Y-90324855D01*
X159885358Y-90305563D01*
X159910015Y-90297552D01*
X159910025Y-90297550D01*
X159925174Y-90294330D01*
X159965736Y-90285709D01*
X159991515Y-90283000D01*
X160048488Y-90283000D01*
X160074261Y-90285708D01*
G37*
%TD.AperFunction*%
%TA.AperFunction,Conductor*%
G36*
X147995934Y-90124208D02*
G01*
X148051663Y-90136053D01*
X148076303Y-90144059D01*
X148128354Y-90167234D01*
X148150803Y-90180195D01*
X148196890Y-90213679D01*
X148216153Y-90231023D01*
X148254273Y-90273358D01*
X148269509Y-90294327D01*
X148297996Y-90343669D01*
X148308538Y-90367347D01*
X148326141Y-90421523D01*
X148331531Y-90446881D01*
X148337485Y-90503538D01*
X148337485Y-90529458D01*
X148331531Y-90586113D01*
X148326141Y-90611471D01*
X148308537Y-90665651D01*
X148297993Y-90689333D01*
X148269509Y-90738669D01*
X148254272Y-90759641D01*
X148216161Y-90801968D01*
X148196894Y-90819316D01*
X148150797Y-90852806D01*
X148128350Y-90865765D01*
X148076312Y-90888934D01*
X148051659Y-90896945D01*
X148014463Y-90904852D01*
X147995936Y-90908790D01*
X147970155Y-90911500D01*
X147913189Y-90911500D01*
X147887410Y-90908790D01*
X147846836Y-90900166D01*
X147831683Y-90896945D01*
X147807031Y-90888935D01*
X147806311Y-90888614D01*
X147754986Y-90865763D01*
X147732541Y-90852804D01*
X147686452Y-90819318D01*
X147667188Y-90801973D01*
X147629070Y-90759639D01*
X147613833Y-90738666D01*
X147585349Y-90689330D01*
X147574806Y-90665651D01*
X147557202Y-90611471D01*
X147551813Y-90586117D01*
X147545859Y-90529458D01*
X147545859Y-90503540D01*
X147546513Y-90497310D01*
X147551814Y-90446875D01*
X147557203Y-90421522D01*
X147574808Y-90367340D01*
X147585343Y-90343676D01*
X147613835Y-90294326D01*
X147629070Y-90273358D01*
X147667190Y-90231021D01*
X147686452Y-90213679D01*
X147732542Y-90180192D01*
X147754989Y-90167234D01*
X147807032Y-90144063D01*
X147831688Y-90136052D01*
X147831698Y-90136050D01*
X147836182Y-90135096D01*
X147887409Y-90124209D01*
X147913188Y-90121500D01*
X147970161Y-90121500D01*
X147995934Y-90124208D01*
G37*
%TD.AperFunction*%
%TA.AperFunction,Conductor*%
G36*
X165916261Y-87237708D02*
G01*
X165971990Y-87249553D01*
X165996630Y-87257559D01*
X166048681Y-87280734D01*
X166071130Y-87293695D01*
X166117217Y-87327179D01*
X166136480Y-87344523D01*
X166174600Y-87386858D01*
X166189836Y-87407827D01*
X166218323Y-87457169D01*
X166228865Y-87480847D01*
X166246468Y-87535023D01*
X166251858Y-87560382D01*
X166257812Y-87617040D01*
X166257812Y-87642959D01*
X166251858Y-87699613D01*
X166246468Y-87724971D01*
X166228864Y-87779151D01*
X166218320Y-87802834D01*
X166189837Y-87852167D01*
X166174599Y-87873139D01*
X166136478Y-87915476D01*
X166117215Y-87932820D01*
X166071132Y-87966302D01*
X166048680Y-87979265D01*
X165996640Y-88002434D01*
X165971990Y-88010444D01*
X165939942Y-88017256D01*
X165916262Y-88022290D01*
X165890482Y-88025000D01*
X165833516Y-88025000D01*
X165807737Y-88022290D01*
X165769635Y-88014191D01*
X165752010Y-88010445D01*
X165727358Y-88002435D01*
X165726638Y-88002114D01*
X165675313Y-87979263D01*
X165652868Y-87966304D01*
X165606779Y-87932818D01*
X165587515Y-87915473D01*
X165549397Y-87873139D01*
X165534160Y-87852166D01*
X165505676Y-87802830D01*
X165495133Y-87779151D01*
X165477529Y-87724971D01*
X165472140Y-87699617D01*
X165469694Y-87676344D01*
X165466186Y-87642958D01*
X165466186Y-87617039D01*
X165467737Y-87602284D01*
X165472141Y-87560374D01*
X165477528Y-87535032D01*
X165504133Y-87453149D01*
X165529910Y-87408502D01*
X165587523Y-87344515D01*
X165606772Y-87327183D01*
X165652870Y-87293692D01*
X165675309Y-87280736D01*
X165727358Y-87257563D01*
X165752015Y-87249552D01*
X165752025Y-87249550D01*
X165756509Y-87248596D01*
X165807736Y-87237709D01*
X165833515Y-87235000D01*
X165890488Y-87235000D01*
X165916261Y-87237708D01*
G37*
%TD.AperFunction*%
%TA.AperFunction,Conductor*%
G36*
X156815899Y-65360138D02*
G01*
X156820234Y-65360448D01*
X157900312Y-65457102D01*
X157904690Y-65457572D01*
X158980645Y-65592717D01*
X158984927Y-65593332D01*
X160055376Y-65766794D01*
X160059706Y-65767575D01*
X161123253Y-65979128D01*
X161127520Y-65980056D01*
X162182840Y-66229435D01*
X162187077Y-66230516D01*
X163025929Y-66460644D01*
X163232828Y-66517404D01*
X163237075Y-66518651D01*
X164271898Y-66842674D01*
X164276066Y-66844061D01*
X165298688Y-67204822D01*
X165302786Y-67206351D01*
X166159118Y-67543276D01*
X166311851Y-67603370D01*
X166315941Y-67605064D01*
X167310204Y-68037851D01*
X167314204Y-68039678D01*
X168292368Y-68507667D01*
X168296289Y-68509629D01*
X169257168Y-69012257D01*
X169261052Y-69014378D01*
X170203350Y-69550964D01*
X170207103Y-69553191D01*
X170581165Y-69784257D01*
X171129648Y-70123067D01*
X171133367Y-70125457D01*
X171828377Y-70589848D01*
X172034966Y-70727886D01*
X172038595Y-70730405D01*
X172664853Y-71182001D01*
X172918149Y-71364653D01*
X172921692Y-71367306D01*
X173778023Y-72032524D01*
X173781441Y-72035279D01*
X174020593Y-72235144D01*
X174613481Y-72730636D01*
X174616791Y-72733503D01*
X175423554Y-73458179D01*
X175426767Y-73461172D01*
X176207097Y-74214130D01*
X176210177Y-74217210D01*
X176557207Y-74576855D01*
X176963135Y-74997540D01*
X176966130Y-75000755D01*
X177690790Y-75807500D01*
X177693668Y-75810823D01*
X177944441Y-76110889D01*
X178389017Y-76642852D01*
X178391795Y-76646299D01*
X179057001Y-77502615D01*
X179059654Y-77506158D01*
X179693897Y-78385705D01*
X179696421Y-78389341D01*
X180298847Y-79290935D01*
X180301240Y-79294659D01*
X180488162Y-79597258D01*
X180795720Y-80095149D01*
X180871100Y-80217177D01*
X180873353Y-80220974D01*
X180933190Y-80326054D01*
X181409928Y-81163254D01*
X181412050Y-81167139D01*
X181914668Y-82127999D01*
X181916649Y-82131958D01*
X182384623Y-83110090D01*
X182386462Y-83114116D01*
X182819243Y-84108366D01*
X182820937Y-84112456D01*
X183217947Y-85121497D01*
X183219494Y-85125644D01*
X183580240Y-86148225D01*
X183581638Y-86152425D01*
X183905656Y-87187232D01*
X183906903Y-87191479D01*
X184193784Y-88237204D01*
X184194878Y-88241493D01*
X184444244Y-89296758D01*
X184445185Y-89301084D01*
X184656729Y-90364588D01*
X184657515Y-90368944D01*
X184830967Y-91439330D01*
X184831597Y-91443712D01*
X184966733Y-92519606D01*
X184967206Y-92524007D01*
X185063855Y-93604025D01*
X185064171Y-93608440D01*
X185122210Y-94691237D01*
X185122368Y-94695661D01*
X185141723Y-95779869D01*
X185141724Y-95784229D01*
X185123510Y-96835932D01*
X185123362Y-96840224D01*
X185068740Y-97890738D01*
X185068443Y-97895022D01*
X184977479Y-98943025D01*
X184977033Y-98947296D01*
X184849840Y-99991479D01*
X184849247Y-99995732D01*
X184685972Y-101034905D01*
X184685232Y-101039134D01*
X184486076Y-102072027D01*
X184485190Y-102076230D01*
X184250391Y-103101587D01*
X184249361Y-103105755D01*
X183979187Y-104122423D01*
X183978012Y-104126553D01*
X183672813Y-105133205D01*
X183671496Y-105137293D01*
X183331621Y-106132780D01*
X183330163Y-106136819D01*
X182956009Y-107119979D01*
X182954413Y-107123965D01*
X182546456Y-108093544D01*
X182544722Y-108097473D01*
X182103441Y-109052338D01*
X182101573Y-109056204D01*
X181627478Y-109995249D01*
X181625476Y-109999048D01*
X181119155Y-110921108D01*
X181117023Y-110924836D01*
X180579101Y-111828772D01*
X180576842Y-111832424D01*
X180007909Y-112717248D01*
X180005524Y-112720819D01*
X179406311Y-113585387D01*
X179403804Y-113588873D01*
X178775028Y-114432160D01*
X178772402Y-114435558D01*
X178114791Y-115256580D01*
X178112049Y-115259885D01*
X177426388Y-116057666D01*
X177423533Y-116060873D01*
X176710692Y-116834401D01*
X176707728Y-116837508D01*
X175968518Y-117585900D01*
X175965448Y-117588903D01*
X175200740Y-118311279D01*
X175197567Y-118314173D01*
X174408648Y-119009332D01*
X174407027Y-119010736D01*
X174227913Y-119163142D01*
X173893400Y-119492208D01*
X173583485Y-119844517D01*
X173299776Y-120218245D01*
X173299772Y-120218250D01*
X173299772Y-120218251D01*
X173083198Y-120550855D01*
X173043727Y-120611472D01*
X172816700Y-121022112D01*
X172619861Y-121448048D01*
X172454233Y-121887072D01*
X172320683Y-122336887D01*
X172219902Y-122795162D01*
X172181337Y-123060507D01*
X172157012Y-123227889D01*
X172152415Y-123259516D01*
X172118573Y-123727514D01*
X172118573Y-123962133D01*
X172118566Y-124137545D01*
X172118573Y-124137670D01*
X172118573Y-127685500D01*
X172101960Y-127747500D01*
X172056573Y-127792887D01*
X171994573Y-127809500D01*
X154700346Y-127809501D01*
X137406118Y-127809501D01*
X137344119Y-127792889D01*
X137298732Y-127747502D01*
X137282119Y-127685502D01*
X137282119Y-126314617D01*
X142492500Y-126314617D01*
X142498913Y-126385193D01*
X142498914Y-126385196D01*
X142549522Y-126547606D01*
X142549523Y-126547607D01*
X142637528Y-126693186D01*
X142757813Y-126813471D01*
X142757815Y-126813472D01*
X142903394Y-126901478D01*
X143065804Y-126952086D01*
X143112857Y-126956362D01*
X143136383Y-126958500D01*
X143136384Y-126958500D01*
X143649616Y-126958500D01*
X143649617Y-126958500D01*
X143667261Y-126956896D01*
X143720196Y-126952086D01*
X143882606Y-126901478D01*
X144024671Y-126815596D01*
X144069912Y-126799164D01*
X144118007Y-126801199D01*
X144161702Y-126821395D01*
X144190270Y-126842151D01*
X144190271Y-126842151D01*
X144190272Y-126842152D01*
X144363197Y-126919144D01*
X144548352Y-126958500D01*
X144548354Y-126958500D01*
X144737646Y-126958500D01*
X144737648Y-126958500D01*
X144861083Y-126932262D01*
X144922803Y-126919144D01*
X145095730Y-126842151D01*
X145132718Y-126815278D01*
X145248870Y-126730889D01*
X145375533Y-126590216D01*
X145470179Y-126426284D01*
X145506474Y-126314579D01*
X145528674Y-126246256D01*
X145543500Y-126105192D01*
X145543500Y-126058000D01*
X148121001Y-126058000D01*
X148121001Y-126314579D01*
X148127408Y-126385104D01*
X148177981Y-126547397D01*
X148265925Y-126692875D01*
X148386124Y-126813074D01*
X148531603Y-126901019D01*
X148693893Y-126951590D01*
X148764424Y-126958000D01*
X148771000Y-126958000D01*
X148771000Y-126058000D01*
X148121001Y-126058000D01*
X145543500Y-126058000D01*
X145543500Y-125558000D01*
X148121000Y-125558000D01*
X148771000Y-125558000D01*
X148771000Y-124658001D01*
X148764421Y-124658001D01*
X148693895Y-124664408D01*
X148531602Y-124714981D01*
X148386124Y-124802925D01*
X148265925Y-124923124D01*
X148177980Y-125068603D01*
X148127409Y-125230893D01*
X148121000Y-125301424D01*
X148121000Y-125558000D01*
X145543500Y-125558000D01*
X145543500Y-125510808D01*
X145528674Y-125369744D01*
X145483530Y-125230806D01*
X145470179Y-125189715D01*
X145375533Y-125025783D01*
X145248870Y-124885110D01*
X145095730Y-124773848D01*
X144922802Y-124696855D01*
X144737648Y-124657500D01*
X144737646Y-124657500D01*
X144548354Y-124657500D01*
X144548352Y-124657500D01*
X144363197Y-124696855D01*
X144190268Y-124773849D01*
X144161700Y-124794604D01*
X144118006Y-124814800D01*
X144069913Y-124816834D01*
X144024668Y-124800401D01*
X143883365Y-124714981D01*
X143882606Y-124714522D01*
X143721785Y-124664409D01*
X143720193Y-124663913D01*
X143649617Y-124657500D01*
X143649616Y-124657500D01*
X143136384Y-124657500D01*
X143136383Y-124657500D01*
X143065806Y-124663913D01*
X142992205Y-124686848D01*
X142903394Y-124714522D01*
X142903392Y-124714522D01*
X142903392Y-124714523D01*
X142757813Y-124802528D01*
X142637528Y-124922813D01*
X142549523Y-125068392D01*
X142498913Y-125230806D01*
X142492500Y-125301383D01*
X142492500Y-126314617D01*
X137282119Y-126314617D01*
X137282119Y-123973522D01*
X137282102Y-123972968D01*
X137282154Y-123829976D01*
X137271160Y-123677515D01*
X137248236Y-123359631D01*
X137180358Y-122892977D01*
X137078875Y-122432461D01*
X136944320Y-121980501D01*
X136797462Y-121592478D01*
X136790164Y-121535164D01*
X136809631Y-121480760D01*
X136851637Y-121441085D01*
X136907062Y-121424753D01*
X136963871Y-121435310D01*
X137134197Y-121511144D01*
X137319352Y-121550500D01*
X137319354Y-121550500D01*
X137508646Y-121550500D01*
X137508648Y-121550500D01*
X137632083Y-121524262D01*
X137693803Y-121511144D01*
X137866730Y-121434151D01*
X137897218Y-121412000D01*
X138019870Y-121322889D01*
X138146533Y-121182216D01*
X138241179Y-121018284D01*
X138285337Y-120882379D01*
X140096222Y-120882379D01*
X140116008Y-121070636D01*
X140174502Y-121250663D01*
X140269148Y-121414595D01*
X140395811Y-121555268D01*
X140548951Y-121666530D01*
X140721879Y-121743523D01*
X140907034Y-121782879D01*
X140907036Y-121782879D01*
X141096328Y-121782879D01*
X141096330Y-121782879D01*
X141219765Y-121756641D01*
X141281485Y-121743523D01*
X141454412Y-121666530D01*
X141544150Y-121601332D01*
X141607552Y-121555268D01*
X141734215Y-121414595D01*
X141828861Y-121250663D01*
X141828860Y-121250663D01*
X141887356Y-121070635D01*
X141907142Y-120882379D01*
X141887356Y-120694123D01*
X141857014Y-120600742D01*
X141828861Y-120514094D01*
X141734215Y-120350162D01*
X141607552Y-120209489D01*
X141514661Y-120142000D01*
X146922540Y-120142000D01*
X146942326Y-120330257D01*
X147000820Y-120510284D01*
X147095466Y-120674216D01*
X147222129Y-120814889D01*
X147375267Y-120926150D01*
X147468026Y-120967449D01*
X147520391Y-121011389D01*
X147541515Y-121076400D01*
X147524979Y-121142727D01*
X147508821Y-121170714D01*
X147450326Y-121350742D01*
X147430540Y-121538999D01*
X147450326Y-121727257D01*
X147508820Y-121907284D01*
X147553689Y-121984999D01*
X147570302Y-122046998D01*
X147553690Y-122108998D01*
X147508820Y-122186716D01*
X147450326Y-122366742D01*
X147430540Y-122554999D01*
X147450326Y-122743257D01*
X147508820Y-122923284D01*
X147603466Y-123087216D01*
X147730129Y-123227889D01*
X147883269Y-123339151D01*
X148056197Y-123416144D01*
X148241352Y-123455500D01*
X148241354Y-123455500D01*
X148430646Y-123455500D01*
X148430648Y-123455500D01*
X148554083Y-123429262D01*
X148615803Y-123416144D01*
X148788730Y-123339151D01*
X148788729Y-123339151D01*
X148941870Y-123227889D01*
X148964993Y-123202209D01*
X149068533Y-123087216D01*
X149163179Y-122923284D01*
X149221674Y-122743256D01*
X149241460Y-122555000D01*
X149221674Y-122366744D01*
X149163179Y-122186716D01*
X149163179Y-122186715D01*
X149118309Y-122108999D01*
X149101696Y-122046998D01*
X149118308Y-121985001D01*
X149163179Y-121907284D01*
X149221674Y-121727256D01*
X149241460Y-121539000D01*
X149221674Y-121350744D01*
X149163179Y-121170716D01*
X149163179Y-121170715D01*
X149068533Y-121006783D01*
X148941870Y-120866110D01*
X148788730Y-120754848D01*
X148695972Y-120713549D01*
X148643607Y-120669609D01*
X148622483Y-120604596D01*
X148639022Y-120538269D01*
X148644646Y-120528526D01*
X148655179Y-120510284D01*
X148713674Y-120330256D01*
X148733460Y-120142000D01*
X148713674Y-119953744D01*
X148678184Y-119844517D01*
X148655179Y-119773715D01*
X148560533Y-119609783D01*
X148433870Y-119469110D01*
X148280730Y-119357848D01*
X148107802Y-119280855D01*
X147922648Y-119241500D01*
X147922646Y-119241500D01*
X147733354Y-119241500D01*
X147733352Y-119241500D01*
X147548197Y-119280855D01*
X147375269Y-119357848D01*
X147222129Y-119469110D01*
X147095466Y-119609783D01*
X147000820Y-119773715D01*
X146942326Y-119953742D01*
X146922540Y-120142000D01*
X141514661Y-120142000D01*
X141454412Y-120098227D01*
X141281484Y-120021234D01*
X141096330Y-119981879D01*
X141096328Y-119981879D01*
X140907036Y-119981879D01*
X140907034Y-119981879D01*
X140721879Y-120021234D01*
X140548951Y-120098227D01*
X140395811Y-120209489D01*
X140269148Y-120350162D01*
X140174502Y-120514094D01*
X140116008Y-120694121D01*
X140096222Y-120882379D01*
X138285337Y-120882379D01*
X138299674Y-120838256D01*
X138319460Y-120650000D01*
X138299674Y-120461744D01*
X138241179Y-120281716D01*
X138241179Y-120281715D01*
X138146533Y-120117783D01*
X138019870Y-119977110D01*
X137866730Y-119865848D01*
X137693802Y-119788855D01*
X137508648Y-119749500D01*
X137508646Y-119749500D01*
X137319354Y-119749500D01*
X137319352Y-119749500D01*
X137134197Y-119788855D01*
X136961269Y-119865848D01*
X136808129Y-119977110D01*
X136681466Y-120117783D01*
X136586820Y-120281715D01*
X136528326Y-120461742D01*
X136518551Y-120554746D01*
X136497833Y-120611417D01*
X136452820Y-120651599D01*
X136394171Y-120665779D01*
X136335773Y-120650600D01*
X136291453Y-120609654D01*
X136226464Y-120510284D01*
X136182955Y-120443757D01*
X136092018Y-120304710D01*
X135806017Y-119929776D01*
X135493620Y-119576526D01*
X135156480Y-119246829D01*
X135156476Y-119246825D01*
X135134130Y-119227931D01*
X135109418Y-119207035D01*
X135107047Y-119204793D01*
X134975383Y-119093704D01*
X134975199Y-119093549D01*
X134974944Y-119093333D01*
X134973491Y-119092082D01*
X134176813Y-118395815D01*
X134173614Y-118392920D01*
X133402433Y-117670099D01*
X133399337Y-117667094D01*
X132804933Y-117069783D01*
X132653770Y-116917880D01*
X132650812Y-116914803D01*
X131931757Y-116140096D01*
X131928881Y-116136888D01*
X131840044Y-116034233D01*
X131358420Y-115477693D01*
X131237227Y-115337648D01*
X131234461Y-115334337D01*
X131014878Y-115062000D01*
X135492540Y-115062000D01*
X135512326Y-115250257D01*
X135570820Y-115430284D01*
X135665466Y-115594216D01*
X135792129Y-115734889D01*
X135945269Y-115846151D01*
X136118197Y-115923144D01*
X136303352Y-115962500D01*
X136392951Y-115962500D01*
X136443386Y-115973220D01*
X136485101Y-116003528D01*
X136510880Y-116048179D01*
X136513963Y-116057666D01*
X136564843Y-116214261D01*
X136659489Y-116378193D01*
X136786152Y-116518866D01*
X136939292Y-116630128D01*
X137112220Y-116707121D01*
X137297375Y-116746477D01*
X137297377Y-116746477D01*
X137486669Y-116746477D01*
X137486671Y-116746477D01*
X137610107Y-116720239D01*
X137671826Y-116707121D01*
X137844753Y-116630128D01*
X137997894Y-116518865D01*
X138124556Y-116378193D01*
X138219202Y-116214261D01*
X138277697Y-116034233D01*
X138297483Y-115845977D01*
X138277697Y-115657721D01*
X138219202Y-115477693D01*
X138219202Y-115477692D01*
X138124556Y-115313760D01*
X137997893Y-115173087D01*
X137844753Y-115061825D01*
X137671825Y-114984832D01*
X137486671Y-114945477D01*
X137486669Y-114945477D01*
X137397073Y-114945477D01*
X137346638Y-114934757D01*
X137304923Y-114904449D01*
X137279142Y-114859795D01*
X137269453Y-114829976D01*
X138518563Y-114829976D01*
X138538349Y-115018234D01*
X138596843Y-115198261D01*
X138691489Y-115362193D01*
X138818152Y-115502866D01*
X138971292Y-115614128D01*
X139144220Y-115691121D01*
X139329375Y-115730477D01*
X139329377Y-115730477D01*
X139518669Y-115730477D01*
X139518671Y-115730477D01*
X139642106Y-115704239D01*
X139703826Y-115691121D01*
X139876753Y-115614128D01*
X140029894Y-115502865D01*
X140156556Y-115362193D01*
X140251202Y-115198261D01*
X140309697Y-115018233D01*
X140329483Y-114829977D01*
X140309697Y-114641721D01*
X140254821Y-114472830D01*
X140251202Y-114461692D01*
X140156556Y-114297760D01*
X140029893Y-114157087D01*
X139876753Y-114045825D01*
X139703825Y-113968832D01*
X139518671Y-113929477D01*
X139518669Y-113929477D01*
X139329377Y-113929477D01*
X139329375Y-113929477D01*
X139144220Y-113968832D01*
X138971292Y-114045825D01*
X138818152Y-114157087D01*
X138691489Y-114297760D01*
X138596843Y-114461692D01*
X138538349Y-114641719D01*
X138518563Y-114829976D01*
X137269453Y-114829976D01*
X137225179Y-114693715D01*
X137130533Y-114529783D01*
X137003870Y-114389110D01*
X136850730Y-114277848D01*
X136677802Y-114200855D01*
X136492648Y-114161500D01*
X136492646Y-114161500D01*
X136303354Y-114161500D01*
X136303352Y-114161500D01*
X136118197Y-114200855D01*
X135945269Y-114277848D01*
X135792129Y-114389110D01*
X135665466Y-114529783D01*
X135570820Y-114693715D01*
X135512326Y-114873742D01*
X135492540Y-115062000D01*
X131014878Y-115062000D01*
X130700776Y-114672435D01*
X130571016Y-114511500D01*
X130568375Y-114508104D01*
X130533437Y-114461546D01*
X129934005Y-113662742D01*
X129931475Y-113659247D01*
X129589237Y-113168500D01*
X129326841Y-112792242D01*
X129324446Y-112788676D01*
X129301917Y-112753848D01*
X128823332Y-112013999D01*
X139048540Y-112013999D01*
X139068326Y-112202257D01*
X139126820Y-112382284D01*
X139221466Y-112546216D01*
X139348129Y-112686889D01*
X139501269Y-112798151D01*
X139674197Y-112875144D01*
X139859352Y-112914500D01*
X139859354Y-112914500D01*
X140048646Y-112914500D01*
X140048648Y-112914500D01*
X140172084Y-112888262D01*
X140233803Y-112875144D01*
X140406730Y-112798151D01*
X140559871Y-112686888D01*
X140651827Y-112584760D01*
X140693539Y-112554454D01*
X140743975Y-112543734D01*
X140794411Y-112554455D01*
X140944197Y-112621144D01*
X141129352Y-112660500D01*
X141129354Y-112660500D01*
X141318646Y-112660500D01*
X141318648Y-112660500D01*
X141442083Y-112634262D01*
X141503803Y-112621144D01*
X141676730Y-112544151D01*
X141829871Y-112432888D01*
X141956533Y-112292216D01*
X142051179Y-112128284D01*
X142109674Y-111948256D01*
X142129460Y-111760000D01*
X142109674Y-111571744D01*
X142066951Y-111440256D01*
X142051179Y-111391715D01*
X141956533Y-111227783D01*
X141829870Y-111087110D01*
X141676730Y-110975848D01*
X141503802Y-110898855D01*
X141318648Y-110859500D01*
X141318646Y-110859500D01*
X141129354Y-110859500D01*
X141129352Y-110859500D01*
X140944197Y-110898855D01*
X140771269Y-110975848D01*
X140618132Y-111087109D01*
X140618129Y-111087111D01*
X140618129Y-111087112D01*
X140558934Y-111152855D01*
X140526174Y-111189238D01*
X140484459Y-111219545D01*
X140434024Y-111230265D01*
X140383589Y-111219545D01*
X140233800Y-111152854D01*
X140048648Y-111113500D01*
X140048646Y-111113500D01*
X139859354Y-111113500D01*
X139859352Y-111113500D01*
X139674197Y-111152855D01*
X139501269Y-111229848D01*
X139348129Y-111341110D01*
X139221466Y-111481783D01*
X139126820Y-111645715D01*
X139068326Y-111825742D01*
X139048540Y-112013999D01*
X128823332Y-112013999D01*
X128750356Y-111901184D01*
X128748119Y-111897590D01*
X128205234Y-110990625D01*
X128203111Y-110986935D01*
X127692127Y-110061665D01*
X127690112Y-110057862D01*
X127658325Y-109995249D01*
X127211636Y-109115390D01*
X127209756Y-109111521D01*
X127158461Y-109001129D01*
X126906092Y-108457999D01*
X138540540Y-108457999D01*
X138560326Y-108646257D01*
X138618820Y-108826284D01*
X138713466Y-108990216D01*
X138840129Y-109130889D01*
X138993269Y-109242151D01*
X139166197Y-109319144D01*
X139351352Y-109358500D01*
X139351354Y-109358500D01*
X139540646Y-109358500D01*
X139540648Y-109358500D01*
X139664084Y-109332262D01*
X139725803Y-109319144D01*
X139898730Y-109242151D01*
X140051871Y-109130888D01*
X140178533Y-108990216D01*
X140192515Y-108965999D01*
X141842540Y-108965999D01*
X141862326Y-109154257D01*
X141920820Y-109334284D01*
X142015466Y-109498216D01*
X142142129Y-109638889D01*
X142295269Y-109750151D01*
X142468197Y-109827144D01*
X142653352Y-109866500D01*
X142653354Y-109866500D01*
X142842646Y-109866500D01*
X142842648Y-109866500D01*
X142966084Y-109840262D01*
X143027803Y-109827144D01*
X143200730Y-109750151D01*
X143353871Y-109638888D01*
X143480533Y-109498216D01*
X143575179Y-109334284D01*
X143633674Y-109154256D01*
X143653460Y-108966000D01*
X143633674Y-108777744D01*
X143590951Y-108646256D01*
X143575179Y-108597715D01*
X143567838Y-108585000D01*
X148954540Y-108585000D01*
X148957468Y-108612855D01*
X148974326Y-108773257D01*
X149032820Y-108953284D01*
X149127466Y-109117216D01*
X149254129Y-109257889D01*
X149407269Y-109369151D01*
X149580197Y-109446144D01*
X149765352Y-109485500D01*
X149765354Y-109485500D01*
X149954646Y-109485500D01*
X149954648Y-109485500D01*
X150078083Y-109459262D01*
X150139803Y-109446144D01*
X150312730Y-109369151D01*
X150381559Y-109319144D01*
X150465870Y-109257889D01*
X150592533Y-109117216D01*
X150687179Y-108953284D01*
X150728444Y-108826284D01*
X150745674Y-108773256D01*
X150765460Y-108585000D01*
X150745674Y-108396744D01*
X150687179Y-108216716D01*
X150687179Y-108216715D01*
X150592533Y-108052783D01*
X150465870Y-107912110D01*
X150312730Y-107800848D01*
X150139802Y-107723855D01*
X149954648Y-107684500D01*
X149954646Y-107684500D01*
X149765354Y-107684500D01*
X149765352Y-107684500D01*
X149580197Y-107723855D01*
X149407269Y-107800848D01*
X149254129Y-107912110D01*
X149127466Y-108052783D01*
X149032820Y-108216715D01*
X148974326Y-108396742D01*
X148974325Y-108396744D01*
X148974326Y-108396744D01*
X148954540Y-108585000D01*
X143567838Y-108585000D01*
X143480533Y-108433783D01*
X143353870Y-108293110D01*
X143200730Y-108181848D01*
X143027802Y-108104855D01*
X142842648Y-108065500D01*
X142842646Y-108065500D01*
X142653354Y-108065500D01*
X142653352Y-108065500D01*
X142468197Y-108104855D01*
X142295269Y-108181848D01*
X142142129Y-108293110D01*
X142015466Y-108433783D01*
X141920820Y-108597715D01*
X141862326Y-108777742D01*
X141842540Y-108965999D01*
X140192515Y-108965999D01*
X140273179Y-108826284D01*
X140331674Y-108646256D01*
X140351460Y-108458000D01*
X140331674Y-108269744D01*
X140292458Y-108149051D01*
X140273179Y-108089715D01*
X140178533Y-107925783D01*
X140051870Y-107785110D01*
X139898730Y-107673848D01*
X139725803Y-107596855D01*
X139567887Y-107563290D01*
X139508784Y-107532392D01*
X139474236Y-107475346D01*
X139474236Y-107408654D01*
X139508784Y-107351608D01*
X139567887Y-107320710D01*
X139645216Y-107304273D01*
X139725803Y-107287144D01*
X139898730Y-107210151D01*
X139898730Y-107210150D01*
X139903563Y-107207999D01*
X139953999Y-107197278D01*
X140004435Y-107207999D01*
X140182197Y-107287144D01*
X140367352Y-107326500D01*
X140367354Y-107326500D01*
X140556646Y-107326500D01*
X140556648Y-107326500D01*
X140680083Y-107300262D01*
X140741803Y-107287144D01*
X140914730Y-107210151D01*
X140962265Y-107175615D01*
X141067870Y-107098889D01*
X141194533Y-106958216D01*
X141289179Y-106794284D01*
X141293032Y-106782427D01*
X141347674Y-106614256D01*
X141367460Y-106426000D01*
X141347674Y-106237744D01*
X141289179Y-106057716D01*
X141289179Y-106057715D01*
X141194533Y-105893783D01*
X141067870Y-105753110D01*
X140914730Y-105641848D01*
X140741802Y-105564855D01*
X140556648Y-105525500D01*
X140556646Y-105525500D01*
X140367354Y-105525500D01*
X140367352Y-105525500D01*
X140182201Y-105564854D01*
X140004436Y-105644001D01*
X139954000Y-105654721D01*
X139903564Y-105644001D01*
X139735337Y-105569101D01*
X139725803Y-105564856D01*
X139725802Y-105564855D01*
X139725798Y-105564854D01*
X139540648Y-105525500D01*
X139540646Y-105525500D01*
X139351354Y-105525500D01*
X139351352Y-105525500D01*
X139166197Y-105564855D01*
X138993269Y-105641848D01*
X138840129Y-105753110D01*
X138713466Y-105893783D01*
X138618820Y-106057715D01*
X138560326Y-106237742D01*
X138540540Y-106426000D01*
X138560326Y-106614257D01*
X138618820Y-106794284D01*
X138713466Y-106958216D01*
X138840129Y-107098889D01*
X138993269Y-107210151D01*
X139166197Y-107287144D01*
X139324112Y-107320710D01*
X139383215Y-107351608D01*
X139417763Y-107408654D01*
X139417763Y-107475346D01*
X139383215Y-107532392D01*
X139324112Y-107563290D01*
X139166197Y-107596855D01*
X138993269Y-107673848D01*
X138840129Y-107785110D01*
X138713466Y-107925783D01*
X138618820Y-108089715D01*
X138560326Y-108269742D01*
X138540540Y-108457999D01*
X126906092Y-108457999D01*
X126877628Y-108396742D01*
X126764369Y-108152995D01*
X126762619Y-108149051D01*
X126350852Y-107175615D01*
X126349240Y-107171613D01*
X126170434Y-106704216D01*
X126161170Y-106680000D01*
X129904540Y-106680000D01*
X129924326Y-106868257D01*
X129982820Y-107048284D01*
X130077466Y-107212216D01*
X130204129Y-107352889D01*
X130357269Y-107464151D01*
X130530197Y-107541144D01*
X130715352Y-107580500D01*
X130715354Y-107580500D01*
X130904646Y-107580500D01*
X130904648Y-107580500D01*
X131028084Y-107554262D01*
X131089803Y-107541144D01*
X131262730Y-107464151D01*
X131262729Y-107464151D01*
X131415870Y-107352889D01*
X131417024Y-107351608D01*
X131542533Y-107212216D01*
X131637179Y-107048284D01*
X131695674Y-106868256D01*
X131715460Y-106680000D01*
X131695674Y-106491744D01*
X131637179Y-106311716D01*
X131637179Y-106311715D01*
X131542533Y-106147783D01*
X131415870Y-106007110D01*
X131262730Y-105895848D01*
X131089802Y-105818855D01*
X130904648Y-105779500D01*
X130904646Y-105779500D01*
X130715354Y-105779500D01*
X130715352Y-105779500D01*
X130530197Y-105818855D01*
X130357269Y-105895848D01*
X130204129Y-106007110D01*
X130077466Y-106147783D01*
X129982820Y-106311715D01*
X129924326Y-106491742D01*
X129904540Y-106680000D01*
X126161170Y-106680000D01*
X125971572Y-106184397D01*
X125970105Y-106180350D01*
X125967239Y-106172000D01*
X125705740Y-105410000D01*
X126856540Y-105410000D01*
X126876326Y-105598257D01*
X126934820Y-105778284D01*
X127029466Y-105942216D01*
X127156129Y-106082889D01*
X127309269Y-106194151D01*
X127482197Y-106271144D01*
X127667352Y-106310500D01*
X127667354Y-106310500D01*
X127856646Y-106310500D01*
X127856648Y-106310500D01*
X127980084Y-106284262D01*
X128041803Y-106271144D01*
X128214730Y-106194151D01*
X128299200Y-106132780D01*
X128367870Y-106082889D01*
X128494533Y-105942216D01*
X128589179Y-105778284D01*
X128597358Y-105753112D01*
X128647674Y-105598256D01*
X128667460Y-105410000D01*
X128647674Y-105221744D01*
X128589179Y-105041716D01*
X128589179Y-105041715D01*
X128494533Y-104877783D01*
X128367870Y-104737110D01*
X128214730Y-104625848D01*
X128041802Y-104548855D01*
X127856648Y-104509500D01*
X127856646Y-104509500D01*
X127667354Y-104509500D01*
X127667352Y-104509500D01*
X127482197Y-104548855D01*
X127309269Y-104625848D01*
X127156129Y-104737110D01*
X127029466Y-104877783D01*
X126934820Y-105041715D01*
X126876326Y-105221742D01*
X126856540Y-105410000D01*
X125705740Y-105410000D01*
X125627023Y-105180621D01*
X125625694Y-105176516D01*
X125581958Y-105032989D01*
X125317598Y-104165449D01*
X125316420Y-104161325D01*
X125043680Y-103140124D01*
X125042660Y-103136024D01*
X124981441Y-102870000D01*
X133714540Y-102870000D01*
X133723125Y-102951681D01*
X133734326Y-103058257D01*
X133792820Y-103238284D01*
X133887466Y-103402216D01*
X134014129Y-103542889D01*
X134167269Y-103654151D01*
X134340197Y-103731144D01*
X134525352Y-103770500D01*
X134525354Y-103770500D01*
X134714646Y-103770500D01*
X134714648Y-103770500D01*
X134838084Y-103744262D01*
X134899803Y-103731144D01*
X135072730Y-103654151D01*
X135135971Y-103608204D01*
X135225870Y-103542889D01*
X135352533Y-103402216D01*
X135447179Y-103238284D01*
X135480419Y-103135981D01*
X135505674Y-103058256D01*
X135525460Y-102870000D01*
X135505674Y-102681744D01*
X135447179Y-102501716D01*
X135447179Y-102501715D01*
X135352533Y-102337783D01*
X135225870Y-102197110D01*
X135120425Y-102120500D01*
X142381994Y-102120500D01*
X142401780Y-102308757D01*
X142460274Y-102488784D01*
X142554920Y-102652716D01*
X142681583Y-102793389D01*
X142834723Y-102904651D01*
X143007651Y-102981644D01*
X143192806Y-103021000D01*
X143192808Y-103021000D01*
X143382100Y-103021000D01*
X143382102Y-103021000D01*
X143567254Y-102981645D01*
X143567255Y-102981644D01*
X143567257Y-102981644D01*
X143702625Y-102921373D01*
X143753058Y-102910653D01*
X143803494Y-102921373D01*
X143845209Y-102951681D01*
X143920129Y-103034889D01*
X144073269Y-103146151D01*
X144246197Y-103223144D01*
X144431352Y-103262500D01*
X144431354Y-103262500D01*
X144620646Y-103262500D01*
X144620648Y-103262500D01*
X144757552Y-103233400D01*
X144805803Y-103223144D01*
X144978730Y-103146151D01*
X145131871Y-103034888D01*
X145258533Y-102894216D01*
X145353179Y-102730284D01*
X145411674Y-102550256D01*
X145431460Y-102362000D01*
X145411674Y-102173744D01*
X145378624Y-102072027D01*
X145353179Y-101993715D01*
X145258533Y-101829783D01*
X145131870Y-101689110D01*
X144978730Y-101577848D01*
X144805802Y-101500855D01*
X144620648Y-101461500D01*
X144620646Y-101461500D01*
X144431354Y-101461500D01*
X144431352Y-101461500D01*
X144246201Y-101500854D01*
X144110830Y-101561126D01*
X144060394Y-101571846D01*
X144009959Y-101561126D01*
X143968244Y-101530818D01*
X143893324Y-101447610D01*
X143740184Y-101336348D01*
X143567256Y-101259355D01*
X143382102Y-101220000D01*
X143382100Y-101220000D01*
X143192808Y-101220000D01*
X143192806Y-101220000D01*
X143007651Y-101259355D01*
X142834723Y-101336348D01*
X142681583Y-101447610D01*
X142554920Y-101588283D01*
X142460274Y-101752215D01*
X142401780Y-101932242D01*
X142381994Y-102120500D01*
X135120425Y-102120500D01*
X135072730Y-102085848D01*
X134899802Y-102008855D01*
X134714648Y-101969500D01*
X134714646Y-101969500D01*
X134525354Y-101969500D01*
X134525352Y-101969500D01*
X134340197Y-102008855D01*
X134167269Y-102085848D01*
X134014129Y-102197110D01*
X133887466Y-102337783D01*
X133792820Y-102501715D01*
X133734326Y-102681742D01*
X133734325Y-102681744D01*
X133734326Y-102681744D01*
X133714540Y-102870000D01*
X124981441Y-102870000D01*
X124805600Y-102105890D01*
X124804721Y-102101742D01*
X124603655Y-101064035D01*
X124602912Y-101059807D01*
X124599315Y-101037024D01*
X124438069Y-100015731D01*
X124437480Y-100011527D01*
X124321014Y-99060000D01*
X125840540Y-99060000D01*
X125848871Y-99139267D01*
X125860326Y-99248257D01*
X125918820Y-99428284D01*
X126013466Y-99592216D01*
X126140129Y-99732889D01*
X126293269Y-99844151D01*
X126466197Y-99921144D01*
X126651352Y-99960500D01*
X126651354Y-99960500D01*
X126840646Y-99960500D01*
X126840648Y-99960500D01*
X126964084Y-99934262D01*
X127025803Y-99921144D01*
X127198730Y-99844151D01*
X127351871Y-99732888D01*
X127478533Y-99592216D01*
X127573179Y-99428284D01*
X127631674Y-99248256D01*
X127651460Y-99060000D01*
X138794540Y-99060000D01*
X138802871Y-99139267D01*
X138814326Y-99248257D01*
X138872820Y-99428284D01*
X138967466Y-99592216D01*
X139094129Y-99732889D01*
X139247269Y-99844151D01*
X139420197Y-99921144D01*
X139605352Y-99960500D01*
X139605354Y-99960500D01*
X139794646Y-99960500D01*
X139794648Y-99960500D01*
X139918084Y-99934262D01*
X139979803Y-99921144D01*
X140152730Y-99844151D01*
X140305871Y-99732888D01*
X140432533Y-99592216D01*
X140527179Y-99428284D01*
X140585674Y-99248256D01*
X140605460Y-99060000D01*
X140585674Y-98871744D01*
X140536177Y-98719408D01*
X140527179Y-98691715D01*
X140432533Y-98527783D01*
X140305870Y-98387110D01*
X140183220Y-98298000D01*
X142201563Y-98298000D01*
X142221349Y-98486257D01*
X142279843Y-98666284D01*
X142374489Y-98830216D01*
X142501152Y-98970889D01*
X142654292Y-99082151D01*
X142827220Y-99159144D01*
X143012375Y-99198500D01*
X143012377Y-99198500D01*
X143201669Y-99198500D01*
X143201671Y-99198500D01*
X143325107Y-99172262D01*
X143386826Y-99159144D01*
X143559753Y-99082151D01*
X143688521Y-98988596D01*
X143712893Y-98970889D01*
X143839556Y-98830216D01*
X143934202Y-98666284D01*
X143971335Y-98552000D01*
X143992697Y-98486256D01*
X144012483Y-98298000D01*
X143992697Y-98109744D01*
X143934202Y-97929716D01*
X143934202Y-97929715D01*
X143839556Y-97765783D01*
X143712893Y-97625110D01*
X143559753Y-97513848D01*
X143386825Y-97436855D01*
X143201671Y-97397500D01*
X143201669Y-97397500D01*
X143012377Y-97397500D01*
X143012375Y-97397500D01*
X142827220Y-97436855D01*
X142654292Y-97513848D01*
X142501152Y-97625110D01*
X142374489Y-97765783D01*
X142279843Y-97929715D01*
X142221349Y-98109742D01*
X142201563Y-98298000D01*
X140183220Y-98298000D01*
X140152730Y-98275848D01*
X139979802Y-98198855D01*
X139794648Y-98159500D01*
X139794646Y-98159500D01*
X139605354Y-98159500D01*
X139605352Y-98159500D01*
X139420197Y-98198855D01*
X139247269Y-98275848D01*
X139094129Y-98387110D01*
X138967466Y-98527783D01*
X138872820Y-98691715D01*
X138814326Y-98871742D01*
X138797011Y-99036493D01*
X138794540Y-99060000D01*
X127651460Y-99060000D01*
X127631674Y-98871744D01*
X127582177Y-98719408D01*
X127573179Y-98691715D01*
X127478533Y-98527783D01*
X127351870Y-98387110D01*
X127198730Y-98275848D01*
X127025802Y-98198855D01*
X126840648Y-98159500D01*
X126840646Y-98159500D01*
X126651354Y-98159500D01*
X126651352Y-98159500D01*
X126466197Y-98198855D01*
X126293269Y-98275848D01*
X126140129Y-98387110D01*
X126013466Y-98527783D01*
X125918820Y-98691715D01*
X125860326Y-98871742D01*
X125843011Y-99036493D01*
X125840540Y-99060000D01*
X124321014Y-99060000D01*
X124309063Y-98962364D01*
X124308620Y-98958134D01*
X124216781Y-97905116D01*
X124216482Y-97900826D01*
X124216179Y-97895022D01*
X124161336Y-96845286D01*
X124161187Y-96840996D01*
X124153698Y-96410598D01*
X124142799Y-95784229D01*
X124142799Y-95779917D01*
X124154526Y-95122999D01*
X124443540Y-95122999D01*
X124463326Y-95311257D01*
X124521820Y-95491284D01*
X124616466Y-95655216D01*
X124743129Y-95795889D01*
X124896269Y-95907151D01*
X125069197Y-95984144D01*
X125254352Y-96023500D01*
X125254354Y-96023500D01*
X125443646Y-96023500D01*
X125443648Y-96023500D01*
X125497754Y-96011999D01*
X129142540Y-96011999D01*
X129162326Y-96200257D01*
X129220820Y-96380284D01*
X129315466Y-96544216D01*
X129442129Y-96684889D01*
X129595269Y-96796151D01*
X129768197Y-96873144D01*
X129953352Y-96912500D01*
X129953354Y-96912500D01*
X130142646Y-96912500D01*
X130142648Y-96912500D01*
X130266084Y-96886262D01*
X130327803Y-96873144D01*
X130500730Y-96796151D01*
X130653871Y-96684888D01*
X130780533Y-96544216D01*
X130875179Y-96380284D01*
X130933674Y-96200256D01*
X130953460Y-96012000D01*
X130933674Y-95823744D01*
X130875179Y-95643716D01*
X130875179Y-95643715D01*
X130780533Y-95479783D01*
X130653870Y-95339110D01*
X130500730Y-95227848D01*
X130327802Y-95150855D01*
X130142648Y-95111500D01*
X130142646Y-95111500D01*
X129953354Y-95111500D01*
X129953352Y-95111500D01*
X129768197Y-95150855D01*
X129595269Y-95227848D01*
X129442129Y-95339110D01*
X129315466Y-95479783D01*
X129220820Y-95643715D01*
X129162326Y-95823742D01*
X129142540Y-96011999D01*
X125497754Y-96011999D01*
X125567084Y-95997262D01*
X125628803Y-95984144D01*
X125801730Y-95907151D01*
X125801730Y-95907150D01*
X125954870Y-95795889D01*
X125968735Y-95780491D01*
X126081533Y-95655216D01*
X126176179Y-95491284D01*
X126234674Y-95311256D01*
X126254460Y-95123000D01*
X126234674Y-94934744D01*
X126176179Y-94754716D01*
X126176179Y-94754715D01*
X126081533Y-94590783D01*
X125954870Y-94450110D01*
X125801730Y-94338848D01*
X125628802Y-94261855D01*
X125443648Y-94222500D01*
X125443646Y-94222500D01*
X125254354Y-94222500D01*
X125254352Y-94222500D01*
X125069197Y-94261855D01*
X124896269Y-94338848D01*
X124743129Y-94450110D01*
X124616466Y-94590783D01*
X124521820Y-94754715D01*
X124463326Y-94934742D01*
X124443540Y-95122999D01*
X124154526Y-95122999D01*
X124162155Y-94695633D01*
X124162311Y-94691265D01*
X124220355Y-93608389D01*
X124220664Y-93604077D01*
X124277943Y-92963999D01*
X128126540Y-92963999D01*
X128146326Y-93152257D01*
X128204820Y-93332284D01*
X128299466Y-93496216D01*
X128426129Y-93636889D01*
X128579269Y-93748151D01*
X128752197Y-93825144D01*
X128937352Y-93864500D01*
X128937354Y-93864500D01*
X129126646Y-93864500D01*
X129126648Y-93864500D01*
X129250084Y-93838262D01*
X129311803Y-93825144D01*
X129484730Y-93748151D01*
X129515218Y-93726000D01*
X140572540Y-93726000D01*
X140592326Y-93914257D01*
X140650820Y-94094284D01*
X140745466Y-94258216D01*
X140872129Y-94398889D01*
X141025269Y-94510151D01*
X141198197Y-94587144D01*
X141383352Y-94626500D01*
X141383354Y-94626500D01*
X141572646Y-94626500D01*
X141572648Y-94626500D01*
X141696084Y-94600262D01*
X141757803Y-94587144D01*
X141930730Y-94510151D01*
X142083871Y-94398888D01*
X142210533Y-94258216D01*
X142305179Y-94094284D01*
X142363674Y-93914256D01*
X142383460Y-93726000D01*
X142363674Y-93537744D01*
X142356771Y-93516500D01*
X143675980Y-93516500D01*
X143695766Y-93704757D01*
X143754260Y-93884784D01*
X143848906Y-94048716D01*
X143975569Y-94189389D01*
X144128709Y-94300651D01*
X144301637Y-94377644D01*
X144486792Y-94417000D01*
X144486794Y-94417000D01*
X144676086Y-94417000D01*
X144676088Y-94417000D01*
X144799523Y-94390762D01*
X144861243Y-94377644D01*
X145034170Y-94300651D01*
X145044713Y-94292991D01*
X145093615Y-94257463D01*
X145156771Y-94234163D01*
X145222795Y-94247296D01*
X145272227Y-94292991D01*
X145290500Y-94357781D01*
X145290500Y-96912764D01*
X145291345Y-96941985D01*
X145292175Y-96956319D01*
X145294715Y-96985490D01*
X145318915Y-97193555D01*
X145329021Y-97251154D01*
X145335595Y-97279034D01*
X145352295Y-97335103D01*
X145352296Y-97335106D01*
X145421137Y-97525249D01*
X145444209Y-97579027D01*
X145457011Y-97604660D01*
X145480746Y-97646012D01*
X145486134Y-97655399D01*
X145600713Y-97830684D01*
X145617431Y-97854710D01*
X145625974Y-97866260D01*
X145644030Y-97889250D01*
X145644038Y-97889260D01*
X145644047Y-97889271D01*
X145902034Y-98198856D01*
X146373485Y-98764598D01*
X146391761Y-98785346D01*
X146400997Y-98795270D01*
X146420408Y-98815015D01*
X146563125Y-98952452D01*
X146563131Y-98952457D01*
X146605023Y-98988596D01*
X146626483Y-99005150D01*
X146672078Y-99036497D01*
X146835425Y-99136093D01*
X146884174Y-99162269D01*
X146884180Y-99162272D01*
X146908724Y-99173768D01*
X146960010Y-99194447D01*
X146960020Y-99194450D01*
X146960029Y-99194454D01*
X147141104Y-99256178D01*
X147141111Y-99256180D01*
X147141117Y-99256182D01*
X147194359Y-99271133D01*
X147194363Y-99271133D01*
X147194367Y-99271135D01*
X147220823Y-99277024D01*
X147275410Y-99286073D01*
X147472370Y-99307729D01*
X147499944Y-99309999D01*
X147513496Y-99310742D01*
X147541169Y-99311500D01*
X148907546Y-99311500D01*
X148907550Y-99311500D01*
X148959992Y-99305292D01*
X149025551Y-99297533D01*
X149081846Y-99284018D01*
X149193335Y-99242888D01*
X149292141Y-99176867D01*
X149336164Y-99139267D01*
X149336164Y-99139266D01*
X149341724Y-99134518D01*
X149342583Y-99135524D01*
X149375574Y-99112090D01*
X149425569Y-99101798D01*
X149475474Y-99112518D01*
X149580197Y-99159144D01*
X149765352Y-99198500D01*
X149765354Y-99198500D01*
X149954646Y-99198500D01*
X150015147Y-99185640D01*
X150069558Y-99186281D01*
X150118458Y-99210158D01*
X150141514Y-99239016D01*
X150142291Y-99238404D01*
X150218023Y-99334306D01*
X150225855Y-99342283D01*
X150262953Y-99376475D01*
X151341883Y-100275583D01*
X151374793Y-100318247D01*
X151386500Y-100370842D01*
X151386500Y-124565558D01*
X151373950Y-124619916D01*
X151338842Y-124663271D01*
X151288282Y-124686847D01*
X151276275Y-124689399D01*
X151241198Y-124696855D01*
X151068270Y-124773848D01*
X150968884Y-124846056D01*
X150921779Y-124867027D01*
X150870218Y-124867027D01*
X150823113Y-124846055D01*
X150723727Y-124773847D01*
X150550802Y-124696855D01*
X150365648Y-124657500D01*
X150365646Y-124657500D01*
X150176354Y-124657500D01*
X150176352Y-124657500D01*
X149991197Y-124696855D01*
X149818271Y-124773847D01*
X149789261Y-124794924D01*
X149745566Y-124815120D01*
X149697473Y-124817154D01*
X149652228Y-124800721D01*
X149510396Y-124714980D01*
X149348106Y-124664409D01*
X149277576Y-124658000D01*
X149271000Y-124658000D01*
X149271000Y-126957999D01*
X149277579Y-126957999D01*
X149348104Y-126951591D01*
X149510397Y-126901018D01*
X149652228Y-126815278D01*
X149697473Y-126798845D01*
X149745568Y-126800880D01*
X149789264Y-126821077D01*
X149818270Y-126842151D01*
X149818271Y-126842151D01*
X149818272Y-126842152D01*
X149991197Y-126919144D01*
X150176352Y-126958500D01*
X150176354Y-126958500D01*
X150365646Y-126958500D01*
X150365648Y-126958500D01*
X150489083Y-126932262D01*
X150550803Y-126919144D01*
X150620193Y-126888248D01*
X150723727Y-126842153D01*
X150723730Y-126842151D01*
X150823117Y-126769941D01*
X150870217Y-126748972D01*
X150921780Y-126748972D01*
X150968884Y-126769944D01*
X151068269Y-126842151D01*
X151241197Y-126919144D01*
X151426352Y-126958500D01*
X151426354Y-126958500D01*
X151615646Y-126958500D01*
X151615648Y-126958500D01*
X151739083Y-126932262D01*
X151800803Y-126919144D01*
X151870193Y-126888248D01*
X151973727Y-126842153D01*
X151973730Y-126842151D01*
X152073117Y-126769941D01*
X152120217Y-126748972D01*
X152171780Y-126748972D01*
X152218884Y-126769944D01*
X152318269Y-126842151D01*
X152491197Y-126919144D01*
X152676352Y-126958500D01*
X152676354Y-126958500D01*
X152865646Y-126958500D01*
X152865648Y-126958500D01*
X152989083Y-126932262D01*
X153050803Y-126919144D01*
X153120193Y-126888248D01*
X153223727Y-126842153D01*
X153223730Y-126842151D01*
X153323117Y-126769941D01*
X153370217Y-126748972D01*
X153421780Y-126748972D01*
X153468884Y-126769944D01*
X153568269Y-126842151D01*
X153741197Y-126919144D01*
X153926352Y-126958500D01*
X153926354Y-126958500D01*
X154115646Y-126958500D01*
X154115648Y-126958500D01*
X154239083Y-126932262D01*
X154300803Y-126919144D01*
X154370193Y-126888248D01*
X154473727Y-126842153D01*
X154473730Y-126842151D01*
X154573117Y-126769941D01*
X154620217Y-126748972D01*
X154671780Y-126748972D01*
X154718884Y-126769944D01*
X154818269Y-126842151D01*
X154991197Y-126919144D01*
X155176352Y-126958500D01*
X155176354Y-126958500D01*
X155365646Y-126958500D01*
X155365648Y-126958500D01*
X155489083Y-126932262D01*
X155550803Y-126919144D01*
X155723730Y-126842151D01*
X155760718Y-126815278D01*
X155876870Y-126730889D01*
X156003533Y-126590216D01*
X156098179Y-126426284D01*
X156134474Y-126314579D01*
X156156674Y-126246256D01*
X156171500Y-126105192D01*
X156171500Y-126058000D01*
X158652001Y-126058000D01*
X158652001Y-126314579D01*
X158658408Y-126385104D01*
X158708981Y-126547397D01*
X158796925Y-126692875D01*
X158917124Y-126813074D01*
X159062603Y-126901019D01*
X159224893Y-126951590D01*
X159295424Y-126958000D01*
X159302000Y-126958000D01*
X159302000Y-126957999D01*
X159802000Y-126957999D01*
X159808579Y-126957999D01*
X159879104Y-126951591D01*
X160041397Y-126901018D01*
X160183228Y-126815278D01*
X160228473Y-126798845D01*
X160276568Y-126800880D01*
X160320264Y-126821077D01*
X160349270Y-126842151D01*
X160349271Y-126842151D01*
X160349272Y-126842152D01*
X160522197Y-126919144D01*
X160707352Y-126958500D01*
X160707354Y-126958500D01*
X160896646Y-126958500D01*
X160896648Y-126958500D01*
X161020083Y-126932262D01*
X161081803Y-126919144D01*
X161151193Y-126888248D01*
X161254727Y-126842153D01*
X161254730Y-126842151D01*
X161354117Y-126769941D01*
X161401217Y-126748972D01*
X161452780Y-126748972D01*
X161499884Y-126769944D01*
X161599269Y-126842151D01*
X161772197Y-126919144D01*
X161957352Y-126958500D01*
X161957354Y-126958500D01*
X162146646Y-126958500D01*
X162146648Y-126958500D01*
X162270083Y-126932262D01*
X162331803Y-126919144D01*
X162401193Y-126888248D01*
X162504727Y-126842153D01*
X162504730Y-126842151D01*
X162604117Y-126769941D01*
X162651217Y-126748972D01*
X162702780Y-126748972D01*
X162749884Y-126769944D01*
X162849269Y-126842151D01*
X163022197Y-126919144D01*
X163207352Y-126958500D01*
X163207354Y-126958500D01*
X163396646Y-126958500D01*
X163396648Y-126958500D01*
X163520083Y-126932262D01*
X163581803Y-126919144D01*
X163651193Y-126888248D01*
X163754727Y-126842153D01*
X163754730Y-126842151D01*
X163854117Y-126769941D01*
X163901217Y-126748972D01*
X163952780Y-126748972D01*
X163999884Y-126769944D01*
X164099269Y-126842151D01*
X164272197Y-126919144D01*
X164457352Y-126958500D01*
X164457354Y-126958500D01*
X164646646Y-126958500D01*
X164646648Y-126958500D01*
X164770083Y-126932262D01*
X164831803Y-126919144D01*
X165004730Y-126842151D01*
X165041718Y-126815278D01*
X165157870Y-126730889D01*
X165284533Y-126590216D01*
X165379179Y-126426284D01*
X165415462Y-126314617D01*
X167892500Y-126314617D01*
X167898913Y-126385193D01*
X167898914Y-126385196D01*
X167949522Y-126547606D01*
X167949523Y-126547607D01*
X168037528Y-126693186D01*
X168157813Y-126813471D01*
X168157815Y-126813472D01*
X168303394Y-126901478D01*
X168465804Y-126952086D01*
X168512857Y-126956362D01*
X168536383Y-126958500D01*
X168536384Y-126958500D01*
X169049616Y-126958500D01*
X169049617Y-126958500D01*
X169067261Y-126956896D01*
X169120196Y-126952086D01*
X169282606Y-126901478D01*
X169424671Y-126815596D01*
X169469912Y-126799164D01*
X169518007Y-126801199D01*
X169561702Y-126821395D01*
X169590270Y-126842151D01*
X169590271Y-126842151D01*
X169590272Y-126842152D01*
X169763197Y-126919144D01*
X169948352Y-126958500D01*
X169948354Y-126958500D01*
X170137646Y-126958500D01*
X170137648Y-126958500D01*
X170261083Y-126932262D01*
X170322803Y-126919144D01*
X170495730Y-126842151D01*
X170532718Y-126815278D01*
X170648870Y-126730889D01*
X170775533Y-126590216D01*
X170870179Y-126426284D01*
X170906474Y-126314579D01*
X170928674Y-126246256D01*
X170943500Y-126105192D01*
X170943500Y-125510808D01*
X170928674Y-125369744D01*
X170883530Y-125230806D01*
X170870179Y-125189715D01*
X170775533Y-125025783D01*
X170648870Y-124885110D01*
X170495730Y-124773848D01*
X170322802Y-124696855D01*
X170137648Y-124657500D01*
X170137646Y-124657500D01*
X169948354Y-124657500D01*
X169948352Y-124657500D01*
X169763197Y-124696855D01*
X169590268Y-124773849D01*
X169561700Y-124794604D01*
X169518006Y-124814800D01*
X169469913Y-124816834D01*
X169424668Y-124800401D01*
X169283365Y-124714981D01*
X169282606Y-124714522D01*
X169121785Y-124664409D01*
X169120193Y-124663913D01*
X169049617Y-124657500D01*
X169049616Y-124657500D01*
X168536384Y-124657500D01*
X168536383Y-124657500D01*
X168465806Y-124663913D01*
X168392205Y-124686848D01*
X168303394Y-124714522D01*
X168303392Y-124714522D01*
X168303392Y-124714523D01*
X168157813Y-124802528D01*
X168037528Y-124922813D01*
X167949523Y-125068392D01*
X167898913Y-125230806D01*
X167892500Y-125301383D01*
X167892500Y-126314617D01*
X165415462Y-126314617D01*
X165415474Y-126314579D01*
X165437674Y-126246256D01*
X165452500Y-126105192D01*
X165452500Y-125510808D01*
X165437674Y-125369744D01*
X165392530Y-125230806D01*
X165379179Y-125189715D01*
X165284533Y-125025783D01*
X165157870Y-124885110D01*
X165004730Y-124773848D01*
X164831802Y-124696855D01*
X164646648Y-124657500D01*
X164646646Y-124657500D01*
X164457354Y-124657500D01*
X164457352Y-124657500D01*
X164272197Y-124696855D01*
X164099272Y-124773846D01*
X163999884Y-124846056D01*
X163952779Y-124867027D01*
X163901218Y-124867027D01*
X163854113Y-124846055D01*
X163754727Y-124773847D01*
X163581802Y-124696855D01*
X163396648Y-124657500D01*
X163396646Y-124657500D01*
X163207354Y-124657500D01*
X163207352Y-124657500D01*
X163022197Y-124696855D01*
X162849272Y-124773846D01*
X162749884Y-124846056D01*
X162702779Y-124867027D01*
X162651218Y-124867027D01*
X162604113Y-124846055D01*
X162504727Y-124773847D01*
X162331802Y-124696855D01*
X162146648Y-124657500D01*
X162146646Y-124657500D01*
X161957354Y-124657500D01*
X161957352Y-124657500D01*
X161772197Y-124696855D01*
X161599272Y-124773846D01*
X161499884Y-124846056D01*
X161452779Y-124867027D01*
X161401218Y-124867027D01*
X161354113Y-124846055D01*
X161254727Y-124773847D01*
X161081802Y-124696855D01*
X160896648Y-124657500D01*
X160896646Y-124657500D01*
X160707354Y-124657500D01*
X160707352Y-124657500D01*
X160522197Y-124696855D01*
X160349271Y-124773847D01*
X160320261Y-124794924D01*
X160276566Y-124815120D01*
X160228473Y-124817154D01*
X160183228Y-124800721D01*
X160041396Y-124714980D01*
X159879106Y-124664409D01*
X159808576Y-124658000D01*
X159802000Y-124658000D01*
X159802000Y-126957999D01*
X159302000Y-126957999D01*
X159302000Y-126058000D01*
X158652001Y-126058000D01*
X156171500Y-126058000D01*
X156171500Y-125558000D01*
X158652000Y-125558000D01*
X159302000Y-125558000D01*
X159302000Y-124658001D01*
X159295421Y-124658001D01*
X159224895Y-124664408D01*
X159062602Y-124714981D01*
X158917124Y-124802925D01*
X158796925Y-124923124D01*
X158708980Y-125068603D01*
X158658409Y-125230893D01*
X158652000Y-125301424D01*
X158652000Y-125558000D01*
X156171500Y-125558000D01*
X156171500Y-125510808D01*
X156156674Y-125369744D01*
X156111530Y-125230806D01*
X156098179Y-125189715D01*
X156053108Y-125111650D01*
X156037486Y-125065298D01*
X156041005Y-125016511D01*
X156063115Y-124972883D01*
X156086898Y-124942715D01*
X156146176Y-124847388D01*
X156182955Y-124741329D01*
X156195035Y-124687945D01*
X156207500Y-124576379D01*
X156207500Y-121412000D01*
X158606540Y-121412000D01*
X158626326Y-121600257D01*
X158684820Y-121780284D01*
X158779466Y-121944216D01*
X158906129Y-122084889D01*
X159059269Y-122196151D01*
X159232197Y-122273144D01*
X159417352Y-122312500D01*
X159417354Y-122312500D01*
X159606646Y-122312500D01*
X159606648Y-122312500D01*
X159730084Y-122286262D01*
X159791803Y-122273144D01*
X159964730Y-122196151D01*
X160084685Y-122108999D01*
X160117870Y-122084889D01*
X160151987Y-122046999D01*
X160244533Y-121944216D01*
X160339179Y-121780284D01*
X160397674Y-121600256D01*
X160417460Y-121412000D01*
X160397674Y-121223744D01*
X160339179Y-121043716D01*
X160339179Y-121043715D01*
X160244533Y-120879783D01*
X160117870Y-120739110D01*
X159964730Y-120627848D01*
X159791802Y-120550855D01*
X159606648Y-120511500D01*
X159606646Y-120511500D01*
X159417354Y-120511500D01*
X159417352Y-120511500D01*
X159232197Y-120550855D01*
X159059269Y-120627848D01*
X158906129Y-120739110D01*
X158779466Y-120879783D01*
X158684820Y-121043715D01*
X158626326Y-121223742D01*
X158606540Y-121412000D01*
X156207500Y-121412000D01*
X156207500Y-118623031D01*
X156194543Y-118509314D01*
X156182935Y-118459040D01*
X156181399Y-118411037D01*
X156198220Y-118366049D01*
X156230871Y-118330830D01*
X156307871Y-118274888D01*
X156434533Y-118134216D01*
X156529179Y-117970284D01*
X156587674Y-117790256D01*
X156607460Y-117602000D01*
X166734540Y-117602000D01*
X166741543Y-117668628D01*
X166754326Y-117790257D01*
X166812820Y-117970284D01*
X166907466Y-118134216D01*
X167034129Y-118274889D01*
X167187269Y-118386151D01*
X167360197Y-118463144D01*
X167545352Y-118502500D01*
X167545354Y-118502500D01*
X167734646Y-118502500D01*
X167734648Y-118502500D01*
X167858083Y-118476262D01*
X167919803Y-118463144D01*
X168092730Y-118386151D01*
X168191800Y-118314173D01*
X168245870Y-118274889D01*
X168372533Y-118134216D01*
X168467179Y-117970284D01*
X168467179Y-117970283D01*
X168525674Y-117790256D01*
X168545460Y-117602000D01*
X168525674Y-117413744D01*
X168467179Y-117233716D01*
X168467179Y-117233715D01*
X168372533Y-117069783D01*
X168245870Y-116929110D01*
X168092730Y-116817848D01*
X167919802Y-116740855D01*
X167734648Y-116701500D01*
X167734646Y-116701500D01*
X167545354Y-116701500D01*
X167545352Y-116701500D01*
X167360197Y-116740855D01*
X167187269Y-116817848D01*
X167034129Y-116929110D01*
X166907466Y-117069783D01*
X166812820Y-117233715D01*
X166754326Y-117413742D01*
X166734540Y-117601999D01*
X166734540Y-117602000D01*
X156607460Y-117602000D01*
X156587674Y-117413744D01*
X156529179Y-117233716D01*
X156529179Y-117233715D01*
X156434533Y-117069783D01*
X156307873Y-116929114D01*
X156307872Y-116929113D01*
X156307871Y-116929112D01*
X156230869Y-116873167D01*
X156198219Y-116837949D01*
X156181399Y-116792961D01*
X156182937Y-116744956D01*
X156194542Y-116694690D01*
X156194541Y-116694690D01*
X156194543Y-116694686D01*
X156207500Y-116580969D01*
X156207500Y-115779546D01*
X158353040Y-115779546D01*
X158372826Y-115967803D01*
X158431320Y-116147830D01*
X158525966Y-116311762D01*
X158652629Y-116452435D01*
X158805769Y-116563697D01*
X158978697Y-116640690D01*
X159163852Y-116680046D01*
X159163854Y-116680046D01*
X159353146Y-116680046D01*
X159353148Y-116680046D01*
X159476584Y-116653808D01*
X159538303Y-116640690D01*
X159711230Y-116563697D01*
X159864371Y-116452434D01*
X159991033Y-116311762D01*
X160085679Y-116147830D01*
X160144174Y-115967802D01*
X160163960Y-115779546D01*
X160144174Y-115591290D01*
X160085679Y-115411262D01*
X160085679Y-115411261D01*
X159991033Y-115247329D01*
X159864370Y-115106656D01*
X159711230Y-114995394D01*
X159538302Y-114918401D01*
X159353148Y-114879046D01*
X159353146Y-114879046D01*
X159163854Y-114879046D01*
X159163852Y-114879046D01*
X158978697Y-114918401D01*
X158805769Y-114995394D01*
X158652629Y-115106656D01*
X158525966Y-115247329D01*
X158431320Y-115411261D01*
X158372826Y-115591288D01*
X158353040Y-115779546D01*
X156207500Y-115779546D01*
X156207500Y-114406019D01*
X156196002Y-114315641D01*
X156196002Y-114284349D01*
X156206095Y-114205022D01*
X156207500Y-114193983D01*
X156207500Y-113029999D01*
X158860540Y-113029999D01*
X158880326Y-113218257D01*
X158938820Y-113398284D01*
X159033466Y-113562216D01*
X159160129Y-113702889D01*
X159313269Y-113814151D01*
X159486197Y-113891144D01*
X159671352Y-113930500D01*
X159671354Y-113930500D01*
X159860646Y-113930500D01*
X159860648Y-113930500D01*
X159984084Y-113904262D01*
X160045803Y-113891144D01*
X160218730Y-113814151D01*
X160371871Y-113702888D01*
X160498533Y-113562216D01*
X160512515Y-113537999D01*
X171052540Y-113537999D01*
X171072326Y-113726257D01*
X171130820Y-113906284D01*
X171225466Y-114070216D01*
X171352129Y-114210889D01*
X171505269Y-114322151D01*
X171678197Y-114399144D01*
X171863352Y-114438500D01*
X171863354Y-114438500D01*
X172052646Y-114438500D01*
X172052648Y-114438500D01*
X172205458Y-114406019D01*
X172237803Y-114399144D01*
X172410730Y-114322151D01*
X172444300Y-114297761D01*
X172563870Y-114210889D01*
X172690533Y-114070216D01*
X172785179Y-113906284D01*
X172815115Y-113814151D01*
X172843674Y-113726256D01*
X172863460Y-113538000D01*
X172843674Y-113349744D01*
X172800951Y-113218256D01*
X172785179Y-113169715D01*
X172690533Y-113005783D01*
X172563870Y-112865110D01*
X172410730Y-112753848D01*
X172237802Y-112676855D01*
X172052648Y-112637500D01*
X172052646Y-112637500D01*
X171863354Y-112637500D01*
X171863352Y-112637500D01*
X171678197Y-112676855D01*
X171505269Y-112753848D01*
X171352129Y-112865110D01*
X171225466Y-113005783D01*
X171130820Y-113169715D01*
X171072326Y-113349742D01*
X171052540Y-113537999D01*
X160512515Y-113537999D01*
X160593179Y-113398284D01*
X160651674Y-113218256D01*
X160671460Y-113030000D01*
X160651674Y-112841744D01*
X160612383Y-112720819D01*
X160593179Y-112661715D01*
X160498533Y-112497783D01*
X160371870Y-112357110D01*
X160276737Y-112287993D01*
X160239731Y-112245121D01*
X160225649Y-112190265D01*
X160237428Y-112134868D01*
X160272611Y-112090488D01*
X160301603Y-112076850D01*
X160300396Y-112074139D01*
X160485227Y-111991846D01*
X160485230Y-111991844D01*
X160557874Y-111939064D01*
X160604976Y-111918094D01*
X160656539Y-111918094D01*
X160703642Y-111939065D01*
X160837270Y-112036151D01*
X160837271Y-112036151D01*
X160837272Y-112036152D01*
X161010197Y-112113144D01*
X161195352Y-112152500D01*
X161195354Y-112152500D01*
X161384646Y-112152500D01*
X161384648Y-112152500D01*
X161508084Y-112126262D01*
X161569803Y-112113144D01*
X161742730Y-112036151D01*
X161803714Y-111991844D01*
X161895870Y-111924889D01*
X162022533Y-111784216D01*
X162117179Y-111620284D01*
X162125358Y-111595112D01*
X162175674Y-111440256D01*
X162195460Y-111252000D01*
X162924540Y-111252000D01*
X162944326Y-111440257D01*
X163002820Y-111620284D01*
X163097466Y-111784216D01*
X163224129Y-111924889D01*
X163377269Y-112036151D01*
X163550197Y-112113144D01*
X163735352Y-112152500D01*
X163735354Y-112152500D01*
X163924646Y-112152500D01*
X164046185Y-112126666D01*
X164104055Y-112128181D01*
X164154933Y-112155804D01*
X164187726Y-112203515D01*
X164195284Y-112260913D01*
X164194539Y-112267995D01*
X164214326Y-112456257D01*
X164272820Y-112636284D01*
X164367466Y-112800216D01*
X164494129Y-112940889D01*
X164647269Y-113052151D01*
X164820197Y-113129144D01*
X165005352Y-113168500D01*
X165005354Y-113168500D01*
X165194646Y-113168500D01*
X165194648Y-113168500D01*
X165318083Y-113142262D01*
X165379803Y-113129144D01*
X165552730Y-113052151D01*
X165668180Y-112968272D01*
X165705870Y-112940889D01*
X165832533Y-112800216D01*
X165927179Y-112636284D01*
X165932098Y-112621144D01*
X165985674Y-112456256D01*
X166005460Y-112268000D01*
X165985674Y-112079744D01*
X165935358Y-111924888D01*
X165927179Y-111899715D01*
X165832533Y-111735783D01*
X165705870Y-111595110D01*
X165552730Y-111483848D01*
X165379802Y-111406855D01*
X165194648Y-111367500D01*
X165194646Y-111367500D01*
X165005354Y-111367500D01*
X164948227Y-111379642D01*
X164883816Y-111393333D01*
X164825941Y-111391816D01*
X164775062Y-111364191D01*
X164742271Y-111316477D01*
X164734716Y-111259077D01*
X164735460Y-111252000D01*
X164730803Y-111207692D01*
X164715674Y-111063744D01*
X164669936Y-110922978D01*
X164657179Y-110883715D01*
X164562533Y-110719783D01*
X164435870Y-110579110D01*
X164282730Y-110467848D01*
X164109802Y-110390855D01*
X163924648Y-110351500D01*
X163924646Y-110351500D01*
X163735354Y-110351500D01*
X163735352Y-110351500D01*
X163550197Y-110390855D01*
X163377269Y-110467848D01*
X163224129Y-110579110D01*
X163097466Y-110719783D01*
X163002820Y-110883715D01*
X162944326Y-111063742D01*
X162924540Y-111252000D01*
X162195460Y-111252000D01*
X162175674Y-111063744D01*
X162129936Y-110922978D01*
X162117179Y-110883715D01*
X162022533Y-110719783D01*
X161895870Y-110579110D01*
X161742730Y-110467848D01*
X161569802Y-110390855D01*
X161384648Y-110351500D01*
X161384646Y-110351500D01*
X161195354Y-110351500D01*
X161195352Y-110351500D01*
X161010197Y-110390855D01*
X160837272Y-110467846D01*
X160764626Y-110520627D01*
X160717521Y-110541598D01*
X160665960Y-110541598D01*
X160618856Y-110520626D01*
X160485230Y-110423541D01*
X160312302Y-110346548D01*
X160127148Y-110307193D01*
X160127146Y-110307193D01*
X159937854Y-110307193D01*
X159937852Y-110307193D01*
X159752697Y-110346548D01*
X159579769Y-110423541D01*
X159426629Y-110534803D01*
X159299966Y-110675476D01*
X159205320Y-110839408D01*
X159146826Y-111019435D01*
X159128980Y-111189238D01*
X159127040Y-111207693D01*
X159129152Y-111227784D01*
X159146826Y-111395950D01*
X159205320Y-111575977D01*
X159299966Y-111739909D01*
X159426629Y-111880581D01*
X159521762Y-111949699D01*
X159558757Y-111992550D01*
X159572849Y-112047380D01*
X159561101Y-112102759D01*
X159525962Y-112147145D01*
X159496898Y-112160846D01*
X159498104Y-112163554D01*
X159313269Y-112245848D01*
X159160129Y-112357110D01*
X159033466Y-112497783D01*
X158938820Y-112661715D01*
X158880326Y-112841742D01*
X158860540Y-113029999D01*
X156207500Y-113029999D01*
X156207500Y-112968272D01*
X156216529Y-112921821D01*
X156242302Y-112882135D01*
X156281064Y-112854993D01*
X156408730Y-112798151D01*
X156561870Y-112686889D01*
X156688533Y-112546216D01*
X156783179Y-112382284D01*
X156791358Y-112357112D01*
X156841674Y-112202256D01*
X156861460Y-112014000D01*
X156841674Y-111825744D01*
X156783179Y-111645716D01*
X156783179Y-111645715D01*
X156688533Y-111481783D01*
X156561870Y-111341110D01*
X156408730Y-111229848D01*
X156281064Y-111173007D01*
X156242302Y-111145865D01*
X156216529Y-111106179D01*
X156207500Y-111059728D01*
X156207500Y-110275001D01*
X156225773Y-110210211D01*
X156275205Y-110164516D01*
X156341229Y-110151383D01*
X156404385Y-110174683D01*
X156519269Y-110258151D01*
X156692197Y-110335144D01*
X156877352Y-110374500D01*
X156877354Y-110374500D01*
X157066646Y-110374500D01*
X157066648Y-110374500D01*
X157198151Y-110346548D01*
X157251803Y-110335144D01*
X157424730Y-110258151D01*
X157490714Y-110210211D01*
X157577870Y-110146889D01*
X157704533Y-110006216D01*
X157799179Y-109842284D01*
X157829115Y-109750151D01*
X157857674Y-109662256D01*
X157877460Y-109474000D01*
X157857674Y-109285744D01*
X157799179Y-109105716D01*
X157799179Y-109105715D01*
X157704533Y-108941783D01*
X157577870Y-108801110D01*
X157424730Y-108689848D01*
X157251802Y-108612855D01*
X157066648Y-108573500D01*
X157066646Y-108573500D01*
X156877354Y-108573500D01*
X156877352Y-108573500D01*
X156692197Y-108612855D01*
X156519269Y-108689848D01*
X156404385Y-108773317D01*
X156341229Y-108796617D01*
X156275205Y-108783484D01*
X156225773Y-108737789D01*
X156207500Y-108672999D01*
X156207500Y-106426000D01*
X161654540Y-106426000D01*
X161674326Y-106614257D01*
X161732820Y-106794284D01*
X161827466Y-106958216D01*
X161954129Y-107098889D01*
X162107269Y-107210151D01*
X162280197Y-107287144D01*
X162465352Y-107326500D01*
X162465354Y-107326500D01*
X162654646Y-107326500D01*
X162654648Y-107326500D01*
X162778083Y-107300262D01*
X162839803Y-107287144D01*
X163012730Y-107210151D01*
X163060265Y-107175615D01*
X163165870Y-107098889D01*
X163292533Y-106958216D01*
X163387179Y-106794284D01*
X163391032Y-106782427D01*
X163445674Y-106614256D01*
X163465460Y-106426000D01*
X163445674Y-106237744D01*
X163387179Y-106057716D01*
X163387179Y-106057715D01*
X163292533Y-105893783D01*
X163165870Y-105753110D01*
X163012730Y-105641848D01*
X162839802Y-105564855D01*
X162654648Y-105525500D01*
X162654646Y-105525500D01*
X162465354Y-105525500D01*
X162465352Y-105525500D01*
X162280197Y-105564855D01*
X162107269Y-105641848D01*
X161954129Y-105753110D01*
X161827466Y-105893783D01*
X161732820Y-106057715D01*
X161674326Y-106237742D01*
X161654540Y-106426000D01*
X156207500Y-106426000D01*
X156207500Y-106041010D01*
X156194493Y-105942216D01*
X156190275Y-105910177D01*
X156173662Y-105848177D01*
X156161516Y-105818855D01*
X156123163Y-105726261D01*
X156037882Y-105615121D01*
X156039644Y-105613768D01*
X156013849Y-105569101D01*
X156013849Y-105504899D01*
X156039644Y-105460231D01*
X156037882Y-105458879D01*
X156109540Y-105365492D01*
X156123163Y-105347739D01*
X156173662Y-105225823D01*
X156190275Y-105163823D01*
X156191832Y-105152000D01*
X168707364Y-105152000D01*
X168764569Y-105365492D01*
X168864399Y-105579576D01*
X168999893Y-105773081D01*
X169166918Y-105940106D01*
X169360423Y-106075600D01*
X169574507Y-106175430D01*
X169787999Y-106232635D01*
X169788000Y-106232636D01*
X169788000Y-105152000D01*
X168707364Y-105152000D01*
X156191832Y-105152000D01*
X156207500Y-105032989D01*
X156207500Y-100296817D01*
X156214490Y-100255772D01*
X156234672Y-100219355D01*
X156277944Y-100165264D01*
X156423254Y-99983626D01*
X156464742Y-99950122D01*
X156516466Y-99937142D01*
X156568859Y-99947086D01*
X156612230Y-99978116D01*
X156620129Y-99986888D01*
X156773269Y-100098151D01*
X156946197Y-100175144D01*
X157131352Y-100214500D01*
X157131354Y-100214500D01*
X157320646Y-100214500D01*
X157320648Y-100214500D01*
X157444083Y-100188262D01*
X157505803Y-100175144D01*
X157678730Y-100098151D01*
X157792125Y-100015765D01*
X157831870Y-99986889D01*
X157867709Y-99947086D01*
X157895850Y-99915831D01*
X157953821Y-99879608D01*
X158022179Y-99879608D01*
X158080150Y-99915832D01*
X158144129Y-99986889D01*
X158297269Y-100098151D01*
X158470197Y-100175144D01*
X158655352Y-100214500D01*
X158655354Y-100214500D01*
X158844646Y-100214500D01*
X158844648Y-100214500D01*
X158968083Y-100188262D01*
X159029803Y-100175144D01*
X159202730Y-100098151D01*
X159316125Y-100015765D01*
X159355870Y-99986889D01*
X159482533Y-99846216D01*
X159577179Y-99682284D01*
X159608271Y-99586592D01*
X159635674Y-99502256D01*
X159644052Y-99422536D01*
X159664572Y-99366160D01*
X159709159Y-99326014D01*
X159767373Y-99311500D01*
X168615047Y-99311500D01*
X168669891Y-99324288D01*
X168713423Y-99360013D01*
X168736664Y-99411309D01*
X168734822Y-99467593D01*
X168702936Y-99586592D01*
X168682340Y-99821999D01*
X168702936Y-100057407D01*
X168734484Y-100175144D01*
X168764097Y-100285663D01*
X168863965Y-100499830D01*
X168999505Y-100693401D01*
X169166599Y-100860495D01*
X169352160Y-100990426D01*
X169391024Y-101034743D01*
X169405035Y-101092000D01*
X169391024Y-101149257D01*
X169352159Y-101193575D01*
X169166595Y-101323508D01*
X168999505Y-101490598D01*
X168863965Y-101684170D01*
X168764097Y-101898336D01*
X168702936Y-102126592D01*
X168682340Y-102362000D01*
X168702936Y-102597407D01*
X168747709Y-102764502D01*
X168764097Y-102825663D01*
X168863965Y-103039830D01*
X168999505Y-103233401D01*
X169166599Y-103400495D01*
X169352597Y-103530732D01*
X169391460Y-103575048D01*
X169405471Y-103632305D01*
X169391461Y-103689561D01*
X169352595Y-103733880D01*
X169166919Y-103863892D01*
X168999890Y-104030921D01*
X168864400Y-104224421D01*
X168764569Y-104438507D01*
X168707364Y-104651999D01*
X168707364Y-104652000D01*
X170164000Y-104652000D01*
X170226000Y-104668613D01*
X170271387Y-104714000D01*
X170288000Y-104776000D01*
X170288000Y-106232635D01*
X170501492Y-106175430D01*
X170715576Y-106075600D01*
X170909077Y-105940109D01*
X171031133Y-105818053D01*
X171083880Y-105786757D01*
X171145173Y-105784568D01*
X171200018Y-105812021D01*
X171234996Y-105862399D01*
X171284204Y-105994331D01*
X171370454Y-106109546D01*
X171485669Y-106195796D01*
X171620517Y-106246091D01*
X171680127Y-106252500D01*
X173475872Y-106252499D01*
X173535483Y-106246091D01*
X173670331Y-106195796D01*
X173702118Y-106172000D01*
X177148540Y-106172000D01*
X177168326Y-106360257D01*
X177226820Y-106540284D01*
X177321466Y-106704216D01*
X177448129Y-106844889D01*
X177601269Y-106956151D01*
X177774197Y-107033144D01*
X177959352Y-107072500D01*
X177959354Y-107072500D01*
X178148646Y-107072500D01*
X178148648Y-107072500D01*
X178272083Y-107046262D01*
X178333803Y-107033144D01*
X178506730Y-106956151D01*
X178659871Y-106844888D01*
X178786533Y-106704216D01*
X178881179Y-106540284D01*
X178939674Y-106360256D01*
X178959460Y-106172000D01*
X178939674Y-105983744D01*
X178899299Y-105859483D01*
X178881179Y-105803715D01*
X178786533Y-105639783D01*
X178659870Y-105499110D01*
X178506730Y-105387848D01*
X178333802Y-105310855D01*
X178148648Y-105271500D01*
X178148646Y-105271500D01*
X177959354Y-105271500D01*
X177959352Y-105271500D01*
X177774197Y-105310855D01*
X177601269Y-105387848D01*
X177448129Y-105499110D01*
X177321466Y-105639783D01*
X177226820Y-105803715D01*
X177168326Y-105983742D01*
X177148540Y-106172000D01*
X173702118Y-106172000D01*
X173785546Y-106109546D01*
X173871796Y-105994331D01*
X173922091Y-105859483D01*
X173928500Y-105799873D01*
X173928499Y-104004128D01*
X173922091Y-103944517D01*
X173871796Y-103809669D01*
X173785546Y-103694454D01*
X173670331Y-103608204D01*
X173608898Y-103585291D01*
X173538916Y-103559189D01*
X173488537Y-103524209D01*
X173461084Y-103469365D01*
X173463273Y-103408072D01*
X173494566Y-103355329D01*
X173616495Y-103233401D01*
X173752035Y-103039830D01*
X173851903Y-102825663D01*
X173913063Y-102597408D01*
X173933659Y-102362000D01*
X173913063Y-102126592D01*
X173851903Y-101898337D01*
X173752035Y-101684171D01*
X173616495Y-101490599D01*
X173449401Y-101323505D01*
X173263839Y-101193573D01*
X173224975Y-101149257D01*
X173210964Y-101092000D01*
X173224975Y-101034743D01*
X173263839Y-100990426D01*
X173449401Y-100860495D01*
X173616495Y-100693401D01*
X173752035Y-100499830D01*
X173851903Y-100285663D01*
X173913063Y-100057408D01*
X173933659Y-99822000D01*
X173933659Y-99821999D01*
X176698340Y-99821999D01*
X176718936Y-100057407D01*
X176750484Y-100175144D01*
X176780097Y-100285663D01*
X176879965Y-100499830D01*
X177015505Y-100693401D01*
X177182599Y-100860495D01*
X177376170Y-100996035D01*
X177590337Y-101095903D01*
X177818592Y-101157063D01*
X178054000Y-101177659D01*
X178289408Y-101157063D01*
X178517663Y-101095903D01*
X178731830Y-100996035D01*
X178925401Y-100860495D01*
X179092495Y-100693401D01*
X179228035Y-100499830D01*
X179327903Y-100285663D01*
X179389063Y-100057408D01*
X179409659Y-99822000D01*
X179389063Y-99586592D01*
X179327903Y-99358337D01*
X179228035Y-99144171D01*
X179092495Y-98950599D01*
X178925401Y-98783505D01*
X178739839Y-98653573D01*
X178700974Y-98609255D01*
X178686964Y-98551999D01*
X178700975Y-98494742D01*
X178739837Y-98450428D01*
X178925401Y-98320495D01*
X179092495Y-98153401D01*
X179228035Y-97959830D01*
X179327903Y-97745663D01*
X179389063Y-97517408D01*
X179409659Y-97282000D01*
X179389063Y-97046592D01*
X179327903Y-96818337D01*
X179228035Y-96604171D01*
X179092495Y-96410599D01*
X178925401Y-96243505D01*
X178739839Y-96113573D01*
X178700974Y-96069255D01*
X178686964Y-96011999D01*
X178700975Y-95954742D01*
X178739837Y-95910428D01*
X178925401Y-95780495D01*
X179092495Y-95613401D01*
X179228035Y-95419830D01*
X179327903Y-95205663D01*
X179389063Y-94977408D01*
X179409659Y-94742000D01*
X179389063Y-94506592D01*
X179327903Y-94278337D01*
X179228035Y-94064171D01*
X179092495Y-93870599D01*
X178970181Y-93748285D01*
X178938885Y-93695539D01*
X178936696Y-93634246D01*
X178964149Y-93579401D01*
X179014528Y-93544422D01*
X179146089Y-93495352D01*
X179261188Y-93409188D01*
X179347352Y-93294089D01*
X179397597Y-93159375D01*
X179404000Y-93099824D01*
X179404000Y-92452000D01*
X176704000Y-92452000D01*
X176704000Y-93099824D01*
X176710402Y-93159375D01*
X176760647Y-93294089D01*
X176846811Y-93409188D01*
X176961911Y-93495352D01*
X177093471Y-93544422D01*
X177143850Y-93579401D01*
X177171303Y-93634246D01*
X177169114Y-93695539D01*
X177137819Y-93748285D01*
X177015503Y-93870601D01*
X176879965Y-94064170D01*
X176780097Y-94278336D01*
X176718936Y-94506592D01*
X176698340Y-94741999D01*
X176718936Y-94977407D01*
X176757948Y-95123000D01*
X176780097Y-95205663D01*
X176879965Y-95419830D01*
X177015505Y-95613401D01*
X177182599Y-95780495D01*
X177368160Y-95910426D01*
X177407024Y-95954743D01*
X177421035Y-96012000D01*
X177407024Y-96069257D01*
X177368159Y-96113575D01*
X177182595Y-96243508D01*
X177015505Y-96410598D01*
X176879965Y-96604170D01*
X176780097Y-96818336D01*
X176718936Y-97046592D01*
X176698340Y-97281999D01*
X176718936Y-97517407D01*
X176747795Y-97625110D01*
X176780097Y-97745663D01*
X176879965Y-97959830D01*
X177015505Y-98153401D01*
X177182599Y-98320495D01*
X177368160Y-98450426D01*
X177407024Y-98494743D01*
X177421035Y-98552000D01*
X177407024Y-98609257D01*
X177368160Y-98653574D01*
X177274140Y-98719408D01*
X177182595Y-98783508D01*
X177015505Y-98950598D01*
X176879965Y-99144170D01*
X176780097Y-99358336D01*
X176718936Y-99586592D01*
X176698340Y-99821999D01*
X173933659Y-99821999D01*
X173913063Y-99586592D01*
X173851903Y-99358337D01*
X173752035Y-99144171D01*
X173616495Y-98950599D01*
X173449401Y-98783505D01*
X173263839Y-98653573D01*
X173224974Y-98609255D01*
X173210964Y-98551999D01*
X173224975Y-98494742D01*
X173263837Y-98450428D01*
X173449401Y-98320495D01*
X173616495Y-98153401D01*
X173752035Y-97959830D01*
X173851903Y-97745663D01*
X173913063Y-97517408D01*
X173933659Y-97282000D01*
X173913063Y-97046592D01*
X173851903Y-96818337D01*
X173752035Y-96604171D01*
X173616495Y-96410599D01*
X173449401Y-96243505D01*
X173263839Y-96113573D01*
X173224974Y-96069255D01*
X173210964Y-96011999D01*
X173224975Y-95954742D01*
X173263837Y-95910428D01*
X173449401Y-95780495D01*
X173616495Y-95613401D01*
X173752035Y-95419830D01*
X173851903Y-95205663D01*
X173913063Y-94977408D01*
X173933659Y-94742000D01*
X173913063Y-94506592D01*
X173851903Y-94278337D01*
X173752035Y-94064171D01*
X173616495Y-93870599D01*
X173449401Y-93703505D01*
X173263839Y-93573573D01*
X173224975Y-93529257D01*
X173210964Y-93472000D01*
X173224975Y-93414743D01*
X173263839Y-93370426D01*
X173449401Y-93240495D01*
X173616495Y-93073401D01*
X173752035Y-92879830D01*
X173851903Y-92665663D01*
X173913063Y-92437408D01*
X173933659Y-92202000D01*
X173913063Y-91966592D01*
X173909153Y-91952000D01*
X176704000Y-91952000D01*
X177804000Y-91952000D01*
X177804000Y-90852000D01*
X178304000Y-90852000D01*
X178304000Y-91952000D01*
X179404000Y-91952000D01*
X179404000Y-91304176D01*
X179397597Y-91244624D01*
X179347352Y-91109910D01*
X179261188Y-90994811D01*
X179146089Y-90908647D01*
X179011375Y-90858402D01*
X178951824Y-90852000D01*
X178304000Y-90852000D01*
X177804000Y-90852000D01*
X177156176Y-90852000D01*
X177096624Y-90858402D01*
X176961910Y-90908647D01*
X176846811Y-90994811D01*
X176760647Y-91109910D01*
X176710402Y-91244624D01*
X176704000Y-91304176D01*
X176704000Y-91952000D01*
X173909153Y-91952000D01*
X173851903Y-91738337D01*
X173752035Y-91524171D01*
X173616495Y-91330599D01*
X173449401Y-91163505D01*
X173263839Y-91033573D01*
X173224975Y-90989257D01*
X173210964Y-90932000D01*
X173224975Y-90874743D01*
X173263839Y-90830426D01*
X173449401Y-90700495D01*
X173616495Y-90533401D01*
X173752035Y-90339830D01*
X173851903Y-90125663D01*
X173913063Y-89897408D01*
X173933659Y-89662000D01*
X173913063Y-89426592D01*
X173851903Y-89198337D01*
X173761172Y-89003765D01*
X173749575Y-88953618D01*
X173759343Y-88903078D01*
X173788792Y-88860859D01*
X173809562Y-88841406D01*
X173809564Y-88841404D01*
X173896167Y-88734698D01*
X173950828Y-88608609D01*
X173968819Y-88544281D01*
X173987500Y-88408129D01*
X173987500Y-85384317D01*
X174001015Y-85328022D01*
X174038615Y-85283999D01*
X174092102Y-85261844D01*
X174149818Y-85266386D01*
X174199181Y-85296636D01*
X174438494Y-85535949D01*
X174542475Y-85620151D01*
X174723636Y-85766853D01*
X174854752Y-85852000D01*
X175031348Y-85966682D01*
X175358264Y-86133255D01*
X175700801Y-86264742D01*
X176055206Y-86359705D01*
X176055209Y-86359705D01*
X176055211Y-86359706D01*
X176417593Y-86417102D01*
X176467373Y-86419710D01*
X176784000Y-86436304D01*
X177115645Y-86418923D01*
X177150406Y-86417102D01*
X177512788Y-86359706D01*
X177512788Y-86359705D01*
X177512794Y-86359705D01*
X177867199Y-86264742D01*
X178209736Y-86133255D01*
X178536652Y-85966682D01*
X178844366Y-85766851D01*
X179129506Y-85535949D01*
X179388949Y-85276506D01*
X179619851Y-84991366D01*
X179819682Y-84683652D01*
X179986255Y-84356736D01*
X180117742Y-84014199D01*
X180212705Y-83659794D01*
X180232160Y-83536960D01*
X180270102Y-83297406D01*
X180276659Y-83172284D01*
X180289304Y-82931000D01*
X180270102Y-82564596D01*
X180261916Y-82512913D01*
X180212706Y-82202211D01*
X180206889Y-82180500D01*
X180117742Y-81847801D01*
X179986255Y-81505264D01*
X179819682Y-81178348D01*
X179812403Y-81167139D01*
X179619853Y-80870636D01*
X179520368Y-80747783D01*
X179388949Y-80585494D01*
X179129506Y-80326051D01*
X178941717Y-80173982D01*
X178844363Y-80095146D01*
X178536656Y-79895320D01*
X178209735Y-79728744D01*
X177867200Y-79597258D01*
X177512788Y-79502293D01*
X177150406Y-79444897D01*
X176784000Y-79425696D01*
X176417593Y-79444897D01*
X176055211Y-79502293D01*
X175700799Y-79597258D01*
X175358264Y-79728744D01*
X175031343Y-79895320D01*
X174723636Y-80095146D01*
X174438490Y-80326054D01*
X174179054Y-80585490D01*
X173948146Y-80870636D01*
X173748320Y-81178343D01*
X173581744Y-81505264D01*
X173450258Y-81847799D01*
X173355293Y-82202211D01*
X173297897Y-82564593D01*
X173278696Y-82930999D01*
X173297897Y-83297400D01*
X173303371Y-83331961D01*
X173295224Y-83399372D01*
X173252795Y-83452385D01*
X173188807Y-83475104D01*
X173122447Y-83460717D01*
X173117945Y-83458311D01*
X173113743Y-83456065D01*
X173068919Y-83434864D01*
X173068911Y-83434860D01*
X173046467Y-83425563D01*
X172999734Y-83408840D01*
X172835518Y-83359025D01*
X172787375Y-83346967D01*
X172763531Y-83342225D01*
X172714494Y-83334952D01*
X172537598Y-83317530D01*
X172512876Y-83315707D01*
X172512871Y-83315706D01*
X172512861Y-83315706D01*
X172507602Y-83315447D01*
X172500714Y-83315109D01*
X172493473Y-83314931D01*
X172475907Y-83314500D01*
X172475890Y-83314500D01*
X171639642Y-83314500D01*
X171583347Y-83300985D01*
X171539324Y-83263385D01*
X171517169Y-83209898D01*
X171521711Y-83152182D01*
X171566467Y-83014436D01*
X171573674Y-82992256D01*
X171593460Y-82804000D01*
X171573674Y-82615744D01*
X171519871Y-82450157D01*
X171515179Y-82435715D01*
X171420533Y-82271783D01*
X171293870Y-82131110D01*
X171140730Y-82019848D01*
X170967802Y-81942855D01*
X170782648Y-81903500D01*
X170782646Y-81903500D01*
X170593354Y-81903500D01*
X170593352Y-81903500D01*
X170408197Y-81942855D01*
X170235269Y-82019848D01*
X170082129Y-82131110D01*
X169955466Y-82271783D01*
X169860820Y-82435715D01*
X169802326Y-82615742D01*
X169782540Y-82803999D01*
X169802326Y-82992257D01*
X169854289Y-83152182D01*
X169858831Y-83209898D01*
X169836676Y-83263385D01*
X169792653Y-83300985D01*
X169736358Y-83314500D01*
X163364142Y-83314500D01*
X163306426Y-83321178D01*
X163248710Y-83327856D01*
X163231209Y-83331961D01*
X163193573Y-83340788D01*
X163084245Y-83380149D01*
X162986791Y-83443437D01*
X162986789Y-83443438D01*
X162986790Y-83443438D01*
X162943155Y-83479536D01*
X162943152Y-83479538D01*
X162943152Y-83479539D01*
X162862726Y-83563405D01*
X162803576Y-83663421D01*
X162780541Y-83715158D01*
X162745792Y-83826046D01*
X162737282Y-83941939D01*
X162739654Y-83998519D01*
X162757833Y-84113291D01*
X162801740Y-84220878D01*
X162829023Y-84270504D01*
X162864237Y-84320054D01*
X162870546Y-84329880D01*
X162916321Y-84409164D01*
X162926865Y-84432846D01*
X162944468Y-84487023D01*
X162949858Y-84512381D01*
X162955812Y-84569038D01*
X162955812Y-84594958D01*
X162949858Y-84651613D01*
X162944468Y-84676971D01*
X162926864Y-84731151D01*
X162916320Y-84754834D01*
X162887837Y-84804167D01*
X162872599Y-84825139D01*
X162834478Y-84867476D01*
X162815215Y-84884820D01*
X162769132Y-84918302D01*
X162746680Y-84931265D01*
X162694640Y-84954434D01*
X162669990Y-84962444D01*
X162637942Y-84969256D01*
X162614262Y-84974290D01*
X162588482Y-84977000D01*
X162531516Y-84977000D01*
X162505737Y-84974290D01*
X162467635Y-84966191D01*
X162450010Y-84962445D01*
X162425358Y-84954435D01*
X162418766Y-84951500D01*
X162373313Y-84931263D01*
X162350868Y-84918304D01*
X162304779Y-84884818D01*
X162285515Y-84867473D01*
X162247397Y-84825139D01*
X162232160Y-84804167D01*
X162203672Y-84754824D01*
X162193133Y-84731151D01*
X162175529Y-84676971D01*
X162170140Y-84651616D01*
X162169733Y-84647744D01*
X162164186Y-84594957D01*
X162164186Y-84569039D01*
X162170140Y-84512381D01*
X162170141Y-84512374D01*
X162175528Y-84487026D01*
X162193134Y-84432840D01*
X162203674Y-84409169D01*
X162249450Y-84329883D01*
X162255753Y-84320063D01*
X162290976Y-84270505D01*
X162318259Y-84220879D01*
X162362166Y-84113291D01*
X162380345Y-83998520D01*
X162382717Y-83941938D01*
X162374208Y-83826046D01*
X162339458Y-83715159D01*
X162316424Y-83663424D01*
X162316423Y-83663421D01*
X162257273Y-83563405D01*
X162231913Y-83536960D01*
X162176845Y-83479536D01*
X162133210Y-83443438D01*
X162035756Y-83380150D01*
X162035754Y-83380149D01*
X161926426Y-83340788D01*
X161901543Y-83334952D01*
X161871290Y-83327856D01*
X161794334Y-83318951D01*
X161755858Y-83314500D01*
X161755857Y-83314500D01*
X150743500Y-83314500D01*
X150681500Y-83297887D01*
X150636113Y-83252500D01*
X150619500Y-83190500D01*
X150619500Y-83058001D01*
X150617053Y-83014436D01*
X150616321Y-83001401D01*
X150598780Y-82845722D01*
X150589284Y-82789833D01*
X150583105Y-82762762D01*
X150574110Y-82731538D01*
X150567411Y-82708284D01*
X150520289Y-82573620D01*
X150498597Y-82521250D01*
X150494578Y-82512905D01*
X150486550Y-82496233D01*
X150472245Y-82470349D01*
X150459130Y-82446618D01*
X150436314Y-82410307D01*
X150383207Y-82325787D01*
X150350397Y-82279547D01*
X150343471Y-82270863D01*
X150333087Y-82257841D01*
X150295318Y-82215579D01*
X150260239Y-82180500D01*
X150223372Y-82143633D01*
X150218921Y-82138942D01*
X150209797Y-82128808D01*
X150201240Y-82121500D01*
X150194429Y-82114689D01*
X150152154Y-82076909D01*
X150130452Y-82059601D01*
X150084219Y-82026796D01*
X150073163Y-82019849D01*
X149963385Y-81950871D01*
X149963381Y-81950868D01*
X149963375Y-81950865D01*
X149913769Y-81923450D01*
X149905849Y-81919636D01*
X149888744Y-81911400D01*
X149836392Y-81889716D01*
X149836391Y-81889715D01*
X149836375Y-81889709D01*
X149701705Y-81842585D01*
X149647229Y-81826892D01*
X149647230Y-81826892D01*
X149647219Y-81826889D01*
X149620158Y-81820713D01*
X149564279Y-81811219D01*
X149564278Y-81811218D01*
X149564267Y-81811217D01*
X149415521Y-81794457D01*
X149387298Y-81792077D01*
X149373383Y-81791295D01*
X149345043Y-81790500D01*
X149345039Y-81790500D01*
X146802093Y-81790500D01*
X146785560Y-81790906D01*
X146777286Y-81791109D01*
X146769093Y-81791511D01*
X146765140Y-81791706D01*
X146765131Y-81791706D01*
X146765124Y-81791707D01*
X146740397Y-81793530D01*
X146563513Y-81810951D01*
X146514428Y-81818232D01*
X146490620Y-81822968D01*
X146442496Y-81835023D01*
X146278248Y-81884846D01*
X146231538Y-81901559D01*
X146209085Y-81910860D01*
X146164248Y-81932068D01*
X146012913Y-82012957D01*
X145970349Y-82038469D01*
X145950162Y-82051958D01*
X145910307Y-82081515D01*
X145777638Y-82190394D01*
X145740883Y-82223708D01*
X145723708Y-82240883D01*
X145690394Y-82277638D01*
X145581515Y-82410307D01*
X145551958Y-82450162D01*
X145538469Y-82470349D01*
X145512957Y-82512913D01*
X145432068Y-82664248D01*
X145410860Y-82709085D01*
X145401559Y-82731538D01*
X145384846Y-82778248D01*
X145335023Y-82942496D01*
X145322967Y-82990623D01*
X145318233Y-83014425D01*
X145310951Y-83063514D01*
X145293530Y-83240395D01*
X145291706Y-83265126D01*
X145291109Y-83277285D01*
X145291109Y-83277293D01*
X145290528Y-83300985D01*
X145290500Y-83302110D01*
X145290500Y-83881728D01*
X145281471Y-83928179D01*
X145255698Y-83967865D01*
X145216936Y-83995007D01*
X145089269Y-84051848D01*
X144936129Y-84163110D01*
X144809466Y-84303783D01*
X144714820Y-84467715D01*
X144656326Y-84647742D01*
X144636540Y-84836000D01*
X144656326Y-85024257D01*
X144717053Y-85211154D01*
X144721238Y-85271003D01*
X144700552Y-85317467D01*
X144715510Y-85314828D01*
X144772569Y-85333358D01*
X144798682Y-85360388D01*
X144800746Y-85358531D01*
X144936129Y-85508889D01*
X145089269Y-85620151D01*
X145216936Y-85676993D01*
X145255698Y-85704135D01*
X145281471Y-85743821D01*
X145290500Y-85790272D01*
X145290500Y-92675219D01*
X145272227Y-92740009D01*
X145222795Y-92785704D01*
X145156771Y-92798837D01*
X145093615Y-92775537D01*
X145034170Y-92732348D01*
X144861242Y-92655355D01*
X144676088Y-92616000D01*
X144676086Y-92616000D01*
X144486794Y-92616000D01*
X144486792Y-92616000D01*
X144301637Y-92655355D01*
X144128709Y-92732348D01*
X143975569Y-92843610D01*
X143848906Y-92984283D01*
X143754260Y-93148215D01*
X143695766Y-93328242D01*
X143675980Y-93516500D01*
X142356771Y-93516500D01*
X142323708Y-93414743D01*
X142305179Y-93357715D01*
X142210533Y-93193783D01*
X142083870Y-93053110D01*
X141930730Y-92941848D01*
X141757802Y-92864855D01*
X141572648Y-92825500D01*
X141572646Y-92825500D01*
X141383354Y-92825500D01*
X141383352Y-92825500D01*
X141198197Y-92864855D01*
X141025269Y-92941848D01*
X140872129Y-93053110D01*
X140745466Y-93193783D01*
X140650820Y-93357715D01*
X140592326Y-93537742D01*
X140572540Y-93726000D01*
X129515218Y-93726000D01*
X129546180Y-93703505D01*
X129637870Y-93636889D01*
X129764533Y-93496216D01*
X129859179Y-93332284D01*
X129871589Y-93294089D01*
X129917674Y-93152256D01*
X129937460Y-92964000D01*
X129917674Y-92775744D01*
X129900374Y-92722500D01*
X138032540Y-92722500D01*
X138052326Y-92910757D01*
X138110820Y-93090784D01*
X138205466Y-93254716D01*
X138332129Y-93395389D01*
X138485269Y-93506651D01*
X138658197Y-93583644D01*
X138843352Y-93623000D01*
X138843354Y-93623000D01*
X139032646Y-93623000D01*
X139032648Y-93623000D01*
X139156083Y-93596762D01*
X139217803Y-93583644D01*
X139390730Y-93506651D01*
X139543871Y-93395388D01*
X139670533Y-93254716D01*
X139765179Y-93090784D01*
X139823674Y-92910756D01*
X139843460Y-92722500D01*
X139823674Y-92534244D01*
X139785579Y-92417000D01*
X139765179Y-92354215D01*
X139670533Y-92190283D01*
X139543870Y-92049610D01*
X139390730Y-91938348D01*
X139217802Y-91861355D01*
X139032648Y-91822000D01*
X139032646Y-91822000D01*
X138843354Y-91822000D01*
X138843352Y-91822000D01*
X138658197Y-91861355D01*
X138485269Y-91938348D01*
X138332129Y-92049610D01*
X138205466Y-92190283D01*
X138110820Y-92354215D01*
X138052326Y-92534242D01*
X138032540Y-92722500D01*
X129900374Y-92722500D01*
X129859179Y-92595716D01*
X129859179Y-92595715D01*
X129764533Y-92431783D01*
X129637870Y-92291110D01*
X129484730Y-92179848D01*
X129311802Y-92102855D01*
X129126648Y-92063500D01*
X129126646Y-92063500D01*
X128937354Y-92063500D01*
X128937352Y-92063500D01*
X128752197Y-92102855D01*
X128579269Y-92179848D01*
X128426129Y-92291110D01*
X128299466Y-92431783D01*
X128204820Y-92595715D01*
X128146326Y-92775742D01*
X128126540Y-92963999D01*
X124277943Y-92963999D01*
X124317318Y-92523989D01*
X124317790Y-92519606D01*
X124326282Y-92452000D01*
X124452934Y-91443654D01*
X124453547Y-91439388D01*
X124494608Y-91186000D01*
X130920540Y-91186000D01*
X130927450Y-91251742D01*
X130940326Y-91374257D01*
X130998820Y-91554284D01*
X131093466Y-91718216D01*
X131220129Y-91858889D01*
X131373269Y-91970151D01*
X131546197Y-92047144D01*
X131731352Y-92086500D01*
X131731354Y-92086500D01*
X131920646Y-92086500D01*
X131920648Y-92086500D01*
X132044083Y-92060262D01*
X132105803Y-92047144D01*
X132278730Y-91970151D01*
X132428474Y-91861356D01*
X132431870Y-91858889D01*
X132558533Y-91718216D01*
X132653179Y-91554284D01*
X132690312Y-91440000D01*
X132690312Y-91439999D01*
X133714540Y-91439999D01*
X133734326Y-91628257D01*
X133792820Y-91808284D01*
X133887466Y-91972216D01*
X134014129Y-92112889D01*
X134167269Y-92224151D01*
X134340197Y-92301144D01*
X134525352Y-92340500D01*
X134525354Y-92340500D01*
X134714646Y-92340500D01*
X134714648Y-92340500D01*
X134838084Y-92314262D01*
X134899803Y-92301144D01*
X135072730Y-92224151D01*
X135119344Y-92190284D01*
X135225870Y-92112889D01*
X135352533Y-91972216D01*
X135447179Y-91808284D01*
X135469906Y-91738337D01*
X135505674Y-91628256D01*
X135517420Y-91516500D01*
X141334540Y-91516500D01*
X141354326Y-91704757D01*
X141412820Y-91884784D01*
X141507466Y-92048716D01*
X141634129Y-92189389D01*
X141787269Y-92300651D01*
X141960197Y-92377644D01*
X142145352Y-92417000D01*
X142145354Y-92417000D01*
X142334646Y-92417000D01*
X142334648Y-92417000D01*
X142458084Y-92390762D01*
X142519803Y-92377644D01*
X142692730Y-92300651D01*
X142844638Y-92190284D01*
X142845870Y-92189389D01*
X142972533Y-92048716D01*
X143067179Y-91884784D01*
X143087579Y-91822000D01*
X143125674Y-91704756D01*
X143145460Y-91516500D01*
X143125674Y-91328244D01*
X143067179Y-91148216D01*
X143067179Y-91148215D01*
X142972533Y-90984283D01*
X142845870Y-90843610D01*
X142692730Y-90732348D01*
X142519802Y-90655355D01*
X142334648Y-90616000D01*
X142334646Y-90616000D01*
X142145354Y-90616000D01*
X142145352Y-90616000D01*
X141960197Y-90655355D01*
X141787269Y-90732348D01*
X141634129Y-90843610D01*
X141507466Y-90984283D01*
X141412820Y-91148215D01*
X141354326Y-91328242D01*
X141334540Y-91516500D01*
X135517420Y-91516500D01*
X135525460Y-91440000D01*
X135505674Y-91251744D01*
X135459589Y-91109910D01*
X135447179Y-91071715D01*
X135352533Y-90907783D01*
X135225870Y-90767110D01*
X135072730Y-90655848D01*
X134899802Y-90578855D01*
X134714648Y-90539500D01*
X134714646Y-90539500D01*
X134525354Y-90539500D01*
X134525352Y-90539500D01*
X134340197Y-90578855D01*
X134167269Y-90655848D01*
X134014129Y-90767110D01*
X133887466Y-90907783D01*
X133792820Y-91071715D01*
X133734326Y-91251742D01*
X133714540Y-91439999D01*
X132690312Y-91439999D01*
X132711674Y-91374256D01*
X132731460Y-91186000D01*
X132711674Y-90997744D01*
X132671708Y-90874743D01*
X132653179Y-90817715D01*
X132558533Y-90653783D01*
X132431870Y-90513110D01*
X132278730Y-90401848D01*
X132105802Y-90324855D01*
X131920648Y-90285500D01*
X131920646Y-90285500D01*
X131731354Y-90285500D01*
X131731352Y-90285500D01*
X131546197Y-90324855D01*
X131373269Y-90401848D01*
X131220129Y-90513110D01*
X131093466Y-90653783D01*
X130998820Y-90817715D01*
X130940326Y-90997742D01*
X130932551Y-91071716D01*
X130920540Y-91186000D01*
X124494608Y-91186000D01*
X124627012Y-90368921D01*
X124627794Y-90364588D01*
X124839346Y-89301043D01*
X124840270Y-89296798D01*
X125089655Y-88241453D01*
X125090728Y-88237243D01*
X125377624Y-87191463D01*
X125378867Y-87187232D01*
X125399292Y-87122000D01*
X134222540Y-87122000D01*
X134242326Y-87310257D01*
X134300820Y-87490284D01*
X134395466Y-87654216D01*
X134522129Y-87794889D01*
X134675269Y-87906151D01*
X134848197Y-87983144D01*
X135033352Y-88022500D01*
X135033354Y-88022500D01*
X135222646Y-88022500D01*
X135222648Y-88022500D01*
X135346084Y-87996262D01*
X135407803Y-87983144D01*
X135580730Y-87906151D01*
X135733871Y-87794888D01*
X135811083Y-87709134D01*
X135858794Y-87676344D01*
X135916193Y-87668787D01*
X135970767Y-87688112D01*
X136010619Y-87730107D01*
X136031467Y-87766217D01*
X136158129Y-87906889D01*
X136311269Y-88018151D01*
X136484197Y-88095144D01*
X136669352Y-88134500D01*
X136669354Y-88134500D01*
X136858646Y-88134500D01*
X136858648Y-88134500D01*
X136982084Y-88108262D01*
X137043803Y-88095144D01*
X137216730Y-88018151D01*
X137334179Y-87932820D01*
X137369870Y-87906889D01*
X137463566Y-87802830D01*
X137496533Y-87766216D01*
X137591179Y-87602284D01*
X137649674Y-87422256D01*
X137669460Y-87234000D01*
X137657689Y-87122000D01*
X138794540Y-87122000D01*
X138814326Y-87310257D01*
X138872820Y-87490284D01*
X138967466Y-87654216D01*
X139094129Y-87794889D01*
X139247269Y-87906151D01*
X139420197Y-87983144D01*
X139605352Y-88022500D01*
X139605354Y-88022500D01*
X139794646Y-88022500D01*
X139794648Y-88022500D01*
X139918084Y-87996262D01*
X139979803Y-87983144D01*
X140152730Y-87906151D01*
X140227034Y-87852166D01*
X140305870Y-87794889D01*
X140331687Y-87766217D01*
X140432533Y-87654216D01*
X140527179Y-87490284D01*
X140585674Y-87310256D01*
X140605460Y-87122000D01*
X140585674Y-86933744D01*
X140579523Y-86914815D01*
X140574982Y-86857103D01*
X140597137Y-86803615D01*
X140641160Y-86766015D01*
X140697455Y-86752500D01*
X140810648Y-86752500D01*
X140934083Y-86726262D01*
X140995803Y-86713144D01*
X141168730Y-86636151D01*
X141272014Y-86561111D01*
X141321870Y-86524889D01*
X141385850Y-86453832D01*
X141443821Y-86417608D01*
X141512179Y-86417608D01*
X141570150Y-86453832D01*
X141634129Y-86524889D01*
X141787269Y-86636151D01*
X141960197Y-86713144D01*
X142145352Y-86752500D01*
X142145354Y-86752500D01*
X142334646Y-86752500D01*
X142334648Y-86752500D01*
X142458083Y-86726262D01*
X142519803Y-86713144D01*
X142692730Y-86636151D01*
X142796014Y-86561111D01*
X142845870Y-86524889D01*
X142909850Y-86453832D01*
X142967821Y-86417608D01*
X143036179Y-86417608D01*
X143094150Y-86453832D01*
X143158129Y-86524889D01*
X143311269Y-86636151D01*
X143484197Y-86713144D01*
X143669352Y-86752500D01*
X143669354Y-86752500D01*
X143858646Y-86752500D01*
X143858648Y-86752500D01*
X143982083Y-86726262D01*
X144043803Y-86713144D01*
X144216730Y-86636151D01*
X144320014Y-86561111D01*
X144369870Y-86524889D01*
X144437438Y-86449848D01*
X144496533Y-86384216D01*
X144591179Y-86220284D01*
X144649674Y-86040256D01*
X144669460Y-85852000D01*
X144649674Y-85663744D01*
X144591179Y-85483716D01*
X144591177Y-85483714D01*
X144588946Y-85476845D01*
X144584760Y-85416999D01*
X144605446Y-85370530D01*
X144590480Y-85373170D01*
X144533420Y-85354635D01*
X144507318Y-85327610D01*
X144505254Y-85329469D01*
X144369870Y-85179110D01*
X144216730Y-85067848D01*
X144043802Y-84990855D01*
X143858648Y-84951500D01*
X143858646Y-84951500D01*
X143669354Y-84951500D01*
X143669352Y-84951500D01*
X143484197Y-84990855D01*
X143311269Y-85067848D01*
X143158129Y-85179110D01*
X143094150Y-85250167D01*
X143036179Y-85286391D01*
X142967821Y-85286391D01*
X142909850Y-85250167D01*
X142845870Y-85179110D01*
X142692730Y-85067848D01*
X142519802Y-84990855D01*
X142334648Y-84951500D01*
X142334646Y-84951500D01*
X142145354Y-84951500D01*
X142145352Y-84951500D01*
X141960197Y-84990855D01*
X141787269Y-85067848D01*
X141634129Y-85179110D01*
X141570150Y-85250167D01*
X141512179Y-85286391D01*
X141443821Y-85286391D01*
X141385850Y-85250167D01*
X141321870Y-85179110D01*
X141168730Y-85067848D01*
X140995802Y-84990855D01*
X140810648Y-84951500D01*
X140810646Y-84951500D01*
X140621354Y-84951500D01*
X140621352Y-84951500D01*
X140436197Y-84990855D01*
X140263269Y-85067848D01*
X140110129Y-85179110D01*
X139983466Y-85319783D01*
X139888820Y-85483715D01*
X139830326Y-85663742D01*
X139826081Y-85704135D01*
X139810540Y-85852000D01*
X139830326Y-86040256D01*
X139836476Y-86059184D01*
X139841018Y-86116897D01*
X139818863Y-86170385D01*
X139774840Y-86207985D01*
X139718545Y-86221500D01*
X139605352Y-86221500D01*
X139420197Y-86260855D01*
X139247269Y-86337848D01*
X139094129Y-86449110D01*
X138967466Y-86589783D01*
X138872820Y-86753715D01*
X138814326Y-86933742D01*
X138794540Y-87122000D01*
X137657689Y-87122000D01*
X137649674Y-87045744D01*
X137591179Y-86865716D01*
X137591179Y-86865715D01*
X137496533Y-86701783D01*
X137369870Y-86561110D01*
X137216730Y-86449848D01*
X137043802Y-86372855D01*
X136858648Y-86333500D01*
X136858646Y-86333500D01*
X136669354Y-86333500D01*
X136669352Y-86333500D01*
X136484197Y-86372855D01*
X136311269Y-86449848D01*
X136158129Y-86561111D01*
X136080916Y-86646864D01*
X136033204Y-86679655D01*
X135975805Y-86687212D01*
X135921232Y-86667886D01*
X135881380Y-86625891D01*
X135860533Y-86589784D01*
X135733870Y-86449110D01*
X135580730Y-86337848D01*
X135407802Y-86260855D01*
X135222648Y-86221500D01*
X135222646Y-86221500D01*
X135033354Y-86221500D01*
X135033352Y-86221500D01*
X134848197Y-86260855D01*
X134675269Y-86337848D01*
X134522129Y-86449110D01*
X134395466Y-86589783D01*
X134300820Y-86753715D01*
X134242326Y-86933742D01*
X134222540Y-87122000D01*
X125399292Y-87122000D01*
X125702895Y-86152393D01*
X125704271Y-86148258D01*
X126065044Y-85125601D01*
X126066560Y-85121539D01*
X126463592Y-84112441D01*
X126465280Y-84108366D01*
X126489881Y-84051849D01*
X126898076Y-83114082D01*
X126899884Y-83110124D01*
X126985583Y-82931000D01*
X128828696Y-82931000D01*
X128847897Y-83297406D01*
X128905293Y-83659788D01*
X129000258Y-84014200D01*
X129131744Y-84356735D01*
X129298320Y-84683656D01*
X129498146Y-84991363D01*
X129603527Y-85121497D01*
X129729051Y-85276506D01*
X129988494Y-85535949D01*
X130092475Y-85620151D01*
X130273636Y-85766853D01*
X130404752Y-85852000D01*
X130581348Y-85966682D01*
X130908264Y-86133255D01*
X131250801Y-86264742D01*
X131605206Y-86359705D01*
X131605209Y-86359705D01*
X131605211Y-86359706D01*
X131967593Y-86417102D01*
X132017373Y-86419710D01*
X132334000Y-86436304D01*
X132665645Y-86418923D01*
X132700406Y-86417102D01*
X133062788Y-86359706D01*
X133062788Y-86359705D01*
X133062794Y-86359705D01*
X133417199Y-86264742D01*
X133759736Y-86133255D01*
X134086652Y-85966682D01*
X134394366Y-85766851D01*
X134679506Y-85535949D01*
X134938949Y-85276506D01*
X135169851Y-84991366D01*
X135369682Y-84683652D01*
X135536255Y-84356736D01*
X135667742Y-84014199D01*
X135762705Y-83659794D01*
X135782160Y-83536960D01*
X135820102Y-83297406D01*
X135826659Y-83172284D01*
X135839304Y-82931000D01*
X135820102Y-82564596D01*
X135811916Y-82512913D01*
X135762706Y-82202211D01*
X135756889Y-82180500D01*
X135667742Y-81847801D01*
X135536255Y-81505264D01*
X135421477Y-81280000D01*
X144128540Y-81280000D01*
X144148326Y-81468257D01*
X144206820Y-81648284D01*
X144301466Y-81812216D01*
X144428129Y-81952889D01*
X144581269Y-82064151D01*
X144754197Y-82141144D01*
X144939352Y-82180500D01*
X144939354Y-82180500D01*
X145128646Y-82180500D01*
X145128648Y-82180500D01*
X145252083Y-82154262D01*
X145313803Y-82141144D01*
X145486730Y-82064151D01*
X145538145Y-82026796D01*
X145639870Y-81952889D01*
X145641693Y-81950865D01*
X145766533Y-81812216D01*
X145861179Y-81648284D01*
X145919674Y-81468256D01*
X145939460Y-81280000D01*
X145919674Y-81091744D01*
X145861179Y-80911716D01*
X145861179Y-80911715D01*
X145766533Y-80747783D01*
X145639870Y-80607110D01*
X145486730Y-80495848D01*
X145313802Y-80418855D01*
X145128648Y-80379500D01*
X145128646Y-80379500D01*
X144939354Y-80379500D01*
X144939352Y-80379500D01*
X144754197Y-80418855D01*
X144581269Y-80495848D01*
X144428129Y-80607110D01*
X144301466Y-80747783D01*
X144206820Y-80911715D01*
X144148326Y-81091742D01*
X144128540Y-81280000D01*
X135421477Y-81280000D01*
X135369682Y-81178348D01*
X135362403Y-81167139D01*
X135169853Y-80870636D01*
X135070368Y-80747783D01*
X134938949Y-80585494D01*
X134679506Y-80326051D01*
X134491717Y-80173982D01*
X134394363Y-80095146D01*
X134086656Y-79895320D01*
X133759735Y-79728744D01*
X133417200Y-79597258D01*
X133062788Y-79502293D01*
X132700406Y-79444897D01*
X132334000Y-79425696D01*
X131967593Y-79444897D01*
X131605211Y-79502293D01*
X131250799Y-79597258D01*
X130908264Y-79728744D01*
X130581343Y-79895320D01*
X130273636Y-80095146D01*
X129988490Y-80326054D01*
X129729054Y-80585490D01*
X129498146Y-80870636D01*
X129298320Y-81178343D01*
X129131744Y-81505264D01*
X129000258Y-81847799D01*
X128905293Y-82202211D01*
X128847897Y-82564593D01*
X128828696Y-82931000D01*
X126985583Y-82931000D01*
X127367894Y-82131916D01*
X127369834Y-82128040D01*
X127872485Y-81167115D01*
X127874581Y-81163279D01*
X128411194Y-80220932D01*
X128413392Y-80217228D01*
X128983302Y-79294629D01*
X128985656Y-79290965D01*
X129588125Y-78389307D01*
X129590603Y-78385737D01*
X129701463Y-78232000D01*
X153780540Y-78232000D01*
X153800326Y-78420257D01*
X153858820Y-78600284D01*
X153953466Y-78764216D01*
X154080129Y-78904889D01*
X154233269Y-79016151D01*
X154406197Y-79093144D01*
X154591352Y-79132500D01*
X154591354Y-79132500D01*
X154780646Y-79132500D01*
X154780648Y-79132500D01*
X154904084Y-79106262D01*
X154965803Y-79093144D01*
X155138730Y-79016151D01*
X155291871Y-78904888D01*
X155418533Y-78764216D01*
X155513179Y-78600284D01*
X155571674Y-78420256D01*
X155591460Y-78232000D01*
X169782540Y-78232000D01*
X169802326Y-78420257D01*
X169860820Y-78600284D01*
X169955466Y-78764216D01*
X170082129Y-78904889D01*
X170235269Y-79016151D01*
X170408197Y-79093144D01*
X170593352Y-79132500D01*
X170593354Y-79132500D01*
X170782646Y-79132500D01*
X170782648Y-79132500D01*
X170906083Y-79106262D01*
X170967803Y-79093144D01*
X171140730Y-79016151D01*
X171293871Y-78904888D01*
X171420533Y-78764216D01*
X171515179Y-78600284D01*
X171573674Y-78420256D01*
X171593460Y-78232000D01*
X171573674Y-78043744D01*
X171515179Y-77863716D01*
X171515179Y-77863715D01*
X171420533Y-77699783D01*
X171293870Y-77559110D01*
X171140730Y-77447848D01*
X170967802Y-77370855D01*
X170782648Y-77331500D01*
X170782646Y-77331500D01*
X170593354Y-77331500D01*
X170593352Y-77331500D01*
X170408197Y-77370855D01*
X170235269Y-77447848D01*
X170082129Y-77559110D01*
X169955466Y-77699783D01*
X169860820Y-77863715D01*
X169802326Y-78043742D01*
X169782540Y-78232000D01*
X155591460Y-78232000D01*
X155571674Y-78043744D01*
X155513179Y-77863716D01*
X155513179Y-77863715D01*
X155418533Y-77699783D01*
X155291870Y-77559110D01*
X155138730Y-77447848D01*
X154965802Y-77370855D01*
X154780648Y-77331500D01*
X154780646Y-77331500D01*
X154591354Y-77331500D01*
X154591352Y-77331500D01*
X154406197Y-77370855D01*
X154233269Y-77447848D01*
X154080129Y-77559110D01*
X153953466Y-77699783D01*
X153858820Y-77863715D01*
X153800326Y-78043742D01*
X153780540Y-78232000D01*
X129701463Y-78232000D01*
X130224888Y-77506132D01*
X130227501Y-77502642D01*
X130844798Y-76708000D01*
X143112540Y-76708000D01*
X143132326Y-76896257D01*
X143190820Y-77076284D01*
X143285466Y-77240216D01*
X143412129Y-77380889D01*
X143565269Y-77492151D01*
X143738197Y-77569144D01*
X143923352Y-77608500D01*
X143923354Y-77608500D01*
X144112646Y-77608500D01*
X144112648Y-77608500D01*
X144236083Y-77582262D01*
X144297803Y-77569144D01*
X144470730Y-77492151D01*
X144623871Y-77380888D01*
X144750533Y-77240216D01*
X144845179Y-77076284D01*
X144903674Y-76896256D01*
X144923460Y-76708000D01*
X144903674Y-76519744D01*
X144845179Y-76339716D01*
X144845179Y-76339715D01*
X144750533Y-76175783D01*
X144623870Y-76035110D01*
X144470730Y-75923848D01*
X144297802Y-75846855D01*
X144112648Y-75807500D01*
X144112646Y-75807500D01*
X143923354Y-75807500D01*
X143923352Y-75807500D01*
X143738197Y-75846855D01*
X143565269Y-75923848D01*
X143412129Y-76035110D01*
X143285466Y-76175783D01*
X143190820Y-76339715D01*
X143132326Y-76519742D01*
X143112540Y-76708000D01*
X130844798Y-76708000D01*
X130892761Y-76646257D01*
X130895472Y-76642893D01*
X131590882Y-75810790D01*
X131593695Y-75807543D01*
X131925638Y-75437999D01*
X136254540Y-75437999D01*
X136274326Y-75626257D01*
X136332820Y-75806284D01*
X136427466Y-75970216D01*
X136554129Y-76110889D01*
X136707269Y-76222151D01*
X136880197Y-76299144D01*
X137065352Y-76338500D01*
X137065354Y-76338500D01*
X137254646Y-76338500D01*
X137254648Y-76338500D01*
X137378083Y-76312262D01*
X137439803Y-76299144D01*
X137612730Y-76222151D01*
X137765871Y-76110888D01*
X137892533Y-75970216D01*
X137987179Y-75806284D01*
X138045674Y-75626256D01*
X138065460Y-75438000D01*
X138045674Y-75249744D01*
X137987179Y-75069716D01*
X137987179Y-75069715D01*
X137892533Y-74905783D01*
X137765870Y-74765110D01*
X137612730Y-74653848D01*
X137439802Y-74576855D01*
X137254648Y-74537500D01*
X137254646Y-74537500D01*
X137065354Y-74537500D01*
X137065352Y-74537500D01*
X136880197Y-74576855D01*
X136707269Y-74653848D01*
X136554129Y-74765110D01*
X136427466Y-74905783D01*
X136332820Y-75069715D01*
X136274326Y-75249742D01*
X136254540Y-75437999D01*
X131925638Y-75437999D01*
X132318420Y-75000725D01*
X132321363Y-74997566D01*
X133074373Y-74217182D01*
X133077398Y-74214157D01*
X133857782Y-73461147D01*
X133860941Y-73458204D01*
X134667759Y-72733479D01*
X134671006Y-72730666D01*
X135503109Y-72035256D01*
X135506473Y-72032545D01*
X136027243Y-71627999D01*
X147938540Y-71627999D01*
X147958326Y-71816257D01*
X148016820Y-71996284D01*
X148111466Y-72160216D01*
X148238129Y-72300889D01*
X148391269Y-72412151D01*
X148564197Y-72489144D01*
X148749352Y-72528500D01*
X148749354Y-72528500D01*
X148938646Y-72528500D01*
X148938648Y-72528500D01*
X149062083Y-72502262D01*
X149123803Y-72489144D01*
X149296730Y-72412151D01*
X149449871Y-72300888D01*
X149576533Y-72160216D01*
X149671179Y-71996284D01*
X149729674Y-71816256D01*
X149749460Y-71628000D01*
X149729674Y-71439744D01*
X149671179Y-71259716D01*
X149626307Y-71181996D01*
X149609696Y-71120000D01*
X149626307Y-71058003D01*
X149671179Y-70980284D01*
X149729674Y-70800256D01*
X149749460Y-70612000D01*
X149729674Y-70423744D01*
X149671179Y-70243716D01*
X149626307Y-70165996D01*
X149609696Y-70104000D01*
X149626307Y-70042003D01*
X149671179Y-69964284D01*
X149729674Y-69784256D01*
X149749460Y-69596000D01*
X149729674Y-69407744D01*
X149671179Y-69227716D01*
X149671179Y-69227715D01*
X149576533Y-69063783D01*
X149449870Y-68923110D01*
X149296730Y-68811848D01*
X149123802Y-68734855D01*
X148938648Y-68695500D01*
X148938646Y-68695500D01*
X148749354Y-68695500D01*
X148749352Y-68695500D01*
X148564197Y-68734855D01*
X148391269Y-68811848D01*
X148238129Y-68923110D01*
X148111466Y-69063783D01*
X148016820Y-69227715D01*
X147958326Y-69407742D01*
X147938540Y-69596000D01*
X147958326Y-69784257D01*
X148016820Y-69964284D01*
X148061689Y-70041999D01*
X148078302Y-70103998D01*
X148061690Y-70165998D01*
X148016820Y-70243716D01*
X147958326Y-70423742D01*
X147938540Y-70612000D01*
X147958326Y-70800257D01*
X148016820Y-70980283D01*
X148061690Y-71058001D01*
X148078302Y-71120000D01*
X148061690Y-71181999D01*
X148016820Y-71259716D01*
X147958326Y-71439742D01*
X147938540Y-71627999D01*
X136027243Y-71627999D01*
X136362858Y-71367285D01*
X136366348Y-71364672D01*
X137245953Y-70730387D01*
X137249523Y-70727909D01*
X138151181Y-70125440D01*
X138154845Y-70123086D01*
X139077444Y-69553176D01*
X139081148Y-69550978D01*
X140023495Y-69014365D01*
X140027331Y-69012269D01*
X140988256Y-68509618D01*
X140992132Y-68507678D01*
X141970340Y-68039668D01*
X141974298Y-68037860D01*
X142968597Y-67605057D01*
X142972657Y-67603376D01*
X143981755Y-67206344D01*
X143985817Y-67204828D01*
X145008474Y-66844055D01*
X145012609Y-66842679D01*
X146047463Y-66518646D01*
X146051679Y-66517408D01*
X147097459Y-66230512D01*
X147101669Y-66229439D01*
X148157014Y-65980054D01*
X148161259Y-65979130D01*
X149224827Y-65767573D01*
X149229137Y-65766796D01*
X150299604Y-65593331D01*
X150303870Y-65592718D01*
X151379839Y-65457572D01*
X151384205Y-65457102D01*
X152277561Y-65377158D01*
X152339261Y-65387481D01*
X152388071Y-65426613D01*
X152411564Y-65484595D01*
X152403761Y-65546667D01*
X152366646Y-65597030D01*
X152213491Y-65721053D01*
X151954054Y-65980490D01*
X151723146Y-66265636D01*
X151523320Y-66573343D01*
X151356744Y-66900264D01*
X151225258Y-67242799D01*
X151130293Y-67597211D01*
X151072897Y-67959593D01*
X151053696Y-68325999D01*
X151072897Y-68692406D01*
X151130293Y-69054788D01*
X151225258Y-69409200D01*
X151356744Y-69751735D01*
X151523320Y-70078656D01*
X151723146Y-70386363D01*
X151753417Y-70423744D01*
X151954051Y-70671506D01*
X152213494Y-70930949D01*
X152370388Y-71057999D01*
X152498636Y-71161853D01*
X152806343Y-71361679D01*
X152806348Y-71361682D01*
X153133264Y-71528255D01*
X153475801Y-71659742D01*
X153830206Y-71754705D01*
X153830209Y-71754705D01*
X153830211Y-71754706D01*
X154192593Y-71812102D01*
X154242373Y-71814710D01*
X154559000Y-71831304D01*
X154890645Y-71813923D01*
X154925406Y-71812102D01*
X155287788Y-71754706D01*
X155287788Y-71754705D01*
X155287794Y-71754705D01*
X155642199Y-71659742D01*
X155984736Y-71528255D01*
X156287479Y-71373999D01*
X157844540Y-71373999D01*
X157864326Y-71562257D01*
X157922820Y-71742284D01*
X158017466Y-71906216D01*
X158144129Y-72046889D01*
X158297269Y-72158151D01*
X158470197Y-72235144D01*
X158655352Y-72274500D01*
X158655354Y-72274500D01*
X158844646Y-72274500D01*
X158844648Y-72274500D01*
X158968083Y-72248262D01*
X159029803Y-72235144D01*
X159202730Y-72158151D01*
X159355871Y-72046888D01*
X159482533Y-71906216D01*
X159577179Y-71742284D01*
X159635674Y-71562256D01*
X159655460Y-71374000D01*
X159635674Y-71185744D01*
X159577179Y-71005716D01*
X159577179Y-71005715D01*
X159482533Y-70841783D01*
X159355870Y-70701110D01*
X159202730Y-70589848D01*
X159029802Y-70512855D01*
X158844648Y-70473500D01*
X158844646Y-70473500D01*
X158655354Y-70473500D01*
X158655352Y-70473500D01*
X158470197Y-70512855D01*
X158297269Y-70589848D01*
X158144129Y-70701110D01*
X158017466Y-70841783D01*
X157922820Y-71005715D01*
X157864326Y-71185742D01*
X157844540Y-71373999D01*
X156287479Y-71373999D01*
X156311652Y-71361682D01*
X156619366Y-71161851D01*
X156904506Y-70930949D01*
X157163949Y-70671506D01*
X157394851Y-70386366D01*
X157594682Y-70078652D01*
X157761255Y-69751736D01*
X157892742Y-69409199D01*
X157987705Y-69054794D01*
X157994442Y-69012257D01*
X158045102Y-68692406D01*
X158054733Y-68508622D01*
X158064304Y-68326000D01*
X158045102Y-67959596D01*
X158042900Y-67945695D01*
X157987706Y-67597211D01*
X157892741Y-67242799D01*
X157878753Y-67206360D01*
X157761255Y-66900264D01*
X157594682Y-66573348D01*
X157594679Y-66573343D01*
X157394853Y-66265636D01*
X157317883Y-66170587D01*
X157163949Y-65980494D01*
X156904506Y-65721051D01*
X156751353Y-65597030D01*
X156730690Y-65580297D01*
X156693907Y-65530756D01*
X156685554Y-65469621D01*
X156707700Y-65412030D01*
X156754861Y-65372241D01*
X156815356Y-65360109D01*
X156815899Y-65360138D01*
G37*
%TD.AperFunction*%
%TD*%
D16*
X173087071Y-130809973D02*
G75*
G03*
X175119073Y-128778000I29J2031973D01*
G01*
X134281571Y-124064347D02*
G75*
G03*
X133039370Y-121386052I-3504871J1647D01*
G01*
X176351123Y-121296234D02*
G75*
G03*
X175119073Y-123962254I2268777J-2666166D01*
G01*
X134281619Y-124064347D02*
X134281619Y-128778000D01*
X173087071Y-130810000D02*
X136313619Y-130810002D01*
X175119073Y-123962254D02*
X175119073Y-128778000D01*
X188142262Y-95782046D02*
G75*
G03*
X121142262Y-95782046I-33500000J0D01*
G01*
X134281598Y-128778000D02*
G75*
G03*
X136313619Y-130810002I2032002J0D01*
G01*
X176351140Y-121296254D02*
G75*
G03*
X188142262Y-95782046I-21708920J25514224D01*
G01*
X121142261Y-95782046D02*
G75*
G03*
X133039370Y-121386051I33499989J-4D01*
G01*
M02*
