%TF.GenerationSoftware,KiCad,Pcbnew,7.0.1*%
%TF.CreationDate,2023-12-15T16:06:27+03:00*%
%TF.ProjectId,_____ __________,1f3b3042-3020-4433-9f40-30323b353d38,rev?*%
%TF.SameCoordinates,Original*%
%TF.FileFunction,Copper,L3,Inr*%
%TF.FilePolarity,Positive*%
%FSLAX46Y46*%
G04 Gerber Fmt 4.6, Leading zero omitted, Abs format (unit mm)*
G04 Created by KiCad (PCBNEW 7.0.1) date 2023-12-15 16:06:27*
%MOMM*%
%LPD*%
G01*
G04 APERTURE LIST*
G04 Aperture macros list*
%AMRoundRect*
0 Rectangle with rounded corners*
0 $1 Rounding radius*
0 $2 $3 $4 $5 $6 $7 $8 $9 X,Y pos of 4 corners*
0 Add a 4 corners polygon primitive as box body*
4,1,4,$2,$3,$4,$5,$6,$7,$8,$9,$2,$3,0*
0 Add four circle primitives for the rounded corners*
1,1,$1+$1,$2,$3*
1,1,$1+$1,$4,$5*
1,1,$1+$1,$6,$7*
1,1,$1+$1,$8,$9*
0 Add four rect primitives between the rounded corners*
20,1,$1+$1,$2,$3,$4,$5,0*
20,1,$1+$1,$4,$5,$6,$7,0*
20,1,$1+$1,$6,$7,$8,$9,0*
20,1,$1+$1,$8,$9,$2,$3,0*%
G04 Aperture macros list end*
%TA.AperFunction,ComponentPad*%
%ADD10R,1.700000X1.700000*%
%TD*%
%TA.AperFunction,ComponentPad*%
%ADD11O,1.700000X1.700000*%
%TD*%
%TA.AperFunction,ComponentPad*%
%ADD12RoundRect,0.200000X-0.200000X-0.450000X0.200000X-0.450000X0.200000X0.450000X-0.200000X0.450000X0*%
%TD*%
%TA.AperFunction,ComponentPad*%
%ADD13O,0.800000X1.300000*%
%TD*%
%TA.AperFunction,ComponentPad*%
%ADD14C,6.000000*%
%TD*%
%TA.AperFunction,ViaPad*%
%ADD15C,0.800000*%
%TD*%
%TA.AperFunction,Conductor*%
%ADD16C,0.300000*%
%TD*%
%TA.AperFunction,Profile*%
%ADD17C,0.200000*%
%TD*%
G04 APERTURE END LIST*
D10*
%TO.N,GND*%
%TO.C,J10*%
X178054000Y-92202000D03*
D11*
%TO.N,SWCLK*%
X178054000Y-94742000D03*
%TO.N,SWDIO*%
X178054000Y-97282000D03*
%TO.N,Net-(D13-A)*%
X178054000Y-99822000D03*
%TD*%
D12*
%TO.N,CAN1L*%
%TO.C,J4*%
X168793000Y-125808000D03*
D13*
%TO.N,CAN1H*%
X170043000Y-125808000D03*
%TD*%
D14*
%TO.N,unconnected-(J3-Pin_1-Pad1)*%
%TO.C,J3*%
X132334000Y-82931000D03*
%TD*%
%TO.N,unconnected-(J1-Pin_1-Pad1)*%
%TO.C,J1*%
X176784000Y-82931000D03*
%TD*%
D12*
%TO.N,GND*%
%TO.C,J9*%
X149021000Y-125808000D03*
D13*
%TO.N,+3.3V*%
X150271000Y-125808000D03*
%TO.N,Digital_input1*%
X151521000Y-125808000D03*
%TO.N,+3.3VA*%
X152771000Y-125808000D03*
%TO.N,Analog_Input1*%
X154021000Y-125808000D03*
%TO.N,GNDA*%
X155271000Y-125808000D03*
%TD*%
D14*
%TO.N,unconnected-(J2-Pin_1-Pad1)*%
%TO.C,J2*%
X154559000Y-68326000D03*
%TD*%
D10*
%TO.N,+3.3V*%
%TO.C,J5*%
X172578000Y-104902000D03*
D11*
%TO.N,GND*%
X170038000Y-104902000D03*
%TO.N,Angle_Sensor_CS_MCU*%
X172578000Y-102362000D03*
%TO.N,Temp_Coil_C_MCU*%
X170038000Y-102362000D03*
%TO.N,Angle_Sensor_SCLK_MCU*%
X172578000Y-99822000D03*
%TO.N,Temp_Coil_B_MCU*%
X170038000Y-99822000D03*
%TO.N,Angle_Sensor_SDIO_MCU*%
X172578000Y-97282000D03*
%TO.N,Temp_Coil_A_MCU*%
X170038000Y-97282000D03*
%TO.N,OUT_MCU*%
X172578000Y-94742000D03*
%TO.N,Current_C_MCU*%
X170038000Y-94742000D03*
%TO.N,Current_B_MCU*%
X172578000Y-92202000D03*
%TO.N,Current_A_MCU*%
X170038000Y-92202000D03*
%TO.N,+3.3VA*%
X172578000Y-89662000D03*
%TO.N,GNDA*%
X170038000Y-89662000D03*
%TD*%
D12*
%TO.N,GND*%
%TO.C,J7*%
X159552000Y-125808000D03*
D13*
%TO.N,RS_485_Y*%
X160802000Y-125808000D03*
%TO.N,RS_485_Z*%
X162052000Y-125808000D03*
%TO.N,RS_485_B*%
X163302000Y-125808000D03*
%TO.N,RS_485_A*%
X164552000Y-125808000D03*
%TD*%
D12*
%TO.N,CAN2L*%
%TO.C,J6*%
X143393000Y-125808000D03*
D13*
%TO.N,CAN2H*%
X144643000Y-125808000D03*
%TD*%
D15*
%TO.N,+3.3V*%
X145542000Y-84836000D03*
%TO.N,GND*%
X149119977Y-109749977D03*
%TO.N,GNDA*%
X154432000Y-116589395D03*
%TO.N,Net-(D4-COM)*%
X153416000Y-107085500D03*
%TO.N,GNDA*%
X155101274Y-109931500D03*
%TO.N,+3.3VA*%
X155181500Y-107085500D03*
%TO.N,GND*%
X138684000Y-120650000D03*
X151130000Y-82804000D03*
X136652000Y-103886000D03*
X148844000Y-118364000D03*
X138938000Y-91694000D03*
X170307000Y-116840000D03*
X125984000Y-100838000D03*
X159766000Y-102108000D03*
X142727561Y-106703516D03*
X148844000Y-81280000D03*
X133858000Y-90170000D03*
X137265023Y-112670977D03*
X143002000Y-87630000D03*
X141732000Y-97028000D03*
X148844000Y-74422000D03*
X165862000Y-87630000D03*
X162560000Y-84582000D03*
X138302647Y-96900646D03*
X142748000Y-81534000D03*
X127254000Y-90932000D03*
X160274000Y-90678000D03*
X132588000Y-98552000D03*
X159004000Y-74422000D03*
X166878000Y-122174000D03*
X147941673Y-90516500D03*
X164338000Y-106426000D03*
X154940000Y-114554000D03*
%TO.N,A*%
X139446000Y-108458000D03*
X156972000Y-109474000D03*
X141224000Y-111760000D03*
%TO.N,B*%
X144526000Y-102362000D03*
X139700000Y-99060000D03*
X157226000Y-99314000D03*
%TO.N,C*%
X137392023Y-115845977D03*
X149860000Y-108585000D03*
X147828000Y-120142000D03*
%TO.N,+24V*%
X170688000Y-82804000D03*
X154940000Y-112776000D03*
X130810000Y-106680000D03*
%TO.N,+12V*%
X141001682Y-120882379D03*
X134620000Y-102870000D03*
X148844000Y-71628000D03*
X148844000Y-70612000D03*
X136398000Y-115062000D03*
X142748000Y-108966000D03*
X158750000Y-71374000D03*
X148844000Y-69596000D03*
X143287454Y-102120500D03*
%TO.N,Net-(D8-K)*%
X137160000Y-75438000D03*
%TO.N,Net-(U7-PC4)*%
X158750000Y-99314000D03*
X163830000Y-96266000D03*
X148286582Y-93466536D03*
%TO.N,Net-(U4-+)*%
X135128000Y-87122000D03*
%TO.N,Enable*%
X138938000Y-92722500D03*
X140462000Y-106426000D03*
X141478000Y-93726000D03*
X139954000Y-112014000D03*
%TO.N,IN_A*%
X139446000Y-106426000D03*
%TO.N,IN_B*%
X143107023Y-98298000D03*
%TO.N,IN_C*%
X139424023Y-114829977D03*
%TO.N,+3.3V*%
X162814000Y-118618000D03*
X154686000Y-78232000D03*
X136652000Y-87122000D03*
X125222000Y-95250000D03*
X144018000Y-76708000D03*
X126746000Y-99060000D03*
X137414000Y-120650000D03*
X169037000Y-116840000D03*
X162560000Y-106426000D03*
X164084000Y-87630000D03*
X139700000Y-87122000D03*
X145034000Y-81280000D03*
X151130000Y-87122000D03*
X178054000Y-106172000D03*
X148844000Y-121158000D03*
X131826000Y-90932000D03*
%TO.N,NRST*%
X155689061Y-90708863D03*
%TO.N,Temp_Coil_C_MCU*%
X147320000Y-88392000D03*
%TO.N,Temp_Coil_B_MCU*%
X148336000Y-87122000D03*
%TO.N,Temp_Coil_A_MCU*%
X149352000Y-87122000D03*
%TO.N,Net-(R16-Pad2)*%
X134620000Y-91440000D03*
X148844000Y-123190000D03*
%TO.N,Current_C_MCU*%
X152400000Y-91440000D03*
%TO.N,Current_B_MCU*%
X153670000Y-91423503D03*
%TO.N,RS_485_RX_MCU*%
X161290000Y-111252000D03*
X162814000Y-112776000D03*
%TO.N,RS_485_Enable_MCU*%
X160032500Y-111207693D03*
X161544000Y-112776000D03*
%TO.N,Current_A_MCU*%
X153670000Y-90424000D03*
%TO.N,Net-(U10-+)*%
X127762000Y-105410000D03*
%TO.N,Net-(D4-COM)*%
X148313669Y-94465669D03*
%TO.N,GNDA*%
X151384000Y-90424000D03*
X149606000Y-82804000D03*
%TO.N,+3.3VA*%
X151130000Y-85852000D03*
%TO.N,Temperature_Power_~{OS}_MCU*%
X143764000Y-85852000D03*
X149860000Y-92710000D03*
%TO.N,Temperature_Power_SCL_MCU*%
X140716000Y-85852000D03*
X149860000Y-95758000D03*
%TO.N,Temperature_Power_SDA_MCU*%
X149860000Y-98298000D03*
X142240000Y-85852000D03*
%TO.N,EEPROM_~{CS_MCU}*%
X142240000Y-91516500D03*
X129032000Y-92964000D03*
%TO.N,EEPROM_MOSI_MCU*%
X144581440Y-93516500D03*
X130048000Y-96012000D03*
%TO.N,Net-(D7-K)*%
X170688000Y-78232000D03*
%TD*%
D16*
%TO.N,C*%
X147828000Y-109728000D02*
X148971000Y-108585000D01*
X148971000Y-108585000D02*
X149860000Y-108585000D01*
X147828000Y-120142000D02*
X147828000Y-109728000D01*
%TO.N,Net-(D4-COM)*%
X149628330Y-94465669D02*
X148313669Y-94465669D01*
X153416000Y-98253339D02*
X149628330Y-94465669D01*
X153416000Y-98298000D02*
X153416000Y-98253339D01*
X153416000Y-107085500D02*
X153416000Y-98298000D01*
%TO.N,+12V*%
X141001682Y-120882379D02*
X140948379Y-120882379D01*
X140948379Y-120882379D02*
X136398000Y-116332000D01*
X136398000Y-116332000D02*
X136398000Y-115062000D01*
%TO.N,Net-(U7-PC4)*%
X148286582Y-93466536D02*
X149600536Y-93466536D01*
X149600536Y-93466536D02*
X154940000Y-98806000D01*
X158000000Y-100064000D02*
X158750000Y-99314000D01*
X156198000Y-100064000D02*
X158000000Y-100064000D01*
X154940000Y-98806000D02*
X156198000Y-100064000D01*
%TO.N,Enable*%
X140462000Y-94742000D02*
X141478000Y-93726000D01*
X140462000Y-106426000D02*
X140462000Y-94742000D01*
X140474500Y-92722500D02*
X141478000Y-93726000D01*
X140462000Y-106426000D02*
X140462000Y-111461339D01*
X139954000Y-111969339D02*
X139954000Y-112014000D01*
X140462000Y-111461339D02*
X139954000Y-111969339D01*
X138938000Y-92722500D02*
X140474500Y-92722500D01*
%TO.N,Temp_Coil_C_MCU*%
X153282688Y-96409019D02*
X155171669Y-98298000D01*
X147320000Y-88392000D02*
X147320000Y-88834873D01*
X147320000Y-88834873D02*
X153282688Y-94797561D01*
X166624000Y-98298000D02*
X170038000Y-101712000D01*
X153282688Y-94797561D02*
X153282688Y-96409019D01*
X170038000Y-101712000D02*
X170038000Y-102362000D01*
X155171669Y-98298000D02*
X166624000Y-98298000D01*
%TO.N,Temp_Coil_B_MCU*%
X153782688Y-96124688D02*
X155448000Y-97790000D01*
X155448000Y-97790000D02*
X168006000Y-97790000D01*
X153782688Y-94590455D02*
X153782688Y-96124688D01*
X148336000Y-89143767D02*
X153782688Y-94590455D01*
X168006000Y-97790000D02*
X170038000Y-99822000D01*
X148336000Y-87122000D02*
X148336000Y-89143767D01*
%TO.N,Temp_Coil_A_MCU*%
X154282688Y-94383349D02*
X154282688Y-95872921D01*
X149352000Y-89452661D02*
X154282688Y-94383349D01*
X154282688Y-95872921D02*
X155569884Y-97160116D01*
X149352000Y-87122000D02*
X149352000Y-89452661D01*
X170038000Y-97282000D02*
X155691768Y-97282000D01*
X155569884Y-97160116D02*
X155691767Y-97282000D01*
X155691768Y-97282000D02*
X155569884Y-97160116D01*
%TO.N,Net-(R16-Pad2)*%
X137414000Y-111760000D02*
X137414000Y-94234000D01*
X137414000Y-94234000D02*
X134620000Y-91440000D01*
X148844000Y-123190000D02*
X137414000Y-111760000D01*
%TO.N,Current_C_MCU*%
X152625836Y-91440000D02*
X152400000Y-91440000D01*
X153641503Y-92173503D02*
X153359339Y-92173503D01*
X168148000Y-95222000D02*
X156690000Y-95222000D01*
X168628000Y-94742000D02*
X168148000Y-95222000D01*
X170038000Y-94742000D02*
X168628000Y-94742000D01*
X156690000Y-95222000D02*
X153641503Y-92173503D01*
X153359339Y-92173503D02*
X152625836Y-91440000D01*
%TO.N,Current_B_MCU*%
X171308000Y-93472000D02*
X169190894Y-93472000D01*
X167940894Y-94722000D02*
X156968497Y-94722000D01*
X169190894Y-93472000D02*
X167940894Y-94722000D01*
X172578000Y-92202000D02*
X171308000Y-93472000D01*
X156968497Y-94722000D02*
X153670000Y-91423503D01*
%TO.N,Current_A_MCU*%
X154420000Y-91112842D02*
X153731158Y-90424000D01*
X167652000Y-94222000D02*
X157214000Y-94222000D01*
X153731158Y-90424000D02*
X153670000Y-90424000D01*
X154420000Y-91428000D02*
X154420000Y-91112842D01*
X157214000Y-94222000D02*
X154420000Y-91428000D01*
X170038000Y-92202000D02*
X169672000Y-92202000D01*
X169672000Y-92202000D02*
X167652000Y-94222000D01*
%TO.N,Temperature_Power_~{OS}_MCU*%
X143764000Y-90932000D02*
X143764000Y-85852000D01*
X149352000Y-92202000D02*
X145034000Y-92202000D01*
X149860000Y-92710000D02*
X149352000Y-92202000D01*
X145034000Y-92202000D02*
X143764000Y-90932000D01*
%TO.N,Temperature_Power_SDA_MCU*%
X142240000Y-85852000D02*
X142240000Y-90115106D01*
X146042000Y-94480000D02*
X149860000Y-98298000D01*
X146042000Y-93917106D02*
X146042000Y-94480000D01*
X142240000Y-90115106D02*
X146042000Y-93917106D01*
%TD*%
%TA.AperFunction,Conductor*%
%TO.N,+3.3VA*%
G36*
X161810992Y-83832932D02*
G01*
X161854627Y-83869030D01*
X161877661Y-83920765D01*
X161875289Y-83977347D01*
X161848006Y-84026973D01*
X161827466Y-84049784D01*
X161732820Y-84213715D01*
X161674326Y-84393742D01*
X161674325Y-84393744D01*
X161674326Y-84393744D01*
X161654540Y-84582000D01*
X161664433Y-84676128D01*
X161674326Y-84770257D01*
X161732820Y-84950284D01*
X161827466Y-85114216D01*
X161954129Y-85254889D01*
X162107269Y-85366151D01*
X162280197Y-85443144D01*
X162465352Y-85482500D01*
X162465354Y-85482500D01*
X162654646Y-85482500D01*
X162654648Y-85482500D01*
X162778083Y-85456262D01*
X162839803Y-85443144D01*
X163012730Y-85366151D01*
X163136112Y-85276509D01*
X163165870Y-85254889D01*
X163292533Y-85114216D01*
X163387179Y-84950284D01*
X163431480Y-84813939D01*
X163445674Y-84770256D01*
X163465460Y-84582000D01*
X163445674Y-84393744D01*
X163407155Y-84275195D01*
X163387179Y-84213715D01*
X163292533Y-84049784D01*
X163271994Y-84026973D01*
X163244711Y-83977347D01*
X163242339Y-83920765D01*
X163265373Y-83869030D01*
X163309008Y-83832932D01*
X163364143Y-83820000D01*
X173303073Y-83820000D01*
X173355477Y-83831618D01*
X173398062Y-83864294D01*
X173422848Y-83911906D01*
X173450258Y-84014200D01*
X173581744Y-84356735D01*
X173748320Y-84683656D01*
X173948146Y-84991363D01*
X174047631Y-85114216D01*
X174179051Y-85276506D01*
X174438494Y-85535949D01*
X174564993Y-85638386D01*
X174723636Y-85766853D01*
X175031343Y-85966679D01*
X175031348Y-85966682D01*
X175358264Y-86133255D01*
X175700801Y-86264742D01*
X176055206Y-86359705D01*
X176055209Y-86359705D01*
X176055211Y-86359706D01*
X176417593Y-86417102D01*
X176467373Y-86419710D01*
X176784000Y-86436304D01*
X177115645Y-86418923D01*
X177150406Y-86417102D01*
X177512788Y-86359706D01*
X177512788Y-86359705D01*
X177512794Y-86359705D01*
X177867199Y-86264742D01*
X178209736Y-86133255D01*
X178536652Y-85966682D01*
X178844366Y-85766851D01*
X178975574Y-85660600D01*
X179029945Y-85635246D01*
X179089860Y-85638386D01*
X179141287Y-85669287D01*
X181058797Y-87586797D01*
X181066969Y-87595813D01*
X181179722Y-87733202D01*
X181193227Y-87753414D01*
X181274121Y-87904756D01*
X181283424Y-87927214D01*
X181333240Y-88091437D01*
X181337982Y-88115278D01*
X181355403Y-88292153D01*
X181356000Y-88304307D01*
X181356000Y-89925907D01*
X181355403Y-89938061D01*
X181337982Y-90114934D01*
X181333240Y-90138775D01*
X181283424Y-90302998D01*
X181274121Y-90325456D01*
X181193227Y-90476798D01*
X181179722Y-90497010D01*
X181070854Y-90629666D01*
X181053666Y-90646854D01*
X180921010Y-90755722D01*
X180900798Y-90769227D01*
X180749456Y-90850121D01*
X180726998Y-90859424D01*
X180562775Y-90909240D01*
X180538934Y-90913982D01*
X180362061Y-90931403D01*
X180349907Y-90932000D01*
X179219389Y-90932000D01*
X179180229Y-90925654D01*
X179148214Y-90908907D01*
X179146332Y-90908205D01*
X179146331Y-90908204D01*
X179011483Y-90857909D01*
X178951873Y-90851500D01*
X178951869Y-90851500D01*
X177156130Y-90851500D01*
X177096515Y-90857909D01*
X176959787Y-90908906D01*
X176927771Y-90925654D01*
X176888611Y-90932000D01*
X173511182Y-90932000D01*
X173451066Y-90916453D01*
X173406024Y-90873710D01*
X173387352Y-90814490D01*
X173399731Y-90753642D01*
X173440058Y-90706425D01*
X173449081Y-90700106D01*
X173616106Y-90533081D01*
X173751600Y-90339576D01*
X173851430Y-90125492D01*
X173908636Y-89912000D01*
X172452000Y-89912000D01*
X172390000Y-89895387D01*
X172344613Y-89850000D01*
X172328000Y-89788000D01*
X172328000Y-88331364D01*
X172828000Y-88331364D01*
X172828000Y-89412000D01*
X173908636Y-89412000D01*
X173908635Y-89411999D01*
X173851430Y-89198507D01*
X173751599Y-88984421D01*
X173616109Y-88790921D01*
X173449081Y-88623893D01*
X173255576Y-88488399D01*
X173041492Y-88388569D01*
X172828000Y-88331364D01*
X172328000Y-88331364D01*
X172327999Y-88331364D01*
X172114507Y-88388569D01*
X171900421Y-88488400D01*
X171706921Y-88623890D01*
X171539893Y-88790918D01*
X171409880Y-88976596D01*
X171365562Y-89015461D01*
X171308305Y-89029472D01*
X171251048Y-89015461D01*
X171206730Y-88976595D01*
X171076494Y-88790598D01*
X170909404Y-88623508D01*
X170909401Y-88623505D01*
X170715830Y-88487965D01*
X170501663Y-88388097D01*
X170440502Y-88371709D01*
X170273407Y-88326936D01*
X170037999Y-88306340D01*
X169802592Y-88326936D01*
X169574336Y-88388097D01*
X169360170Y-88487965D01*
X169166598Y-88623505D01*
X168999505Y-88790598D01*
X168863965Y-88984170D01*
X168764097Y-89198336D01*
X168702936Y-89426592D01*
X168682340Y-89662000D01*
X168702936Y-89897407D01*
X168726215Y-89984284D01*
X168764097Y-90125663D01*
X168863965Y-90339830D01*
X168999505Y-90533401D01*
X168999508Y-90533404D01*
X169166599Y-90700495D01*
X169175069Y-90706426D01*
X169215396Y-90753643D01*
X169227775Y-90814490D01*
X169209103Y-90873710D01*
X169164061Y-90916453D01*
X169103945Y-90932000D01*
X161290480Y-90932000D01*
X161224770Y-90913158D01*
X161179030Y-90862358D01*
X161167159Y-90795039D01*
X161171291Y-90755722D01*
X161179460Y-90678000D01*
X161159674Y-90489744D01*
X161120827Y-90370185D01*
X161101179Y-90309715D01*
X161006533Y-90145783D01*
X160879870Y-90005110D01*
X160726730Y-89893848D01*
X160553802Y-89816855D01*
X160368648Y-89777500D01*
X160368646Y-89777500D01*
X160179354Y-89777500D01*
X160179352Y-89777500D01*
X159994197Y-89816855D01*
X159821269Y-89893848D01*
X159668129Y-90005110D01*
X159541466Y-90145783D01*
X159446820Y-90309715D01*
X159388326Y-90489742D01*
X159368540Y-90678000D01*
X159380841Y-90795039D01*
X159368970Y-90862358D01*
X159323230Y-90913158D01*
X159257520Y-90932000D01*
X156708784Y-90932000D01*
X156643074Y-90913158D01*
X156597333Y-90862358D01*
X156585463Y-90795041D01*
X156594521Y-90708863D01*
X156574735Y-90520607D01*
X156525860Y-90370185D01*
X156516240Y-90340578D01*
X156421594Y-90176646D01*
X156294931Y-90035973D01*
X156141791Y-89924711D01*
X155968863Y-89847718D01*
X155783709Y-89808363D01*
X155783707Y-89808363D01*
X155594415Y-89808363D01*
X155594413Y-89808363D01*
X155409258Y-89847718D01*
X155236330Y-89924711D01*
X155083190Y-90035973D01*
X154956527Y-90176646D01*
X154861880Y-90340580D01*
X154852261Y-90370185D01*
X154818501Y-90422922D01*
X154763277Y-90452439D01*
X154700672Y-90451209D01*
X154646650Y-90419546D01*
X154597625Y-90370521D01*
X154573385Y-90336222D01*
X154561985Y-90295799D01*
X154561851Y-90294528D01*
X154555674Y-90235744D01*
X154555674Y-90235742D01*
X154497179Y-90055715D01*
X154402533Y-89891783D01*
X154275870Y-89751110D01*
X154122730Y-89639848D01*
X153949802Y-89562855D01*
X153764648Y-89523500D01*
X153764646Y-89523500D01*
X153575354Y-89523500D01*
X153575352Y-89523500D01*
X153390197Y-89562855D01*
X153217269Y-89639848D01*
X153064129Y-89751110D01*
X152937466Y-89891783D01*
X152842820Y-90055715D01*
X152784326Y-90235742D01*
X152764540Y-90424000D01*
X152765284Y-90431084D01*
X152757726Y-90488482D01*
X152724934Y-90536193D01*
X152674056Y-90563817D01*
X152616183Y-90565332D01*
X152494649Y-90539500D01*
X152494646Y-90539500D01*
X152413250Y-90539500D01*
X152355036Y-90524986D01*
X152310449Y-90484840D01*
X152289929Y-90428462D01*
X152283444Y-90366762D01*
X152269674Y-90235744D01*
X152211179Y-90055716D01*
X152211179Y-90055715D01*
X152116533Y-89891783D01*
X151989870Y-89751110D01*
X151836730Y-89639848D01*
X151663802Y-89562855D01*
X151478648Y-89523500D01*
X151478646Y-89523500D01*
X151289354Y-89523500D01*
X151289352Y-89523500D01*
X151104197Y-89562855D01*
X150931269Y-89639848D01*
X150778130Y-89751110D01*
X150767138Y-89763318D01*
X150711242Y-89798925D01*
X150644991Y-89800659D01*
X150587309Y-89768024D01*
X150404319Y-89585034D01*
X150377439Y-89544806D01*
X150368000Y-89497353D01*
X150368000Y-87924818D01*
X150386273Y-87860028D01*
X150435705Y-87814333D01*
X150501729Y-87801200D01*
X150564885Y-87824500D01*
X150677269Y-87906151D01*
X150850197Y-87983144D01*
X151035352Y-88022500D01*
X151035354Y-88022500D01*
X151224646Y-88022500D01*
X151224648Y-88022500D01*
X151348084Y-87996262D01*
X151409803Y-87983144D01*
X151582730Y-87906151D01*
X151646549Y-87859784D01*
X151735870Y-87794889D01*
X151743325Y-87786610D01*
X151862533Y-87654216D01*
X151876514Y-87630000D01*
X163178540Y-87630000D01*
X163198326Y-87818257D01*
X163256820Y-87998284D01*
X163351466Y-88162216D01*
X163478129Y-88302889D01*
X163631269Y-88414151D01*
X163804197Y-88491144D01*
X163989352Y-88530500D01*
X163989354Y-88530500D01*
X164178646Y-88530500D01*
X164178648Y-88530500D01*
X164302083Y-88504262D01*
X164363803Y-88491144D01*
X164536730Y-88414151D01*
X164650677Y-88331364D01*
X164689870Y-88302889D01*
X164816533Y-88162216D01*
X164865613Y-88077207D01*
X164911000Y-88031820D01*
X164973000Y-88015207D01*
X165035000Y-88031820D01*
X165080387Y-88077207D01*
X165129466Y-88162216D01*
X165256129Y-88302889D01*
X165409269Y-88414151D01*
X165582197Y-88491144D01*
X165767352Y-88530500D01*
X165767354Y-88530500D01*
X165956646Y-88530500D01*
X165956648Y-88530500D01*
X166080083Y-88504262D01*
X166141803Y-88491144D01*
X166314730Y-88414151D01*
X166428677Y-88331364D01*
X166467870Y-88302889D01*
X166594533Y-88162216D01*
X166689179Y-87998284D01*
X166712271Y-87927214D01*
X166747674Y-87818256D01*
X166767460Y-87630000D01*
X166747674Y-87441744D01*
X166689179Y-87261716D01*
X166689179Y-87261715D01*
X166594533Y-87097783D01*
X166467870Y-86957110D01*
X166314730Y-86845848D01*
X166141802Y-86768855D01*
X165956648Y-86729500D01*
X165956646Y-86729500D01*
X165767354Y-86729500D01*
X165767352Y-86729500D01*
X165582197Y-86768855D01*
X165409269Y-86845848D01*
X165256129Y-86957110D01*
X165129466Y-87097784D01*
X165080387Y-87182792D01*
X165035000Y-87228179D01*
X164973000Y-87244792D01*
X164911000Y-87228179D01*
X164865613Y-87182792D01*
X164816533Y-87097784D01*
X164689870Y-86957110D01*
X164536730Y-86845848D01*
X164363802Y-86768855D01*
X164178648Y-86729500D01*
X164178646Y-86729500D01*
X163989354Y-86729500D01*
X163989352Y-86729500D01*
X163804197Y-86768855D01*
X163631269Y-86845848D01*
X163478129Y-86957110D01*
X163351466Y-87097783D01*
X163256820Y-87261715D01*
X163198326Y-87441742D01*
X163178540Y-87630000D01*
X151876514Y-87630000D01*
X151957179Y-87490284D01*
X152015674Y-87310256D01*
X152035460Y-87122000D01*
X152015674Y-86933744D01*
X151985332Y-86840363D01*
X151957179Y-86753715D01*
X151862533Y-86589783D01*
X151735870Y-86449110D01*
X151582730Y-86337848D01*
X151409802Y-86260855D01*
X151224648Y-86221500D01*
X151224646Y-86221500D01*
X151035354Y-86221500D01*
X151035352Y-86221500D01*
X150850197Y-86260855D01*
X150677269Y-86337848D01*
X150564885Y-86419500D01*
X150501729Y-86442800D01*
X150435705Y-86429667D01*
X150386273Y-86383972D01*
X150368000Y-86319182D01*
X150368000Y-84826093D01*
X150368597Y-84813939D01*
X150372899Y-84770257D01*
X150386018Y-84637056D01*
X150390757Y-84613232D01*
X150440577Y-84448994D01*
X150449875Y-84426549D01*
X150530775Y-84275195D01*
X150544272Y-84254995D01*
X150653149Y-84122328D01*
X150670328Y-84105149D01*
X150802995Y-83996272D01*
X150823195Y-83982775D01*
X150974549Y-83901875D01*
X150996994Y-83892577D01*
X151161232Y-83842757D01*
X151185056Y-83838018D01*
X151361938Y-83820597D01*
X151374093Y-83820000D01*
X161755857Y-83820000D01*
X161810992Y-83832932D01*
G37*
%TD.AperFunction*%
%TD*%
D17*
X173087071Y-130809973D02*
G75*
G03*
X175119073Y-128778000I29J2031973D01*
G01*
X134281607Y-124064347D02*
G75*
G03*
X133039370Y-121386051I-3504807J1647D01*
G01*
X176351146Y-121296261D02*
G75*
G03*
X175119073Y-123962254I2268654J-2666139D01*
G01*
X134281619Y-124064347D02*
X134281619Y-128778000D01*
X173087071Y-130810000D02*
X136313619Y-130810002D01*
X175119073Y-123962254D02*
X175119073Y-128778000D01*
X188142262Y-95782046D02*
G75*
G03*
X121142262Y-95782046I-33500000J0D01*
G01*
X134281598Y-128778000D02*
G75*
G03*
X136313619Y-130810002I2032002J0D01*
G01*
X176351135Y-121296249D02*
G75*
G03*
X188142262Y-95782046I-21708895J25514219D01*
G01*
X121142265Y-95782046D02*
G75*
G03*
X133039370Y-121386051I33499975J-14D01*
G01*
M02*
