M48
; DRILL file {KiCad 7.0.1} date Sun Dec 24 22:53:35 2023
; FORMAT={-:-/ absolute / metric / decimal}
; #@! TF.CreationDate,2023-12-24T22:53:35+03:00
; #@! TF.GenerationSoftware,Kicad,Pcbnew,7.0.1
; #@! TF.FileFunction,Plated,1,6,PTH
FMAT,2
METRIC
; #@! TA.AperFunction,Plated,PTH,ViaDrill
T1C0.400
; #@! TA.AperFunction,Plated,PTH,ComponentDrill
T2C0.500
; #@! TA.AperFunction,Plated,PTH,ComponentDrill
T3C1.000
; #@! TA.AperFunction,Plated,PTH,ComponentDrill
T4C3.000
%
G90
G05
T1
X125.349Y-95.123
X125.984Y-100.838
X126.746Y-99.06
X127.254Y-90.932
X127.762Y-105.41
X129.032Y-92.964
X130.048Y-96.012
X130.81Y-106.68
X131.826Y-91.186
X132.588Y-98.552
X133.858Y-90.17
X134.62Y-91.44
X134.62Y-102.87
X135.128Y-87.122
X136.398Y-115.062
X136.652Y-103.886
X136.764Y-87.234
X137.16Y-75.438
X137.265Y-112.671
X137.392Y-115.846
X137.414Y-120.65
X138.303Y-96.901
X138.684Y-120.65
X138.938Y-91.694
X138.938Y-92.722
X139.424Y-114.83
X139.446Y-106.426
X139.446Y-108.458
X139.7Y-87.122
X139.7Y-99.06
X139.954Y-112.014
X140.462Y-106.426
X140.716Y-85.852
X141.002Y-120.882
X141.224Y-111.76
X141.478Y-93.726
X141.732Y-97.028
X142.24Y-85.852
X142.24Y-91.516
X142.728Y-106.704
X142.748Y-81.534
X142.748Y-108.966
X143.002Y-87.63
X143.107Y-98.298
X143.287Y-102.12
X143.764Y-85.852
X144.018Y-76.708
X144.526Y-102.362
X144.581Y-93.516
X145.034Y-81.28
X145.542Y-84.836
X147.024Y-111.845
X147.32Y-88.392
X147.828Y-120.142
X147.942Y-90.516
X148.287Y-93.467
X148.314Y-94.466
X148.336Y-87.122
X148.336Y-95.504
X148.336Y-121.539
X148.336Y-122.555
X148.844Y-69.596
X148.844Y-70.612
X148.844Y-71.628
X148.844Y-74.422
X148.844Y-81.28
X148.844Y-118.364
X149.352Y-87.122
X149.606Y-82.804
X149.86Y-92.71
X149.86Y-95.758
X149.86Y-98.298
X149.86Y-108.585
X151.13Y-82.804
X151.13Y-85.852
X151.13Y-87.122
X151.384Y-90.424
X152.4Y-91.44
X153.67Y-90.424
X153.67Y-91.424
X153.924Y-118.11
X154.559Y-114.3
X154.686Y-78.232
X154.686Y-105.537
X155.689Y-90.709
X155.702Y-117.602
X155.956Y-112.014
X156.972Y-109.474
X157.226Y-99.314
X158.75Y-71.374
X158.75Y-99.314
X159.004Y-74.422
X159.258Y-115.78
X159.512Y-121.412
X159.766Y-100.076
X159.766Y-101.092
X159.766Y-102.108
X159.766Y-113.03
X160.02Y-90.678
X160.032Y-111.208
X161.29Y-111.252
X161.29Y-116.078
X162.56Y-84.582
X162.56Y-106.426
X163.83Y-96.266
X163.83Y-111.252
X164.084Y-86.614
X164.338Y-106.426
X165.1Y-112.268
X165.862Y-87.63
X167.64Y-117.602
X169.418Y-121.412
X170.688Y-78.232
X170.688Y-82.804
X171.958Y-113.538
X173.482Y-113.538
X178.054Y-106.172
T2
X143.393Y-125.808
X144.643Y-125.808
X149.021Y-125.808
X150.271Y-125.808
X151.521Y-125.808
X152.771Y-125.808
X154.021Y-125.808
X155.271Y-125.808
X159.552Y-125.808
X160.802Y-125.808
X162.052Y-125.808
X163.302Y-125.808
X164.552Y-125.808
X168.793Y-125.808
X170.043Y-125.808
T3
X170.038Y-89.662
X170.038Y-92.202
X170.038Y-94.742
X170.038Y-97.282
X170.038Y-99.822
X170.038Y-102.362
X170.038Y-104.902
X172.578Y-89.662
X172.578Y-92.202
X172.578Y-94.742
X172.578Y-97.282
X172.578Y-99.822
X172.578Y-102.362
X172.578Y-104.902
X178.054Y-92.202
X178.054Y-94.742
X178.054Y-97.282
X178.054Y-99.822
T4
X132.334Y-82.931
X154.559Y-68.326
X176.784Y-82.931
T0
M30
