M48
; DRILL file {KiCad 7.0.1} date Fri Dec 15 16:06:28 2023
; FORMAT={-:-/ absolute / inch / decimal}
; #@! TF.CreationDate,2023-12-15T16:06:28+03:00
; #@! TF.GenerationSoftware,Kicad,Pcbnew,7.0.1
; #@! TF.FileFunction,Plated,1,6,PTH
FMAT,2
INCH
; #@! TA.AperFunction,Plated,PTH,ViaDrill
T1C0.0157
; #@! TA.AperFunction,Plated,PTH,ComponentDrill
T2C0.0197
; #@! TA.AperFunction,Plated,PTH,ComponentDrill
T3C0.0394
; #@! TA.AperFunction,Plated,PTH,ComponentDrill
T4C0.1181
%
G90
G05
T1
X4.93Y-3.75
X4.96Y-3.97
X4.99Y-3.9
X5.01Y-3.58
X5.03Y-4.15
X5.08Y-3.66
X5.12Y-3.78
X5.15Y-4.2
X5.19Y-3.58
X5.22Y-3.88
X5.27Y-3.55
X5.3Y-3.6
X5.3Y-4.05
X5.32Y-3.43
X5.37Y-4.53
X5.38Y-3.43
X5.38Y-4.09
X5.4Y-2.97
X5.4041Y-4.4359
X5.4091Y-4.5609
X5.41Y-4.75
X5.445Y-3.815
X5.46Y-4.75
X5.47Y-3.61
X5.47Y-3.6505
X5.4891Y-4.5209
X5.49Y-4.19
X5.49Y-4.27
X5.5Y-3.43
X5.5Y-3.9
X5.51Y-4.41
X5.53Y-4.19
X5.54Y-3.38
X5.5512Y-4.7591
X5.56Y-4.4
X5.57Y-3.69
X5.58Y-3.82
X5.6Y-3.38
X5.6Y-3.603
X5.6192Y-4.2009
X5.62Y-3.21
X5.62Y-4.29
X5.63Y-3.45
X5.6341Y-3.87
X5.6412Y-4.0205
X5.66Y-3.38
X5.67Y-3.02
X5.69Y-4.03
X5.6922Y-3.6818
X5.71Y-3.2
X5.73Y-3.34
X5.8Y-3.48
X5.82Y-4.73
X5.8245Y-3.5636
X5.8381Y-3.6798
X5.8391Y-3.7191
X5.84Y-3.43
X5.86Y-2.74
X5.86Y-2.78
X5.86Y-2.82
X5.86Y-2.93
X5.86Y-3.2
X5.86Y-4.66
X5.86Y-4.77
X5.86Y-4.85
X5.8709Y-4.3209
X5.88Y-3.43
X5.89Y-3.26
X5.9Y-3.65
X5.9Y-3.77
X5.9Y-3.87
X5.9Y-4.275
X5.95Y-3.26
X5.95Y-3.38
X5.95Y-3.43
X5.96Y-3.56
X6.0Y-3.6
X6.04Y-4.216
X6.05Y-3.56
X6.05Y-3.5994
X6.08Y-4.5901
X6.09Y-3.08
X6.1Y-4.44
X6.1Y-4.51
X6.1063Y-4.328
X6.1095Y-4.216
X6.1295Y-3.5712
X6.18Y-4.31
X6.19Y-3.91
X6.25Y-2.81
X6.25Y-3.91
X6.26Y-2.93
X6.29Y-4.02
X6.3005Y-4.3783
X6.31Y-3.57
X6.35Y-4.38
X6.36Y-4.44
X6.4Y-3.33
X6.4Y-4.19
X6.41Y-4.44
X6.41Y-4.67
X6.45Y-3.79
X6.46Y-3.45
X6.47Y-4.19
X6.53Y-3.45
X6.57Y-4.81
X6.655Y-4.6
X6.705Y-4.6
X6.72Y-3.08
X6.72Y-3.26
X7.01Y-4.18
T2
X5.6454Y-4.9531
X5.6946Y-4.9531
X5.867Y-4.9531
X5.9162Y-4.9531
X5.9654Y-4.9531
X6.0146Y-4.9531
X6.0638Y-4.9531
X6.113Y-4.9531
X6.2816Y-4.9531
X6.3308Y-4.9531
X6.38Y-4.9531
X6.4292Y-4.9531
X6.4784Y-4.9531
X6.6454Y-4.9531
X6.6946Y-4.9531
T3
X6.6944Y-3.53
X6.6944Y-3.63
X6.6944Y-3.73
X6.6944Y-3.83
X6.6944Y-3.93
X6.6944Y-4.03
X6.6944Y-4.13
X6.7944Y-3.53
X6.7944Y-3.63
X6.7944Y-3.73
X6.7944Y-3.83
X6.7944Y-3.93
X6.7944Y-4.03
X6.7944Y-4.13
X7.01Y-3.63
X7.01Y-3.73
X7.01Y-3.83
X7.01Y-3.93
T4
X5.21Y-3.265
X6.085Y-2.69
X6.96Y-3.265
T0
M30
