%TF.GenerationSoftware,KiCad,Pcbnew,7.0.1*%
%TF.CreationDate,2023-12-15T16:06:27+03:00*%
%TF.ProjectId,_____ __________,1f3b3042-3020-4433-9f40-30323b353d38,rev?*%
%TF.SameCoordinates,Original*%
%TF.FileFunction,Soldermask,Top*%
%TF.FilePolarity,Negative*%
%FSLAX46Y46*%
G04 Gerber Fmt 4.6, Leading zero omitted, Abs format (unit mm)*
G04 Created by KiCad (PCBNEW 7.0.1) date 2023-12-15 16:06:27*
%MOMM*%
%LPD*%
G01*
G04 APERTURE LIST*
G04 Aperture macros list*
%AMRoundRect*
0 Rectangle with rounded corners*
0 $1 Rounding radius*
0 $2 $3 $4 $5 $6 $7 $8 $9 X,Y pos of 4 corners*
0 Add a 4 corners polygon primitive as box body*
4,1,4,$2,$3,$4,$5,$6,$7,$8,$9,$2,$3,0*
0 Add four circle primitives for the rounded corners*
1,1,$1+$1,$2,$3*
1,1,$1+$1,$4,$5*
1,1,$1+$1,$6,$7*
1,1,$1+$1,$8,$9*
0 Add four rect primitives between the rounded corners*
20,1,$1+$1,$2,$3,$4,$5,0*
20,1,$1+$1,$4,$5,$6,$7,0*
20,1,$1+$1,$6,$7,$8,$9,0*
20,1,$1+$1,$8,$9,$2,$3,0*%
G04 Aperture macros list end*
%ADD10RoundRect,0.250000X-0.262500X-0.450000X0.262500X-0.450000X0.262500X0.450000X-0.262500X0.450000X0*%
%ADD11RoundRect,0.237500X-0.237500X0.250000X-0.237500X-0.250000X0.237500X-0.250000X0.237500X0.250000X0*%
%ADD12RoundRect,0.237500X0.237500X-0.250000X0.237500X0.250000X-0.237500X0.250000X-0.237500X-0.250000X0*%
%ADD13RoundRect,0.150000X-0.587500X-0.150000X0.587500X-0.150000X0.587500X0.150000X-0.587500X0.150000X0*%
%ADD14RoundRect,0.150000X0.587500X0.150000X-0.587500X0.150000X-0.587500X-0.150000X0.587500X-0.150000X0*%
%ADD15RoundRect,0.237500X-0.237500X0.300000X-0.237500X-0.300000X0.237500X-0.300000X0.237500X0.300000X0*%
%ADD16RoundRect,0.237500X-0.250000X-0.237500X0.250000X-0.237500X0.250000X0.237500X-0.250000X0.237500X0*%
%ADD17RoundRect,0.150000X-0.150000X0.825000X-0.150000X-0.825000X0.150000X-0.825000X0.150000X0.825000X0*%
%ADD18R,1.700000X1.700000*%
%ADD19O,1.700000X1.700000*%
%ADD20RoundRect,0.200000X-0.200000X-0.450000X0.200000X-0.450000X0.200000X0.450000X-0.200000X0.450000X0*%
%ADD21O,0.800000X1.300000*%
%ADD22R,1.650000X1.950000*%
%ADD23RoundRect,0.250000X0.250000X-0.250000X0.250000X0.250000X-0.250000X0.250000X-0.250000X-0.250000X0*%
%ADD24RoundRect,0.237500X0.250000X0.237500X-0.250000X0.237500X-0.250000X-0.237500X0.250000X-0.237500X0*%
%ADD25RoundRect,0.237500X0.237500X-0.300000X0.237500X0.300000X-0.237500X0.300000X-0.237500X-0.300000X0*%
%ADD26RoundRect,0.237500X-0.287500X-0.237500X0.287500X-0.237500X0.287500X0.237500X-0.287500X0.237500X0*%
%ADD27RoundRect,0.237500X-0.300000X-0.237500X0.300000X-0.237500X0.300000X0.237500X-0.300000X0.237500X0*%
%ADD28C,6.000000*%
%ADD29RoundRect,0.250000X-1.100000X0.412500X-1.100000X-0.412500X1.100000X-0.412500X1.100000X0.412500X0*%
%ADD30R,0.400000X0.650000*%
%ADD31RoundRect,0.250000X1.000000X0.650000X-1.000000X0.650000X-1.000000X-0.650000X1.000000X-0.650000X0*%
%ADD32RoundRect,0.250000X1.100000X-0.412500X1.100000X0.412500X-1.100000X0.412500X-1.100000X-0.412500X0*%
%ADD33RoundRect,0.237500X0.300000X0.237500X-0.300000X0.237500X-0.300000X-0.237500X0.300000X-0.237500X0*%
%ADD34RoundRect,0.150000X0.150000X-0.825000X0.150000X0.825000X-0.150000X0.825000X-0.150000X-0.825000X0*%
%ADD35RoundRect,0.250000X-1.000000X-0.650000X1.000000X-0.650000X1.000000X0.650000X-1.000000X0.650000X0*%
%ADD36RoundRect,0.250000X0.650000X-0.412500X0.650000X0.412500X-0.650000X0.412500X-0.650000X-0.412500X0*%
%ADD37RoundRect,0.150000X-0.825000X-0.150000X0.825000X-0.150000X0.825000X0.150000X-0.825000X0.150000X0*%
%ADD38RoundRect,0.075000X-0.075000X0.725000X-0.075000X-0.725000X0.075000X-0.725000X0.075000X0.725000X0*%
%ADD39RoundRect,0.075000X-0.725000X0.075000X-0.725000X-0.075000X0.725000X-0.075000X0.725000X0.075000X0*%
%ADD40R,0.650000X1.560000*%
%TA.AperFunction,Profile*%
%ADD41C,0.200000*%
%TD*%
G04 APERTURE END LIST*
D10*
%TO.C,R31*%
X162917500Y-123190000D03*
X164742500Y-123190000D03*
%TD*%
D11*
%TO.C,R26*%
X151638000Y-121515500D03*
X151638000Y-123340500D03*
%TD*%
D12*
%TO.C,R24*%
X153416000Y-123340500D03*
X153416000Y-121515500D03*
%TD*%
%TO.C,R25*%
X154940000Y-123340500D03*
X154940000Y-121515500D03*
%TD*%
D13*
%TO.C,D5*%
X149430500Y-111064000D03*
X149430500Y-112964000D03*
X151305500Y-112014000D03*
%TD*%
D14*
%TO.C,D4*%
X155369500Y-110932000D03*
X155369500Y-109032000D03*
X153494500Y-109982000D03*
%TD*%
D15*
%TO.C,C25*%
X154940000Y-118009500D03*
X154940000Y-119734500D03*
%TD*%
D16*
%TO.C,R27*%
X165203500Y-95758000D03*
X167028500Y-95758000D03*
%TD*%
D17*
%TO.C,U8*%
X164211000Y-115381000D03*
X162941000Y-115381000D03*
X161671000Y-115381000D03*
X160401000Y-115381000D03*
X159131000Y-115381000D03*
X157861000Y-115381000D03*
X156591000Y-115381000D03*
X156591000Y-120331000D03*
X157861000Y-120331000D03*
X159131000Y-120331000D03*
X160401000Y-120331000D03*
X161671000Y-120331000D03*
X162941000Y-120331000D03*
X164211000Y-120331000D03*
%TD*%
D18*
%TO.C,J10*%
X178054000Y-92202000D03*
D19*
X178054000Y-94742000D03*
X178054000Y-97282000D03*
X178054000Y-99822000D03*
%TD*%
D20*
%TO.C,J4*%
X168793000Y-125808000D03*
D21*
X170043000Y-125808000D03*
%TD*%
D15*
%TO.C,C30*%
X142494000Y-103632000D03*
X142494000Y-105357000D03*
%TD*%
D22*
%TO.C,U6*%
X152824000Y-81683000D03*
X152824000Y-84433000D03*
X155024000Y-84433000D03*
X155024000Y-81683000D03*
%TD*%
D16*
%TO.C,R29*%
X165203500Y-98806000D03*
X167028500Y-98806000D03*
%TD*%
D23*
%TO.C,D13*%
X178054000Y-105116000D03*
X178054000Y-102616000D03*
%TD*%
D24*
%TO.C,R32*%
X129690500Y-106680000D03*
X127865500Y-106680000D03*
%TD*%
D25*
%TO.C,C21*%
X158496000Y-86206500D03*
X158496000Y-84481500D03*
%TD*%
D26*
%TO.C,FB1*%
X146699000Y-85852000D03*
X148449000Y-85852000D03*
%TD*%
D27*
%TO.C,C16*%
X153061500Y-79502000D03*
X154786500Y-79502000D03*
%TD*%
D16*
%TO.C,R36*%
X143105500Y-122428000D03*
X144930500Y-122428000D03*
%TD*%
D28*
%TO.C,J3*%
X132334000Y-82931000D03*
%TD*%
D25*
%TO.C,C12*%
X150114000Y-85952500D03*
X150114000Y-84227500D03*
%TD*%
D29*
%TO.C,C36*%
X161290000Y-71335500D03*
X161290000Y-74460500D03*
%TD*%
D27*
%TO.C,C29*%
X162459500Y-105156000D03*
X164184500Y-105156000D03*
%TD*%
D12*
%TO.C,R34*%
X125984000Y-103782500D03*
X125984000Y-101957500D03*
%TD*%
D30*
%TO.C,U4*%
X136764000Y-90104000D03*
X137414000Y-90104000D03*
X138064000Y-90104000D03*
X138064000Y-88204000D03*
X136764000Y-88204000D03*
%TD*%
D27*
%TO.C,C19*%
X164237500Y-90170000D03*
X165962500Y-90170000D03*
%TD*%
D31*
%TO.C,D7*%
X168624000Y-78232000D03*
X164624000Y-78232000D03*
%TD*%
D29*
%TO.C,C39*%
X151384000Y-73113500D03*
X151384000Y-76238500D03*
%TD*%
D28*
%TO.C,J1*%
X176784000Y-82931000D03*
%TD*%
D16*
%TO.C,R30*%
X165203500Y-97282000D03*
X167028500Y-97282000D03*
%TD*%
D12*
%TO.C,R33*%
X131506000Y-103862500D03*
X131506000Y-102037500D03*
%TD*%
D25*
%TO.C,C20*%
X161544000Y-86206500D03*
X161544000Y-84481500D03*
%TD*%
D32*
%TO.C,C35*%
X161290000Y-79540500D03*
X161290000Y-76415500D03*
%TD*%
D33*
%TO.C,C28*%
X144626500Y-88646000D03*
X142901500Y-88646000D03*
%TD*%
D17*
%TO.C,D9*%
X171577000Y-115381000D03*
X170307000Y-115381000D03*
X169037000Y-115381000D03*
X167767000Y-115381000D03*
X167767000Y-120331000D03*
X169037000Y-120331000D03*
X170307000Y-120331000D03*
X171577000Y-120331000D03*
%TD*%
D33*
%TO.C,C54*%
X130402500Y-90932000D03*
X128677500Y-90932000D03*
%TD*%
D29*
%TO.C,C41*%
X154686000Y-73113500D03*
X154686000Y-76238500D03*
%TD*%
D34*
%TO.C,U11*%
X139954000Y-79691000D03*
X141224000Y-79691000D03*
X142494000Y-79691000D03*
X143764000Y-79691000D03*
X143764000Y-74741000D03*
X142494000Y-74741000D03*
X141224000Y-74741000D03*
X139954000Y-74741000D03*
%TD*%
D25*
%TO.C,C9*%
X137668000Y-93472000D03*
X137668000Y-91747000D03*
%TD*%
D12*
%TO.C,R14*%
X141224000Y-90066500D03*
X141224000Y-88241500D03*
%TD*%
D32*
%TO.C,C34*%
X157988000Y-79540500D03*
X157988000Y-76415500D03*
%TD*%
D20*
%TO.C,J9*%
X149021000Y-125808000D03*
D21*
X150271000Y-125808000D03*
X151521000Y-125808000D03*
X152771000Y-125808000D03*
X154021000Y-125808000D03*
X155271000Y-125808000D03*
%TD*%
D27*
%TO.C,C33*%
X127915500Y-99060000D03*
X129640500Y-99060000D03*
%TD*%
D25*
%TO.C,C51*%
X138583500Y-118718500D03*
X138583500Y-116993500D03*
%TD*%
D28*
%TO.C,J2*%
X154559000Y-68326000D03*
%TD*%
D27*
%TO.C,C31*%
X162459500Y-107696000D03*
X164184500Y-107696000D03*
%TD*%
D18*
%TO.C,J5*%
X172578000Y-104902000D03*
D19*
X170038000Y-104902000D03*
X172578000Y-102362000D03*
X170038000Y-102362000D03*
X172578000Y-99822000D03*
X170038000Y-99822000D03*
X172578000Y-97282000D03*
X170038000Y-97282000D03*
X172578000Y-94742000D03*
X170038000Y-94742000D03*
X172578000Y-92202000D03*
X170038000Y-92202000D03*
X172578000Y-89662000D03*
X170038000Y-89662000D03*
%TD*%
D33*
%TO.C,C27*%
X144626500Y-90170000D03*
X142901500Y-90170000D03*
%TD*%
%TO.C,C22*%
X145896500Y-105156000D03*
X144171500Y-105156000D03*
%TD*%
D35*
%TO.C,D8*%
X139163000Y-71374000D03*
X143163000Y-71374000D03*
%TD*%
D17*
%TO.C,D10*%
X145923000Y-115381000D03*
X144653000Y-115381000D03*
X143383000Y-115381000D03*
X142113000Y-115381000D03*
X142113000Y-120331000D03*
X143383000Y-120331000D03*
X144653000Y-120331000D03*
X145923000Y-120331000D03*
%TD*%
D16*
%TO.C,R35*%
X168759500Y-122428000D03*
X170584500Y-122428000D03*
%TD*%
D25*
%TO.C,C23*%
X156972000Y-86206500D03*
X156972000Y-84481500D03*
%TD*%
D27*
%TO.C,C18*%
X162459500Y-103632000D03*
X164184500Y-103632000D03*
%TD*%
D25*
%TO.C,C50*%
X140361500Y-118718500D03*
X140361500Y-116993500D03*
%TD*%
D36*
%TO.C,C42*%
X145989000Y-79594500D03*
X145989000Y-76469500D03*
%TD*%
D20*
%TO.C,J7*%
X159552000Y-125808000D03*
D21*
X160802000Y-125808000D03*
X162052000Y-125808000D03*
X163302000Y-125808000D03*
X164552000Y-125808000D03*
%TD*%
D20*
%TO.C,J6*%
X143393000Y-125808000D03*
D21*
X144643000Y-125808000D03*
%TD*%
D24*
%TO.C,R21*%
X166012500Y-93218000D03*
X164187500Y-93218000D03*
%TD*%
D37*
%TO.C,U12*%
X127065000Y-92583000D03*
X127065000Y-93853000D03*
X127065000Y-95123000D03*
X127065000Y-96393000D03*
X132015000Y-96393000D03*
X132015000Y-95123000D03*
X132015000Y-93853000D03*
X132015000Y-92583000D03*
%TD*%
D11*
%TO.C,R13*%
X139700000Y-88241500D03*
X139700000Y-90066500D03*
%TD*%
D27*
%TO.C,C17*%
X164237500Y-88646000D03*
X165962500Y-88646000D03*
%TD*%
D33*
%TO.C,C11*%
X144372500Y-83566000D03*
X142647500Y-83566000D03*
%TD*%
D11*
%TO.C,R15*%
X136144000Y-91697000D03*
X136144000Y-93522000D03*
%TD*%
D25*
%TO.C,C45*%
X147727500Y-117194500D03*
X147727500Y-115469500D03*
%TD*%
D38*
%TO.C,U7*%
X160178000Y-88591000D03*
X159678000Y-88591000D03*
X159178000Y-88591000D03*
X158678000Y-88591000D03*
X158178000Y-88591000D03*
X157678000Y-88591000D03*
X157178000Y-88591000D03*
X156678000Y-88591000D03*
X156178000Y-88591000D03*
X155678000Y-88591000D03*
X155178000Y-88591000D03*
X154678000Y-88591000D03*
X154178000Y-88591000D03*
X153678000Y-88591000D03*
X153178000Y-88591000D03*
X152678000Y-88591000D03*
X152178000Y-88591000D03*
X151678000Y-88591000D03*
X151178000Y-88591000D03*
X150678000Y-88591000D03*
X150178000Y-88591000D03*
X149678000Y-88591000D03*
X149178000Y-88591000D03*
X148678000Y-88591000D03*
X148178000Y-88591000D03*
D39*
X146503000Y-90266000D03*
X146503000Y-90766000D03*
X146503000Y-91266000D03*
X146503000Y-91766000D03*
X146503000Y-92266000D03*
X146503000Y-92766000D03*
X146503000Y-93266000D03*
X146503000Y-93766000D03*
X146503000Y-94266000D03*
X146503000Y-94766000D03*
X146503000Y-95266000D03*
X146503000Y-95766000D03*
X146503000Y-96266000D03*
X146503000Y-96766000D03*
X146503000Y-97266000D03*
X146503000Y-97766000D03*
X146503000Y-98266000D03*
X146503000Y-98766000D03*
X146503000Y-99266000D03*
X146503000Y-99766000D03*
X146503000Y-100266000D03*
X146503000Y-100766000D03*
X146503000Y-101266000D03*
X146503000Y-101766000D03*
X146503000Y-102266000D03*
D38*
X148178000Y-103941000D03*
X148678000Y-103941000D03*
X149178000Y-103941000D03*
X149678000Y-103941000D03*
X150178000Y-103941000D03*
X150678000Y-103941000D03*
X151178000Y-103941000D03*
X151678000Y-103941000D03*
X152178000Y-103941000D03*
X152678000Y-103941000D03*
X153178000Y-103941000D03*
X153678000Y-103941000D03*
X154178000Y-103941000D03*
X154678000Y-103941000D03*
X155178000Y-103941000D03*
X155678000Y-103941000D03*
X156178000Y-103941000D03*
X156678000Y-103941000D03*
X157178000Y-103941000D03*
X157678000Y-103941000D03*
X158178000Y-103941000D03*
X158678000Y-103941000D03*
X159178000Y-103941000D03*
X159678000Y-103941000D03*
X160178000Y-103941000D03*
D39*
X161853000Y-102266000D03*
X161853000Y-101766000D03*
X161853000Y-101266000D03*
X161853000Y-100766000D03*
X161853000Y-100266000D03*
X161853000Y-99766000D03*
X161853000Y-99266000D03*
X161853000Y-98766000D03*
X161853000Y-98266000D03*
X161853000Y-97766000D03*
X161853000Y-97266000D03*
X161853000Y-96766000D03*
X161853000Y-96266000D03*
X161853000Y-95766000D03*
X161853000Y-95266000D03*
X161853000Y-94766000D03*
X161853000Y-94266000D03*
X161853000Y-93766000D03*
X161853000Y-93266000D03*
X161853000Y-92766000D03*
X161853000Y-92266000D03*
X161853000Y-91766000D03*
X161853000Y-91266000D03*
X161853000Y-90766000D03*
X161853000Y-90266000D03*
%TD*%
D25*
%TO.C,C24*%
X160020000Y-86206500D03*
X160020000Y-84481500D03*
%TD*%
%TO.C,C44*%
X173228000Y-117194500D03*
X173228000Y-115469500D03*
%TD*%
D29*
%TO.C,C40*%
X146497000Y-71389500D03*
X146497000Y-74514500D03*
%TD*%
D16*
%TO.C,R20*%
X146661500Y-84328000D03*
X148486500Y-84328000D03*
%TD*%
D33*
%TO.C,C26*%
X145896500Y-103632000D03*
X144171500Y-103632000D03*
%TD*%
D25*
%TO.C,C38*%
X131506000Y-100430500D03*
X131506000Y-98705500D03*
%TD*%
D17*
%TO.C,U9*%
X167767000Y-70169000D03*
X166497000Y-70169000D03*
X165227000Y-70169000D03*
X163957000Y-70169000D03*
X163957000Y-75119000D03*
X165227000Y-75119000D03*
X166497000Y-75119000D03*
X167767000Y-75119000D03*
%TD*%
D15*
%TO.C,C10*%
X135128000Y-88318000D03*
X135128000Y-90043000D03*
%TD*%
D36*
%TO.C,C43*%
X148529000Y-79594500D03*
X148529000Y-76469500D03*
%TD*%
D16*
%TO.C,R28*%
X167028500Y-100330000D03*
X165203500Y-100330000D03*
%TD*%
D24*
%TO.C,R23*%
X154074500Y-86614000D03*
X152249500Y-86614000D03*
%TD*%
D40*
%TO.C,U10*%
X127828000Y-103712000D03*
X128778000Y-103712000D03*
X129728000Y-103712000D03*
X129728000Y-101012000D03*
X127828000Y-101012000D03*
%TD*%
D41*
X173087071Y-130809973D02*
G75*
G03*
X175119073Y-128778000I29J2031973D01*
G01*
X134281607Y-124064347D02*
G75*
G03*
X133039370Y-121386051I-3504807J1647D01*
G01*
X176351146Y-121296261D02*
G75*
G03*
X175119073Y-123962254I2268654J-2666139D01*
G01*
X134281619Y-124064347D02*
X134281619Y-128778000D01*
X173087071Y-130810000D02*
X136313619Y-130810002D01*
X175119073Y-123962254D02*
X175119073Y-128778000D01*
X188142262Y-95782046D02*
G75*
G03*
X121142262Y-95782046I-33500000J0D01*
G01*
X134281598Y-128778000D02*
G75*
G03*
X136313619Y-130810002I2032002J0D01*
G01*
X176351135Y-121296249D02*
G75*
G03*
X188142262Y-95782046I-21708895J25514219D01*
G01*
X121142265Y-95782046D02*
G75*
G03*
X133039370Y-121386051I33499975J-14D01*
G01*
M02*
